<?xml version="1.0" encoding="UTF-8" standalone="no"?>
<!DOCTYPE svg PUBLIC "-//W3C//DTD SVG 1.1//EN" "http://www.w3.org/Graphics/SVG/1.1/DTD/svg11.dtd">
<svg width="100%" height="100%" viewBox="0 0 122 38" version="1.1" xmlns="http://www.w3.org/2000/svg" xmlns:xlink="http://www.w3.org/1999/xlink" xml:space="preserve" xmlns:serif="http://www.serif.com/" style="fill-rule:evenodd;clip-rule:evenodd;stroke-linejoin:round;stroke-miterlimit:2;">
    <g transform="matrix(1,0,0,1,-36,-23)">
      <path id="Combined-Shape-Copy" d="M109.335,38.235C113.046,38.235 116.244,41.312 116.244,45.958C116.244,50.484 113.046,53.652 109.154,53.652C106.921,53.652 105.352,52.596 104.387,51.39L104.297,51.39L104.297,60.229L100.978,60.229L100.978,38.687L104.267,38.687L104.267,40.527L104.357,40.527C105.292,39.442 106.71,38.235 109.335,38.235ZM44.208,23L44.348,23.521C43.078,24.063 42.188,25.321 42.188,26.788C42.188,31.897 54.485,34.736 57,36.603L56.36,38.238C54.886,38.238 51.818,38.613 51.818,45.105C51.818,51.348 49.987,56.593 49.834,57L48.831,56.732C48.854,56.596 49.015,55.113 49.015,53.312C49.015,50.315 47.954,46.439 44.06,46.439C40.165,46.439 39.26,50.316 39.26,53.312C39.26,55.137 39.633,56.636 39.652,56.732L38.65,57C36.702,54.309 36,47.887 36,44.922C36,41.377 36.667,38.738 36.824,38.253L37.521,38.439C37.851,40.787 40.881,41.936 44.06,41.936C47.235,41.936 49.134,40.484 49.134,37.837C49.134,34.506 40.655,33.082 40.655,27.199C40.655,23.984 44.147,23.017 44.208,23ZM125.263,38.234C127.676,38.234 129.125,39.502 130,40.648L130.06,40.648L130.06,38.687L133.348,38.687L133.348,53.139L130.06,53.139L130.06,51.299L129.97,51.299C128.974,52.535 127.405,53.652 125.022,53.652C121.763,53.652 118.082,51.058 118.082,45.898C118.082,41.312 121.341,38.234 125.263,38.234ZM149.849,38.234C152.263,38.234 153.711,39.502 154.587,40.648L154.647,40.648L154.647,38.687L157.935,38.687L157.935,53.139L154.647,53.139L154.647,51.299L154.556,51.299C153.56,52.535 151.991,53.652 149.608,53.652C146.349,53.652 142.669,51.058 142.669,45.898C142.669,41.312 145.927,38.234 149.849,38.234ZM92.181,38.204C95.47,38.204 97.642,40.498 97.642,44.812L97.642,53.139L94.293,53.139L94.293,44.781C94.293,42.881 93.418,41.192 91.397,41.192C89.737,41.192 88.169,42.459 88.169,45.264L88.169,53.139L84.789,53.139L84.789,44.781C84.789,42.76 83.703,41.192 81.923,41.192C79.932,41.192 78.665,42.7 78.665,45.264L78.665,53.139L75.286,53.139L75.286,38.687L78.635,38.687L78.635,40.498L78.695,40.498C79.6,39.2 81.078,38.204 82.919,38.204C85.121,38.204 86.811,39.502 87.354,40.98C88.078,39.623 89.858,38.204 92.181,38.204ZM140.143,31.416L140.143,53.139L136.763,53.139L136.763,31.416L140.143,31.416ZM71.897,38.687L71.897,53.139L68.517,53.139L68.517,38.687L71.897,38.687ZM108.4,41.192C106.047,41.192 104.146,43.092 104.146,45.988C104.146,48.794 106.107,50.725 108.43,50.725C111.326,50.725 112.774,48.312 112.774,45.928C112.774,43.515 111.356,41.192 108.4,41.192ZM125.957,41.131C122.97,41.131 121.552,43.545 121.552,45.898C121.552,48.312 122.94,50.695 125.927,50.695C128.16,50.695 130.211,48.764 130.211,45.989C130.211,43.062 128.31,41.131 125.957,41.131ZM150.543,41.131C147.557,41.131 146.138,43.545 146.138,45.898C146.138,48.312 147.526,50.695 150.514,50.695C152.746,50.695 154.798,48.764 154.798,45.989C154.798,43.062 152.897,41.131 150.543,41.131ZM72.077,32.05L72.077,35.489L68.336,35.489L68.336,32.05L72.077,32.05Z" style="fill:#fff;"/>
    </g>
</svg>
