<?xml version="1.0" encoding="UTF-8" standalone="no"?>
<!DOCTYPE svg PUBLIC "-//W3C//DTD SVG 1.1//EN" "http://www.w3.org/Graphics/SVG/1.1/DTD/svg11.dtd">
<svg width="100%" height="100%" viewBox="0 0 1024 1024" version="1.1" xmlns="http://www.w3.org/2000/svg" xmlns:xlink="http://www.w3.org/1999/xlink" xml:space="preserve" xmlns:serif="http://www.serif.com/" style="fill-rule:evenodd;clip-rule:evenodd;stroke-linejoin:round;stroke-miterlimit:2;">
    <g transform="matrix(1,0,0,1,-54.8333,-21629.7)">
        <g id="api-integration" serif:id="api integration" transform="matrix(0.339642,0,0,0.339642,3389.89,9629.85)">
            <rect x="-9819.34" y="35331" width="3014.94" height="3014.94" style="fill:none;"/>
            <g id="third-party-api-software-integration.svg" transform="matrix(5.74212,0,0,5.74212,-8311.87,36838.5)">
                <g transform="matrix(1,0,0,1,-250,-250)">
                    <g id="freepik--background-simple--inject-147">
                        <path d="M134.15,367.51C107.41,354.38 41.85,295 74.15,234.45C107.8,171.34 161.08,179.27 221.85,211.68C278.61,241.95 297.52,171.91 374.29,212.85C439.29,247.51 431.62,386.48 305.22,367.54C226.52,355.74 213.9,406.67 134.15,367.51Z" style="fill:white;fill-opacity:0.45;fill-rule:nonzero;"/>
                    </g>
                    <g id="freepik--Globe--inject-147">
                        <path d="M295.9,175.59L294.9,175.59L294.9,164.86C294.895,160.587 291.383,157.071 287.11,157.06L267.36,157.06C262.535,157.055 258.565,153.085 258.56,148.26L258.56,140L259.56,140L259.56,148.28C259.565,152.557 263.083,156.075 267.36,156.08L287.11,156.08C291.934,156.085 295.9,160.056 295.9,164.88L295.9,175.59Z" style="fill-rule:nonzero;"/>
                        <path d="M303,175.8L290,175.8C287.393,175.8 285.245,177.943 285.24,180.55L285.24,193.55C285.245,196.157 287.393,198.3 290,198.3L303,198.3C305.607,198.3 307.755,196.157 307.76,193.55L307.76,180.55C307.755,177.943 305.607,175.8 303,175.8Z" style="fill:rgb(51,94,234);fill-rule:nonzero;"/>
                        <g opacity="0.4">
                            <path d="M303,175.8L290,175.8C287.393,175.8 285.245,177.943 285.24,180.55L285.24,193.55C285.245,196.157 287.393,198.3 290,198.3L303,198.3C305.607,198.3 307.755,196.157 307.76,193.55L307.76,180.55C307.755,177.943 305.607,175.8 303,175.8Z" style="fill:white;fill-rule:nonzero;"/>
                        </g>
                        <path d="M296.4,177.92C296.397,177.92 296.393,177.92 296.39,177.92C291.486,177.92 287.45,181.956 287.45,186.86C287.45,191.764 291.486,195.8 296.39,195.8C301.294,195.8 305.33,191.764 305.33,186.86C305.33,186.857 305.33,186.853 305.33,186.85C305.319,181.955 301.295,177.931 296.4,177.92ZM294.98,178.92C294.111,179.786 293.406,180.802 292.9,181.92L290.07,181.92C291.284,180.346 293.043,179.279 295,178.93L294.98,178.92ZM289.46,182.76L292.52,182.76C292.078,183.907 291.812,185.114 291.73,186.34L291.73,186.55L288.38,186.55C288.425,185.221 288.796,183.923 289.46,182.77L289.46,182.76ZM289.64,191.21C288.907,190.076 288.47,188.776 288.37,187.43L291.75,187.43C291.88,188.735 292.217,190.011 292.75,191.21L289.64,191.21ZM290.3,192.09L293.17,192.09C293.718,193.124 294.45,194.049 295.33,194.82C293.376,194.564 291.584,193.595 290.3,192.1L290.3,192.09ZM295.96,194.2C295.26,193.596 294.663,192.884 294.19,192.09L296,192.09L295.96,194.2ZM295.96,191.2L293.71,191.2C293.138,190.011 292.776,188.732 292.64,187.42L296,187.42L295.96,191.2ZM295.96,186.54L292.61,186.54C292.668,185.235 292.959,183.952 293.47,182.75L296,182.75L295.96,186.54ZM295.96,181.87L293.88,181.87C294.394,180.86 295.101,179.96 295.96,179.22L295.96,181.87ZM304.45,186.54L301.09,186.54L301.09,186.33C301.013,185.103 300.747,183.895 300.3,182.75L303.36,182.75C304.037,183.908 304.412,185.219 304.45,186.56L304.45,186.54ZM302.73,181.87L299.91,181.87C299.397,180.754 298.689,179.738 297.82,178.87C299.775,179.231 301.526,180.309 302.73,181.89L302.73,181.87ZM296.84,179.23C297.701,179.964 298.408,180.861 298.92,181.87L296.84,181.87L296.84,179.23ZM296.84,182.75L299.33,182.75C299.843,183.952 300.137,185.235 300.2,186.54L296.84,186.54L296.84,182.75ZM296.84,187.42L300.16,187.42C300.028,188.733 299.666,190.013 299.09,191.2L296.84,191.2L296.84,187.42ZM296.84,194.21L296.84,192.1L298.61,192.1C298.143,192.898 297.545,193.611 296.84,194.21ZM297.47,194.81C298.35,194.039 299.082,193.114 299.63,192.08L302.5,192.08C301.221,193.586 299.428,194.566 297.47,194.83L297.47,194.81ZM303.16,191.2L300.06,191.2C300.593,190.001 300.93,188.725 301.06,187.42L304.44,187.42C304.343,188.775 303.902,190.083 303.16,191.22L303.16,191.2Z" style="fill:white;fill-rule:nonzero;"/>
                    </g>
                    <g id="freepik--Search--inject-147">
                        <path d="M336.25,159L335.25,159L335.25,148.27C335.25,143.997 331.733,140.48 327.46,140.48L280.33,140.48L280.33,139.48L327.46,139.48C332.28,139.485 336.245,143.45 336.25,148.27L336.25,159Z" style="fill-rule:nonzero;"/>
                        <path d="M339.48,151.22C339.48,151.22 326.48,151.22 326.48,151.22C323.873,151.22 321.725,153.363 321.72,155.97L321.72,168.97C321.725,171.577 323.873,173.72 326.48,173.72L339.48,173.72C342.087,173.72 344.235,171.577 344.24,168.97L344.24,156C344.24,155.993 344.24,155.987 344.24,155.98C344.24,153.369 342.091,151.22 339.48,151.22Z" style="fill:rgb(51,94,234);fill-rule:nonzero;"/>
                        <g opacity="0.4">
                            <path d="M339.48,151.22C339.48,151.22 326.48,151.22 326.48,151.22C323.873,151.22 321.725,153.363 321.72,155.97L321.72,168.97C321.725,171.577 323.873,173.72 326.48,173.72L339.48,173.72C342.087,173.72 344.235,171.577 344.24,168.97L344.24,156C344.24,155.993 344.24,155.987 344.24,155.98C344.24,153.369 342.091,151.22 339.48,151.22Z" style="fill:white;fill-rule:nonzero;"/>
                        </g>
                        <path d="M334.5,156.26C333.476,155.236 332.086,154.66 330.638,154.66C327.643,154.66 325.178,157.124 325.178,160.12C325.178,163.115 327.643,165.58 330.638,165.58C331.742,165.58 332.82,165.245 333.73,164.62C333.771,164.87 333.89,165.101 334.07,165.28L337.46,168.67C337.689,168.899 338.001,169.028 338.325,169.028C338.996,169.028 339.548,168.476 339.548,167.805C339.548,167.481 339.419,167.169 339.19,166.94L335.8,163.55C335.619,163.368 335.384,163.249 335.13,163.21C336.615,161.052 336.349,158.115 334.5,156.26ZM333.34,162.82C332.622,163.54 331.646,163.945 330.629,163.945C328.527,163.945 326.799,162.216 326.799,160.115C326.799,158.014 328.527,156.285 330.629,156.285C331.646,156.285 332.622,156.69 333.34,157.41C334.058,158.126 334.463,159.1 334.463,160.115C334.463,161.13 334.058,162.104 333.34,162.82Z" style="fill:white;fill-opacity:0.9;fill-rule:nonzero;"/>
                    </g>
                    <g id="freepik--Cart--inject-147">
                        <rect x="279.21" y="122.44" width="60.32" height="1"/>
                        <path d="M349.07,105.28C349.07,105.28 336.12,105.28 336.12,105.28C333.514,105.28 331.37,107.424 331.37,110.03C331.37,110.033 331.37,110.037 331.37,110.04L331.37,123C331.37,123.003 331.37,123.007 331.37,123.01C331.37,125.616 333.514,127.76 336.12,127.76C336.12,127.76 349.07,127.76 349.07,127.76C351.681,127.76 353.83,125.611 353.83,123L353.83,110C353.808,107.404 351.666,105.28 349.07,105.28Z" style="fill:rgb(51,94,234);fill-rule:nonzero;"/>
                        <g opacity="0.4">
                            <path d="M349.07,105.28C349.07,105.28 336.12,105.28 336.12,105.28C333.514,105.28 331.37,107.424 331.37,110.03C331.37,110.033 331.37,110.037 331.37,110.04L331.37,123C331.37,123.003 331.37,123.007 331.37,123.01C331.37,125.616 333.514,127.76 336.12,127.76C336.12,127.76 349.07,127.76 349.07,127.76C351.681,127.76 353.83,125.611 353.83,123L353.83,110C353.808,107.404 351.666,105.28 349.07,105.28Z" style="fill:white;fill-rule:nonzero;"/>
                        </g>
                        <g opacity="0.5">
                            <path d="M339.44,122.94C339.44,123.867 338.677,124.63 337.75,124.63C336.823,124.63 336.06,123.867 336.06,122.94C336.06,122.013 336.823,121.25 337.75,121.25C337.753,121.25 337.757,121.25 337.76,121.25C338.682,121.25 339.44,122.008 339.44,122.93C339.44,122.933 339.44,122.937 339.44,122.94Z" style="fill:white;fill-rule:nonzero;"/>
                            <path d="M346,122.94C346,123.867 345.237,124.63 344.31,124.63C343.383,124.63 342.62,123.867 342.62,122.94C342.62,122.013 343.383,121.25 344.31,121.25C344.313,121.25 344.317,121.25 344.32,121.25C345.242,121.25 346,122.008 346,122.93C346,122.933 346,122.937 346,122.94Z" style="fill:white;fill-rule:nonzero;"/>
                        </g>
                        <path d="M345.72,120.39L335.9,120.39C335.703,120.386 335.53,120.257 335.47,120.07L333.41,113.24C333.367,113.103 333.393,112.954 333.48,112.84C333.565,112.727 333.698,112.66 333.84,112.66L347.78,112.66C347.924,112.66 348.061,112.726 348.15,112.84C348.233,112.956 348.258,113.103 348.22,113.24L346.15,120.07C346.093,120.259 345.918,120.39 345.72,120.39ZM336.24,119.49L345.39,119.49L347.18,113.56L334.44,113.56L336.24,119.49Z" style="fill:white;fill-rule:nonzero;"/>
                        <path d="M347.78,113.56L347.66,113.56C347.466,113.506 347.332,113.328 347.332,113.127C347.332,113.084 347.338,113.041 347.35,113L348.14,110.25C348.353,109.513 349.032,109.001 349.8,109L351.36,109C351.607,109 351.81,109.203 351.81,109.45C351.81,109.697 351.607,109.9 351.36,109.9L349.8,109.9C349.434,109.903 349.111,110.148 349.01,110.5L348.22,113.25C348.156,113.437 347.978,113.562 347.78,113.56Z" style="fill:white;fill-rule:nonzero;"/>
                    </g>
                    <g id="freepik--Cloud--inject-147">
                        <path d="M297,109.08L277.38,109.08L277.38,108.08L297,108.08C301.273,108.08 304.79,104.563 304.79,100.29L304.79,89.56L305.79,89.56L305.79,100.29C305.785,105.11 301.82,109.075 297,109.08Z" style="fill-rule:nonzero;"/>
                        <path d="M316.61,76.83C316.61,74.402 314.638,72.43 312.21,72.43L298.45,72.43C296.022,72.43 294.05,74.402 294.05,76.83L294.05,90.59C294.05,93.018 296.022,94.99 298.45,94.99L312.21,94.99C314.638,94.99 316.61,93.018 316.61,90.59L316.61,76.83Z" style="fill:rgb(51,94,234);"/>
                        <g opacity="0.4">
                            <path d="M316.61,76.83C316.61,74.402 314.638,72.43 312.21,72.43L298.45,72.43C296.022,72.43 294.05,74.402 294.05,76.83L294.05,90.59C294.05,93.018 296.022,94.99 298.45,94.99L312.21,94.99C314.638,94.99 316.61,93.018 316.61,90.59L316.61,76.83Z" style="fill:white;"/>
                        </g>
                        <path d="M313.88,86.07C313.88,86.31 313.88,87.16 313.83,87.4L306.12,87.4L306.12,83.72L307.17,83.72L305,81.54L302.82,83.72L303.87,83.72L303.87,87.4L296.63,87.4L296.63,86.4C296.631,84.417 298.156,82.74 300.13,82.55L300.13,82.4C300.13,82.388 300.13,82.376 300.13,82.364C300.13,79.874 302.179,77.824 304.67,77.824C306.646,77.824 308.406,79.115 309,81C309.272,81.006 309.542,81.033 309.81,81.08C312.19,81.53 313.917,83.648 313.88,86.07Z" style="fill:white;fill-rule:nonzero;"/>
                    </g>
                    <g id="freepik--Tools--inject-147">
                        <rect x="250.65" y="83.46" width="1" height="20.55"/>
                        <path d="M257.63,63.86C257.63,63.86 244.68,63.86 244.68,63.86C242.069,63.86 239.92,66.009 239.92,68.62L239.92,81.57C239.92,84.181 242.069,86.33 244.68,86.33C244.68,86.33 257.63,86.33 257.63,86.33C260.236,86.33 262.38,84.186 262.38,81.58C262.38,81.577 262.38,81.573 262.38,81.57L262.38,68.62C262.38,68.617 262.38,68.613 262.38,68.61C262.38,66.004 260.236,63.86 257.63,63.86Z" style="fill:rgb(51,94,234);fill-rule:nonzero;"/>
                        <g opacity="0.4">
                            <path d="M257.63,63.86C257.63,63.86 244.68,63.86 244.68,63.86C242.069,63.86 239.92,66.009 239.92,68.62L239.92,81.57C239.92,84.181 242.069,86.33 244.68,86.33C244.68,86.33 257.63,86.33 257.63,86.33C260.236,86.33 262.38,84.186 262.38,81.58C262.38,81.577 262.38,81.573 262.38,81.57L262.38,68.62C262.38,68.617 262.38,68.613 262.38,68.61C262.38,66.004 260.236,63.86 257.63,63.86Z" style="fill:white;fill-rule:nonzero;"/>
                        </g>
                        <path d="M253.23,76.57L253.23,76.13L254.14,75.77C254.132,75.355 254.079,74.943 253.98,74.54L252.98,74.43C252.895,74.15 252.785,73.879 252.65,73.62L253.26,72.85C253.043,72.493 252.791,72.159 252.51,71.85L251.61,72.24C251.392,72.041 251.158,71.86 250.91,71.7L251.05,70.7C250.69,70.496 250.308,70.335 249.91,70.22L249.33,71.01L249,71L248.57,71L248.2,70.08C247.789,70.093 247.38,70.147 246.98,70.24L246.87,71.24C246.586,71.326 246.312,71.44 246.05,71.58L245.28,70.96C244.921,71.178 244.586,71.432 244.28,71.72L244.67,72.62C244.474,72.838 244.297,73.073 244.14,73.32L243.14,73.17C242.947,73.534 242.789,73.916 242.67,74.31L243.46,74.9C243.46,75.04 243.4,75.18 243.38,75.33C243.37,75.476 243.37,75.624 243.38,75.77L242.46,76.13C242.468,76.545 242.521,76.957 242.62,77.36L243.62,77.47C243.709,77.748 243.82,78.019 243.95,78.28L243.34,79.05C243.557,79.407 243.809,79.741 244.09,80.05L245,79.66C245.212,79.862 245.443,80.043 245.69,80.2L245.55,81.2C245.911,81.399 246.294,81.557 246.69,81.67L247.27,80.88L247.71,80.96L248.15,80.96L248.51,81.87C248.921,81.862 249.331,81.809 249.73,81.71L249.84,80.71C250.124,80.624 250.398,80.51 250.66,80.37L251.43,80.98C251.791,80.769 252.127,80.518 252.43,80.23L252.04,79.33C252.236,79.112 252.414,78.878 252.57,78.63L253.57,78.78C253.763,78.416 253.921,78.034 254.04,77.64L253.25,77.05C253.18,76.86 253.21,76.71 253.23,76.57ZM248,77.86C246.993,77.747 246.222,76.886 246.222,75.872C246.222,74.775 247.125,73.872 248.222,73.872C249.319,73.872 250.222,74.775 250.222,75.872C250.222,75.972 250.215,76.071 250.2,76.17C250.041,77.227 249.062,77.979 248,77.86Z" style="fill:rgb(51,94,234);fill-rule:nonzero;"/>
                        <path d="M253.23,76.57L253.23,76.13L254.14,75.77C254.132,75.355 254.079,74.943 253.98,74.54L252.98,74.43C252.895,74.15 252.785,73.879 252.65,73.62L253.26,72.85C253.043,72.493 252.791,72.159 252.51,71.85L251.61,72.24C251.392,72.041 251.158,71.86 250.91,71.7L251.05,70.7C250.69,70.496 250.308,70.335 249.91,70.22L249.33,71.01L249,71L248.57,71L248.2,70.08C247.789,70.093 247.38,70.147 246.98,70.24L246.87,71.24C246.586,71.326 246.312,71.44 246.05,71.58L245.28,70.96C244.921,71.178 244.586,71.432 244.28,71.72L244.67,72.62C244.474,72.838 244.297,73.073 244.14,73.32L243.14,73.17C242.947,73.534 242.789,73.916 242.67,74.31L243.46,74.9C243.46,75.04 243.4,75.18 243.38,75.33C243.37,75.476 243.37,75.624 243.38,75.77L242.46,76.13C242.468,76.545 242.521,76.957 242.62,77.36L243.62,77.47C243.709,77.748 243.82,78.019 243.95,78.28L243.34,79.05C243.557,79.407 243.809,79.741 244.09,80.05L245,79.66C245.212,79.862 245.443,80.043 245.69,80.2L245.55,81.2C245.911,81.399 246.294,81.557 246.69,81.67L247.27,80.88L247.71,80.96L248.15,80.96L248.51,81.87C248.921,81.862 249.331,81.809 249.73,81.71L249.84,80.71C250.124,80.624 250.398,80.51 250.66,80.37L251.43,80.98C251.791,80.769 252.127,80.518 252.43,80.23L252.04,79.33C252.236,79.112 252.414,78.878 252.57,78.63L253.57,78.78C253.763,78.416 253.921,78.034 254.04,77.64L253.25,77.05C253.18,76.86 253.21,76.71 253.23,76.57ZM248,77.86C246.993,77.747 246.222,76.886 246.222,75.872C246.222,74.775 247.125,73.872 248.222,73.872C249.319,73.872 250.222,74.775 250.222,75.872C250.222,75.972 250.215,76.071 250.2,76.17C250.041,77.227 249.062,77.979 248,77.86Z" style="fill:white;fill-rule:nonzero;"/>
                        <g opacity="0.5">
                            <path d="M257.338,73.52L257.322,73.52C255.923,73.52 254.772,72.369 254.772,70.97C254.772,70.014 255.309,69.135 256.16,68.7L256.16,70.31C256.163,70.622 256.289,70.92 256.51,71.14C256.727,71.357 257.023,71.48 257.33,71.48C257.972,71.48 258.5,70.952 258.5,70.31L258.5,68.7C259.351,69.135 259.888,70.014 259.888,70.97C259.888,72.369 258.737,73.52 257.338,73.52Z" style="fill:white;fill-rule:nonzero;"/>
                            <path d="M256.17,79.89L256.17,72.81C256.17,72.807 256.17,72.803 256.17,72.8C256.17,72.164 256.694,71.64 257.33,71.64L257.33,71.64C257.966,71.64 258.49,72.164 258.49,72.8C258.49,72.803 258.49,72.807 258.49,72.81L258.49,79.89C258.49,80.526 257.966,81.05 257.33,81.05C256.694,81.05 256.17,80.526 256.17,79.89Z" style="fill:white;fill-rule:nonzero;"/>
                        </g>
                    </g>
                    <g id="freepik--Machine--inject-147">
                        <path d="M207.79,175.59L206.79,175.59L206.79,164.86C206.795,160.035 210.765,156.065 215.59,156.06L235.33,156.06C239.607,156.055 243.125,152.537 243.13,148.26L243.13,140L244.13,140L244.13,148.28C244.125,153.105 240.155,157.075 235.33,157.08L215.59,157.08C211.313,157.085 207.795,160.603 207.79,164.88L207.79,175.59Z" style="fill-rule:nonzero;"/>
                        <path d="M213.27,174.33L200.27,174.33C197.659,174.33 195.51,176.479 195.51,179.09C195.51,179.09 195.51,192 195.51,192C195.51,194.606 197.654,196.75 200.26,196.75C200.263,196.75 200.267,196.75 200.27,196.75L213.27,196.75C215.868,196.739 218,194.598 218,192L218,179.09C218,176.49 215.87,174.346 213.27,174.33Z" style="fill:rgb(51,94,234);fill-rule:nonzero;"/>
                        <g opacity="0.4">
                            <path d="M213.27,174.33L200.27,174.33C197.659,174.33 195.51,176.479 195.51,179.09C195.51,179.09 195.51,192 195.51,192C195.51,194.606 197.654,196.75 200.26,196.75C200.263,196.75 200.267,196.75 200.27,196.75L213.27,196.75C215.868,196.739 218,194.598 218,192L218,179.09C218,176.49 215.87,174.346 213.27,174.33Z" style="fill:white;fill-rule:nonzero;"/>
                        </g>
                        <path d="M214.85,190.94C214.85,191.735 214.195,192.39 213.4,192.39C212.605,192.39 211.95,191.735 211.95,190.94C211.95,190.145 212.605,189.49 213.4,189.49C214.195,189.49 214.85,190.145 214.85,190.94Z" style="fill:white;fill-rule:nonzero;"/>
                        <path d="M208.43,190.94C208.43,191.735 207.775,192.39 206.98,192.39C206.185,192.39 205.53,191.735 205.53,190.94C205.53,190.145 206.185,189.49 206.98,189.49C207.775,189.49 208.43,190.145 208.43,190.94Z" style="fill:white;fill-rule:nonzero;"/>
                        <path d="M202,190.94C202,190.94 202,190.947 202,190.95C202,191.751 201.341,192.41 200.54,192.41C199.739,192.41 199.08,191.751 199.08,190.95C199.08,190.149 199.739,189.49 200.54,189.49C200.543,189.49 200.547,189.49 200.55,189.49C201.345,189.49 202,190.145 202,190.94Z" style="fill:white;fill-rule:nonzero;"/>
                        <path d="M213.73,193.84C213.73,193.84 200.16,193.84 200.16,193.84C198.613,193.84 197.34,192.567 197.34,191.02L197.34,190.86C197.34,189.313 198.613,188.04 200.16,188.04L213.73,188.04C215.277,188.04 216.55,189.313 216.55,190.86L216.55,191C216.55,191.007 216.55,191.013 216.55,191.02C216.55,192.567 215.277,193.84 213.73,193.84ZM200.16,188.94C199.107,188.94 198.24,189.807 198.24,190.86L198.24,191C198.24,192.053 199.107,192.92 200.16,192.92L213.73,192.92C214.783,192.92 215.65,192.053 215.65,191L215.65,190.84C215.65,189.787 214.783,188.92 213.73,188.92L200.16,188.94Z" style="fill:white;fill-rule:nonzero;"/>
                        <path d="M213.6,188.91C213.106,188.91 212.7,188.504 212.7,188.01L212.7,185.16L207,179.21L203.73,180.28C203.647,180.305 203.56,180.318 203.473,180.318C202.979,180.318 202.573,179.911 202.573,179.418C202.573,179.038 202.813,178.698 203.17,178.57L206.97,177.32C207.298,177.209 207.662,177.299 207.9,177.55L214.29,184.17C214.45,184.337 214.539,184.559 214.54,184.79L214.54,188C214.54,188.004 214.54,188.007 214.54,188.011C214.54,188.505 214.134,188.911 213.64,188.911C213.627,188.911 213.613,188.911 213.6,188.91Z" style="fill:white;fill-rule:nonzero;"/>
                        <path d="M203.16,182.12C202.913,182.12 202.71,181.917 202.71,181.67L202.71,179.43C202.71,179.183 202.913,178.98 203.16,178.98C203.407,178.98 203.61,179.183 203.61,179.43L203.61,181.67C203.61,181.917 203.407,182.12 203.16,182.12Z" style="fill:white;fill-rule:nonzero;"/>
                        <path d="M202.46,183.81C202.34,183.812 202.224,183.765 202.14,183.68C201.874,183.415 201.723,183.055 201.72,182.68C201.782,181.932 202.415,181.35 203.165,181.35C203.915,181.35 204.548,181.932 204.61,182.68C204.612,183.049 204.477,183.406 204.23,183.68C204.144,183.774 204.022,183.828 203.895,183.828C203.646,183.828 203.442,183.624 203.442,183.375C203.442,183.262 203.484,183.153 203.56,183.07C203.658,182.972 203.712,182.839 203.71,182.7C203.705,182.402 203.458,182.16 203.16,182.16C202.864,182.16 202.62,182.404 202.62,182.7C202.622,182.846 202.679,182.985 202.78,183.09C202.95,183.264 202.95,183.546 202.78,183.72C202.689,183.791 202.574,183.823 202.46,183.81Z" style="fill:white;fill-rule:nonzero;"/>
                        <path d="M207.55,178.22C207.55,178.223 207.55,178.227 207.55,178.23C207.55,178.427 207.388,178.59 207.19,178.59C206.993,178.59 206.83,178.427 206.83,178.23C206.83,178.033 206.993,177.87 207.19,177.87C207.384,177.87 207.545,178.026 207.55,178.22Z" style="fill:rgb(51,94,234);fill-rule:nonzero;"/>
                        <path d="M213.89,184.84C213.89,185.037 213.727,185.2 213.53,185.2C213.333,185.2 213.17,185.037 213.17,184.84C213.17,184.643 213.333,184.48 213.53,184.48C213.727,184.48 213.89,184.643 213.89,184.84Z" style="fill:rgb(51,94,234);fill-rule:nonzero;"/>
                        <rect x="201.8" y="184.81" width="2.73" height="2.73" style="fill:white;fill-opacity:0.4;"/>
                    </g>
                    <g id="freepik--Profile--inject-147">
                        <path d="M216,109.08L196.35,109.08C191.526,109.08 187.555,105.114 187.55,100.29L187.55,89.56L188.55,89.56L188.55,100.29C188.555,104.565 192.075,108.08 196.35,108.08L216,108.08L216,109.08Z" style="fill-rule:nonzero;"/>
                        <path d="M201.16,76.16C201.16,73.533 199.027,71.4 196.4,71.4L183.46,71.4C180.833,71.4 178.7,73.533 178.7,76.16L178.7,89.1C178.7,91.727 180.833,93.86 183.46,93.86L196.4,93.86C199.027,93.86 201.16,91.727 201.16,89.1L201.16,76.16Z" style="fill:rgb(51,94,234);"/>
                        <path d="M201.16,76.16C201.16,73.533 199.027,71.4 196.4,71.4L183.46,71.4C180.833,71.4 178.7,73.533 178.7,76.16L178.7,89.1C178.7,91.727 180.833,93.86 183.46,93.86L196.4,93.86C199.027,93.86 201.16,91.727 201.16,89.1L201.16,76.16Z" style="fill:white;fill-opacity:0.4;"/>
                        <path d="M189.93,76C191.93,76 192.93,77.58 192.93,79.54C192.93,81.5 191.88,83.08 189.93,83.08C187.98,83.08 186.93,81.49 186.93,79.54C186.93,77.59 188,76 189.93,76Z" style="fill:white;fill-rule:nonzero;"/>
                        <path d="M197.75,89.27L182.11,89.27C181.986,89.268 181.868,89.218 181.78,89.13L182.78,86.39C183.425,84.633 185.108,83.458 186.98,83.46L192.88,83.46C194.753,83.456 196.438,84.631 197.08,86.39L198.08,89.13C197.992,89.218 197.874,89.268 197.75,89.27Z" style="fill:white;fill-rule:nonzero;"/>
                    </g>
                    <g id="freepik--chart-2--inject-147">
                        <path d="M170.58,159L169.58,159L169.58,148.27C169.585,143.446 173.556,139.48 178.38,139.48L225.5,139.48L225.5,140.48L178.38,140.48C174.105,140.48 170.585,143.995 170.58,148.27L170.58,159Z" style="fill-rule:nonzero;"/>
                        <path d="M181.7,155.83C181.7,153.203 179.567,151.07 176.94,151.07L164,151.07C161.373,151.07 159.24,153.203 159.24,155.83L159.24,168.77C159.24,171.397 161.373,173.53 164,173.53L176.94,173.53C179.567,173.53 181.7,171.397 181.7,168.77L181.7,155.83Z" style="fill:rgb(51,94,234);"/>
                        <path d="M181.7,155.83C181.7,153.203 179.567,151.07 176.94,151.07L164,151.07C161.373,151.07 159.24,153.203 159.24,155.83L159.24,168.77C159.24,171.397 161.373,173.53 164,173.53L176.94,173.53C179.567,173.53 181.7,171.397 181.7,168.77L181.7,155.83Z" style="fill:white;fill-opacity:0.4;"/>
                        <rect x="163.06" y="164.35" width="2.79" height="5.37" style="fill:white;fill-opacity:0.6;"/>
                        <rect x="170.97" y="162.54" width="2.79" height="7.18" style="fill:white;fill-opacity:0.6;"/>
                        <rect x="166.87" y="160.73" width="2.79" height="8.99" style="fill:white;"/>
                        <rect x="174.94" y="158.92" width="2.79" height="10.8" style="fill:white;"/>
                    </g>
                    <g id="freepik--chart-1--inject-147">
                        <rect x="168.95" y="122.44" width="60.32" height="1"/>
                        <path d="M170.88,105C170.88,105 157.93,105 157.93,105C155.319,105 153.17,107.149 153.17,109.76L153.17,122.71C153.17,125.321 155.319,127.47 157.93,127.47C157.93,127.47 170.88,127.47 170.88,127.47C173.486,127.47 175.63,125.326 175.63,122.72C175.63,122.717 175.63,122.713 175.63,122.71L175.63,109.79C175.63,109.777 175.63,109.763 175.63,109.75C175.63,107.144 173.486,105 170.88,105Z" style="fill:rgb(51,94,234);fill-rule:nonzero;"/>
                        <g opacity="0.4">
                            <path d="M170.88,105C170.88,105 157.93,105 157.93,105C155.319,105 153.17,107.149 153.17,109.76L153.17,122.71C153.17,125.321 155.319,127.47 157.93,127.47C157.93,127.47 170.88,127.47 170.88,127.47C173.486,127.47 175.63,125.326 175.63,122.72C175.63,122.717 175.63,122.713 175.63,122.71L175.63,109.79C175.63,109.777 175.63,109.763 175.63,109.75C175.63,107.144 173.486,105 170.88,105Z" style="fill:white;fill-rule:nonzero;"/>
                        </g>
                        <path d="M164.9,108L164.9,110.08C166.2,110.186 167.435,110.697 168.43,111.54L169.9,110.07C168.512,108.84 166.751,108.11 164.9,108Z" style="fill:rgb(51,94,234);fill-rule:nonzero;"/>
                        <path d="M164.9,108L164.9,110.08C166.2,110.186 167.435,110.697 168.43,111.54L169.9,110.07C168.512,108.84 166.751,108.11 164.9,108Z" style="fill:white;fill-opacity:0.6;fill-rule:nonzero;"/>
                        <path d="M163.89,122.47C160.86,122.23 158.43,119.8 158.19,116.77L156.11,116.77C156.364,120.937 159.723,124.296 163.89,124.55L163.89,122.47Z" style="fill:rgb(51,94,234);fill-rule:nonzero;"/>
                        <path d="M163.89,122.47C160.86,122.23 158.43,119.8 158.19,116.77L156.11,116.77C156.364,120.937 159.723,124.296 163.89,124.55L163.89,122.47Z" style="fill:white;fill-opacity:0.8;fill-rule:nonzero;"/>
                        <path d="M158.19,115.76C158.434,112.732 160.862,110.304 163.89,110.06L163.89,108C159.723,108.254 156.364,111.613 156.11,115.78L158.19,115.76Z" style="fill:rgb(51,94,234);fill-rule:nonzero;"/>
                        <path d="M158.19,115.76C158.434,112.732 160.862,110.304 163.89,110.06L163.89,108C159.723,108.254 156.364,111.613 156.11,115.78L158.19,115.76Z" style="fill:white;fill-opacity:0.7;fill-rule:nonzero;"/>
                        <path d="M170.61,110.76L169.14,112.23C170.095,113.356 170.62,114.785 170.62,116.261C170.62,119.486 168.115,122.206 164.9,122.47L164.9,124.55C169.256,124.286 172.698,120.629 172.698,116.265C172.698,114.237 171.955,112.278 170.61,110.76Z" style="fill:white;fill-rule:nonzero;"/>
                    </g>
                    <g id="freepik--Device--inject-147">
                        <path d="M217.47,104.13L220.28,104.01L224.23,147.62L221.23,147.62C219.74,147.48 219.39,145.8 218.98,142.62L216.22,112.17C215.58,105 216.81,104.13 217.47,104.13Z" style="fill:rgb(51,94,234);fill-rule:nonzero;"/>
                        <path d="M217.47,104.13L220.28,104.01L224.23,147.62L221.23,147.62C219.74,147.48 219.39,145.8 218.98,142.62L216.22,112.17C215.58,105 216.81,104.13 217.47,104.13Z" style="fill-opacity:0.3;fill-rule:nonzero;"/>
                        <path d="M222,147.62L281.11,147.62C281.71,147.579 282.182,147.074 282.182,146.473C282.182,146.398 282.174,146.323 282.16,146.25L278.47,105.37C278.433,104.657 277.871,104.074 277.16,104.01L218,104.01C217.397,104.047 216.92,104.553 216.92,105.158C216.92,105.229 216.927,105.3 216.94,105.37L220.64,146.25C220.67,146.986 221.264,147.585 222,147.62Z" style="fill:rgb(51,94,234);fill-rule:nonzero;"/>
                        <path d="M224.22,142.45L277.9,142.45L274.92,108.42L221.24,108.42L224.22,142.45Z" style="fill:rgb(51,94,234);fill-rule:nonzero;"/>
                        <path d="M225,145.12L277.89,145.12C277.905,145.12 277.92,145.12 277.935,145.12C279.279,145.12 280.385,144.014 280.385,142.67C280.385,142.58 280.38,142.49 280.37,142.4L277.42,108.58C277.271,107.045 275.962,105.863 274.42,105.87L221.53,105.87C221.512,105.87 221.493,105.869 221.475,105.869C220.136,105.869 219.035,106.971 219.035,108.309C219.035,108.4 219.04,108.49 219.05,108.58L222,142.4C222.144,143.939 223.455,145.127 225,145.12Z" style="fill:rgb(38,50,56);fill-rule:nonzero;"/>
                        <path d="M224.22,142.45L277.9,142.45L274.92,108.42L221.24,108.42L224.22,142.45Z" style="fill:rgb(51,94,234);fill-rule:nonzero;"/>
                        <path d="M224.22,142.45L277.9,142.45L274.92,108.42L221.24,108.42L224.22,142.45Z" style="fill:white;fill-opacity:0.4;fill-rule:nonzero;"/>
                        <path d="M228.6,124.08L228.98,123.24C229.443,123.565 229.995,123.74 230.56,123.74C231.22,123.74 231.49,123.52 231.49,123.23C231.49,122.33 228.7,122.95 228.7,121.17C228.7,120.35 229.35,119.67 230.7,119.67C231.282,119.66 231.856,119.808 232.36,120.1L232.02,120.94C231.616,120.705 231.158,120.578 230.69,120.57C230.03,120.57 229.78,120.81 229.78,121.11C229.78,122 232.57,121.39 232.57,123.11C232.57,123.91 231.9,124.59 230.57,124.59C229.877,124.624 229.189,124.446 228.6,124.08Z" style="fill:white;fill-rule:nonzero;"/>
                        <path d="M233.05,122.15C233.047,122.1 233.046,122.05 233.046,122C233.046,120.557 234.233,119.37 235.676,119.37C237.118,119.37 238.306,120.557 238.306,122C238.306,123.443 237.118,124.63 235.676,124.63C235.674,124.63 235.672,124.63 235.67,124.63C235.623,124.633 235.577,124.634 235.53,124.634C234.17,124.634 233.05,123.514 233.05,122.154C233.05,122.153 233.05,122.151 233.05,122.15ZM237.18,122.15C237.164,121.333 236.487,120.67 235.67,120.67C234.842,120.67 234.16,121.352 234.16,122.18C234.16,123.008 234.842,123.69 235.67,123.69C235.684,123.69 235.698,123.691 235.712,123.691C236.518,123.691 237.182,123.027 237.182,122.221C237.182,122.197 237.181,122.174 237.18,122.15Z" style="fill:white;fill-rule:nonzero;"/>
                        <path d="M240.25,120.65L240.25,121.91L242.47,121.91L242.47,122.81L240.25,122.81L240.25,124.55L239.14,124.55L239.14,119.76L242.76,119.76L242.76,120.65L240.25,120.65Z" style="fill:white;fill-rule:nonzero;"/>
                        <path d="M244.55,120.66L243,120.66L243,119.76L247.18,119.76L247.18,120.66L245.65,120.66L245.65,124.55L244.54,124.55L244.55,120.66Z" style="fill:white;fill-rule:nonzero;"/>
                        <path d="M255,119.76L253.43,124.55L252.24,124.55L251.18,121.31L250.1,124.55L248.91,124.55L247.33,119.76L248.49,119.76L249.57,123.13L250.7,119.76L251.7,119.76L252.79,123.16L253.91,119.76L255,119.76Z" style="fill:white;fill-rule:nonzero;"/>
                        <path d="M258.57,123.52L256.35,123.52L255.92,124.52L254.79,124.52L256.92,119.73L258,119.73L260.14,124.52L259,124.52L258.57,123.52ZM258.22,122.68L257.46,120.85L256.7,122.68L258.22,122.68Z" style="fill:white;fill-rule:nonzero;"/>
                        <path d="M263.72,124.55L262.8,123.22L261.8,123.22L261.8,124.55L260.69,124.55L260.69,119.76L262.76,119.76C264.05,119.76 264.85,120.42 264.85,121.5C264.873,122.163 264.47,122.772 263.85,123.01L264.93,124.55L263.72,124.55ZM262.72,120.66L261.82,120.66L261.82,122.33L262.72,122.33C263.4,122.33 263.72,122.02 263.72,121.5C263.72,120.98 263.36,120.66 262.68,120.66L262.72,120.66Z" style="fill:white;fill-rule:nonzero;"/>
                        <path d="M269.42,123.66L269.42,124.55L265.71,124.55L265.71,119.76L269.33,119.76L269.33,120.65L266.81,120.65L266.81,121.65L269,121.65L269,122.51L266.77,122.51L266.77,123.62L269.42,123.66Z" style="fill:white;fill-rule:nonzero;"/>
                        <rect x="225.73" y="128" width="1.11" height="4.8" style="fill:white;fill-rule:nonzero;"/>
                        <path d="M232.38,128L232.38,132.8L231.47,132.8L229.08,129.89L229.08,132.8L228,132.8L228,128L228.92,128L231.3,130.92L231.3,128L232.38,128Z" style="fill:white;fill-rule:nonzero;"/>
                        <path d="M234.51,128.89L233,128.89L233,128L237.18,128L237.18,128.91L235.64,128.91L235.64,132.8L234.53,132.8L234.51,128.89Z" style="fill:white;fill-rule:nonzero;"/>
                        <path d="M241.47,131.89L241.47,132.78L237.76,132.78L237.76,128L241.38,128L241.38,128.9L238.86,128.9L238.86,129.9L241.09,129.9L241.09,130.76L238.86,130.76L238.86,131.87L241.47,131.89Z" style="fill:white;fill-rule:nonzero;"/>
                        <path d="M245.58,130.31L246.58,130.31L246.58,132.25C246.013,132.652 245.335,132.865 244.64,132.86C243.269,132.86 242.14,131.731 242.14,130.36C242.14,128.989 243.269,127.86 244.64,127.86C245.396,127.83 246.128,128.134 246.64,128.69L245.92,129.35C245.609,128.998 245.159,128.801 244.69,128.81C244.649,128.807 244.607,128.805 244.566,128.805C243.721,128.805 243.026,129.5 243.026,130.345C243.026,131.19 243.721,131.885 244.566,131.885C244.607,131.885 244.649,131.883 244.69,131.88C244.99,131.884 245.286,131.812 245.55,131.67L245.58,130.31Z" style="fill:white;fill-rule:nonzero;"/>
                        <path d="M250.69,132.78L249.76,131.44L248.76,131.44L248.76,132.78L247.65,132.78L247.65,128L249.73,128C251.01,128 251.81,128.67 251.81,129.74C251.837,130.407 251.433,131.021 250.81,131.26L251.89,132.8L250.69,132.78ZM249.64,128.89L248.74,128.89L248.74,130.56L249.64,130.56C250.32,130.56 250.64,130.25 250.64,129.72C250.64,129.19 250.32,128.89 249.64,128.89Z" style="fill:white;fill-rule:nonzero;"/>
                        <path d="M255.83,131.75L253.6,131.75L253.18,132.75L252,132.75L254.14,127.95L255.23,127.95L257.38,132.75L256.21,132.75L255.83,131.75ZM255.48,130.91L254.72,129.07L253.96,130.91L255.48,130.91Z" style="fill:white;fill-rule:nonzero;"/>
                        <path d="M258.68,128.89L257.14,128.89L257.14,128L261.32,128L261.32,128.91L259.78,128.91L259.78,132.8L258.68,132.8L258.68,128.89Z" style="fill:white;fill-rule:nonzero;"/>
                        <path d="M261.92,128L263,128L263,132.8L261.89,132.8L261.92,128Z" style="fill:white;fill-rule:nonzero;"/>
                        <path d="M263.87,130.38C263.868,130.333 263.866,130.287 263.866,130.24C263.866,128.803 265.049,127.62 266.486,127.62C267.924,127.62 269.106,128.803 269.106,130.24C269.106,131.676 267.926,132.858 266.49,132.86C266.443,132.863 266.397,132.864 266.35,132.864C264.99,132.864 263.87,131.744 263.87,130.384C263.87,130.383 263.87,130.381 263.87,130.38ZM267.99,130.38C267.968,129.573 267.298,128.92 266.491,128.92C265.668,128.92 264.991,129.597 264.991,130.42C264.991,131.243 265.667,131.92 266.49,131.92C266.507,131.921 266.525,131.921 266.542,131.921C267.343,131.921 268.002,131.262 268.002,130.461C268.002,130.434 268.001,130.407 268,130.38L267.99,130.38Z" style="fill:white;fill-rule:nonzero;"/>
                        <path d="M274.35,128L274.35,132.8L273.44,132.8L271.05,129.89L271.05,132.8L270,132.8L270,128L270.92,128L273.31,130.92L273.31,128L274.35,128Z" style="fill:white;fill-rule:nonzero;"/>
                        <path d="M239.66,105.88L229.18,145.1L232.71,145.1L243.08,105.88L239.66,105.88Z" style="fill:white;fill-opacity:0.1;fill-rule:nonzero;"/>
                        <path d="M245.11,105.88L234.62,145.1L241.62,145.1L251.99,105.88L245.11,105.88Z" style="fill:white;fill-opacity:0.1;fill-rule:nonzero;"/>
                        <path d="M221.24,108.42L221.51,111.47L275.19,111.47L274.92,108.42L221.24,108.42Z" style="fill:rgb(51,94,234);fill-rule:nonzero;"/>
                        <path d="M223.71,109.78C223.712,109.8 223.713,109.82 223.713,109.84C223.713,110.142 223.465,110.39 223.163,110.39C223.159,110.39 223.154,110.39 223.15,110.39C222.806,110.387 222.515,110.122 222.48,109.78C222.478,109.76 222.477,109.74 222.477,109.72C222.477,109.413 222.73,109.16 223.037,109.16C223.038,109.16 223.039,109.16 223.04,109.16C223.386,109.168 223.675,109.436 223.71,109.78Z" style="fill:white;fill-rule:nonzero;"/>
                        <path d="M225.33,109.78C225.332,109.8 225.333,109.82 225.333,109.84C225.333,110.142 225.085,110.39 224.783,110.39C224.779,110.39 224.774,110.39 224.77,110.39C224.426,110.387 224.135,110.122 224.1,109.78C224.098,109.76 224.097,109.74 224.097,109.72C224.097,109.413 224.35,109.16 224.657,109.16C224.658,109.16 224.659,109.16 224.66,109.16C225.006,109.168 225.295,109.436 225.33,109.78Z" style="fill:white;fill-rule:nonzero;"/>
                        <path d="M227,109.78C227.002,109.8 227.003,109.82 227.003,109.84C227.003,110.142 226.755,110.39 226.453,110.39C226.449,110.39 226.444,110.39 226.44,110.39C226.096,110.387 225.805,110.122 225.77,109.78C225.768,109.76 225.767,109.74 225.767,109.72C225.767,109.413 226.02,109.16 226.327,109.16C226.328,109.16 226.329,109.16 226.33,109.16C226.676,109.168 226.965,109.436 227,109.78Z" style="fill:white;fill-rule:nonzero;"/>
                        <path d="M284.2,149.02C284.2,148.314 283.626,147.74 282.92,147.74L222.67,147.74C221.964,147.74 221.39,148.314 221.39,149.02L221.39,149.79C221.39,150.496 221.964,151.07 222.67,151.07L282.92,151.07C283.626,151.07 284.2,150.496 284.2,149.79L284.2,149.02Z" style="fill:rgb(51,94,234);"/>
                        <path d="M245.29,147.74L307.58,147.74L307.58,148.5C307.58,149.91 306.42,151.07 305.01,151.07L247.86,151.07C246.45,151.07 245.29,149.91 245.29,148.5L245.29,147.74Z" style="fill:rgb(51,94,234);fill-rule:nonzero;"/>
                        <path d="M245.29,147.74L307.58,147.74L307.58,148.5C307.58,149.91 306.42,151.07 305.01,151.07L247.86,151.07C246.45,151.07 245.29,149.91 245.29,148.5L245.29,147.74Z" style="fill:white;fill-opacity:0.3;fill-rule:nonzero;"/>
                        <path d="M271.36,147.83C271.365,148.742 272.118,149.49 273.03,149.49L280.65,149.49C281.561,149.49 282.31,148.741 282.31,147.83L271.36,147.83Z" style="fill-opacity:0.3;fill-rule:nonzero;"/>
                    </g>
                    <g id="freepik--Character--inject-147">
                        <path d="M193.28,215.42L186.84,213.55C186.215,213.339 185.567,213.201 184.91,213.14L180.59,212.96L177.06,211.48C176.856,211.363 176.625,211.301 176.39,211.301C175.716,211.301 175.141,211.81 175.06,212.48L174.83,214.86C174.788,215.342 175.005,215.811 175.4,216.09L180.6,219.73L187.87,218.51L194.39,221.66L195.16,216L193.28,215.42Z" style="fill:rgb(181,91,82);fill-rule:nonzero;"/>
                        <path d="M306.72,217.18L313.24,215.59C313.873,215.41 314.523,215.299 315.18,215.26L319.5,215.26L323.09,213.94C323.294,213.821 323.525,213.758 323.761,213.758C324.469,213.758 325.059,214.323 325.09,215.03L325.22,217.42C325.247,217.9 325.014,218.359 324.61,218.62L319.25,222.04L312,220.51L305.35,223.38L304.83,217.7L306.72,217.18Z" style="fill:rgb(181,91,82);fill-rule:nonzero;"/>
                        <path d="M233.84,398.44L232.3,412.59L224.57,411.77L225.36,396.34L233.84,398.44Z" style="fill:rgb(181,91,82);fill-rule:nonzero;"/>
                        <path d="M220.93,411.91C220.107,411.945 219.3,411.67 218.67,411.14C218.52,410.886 218.548,410.564 218.74,410.34C218.885,410.132 219.109,409.991 219.36,409.95C220.69,409.69 223.31,411.45 223.42,411.53C223.488,411.571 223.521,411.653 223.5,411.73C223.48,411.805 223.417,411.86 223.34,411.87C222.54,411.958 221.733,411.972 220.93,411.91ZM219.79,410.3C219.674,410.279 219.556,410.279 219.44,410.3C219.282,410.313 219.138,410.398 219.05,410.53C218.9,410.75 218.94,410.86 218.99,410.93C219.31,411.47 221.28,411.63 222.76,411.56C221.859,410.955 220.851,410.527 219.79,410.3Z" style="fill:rgb(51,94,234);fill-rule:nonzero;"/>
                        <path d="M223.31,411.87C223.284,411.88 223.256,411.88 223.23,411.87C222.33,411.39 220.57,409.55 220.81,408.68C220.81,408.47 221.02,408.22 221.53,408.21C221.904,408.2 222.266,408.345 222.53,408.61C223.47,409.5 223.53,411.61 223.53,411.73C223.531,411.796 223.497,411.857 223.44,411.89L223.31,411.87ZM221.63,408.55L221.53,408.55C221.19,408.55 221.16,408.69 221.14,408.74C221.05,409.26 222.19,410.68 223.14,411.33C223.118,410.436 222.821,409.57 222.29,408.85C222.12,408.685 221.896,408.586 221.66,408.57L221.63,408.55Z" style="fill:rgb(51,94,234);fill-rule:nonzero;"/>
                        <path d="M224.22,410.83L232.76,411.48C233.083,411.496 233.353,411.74 233.4,412.06L234.4,419.13C234.407,419.183 234.411,419.236 234.411,419.29C234.411,419.87 233.976,420.365 233.4,420.44L233.15,420.44C230.08,420.15 227.35,419.78 223.52,419.5C218.99,419.16 220.1,419.79 214.77,419.5C211.56,419.31 211.25,415.62 212.62,415.5C218.9,415.18 219.69,413.35 222.26,411.31C222.83,410.911 223.53,410.74 224.22,410.83Z" style="fill:rgb(38,50,56);fill-rule:nonzero;"/>
                        <path d="M224.92,404.9L230.69,404.69L233.05,405.67L232.73,408.66L224.74,408.19L224.92,404.9Z" style="fill-opacity:0.2;fill-rule:nonzero;"/>
                        <path d="M253.44,255.89L238.61,344.58L235,406.77L223.39,406.57C220.956,384.304 220.33,361.877 221.52,339.51C223.33,306.58 230.99,268.07 231.84,257.09L236.13,249.51L244.67,250.58L253.44,255.89Z" style="fill:rgb(51,94,234);fill-rule:nonzero;"/>
                        <path d="M275.81,414.22L282.41,413.47C282.41,413.47 282.22,410.75 281.89,406.36C281.82,405.36 281.74,404.36 281.66,403.19L274.08,404.54L274,404.54C274,404.71 274.07,404.88 274.1,405.04C274.26,405.93 274.43,406.75 274.57,407.54C275.32,411.67 275.81,414.22 275.81,414.22Z" style="fill:rgb(181,91,82);fill-rule:nonzero;"/>
                        <path d="M283.66,411.12C283.58,411.115 283.51,411.064 283.48,410.99C283.458,410.917 283.482,410.839 283.54,410.79C283.65,410.7 286.1,408.7 287.46,408.85C287.71,408.874 287.943,408.992 288.11,409.18C288.322,409.389 288.378,409.711 288.25,409.98C288,410.45 287.03,410.79 286.07,410.98C285.272,411.091 284.466,411.138 283.66,411.12ZM284.21,410.77C285.69,410.71 287.64,410.38 287.92,409.77C287.92,409.7 287.99,409.58 287.82,409.38C287.723,409.253 287.57,409.178 287.41,409.18C287.29,409.165 287.17,409.165 287.05,409.18C286.013,409.529 285.05,410.068 284.21,410.77Z" style="fill:rgb(51,94,234);fill-rule:nonzero;"/>
                        <path d="M283.56,411.12C283.495,411.099 283.451,411.038 283.45,410.97C283.45,410.87 283.3,408.74 284.16,407.77C284.408,407.473 284.773,407.298 285.16,407.29C285.68,407.29 285.88,407.48 285.93,407.69C286.24,408.54 284.65,410.53 283.79,411.09C283.767,411.098 283.743,411.098 283.72,411.09C283.677,411.131 283.614,411.142 283.56,411.12ZM285.06,407.65C284.83,407.691 284.621,407.811 284.47,407.99C284.002,408.755 283.778,409.645 283.83,410.54C284.7,409.81 285.7,408.29 285.57,407.78C285.57,407.78 285.5,407.6 285.17,407.63L285.06,407.63L285.06,407.65Z" style="fill:rgb(51,94,234);fill-rule:nonzero;"/>
                        <path d="M282.19,410.33L275.45,411.33C275.13,411.385 274.888,411.656 274.87,411.98L274.48,419.12C274.478,419.147 274.477,419.175 274.477,419.202C274.477,419.802 274.951,420.305 275.55,420.34C275.633,420.35 275.717,420.35 275.8,420.34C278.8,419.78 279.8,419.52 283.6,418.9C288.09,418.16 287.04,418.9 292.33,418.09C295.51,417.6 295.5,413.9 294.12,413.94C287.83,414.21 282.85,410.19 282.19,410.33Z" style="fill:rgb(38,50,56);fill-rule:nonzero;"/>
                        <path d="M274.54,407.55L281.89,406.36C281.82,405.36 281.74,404.36 281.66,403.19L274.08,404.54L274.08,405.05C274.23,405.94 274.4,406.76 274.54,407.55Z" style="fill-opacity:0.2;fill-rule:nonzero;"/>
                        <path d="M249.89,276.49L245.89,300.2C244.7,283.2 246.29,262.97 246.29,262.97L249.89,276.49Z" style="fill-opacity:0.2;fill-rule:nonzero;"/>
                        <path d="M266.16,253.68C266.16,253.68 275.58,322.12 279.09,339.73C282.21,355.37 282.78,404.84 282.78,404.84L272.45,406C272.45,406 266.55,378.78 264.6,359.64C263.92,352.96 264.11,347.36 263.5,343.92C262.69,339.38 236.35,266.08 241.25,254.51L266.16,253.68Z" style="fill:rgb(51,94,234);fill-rule:nonzero;"/>
                        <path d="M231.44,244.5C231.785,241.54 231.869,238.555 231.69,235.58C229.32,207.28 228.47,205.58 228.69,200.58C228.718,199.675 229.305,198.877 230.16,198.58C249.74,191.92 264.97,195.08 269.39,197.58C275.28,200.9 272.93,204.45 272.86,205.46C272.29,213.85 267.67,229.4 267.57,243.01C267.57,245.01 267.77,249.81 267.9,252.47C267.951,253.544 267.204,254.505 266.15,254.72C261.76,255.63 242.5,255.87 238.89,255.72C235.44,255.6 233.17,255.39 231.72,255.2C230.646,255.053 229.836,254.125 229.836,253.04C229.836,252.879 229.854,252.718 229.89,252.56C230.45,250.17 231.27,246.27 231.44,244.5Z" style="fill:rgb(38,50,56);fill-rule:nonzero;"/>
                        <path d="M255,181.39C254.26,185.77 254.56,192.2 257.69,195.05C257.69,195.05 257.63,199.51 245.39,204.63C240.77,198.35 244.05,195.38 244.05,195.38C248.92,194.1 247.74,192.11 246.81,188.73L255,181.39Z" style="fill:rgb(181,91,82);fill-rule:nonzero;"/>
                        <path d="M251.67,184.34L246.85,188.73C247.08,189.511 247.241,190.311 247.33,191.12C249.2,190.81 252.09,189.12 252.44,187.12C252.418,186.144 252.153,185.188 251.67,184.34Z" style="fill-opacity:0.2;fill-rule:nonzero;"/>
                        <path d="M260.52,173.75C258.74,180.96 258.13,184.04 253.76,187.1C247.18,191.72 238.76,187.94 238.31,180.34C237.95,173.5 240.95,162.82 248.62,161.27C249.307,161.126 250.006,161.053 250.708,161.053C256.27,161.053 260.848,165.63 260.848,171.193C260.848,172.056 260.738,172.915 260.52,173.75Z" style="fill:rgb(181,91,82);fill-rule:nonzero;"/>
                        <path d="M248,172.82C247.88,173.41 247.48,173.82 247.1,173.82C246.72,173.82 246.48,173.2 246.59,172.61C246.7,172.02 247.11,171.61 247.49,171.66C247.87,171.71 248.09,172.25 248,172.82Z" style="fill:rgb(38,50,56);fill-rule:nonzero;"/>
                        <path d="M241.36,171.66C241.25,172.26 240.84,172.66 240.46,172.66C240.08,172.66 239.84,172.04 239.95,171.45C240.06,170.86 240.47,170.45 240.85,170.51C241.23,170.57 241.47,171.06 241.36,171.66Z" style="fill:rgb(38,50,56);fill-rule:nonzero;"/>
                        <path d="M243.71,173.75C242.93,175.007 241.981,176.151 240.89,177.15C241.424,177.702 242.174,177.991 242.94,177.94L243.71,173.75Z" style="fill:rgb(160,39,36);fill-rule:nonzero;"/>
                        <path d="M245.74,180.86C245.441,180.851 245.143,180.818 244.85,180.76C244.768,180.747 244.707,180.675 244.707,180.592C244.707,180.581 244.708,180.571 244.71,180.56C244.722,180.477 244.794,180.415 244.878,180.415C244.892,180.415 244.906,180.417 244.92,180.42C246.411,180.721 247.96,180.298 249.09,179.28C249.124,179.245 249.171,179.225 249.22,179.225C249.319,179.225 249.4,179.306 249.4,179.405C249.4,179.452 249.382,179.496 249.35,179.53C248.373,180.437 247.072,180.916 245.74,180.86Z" style="fill:rgb(38,50,56);fill-rule:nonzero;"/>
                        <path d="M251.17,171.91C251.018,171.938 250.865,171.86 250.8,171.72C250.162,170.741 249.142,170.073 247.99,169.88C247.795,169.849 247.66,169.665 247.69,169.47C247.72,169.281 247.901,169.15 248.09,169.18C249.475,169.399 250.696,170.215 251.43,171.41C251.51,171.583 251.439,171.792 251.27,171.88C251.239,171.898 251.205,171.908 251.17,171.91Z" style="fill:rgb(38,50,56);fill-rule:nonzero;"/>
                        <path d="M240.19,169.35C240.062,169.38 239.928,169.338 239.84,169.24C239.773,169.174 239.735,169.084 239.735,168.99C239.735,168.896 239.773,168.806 239.84,168.74C240.663,167.93 241.838,167.581 242.97,167.81C243.125,167.839 243.239,167.976 243.239,168.134C243.239,168.16 243.236,168.185 243.23,168.21C243.186,168.396 242.996,168.513 242.81,168.47C241.918,168.317 241.004,168.604 240.36,169.24C240.316,169.293 240.257,169.331 240.19,169.35Z" style="fill:rgb(38,50,56);fill-rule:nonzero;"/>
                        <path d="M259,194.61L257.71,194.39L250.54,198.3L248.32,198.38L244.06,194.76L242.63,195.1C241.303,199.204 241.048,203.58 241.89,207.81L244.3,219.91L246.82,233.16L247.36,231.94L249.36,227.38L252.1,222.18L257.1,209.46L258.52,204.22C259.362,201.09 259.508,197.813 258.95,194.62L259,194.61Z" style="fill:rgb(38,50,56);fill-rule:nonzero;"/>
                        <path d="M251.27,198.39C243.58,198.46 242.73,195.63 242.73,195.63L242.73,195C242.73,195 240.41,199.37 247.08,200.14C253.75,200.91 258.2,197.75 259.15,195.85C258.41,196.81 256.42,198.35 251.27,198.39Z" style="fill-opacity:0.2;fill-rule:nonzero;"/>
                        <path d="M260.24,163.84C259.994,162.674 259.438,161.596 258.63,160.72C257.767,159.85 256.35,159.818 255.45,160.65C254.129,159.154 252.18,158.361 250.19,158.51C248.298,158.676 246.606,159.771 245.68,161.43C244.79,163.08 241.98,163.66 240.12,163.85C241.34,165.08 244.36,165.85 245.87,165.02C245.5,165.6 243.81,165.91 243.12,166.02C244.231,166.69 245.466,167.128 246.75,167.31C248.065,167.473 249.354,166.813 249.99,165.65C249.421,166.609 249.556,167.838 250.32,168.65C251.101,169.454 252.327,169.65 253.32,169.13C252.688,168.933 252.271,168.321 252.32,167.66C252.341,166.954 252.808,166.335 253.48,166.12C253.577,167.045 254.033,167.897 254.75,168.49C255.41,169 255.99,169.21 256.4,169.94C256.81,170.67 256.32,172.44 255.01,172.32C255.6,172.95 258.01,172.72 258.28,171.9C257.851,173.992 256.527,175.794 254.66,176.83C255.139,176.857 255.612,176.958 256.06,177.13C256.589,177.249 257.048,177.577 257.33,178.04C257.59,178.75 257.558,179.534 257.24,180.22C256.637,182.078 255.916,183.895 255.08,185.66C257.5,185.009 259.49,183.277 260.47,180.97C262.811,180.164 264.331,177.87 264.16,175.4C265.343,174.357 266.145,172.949 266.44,171.4C266.643,169.86 265.647,168.396 264.14,168.02C264.635,166.814 264.427,165.428 263.6,164.42C263.149,163.78 262.413,163.399 261.63,163.399C261.132,163.399 260.647,163.553 260.24,163.84Z" style="fill:rgb(38,50,56);fill-rule:nonzero;"/>
                        <path d="M260.22,179C259.568,180.144 258.489,180.986 257.22,181.34C255.53,181.79 254.7,180.26 255.22,178.66C255.67,177.23 257.09,175.27 258.79,175.5C259.867,175.683 260.663,176.626 260.663,177.718C260.663,177.846 260.652,177.974 260.63,178.1C260.565,178.428 260.425,178.736 260.22,179Z" style="fill:rgb(181,91,82);fill-rule:nonzero;"/>
                        <path d="M257,173.81L252.08,172.97C251.67,171.71 249.89,171.41 249.14,171.28C248.39,171.15 246.48,170.83 245.72,172.04L244.01,171.74C243.69,170.36 241.81,170.03 241.01,169.9C240.21,169.77 237.66,169.33 237.3,171.41C237.296,171.477 237.294,171.545 237.294,171.612C237.294,173.488 238.838,175.032 240.714,175.032C242.233,175.032 243.579,174.02 244,172.56C244.01,172.447 244.01,172.333 244,172.22L245.47,172.47C245.436,172.578 245.41,172.688 245.39,172.8C245.386,172.863 245.385,172.926 245.385,172.989C245.385,174.866 246.929,176.409 248.805,176.409C250.323,176.409 251.668,175.398 252.09,173.94C252.105,173.777 252.105,173.613 252.09,173.45L256.85,174.27C257.499,174.379 258.09,174.711 258.52,175.21L258.87,174.91C258.389,174.343 257.73,173.955 257,173.81ZM240.24,174.53C238.752,174.363 237.652,173.022 237.78,171.53C237.98,170.39 238.92,170.05 240.95,170.39C242.98,170.73 243.76,171.39 243.56,172.52C243.184,173.98 241.686,174.881 240.22,174.53L240.24,174.53ZM248.35,175.91C246.863,175.743 245.766,174.4 245.9,172.91C246.09,171.77 247.04,171.43 249.07,171.78C251.1,172.13 251.87,172.78 251.68,173.9C251.304,175.364 249.799,176.267 248.33,175.91L248.35,175.91Z" style="fill:rgb(38,50,56);fill-rule:nonzero;"/>
                        <path d="M192,214.46C199.373,216.366 207.036,216.888 214.6,216C218.522,209.142 223.836,203.181 230.2,198.5L233,209C233,209 224.66,222.25 217.91,225.3C212.56,227.72 196.51,223.41 190.07,221.51C190.166,219.043 190.826,216.632 192,214.46Z" style="fill:rgb(38,50,56);fill-rule:nonzero;"/>
                        <path d="M308.43,215.64C301.026,217.362 293.367,217.701 285.84,216.64C282.075,209.694 276.893,203.616 270.63,198.8L267.63,209.23C267.63,209.23 275.68,222.67 282.37,225.86C287.66,228.39 303.8,224.43 310.28,222.68C310.204,220.224 309.572,217.816 308.43,215.64Z" style="fill:rgb(38,50,56);fill-rule:nonzero;"/>
                        <path d="M242.76,192.79L242.76,195.63C242.76,195.63 243.36,198.71 251.05,198.63C258.74,198.55 259.64,194.92 259.64,194.92L259.64,192.86C259.64,192.849 259.64,192.839 259.64,192.828C259.64,191.545 258.584,190.488 257.3,190.488C257.152,190.488 257.005,190.502 256.86,190.53C253.063,191.127 249.197,191.127 245.4,190.53C245.3,190.517 245.2,190.511 245.099,190.511C243.838,190.511 242.793,191.53 242.76,192.79Z" style="fill:rgb(38,50,56);fill-rule:nonzero;"/>
                    </g>
                </g>
            </g>
        </g>
        <g id="Sponsors">
        </g>
    </g>
</svg>
