<svg xmlns="http://www.w3.org/2000/svg" viewBox="0 0 500 500"><g id="freepik--background-simple--inject-147"><path d="M134.15,367.51c-26.74-13.13-92.3-72.51-60-133.06,33.65-63.11,86.93-55.18,147.7-22.77,56.76,30.27,75.67-39.77,152.44,1.17,65,34.66,57.33,173.63-69.07,154.69C226.52,355.74,213.9,406.67,134.15,367.51Z" style="fill:#335EEA"></path><path d="M134.15,367.51c-26.74-13.13-92.3-72.51-60-133.06,33.65-63.11,86.93-55.18,147.7-22.77,56.76,30.27,75.67-39.77,152.44,1.17,65,34.66,57.33,173.63-69.07,154.69C226.52,355.74,213.9,406.67,134.15,367.51Z" style="fill:#fff;opacity:0.9"></path></g><g id="freepik--Globe--inject-147"><path d="M295.9,175.59h-1V164.86a7.81,7.81,0,0,0-7.79-7.8H267.36a8.81,8.81,0,0,1-8.8-8.8V140h1v8.28a7.81,7.81,0,0,0,7.8,7.8h19.75a8.8,8.8,0,0,1,8.79,8.8Z"></path><path d="M303,175.8H290a4.76,4.76,0,0,0-4.76,4.75v13a4.76,4.76,0,0,0,4.76,4.75H303a4.76,4.76,0,0,0,4.76-4.75v-13A4.76,4.76,0,0,0,303,175.8Z" style="fill:#335EEA"></path><g style="opacity:0.4"><path d="M303,175.8H290a4.76,4.76,0,0,0-4.76,4.75v13a4.76,4.76,0,0,0,4.76,4.75H303a4.76,4.76,0,0,0,4.76-4.75v-13A4.76,4.76,0,0,0,303,175.8Z" style="fill:#fff"></path></g><path d="M296.4,177.92a8.94,8.94,0,1,0,8.93,8.93A8.95,8.95,0,0,0,296.4,177.92Zm-1.42,1a10.13,10.13,0,0,0-2.08,3h-2.83A8,8,0,0,1,295,178.93Zm-5.52,3.84h3.06a12.21,12.21,0,0,0-.79,3.58l0,.21h-3.35A8.13,8.13,0,0,1,289.46,182.77Zm.18,8.45a8.07,8.07,0,0,1-1.27-3.78h3.38a12.3,12.3,0,0,0,1,3.78Zm.66.88h2.87a9.6,9.6,0,0,0,2.16,2.73A8,8,0,0,1,290.3,192.1Zm5.66,2.11a8.59,8.59,0,0,1-1.77-2.11H296Zm0-3h-2.25a11.46,11.46,0,0,1-1.07-3.78H296Zm0-4.66h-3.35a10.94,10.94,0,0,1,.86-3.79H296Zm0-4.67h-2.08a8.72,8.72,0,0,1,2.08-2.65Zm8.49,4.67h-3.36v-.21h0a11.9,11.9,0,0,0-.79-3.58h3.06A8,8,0,0,1,304.45,186.56Zm-1.72-4.67h-2.82a10.35,10.35,0,0,0-2.09-3A8,8,0,0,1,302.73,181.89Zm-5.89-2.64a8.55,8.55,0,0,1,2.08,2.64h-2.08Zm0,3.52h2.49a11,11,0,0,1,.87,3.79h-3.36Zm0,4.67h3.32a11.23,11.23,0,0,1-1.07,3.78h-2.25Zm0,6.77V192.1h1.77A8.2,8.2,0,0,1,296.84,194.21Zm.63.62a9.6,9.6,0,0,0,2.16-2.73h2.87A8,8,0,0,1,297.47,194.83Zm5.69-3.61h-3.1a12.3,12.3,0,0,0,1-3.78h3.38A8,8,0,0,1,303.16,191.22Z" style="fill:#fff"></path></g><g id="freepik--Search--inject-147"><path d="M336.25,159h-1V148.27a7.79,7.79,0,0,0-7.79-7.79H280.33v-1h47.13a8.8,8.8,0,0,1,8.79,8.79Z"></path><path d="M339.48,151.22h-13a4.76,4.76,0,0,0-4.76,4.75v13a4.76,4.76,0,0,0,4.76,4.75h13a4.76,4.76,0,0,0,4.76-4.75V156A4.76,4.76,0,0,0,339.48,151.22Z" style="fill:#335EEA"></path><g style="opacity:0.4"><path d="M339.48,151.22h-13a4.76,4.76,0,0,0-4.76,4.75v13a4.76,4.76,0,0,0,4.76,4.75h13a4.76,4.76,0,0,0,4.76-4.75V156A4.76,4.76,0,0,0,339.48,151.22Z" style="fill:#fff"></path></g><path d="M334.5,156.26a5.46,5.46,0,1,0-.77,8.36,1.2,1.2,0,0,0,.34.66l3.39,3.39a1.22,1.22,0,1,0,1.73-1.73l-3.39-3.39a1.2,1.2,0,0,0-.67-.34A5.46,5.46,0,0,0,334.5,156.26Zm-1.16,6.56a3.83,3.83,0,1,1,0-5.41A3.82,3.82,0,0,1,333.34,162.82Z" style="fill:#fff;opacity:0.9"></path></g><g id="freepik--Cart--inject-147"><rect x="279.21" y="122.44" width="60.32" height="1"></rect><path d="M349.07,105.28H336.12a4.75,4.75,0,0,0-4.75,4.76V123a4.75,4.75,0,0,0,4.75,4.76h12.95a4.76,4.76,0,0,0,4.76-4.76V110A4.76,4.76,0,0,0,349.07,105.28Z" style="fill:#335EEA"></path><g style="opacity:0.4"><path d="M349.07,105.28H336.12a4.75,4.75,0,0,0-4.75,4.76V123a4.75,4.75,0,0,0,4.75,4.76h12.95a4.76,4.76,0,0,0,4.76-4.76V110A4.76,4.76,0,0,0,349.07,105.28Z" style="fill:#fff"></path></g><g style="opacity:0.5"><path d="M339.44,122.94a1.69,1.69,0,1,1-1.69-1.69A1.68,1.68,0,0,1,339.44,122.94Z" style="fill:#fff"></path><path d="M346,122.94a1.69,1.69,0,1,1-1.69-1.69A1.68,1.68,0,0,1,346,122.94Z" style="fill:#fff"></path></g><path d="M345.72,120.39H335.9a.46.46,0,0,1-.43-.32l-2.06-6.83a.44.44,0,0,1,.07-.4.45.45,0,0,1,.36-.18h13.94a.47.47,0,0,1,.37.18.47.47,0,0,1,.07.4l-2.07,6.83A.45.45,0,0,1,345.72,120.39Zm-9.48-.9h9.15l1.79-5.93H334.44Z" style="fill:#fff"></path><path d="M347.78,113.56l-.12,0a.45.45,0,0,1-.31-.56l.79-2.75A1.73,1.73,0,0,1,349.8,109h1.56a.45.45,0,1,1,0,.9H349.8a.83.83,0,0,0-.79.6l-.79,2.75A.46.46,0,0,1,347.78,113.56Z" style="fill:#fff"></path></g><g id="freepik--Cloud--inject-147"><path d="M297,109.08H277.38v-1H297a7.79,7.79,0,0,0,7.79-7.79V89.56h1v10.73A8.8,8.8,0,0,1,297,109.08Z"></path><rect x="294.05" y="72.43" width="22.56" height="22.56" rx="4.4" style="fill:#335EEA"></rect><g style="opacity:0.4"><rect x="294.05" y="72.43" width="22.56" height="22.56" rx="4.4" style="fill:#fff"></rect></g><path d="M313.88,86.07c0,.24,0,1.09-.05,1.33h-7.71V83.72h1.05L305,81.54l-2.18,2.18h1.05V87.4h-7.24c0-.12,0-.86,0-1a3.87,3.87,0,0,1,3.5-3.85v-.15A4.54,4.54,0,0,1,309,81a5.29,5.29,0,0,1,.81.08A5,5,0,0,1,313.88,86.07Z" style="fill:#fff"></path></g><g id="freepik--Tools--inject-147"><rect x="250.65" y="83.46" width="1" height="20.55"></rect><path d="M257.63,63.86H244.68a4.76,4.76,0,0,0-4.76,4.76V81.57a4.76,4.76,0,0,0,4.76,4.76h12.95a4.75,4.75,0,0,0,4.75-4.76V68.62A4.75,4.75,0,0,0,257.63,63.86Z" style="fill:#335EEA"></path><g style="opacity:0.4"><path d="M257.63,63.86H244.68a4.76,4.76,0,0,0-4.76,4.76V81.57a4.76,4.76,0,0,0,4.76,4.76h12.95a4.75,4.75,0,0,0,4.75-4.76V68.62A4.75,4.75,0,0,0,257.63,63.86Z" style="fill:#fff"></path></g><path d="M253.23,76.57c0-.15,0-.3,0-.44l.91-.36a5.6,5.6,0,0,0-.16-1.23l-1-.11a4.75,4.75,0,0,0-.33-.81l.61-.77a6.52,6.52,0,0,0-.75-1l-.9.39a5.22,5.22,0,0,0-.7-.54l.14-1a5.27,5.27,0,0,0-1.14-.48l-.58.79L249,71l-.43,0-.37-.92a6.27,6.27,0,0,0-1.22.16l-.11,1a4.56,4.56,0,0,0-.82.34l-.77-.62a6,6,0,0,0-1,.76l.39.9a5.35,5.35,0,0,0-.53.7l-1-.15a6.35,6.35,0,0,0-.47,1.14l.79.59c0,.14-.06.28-.08.43a3.25,3.25,0,0,0,0,.44l-.92.36a5.6,5.6,0,0,0,.16,1.23l1,.11a5.73,5.73,0,0,0,.33.81l-.61.77a6.52,6.52,0,0,0,.75,1l.91-.39a4.57,4.57,0,0,0,.69.54l-.14,1a5.47,5.47,0,0,0,1.14.47l.58-.79.44.08.44,0,.36.91a5.51,5.51,0,0,0,1.22-.16l.11-1a4.56,4.56,0,0,0,.82-.34l.77.61a5.42,5.42,0,0,0,1-.75l-.39-.9a5.15,5.15,0,0,0,.53-.7l1,.15a6.35,6.35,0,0,0,.47-1.14l-.79-.59C253.18,76.86,253.21,76.71,253.23,76.57ZM248,77.86a2,2,0,1,1,2.2-1.69A2,2,0,0,1,248,77.86Z" style="fill:#335EEA"></path><path d="M253.23,76.57c0-.15,0-.3,0-.44l.91-.36a5.6,5.6,0,0,0-.16-1.23l-1-.11a4.75,4.75,0,0,0-.33-.81l.61-.77a6.52,6.52,0,0,0-.75-1l-.9.39a5.22,5.22,0,0,0-.7-.54l.14-1a5.27,5.27,0,0,0-1.14-.48l-.58.79L249,71l-.43,0-.37-.92a6.27,6.27,0,0,0-1.22.16l-.11,1a4.56,4.56,0,0,0-.82.34l-.77-.62a6,6,0,0,0-1,.76l.39.9a5.35,5.35,0,0,0-.53.7l-1-.15a6.35,6.35,0,0,0-.47,1.14l.79.59c0,.14-.06.28-.08.43a3.25,3.25,0,0,0,0,.44l-.92.36a5.6,5.6,0,0,0,.16,1.23l1,.11a5.73,5.73,0,0,0,.33.81l-.61.77a6.52,6.52,0,0,0,.75,1l.91-.39a4.57,4.57,0,0,0,.69.54l-.14,1a5.47,5.47,0,0,0,1.14.47l.58-.79.44.08.44,0,.36.91a5.51,5.51,0,0,0,1.22-.16l.11-1a4.56,4.56,0,0,0,.82-.34l.77.61a5.42,5.42,0,0,0,1-.75l-.39-.9a5.15,5.15,0,0,0,.53-.7l1,.15a6.35,6.35,0,0,0,.47-1.14l-.79-.59C253.18,76.86,253.21,76.71,253.23,76.57ZM248,77.86a2,2,0,1,1,2.2-1.69A2,2,0,0,1,248,77.86Z" style="fill:#fff"></path><g style="opacity:0.5"><path d="M257.33,73.52a2.55,2.55,0,0,1-1.17-4.82v1.61a1.19,1.19,0,0,0,.35.83,1.16,1.16,0,0,0,.82.34,1.17,1.17,0,0,0,1.17-1.17V68.7a2.55,2.55,0,0,1-1.17,4.82Z" style="fill:#fff"></path><path d="M256.17,79.89V72.81a1.16,1.16,0,0,1,1.16-1.17h0a1.16,1.16,0,0,1,1.16,1.17v7.08a1.16,1.16,0,0,1-1.16,1.16h0A1.16,1.16,0,0,1,256.17,79.89Z" style="fill:#fff"></path></g></g><g id="freepik--Machine--inject-147"><path d="M207.79,175.59h-1V164.86a8.81,8.81,0,0,1,8.8-8.8h19.74a7.81,7.81,0,0,0,7.8-7.8V140h1v8.28a8.81,8.81,0,0,1-8.8,8.8H215.59a7.81,7.81,0,0,0-7.8,7.8Z"></path><path d="M213.27,174.33h-13a4.76,4.76,0,0,0-4.76,4.76V192a4.75,4.75,0,0,0,4.76,4.75h13A4.75,4.75,0,0,0,218,192V179.09A4.76,4.76,0,0,0,213.27,174.33Z" style="fill:#335EEA"></path><g style="opacity:0.4"><path d="M213.27,174.33h-13a4.76,4.76,0,0,0-4.76,4.76V192a4.75,4.75,0,0,0,4.76,4.75h13A4.75,4.75,0,0,0,218,192V179.09A4.76,4.76,0,0,0,213.27,174.33Z" style="fill:#fff"></path></g><path d="M214.85,190.94a1.45,1.45,0,1,1-1.45-1.45A1.45,1.45,0,0,1,214.85,190.94Z" style="fill:#fff"></path><path d="M208.43,190.94a1.45,1.45,0,1,1-1.45-1.45A1.45,1.45,0,0,1,208.43,190.94Z" style="fill:#fff"></path><path d="M202,190.94a1.46,1.46,0,1,1-1.46-1.45A1.45,1.45,0,0,1,202,190.94Z" style="fill:#fff"></path><path d="M213.73,193.84H200.16a2.82,2.82,0,0,1-2.82-2.82v-.16a2.82,2.82,0,0,1,2.82-2.82h13.57a2.82,2.82,0,0,1,2.82,2.82V191A2.82,2.82,0,0,1,213.73,193.84Zm-13.57-4.9a1.92,1.92,0,0,0-1.92,1.92V191a1.92,1.92,0,0,0,1.92,1.92h13.57a1.92,1.92,0,0,0,1.92-1.92v-.16a1.92,1.92,0,0,0-1.92-1.92Z" style="fill:#fff"></path><path d="M213.6,188.91a.9.9,0,0,1-.9-.9v-2.85L207,179.21l-3.27,1.07a.9.9,0,0,1-.56-1.71l3.8-1.25a.89.89,0,0,1,.93.23l6.39,6.62a.9.9,0,0,1,.25.62V188A.9.9,0,0,1,213.6,188.91Z" style="fill:#fff"></path><path d="M203.16,182.12a.45.45,0,0,1-.45-.45v-2.24a.45.45,0,1,1,.9,0v2.24A.45.45,0,0,1,203.16,182.12Z" style="fill:#fff"></path><path d="M202.46,183.81a.44.44,0,0,1-.32-.13,1.43,1.43,0,0,1-.42-1,1.45,1.45,0,0,1,2.89,0,1.48,1.48,0,0,1-.38,1,.45.45,0,0,1-.67-.61.51.51,0,0,0,.15-.37.55.55,0,0,0-.55-.54.54.54,0,0,0-.54.54.57.57,0,0,0,.16.39.45.45,0,0,1,0,.63A.44.44,0,0,1,202.46,183.81Z" style="fill:#fff"></path><path d="M207.55,178.22a.36.36,0,1,1-.36-.35A.36.36,0,0,1,207.55,178.22Z" style="fill:#335EEA"></path><path d="M213.89,184.84a.36.36,0,1,1-.36-.36A.36.36,0,0,1,213.89,184.84Z" style="fill:#335EEA"></path><rect x="201.8" y="184.81" width="2.73" height="2.73" style="fill:#fff;opacity:0.4"></rect></g><g id="freepik--Profile--inject-147"><path d="M216,109.08H196.35a8.8,8.8,0,0,1-8.8-8.79V89.56h1v10.73a7.8,7.8,0,0,0,7.8,7.79H216Z"></path><rect x="178.7" y="71.4" width="22.46" height="22.46" rx="4.76" style="fill:#335EEA"></rect><rect x="178.7" y="71.4" width="22.46" height="22.46" rx="4.76" style="fill:#fff;opacity:0.4"></rect><path d="M189.93,76c2,0,3,1.58,3,3.54s-1.05,3.54-3,3.54-3-1.59-3-3.54S188,76,189.93,76Z" style="fill:#fff"></path><path d="M197.75,89.27H182.11a.48.48,0,0,1-.33-.14l1-2.74a4.47,4.47,0,0,1,4.2-2.93h5.9a4.46,4.46,0,0,1,4.2,2.93l1,2.74A.48.48,0,0,1,197.75,89.27Z" style="fill:#fff"></path></g><g id="freepik--chart-2--inject-147"><path d="M170.58,159h-1V148.27a8.8,8.8,0,0,1,8.8-8.79H225.5v1H178.38a7.8,7.8,0,0,0-7.8,7.79Z"></path><rect x="159.24" y="151.07" width="22.46" height="22.46" rx="4.76" style="fill:#335EEA"></rect><rect x="159.24" y="151.07" width="22.46" height="22.46" rx="4.76" style="fill:#fff;opacity:0.4"></rect><rect x="163.06" y="164.35" width="2.79" height="5.37" style="fill:#fff;opacity:0.6000000000000001"></rect><rect x="170.97" y="162.54" width="2.79" height="7.18" style="fill:#fff;opacity:0.6000000000000001"></rect><rect x="166.87" y="160.73" width="2.79" height="8.99" style="fill:#fff"></rect><rect x="174.94" y="158.92" width="2.79" height="10.8" style="fill:#fff"></rect></g><g id="freepik--chart-1--inject-147"><rect x="168.95" y="122.44" width="60.32" height="1"></rect><path d="M170.88,105H157.93a4.76,4.76,0,0,0-4.76,4.76v12.95a4.76,4.76,0,0,0,4.76,4.76h12.95a4.75,4.75,0,0,0,4.75-4.76V109.79A4.75,4.75,0,0,0,170.88,105Z" style="fill:#335EEA"></path><g style="opacity:0.4"><path d="M170.88,105H157.93a4.76,4.76,0,0,0-4.76,4.76v12.95a4.76,4.76,0,0,0,4.76,4.76h12.95a4.75,4.75,0,0,0,4.75-4.76V109.79A4.75,4.75,0,0,0,170.88,105Z" style="fill:#fff"></path></g><path d="M164.9,108v2.08a6.25,6.25,0,0,1,3.53,1.46l1.47-1.47A8.28,8.28,0,0,0,164.9,108Z" style="fill:#335EEA"></path><path d="M164.9,108v2.08a6.25,6.25,0,0,1,3.53,1.46l1.47-1.47A8.28,8.28,0,0,0,164.9,108Z" style="fill:#fff;opacity:0.6000000000000001"></path><path d="M163.89,122.47a6.21,6.21,0,0,1-5.7-5.7h-2.08a8.3,8.3,0,0,0,7.78,7.78Z" style="fill:#335EEA"></path><path d="M163.89,122.47a6.21,6.21,0,0,1-5.7-5.7h-2.08a8.3,8.3,0,0,0,7.78,7.78Z" style="fill:#fff;opacity:0.8"></path><path d="M158.19,115.76a6.22,6.22,0,0,1,5.7-5.7V108a8.3,8.3,0,0,0-7.78,7.78Z" style="fill:#335EEA"></path><path d="M158.19,115.76a6.22,6.22,0,0,1,5.7-5.7V108a8.3,8.3,0,0,0-7.78,7.78Z" style="fill:#fff;opacity:0.7000000000000001"></path><path d="M170.61,110.76l-1.47,1.47a6.23,6.23,0,0,1-4.24,10.24v2.08a8.3,8.3,0,0,0,5.71-13.79Z" style="fill:#fff"></path></g><g id="freepik--Device--inject-147"><path d="M217.47,104.13l2.81-.12,3.95,43.61h-3c-1.49-.14-1.84-1.82-2.25-5l-2.76-30.45C215.58,105,216.81,104.13,217.47,104.13Z" style="fill:#335EEA"></path><path d="M217.47,104.13l2.81-.12,3.95,43.61h-3c-1.49-.14-1.84-1.82-2.25-5l-2.76-30.45C215.58,105,216.81,104.13,217.47,104.13Z" style="opacity:0.30000000000000004"></path><path d="M222,147.62h59.11a1.15,1.15,0,0,0,1.05-1.37l-3.69-40.88a1.44,1.44,0,0,0-1.31-1.36H218a1.15,1.15,0,0,0-1.06,1.36l3.7,40.88A1.43,1.43,0,0,0,222,147.62Z" style="fill:#335EEA"></path><polygon points="224.22 142.45 277.9 142.45 274.92 108.42 221.24 108.42 224.22 142.45" style="fill:#335EEA"></polygon><path d="M225,145.12h52.89a2.45,2.45,0,0,0,2.48-2.72l-2.95-33.82a3,3,0,0,0-3-2.71H221.53a2.44,2.44,0,0,0-2.48,2.71L222,142.4A3,3,0,0,0,225,145.12Z" style="fill:#263238"></path><polygon points="224.22 142.45 277.9 142.45 274.92 108.42 221.24 108.42 224.22 142.45" style="fill:#335EEA"></polygon><polygon points="224.22 142.45 277.9 142.45 274.92 108.42 221.24 108.42 224.22 142.45" style="fill:#fff;opacity:0.4"></polygon><path d="M228.6,124.08l.38-.84a2.75,2.75,0,0,0,1.58.5c.66,0,.93-.22.93-.51,0-.9-2.79-.28-2.79-2.06,0-.82.65-1.5,2-1.5a3.2,3.2,0,0,1,1.66.43l-.34.84a2.74,2.74,0,0,0-1.33-.37c-.66,0-.91.24-.91.54,0,.89,2.79.28,2.79,2,0,.8-.67,1.48-2,1.48A3.41,3.41,0,0,1,228.6,124.08Z" style="fill:#fff"></path><path d="M233.05,122.15a2.63,2.63,0,1,1,2.62,2.48A2.48,2.48,0,0,1,233.05,122.15Zm4.13,0a1.51,1.51,0,1,0-1.51,1.54A1.47,1.47,0,0,0,237.18,122.15Z" style="fill:#fff"></path><path d="M240.25,120.65v1.26h2.22v.9h-2.22v1.74h-1.11v-4.79h3.62v.89Z" style="fill:#fff"></path><path d="M244.55,120.66H243v-.9h4.18v.9h-1.53v3.89h-1.11Z" style="fill:#fff"></path><path d="M255,119.76l-1.57,4.79h-1.19l-1.06-3.24-1.08,3.24h-1.19l-1.58-4.79h1.16l1.08,3.37,1.13-3.37h1l1.09,3.4,1.12-3.4Z" style="fill:#fff"></path><path d="M258.57,123.52h-2.22l-.43,1h-1.13l2.13-4.79H258l2.14,4.79H259Zm-.35-.84-.76-1.83-.76,1.83Z" style="fill:#fff"></path><path d="M263.72,124.55l-.92-1.33h-1v1.33h-1.11v-4.79h2.07c1.29,0,2.09.66,2.09,1.74a1.56,1.56,0,0,1-1,1.51l1.08,1.54Zm-1-3.89h-.9v1.67h.9c.68,0,1-.31,1-.83S263.36,120.66,262.68,120.66Z" style="fill:#fff"></path><path d="M269.42,123.66v.89h-3.71v-4.79h3.62v.89h-2.52v1H269v.86h-2.23v1.11Z" style="fill:#fff"></path><path d="M225.73,128h1.11v4.8h-1.11Z" style="fill:#fff"></path><path d="M232.38,128v4.8h-.91l-2.39-2.91v2.91H228V128h.92l2.38,2.92V128Z" style="fill:#fff"></path><path d="M234.51,128.89H233V128h4.18v.91h-1.54v3.89h-1.11Z" style="fill:#fff"></path><path d="M241.47,131.89v.89h-3.71V128h3.62v.9h-2.52v1h2.23v.86h-2.23v1.11Z" style="fill:#fff"></path><path d="M245.58,130.31h1v1.94a3.31,3.31,0,0,1-1.94.61,2.48,2.48,0,1,1,0-5,2.58,2.58,0,0,1,2,.83l-.72.66a1.6,1.6,0,0,0-1.23-.54,1.54,1.54,0,1,0,0,3.07,1.76,1.76,0,0,0,.86-.21Z" style="fill:#fff"></path><path d="M250.69,132.78l-.93-1.34h-1v1.34h-1.11V128h2.08c1.28,0,2.08.67,2.08,1.74a1.56,1.56,0,0,1-1,1.52l1.08,1.54Zm-1.05-3.89h-.9v1.67h.9c.68,0,1-.31,1-.84S250.32,128.89,249.64,128.89Z" style="fill:#fff"></path><path d="M255.83,131.75H253.6l-.42,1H252l2.14-4.8h1.09l2.15,4.8h-1.17Zm-.35-.84-.76-1.84-.76,1.84Z" style="fill:#fff"></path><path d="M258.68,128.89h-1.54V128h4.18v.91h-1.54v3.89h-1.1Z" style="fill:#fff"></path><path d="M261.92,128H263v4.8h-1.11Z" style="fill:#fff"></path><path d="M263.87,130.38a2.62,2.62,0,1,1,2.62,2.48A2.48,2.48,0,0,1,263.87,130.38Zm4.12,0a1.5,1.5,0,1,0-1.5,1.54A1.46,1.46,0,0,0,268,130.38Z" style="fill:#fff"></path><path d="M274.35,128v4.8h-.91l-2.39-2.91v2.91H270V128h.92l2.39,2.92V128Z" style="fill:#fff"></path><polygon points="239.66 105.88 229.18 145.1 232.71 145.1 243.08 105.88 239.66 105.88" style="fill:#fff;opacity:0.1;isolation:isolate"></polygon><polygon points="245.11 105.88 234.62 145.1 241.62 145.1 251.99 105.88 245.11 105.88" style="fill:#fff;opacity:0.1;isolation:isolate"></polygon><polygon points="221.24 108.42 221.51 111.47 275.19 111.47 274.92 108.42 221.24 108.42" style="fill:#335EEA"></polygon><path d="M223.71,109.78a.55.55,0,0,1-.56.61.68.68,0,0,1-.67-.61.56.56,0,0,1,.56-.62A.69.69,0,0,1,223.71,109.78Z" style="fill:#fff"></path><path d="M225.33,109.78a.55.55,0,0,1-.56.61.68.68,0,0,1-.67-.61.56.56,0,0,1,.56-.62A.69.69,0,0,1,225.33,109.78Z" style="fill:#fff"></path><path d="M227,109.78a.55.55,0,0,1-.56.61.68.68,0,0,1-.67-.61.56.56,0,0,1,.56-.62A.69.69,0,0,1,227,109.78Z" style="fill:#fff"></path><rect x="221.39" y="147.74" width="62.81" height="3.33" rx="1.28" style="fill:#335EEA"></rect><path d="M245.29,147.74h62.29a0,0,0,0,1,0,0v.76a2.57,2.57,0,0,1-2.57,2.57H247.86a2.57,2.57,0,0,1-2.57-2.57v-.76A0,0,0,0,1,245.29,147.74Z" style="fill:#335EEA"></path><path d="M245.29,147.74h62.29a0,0,0,0,1,0,0v.76a2.57,2.57,0,0,1-2.57,2.57H247.86a2.57,2.57,0,0,1-2.57-2.57v-.76A0,0,0,0,1,245.29,147.74Z" style="fill:#fff;opacity:0.30000000000000004"></path><path d="M271.36,147.83a1.67,1.67,0,0,0,1.67,1.66h7.62a1.66,1.66,0,0,0,1.66-1.66Z" style="opacity:0.30000000000000004"></path></g><g id="freepik--Character--inject-147"><path d="M193.28,215.42l-6.44-1.87a8.51,8.51,0,0,0-1.93-.41l-4.32-.18-3.53-1.48a1.34,1.34,0,0,0-2,1l-.23,2.38a1.36,1.36,0,0,0,.57,1.23l5.2,3.64,7.27-1.22,6.52,3.15.77-5.66Z" style="fill:#b55b52"></path><path d="M306.72,217.18l6.52-1.59a9.05,9.05,0,0,1,1.94-.33h4.32l3.59-1.32a1.33,1.33,0,0,1,2,1.09l.13,2.39a1.34,1.34,0,0,1-.61,1.2l-5.36,3.42L312,220.51l-6.65,2.87-.52-5.68Z" style="fill:#b55b52"></path><polygon points="233.84 398.44 232.3 412.59 224.57 411.77 225.36 396.34 233.84 398.44" style="fill:#b55b52"></polygon><path d="M220.93,411.91a3.29,3.29,0,0,1-2.26-.77.69.69,0,0,1,.07-.8.94.94,0,0,1,.62-.39c1.33-.26,3.95,1.5,4.06,1.58a.18.18,0,0,1,.08.2.19.19,0,0,1-.16.14A12.94,12.94,0,0,1,220.93,411.91Zm-1.14-1.61a1,1,0,0,0-.35,0,.52.52,0,0,0-.39.23c-.15.22-.11.33-.06.4.32.54,2.29.7,3.77.63A8.53,8.53,0,0,0,219.79,410.3Z" style="fill:#335EEA"></path><path d="M223.31,411.87a.11.11,0,0,1-.08,0c-.9-.48-2.66-2.32-2.42-3.19,0-.21.21-.46.72-.47a1.36,1.36,0,0,1,1,.4c.94.89,1,3,1,3.12a.18.18,0,0,1-.09.16Zm-1.68-3.32-.1,0c-.34,0-.37.14-.39.19-.09.52,1.05,1.94,2,2.59a4.36,4.36,0,0,0-.85-2.48,1,1,0,0,0-.63-.28Z" style="fill:#335EEA"></path><path d="M224.22,410.83l8.54.65a.68.68,0,0,1,.64.58l1,7.07a1.16,1.16,0,0,1-1,1.31h-.25c-3.07-.29-5.8-.66-9.63-.94-4.53-.34-3.42.29-8.75,0-3.21-.19-3.52-3.88-2.15-4,6.28-.32,7.07-2.15,9.64-4.19A2.79,2.79,0,0,1,224.22,410.83Z" style="fill:#263238"></path><polygon points="224.92 404.9 230.69 404.69 233.05 405.67 232.73 408.66 224.74 408.19 224.92 404.9" style="opacity:0.2"></polygon><path d="M253.44,255.89l-14.83,88.69L235,406.77l-11.61-.2a414.48,414.48,0,0,1-1.87-67.06c1.81-32.93,9.47-71.44,10.32-82.42l4.29-7.58,8.54,1.07Z" style="fill:#335EEA"></path><path d="M275.81,414.22l6.6-.75s-.19-2.72-.52-7.11c-.07-1-.15-2-.23-3.17l-7.58,1.35H274c0,.17.07.34.1.5.16.89.33,1.71.47,2.5C275.32,411.67,275.81,414.22,275.81,414.22Z" style="fill:#b55b52"></path><path d="M283.66,411.12a.21.21,0,0,1-.18-.13.19.19,0,0,1,.06-.2c.11-.09,2.56-2.09,3.92-1.94a1,1,0,0,1,.65.33.7.7,0,0,1,.14.8c-.25.47-1.22.81-2.18,1A15,15,0,0,1,283.66,411.12Zm.55-.35c1.48-.06,3.43-.39,3.71-1,0-.07.07-.19-.1-.39a.51.51,0,0,0-.41-.2,1.45,1.45,0,0,0-.36,0A8.81,8.81,0,0,0,284.21,410.77Z" style="fill:#335EEA"></path><path d="M283.56,411.12a.16.16,0,0,1-.11-.15c0-.1-.15-2.23.71-3.2a1.34,1.34,0,0,1,1-.48c.52,0,.72.19.77.4.31.85-1.28,2.84-2.14,3.4a.1.1,0,0,1-.07,0A.15.15,0,0,1,283.56,411.12Zm1.5-3.47a1,1,0,0,0-.59.34,4.4,4.4,0,0,0-.64,2.55c.87-.73,1.87-2.25,1.74-2.76,0,0-.07-.18-.4-.15l-.11,0Z" style="fill:#335EEA"></path><path d="M282.19,410.33l-6.74,1a.7.7,0,0,0-.58.65l-.39,7.14a1.14,1.14,0,0,0,1.07,1.22,1,1,0,0,0,.25,0c3-.56,4-.82,7.8-1.44,4.49-.74,3.44,0,8.73-.81,3.18-.49,3.17-4.19,1.79-4.15C287.83,414.21,282.85,410.19,282.19,410.33Z" style="fill:#263238"></path><path d="M274.54,407.55l7.35-1.19c-.07-1-.15-2-.23-3.17l-7.58,1.35v.51C274.23,405.94,274.4,406.76,274.54,407.55Z" style="opacity:0.2"></path><path d="M249.89,276.49l-4,23.71c-1.19-17,.4-37.23.4-37.23Z" style="opacity:0.2"></path><path d="M266.16,253.68s9.42,68.44,12.93,86.05c3.12,15.64,3.69,65.11,3.69,65.11L272.45,406s-5.9-27.22-7.85-46.36c-.68-6.68-.49-12.28-1.1-15.72-.81-4.54-27.15-77.84-22.25-89.41Z" style="fill:#335EEA"></path><path d="M231.44,244.5a50.77,50.77,0,0,0,.25-8.92c-2.37-28.3-3.22-30-3-35a2.19,2.19,0,0,1,1.47-2c19.58-6.66,34.81-3.5,39.23-1,5.89,3.32,3.54,6.87,3.47,7.88-.57,8.39-5.19,23.94-5.29,37.55,0,2,.2,6.8.33,9.46a2.19,2.19,0,0,1-1.75,2.25c-4.39.91-23.65,1.15-27.26,1-3.45-.12-5.72-.33-7.17-.52a2.18,2.18,0,0,1-1.83-2.64C230.45,250.17,231.27,246.27,231.44,244.5Z" style="fill:#263238"></path><path d="M255,181.39c-.74,4.38-.44,10.81,2.69,13.66,0,0-.06,4.46-12.3,9.58-4.62-6.28-1.34-9.25-1.34-9.25,4.87-1.28,3.69-3.27,2.76-6.65Z" style="fill:#b55b52"></path><path d="M251.67,184.34l-4.82,4.39a13.86,13.86,0,0,1,.48,2.39c1.87-.31,4.76-2,5.11-4A5.89,5.89,0,0,0,251.67,184.34Z" style="opacity:0.2;isolation:isolate"></path><path d="M260.52,173.75c-1.78,7.21-2.39,10.29-6.76,13.35-6.58,4.62-15,.84-15.45-6.76-.36-6.84,2.64-17.52,10.31-19.07a10.14,10.14,0,0,1,11.9,12.48Z" style="fill:#b55b52"></path><path d="M248,172.82c-.12.59-.52,1-.9,1s-.62-.62-.51-1.21.52-1,.9-.95S248.09,172.25,248,172.82Z" style="fill:#263238"></path><path d="M241.36,171.66c-.11.6-.52,1-.9,1s-.62-.62-.51-1.21.52-1,.9-.94S241.47,171.06,241.36,171.66Z" style="fill:#263238"></path><path d="M243.71,173.75a16.15,16.15,0,0,1-2.82,3.4,2.61,2.61,0,0,0,2.05.79Z" style="fill:#a02724"></path><path d="M245.74,180.86a5.39,5.39,0,0,1-.89-.1.17.17,0,0,1-.14-.2h0a.17.17,0,0,1,.21-.14,4.81,4.81,0,0,0,4.17-1.14.18.18,0,0,1,.26.25A5,5,0,0,1,245.74,180.86Z" style="fill:#263238"></path><path d="M251.17,171.91a.34.34,0,0,1-.37-.19,4.18,4.18,0,0,0-2.81-1.84.36.36,0,0,1-.3-.41.35.35,0,0,1,.4-.29h0a4.8,4.8,0,0,1,3.34,2.23.36.36,0,0,1-.16.47h0A.23.23,0,0,1,251.17,171.91Z" style="fill:#263238"></path><path d="M240.19,169.35a.36.36,0,0,1-.35-.11.35.35,0,0,1,0-.5,3.48,3.48,0,0,1,3.13-.93.33.33,0,0,1,.26.4v0a.35.35,0,0,1-.42.26h0a2.81,2.81,0,0,0-2.45.77A.34.34,0,0,1,240.19,169.35Z" style="fill:#263238"></path><path d="M259,194.61l-1.29-.22-7.17,3.91-2.22.08-4.26-3.62-1.43.34h0a25.27,25.27,0,0,0-.74,12.71l2.41,12.1,2.52,13.25h0l.54-1.22,2-4.56,2.74-5.2,5-12.72,1.42-5.24a22.23,22.23,0,0,0,.43-9.6Z" style="fill:#263238"></path><path d="M251.27,198.39c-7.69.07-8.54-2.76-8.54-2.76V195s-2.32,4.37,4.35,5.14,11.12-2.39,12.07-4.29h0C258.41,196.81,256.42,198.35,251.27,198.39Z" style="opacity:0.2"></path><path d="M260.24,163.84a6.62,6.62,0,0,0-1.61-3.12,2.29,2.29,0,0,0-3.18-.07,6.38,6.38,0,0,0-5.26-2.14,5.74,5.74,0,0,0-4.51,2.92c-.89,1.65-3.7,2.23-5.56,2.42,1.22,1.23,4.24,2,5.75,1.17-.37.58-2.06.89-2.75,1a9.65,9.65,0,0,0,3.63,1.29,3.24,3.24,0,0,0,3.24-1.66,2.51,2.51,0,0,0,.33,3,2.54,2.54,0,0,0,3,.48,1.43,1.43,0,0,1-1-1.47,1.67,1.67,0,0,1,1.16-1.54,3.56,3.56,0,0,0,1.27,2.37c.66.51,1.24.72,1.65,1.45s-.08,2.5-1.39,2.38c.59.63,3,.4,3.27-.42a7.32,7.32,0,0,1-3.62,4.93,4.62,4.62,0,0,1,1.4.3,2,2,0,0,1,1.27.91,2.85,2.85,0,0,1-.09,2.18,45.6,45.6,0,0,1-2.16,5.44,8.16,8.16,0,0,0,5.39-4.69,5.49,5.49,0,0,0,3.69-5.57,7.1,7.1,0,0,0,2.28-4,3.07,3.07,0,0,0-2.3-3.38,3.55,3.55,0,0,0-.54-3.6A2.41,2.41,0,0,0,260.24,163.84Z" style="fill:#263238"></path><path d="M260.22,179a5,5,0,0,1-3,2.34c-1.69.45-2.52-1.08-2-2.68.45-1.43,1.87-3.39,3.57-3.16a2.25,2.25,0,0,1,1.84,2.6A2.15,2.15,0,0,1,260.22,179Z" style="fill:#b55b52"></path><path d="M257,173.81l-4.92-.84c-.41-1.26-2.19-1.56-2.94-1.69s-2.66-.45-3.42.76l-1.71-.3c-.32-1.38-2.2-1.71-3-1.84s-3.35-.57-3.71,1.51a3.42,3.42,0,0,0,6.7,1.15,2,2,0,0,0,0-.34l1.47.25a2.66,2.66,0,0,0-.08.33,3.42,3.42,0,0,0,6.7,1.14,2.75,2.75,0,0,0,0-.49l4.76.82a2.82,2.82,0,0,1,1.67.94l.35-.3A3.29,3.29,0,0,0,257,173.81Zm-16.76.72a2.78,2.78,0,0,1-2.46-3c.2-1.14,1.14-1.48,3.17-1.14s2.81,1,2.61,2.13A2.78,2.78,0,0,1,240.22,174.53Zm8.11,1.38a2.77,2.77,0,0,1-2.45-3c.19-1.14,1.14-1.48,3.17-1.13s2.8,1,2.61,2.12A2.78,2.78,0,0,1,248.33,175.91Z" style="fill:#263238"></path><path d="M192,214.46A61.6,61.6,0,0,0,214.6,216a56.61,56.61,0,0,1,15.6-17.5L233,209s-8.34,13.25-15.09,16.3c-5.35,2.42-21.4-1.89-27.84-3.79A16.15,16.15,0,0,1,192,214.46Z" style="fill:#263238"></path><path d="M308.43,215.64a61.69,61.69,0,0,1-22.59,1,56.43,56.43,0,0,0-15.21-17.84l-3,10.43s8.05,13.44,14.74,16.63c5.29,2.53,21.43-1.43,27.91-3.18A16.23,16.23,0,0,0,308.43,215.64Z" style="fill:#263238"></path><path d="M242.76,192.79l0,2.84s.6,3.08,8.29,3,8.59-3.71,8.59-3.71l0-2.06a2.34,2.34,0,0,0-2.78-2.33,36.9,36.9,0,0,1-11.46,0A2.34,2.34,0,0,0,242.76,192.79Z" style="fill:#263238"></path></g></svg>
