<svg xmlns="http://www.w3.org/2000/svg" viewBox="0 0 750 500"><g id="freepik--background-simple--inject-60"><g><path d="M277.374,176.6582c-35.1651,2.8466-69.0749,8.9072-99.1494,18.4135-35.4463,11.2043-71.6635,28.6592-60.96648,51.49,19.74878,42.1491,114.48748,42.9168,95.57158,71.2571-21.4263,32.1015-7.0573,69.7567,89.0865,80.228,182.6116,19.8888,403.36169-96.4843,341.36119-160.4303-38.5989-39.8101-179.1842-76.0729-365.90339-60.9583Z" style="fill:#335EEA;"></path><path d="M277.374,176.6582c-35.1651,2.8466-69.0749,8.9072-99.1494,18.4135-35.4463,11.2043-71.6635,28.6592-60.96648,51.49,19.74878,42.1491,114.48748,42.9168,95.57158,71.2571-21.4263,32.1015-7.0573,69.7567,89.0865,80.228,182.6116,19.8888,403.36169-96.4843,341.36119-160.4303-38.5989-39.8101-179.1842-76.0729-365.90339-60.9583Z" style="fill:#fff; opacity:.9;"></path></g></g><g id="freepik--Window--inject-60"><g><g><rect x="214.2665" y="97.0413" width="338.15069" height="238.9637" rx="15.5051" ry="15.5051" style="fill:#335EEA;"></rect><rect x="214.2665" y="97.1058" width="338.15069" height="238.9637" rx="15.5052" ry="15.5052" style="fill:#fff; opacity:.8;"></rect><path d="M229.9645,97.0413h307.03279c8.51047,0,15.4199,6.90943,15.4199,15.4199v14.6425H214.2665v-14.3644c0-8.66396,7.03404-15.698,15.698-15.698Z" style="fill:#335EEA;"></path><g><circle cx="236.3179" cy="112.7565" r="4.7413" style="fill:#fff;"></circle><circle cx="247.7614" cy="112.7565" r="4.7413" style="fill:#fff;"></circle><path d="M264.292,112.7565c0,2.6186-2.1228,4.7413-4.7413,4.7413s-4.7414-2.1227-4.7414-4.7413,2.1228-4.7413,4.7414-4.7413,4.7413,2.1227,4.7413,4.7413Z" style="fill:#fff;"></path></g></g><g><rect x="240.7589" y="141.6767" width="113.4756" height="98.9534" rx="3.4216" ry="3.4216" style="fill:#335EEA;"></rect><path d="M240.7589,224.7103l29.3773-28.8567c2.7375-2.689,6.8953-3.3089,10.2982-1.5355l23.3152,12.1508,20.7402-22.5091c3.6393-3.9496,9.7484-4.3196,13.8377-.8379l15.907,13.5435v37.7085c-.4816,3.4969-4.4107,6.2562-6.776,6.2562h-99.4447c-9.3925,0-7.6919-13.4029-7.2549-15.9198Z" style="opacity:.2;"></path><path d="M316.6086,169.7594c0,6.7728-5.3638,12.2632-11.9798,12.2632s-11.9799-5.4904-11.9799-12.2632c0-6.7732,5.3638-12.2636,11.9799-12.2636s11.9798,5.4904,11.9798,12.2636Z" style="opacity:.2;"></path></g><g><g><rect x="244.663" y="253.8337" width="109.57149" height="8.6472" style="fill:none; stroke:#335EEA; stroke-miterlimit:10; stroke-width:.5px;"></rect><rect x="244.663" y="270.0106" width="109.57149" height="8.6473" style="fill:none; stroke:#335EEA; stroke-miterlimit:10; stroke-width:.5px;"></rect></g><g><rect x="244.663" y="285.8813" width="109.57149" height="8.6473" style="fill:none; stroke:#335EEA; stroke-miterlimit:10; stroke-width:.5px;"></rect><rect x="244.663" y="302.0583" width="109.57149" height="8.6472" style="fill:none; stroke:#335EEA; stroke-miterlimit:10; stroke-width:.5px;"></rect></g></g><g><g><rect x="398.91909" y="146.4905" width="55.3406" height="48.2583" rx="3.4216" ry="3.4216" style="fill:none; stroke:#335EEA; stroke-miterlimit:10; stroke-width:.5px;"></rect><path d="M398.91909,186.9849l14.327-14.0731c1.335-1.3113,3.3627-1.6137,5.0223-.7488l11.3705,5.9258,10.1147-10.9774c1.7749-1.9262,4.7542-2.1066,6.7485-.4086l7.7576,6.605v18.3899c-.2348,1.7054-2.151,3.0511-3.3045,3.0511h-48.4979c-4.5807,0-3.75129-6.5364-3.5382-7.7639Z" style="fill:none; stroke:#335EEA; stroke-miterlimit:10; stroke-width:.5px;"></path><path d="M433.256,160.1861c0,3.303-2.61591,5.9805-5.84251,5.9805s-5.8424-2.6775-5.8424-5.9805c0-3.3033,2.61591-5.9809,5.8424-5.9809s5.84251,2.6776,5.84251,5.9809Z" style="fill:none; stroke:#335EEA; stroke-miterlimit:10; stroke-width:.5px;"></path></g><rect x="401.05569" y="201.4637" width="30.8342" height="6.6549" style="fill:none; stroke:#335EEA; stroke-miterlimit:10; stroke-width:.5px;"></rect><rect x="401.05569" y="218.0689" width="55.171" height="6.655" style="fill:none; stroke:#335EEA; stroke-miterlimit:10; stroke-width:.5px;"></rect><rect x="401.05569" y="230.4766" width="55.171" height="6.655" style="fill:none; stroke:#335EEA; stroke-miterlimit:10; stroke-width:.5px;"></rect><rect x="401.05569" y="243.4917" width="32.1636" height="6.6549" style="fill:none; stroke:#335EEA; stroke-miterlimit:10; stroke-width:.5px;"></rect></g><g><g><rect x="471.90879" y="146.4905" width="55.3407" height="48.2583" rx="3.4216" ry="3.4216" style="fill:none; stroke:#335EEA; stroke-miterlimit:10; stroke-width:.5px;"></rect><path d="M471.90879,186.9849l14.327-14.0731c1.335-1.3113,3.3628-1.6137,5.0223-.7488l11.3705,5.9258,10.1147-10.9774c1.7749-1.9262,4.7542-2.1066,6.7485-.4086l7.7577,6.605v18.3899c-.2349,1.7054-2.1511,3.0511-3.3046,3.0511h-48.49789c-4.58061,0-3.75131-6.5364-3.53821-7.7639Z" style="fill:none; stroke:#335EEA; stroke-miterlimit:10; stroke-width:.5px;"></path><path d="M506.24569,160.1861c0,3.303-2.6159,5.9805-5.8424,5.9805s-5.8425-2.6775-5.8425-5.9805c0-3.3033,2.6159-5.9809,5.8425-5.9809s5.8424,2.6776,5.8424,5.9809Z" style="fill:none; stroke:#335EEA; stroke-miterlimit:10; stroke-width:.5px;"></path></g><rect x="474.04539" y="201.4637" width="30.8342" height="6.6549" style="fill:none; stroke:#335EEA; stroke-miterlimit:10; stroke-width:.5px;"></rect><rect x="474.04539" y="218.0689" width="55.171" height="6.655" style="fill:none; stroke:#335EEA; stroke-miterlimit:10; stroke-width:.5px;"></rect><rect x="474.04539" y="230.4766" width="55.171" height="6.655" style="fill:none; stroke:#335EEA; stroke-miterlimit:10; stroke-width:.5px;"></rect><rect x="474.04539" y="243.4917" width="32.16361" height="6.6549" style="fill:none; stroke:#335EEA; stroke-miterlimit:10; stroke-width:.5px;"></rect></g><rect x="397.63519" y="268.8005" width="131.5812" height="6.5076" style="fill:none; stroke:#335EEA; stroke-miterlimit:10; stroke-width:.5px;"></rect><rect x="397.63519" y="279.8938" width="131.5812" height="35.7776" style="fill:none; stroke:#335EEA; stroke-miterlimit:10; stroke-width:.5px;"></rect></g></g><g id="freepik--Colors--inject-60"><g><g><path d="M186.40161,79.1369H100.0564c-3.98938,0-7.22339,3.23401-7.22339,7.22339v79.2973c0,3.98932,3.23401,7.22339,7.22339,7.22339h38.64032c4.073,4.0274,13.39459,13.46173,13.39459,13.46173v-13.46173h34.3103c3.98932,0,7.22327-3.23407,7.22327-7.22339V86.36029c0-3.98938-3.23395-7.22339-7.22327-7.22339Z" style="fill:#335EEA;"></path><path d="M186.40161,79.1369H100.0564c-3.98938,0-7.22339,3.23401-7.22339,7.22339v79.2973c0,3.98932,3.23401,7.22339,7.22339,7.22339h38.64032c4.073,4.0274,13.39459,13.46173,13.39459,13.46173v-13.46173h34.3103c3.98932,0,7.22327-3.23407,7.22327-7.22339V86.36029c0-3.98938-3.23395-7.22339-7.22327-7.22339Z" style="fill:#fff; opacity:.8;"></path></g><path d="M141.307,90.8231c1.6659-1.7256,8.0499,1.7346,14.2592,7.7287,6.2092,5.9942,9.8924,12.2523,8.2265,13.9779-1.6659,1.7257-8.0499-1.7346-14.2592-7.7287-6.2092-5.9941-9.8924-12.2522-8.2265-13.9779Z" style="fill:#263238;"></path><path d="M149.546,104.8126c-6.2065-5.9933-9.8941-12.2471-8.2279-13.9764l-19.65393,20.3882c-1.66612,1.7214,2.01355,7.9832,8.22794,13.9765s12.58669,9.4755,14.21329,7.7226l19.6618-20.3804c-1.6345,1.7214-8.0147-1.7372-14.2212-7.7305Z" style="fill:#335EEA;"></path><path d="M149.546,104.8126c-6.2065-5.9933-9.8941-12.2471-8.2279-13.9764l-19.65393,20.3882c-1.66612,1.7214,2.01355,7.9832,8.22794,13.9765s12.58669,9.4755,14.21329,7.7226l19.6618-20.3804c-1.6345,1.7214-8.0147-1.7372-14.2212-7.7305Z" style="fill:#fff; opacity:.6;"></path><path d="M177.6173,105.776c-3.6954,6.6487-9.3808,8.5833-15.8873,7.1066h-.0474c-2.8032-.5685-7.5094-3.6165-12.1366-8.0779-2.366-2.2489-4.4838-4.7452-6.317-7.4462,.1737-2.2978,3.2769-4.2008,6.0169-4.4693,3.6087-.3632,8.2675,.3869,12.8394,6.7198,5.4801,7.5962,11.2286,6.317,12.0577,3.5059,1.4371-4.9273,6.8066-3.3243,3.4743,2.6611Zm-5.2115-4.6588c.2132-2.061-1.5398-2.8743-1.4055-.8844,.1342,1.9898,1.2555,2.3689,1.4055,.8844Zm4.1613,9.9493c1.524-.4501,1.5003-1.9188,.1422-1.2476-1.3582,.6712-1.2398,1.5635-.1422,1.2476Z" style="fill:#335EEA;"></path></g><path d="M128.70321,141.2556c3.64987,3.7167,3.69931,9.5867,.11043,13.1111-3.58888,3.5243-9.45705,3.3683-13.10692-.3484-3.64982-3.7168-3.69932-9.5868-.11043-13.1111,3.58888-3.5243,9.45705-3.3684,13.10692,.3484Zm9.58499,.6428c-3.58886,3.5243-3.53943,9.3943,.1104,13.1111,3.6499,3.7167,9.5181,3.8727,13.107,.3483,3.5888-3.5243,3.5394-9.3943-.1105-13.111-3.6498-3.7168-9.518-3.8727-13.1069-.3484Zm29.1601,15.9995c4.8972,.2178,9.0436-3.5757,9.2613-8.4729,.0068-.1535,.0097-.3072,.0085-.4609-.0384-5.1598-4.1147-9.3838-9.2698-9.6058-4.8972-.2178-9.0436,3.5757-9.2614,8.4729-.0068,.1535-.0096,.3072-.0085,.4609,.0384,5.1598,4.1147,9.3838,9.2699,9.6058Zm-34.00641-10.26118c0-6.1958-5.04102-11.23682-11.23682-11.23682s-11.23682,5.04102-11.23682,11.23682c0,6.19629,5.04102,11.2373,11.23682,11.2373s11.23682-5.04102,11.23682-11.2373Zm-.5,0c0,5.92041-4.81641,10.7373-10.73682,10.7373s-10.73682-4.81689-10.73682-10.7373,4.81641-10.73682,10.73682-10.73682,10.73682,4.81641,10.73682,10.73682Z" style="fill:#335EEA;"></path></g><g id="freepik--Character_3--inject-60"><g><g><g><path d="M536.95099,380.5979h101.6924c1.88844,0,3.42161,1.53317,3.42161,3.42161v76.75067c0,3.06838-2.49113,5.55951-5.55951,5.55951h-99.55449c-1.88844,0-3.42161-1.53317-3.42161-3.42161v-78.88859c0-1.88843,1.53317-3.4216,3.4216-3.4216Z" style="fill:#335EEA;"></path><path d="M568.61319,423.4602v-17.9422c0-1.8109,1.9604-2.9428,3.52881-2.0373l15.53839,8.9711,15.5384,8.9711c1.5683,.9055,1.5683,3.1691,0,4.0746l-15.5384,8.9711-15.53839,8.9711c-1.56841,.9055-3.52881-.2263-3.52881-2.0373v-17.9422Z" style="fill:#fff; opacity:.7;"></path><path d="M622.41519,380.5908h16.382c1.80356,0,3.26781,1.46426,3.26781,3.26781v76.98929c0,3.02549-2.45631,5.4818-5.4818,5.4818h-14.16801v-85.7389h0Z" style="opacity:.3;"></path></g><path d="M558.43929,459.48s4.7578-2.0836,4.6812-1.7851c-.0767,.2984-7.4123-31.9214-10.0163-43.7272s-7.3063-28.0387-7.3063-28.0387l37.9567-5.1989s-57.1119-4.8852-56.1281-4.1473c.70851,.5313,11.1022,53.9687,19.8164,77.8593,3.387,9.2856,10.9964,5.0379,10.9964,5.0379Z" style="opacity:.3;"></path></g><g><polygon points="502.40819 412.5247 491.36749 432.7109 481.73169 429.8457 490.48759 406.4176 502.40819 412.5247" style="fill:#e9b376;"></polygon><g><path d="M488.907,443.5879l-6.89131-1.4651s-.3938-1.4095-1.8466-1.7623c-.8163-.1983-2.98409,.5334-2.98409,.5334l-18.981-3.8877c.00569-.0277,.26249-1.3015,.58869-1.8213,.3978-.6336,.8134-1.1532,1.24231-1.5767,1.50169-1.4801,3.79719-1.7809,5.50149-1.9429,2.8564-.2716,11.1097-2.4575,11.1097-2.4575,0,0,2.1373-.7684,3.90681-3.1926,.987-1.352,2.29939-2.0322,3.143-1.9668,1.72169,.1311,2.44139,1.3149,2.35249,2.9227l-.1057,1.8672c1.0724,1.2601,2.7658,1.5584,4.3187,.6162,0,0,3.9921-1.359,3.4189,.3886-.3276,.9973-1.9601,5.4019-3.1453,8.9194-.277,.8198-.5375,1.5957-.7664,2.2766l-.0021,.0003c-.5083,1.5107-.85959,2.5485-.85959,2.5485Z" style="fill:#263238;"></path><path d="M472.23419,430.2119c.1013-.0591,.234-.0398,.3197,.0424,.3938,.3767,.6902,.8533,.8433,1.4044,.0807,.2906-.3838,.4557-.4653,.1623-.1358-.4898-.3945-.9106-.7382-1.2403-.1146-.1103-.0998-.2868,.036-.3661l.0045-.0027Z" style="fill:#335EEA;"></path><path d="M473.86039,429.7239c.1014-.0592,.234-.0397,.3199,.0425,.39371,.3766,.6901,.8531,.8431,1.4043,.08061,.2905-.3837,.4557-.4652,.1624-.136-.4898-.3944-.9105-.7381-1.2403-.1149-.1102-.1-.2869,.03591-.3662l.00439-.0027Z" style="fill:#335EEA;"></path><path d="M475.521,429.2987c.10129-.0593,.23409-.0398,.31989,.0424,.3937,.3766,.69011,.8532,.84311,1.4043,.08059,.2905-.38371,.4558-.46521,.1623-.13579-.4898-.3943-.9104-.7381-1.2403-.115-.1102-.0999-.2867,.0359-.3662l.00441-.0025Z" style="fill:#335EEA;"></path></g><path d="M475.65169,429.5543c.19231-.6466,.3857-1.2972,.462-1.9675,.0764-.6702,.0302-1.3679-.2411-1.9856-.1262-.2872-.3383-.5797-.6489-.6236-.3265-.0461-.6244,.2049-.7985,.485-.3346,.5386-.38019,1.2234-.2219,1.8374,.1584,.614,1.0468,1.7637,1.4484,2.2543" style="fill:none; stroke:#335EEA; stroke-miterlimit:10; stroke-width:.25px;"></path><path d="M475.73209,429.5708c.384-.5547,.7707-1.1124,1.2458-1.5913,.475-.4789,1.0483-.8795,1.6998-1.0542,.3031-.0812,.664-.0988,.8925,.1161,.2404,.2257,.2309,.6151,.1212,.9263-.2107,.5979-.7163,1.0621-1.29439,1.3227-.57811,.2606-2.03081,.2868-2.66491,.2804" style="fill:none; stroke:#335EEA; stroke-miterlimit:10; stroke-width:.25px;"></path></g><g><polygon points="548.03459 427.3285 553.07369 449.7781 543.94569 453.9895 535.04989 430.6142 548.03459 427.3285" style="fill:#e9b376;"></polygon><g><path d="M558.40889,459.5709l-6.1426,3.4506s-1.2265-.7984-2.5504-.1041c-.744,.3901-1.8887,2.3712-1.8887,2.3712l-16.821,9.6149c-.014-.0245-.6623-1.1507-.7606-1.7564-.1197-.7385-.1509-1.4032-.1084-2.0043,.1503-2.1032,1.6755-3.845,2.8483-5.0921,1.9658-2.0902,6.7201-9.1818,6.7201-9.1818,0,0,1.0975-1.9885,.82541-4.9773-.15161-1.6672,.38469-3.0447,1.06159-3.5526,1.3793-1.0385,2.7016-.6249,3.6965,.6412l1.1537,1.4721c1.6375,.2381,3.1061-.6563,3.65-2.3893,0,0,2.1005-3.6568,2.824-1.9658,.4126,.9652,2.0953,5.3509,3.5281,8.775,.3333,.7986,.65011,1.5533,.9279,2.2157l-.0014,.0015c.6159,1.4701,1.0375,2.4815,1.0375,2.4815Z" style="fill:#263238;"></path><path d="M537.05529,460.5364c.0371-.1113,.1496-.1844,.2683-.1794,.5443,.0229,1.0817,.1851,1.5606,.4979,.2524,.1649,.0127,.5956-.24219,.4291-.42561-.2781-.89761-.4233-1.37341-.444-.159-.007-.2644-.1494-.2148-.2987l.0015-.0049Z" style="fill:#335EEA;"></path><path d="M537.95429,459.096c.0371-.1114,.1496-.1843,.2683-.1793,.5443,.0228,1.0816,.1849,1.56041,.4978,.25249,.1649,.01279,.5956-.24191,.4292-.4257-.2781-.8976-.4233-1.3734-.4442-.1591-.0067-.2645-.1492-.2149-.2985l.0015-.005Z" style="fill:#335EEA;"></path><path d="M538.92059,457.6801c.0368-.1114,.1495-.1846,.2682-.1793,.5443,.0227,1.0816,.1849,1.5605,.4978,.2524,.1649,.0128,.5956-.2422,.429-.4254-.2781-.8972-.4233-1.3733-.444-.1592-.0068-.2645-.1493-.21479-.2987l.00159-.0048Z" style="fill:#335EEA;"></path></g><path d="M549.71569,462.9175c-.7438,.39-1.8885,2.3711-1.8885,2.3711l-16.821,9.6149c-.014-.0245-.6623-1.1507-.7606-1.7564-.0549-.3393-.08659-.6589-.1055-.9679l27.07791-15.4604c.05069,.1211,.10619,.2534,.15469,.3691l-.0013,.0013c.6159,1.4703,1.0375,2.4817,1.0375,2.4817l-6.1426,3.4506s-1.2265-.7984-2.5506-.104Z" style="fill:#fff; isolation:isolate; opacity:.2;"></path><path d="M539.18749,457.7858c-.28249-.6126-.567-1.2288-.9523-1.7827-.3853-.5536-.8806-1.0472-1.4923-1.3317-.2844-.1324-.6368-.2121-.899-.0399-.2758,.181-.3336,.5662-.2794,.8915,.1044,.6254,.5223,1.1698,1.0466,1.5263,.5245,.3566,1.9508,.6332,2.5764,.7365" style="fill:none; stroke:#335EEA; stroke-miterlimit:10; stroke-width:.25px;"></path><path d="M539.25879,457.745c-.0779-.6701-.1559-1.3443-.1153-2.0176,.0404-.6734,.20651-1.3528,.5803-1.9141,.174-.2612,.4333-.5127,.7469-.5023,.3295,.0108,.5795,.3095,.7027,.6155,.23661,.5883,.1634,1.2707-.0986,1.8481-.262,.5775-1.3357,1.5565-1.816,1.9704" style="fill:none; stroke:#335EEA; stroke-miterlimit:10; stroke-width:.25px;"></path></g><g><g id="freepik--freepik--Character--inject-281--inject-60"><path d="M512.43329,369.4792c.3628,3.5985,1.1421,8.5161,2.0815,12.0087,2.55121,9.8613,5.465,19.3462,9.1266,29.1413,7.0852,19.3523,12.8094,37.3071,12.8094,37.3071l17.9938-5.3969s-11.8969-55.9947-19.9207-61.7184h49.2003c.9196,.0002,1.8382-.0615,2.7495-.1851-8.4732-1.0972-21.6788-6.3186-33.9326-11.54-10.8262-4.6266-20.9518-9.2531-26.4375-10.998h0c-6.7151,2.8685-14.1859,5.7368-13.6703,11.3813Z" style="fill:#263238;"></path><path d="M526.09029,358.1507c5.499,1.7846,15.6246,6.3715,26.4376,10.9981,12.2537,5.2214,25.4593,10.4428,33.9325,11.54,14.2763-1.9035,19.6432-18.9161,4.7192-38.5328-9.6893,0-19.43159,9.2531-19.43159,9.2531,0,0-29.29291-.1453-45.65771,6.7416Z" style="isolation:isolate; opacity:.6;"></path><path d="M486.02419,418.4019l11.8969,7.2043s9.9273-20.846,19.4184-44.3622c-.9393-3.4927-1.5936-7.0558-1.9564-10.6543-.5156-5.6445,3.9657-9.6233,10.6807-12.4258h0c5.499,1.7847,15.6247,6.3715,26.4376,10.9981,12.2538,5.2214,25.4594,10.4428,33.93261,11.54,.973,.1306,1.953,.2012,2.93459,.2115,16.2855,0,21.9035-14.2762,15.3338-38.4931-9.68939,0-26.2789-1.0442-26.2789-1.0442,0,0-32.016-7.6934-55.0563-5.0761-11.2176,1.3222-20.2985,9.7354-22.4719,20.8196-5.9352,29.3985-14.8711,61.2822-14.8711,61.2822Z" style="fill:#263238;"></path><path d="M484.146,419.2773l13.77509,6.3289s9.9273-20.846,19.4184-44.3622c-.9393-3.4927-1.5936-7.0558-1.9564-10.6543-.5156-5.6445,3.9657-9.6233,10.6807-12.4258h0c5.499,1.7847,15.6247,6.3715,26.4376,10.9981,12.2538,5.2214,25.4594,10.4428,33.93261,11.54,.973,.1306,1.953,.2012,2.93459,.2115,16.2855,0,21.9035-14.2762,15.3338-38.4931-9.68939,0-26.2789-1.0442-26.2789-1.0442,0,0-32.016-7.6934-55.0563-5.0761-11.2176,1.3222-20.2985,9.7354-22.4719,20.8196-5.9352,29.3985-16.74929,62.1576-16.74929,62.1576Z" style="fill:#263238;"></path></g><path d="M512.43329,369.4792c.3628,3.5985,1.1421,8.5161,2.0815,12.0087,2.55121,9.8613,5.465,19.3462,9.1266,29.1413,7.0852,19.3523,12.8094,37.3071,12.8094,37.3071l17.9938-5.3969s-11.8969-55.9947-19.9207-61.7184h49.2003c.9196,.0002,1.8382-.0615,2.7495-.1851-8.4732-1.0972-21.6788-6.3186-33.9326-11.54-10.8262-4.6266-20.9518-9.2531-26.4375-10.998h0c-6.7151,2.8685-14.1859,5.7368-13.6703,11.3813Z" style="isolation:isolate; opacity:.2;"></path></g><g><path d="M568.13019,266.3273l5.4673-4.4383,15.566-1.0291s3.9007,3.2061,4.0936,3.2382c.193,.0322,2.4672,.9427,2.4672,.9427l-1.5437,3.795-26.0504-2.5085Z" style="fill:#335EEA;"></path><path d="M553.25759,288.7156s-8.15659,25.7058-8.9489,27.1219c-2.6795,4.7888-20.4295,12.9994-20.4295,12.9994l-9.0504-1.8957-6.485,5.4161,4.2759,3.3494,5.0168-1.8957c2.738,.4885,5.5139,.7317,8.295,.7269,4.6749,0,27.2187-5.7136,30.9813-11.9989,3.7627-6.2855,5.49121-35.391,5.49121-35.391l-9.14641,1.5676Z" style="fill:#e9b376;"></path><g id="freepik--freepik--group--inject-39--inject-60"><path d="M605.905,347.3702l-54.32441-8.1889c.8082-35.2207,8.8571-72.0795,8.8571-72.0795,15.6652-1.7715,31.4757-1.8484,47.1574-.2294-7.2844,22.585-1.69009,80.4978-1.69009,80.4978Z" style="fill:#335EEA;"></path><path d="M601.27639,346.7325l-49.6958-7.5512c.8082-35.2207,8.8571-72.0795,8.8571-72.0795,15.6652-1.7715,31.4757-1.8484,47.1574-.2294-7.2844,22.585-6.3187,79.8601-6.3187,79.8601Z" style="fill:#fff; isolation:isolate; opacity:.6;"></path><path d="M607.59509,266.8724c-2.9487,25.5336,4.6981,79.8601,4.6981,79.8601-3.4478,7.3899-12.6341,8.7652-23.4959,8.3845-9.7418-42.0136,4.2072-90.9967,4.2072-90.9967l14.5906,2.7521Z" style="fill:#335EEA;"></path><path d="M560.43769,267.0581c-7.2298,19.0792-11.58,71.5175-11.58,71.5175l4.3195,1.0365c5.6353-63.288,17.6574-74.771,17.6574-74.771l-10.3969,2.217Z" style="fill:#335EEA;"></path><g><path d="M565.43289,289.3639l.513-7.2516c.0249-.4154,.3254-.7336,.6808-.7208l17.7861,.5679,.0199,.0009c.37031,.0243,.6536,.3955,.6329,.8291l-.3731,7.47-.373,7.5028-.0006,.0128c-.02089,.4276-.3338,.7543-.69889,.7298l-18.04721-1.2668-.0032-.0003c-.375-.0311-.65759-.4123-.631-.8516l.4943-7.0222Z" style="fill:#335EEA;"></path><path d="M565.43289,289.3639l.513-7.2516c.0249-.4154,.3254-.7336,.6808-.7208l17.7861,.5679,.0199,.0009c.37031,.0243,.6536,.3955,.6329,.8291l-.3731,7.47-.373,7.5028-.0006,.0128c-.02089,.4276-.3338,.7543-.69889,.7298l-18.04721-1.2668-.0032-.0003c-.375-.0311-.65759-.4123-.631-.8516l.4943-7.0222Z" style="fill:#fff; isolation:isolate; opacity:.4;"></path><path d="M565.43289,289.3638c3.0685,.7536,8.5526,2.0314,8.6645,1.6273,.1492-.5679,.0653-2.8723,.4011-3.5275,.3357-.6553,3.3389,6.1049,4.3462,5.122,1.00731-.9829,.0746-8.2127,2.0426-8.2891,1.0819-.0437,2.6394,3.1234,3.8052,5.9629l-.373,7.5028-.0006,.0128c-.02089,.4276-.3338,.7543-.69889,.7298l-18.04721-1.2668-.0032-.0003c-.375-.0311-.65759-.4123-.631-.8516l.4943-7.0223Z" style="fill:#263238; isolation:isolate; opacity:.2;"></path></g><path d="M540.66919,302.4472l10.9114,3.0632h.8758l3.842-20.0065,4.1392-18.3694c-10.3184,1.4037-19.7684,35.3127-19.7684,35.3127Z" style="fill:#335EEA;"></path><polygon points="589.133 260.9508 590.11159 277.1051 593.25709 264.0981 589.133 260.9508" style="fill:#335EEA;"></polygon></g></g><g><path d="M536.97,336.3778h33.69109l-.00009,.0111c-.00841,1.2863-1.44491,2.3243-3.20861,2.3182h-27.24339l-.04571,.0002-.0026-.0002h-27.5886c-1.7495-.0122-3.1566-1.0532-3.14809-2.3293h27.546Z" style="fill:#263238;"></path><path d="M512.06719,338.5756h30.7786c.53121-.0036,.9584-.3519,.9538-.7783-.0008-.0801-.0172-.1597-.0484-.2357l-13.6921-31.3906c-.3458-.8965-1.3766-1.5091-2.546-1.5135h-30.7976c-.5208,.0002-.9428,.3392-.9426,.7573,.00011,.0875,.01911,.1744,.0562,.2569l13.692,31.3904c.3511,.8936,1.3786,1.5044,2.5461,1.5135Z" style="fill:#263238;"></path><path d="M496.71549,304.6575h30.79751c1.16949,.0044,2.20029,.617,2.54609,1.5135l13.1756,30.2069h27.4264l-.00009,.011c-.00841,1.2863-1.44491,2.3242-3.20861,2.3182h-27.24339l-.04571,.0002-.0026-.0002h-27.5886c-.5548-.004-1.0672-.1203-1.5189-.3057-.7157-.2413-1.2886-.7193-1.5321-1.3393l-13.692-31.3904c-.03709-.0825-.05609-.1694-.05609-.2571-.00031-.4179,.42169-.7569,.94249-.7571Z" style="fill:#fff; isolation:isolate; opacity:.7;"></path><path d="M515.21159,321.3693c.6652,1.5064,2.01341,2.5408,3.0185,2.3303,1.0051-.2105,1.2731-1.5833,.6276-3.0939s-2.0093-2.5213-3.0144-2.3108-1.3052,1.5283-.6317,3.0744Z" style="fill:#fff;"></path><g style="opacity:.3;"><path d="M530.05909,306.1709l13.1756,30.2069h-1.42669l-14.295-31.7203c1.16949,.0044,2.20029,.617,2.54609,1.5134Z"></path></g></g><g><path d="M599.73389,283.9687s-2.1527,31.5593-4.6963,34.2985c-4.2983,4.629-27.8423,14.6562-27.8423,14.6562l-10.6276-3.7266c-.7448-.2446-1.5683-.1108-2.177,.3538l-7.2661,5.5461,.6938,.5851c.29961,.2527,.7338,.3039,1.087,.1282l1.1292-.5618-1.2629,1.2377,.3999,.3373c.3978,.3354,.9497,.4559,1.4607,.319l3.2492-.8714-2.99849,1.9957c.66889,.5644,1.60109,.7604,2.45609,.5166l4.7536-1.3551c3.2416,.7418,6.5442,1.2149,9.8695,1.4137,5.597,.3446,33.4477-4.7645,38.3741-11.526,4.9265-6.7615,8.5871-38.964,8.5871-38.964l-15.1895-4.383Z" style="fill:#e9b376;"></path><path d="M607.59509,266.8725s8.8863,1.1467,8.8516,10.6487c-.0299,8.187-2.9915,29.5192-2.9915,29.5192l-18.8185-3.5472,4.1451-23.6091c.9473-5.3958,4.1541-10.1301,8.8133-13.0116h0Z" style="fill:#335EEA;"></path></g><g><g><path d="M566.15459,226.4912c.3788-.4832-.6674-11.3268,18.00141-5.9305,13.86229,4.0069,8.62479,14.8738,8.62479,14.8738l-15.8517-11.4506-10.7745,2.5073Z" style="fill:#263238;"></path><path d="M588.76019,265.9944c-1.3805-.806-1.5567-1.4206-1.9986-2.8582-1.14459-3.7116,.0855-16.3756,.0855-16.3756l-13.8409,5.6902s.1073,.3103,.2675,.8344c.4388,1.4654,1.3264,4.5885,1.5936,7.1984,.1713,1.6258,.0963,3.059-.449,3.7863-.5658,.7487-2.2088,1.7659-3.254,2.1171,0,0,1.7543,3.7792,7.95571,3.2954,6.20139-.4838,9.64019-3.688,9.64019-3.688Z" style="fill:#e9b376;"></path><path d="M584.55049,253.7289s-2.9734,6.1822-9.8084,5.9683c-.2673-2.6097-1.15509-5.7331-1.5937-7.1984,.5134-.1925,.845-.3102,.845-.3102l10.5571,1.5403Z" style="isolation:isolate; opacity:.2;"></path><path d="M566.92259,224.2695s-4.0294,11.3976,1.3378,17.1039c5.3673,5.7063,9.5457-16.146,9.5457-16.146l-10.8835-.9579Z" style="fill:#263238;"></path><path d="M584.56489,254.1618c-4.2205,3.185-9.0018,3.9621-13.02289,1.7893-2.58651-1.3932-4.70331-3.7748-5.71771-6.8105-.1378-.3969-.24929-.8113-.3481-1.2347-1.6949-7.7595-.2706-20.4939,8.2135-23.7463,6.0339-2.3619,12.8551,.616,15.2149,6.6606,.683,1.7144,.9346,3.5708,.7621,5.4136-.6719,8.5652-.1715,14.2074-5.1018,17.928Z" style="fill:#e9b376;"></path><path d="M576.63149,238.8641c.0449,.8948-.5026,1.6199-1.1014,1.607-.5987-.0127-1.04909-.759-1.037-1.6568,.012-.8979,.517-1.6209,1.1016-1.6074,.5841,.0136,1.04831,.745,1.0368,1.6572Z" style="fill:#263238;"></path><path d="M568.76919,238.8457c.04481,.895-.517,1.6208-1.1015,1.6073-.58469-.0133-1.0492-.7591-1.0371-1.6569,.012-.8975,.5171-1.6206,1.1017-1.6073,.5843,.0135,1.0512,.8018,1.0369,1.6569Z" style="fill:#263238;"></path><path d="M571.183,238.6143c-.87491,2.1222-2.039,4.1135-3.45941,5.9169,.9588,.7146,2.18441,.9685,3.34841,.694l.111-6.6109Z" style="fill:#d58745;"></path><path d="M565.81359,234.785c.1327,.0771,.2961,.0776,.4293,.0014,.884-.5563,1.9784-.6627,2.9529-.2874,.20221,.0997,.4468,.0164,.5465-.1858,.0996-.2024,.0163-.4469-.1861-.5465l-.0017-.0008c-1.2197-.5061-2.6093-.3893-3.7273,.3135-.1967,.11-.2675,.3584-.1578,.5554l.0049,.0084c.0388,.0545,.0858,.1023,.1393,.1418Z" style="fill:#263238;"></path><path d="M578.21019,235.2466c.0829-.0007,.1633-.0278,.2302-.0767,.1523-.1662,.141-.4245-.0253-.5766l-.0066-.0061c-.9701-.9024-2.3189-1.276-3.6152-1.0018-.2174,.0596-.3454,.2841-.2858,.5015l.0002,.0009c.0647,.2144,.2857,.3399,.5027,.2859h0c1.0293-.1868,2.0865,.1241,2.8508,.8384,.1057,.0621,.2333,.0747,.349,.0345Z" style="fill:#263238;"></path><path d="M583.57729,225.3949l-.71629,3.7468c1.19409,.744,1.84709,2.1922,1.17539,3.6419-1.43439,3.0955,.0353,8.1457,2.3407,10.2756,0,0,.16891-1.3717,1.3081-.9668,1.1395,.4051,.04181,6.1747-1.167,9.7219,0,0,2.6407-1.7649,5.0845-9.1599,2.2599-6.8394,2.8745-12.6249,1.6259-15.4141l-9.6513-1.8454Z" style="fill:#263238;"></path><path d="M583.57729,225.3949l-.71629,3.7468c1.19409,.744,1.84709,2.1922,1.17539,3.6419-1.43439,3.0955,.0353,8.1457,2.3407,10.2756,0,0,.16891-1.3717,1.3081-.9668,1.1395,.4051,.04181,6.1747-1.167,9.7219,0,0,2.6407-1.7649,5.0845-9.1599,2.2599-6.8394,2.8745-12.6249,1.6259-15.4141l-9.6513-1.8454Z" style="fill:#fff; opacity:.4;"></path><path d="M593.279,243.3502c-.99111,1.9243-2.70511,3.3771-4.76591,4.0394-2.7346,.858-4.1917-1.5695-3.5144-4.2012,.6245-2.333,2.7875-5.6694,5.5744-5.3518,2.787,.3179,3.8928,3.1362,2.70591,5.5136Z" style="fill:#e9b376;"></path><path d="M586.835,243.8042c.26249-1.4401,1.193-2.7443,2.46919-3.461,.5427-.3048,1.2775-.4853,1.7469-.0766" style="fill:none; opacity:.1; stroke:#000; stroke-miterlimit:10; stroke-width:.5px;"></path><path d="M563.90729,227.3574c-1.5842,.3718-3.3472-.1466-4.4781-1.3167,2.24-.1464,4.4433-.8254,6.3771-1.965-1.9656,.5007-4.15929,.0004-5.7134-1.3031,2.97111-.4735,5.6877-1.9068,8.5177-2.928,6.25741-2.2577,13.3296-2.4559,19.5332-.0543,1.4636,.5667,2.9231,1.311,3.8929,2.5451,.9699,1.2341,2.0284,3.5768,1.1919,4.9049l-10.1104,.4542c-1.6184-2.9771-4.1746-1.9433-7.8744,.2663-1.4977,.8944-4.9105,2.5736-6.6009,3.0048-2.1414,.5463-3.8272,.7955-5.1448,.7285-2.2755-.1157-3.2026-.7746-4.5983-1.8212,2.0713-.7792,3.3844-1.0111,5.0075-2.5155Z" style="fill:#263238;"></path></g><g><path d="M574.23239,246.4422c1.626-.461,3.1352-1.2628,4.4272-2.3523,.1421,.2539,.2459,.5273,.3082,.8115,.1257,.5024,.1257,1.0281,0,1.5305-.25679,1.0272-1.13,2.1469-3.5336,2.8454-.17519,.0608-.3535,.1122-.5341,.1541-.4437-.9465-.9552-1.8597-1.5306-2.7324,0,0,.3287-.0822,.8629-.2568Z" style="fill:#263238;"></path><path d="M578.61849,244.0899c.1421,.2539,.2459,.5273,.3082,.8115-.5033,.8937-2.0031,1.6641-4.2629,2.342l-.4725-.8012c1.626-.461,3.1352-1.2628,4.4272-2.3523Z" style="fill:#fff;"></path><path d="M576.45109,247.7365c.7555-.5797,1.6075-1.0214,2.5167-1.3046-.25679,1.0272-1.13,2.1469-3.5336,2.8454,.16981-.6072,.5254-1.146,1.0169-1.5408Z" style="fill:#c15854;"></path></g></g></g></g><g id="freepik--Character_2--inject-60"><g id="freepik--freepik--character-1--inject-2--inject-60"><g><path d="M337.50169,238.8497l-7.2709,5.8862-7.9886,38.301,5.1616,10.2404-2.4805-.3799c-.1938,.2177-.382,.4149-.5705,.6131l9.2397,1.4651c.0174-1.6765,.033-3.2702,.0472-4.768-1.4004-.1709-2.1888-.2728-2.1888-.2728l.75411-3.98c-.25491-.0695-.511-.1339-.76561-.2047,0,0,2.95261-18.2454,7.0571-37.2225,.0707-.3325,.1378-.6586,.2086-.9917,.2874-1.2991,.57491-2.6098,.8738-3.9203,.4528-2.0127,.9164-4.0093,1.3888-5.9817-.9814,.6337-1.957,1.2765-2.9524,1.889l-.5136-.6732Z" style="fill:none;"></path><path d="M448.56069,222.593c-.6598,.5912-2.8122,2.4052-4.3584,4.011-.6675,.6931-1.6439,1.6092-2.5848,2.4921-.1223,.0904-.2457,.1786-.3569,.2886l-.9153,.9132c-.4605,.4408-.8611,.8349-1.1346,1.1318l-1.051,1.0486c-.6231,.6304-1.1226,1.3716-1.4731,2.1855l-2.11459,7.633c-4.86021,4.7926-15.36831,14.6289-15.97811,14.2523-.4027-.2488-2.3186-5.8095-4.08189-11.1433l3.21969-1.1464-.5404-1.5865-.5714,.2099c-1.0628-3.9205-7.3252-26.765-9.62589-29.3074l-.005,.006c-4.32481-4.9922-9.86251-8.6774-15.99441-10.7804,.1577-.5996,.3637-1.1831,.6232-1.7443,2.511,1.1691,5.4464,1.3525,8.1794,.3439,2.8561-1.0027,5.221-3.059,6.6105-5.7482,.1954-.3564,.3679-.7472,.5404-1.1497,.673-1.7125,1.2178-4.0101,1.5605-6.5084,1.6459-.2142,3.02-1.4828,3.2679-3.206,.1186-1.8221-.9873-3.4278-2.6079-4.0546,.362-1.8107,.4533-3.6274,.4291-5.1713,1.5952-1.4575,2.4631-3.5476,2.3627-5.708-.3333-3.334-4.96639-3.8973-4.96639-3.8973,0,0-1.391-3.7593-4.46061-4.8975-3.0695-1.1382-6.1506,1.713-6.1506,1.713,0,0-3.8283-3.7019-8.2889-2.6442-3.0947,.635-5.3235,3.348-5.34589,6.507,0,0-5.23091,.5288-5.11591,3.219,.1062,2.484,2.69691,4.2491,3.0941,4.5054-.1666,2.2061-.087,4.8302,.3281,8.072-.3511,.5329-.5742,1.1592-.5971,1.8436-.0167,.4977,.0705,.9934,.2559,1.4556,.3325,1.0178,.8618,1.9478,1.5465,2.7445,.5339,1.6896,1.1858,3.1089,1.828,4.2454-1.3718,3.053-3.0604,5.9993-4.96859,8.0368-7.319-.2889-12.37351-.0671-16.29341,.7844-.0684,.0145-.1349,.0303-.20259,.0452-.25141,.0566-.49841,.1159-.74081,.1778-.538,.1352-1.0601,.2801-1.558,.4419-5.7216,1.019-11.0216,3.7039-15.204,7.7585-6.4611,6.0011-17.1298,16.4169-17.1298,16.4169l.0359,.047c-5.10829,4.8341-9.627,9.2709-10.7112,10.8255-2.7821,3.9893-2.6479,44.0772-2.6479,44.0772,0,0-1.2469,2.525-1.278,4.3331-.0124,.7118-.3056,4.1143-.3792,6.0467l-17.4673-2.7696c-2.8701-.4552-5.5657,1.5026-6.0209,4.3728l-4.8248,30.429c-.4552,2.8702,1.5026,5.5658,4.3728,6.0209l43.9231,6.9646c-.0016,.0874-.0035,.1746-.0051,.262h27.5291c.4766-5.9795,.9196-11.6121,1.2963-16.3273,.006,.0173,.01481,.0659,.0219,.0955l-.0108,.014s.9802,8.8588,1.76271,16.2178h23.06649c-1.3492-16.9235-3.1994-31.731-4.8702-43.0797,.32171,.0003,.6489,.0025,.96471,.0006l-.47021-2.5548c.1529-.0079,.3058-.012,.4587-.0204l.0001-.0201c.0007-.0574,.0235-1.9355,.2345-4.8975,.0294-.3805,.0614-.7727,.0988-1.187,.138-1.7475,.3449-3.7938,.6323-6.0011,.1174-.9015,.25981-1.8629,.4132-2.846,.9198-5.7833,2.4502-12.3,5.0017-17.7212,2.40191-5.0481,4.6785-10.1529,6.8447-15.3036l2.0535,3.7957,1.1641,2.1326-.7042,.2586,.52881,1.3796,2.24269-.7985c3.8589,10.0489,9.436,22.4985,13.8178,23.8489,6.6597,2.0523,22.0084-22.8088,25.2316-28.1778,3.177-1.1315,5.6442-5.906,5.6442-5.906l2.7332-3.6397c.9197-1.2245,.8296-2.932-.2137-4.053l-2.6482-2.729,.0389-.0459c1.02751-1.1975,4.1132-4.0869,4.30251-5.2196,.18949-1.1327-.93251-2.2051-1.59231-1.6137Zm-108.9818,21.0226c-.29889,1.3105-.5864,2.6212-.8738,3.9203-.0708,.3331-.1379,.6592-.2086,.9917-4.10449,18.9771-7.0571,37.2225-7.0571,37.2225,.25461,.0708,.5107,.1352,.76561,.2047l-.75411,3.98s.7884,.1019,2.1888,.2728c-.0142,1.4978-.0298,3.0915-.0472,4.768l-9.2397-1.4651c.1885-.1982,.3767-.3954,.5705-.6131l2.4805,.3799-5.1616-10.2404,7.9886-38.301,7.2709-5.8862,.5136,.6732c.9954-.6125,1.971-1.2553,2.9524-1.889-.4724,1.9724-.936,3.969-1.3888,5.9817Z" style="opacity:.3;"></path></g><g><polygon points="369.69619 462.5861 378.69619 461.7797 380.42429 442.3818 368.39989 444.0104 369.69619 462.5861" style="fill:#a77865;"></polygon><g><path d="M379.92619,455.754h-3.13419c-.70921,0-1.36521,.3588-1.78431,.931-1.8073,2.4683-3.16569,1.5352-5.1316-.7853-1.2496-.1457-1.58609,1.2886-1.688,1.674l-2.34309,8.5227c-.20351,.7118,.20849,1.4537,.92009,1.6572,.1267,.0361,.25791,.0537,.3895,.0516h24.8316c3.9494,0,4.76781-3.9801,3.1411-4.3483-7.3155-1.6166-12.4955-3.7694-14.7568-5.8975-.4191-.3726,.0114-.6513-.4443-1.8054Z" style="fill:#263238;"></path><path d="M386.72729,458.1775c.32971-.2373,.5271-.617,.532-1.0233,.0278-.2179-.0716-.4325-.2557-.5524-.9823-.6957-4.901,1.1357-5.3409,1.3505-.0489,.0175-.0874,.056-.1049,.1049-.0324,.0904,.0145,.1901,.1049,.2225,.963,.2279,1.9472,.3549,2.9365,.3786,.7423,.0706,1.4881-.0978,2.1281-.4808Zm.0306-1.2791c.08,.0495,.1206,.1433,.1024,.2354-.0164,.2932-.158,.5653-.3888,.7469-.89,.665-3.0387,.3785-4.1948,.1636,1.6267-.7161,3.9391-1.5243,4.4812-1.1459Z" style="fill:#335EEA;"></path><path d="M381.79579,458.3206c1.1767-.491,3.6424-2.4247,3.5094-3.4479-.0205-.2147-.174-.4706-.706-.5422-2.1486-.2456-3.0694,3.6116-3.0694,3.7754-.0213,.066-.0012,.1384,.0511,.1841,.04,.0119,.0827,.0119,.1227,0l.0922,.0306Zm2.7318-3.6731c.399,.041,.399,.1843,.399,.2354,.1125,.6241-1.678,2.2305-2.9569,2.9057,.266-.9003,1.0539-3.1512,2.4145-3.1512l.1434,.0101Z" style="fill:#335EEA;"></path><path d="M382.10189,458.1727c-1.0794,.1473-2.08089,.7923-2.6615,1.7143" style="fill:none; stroke:#335EEA; stroke-linecap:round; stroke-linejoin:round; stroke-width:.5px;"></path><path d="M384.04979,459.6388c-1.0796,.1474-2.0809,.7924-2.6615,1.7145" style="fill:none; stroke:#335EEA; stroke-linecap:round; stroke-linejoin:round; stroke-width:.5px;"></path><path d="M386.47329,460.8717c-1.0796,.1473-2.0811,.7924-2.6617,1.7144" style="fill:none; stroke:#335EEA; stroke-linecap:round; stroke-linejoin:round; stroke-width:.5px;"></path></g></g><g><polygon points="325.55459 462.7123 334.07339 462.7123 338.23089 442.9844 326.09259 442.9844 325.55459 462.7123" style="fill:#a77865;"></polygon><g><path d="M335.88039,456.9869h-3.1341c-.7092,0-1.3652,.3587-1.7842,.931-1.8075,2.4684-3.1656,1.5354-5.1316-.7853-1.2497-.1457-1.5862,1.2886-1.6882,1.674l-2.343,8.5228c-.2035,.7116,.2085,1.4537,.9202,1.6571,.1266,.0363,.2578,.0537,.3894,.0516h24.8316c3.9493,0,4.7679-3.98,3.1411-4.3484-7.3153-1.6165-12.4955-3.7693-14.7567-5.8973-.4194-.3727,.0113-.6513-.4445-1.8055Z" style="fill:#263238;"></path><path d="M342.68169,459.4103c.3296-.2372,.5271-.6169,.5319-1.0232,.0277-.218-.07159-.4325-.2558-.5524-.9821-.6958-4.9007,1.1357-5.34079,1.3505-.04891,.0176-.08731,.056-.10491,.105-.0325,.0903,.0144,.19,.10491,.2224,.96309,.2279,1.94719,.3549,2.93649,.3786,.74251,.0706,1.4881-.0978,2.1282-.4809Zm.0306-1.279c.0798,.0494,.12071,.1433,.1023,.2354-.0163,.2932-.1579,.5653-.3888,.7469-.8901,.665-3.0387,.3786-4.1949,.1636,1.6268-.7162,3.9392-1.5244,4.4814-1.1459Z" style="fill:#335EEA;"></path><path d="M337.75009,459.5535c1.1766-.491,3.6424-2.4247,3.5094-3.448-.0206-.2147-.1739-.4705-.706-.5422-2.1487-.2455-3.06949,3.6116-3.06949,3.7754-.02111,.0661-.001,.1385,.05119,.1842,.0401,.0119,.08281,.0119,.1227,0l.0922,.0306Zm2.7317-3.6731c.3991,.041,.3991,.1843,.3991,.2354,.1125,.624-1.678,2.2305-2.95689,2.9057,.26589-.9003,1.05379-3.1513,2.41449-3.1513l.1433,.0102Z" style="fill:#335EEA;"></path><path d="M338.05639,459.4056c-1.0797,.1474-2.0811,.7924-2.6617,1.7144" style="fill:none; stroke:#335EEA; stroke-linecap:round; stroke-linejoin:round; stroke-width:.5px;"></path><path d="M340.00409,460.8716c-1.0795,.1474-2.081,.7925-2.6616,1.7146" style="fill:none; stroke:#335EEA; stroke-linecap:round; stroke-linejoin:round; stroke-width:.5px;"></path><path d="M342.42769,462.1046c-1.0798,.1474-2.081,.7924-2.6618,1.7144" style="fill:none; stroke:#335EEA; stroke-linecap:round; stroke-linejoin:round; stroke-width:.5px;"></path></g></g><g><path d="M328.74869,269.687h45.2155c2.6959,14.7515,8.7665,53.0866,9.5515,97.912,.539,30.7735,1.2605,80.5378,0,83.2022l-18.0072,.0596s-.7708-38.4374-3.1579-76.6284c-1.3744-21.9883-5.069-59.1744-5.5274-60.4915-1.552,19.429-4.2248,54.3796-5.7768,65.3817-3.9318,27.0741-8.6187,72.1963-8.6187,72.1963h-18.7776s1.4512-48.1603,2.9227-74.763c1.6095-28.9136,2.1759-100.9367,2.1759-106.8689Z" style="fill:#263238;"></path><path d="M356.83429,313.8504s1.8209,16.4555,2.4802,23.1412c1.2646-17.2447,2.55-29.6149,2.55-29.6149l-5.0302,6.4737Z" style="fill:#263238; isolation:isolate; opacity:.2;"></path></g><path d="M431.99829,232.8639c-.5634,.9427-17.6126,17.2447-18.3944,16.7618-.7817-.4828-7.2657-20.981-7.2657-20.981l-14.658,1.621s10.9331,34.4893,18.3943,36.7886,25.8426-29.2052,25.8426-29.2052" style="fill:#a77865;"></path><g><path d="M327.49559,277.5506l-1.0347,5.4608s31.6267,4.0927,51.29711,3.9778l-.68981-3.7479-49.5726-5.6907Z" style="fill:#335EEA;"></path><path d="M385.47209,226.2879l1.3336,2.4488,6.2196,11.4964,1.2991,2.3798,17.4631-6.0701s-7.2657-27.1086-9.78349-29.8908l-16.53191,19.6359Z" style="fill:#335EEA;"></path><path d="M385.47209,226.2879l1.3336,2.4488,6.2196,11.4964,1.2991,2.3798,17.4631-6.0701s-7.2657-27.1086-9.78349-29.8908l-16.53191,19.6359Z" style="fill:#fff; isolation:isolate; opacity:.4;"></path><path d="M386.80569,228.7367l6.2196,11.4964c3.8513-7.5532,2.7362-17.9,2.7362-17.9l-8.9558,6.4036Z" style="fill:#263238; isolation:isolate; opacity:.2;"></path><path d="M402.004,206.6635c-6.64911-7.6781-16.15781-12.2911-26.30381-12.7611-17.1067-.8047-22.4871,.8967-28.7411,6.484-9.1397,8.1625-20.5097,78.4403-20.5097,78.4403,16.6805,4.644,34.0084,6.5274,51.2971,5.5758,0,0,.207-19.544,6.3806-32.6614,6.95291-14.6124,12.9251-29.6716,17.87691-45.0776Z" style="fill:#335EEA;"></path><path d="M326.44939,278.8267c16.6805,4.6446,34.0079,6.5319,51.2971,5.5873,0,0,0-2.4143,.3334-6.1047,.138-1.7474,.3449-3.7938,.6323-6.0011s.7013-4.725,1.1497-7.2313c.2759-1.345,.5978-2.7016,.9427-4.0467,.8018-3.1935,1.8947-6.3067,3.265-9.3006,.7587-1.6095,1.4945-3.2075,2.2073-4.771,1.23011-2.7362,2.4027-5.3919,3.4489-7.9326,2.2993-5.3458,4.2537-10.2318,5.88621-14.5085,1.14969-3.0695,2.18429-5.8172,3.02359-8.174,.9312-2.6327,1.667-4.794,2.2073-6.4035,.7013-2.1269,1.0462-3.288,1.0462-3.288-.5712-.715-1.1855-1.3946-1.8395-2.0349-6.416-6.3241-14.8988-10.1206-23.88959-10.6917h-.57481c-13.037-.6093-19.2565,.23-24.246,3.1386-1.6089,.9629-3.1151,2.0877-4.4951,3.3569-1.2978,1.4065-2.3196,3.0445-3.01209,4.8285-2.12491,4.9413-3.86971,10.0376-5.21941,15.2443l-.7587,2.7936c-1.1497,4.2652-2.2303,8.8063-3.265,13.4049-.29889,1.3106-.5863,2.6212-.8737,3.9203-.4254,2.0004-.8508,3.9893-1.25319,5.9551-1.03461,4.955-1.96591,9.7605-2.78211,14.0832-1.1496,6.2081-2.08089,11.4045-2.6327,14.635-.3794,2.2763-.5978,3.5409-.5978,3.5409Zm50.2395-84.269c1.1534,.0292,2.3045,.1175,3.4489,.2644,4.5986,.6208,11.6689,4.3112,11.4964,6.0587-.1724,1.7474-2.8626,6.208-9.7375,5.1274-2.3953-.4421-4.66869-1.3906-6.6679-2.7821-3.79379-2.5063-6.553-5.8977-6.8289-7.0014-.34489-1.3221,4.1158-1.7704,8.3005-1.644l-.0115-.023Z" style="fill:#fff; isolation:isolate; opacity:.4;"></path><path d="M333.71509,240.647c10.8527-4.5066,19.429-23.1194,19.429-23.1194l-6.16209-3.7248-8.36941,6.7254-.7587,2.7936c-1.1497,4.2652-2.2303,8.8063-3.265,13.4049-.29889,1.3106-.5863,2.6212-.8738,3.9203Z" style="fill:#263238; isolation:isolate; opacity:.2;"></path><polygon points="393.48519 242.6244 412.20139 235.7495 412.74169 237.336 394.014 244.004 393.48519 242.6244" style="fill:#335EEA;"></polygon><rect x="294.54621" y="273.34699" width="41.33276" height="67.01317" rx="5.26175" ry="5.26175" transform="translate(-37.21889 570.12178) rotate(-80.99006)" style="fill:#335EEA;"></rect><polyline points="309.953 299.082 298.9279 304.7957 307.6422 313.6365" style="fill:none; stroke:#fff; stroke-linecap:round; stroke-linejoin:round; stroke-width:2px;"></polyline><polyline points="320.4837 315.6714 331.49729 309.9576 322.7945 301.1168" style="fill:none; stroke:#fff; stroke-linecap:round; stroke-linejoin:round; stroke-width:2px;"></polyline><line x1="311.482" y1="314.2458" x2="318.9547" y2="300.5075" style="fill:none; stroke:#fff; stroke-linecap:round; stroke-linejoin:round; stroke-width:2px;"></line><path d="M340.48659,203.387s-25.3793,22.9553-28.1615,26.9445c-2.7821,3.9893-2.6478,44.0772-2.6478,44.0772,0,0-1.247,2.525-1.2782,4.3331-.0164,.9566-.5409,6.7761-.357,7.3509,0,0,3.4159,9.4038,11.8912-.1187l2.4805,.38-5.1616-10.2405,7.9886-38.301,19.9018-16.1117-4.656-18.3138Z" style="fill:#a77865;"></path><path d="M356.20219,195.1211c2.9776,6.3115,.71281,19.6014-4.7825,24.292-5.8144,4.8216-11.9611,9.228-18.3943,13.1864l-10.0249-13.1405s10.6687-10.4157,17.1297-16.4169c4.3944-4.26,10.0167-7.0309,16.072-7.921Z" style="fill:#335EEA;"></path><path d="M356.20219,195.1211c2.9776,6.3115,.71281,19.6014-4.7825,24.292-5.8144,4.8216-11.9611,9.228-18.3943,13.1864l-10.0249-13.1405s10.6687-10.4157,17.1297-16.4169c4.3944-4.26,10.0167-7.0309,16.072-7.921Z" style="fill:#fff; isolation:isolate; opacity:.4;"></path></g><g><path d="M370.67619,196.2822c1.851,5.2884,8.7373,7.7026,12.3472,8.0475,2.73261,.431,5.416-1.019,6.553-3.5409,0,0-4.1272-2.0579-3.71339-4.3687,.29239-1.4131,.87149-2.7513,1.70149-3.9317,.4298-.6741,.8981-1.3228,1.4026-1.9429l-6.6105-14.1752c-1.4715,6.1392-5.98959,17.9345-11.6804,19.9119Z" style="fill:#a77865;"></path><path d="M382.09219,182.9118c-3.15,6.8979,1.2991,11.6459,3.77081,13.4624,.29239-1.4131,.87149-2.7513,1.70149-3.9318l-5.4723-9.5306Z" style="fill:#263238; isolation:isolate; opacity:.2;"></path><path d="M404.25729,164.506s2.1154,11.6804-3.9777,16.3595c-6.0931,4.679-6.7139-17.1412-6.7139-17.1412l10.6916,.7817Z" style="fill:#a77865;"></path><path d="M404.25729,164.506s2.1154,11.6804-3.9777,16.3595c-6.0931,4.679-6.7139-17.1412-6.7139-17.1412l10.6916,.7817Z" style="fill:#263238; isolation:isolate; opacity:.4;"></path><path d="M382.47159,190.6949c2.79241,3.8928,7.8411,5.4409,12.3357,3.7823,2.8561-1.0026,5.2209-3.059,6.6104-5.7482,.1955-.3564,.3679-.7472,.5404-1.1496,2.8511-7.2543,3.44891-24.9588-4.2307-24.3035-6.3461,.5403-12.5541-1.4141-15.7961,4.0697-.926,1.5601-1.4697,3.3171-1.5866,5.1274-.6898,8.4615-1.4945,13.3704,2.1269,18.2219Z" style="fill:#a77865;"></path><path d="M392.68039,176.6578c-.1379,.6668,.184,1.2761,.6323,1.3451,.4484,.0689,.88531-.4484,.9887-1.1497,.1035-.7013-.19539-1.2761-.6323-1.3336-.4369-.0575-.8852,.4484-.9887,1.1382Z" style="fill:#263238;"></path><path d="M400.37149,177.7499c-.1379,.6668,.19551,1.2761,.6324,1.3451,.4368,.069,.8852-.4483,.97711-1.1496,.092-.7013-.18391-1.2761-.63231-1.3451-.4483-.069-.8852,.5058-.9772,1.1496Z" style="fill:#263238;"></path><path d="M397.87679,177.7384c.518,2.1934,1.3341,4.3054,2.4258,6.2771-1.0424,.5417-2.27059,.5963-3.357,.1495l.9312-6.4266Z" style="fill:#8e4f42;"></path><path d="M390.657,173.8296c.143,.0428,.29779,.003,.40239-.1034,.71361-.7352,1.731-1.0928,2.7477-.9657,.2182,.0431,.4314-.094,.4828-.3104,.048-.2105-.0837-.42-.2941-.468l-.0163-.0034h0c-1.2669-.1857-2.5468,.2409-3.4489,1.1497-.1548,.1603-.1548,.4144,0,.5748h0c.0365,.0474,.079,.09,.12641,.1264Z" style="fill:#263238;"></path><path d="M404.05039,175.5656c.074,.0283,.1559,.0283,.2299,0,.2031-.0515,.326-.2579,.2746-.461l-.0101-.0333h0c-.37-1.2442-1.322-2.2305-2.5523-2.6442-.2061-.064-.4251,.0513-.4891,.2575l-.0052,.0184h0c-.0591,.2126,.064,.4331,.2759,.4943h0c.9643,.3547,1.7054,1.1427,2.0004,2.1269,.0462,.1213,.1496,.2117,.2759,.2414Z" style="fill:#263238;"></path><path d="M391.61129,184.4639s1.414,3.035,4.2996,2.92" style="fill:none; stroke:#263238; stroke-linecap:round; stroke-linejoin:round; stroke-width:.5px;"></path><path d="M387.94389,162.977l.1149,3.7478c-1.3596,.4938-2.1072,1.9537-1.7129,3.3455,.8967,3.219-1.3221,7.8866-3.8858,9.588,0,0,0-1.3565-1.1497-1.1496-1.1496,.2069-1.506,7.2657,.3909,10.8181,0,0-4.0582-3.7363-5.2654-11.2895-1.1496-6.9783-.9312-11.4044,0-14.7499l11.508-.3104Z" style="fill:#a77865;"></path><path d="M387.94389,162.977l.1149,3.7478c-1.3596,.4938-2.1072,1.9537-1.7129,3.3455,.8967,3.219-1.3221,7.8866-3.8858,9.588,0,0,0-1.3565-1.1497-1.1496-1.1496,.2069-1.506,7.2657,.3909,10.8181,0,0-4.0582-3.7363-5.2654-11.2895-1.1496-6.9783-.9312-11.4044,0-14.7499l11.508-.3104Z" style="fill:#263238; isolation:isolate; opacity:.4;"></path><path d="M375.79209,167.4721c4.1027,.4016,8.2431,.1494,12.2667-.7473,11.577-2.2992,16.5089,1.9544,16.5089,1.9544,1.6221-1.459,2.504-3.5688,2.4028-5.7482-.3334-3.3339-4.96649-3.8973-4.96649-3.8973,0,0-1.391-3.7593-4.46061-4.8975-3.0695-1.1381-6.1506,1.713-6.1506,1.713,0,0-3.8283-3.7018-8.2889-2.6442-3.0947,.635-5.3235,3.348-5.34589,6.507,0,0-5.23091,.5289-5.11591,3.219,.115,2.6902,3.15,4.5411,3.15,4.5411Z" style="fill:#263238;"></path><path d="M393.57709,172.8869c2.0763,0,3.7594,1.9405,3.7594,4.3342s-1.6831,4.3342-3.7594,4.3342-3.7593-1.9405-3.7593-4.3342,1.6831-4.3342,3.7593-4.3342Z" style="fill:none; stroke:#263238; stroke-linecap:round; stroke-linejoin:round; stroke-width:.5px;"></path><path d="M406.78659,177.8649c-.2985,2.0739-2.22159,3.5132-4.2955,3.2148-2.0739-.2984-3.5133-2.2216-3.2148-4.2955,.2684-1.8657,1.866-3.2514,3.7509-3.2535,2.2285,.1716,3.9045,2.1038,3.7594,4.3342Z" style="fill:none; stroke:#263238; stroke-linecap:round; stroke-linejoin:round; stroke-width:.5px;"></path><path d="M397.325,177.7384s1.21859-.7587,1.94289,.1265" style="fill:none; stroke:#263238; stroke-linecap:round; stroke-linejoin:round; stroke-width:.5px;"></path><path d="M389.81779,177.2211l-6.5875-.8852c-.8634-.1114-1.7358,.1243-2.4257,.6553l-.2874,.2299" style="fill:none; stroke:#263238; stroke-linecap:round; stroke-linejoin:round; stroke-width:.5px;"></path><path d="M375.72319,178.8076c.6606,2.0219,2.0949,3.7001,3.9892,4.6676,2.5178,1.2531,4.3112-.8623,4.0583-3.518-.23-2.3682-1.805-5.9321-4.5986-6.0701-1.9799-.0662-3.6386,1.4851-3.7049,3.4649-.0166,.4977,.0705,.9934,.256,1.4556Z" style="fill:#a77865;"></path></g><path d="M445.163,217.2833c.18949-1.1327-.93251-2.2051-1.59221-1.6137-.6599,.5912-2.8123,2.4053-4.3584,4.011-.6675,.6932-1.644,1.6092-2.5849,2.4922-.1223,.0903-.2457,.1785-.3569,.2885l-.9153,.9132c-.4605,.4408-.8611,.8349-1.1345,1.1319l-1.051,1.0486c-.6231,.6303-1.1227,1.3715-1.4732,2.1854l-2.1709,7.8363,3.3879,3.3707c4.2405,1.3823,8.0367-5.9768,8.0367-5.9768l2.7332-3.6397c.9197-1.2245,.8296-2.9321-.2137-4.0531l-2.6481-2.729,.0388-.0458c1.02751-1.1976,4.1132-4.087,4.30251-5.2197Z" style="fill:#a77865;"></path></g></g><g id="freepik--Character_1--inject-60"><path d="M284.2041,182.7817h-.583v-5.083h-32.5317v5.083h-.0357c-1.2407,0-2.25,1.0098-2.25,2.2505v4.332c0,1.2408,1.0093,2.25,2.25,2.25h15.0381c.7324,0,1.3286,.5962,1.3286,1.3286v5.9676h-3.6592v5.0976c-1.7346,.7675-3.1337,1.4371-3.4803,1.6971-1.0225,.7668-1.8242,4.1597-1.8242,4.1597l-1.6681,2.4745c-.4782-.2744-.7836-.3714-.7836-.3714l-16.9992,23.2388c-10.3785-6.4606-21.2582-12.0792-32.5343-16.8017-6.3442,12.6187,.5577,29.8851,.5577,29.8851,0,0,23.8431,12.9092,35.1836,9.6092,11.3405-3.2998,20.0666-36.5429,20.0666-36.5429-.3377-1.5871-.792-2.9046-1.2994-4.0126l1.4335-2.867c.1459-.0069,.4223-.0412,.9233-.127,.1181-.0202,.2638-.0555,.4244-.0992v7.0565c0,1.9769,1.6026,3.5795,3.5795,3.5795h1.1593c1.9769,0,3.5795-1.6026,3.5795-3.5795v-10.9629c.2332-.173,.4284-.3364,.5528-.4794,1.162-1.3363,1.2201-9.191,0-9.2142-.1097-.0021-.3122,.0413-.5528,.1036v-1.8438h-3.6591v-5.9676c0-1.2841-1.0444-2.3286-2.3286-2.3286h-15.0381c-.6894,0-1.25-.5605-1.25-1.25v-4.332c0-.6895,.5606-1.2505,1.25-1.2505h.0357v5.0833h32.5317v-5.0833h.583v-1Z" style="opacity:.3;"></path><g><g><path d="M161.8316,223.4234c-4.1248,4.7524-25.1095,45.1762-21.0543,54.6112,4.0552,9.4349,37.6817-1.4408,37.6817-1.4408l-2.0102-13.3275s-13.0602,.4648-14.3151-.7785c-1.2549-1.2432,17.6731-20.1364,17.6731-20.1364l-17.9752-18.928Z" style="fill:#263238;"></path><g style="opacity:.2;"><path d="M140.7791,278.1196c.4984,1.092,1.3668,1.9728,2.4517,2.4865h0l.6739,.3021h.093c.2079,.0875,.4214,.1613,.639,.2208,.9443,.3031,1.918,.5056,2.9049,.6042l.8482,.0814c.4183,0,.8366,.058,1.2665,.0697h1.1619c11.254,.1095,27.65-5.1839,27.6658-5.2869l-2.0102-13.3274s-3.3904,.1207-6.8823,.0746c-3.3616-.0444-6.8172-.2433-7.4328-.8531-.3021-.3021,.5926-1.65,2.1148-3.4858h0c3.6949-4.5432,11.0965-12.1074,14.1524-15.1982l1.3827-1.3943-17.9984-18.9048c-4.1249,4.7059-25.1095,45.1297-21.0311,54.6112Z" style="fill:#fff;"></path></g><polygon points="168.7238 279.2746 169.9817 274.3244 169.06 263.3326 172.4656 263.3326 174.3596 275.304 172.5559 278.3033 168.7238 279.2746" style="fill:#263238; isolation:isolate; opacity:.2;"></polygon><polygon points="169.06 253.5012 164.8499 241.12 165.9282 256.9868 169.06 253.5012" style="fill:#263238; isolation:isolate; opacity:.2;"></polygon><path d="M162.3045,262.6661s-1.7641,4.5502-5.3667,7.5208c0,0,5.7512-2.2543,6.7722-7.1694l-1.4055-.3514Z" style="fill:#263238; isolation:isolate; opacity:.2;"></path></g><g><path d="M193.4828,447.7939l5.8097,.0929c5.9143-27.7819,10.0973-62.1637,12.7-88.0982,.4067-4.0668,.7785-7.9128,1.162-11.5032,.151-1.708,.3021-3.3464,.4415-4.9266,.6972-7.7966,1.1619-13.9433,1.4641-17.8009,.2091-2.7887,.3137-4.3224,.3137-4.3224h-21.1241l.1976,5.3565,.6971,17.6731,.0697,2.0218,.4416,11.6774,.732,19.8808c-7.2156,28.0028-2.9049,69.9488-2.9049,69.9488Z" style="fill:#e9b376;"></path><path d="M146.3081,446.3066l5.7284,1.0806c11.4683-28.665,22.2395-65.3707,29.246-91.0147,1.0806-3.9738,2.0799-7.692,2.9745-11.0617,0-.1742,.0814-.3369,.1278-.4996,1.7662-6.6928,3.1257-12.0261,3.9739-15.4073l1.0109-4.1016-20.6825-3.5788-1.162,8.7145-1.7313,12.7814-.3369,2.5098-1.162,8.7261-3.1488,23.4015c-11.9447,26.376-14.838,68.4498-14.838,68.4498Z" style="fill:#e9b376;"></path><path d="M210.6679,467.1053c-1.0825-.879-2.3145-1.556-3.6368-1.9985h0s-3.9623-3.9274-5.8795-15.7559l-5.1822-1.3595c-1.804-.4302-3.6854,.3066-4.7175,1.8475-.143,.2104-.2528,.4416-.3253,.6855-.2679,1.2688-.4542,2.5534-.5577,3.846-.2901,4.3246-.3172,8.6627-.0814,12.9905h.9412l.3718-8.1336c.1394-2.777,2.2658,.4764,2.87,3.4859,.6042,3.0094,1.894,6.1466,7.9593,6.2977,7.0878,.1046,10.0275-.1743,8.2381-1.9056Z" style="fill:#263238;"></path><path d="M191.066,450.0016c-.337-2.7654-.4415-7.5759-.4415-7.5759l11.5264,1.2782s-1.3943,5.4727-.244,9.586c-5.8097-1.5919-10.8409-3.2883-10.8409-3.2883Z" style="fill:#263238;"></path><path d="M163.772,467.1053c-1.0834-.8749-2.3153-1.5479-3.6368-1.9869h0s-3.9622-3.9273-5.8678-15.7559l-5.1939-1.3595c-1.804-.4302-3.6854,.3066-4.7174,1.8475-.1431,.2104-.2528,.4417-.3254,.6856-.2679,1.2687-.4542,2.5534-.5577,3.846-.2881,4.3247-.3114,8.6629-.0697,12.9905h.883l.3719-8.1336c.1394-2.7771,2.2658,.4764,2.87,3.4858s1.8939,6.1467,7.9708,6.2977c7.1227,.093,10.0624-.1859,8.273-1.9172Z" style="fill:#263238;"></path><path d="M144.1818,450.0016c-.3486-2.7654-.4532-7.5759-.4532-7.5759l11.5264,1.2782s-1.3943,5.4727-.244,9.586c-5.8096-1.5919-10.8292-3.2883-10.8292-3.2883Z" style="fill:#263238;"></path></g><path d="M178.459,202.7525c1.3362,.9521,2.8493,1.6277,4.4502,1.987,4.7058,1.0922,7.9244,.2904,10.0275-1.8708-2.8163,.6965-5.7832,.4517-8.4473-.6971-1.9936-.7355-4.2139-.5217-6.0304,.5809Z" style="fill:#263238; isolation:isolate; opacity:.2;"></path><g><path d="M193.9244,187.9146c0,2.4168,1.069,4.3689,2.3239,4.3689,1.2548,0,2.3936-1.9521,2.3936-4.3689s-1.069-4.3689-2.3936-4.3689-2.3239,1.952-2.3239,4.3689Z" style="fill:none; stroke:#263238; stroke-linecap:round; stroke-linejoin:round; stroke-width:.5px;"></path><path d="M178.1801,202.5085c.0851,.0797,.1786,.1499,.2789,.2092,1.3255,1.0108,2.8379,1.7493,4.4502,2.1728,4.7058,1.0922,7.9244,.4415,10.0275-1.6848h0c2.9397-3.1954,3.6718-8.854,3.2534-15.6862-.0732-2.7187-.5751-5.4088-1.4872-7.9709v-.1278c0-.0233-.0698-.1975-.1162-.2905-1.1705-2.9364-3.7529-5.0768-6.8555-5.6819-1.3237-.2959-2.6755-.4479-4.0319-.4531-13.3274-.1046-15.721,21.949-5.5192,29.5132Z" style="fill:#e9b376;"></path><path d="M177.1111,214.7786c-.8249,3.7879,4.09,5.3333,4.09,5.3333,8.029-3.4858,9.5163-7.7037,9.5163-7.7037-6.7044-3.4858-4.7639-13.3739-4.7639-13.3739l-1.3595,.6739-9.5628,1.8708s2.6492,5.0893,2.9978,6.2512h0c1.8127,6.1002-.9179,6.9484-.9179,6.9484Z" style="fill:#e9b376;"></path><path d="M194.7145,179.4905s.732,9.2955-8.1336,13.3507c0,0-3.7995,9.7022-9.3884,9.83-7.634,.1859-14.35-10.655-11.7124-21.705,3.451-14.3384,25.1676-15.5003,29.2344-1.4757Z" style="fill:#263238;"></path><path d="M178.459,169.5675s8.9004-2.2541,13.827,1.3363c5.7517,4.183,7.9361,8.5054,1.162,15.2214,0,0-14.9542-4.8453-19.9273-3.8228-2.9067,.5863-5.7595,1.4141-8.5286,2.4749-1.0806-9.8764,8.4938-17.2315,13.4669-15.2098Z" style="fill:#263238;"></path><path d="M191.0892,187.9146s-2.3238,10.7595,1.3247,19.9389l-2.796,.5911-.7375-2.6384c-.5089,.1572-.7188,3.3724-1.3572,3.5587-6.5132,1.9008-18.2759,4.7262-23.6117,1.8349-7.3551-3.9854-.6158-17.3593-.3021-25.0746s3.6601-19.1139,14.8496-16.5576c11.1895,2.5562,12.6302,18.347,12.6302,18.347Z" style="fill:#263238;"></path><line x1="198.3074" y1="187.229" x2="189.7647" y2="187.229" style="fill:none; stroke:#263238; stroke-linecap:round; stroke-linejoin:round; stroke-width:.5px;"></line><path d="M169.5287,177.2425c.8501-2.3778,.4573-5.2022-1.1467-7.1524-1.604-1.9501-4.4092-2.8795-6.8152-2.1136-2.4062,.766-4.1878,3.2671-3.9681,5.7826,.1469,1.6816,1.1215,3.238,2.4751,4.2466s3.0552,1.4939,4.7429,1.53c-2.4962,1.7332-5.608,2.5595-8.6352,2.2933,2.3319,1.7971,5.452,2.5304,8.3403,1.9604-1.6289,1.1632-3.4357,2.077-5.338,2.6996,2.0712,.95,4.5245,1.0321,6.6546,.2226s3.9097-2.5001,4.8273-4.5859l-1.137-4.8832Z" style="fill:#263238;"></path></g><g><g><path d="M158.4497,369.2542c-6.4945,12.6439-9.7872,45.353-13.3066,70.1081l11.1219,1.7874,15.2075-46.4739,15.0387-54.2335,4.5083-16.5228h0l1.1858,45.8404c-5.068,16.4473-3.5143,42.7811-3.8467,68.6333l13.7923,1.4048,13.525-99.4022c10.4574-61.4317-7.4248-75.9443-7.4248-75.9443l-31.872,6.4139c-14.4313,24.5401-11.0036,53.0541-11.0036,53.0541l-6.9258,45.3347Z" style="fill:#335EEA;"></path><path d="M185.663,340.3378l.8482,.1045,4.5083-16.5228s-9.6673-16.5111-6.6463-25.1094c-.4299,.6041-10.8408,16.0463,1.2898,41.5277Z" style="fill:#263238; isolation:isolate; opacity:.2;"></path></g><path d="M173.2983,276.7081l41.9455,.5416s-.5297-2.3889-1.2411-3.5027-.301,0-.301,0l-39.6918,1.491-.7116,1.4701Z" style="fill:#263238; isolation:isolate; opacity:.2;"></path></g><g><g><path d="M265.2149,202.4853v-14.0055c0-1.0098-.8186-1.8284-1.8284-1.8284h-15.0383c-.9666,0-1.7502-.7836-1.7502-1.7503v-4.332c0-.9667,.7836-1.7503,1.7502-1.7503h33.1505" style="fill:none; stroke:#263238; stroke-miterlimit:10;"></path><rect x="248.3839" y="173.2357" width="32.5317" height="11.1663" transform="translate(529.29949 357.6377) rotate(180)" style="fill:#335EEA;"></rect><rect x="248.3839" y="173.2357" width="32.5317" height="11.1663" transform="translate(529.29949 357.6377) rotate(180)" style="fill:#fff; opacity:.3;"></rect><path d="M264.6352,194.4474h1.1593c1.97558,0,3.5795,1.60392,3.5795,3.5795v22.3967h-8.3183v-22.3967c0-1.97558,1.60392-3.5795,3.5795-3.5795Z" transform="translate(530.4297 414.871) rotate(180)" style="fill:#263238;"></path><g style="opacity:.3;"><path d="M248.3891,177.6399c.4439-.1679,1.2459,.1462,1.4615,.569,.2156,.4229,.2687,.9127,.4748,1.3402,.5338,1.1071,2.1773,1.4726,3.1301,.6962,.7065-.5757,1.1082-1.6567,2.0148-1.7493,.767-.0784,1.3769,.6437,1.6802,1.3526,.3032,.7088,.4808,1.5167,1.0515,2.0351,.516,.4686,1.2528,.6002,1.9494,.6255,.9374,.034,1.9311-.1097,2.6669-.6915,.6687-.5288,1.0343-1.3426,1.374-2.1245,.3397-.7819,.7018-1.5965,1.3665-2.1302,.6648-.5338,1.73-.6735,2.3336-.0714,.4405,.4394,.5203,1.1314,.9018,1.623,.3589,.4624,.9866,.6993,1.5616,.5891,.5749-.1101,1.0707-.5622,1.2333-1.1245,.1329-.46,.0833-1.0222,.4446-1.3363,.5029-.4372,1.3311,.0669,1.5311,.7026,.2,.6356,.0343,1.3232,.0729,1.9885,.0579,.998,.6469,1.9861,1.567,2.3769,.9202,.3909,2.131,.0609,2.6111-.816,.4342-.7929,.2399-1.823,.697-2.6029,.4077-.6955,1.5674-1.2636,2.3264-.9921l.0764-4.6642h-32.5317l.0052,4.4042Z" style="fill:#fff;"></path></g></g><path d="M203.766,213.942s-10.6317-3.7879-26.6549,.8366c-16.0231,4.6245-16.6273,11.4451-16.6273,11.4451,0,0,10.1553,23.018,11.7588,49.0803l41.7601-1.557s4.9847-36.787-10.2367-59.805Z" style="fill:#263238;"></path><path d="M160.4838,226.2237s10.1553,23.018,11.7588,49.0803l41.7601-1.557c.499-4.2423,.7551-8.5097,.7669-12.7813,.0824-6.2522-.306-12.5017-1.162-18.6956-1.3943-9.6441-4.2643-19.9389-9.8416-28.3746,0,0-10.6317-3.7879-26.6549,.8366-16.0231,4.6245-16.6273,11.4916-16.6273,11.4916Z" style="fill:#fff; isolation:isolate; opacity:.2;"></path><path d="M204.347,243.8852s1.7313,10.5969,10.4574,17.127c.0824-6.2522-.306-12.5017-1.1619-18.6956l-9.2955,1.5686Z" style="fill:#263238; isolation:isolate; opacity:.2;"></path><path d="M250.4876,213.21l5.2636-7.8082s.8017-3.3929,1.8242-4.1598,11.1314-5.0777,12.3514-5.0544c1.2201,.0232,1.162,7.8779,0,9.2141-1.1619,1.3363-7.5991,4.1946-9.2955,4.4851s-.8598,0-.8598,0l-4.6478,9.2955-4.6361-5.9723Z" style="fill:#e9b376;"></path><path d="M203.766,213.942c11.2762,4.7225,22.1558,10.341,32.5343,16.8017l16.9992-23.2388s4.578,1.4175,6.2744,9.3884c0,0-8.7261,33.2431-20.0666,36.543-11.3405,3.2999-35.1835-9.6092-35.1835-9.6092,0,0-6.902-17.2664-.5578-29.8851Z" style="fill:#263238;"></path><path d="M203.766,213.942c11.2762,4.7225,22.1558,10.341,32.5343,16.8017l16.9992-23.2388s4.578,1.4175,6.2744,9.3884c0,0-8.7261,33.2431-20.0666,36.543-11.3405,3.2999-35.1835-9.6092-35.1835-9.6092,0,0-6.902-17.2664-.5578-29.8851Z" style="fill:#fff; isolation:isolate; opacity:.2;"></path><path d="M175.053,242.0812s4.7397,1.686,8.9812-2.6616c4.2415-4.3475,6.6614-18.1377,6.6614-18.1377l-15.6426,20.7993Z" style="fill:#263238; isolation:isolate; opacity:.2;"></path><path d="M192.9367,212.435s-4.1618,28.4224-17.6095,29.6462c-13.4477,1.2237-19.4732-21.2823-17.1987-23.9425,2.2746-2.6603,19.5249-5.9033,34.8082-5.7037Z" style="fill:#263238;"></path><path d="M192.9367,212.435s-4.1618,28.4224-17.6095,29.6462c-13.4477,1.2237-19.4732-21.2823-17.1987-23.9425,2.2746-2.6603,19.5249-5.9033,34.8082-5.7037Z" style="fill:#fff; isolation:isolate; opacity:.3;"></path></g><path d="M191.0892,190.1571c0-1.4524-1.1619-3.9041-3.4858-3.5672-2.3238,.337-3.6485,6.1235,2.1148,7.4132,.8714,.1859,1.371-.7901,1.371-3.846Z" style="fill:#e9b376;"></path></g><path d="M236.3003,230.7437s3.9624,2.7482,4.291,3.9971c0,0-.1893-3.3111-3.4797-5.1063l-.8113,1.1092Z" style="fill:#263238; isolation:isolate; opacity:.2;"></path></g></svg>
