<svg xmlns="http://www.w3.org/2000/svg" viewBox="0 0 500 500"><g id="freepik--background-simple--inject-105"><path d="M80.61,141.51a159.15,159.15,0,0,0,46.61,179.06c89,74.5,286.89,86.53,302.08-64.76a123.15,123.15,0,0,0-.8-31.22c-3.67-23.41-15.7-40.38-37.95-49.14-32.87-12.94-71.89-7.13-102.39-24.95-32.33-18.88-46.44-58.5-79-77-29.45-16.72-72-2.06-95.39,18.72C98.84,105.56,87.85,122.78,80.61,141.51Z" style="fill:#335EEA"></path><path d="M80.61,141.51a159.15,159.15,0,0,0,46.61,179.06c89,74.5,286.89,86.53,302.08-64.76a123.15,123.15,0,0,0-.8-31.22c-3.67-23.41-15.7-40.38-37.95-49.14-32.87-12.94-71.89-7.13-102.39-24.95-32.33-18.88-46.44-58.5-79-77-29.45-16.72-72-2.06-95.39,18.72C98.84,105.56,87.85,122.78,80.61,141.51Z" style="fill:#fff;opacity:0.9"></path></g><g id="freepik--character-1--inject-105"><path d="M130.26,117.73s-6.36-1.42-7.26-9.62c-.83-7.61,2.56-9.12,2.56-9.12s-4.33-7.78,2.9-12.25,18.3,1.49,22.56-.53,9-.89,7.65,5.11S151,98.88,151,98.88l-14.59-2.56s6.29,16.4,2.56,19.49S130.26,117.73,130.26,117.73Z" style="fill:#263238"></path><path d="M155.68,93.56s3.15,12.24,0,14.35-3.83-12.54-3.83-12.54Z" style="fill:#263238"></path><path d="M132.47,212.11l-3.13,6.7-5.55-.8c-5.23.84-7.41-2.13-7.41-2.13l-3.29-3c-18.39-17.22-21.49-26-19.91-32.93,1.67-7.32,12.75-28.85,16.09-33.86s5.86-6.38,5.86-6.38c6.06-2.61,10.65-.73,12.76,5.75,1.71,5.24-2.17,10.71-5.16,14.66a159.57,159.57,0,0,0-10.18,15.1c-1,1.72-2,3.47-2.94,5.23-.41.76-2.67,4.06-2.42,4.73,1.54,4.29,9.28,16.47,12,20.69l.94,1.46C130.17,208.77,132.47,212.11,132.47,212.11Z" style="fill:#263238"></path><path d="M236.93,141.35l-5.83,3.33s-1.26,2.48-3.34,5.95c-4.73,7.91-13.68,21-21.59,21.88-10.39.87-21.31-3.94-32.28-11.3s-7.1-24.2-7.1-24.2,6.55,1.84,16.69,9.34,18.74,12.08,21.24,13.05c0,0,8.6-2.77,17.91-13.59h0l2.64-8.48,8.75-3Z" style="fill:#263238"></path><path d="M114.76,165.46C115.14,166,125,214.4,125,214.4h46.06s.41-29.59,1.17-36.61,5.42-36-5.44-40.78c0,0-11.06-2.63-19.22-2.74a74.64,74.64,0,0,0-14.65,1.25s-14.13.75-17.8,4.17S114.76,165.46,114.76,165.46Z" style="fill:#263238"></path><path d="M171.06,213.75s-.78,69.81-2.87,86.51-7.51,88.87-7.51,88.87L147,385.84s-1-52.53-2.43-78.62-1.11-57-1.11-57-10,65-13.85,71.26S110.1,363.92,100,382l-11.14-9.74S107,314.52,110.1,304.78s5.8-82,14.9-90.38Z" style="fill:#335EEA"></path><polygon points="98.31 379.88 95.53 384.13 91.78 389.87 84.12 385.89 87.26 379.55 89.6 374.85 98.31 379.88" style="fill:#ce7a63"></polygon><path d="M236.93,141.35l-5.83,3.33s-1.26,2.48-3.34,5.95l-5.13-4.82h0l2.64-8.48,8.75-3Z" style="fill:#ce7a63"></path><path d="M171.05,213.75s-.77,69.81-2.86,86.5-7.51,88.88-7.51,88.88l-13.51-2.27s-1.25-53.55-2.63-79.65c-.39-7.44-1.08-13.1-1.23-17.45s-.12-12,0-19.49h0c.13-10.84.37-21.38.37-21.38l-.3,1.92c0,.28-.09.59-.15.92l-.06.4v0c-2.13,13.46-10.25,63.89-13.55,69.31C125.75,327.74,110.1,363.92,100,382l-11.14-9.74s18.1-57.75,21.23-67.48,5.8-82,14.9-90.39Z" style="opacity:0.30000000000000004"></path><path d="M143.34,250.8c0,.28-.09.59-.15.92Z" style="opacity:0.2"></path><path d="M145.53,236.79s-.26,20-2.26,33.47c.13-10.84.37-21.38.37-21.38Z" style="opacity:0.2"></path><path d="M149.48,132.36a13.51,13.51,0,0,0,4.5,2.31s-2.33,2.8-9.8,2.25c-2.91-.22-6.61,1.37-11.25-1.4,0,0,1.94-11.08,1.09-17.64,0,0-7.67-3.29-5.84-8.28,1.66-4.54,6.83.67,7.77,1.66-.92-1.17-6.44-8.54-2.42-14.57A15.8,15.8,0,0,1,145,89.76l6.34,1.7,2.55,6s3.41,4.62,3.65,13.87-5.11,12.53-9,13.63c0,0-.11,1-.11,2.35C148.38,129.12,148.55,131.51,149.48,132.36Z" style="fill:#ce7a63"></path><path d="M151.49,112.06l-1-7.47,4.21,5.88A4.52,4.52,0,0,1,151.49,112.06Z" style="fill:#ba4d3c"></path><path d="M144.18,112.53a4.89,4.89,0,0,0,5.09,1.75" style="fill:none;stroke:#263238;stroke-linecap:round;stroke-linejoin:round"></path><path d="M142.27,102.2s1.2-2.62,3.66-2.22" style="fill:none;stroke:#263238;stroke-linecap:round;stroke-linejoin:round"></path><path d="M153.08,99a4.66,4.66,0,0,1,4,1.43" style="fill:none;stroke:#263238;stroke-linecap:round;stroke-linejoin:round"></path><path d="M146.75,105.6c0,.73-.37,1.32-.82,1.32s-.82-.59-.82-1.32.37-1.31.82-1.31S146.75,104.88,146.75,105.6Z" style="fill:#263238"></path><path d="M155.07,105.06c0,.72-.37,1.31-.82,1.31s-.82-.59-.82-1.31.37-1.32.82-1.32S155.07,104.33,155.07,105.06Z" style="fill:#263238"></path><polygon points="141.22 140.32 147.64 139.34 149.21 145.55 146.22 151.11 144.5 151.11 141.22 146.12 141.22 140.32" style="fill:#335EEA"></polygon><polygon points="144.5 151.11 141.22 180.45 147.22 186.23 151.55 180.32 146.22 151.11 144.5 151.11" style="fill:#335EEA"></polygon><polygon points="141.22 140.32 147.64 139.34 149.21 145.55 146.22 151.11 144.5 151.11 141.22 146.12 141.22 140.32" style="opacity:0.30000000000000004"></polygon><polygon points="144.5 151.11 141.22 180.45 147.22 186.23 151.55 180.32 146.22 151.11 144.5 151.11" style="opacity:0.30000000000000004"></polygon><path d="M144.18,136.92l3.25,8.56s8.4-4.19,9.63-11.21l-6-2.06A33.4,33.4,0,0,1,144.18,136.92Z" style="fill:#fff"></path><path d="M133.5,131.65s5.81,3.06,10.68,5.27l-1.91,8.56s-9.62-5.76-12.85-10.26Z" style="fill:#fff"></path><path d="M148.5,124.93s-.11,1-.11,2.35a20.28,20.28,0,0,1-4.75-1.83A10.22,10.22,0,0,0,148.5,124.93Z" style="opacity:0.2"></path><path d="M136,111.26a20.12,20.12,0,0,0-1.1-13s11.41,3.27,11.44-7.12c0,0-15.22,2.43-16,7.84S134.7,109.79,136,111.26Z" style="fill:#263238"></path><path d="M146.17,92.67s4.36,6.19,8.1,4.91v-9h-13l-6.87,4.1,4.76,4.9,3.54-2.91Z" style="fill:#263238"></path><polygon points="159.77 400.38 150.01 399.88 149.77 392.48 149.59 387.08 157.49 386.29 159.05 386.36 159.39 393.04 159.77 400.38" style="fill:#ce7a63"></polygon><polygon points="159.39 393.04 149.77 392.48 149.59 387.08 157.49 386.29 159.05 386.36 159.39 393.04" style="opacity:0.2"></polygon><polygon points="144.29 390.63 163.06 390.17 164.12 384.05 144.73 384.05 144.29 390.63" style="fill:#263238"></polygon><path d="M161.87,400.79s3.27-9.64,5.82-8.68S161.87,400.79,161.87,400.79Z" style="fill:none;stroke:#335EEA;stroke-miterlimit:10"></path><path d="M162.43,400.79s4.94-4.7,6.93-2.87S162.43,400.79,162.43,400.79Z" style="fill:none;stroke:#335EEA;stroke-miterlimit:10"></path><polygon points="98.31 379.88 95.53 384.13 87.26 379.55 89.6 374.85 98.31 379.88" style="opacity:0.2"></polygon><polygon points="85.42 376.04 99.76 383.63 103.14 379.47 88.53 371.26 85.42 376.04" style="fill:#263238"></polygon><path d="M94.55,392.42s4.06-5.08,5.71-3.88S94.55,392.42,94.55,392.42Z" style="fill:none;stroke:#335EEA;stroke-miterlimit:10"></path><path d="M95.29,392.42s7-1.65,7.3.62S95.29,392.42,95.29,392.42Z" style="fill:none;stroke:#335EEA;stroke-miterlimit:10"></path><path d="M93.7,387l-7.53-4.23a2.28,2.28,0,0,0-3.09.87l-3.39,6a2.28,2.28,0,0,0,.87,3.1l21.37,12a2.28,2.28,0,0,0,3.1-.87h0a2.28,2.28,0,0,0-.56-2.89c-2.76-2.21-8.42-7.29-9.67-12.55A2.26,2.26,0,0,0,93.7,387Z" style="fill:#263238"></path><path d="M158.87,396.63h-10a2.64,2.64,0,0,0-2.63,2.64v8a2.63,2.63,0,0,0,2.63,2.63h28.36a2.63,2.63,0,0,0,2.64-2.63h0a2.64,2.64,0,0,0-2.2-2.6c-4.05-.67-12.63-2.59-16.88-7.18A2.65,2.65,0,0,0,158.87,396.63Z" style="fill:#263238"></path><path d="M132.47,212.11l-3.13,6.7-5.55-.8c-5.23.84-7.41-2.13-7.41-2.13l-3.29-3,6.11-7,.94,1.46C130.17,208.77,132.47,212.11,132.47,212.11Z" style="fill:#ce7a63"></path><polygon points="222.63 145.37 220.69 147.95 226.37 152.91 228.04 150.63 222.63 145.37" style="fill:#fff"></polygon><polygon points="112.84 213.16 119.39 205.5 117.18 202.69 110.34 210.92 112.84 213.16" style="fill:#fff"></polygon></g><g id="freepik--character-2--inject-105"><path d="M238.59,97.75a14.27,14.27,0,0,0,1.46,12.17c3.88,5.88,3-13.56,3-13.56Z" style="fill:#263238"></path><path d="M246.54,141.84s-24,33.6-28.69,32.19-15.5-22.37-15.5-22.37l-.63-8.29-7.08-9.75-9,7.1,4.36,8.11s1.3,4.21,5.14,5.39c0,0,8.83,27.11,20,32.2s26.67-27.21,26.67-27.21Z" style="fill:#ffb573"></path><path d="M297.92,386.69l-12.39,4.71c-16-35.14-29-137.62-29-137.62s-.38,2.87-.95,7.49c-1.86,15.3-5.8,49.69-5,62,1.27,20.71-2.39,71.89-2.39,71.89l-15,1.78s.51-50.59-1.63-78.62,4.41-99.95,4.41-99.95l41.37-1.9c7.1,8.16,8.87,108.59,10.65,117.82S297.92,386.69,297.92,386.69Z" style="fill:#263238"></path><path d="M231.89,146.85a4.17,4.17,0,0,1,1.79-2.72c3.35-2.24,11.94-7.82,14.25-8,2.9-.23,18.06-3.79,24.07,0s9.81,14.93,9.81,14.93-.44,51.49-3.12,68.21l-42.79-.89S229.17,161.94,231.89,146.85Z" style="fill:#335EEA"></path><path d="M279.81,165.55l6.68,12.26s.89,27.64-1.33,34.77l-3.35,6.69V230l8,1.11,2.23-8.47s1.33-6.24,0-8.91c0,0,9.36-21.4,6-39.9,0,0-16.89-37.24-27.25-38.27S279.81,165.55,279.81,165.55Z" style="fill:#ffb573"></path><path d="M266.17,135.61s-6.61,6.38-12.64,6.2-4.38-5.32-4.38-5.32c3.1-.58,4.11-3.68,4.4-6.34a18.73,18.73,0,0,0,0-4s-7.19,0-11.23-8.78,0-20.35,0-20.35,15.27-3.86,22.11-1.93,1.41,19.12,1.41,19.12C264.06,123.86,266.17,135.61,266.17,135.61Z" style="fill:#ffb573"></path><path d="M252.77,106.17c0,.69-.38,1.25-.84,1.25s-.83-.56-.83-1.25.37-1.25.83-1.25S252.77,105.48,252.77,106.17Z" style="fill:#263238"></path><path d="M244.25,107c0,.69-.37,1.25-.83,1.25s-.84-.56-.84-1.25.38-1.25.84-1.25S244.25,106.28,244.25,107Z" style="fill:#263238"></path><path d="M247.07,107.6l0,6.71a2.92,2.92,0,0,1-3.11-.92Z" style="fill:#ed893e"></path><path d="M249.92,115.48s3.56,0,4.86-2.93" style="fill:none;stroke:#263238;stroke-linecap:round;stroke-linejoin:round"></path><path d="M251.1,101.35s3.1-.25,4,1.68" style="fill:none;stroke:#263238;stroke-linecap:round;stroke-linejoin:round"></path><path d="M240.51,103.71a3.87,3.87,0,0,1,2.91-2.37" style="fill:none;stroke:#263238;stroke-linecap:round;stroke-linejoin:round"></path><path d="M259,125.08a16.72,16.72,0,0,1-5.44,5.07,18.73,18.73,0,0,0,0-4A14.23,14.23,0,0,0,259,125.08Z" style="opacity:0.2"></path><polygon points="251.75 142.02 255.38 141.68 256.4 149.26 254.51 152.73 252.35 152.73 250.33 148.97 251.75 142.02" style="fill:#263238"></polygon><path d="M265.73,132.56a55.27,55.27,0,0,1-12.2,9.25l2.16,5.36s9.06-1.56,12.94-12.31Z" style="fill:#fff"></path><path d="M253.53,141.81l-2.43,5.36s-3.68-3.63-4.56-10.64l4.56-2.91S251.27,138.87,253.53,141.81Z" style="fill:#fff"></path><polygon points="252.51 150.73 250.04 182.78 254.19 187.82 258.02 182.47 254.28 150.73 252.51 150.73" style="fill:#263238"></polygon><path d="M268.92,109.4s-8.76,1.06-10.21-11.63c0,0-15.43,4.61-21-.12s-1.05-10.88-1.05-10.88a24.42,24.42,0,0,0,1.71,3.46v-4a29.11,29.11,0,0,0,3.09,3.45,19.29,19.29,0,0,0,13-2.51c6.69-4,15.2,3.59,13.63,9.44C268.14,96.64,275.68,102.52,268.92,109.4Z" style="fill:#263238"></path><path d="M262.91,109.76s2.36-8.37,6.24-5.42-1.65,11.19-4.35,10.72S262.91,109.76,262.91,109.76Z" style="fill:#ffb573"></path><path d="M194.87,156l8.44-4.66s9.07,17.52,14.33,19.72c0,0,10.69-10.79,14.21-24.3l4.79,22.52s-8.29,17.51-18.77,17.76S198.8,167.35,194.87,156Z" style="fill:#335EEA"></path><path d="M273.81,158.58,286.53,179l-2.12,31.63,9.57,1.87s7.37-22,4.1-38.65c-2.37-12.09-9.86-27.42-18.55-34.75a18.58,18.58,0,0,0-10.9-4.19s-2.35,5.42-2.23,10S273.81,158.58,273.81,158.58Z" style="fill:#335EEA"></path><path d="M281.47,170.86l-7.66-12.28c.66,1.06,7.66,22.28,7.66,22.28Z" style="opacity:0.2"></path><path d="M256.53,253.78s-.38,2.87-.95,7.49l-2-24.32Z" style="opacity:0.2"></path><polygon points="292.77 401.84 300.53 398.23 298.3 392.14 296.67 387.69 289.99 389.64 288.75 390.2 290.66 395.75 292.77 401.84" style="fill:#ffb573"></polygon><polygon points="290.66 395.75 298.3 392.14 296.67 387.69 289.99 389.64 288.75 390.2 290.66 395.75" style="opacity:0.2"></polygon><path d="M291.19,402.86s-5.82-6.76-7.58-5.15S291.19,402.86,291.19,402.86Z" style="fill:none;stroke:#335EEA;stroke-miterlimit:10"></path><path d="M290.74,403s-5.56-2.2-6.58-.06S290.74,403,290.74,403Z" style="fill:none;stroke:#335EEA;stroke-miterlimit:10"></path><path d="M292.27,398.5l8.11-3.28a2.31,2.31,0,0,1,3,1.27L306,403a2.3,2.3,0,0,1-1.27,3l-23.05,9.31a2.29,2.29,0,0,1-3-1.28h0a2.3,2.3,0,0,1,.93-2.83c3.06-1.87,9.42-6.25,11.36-11.37A2.26,2.26,0,0,1,292.27,398.5Z" style="fill:#263238"></path><polygon points="236.07 409.49 244.62 409.28 245 402.8 245.28 398.07 238.38 397.2 237.02 397.22 236.56 403.07 236.07 409.49" style="fill:#ffb573"></polygon><polygon points="236.56 403.07 245 402.8 245.28 398.07 238.38 397.2 237.02 397.22 236.56 403.07" style="opacity:0.2"></polygon><path d="M234.21,409.8s-2.64-8.52-4.89-7.74S234.21,409.8,234.21,409.8Z" style="fill:none;stroke:#335EEA;stroke-miterlimit:10"></path><path d="M233.72,409.79s-4.22-4.24-6-2.68S233.72,409.79,233.72,409.79Z" style="fill:none;stroke:#335EEA;stroke-miterlimit:10"></path><path d="M236.94,406.23l8.75.23a2.31,2.31,0,0,1,2.25,2.37l-.19,7a2.3,2.3,0,0,1-2.37,2.24l-24.85-.65a2.3,2.3,0,0,1-2.24-2.37h0a2.31,2.31,0,0,1,2-2.22c3.56-.5,11.13-2,14.95-5.91A2.32,2.32,0,0,1,236.94,406.23Z" style="fill:#263238"></path><polygon points="285.26 394.88 280.97 387.41 299.64 380.5 300.95 390.4 285.26 394.88" style="fill:#335EEA"></polygon><polygon points="231.11 390.34 231.11 400 250.7 400 251.45 390.34 231.11 390.34" style="fill:#335EEA"></polygon></g><g id="freepik--character-3--inject-105"><path d="M335.68,154.22S330,176.62,324,183.56c0,0-10.89-10.88-14.2-20.35,0,0-.31-4.42-3.47-6.31l-4.73-6.47-7.89,2.84,1.89,6.31,8.21,4.58s10.41,28.71,19.87,28.55,13.73-12.78,13.73-12.78l5.2-27Z" style="fill:#ff8b7b"></path><path d="M304,166.85l5.84-3.64s9.94,16.24,14.59,19.5c0,0,5.79-10.56,7.77-19.25a142.86,142.86,0,0,1,3.83-14l6.62,9.59s-4.35,30.54-13.35,33.64-14.09-5.69-16.14-9.15S304,166.85,304,166.85Z" style="fill:#263238"></path><path d="M354.05,386.69c0,.37,6,8.85,6,8.85l6.28-8.12-6.77-9.59Z" style="fill:#ff8b7b"></path><path d="M357.22,392.3l6.5-7.05a2.54,2.54,0,0,1,3.58-.14l5.64,5.22a2.52,2.52,0,0,1,.14,3.57l-18.48,20a2.54,2.54,0,0,1-3.57.14h0a2.53,2.53,0,0,1-.4-3.25c2.16-3.29,6.4-10.59,5.93-16.58A2.51,2.51,0,0,1,357.22,392.3Z" style="fill:#263238"></path><polygon points="340.58 382.75 358.82 366.75 365.53 380.68 353.06 391.52 340.58 382.75" style="fill:#335EEA"></polygon><path d="M333.91,201.45s-19.67,85.87-20,106.47,17.64,56.33,29,73.06l15.3-12.17-22.17-54,10.29-67.24,11.88,136.24,14.68,1.88s1.87-51.52,0-70.25,8.53-82.43.83-106.79Z" style="fill:#263238"></path><path d="M373.77,208.63s3.35-31.94,9.78-44.45l2.5-14.47s-4.65-5.72-15.19-5.54-15.18-1-15.18-1-13.77-.93-17,2.11-3.39,16.8-3.93,23.41-1.8,37-1.8,37Z" style="fill:#335EEA"></path><path d="M372.84,143.11S357,161.66,360,208.63l18.52,3.18L376,192.33l11.87-35.61S390.36,145.63,372.84,143.11Z" style="fill:#263238"></path><path d="M354.78,143.11s-17.06,12.46-18.37,60.27l-8.93.25,7.31-38.24a17.59,17.59,0,0,1-.48-10.77c1-3.44,2.08-7.48,4.38-9.38C342.35,142.21,348.18,142.47,354.78,143.11Z" style="fill:#263238"></path><path d="M375.68,154.33s10.62,25.78,8,36.21c0,0-18.32-4.71-26.77-12.9,0,0-2.65-4.47-7-4.8l-8.36-4.29-6.78,7.12,5.3,5.62,11,.49s26,24.65,35.86,19.51c4.61-2.41,6.59-7.09,7.39-11.39a28,28,0,0,0-.68-12.67L386.59,152Z" style="fill:#ff8b7b"></path><path d="M350.4,184.24l7.24-8.42s16.08,12.4,26,14.72a229.87,229.87,0,0,0-4-25.21l-5-8.61.46-3.62,12.12-1.57s11,30.75,8.08,41.83-9.19,12.18-19.75,8.09S350.4,184.24,350.4,184.24Z" style="fill:#263238"></path><polygon points="373.09 407.96 363.02 407.96 362.44 399.58 362.15 395.39 361.98 392.97 373.08 393.9 373.08 399.58 373.09 407.96" style="fill:#ff8b7b"></polygon><path d="M362.59,404.21h9.59a2.53,2.53,0,0,1,2.53,2.53v7.69a2.53,2.53,0,0,1-2.53,2.52H344.94a2.52,2.52,0,0,1-2.53-2.52h0a2.53,2.53,0,0,1,2.11-2.5c3.89-.64,12.13-2.48,16.21-6.9A2.53,2.53,0,0,1,362.59,404.21Z" style="fill:#263238"></path><path d="M372.84,143.11a39.71,39.71,0,0,0-4.6,7.79,88.64,88.64,0,0,0-7.13,24.92l11.73-9.5-2.55-8.17,14.27-10.36S380.83,144,372.84,143.11Z" style="fill:#fff;opacity:0.1"></path><path d="M340.94,169.36s5.65-20.15,13.84-26.25c0,0-9.71-1.35-14.18.92l1,14.12-4.17,1.31Z" style="fill:#fff;opacity:0.1"></path><path d="M384.76,109.75c1.92,4.81-.14,10.22.05,15.39.08,2.36.64,4.68.7,7s-.48,4.88-2.21,6.49c-1.56,1.47-3.79,1.91-5.89,2.3-3.28.59-6.84,1.15-9.78-.41-.68-.36-1.3-.82-2-1.12a9.43,9.43,0,0,0-4.52-.39,11,11,0,0,1-4.54-.22c-4.68-1.63-1.46-8.07-.66-11.37q1.85-7.58,3.68-15.15c5.05-1,10.06-2.4,15.12-3.42a10.94,10.94,0,0,1,5.08-.22C381.37,109.11,383.18,110.26,384.76,109.75Z" style="fill:#263238"></path><path d="M384.89,119.69a5.82,5.82,0,0,1-2.38,3.2c-1.17.62-1.35,1.72-1.25,3,.21,3,1.84,7.24-3.77,9.64a4.78,4.78,0,0,1-5.16-.57c-3.94-3.11-5.19-11.83-5.19-11.83L360,102.54h0a.47.47,0,0,1,.09-.12l.06-.11a.48.48,0,0,1,.09-.11,9.37,9.37,0,0,1,.83-1,9.55,9.55,0,0,1,.71-.74c2.61-2.42,8-5.51,15.73-.35C386,105.79,386.73,114.78,384.89,119.69Z" style="fill:#263238"></path><path d="M385.3,121.43c.09,2.39-2.11,3.76-4,4.51a15.3,15.3,0,0,1-2.85.77c-1.76,2.93-5.57,5-5.57,5a16.36,16.36,0,0,0-.51,3.32,40.56,40.56,0,0,0,.51,8.11l-2.58,4c-10.75,4.92-14.58-4-14.58-4,3.94-.42,5.2-3.73,5.57-6.51a16.26,16.26,0,0,0,0-3.84,11.92,11.92,0,0,1-7-8.35c-1.27-5.38-.23-10.44,2-15.41a36,36,0,0,1,3.21-5.67l.5-.81h0a.47.47,0,0,1,.09-.12,1.42,1.42,0,0,1,.15-.22l0-.07c.18-.23.44-.56.78-.92l.06,0,13.49-1.75,5.86,4.68,2.05,11.6-3,3.57-1.25,1.49-.31.36.39-.33c2.38-2,5.42-3,6.53-1.11A3.72,3.72,0,0,1,385.3,121.43Z" style="fill:#ff8b7b"></path><path d="M367.08,112.77c-.17.71-.69,1.2-1.15,1.09s-.71-.78-.54-1.5.69-1.2,1.16-1.09S367.26,112.05,367.08,112.77Z" style="fill:#263238"></path><path d="M359.4,110.7c-.17.72-.69,1.21-1.16,1.1s-.71-.79-.54-1.5.69-1.21,1.16-1.1S359.57,110,359.4,110.7Z" style="fill:#263238"></path><path d="M366.67,111.32l-1.85-1S365.14,112.21,366.67,111.32Z" style="fill:#263238"></path><path d="M359,109.31l-1.85-1S357.5,110.21,359,109.31Z" style="fill:#263238"></path><path d="M361.28,111.55l-1.76,6.33a1.85,1.85,0,0,1-2.34-1.28Z" style="fill:#ff5652"></path><path d="M361.66,122.28s4.37.65,5.62-3" style="fill:none;stroke:#263238;stroke-linecap:round;stroke-linejoin:round"></path><path d="M367.14,107.81a3.07,3.07,0,0,1,4.22,1.45" style="fill:none;stroke:#263238;stroke-linecap:round;stroke-linejoin:round"></path><path d="M361.05,105.19a2.79,2.79,0,0,0-4.05,1.08" style="fill:none;stroke:#263238;stroke-linecap:round;stroke-linejoin:round"></path><path d="M383.54,115.91l-5.18,4.89-.08,0C369.62,118,371.36,102,371.36,102c-2.45,1.56-11.13.7-11.36.52a12.18,12.18,0,0,1,1.61-1.92c.38-.37,1.59-.26,2.09-.3l3.19-.25,6.46-.52c.19,0,1.09-.23,1.25-.1l5.86,4.68Z" style="fill:#263238"></path><path d="M365.7,133.47a9.17,9.17,0,0,1-4.45,3.15,16.26,16.26,0,0,0,0-3.84A14.76,14.76,0,0,0,365.7,133.47Z" style="opacity:0.2"></path><polygon points="344.17 261.98 345.28 233.43 346.38 247.55 344.17 261.98" style="opacity:0.30000000000000004"></polygon><path d="M373.08,394.87v4.71H362.44l-.29-4.19Z" style="opacity:0.1"></path><polygon points="356.07 383.44 358.65 397.89 374.47 397.89 376.65 382.75 356.07 383.44" style="fill:#335EEA"></polygon></g></svg>