<?xml version="1.0" encoding="UTF-8" standalone="no"?>
<!DOCTYPE svg PUBLIC "-//W3C//DTD SVG 1.1//EN" "http://www.w3.org/Graphics/SVG/1.1/DTD/svg11.dtd">
<svg width="100%" height="100%" viewBox="0 0 2875 1875" version="1.1" xmlns="http://www.w3.org/2000/svg" xmlns:xlink="http://www.w3.org/1999/xlink" xml:space="preserve" xmlns:serif="http://www.serif.com/" style="fill-rule:evenodd;clip-rule:evenodd;stroke-miterlimit:10;">
    <g transform="matrix(1,0,0,1,-33454.7,-46313.2)">
        <g id="Sponsors">
        </g>
        <g id="Cloud-Hero-image" serif:id="Cloud Hero image" transform="matrix(0.927641,0,0,0.964193,29012.5,37513.7)">
            <rect x="4788.66" y="9126.27" width="3099.26" height="1944.63" style="fill:none;"/>
            <g id="Eyes" transform="matrix(0.35659,0,0,0.273386,4346.41,7352.31)">
                <g transform="matrix(2.05322,0,0,2.57659,6071.55,10068.6)">
                    <path d="M0,71.376C-13.377,81.529 -26.755,91.682 -40.132,101.835C-54.244,112.545 -68.606,123.396 -85.16,129.707C-101.714,136.018 -121.061,137.274 -136.686,128.924C-145.825,124.041 -153.043,116.294 -160.08,108.689C-181.786,85.233 -203.491,61.777 -225.197,38.32C-234.681,28.071 -235.118,12.445 -226.355,1.572C-208.488,-20.597 -182.105,-36.271 -156.903,-50.688C-143.821,-58.171 -129.755,-65.898 -114.714,-64.951C-97.812,-63.886 -83.233,-52.026 -69.596,-43.513C-55.296,-34.587 -41.286,-25.187 -28.206,-14.553C-14.644,-3.528 2.251,6.507 11.427,22.28C18.036,33.641 19.816,48.773 12.421,59.638C9.201,64.37 4.559,67.916 0,71.376" style="fill:rgb(36,40,48);fill-rule:nonzero;"/>
                </g>
                <g transform="matrix(2.05322,0,0,2.57659,6071.55,10068.6)">
                    <path d="M0,71.376C-13.377,81.529 -26.755,91.682 -40.132,101.835C-54.244,112.545 -68.606,123.396 -85.16,129.707C-101.714,136.018 -121.061,137.274 -136.686,128.924C-145.825,124.041 -153.043,116.294 -160.08,108.689C-181.786,85.233 -203.491,61.777 -225.197,38.32C-234.681,28.071 -235.118,12.445 -226.355,1.572C-208.488,-20.597 -182.105,-36.271 -156.903,-50.688C-143.821,-58.171 -129.755,-65.898 -114.714,-64.951C-97.812,-63.886 -83.233,-52.026 -69.596,-43.513C-55.296,-34.587 -41.286,-25.187 -28.206,-14.553C-14.644,-3.528 2.251,6.507 11.427,22.28C18.036,33.641 19.816,48.773 12.421,59.638C9.201,64.37 4.559,67.916 0,71.376Z" style="fill:none;fill-rule:nonzero;stroke:rgb(36,40,48);stroke-width:6.13px;"/>
                </g>
                <g transform="matrix(2.05322,0,0,2.57659,5097.22,10068.6)">
                    <path d="M0,71.376C13.377,81.529 26.755,91.682 40.132,101.835C54.244,112.545 68.606,123.396 85.16,129.707C101.714,136.018 121.061,137.274 136.686,128.924C145.825,124.041 153.043,116.294 160.08,108.689L225.197,38.32C234.681,28.071 235.118,12.445 226.355,1.572C208.488,-20.597 182.105,-36.271 156.903,-50.688C143.821,-58.171 129.755,-65.898 114.714,-64.951C97.812,-63.886 83.233,-52.026 69.596,-43.513C55.296,-34.587 41.286,-25.187 28.206,-14.553C14.644,-3.528 -2.251,6.507 -11.427,22.28C-18.036,33.641 -19.816,48.773 -12.421,59.638C-9.201,64.37 -4.559,67.916 0,71.376" style="fill:rgb(36,40,48);fill-rule:nonzero;"/>
                </g>
                <g transform="matrix(2.05322,0,0,2.57659,5097.22,10068.6)">
                    <path d="M0,71.376C13.377,81.529 26.755,91.682 40.132,101.835C54.244,112.545 68.606,123.396 85.16,129.707C101.714,136.018 121.061,137.274 136.686,128.924C145.825,124.041 153.043,116.294 160.08,108.689L225.197,38.32C234.681,28.071 235.118,12.445 226.355,1.572C208.488,-20.597 182.105,-36.271 156.903,-50.688C143.821,-58.171 129.755,-65.898 114.714,-64.951C97.812,-63.886 83.233,-52.026 69.596,-43.513C55.296,-34.587 41.286,-25.187 28.206,-14.553C14.644,-3.528 -2.251,6.507 -11.427,22.28C-18.036,33.641 -19.816,48.773 -12.421,59.638C-9.201,64.37 -4.559,67.916 0,71.376Z" style="fill:none;fill-rule:nonzero;stroke:rgb(36,40,48);stroke-width:6.13px;"/>
                </g>
                <g transform="matrix(0,-2.57659,-2.05322,0,5397.77,10031.7)">
                    <path d="M-41.215,-41.215C-63.977,-41.215 -82.43,-22.763 -82.43,0.001C-82.43,22.762 -63.977,41.215 -41.215,41.215C-18.453,41.215 0.001,22.762 0.001,0.001C0.001,-22.763 -18.453,-41.215 -41.215,-41.215" style="fill:white;fill-rule:nonzero;"/>
                </g>
                <g transform="matrix(0,-2.57659,-2.05322,0,5397.77,10031.7)">
                    <ellipse cx="-41.215" cy="0" rx="41.215" ry="41.215" style="fill:none;stroke:white;stroke-width:6.13px;"/>
                </g>
                <g transform="matrix(0,-2.57659,-2.05322,0,5770.99,10031.7)">
                    <path d="M-41.215,-41.215C-63.977,-41.215 -82.43,-22.763 -82.43,0.001C-82.43,22.762 -63.977,41.215 -41.215,41.215C-18.453,41.215 0.001,22.762 0.001,0.001C0.001,-22.763 -18.453,-41.215 -41.215,-41.215" style="fill:white;fill-rule:nonzero;"/>
                </g>
                <g transform="matrix(0,-2.57659,-2.05322,0,5770.99,10031.7)">
                    <ellipse cx="-41.215" cy="0" rx="41.215" ry="41.215" style="fill:none;stroke:white;stroke-width:6.13px;"/>
                </g>
                <g transform="matrix(0,-2.57659,-2.05322,0,5397.21,10104.4)">
                    <path d="M-12.5,-12.5C-19.404,-12.5 -25,-6.904 -25,0C-25,6.904 -19.404,12.5 -12.5,12.5C-5.596,12.5 0,6.904 0,0C0,-6.904 -5.596,-12.5 -12.5,-12.5" style="fill:rgb(36,40,48);fill-rule:nonzero;"/>
                </g>
                <g transform="matrix(0,-2.57659,-2.05322,0,5397.21,10104.4)">
                    <circle cx="-12.5" cy="0" r="12.5" style="fill:none;stroke:rgb(36,40,48);stroke-width:6.13px;"/>
                </g>
                <g transform="matrix(0,-2.57659,-2.05322,0,5771.6,10104.4)">
                    <path d="M-12.5,-12.5C-19.404,-12.5 -25,-6.904 -25,0C-25,6.904 -19.404,12.5 -12.5,12.5C-5.596,12.5 0,6.904 0,0C0,-6.904 -5.596,-12.5 -12.5,-12.5" style="fill:rgb(36,40,48);fill-rule:nonzero;"/>
                </g>
                <g transform="matrix(0,-2.57659,-2.05322,0,5771.6,10104.4)">
                    <circle cx="-12.5" cy="0" r="12.5" style="fill:none;stroke:rgb(36,40,48);stroke-width:6.13px;"/>
                </g>
            </g>
            <g transform="matrix(0.196758,-2.09357e-17,-2.63539e-17,0.113282,3580.89,4744.7)">
                <path d="M16299.4,43529.7L16299.4,43682.3L16117.1,43682.3L16117.1,43529.7L16299.4,43529.7ZM15874,43529.7L15874,43682.3L15509.4,43682.3L15509.4,43529.7L15874,43529.7ZM15266.3,43529.7L15266.3,43682.3L15084,43682.3L15084,43529.7L15266.3,43529.7Z" style="fill:rgb(51,94,234);"/>
            </g>
            <g transform="matrix(0.196808,-1.0245e-16,3.23671e-17,-0.515479,3879.37,32607.5)">
                <path d="M16345,42983.8L16253.8,42983.8L16253.8,43046L16345,43046L16345,42983.8ZM16345,43129L16253.8,43129L16253.8,43253.4L16345,43253.4L16345,43129ZM16345,43336.4L16253.8,43336.4L16253.8,43460.8L16345,43460.8L16345,43336.4ZM16345,43543.8L16253.8,43543.8C16253.8,43543.8 16253.8,43589.2 16253.8,43589.2L16117.1,43589.2L16117.1,43622.8L16345,43622.8L16345,43543.8ZM15874,43622.8L15874,43589.2L15509.4,43589.2L15509.4,43622.8L15874,43622.8ZM15266.3,43622.8L15266.3,43589.2L15084,43589.2L15084,43622.8L15266.3,43622.8Z" style="fill:rgb(51,94,234);"/>
            </g>
            <g transform="matrix(0.26335,-2.71484e-18,-5.84114e-17,-0.00514728,1812.74,10790.3)">
                <path d="M16277.9,42983.8L16299.4,41926.9L16177.9,41926.9L16177.9,45285.1L16299.4,45285.1L16333.5,45285.1L16333.5,42983.8L16277.9,42983.8ZM16015.8,45285.1L16015.8,41926.9L15772.7,41926.9L15772.7,45285.1L16015.8,45285.1ZM15610.7,45285.1L15610.7,41926.9L15367.6,41926.9L15367.6,45285.1L15610.7,45285.1ZM15205.5,45285.1L15205.5,41926.9L15084,41926.9L15084,45285.1L15205.5,45285.1Z" style="fill:rgb(51,94,234);"/>
            </g>
            <g transform="matrix(-0.134788,-5.32351e-17,1.89533e-17,0.262616,7906.27,-1530.95)">
                <path d="M16366,42983.8L16232.8,42983.8L16232.8,43170.5L16366,43170.5L16366,42983.8ZM16366,43419.3L16232.8,43419.3L16232.8,43573.1L15934.8,43573.1L15934.8,43638.9L16366,43638.9L16366,43419.3ZM15448.6,43638.9L15448.6,43573.1L15084,43573.1L15084,43638.9L15448.6,43638.9Z" style="fill:rgb(51,94,234);"/>
            </g>
            <g transform="matrix(1,0,0,1,-66.5,92.3996)">
                <g transform="matrix(0.917918,0,0,1.00485,-24072,-37509)">
                    <path d="M34827.1,46826.2L34827.1,46920.1C34827.1,46931.2 34816.8,46940.2 34804.1,46940.2L33714.8,46940.2C33702.1,46940.2 33691.9,46931.2 33691.9,46920.1L33691.9,46826.2C33691.9,46815 33702.1,46806 33714.8,46806L34804.1,46806C34816.8,46806 34827.1,46815 34827.1,46826.2Z" style="fill:rgb(51,94,234);"/>
                </g>
                <g transform="matrix(1.078,0,0,1.03714,-29461.8,-38707.4)">
                    <g transform="matrix(91.6667,0,0,91.6667,34618.4,46603.7)">
                    </g>
                    <text x="33730.2px" y="46603.7px" style="font-family:'OpenSans-Bold', 'Open Sans';font-weight:700;font-size:91.667px;fill:white;">Team collaboration</text>
                </g>
            </g>
            <g transform="matrix(1,0,0,1,-22.5427,240.609)">
                <g transform="matrix(1,0,0,1,64.1831,575.839)">
                    <g transform="matrix(0.904544,0,0,1.00485,-23660.1,-37466.6)">
                        <path d="M34827.1,46826.2L34827.1,46920.1C34827.1,46931.2 34816.6,46940.2 34803.8,46940.2L33715.1,46940.2C33702.3,46940.2 33691.9,46931.2 33691.9,46920.1L33691.9,46826.2C33691.9,46815 33702.3,46806 33715.1,46806L34803.8,46806C34816.6,46806 34827.1,46815 34827.1,46826.2Z" style="fill:rgb(51,94,234);"/>
                    </g>
                    <g transform="matrix(1.078,0,0,1.03714,-29508.6,-38669.6)">
                        <g transform="matrix(91.6667,0,0,91.6667,34612.2,46603.7)">
                        </g>
                        <text x="33730.2px" y="46603.7px" style="font-family:'OpenSans-Bold', 'Open Sans';font-weight:700;font-size:91.667px;fill:white;">Cloud deployments</text>
                    </g>
                </g>
                <g transform="matrix(1.66191,0,0,1.59891,-51982.6,-65692.2)">
                    <circle cx="35418.6" cy="47428.8" r="27.845" style="fill:rgb(55,184,135);stroke:rgb(46,166,120);stroke-width:2.7px;stroke-linecap:square;stroke-linejoin:round;stroke-miterlimit:1.5;"/>
                </g>
            </g>
            <g transform="matrix(1,0,0,1,-1851.32,933.848)">
                <g transform="matrix(0.736339,0,0,1.00485,-18008.1,-37465.2)">
                    <path d="M34827.1,46826.2L34827.1,46920.1C34827.1,46931.2 34814.3,46940.2 34798.5,46940.2L33720.4,46940.2C33704.7,46940.2 33691.9,46931.2 33691.9,46920.1L33691.9,46826.2C33691.9,46815 33704.7,46806 33720.4,46806L34798.5,46806C34814.3,46806 34827.1,46815 34827.1,46826.2Z" style="fill:rgb(51,94,234);"/>
                </g>
                <g transform="matrix(1.078,0,0,1.03714,-29505,-38668)">
                    <text x="33730.2px" y="46603.7px" style="font-family:'OpenSans-Bold', 'Open Sans';font-weight:700;font-size:100px;fill:white;">AI assist</text>
                    <g transform="matrix(100,0,0,100,34402.1,46603.7)">
                    </g>
                    <text x="34141.7px" y="46603.7px" style="font-family:'OpenSans-Bold', 'Open Sans';font-weight:700;font-size:100px;fill:rgb(205,205,205);">ants_</text>
                </g>
            </g>
            <g transform="matrix(1,0,0,1,-2085.83,209.834)">
                <g transform="matrix(0.987615,0,0,1.00485,-26396.3,-37604.1)">
                    <path d="M34827.1,46826.2L34827.1,46920.1C34827.1,46931.2 34817.5,46940.2 34805.8,46940.2L33713.2,46940.2C33701.4,46940.2 33691.9,46931.2 33691.9,46920.1L33691.9,46826.2C33691.9,46815 33701.4,46806 33713.2,46806L34805.8,46806C34817.5,46806 34827.1,46815 34827.1,46826.2Z" style="fill:rgb(51,94,234);"/>
                </g>
                <g transform="matrix(1.078,0,0,1.03714,-29450.8,-38808.2)">
                    <text x="33730.2px" y="46603.7px" style="font-family:'OpenSans-Bold', 'Open Sans';font-weight:700;font-size:91.667px;fill:white;">Data</text>
                    <g transform="matrix(1,0,0,1.05,-1.30967e-10,-2330.18)">
                        <g transform="matrix(91.6667,0,0,91.6667,34709.2,46603.7)">
                        </g>
                        <text x="33972.4px" y="46603.7px" style="font-family:'OpenSans-Bold', 'Open Sans';font-weight:700;font-size:91.667px;fill:white;">synchronization</text>
                    </g>
                </g>
            </g>
            <g transform="matrix(0.738893,0,0,0.710883,-19078.2,-23423)">
                <path d="M34360.7,46520.9L34359.4,46496.6C34372,46496 34384.6,46495.6 34397.3,46495.6C34410,46495.6 34422.6,46496 34435.1,46496.6L34433.8,46520.9C34421.7,46520.3 34409.5,46520 34397.3,46520C34385,46520 34372.8,46520.3 34360.7,46520.9ZM34482.3,46525.2L34485.3,46501.1C34510.6,46504.3 34535.4,46508.8 34559.8,46514.6L34554.2,46538.2C34530.7,46532.6 34506.7,46528.3 34482.3,46525.2ZM34601.1,46551.2L34608.5,46528C34632.7,46535.6 34656.3,46544.5 34679.3,46554.6L34669.5,46576.9C34647.3,46567.1 34624.5,46558.5 34601.1,46551.2ZM34713.4,46598L34724.7,46576.5C34747.1,46588.4 34768.8,46601.3 34789.6,46615.4L34776,46635.6C34755.9,46622 34735,46609.4 34713.4,46598ZM34815.4,46664.2L34830.4,46645.1C34850.3,46660.7 34869.3,46677.3 34887.4,46694.9L34870.4,46712.3C34852.9,46695.3 34834.6,46679.3 34815.4,46664.2ZM34904.1,46747.5L34922.2,46731.4C34939,46750.2 34954.8,46769.9 34969.4,46790.5L34949.7,46804.6C34935.5,46784.8 34920.2,46765.7 34904.1,46747.5ZM34976.5,46845.2L34997.3,46832.6C35010.4,46854 35022.4,46876.2 35033.2,46899.1L35011.2,46909.5C35000.8,46887.4 34989.2,46866 34976.5,46845.2ZM35030.4,46954.3L35053.1,46945.5C35062.1,46968.9 35069.9,46993 35076.5,47017.5L35053,47023.7C35046.7,47000.1 35039.1,46976.9 35030.4,46954.3ZM35063.8,47071.2L35087.7,47066.7C35092.3,47091.3 35095.7,47116.3 35097.8,47141.7L35073.5,47143.6C35071.6,47119.1 35068.3,47094.9 35063.8,47071.2ZM35075.7,47192.3L35100,47192.1C35100,47194.2 35100,47196.3 35100,47198.4C35100,47221.8 35098.9,47244.9 35096.6,47267.6L35072.4,47265.3C35074.6,47243.3 35075.7,47221 35075.7,47198.4C35075.7,47196.3 35075.7,47194.3 35075.7,47192.3ZM35065.9,47313.5L35089.9,47317.7C35085.6,47342.7 35080,47367.3 35073.1,47391.4L35049.7,47384.8C35056.4,47361.5 35061.8,47337.7 35065.9,47313.5ZM35034.7,47431.1L35057.5,47439.4C35048.8,47463.2 35038.9,47486.4 35027.7,47509L35005.9,47498.2C35016.7,47476.5 35026.3,47454.1 35034.7,47431.1ZM34982.8,47541.1L35003.8,47553.4C34991,47575.2 34977,47596.2 34962,47616.5L34942.5,47602C34957,47582.5 34970.4,47562.1 34982.8,47541.1ZM34912.1,47640L34930.5,47655.9C34914.1,47675 34896.6,47693.3 34878.2,47710.6L34861.6,47692.8C34879.3,47676.2 34896.2,47658.5 34912.1,47640ZM34824.9,47724.9L34840.3,47743.8C34820.7,47759.7 34800.3,47774.5 34779.1,47788.3L34765.9,47767.9C34786.3,47754.6 34806,47740.3 34824.9,47724.9ZM34724.1,47792.9L34735.8,47814.2C34713.8,47826.4 34691.1,47837.4 34667.7,47847.1L34658.3,47824.7C34680.9,47815.3 34702.8,47804.7 34724.1,47792.9ZM34612.7,47841.8L34620.4,47864.9C34596.7,47872.9 34572.3,47879.6 34547.5,47885L34542.3,47861.2C34566.3,47856 34589.8,47849.5 34612.7,47841.8ZM34494.4,47869.9L34497.8,47894C34473.1,47897.5 34448,47899.8 34422.5,47900.7L34421.6,47876.4C34446.2,47875.5 34470.5,47873.3 34494.4,47869.9ZM34372.9,47876.4L34372.1,47900.7C34346.6,47899.8 34321.4,47897.5 34296.7,47894L34300.2,47869.9C34324,47873.3 34348.3,47875.5 34372.9,47876.4ZM34252.2,47861.2L34247,47885C34222.2,47879.6 34197.9,47872.9 34174.1,47864.9L34181.8,47841.8C34204.8,47849.5 34228.3,47856 34252.2,47861.2ZM34136.2,47824.7L34126.9,47847.1C34103.5,47837.4 34080.7,47826.4 34058.7,47814.2L34070.5,47792.9C34091.7,47804.7 34113.7,47815.3 34136.2,47824.7ZM34028.7,47767.9L34015.4,47788.3C33994.2,47774.5 33973.8,47759.7 33954.3,47743.8L33969.6,47724.9C33988.5,47740.3 34008.2,47754.6 34028.7,47767.9ZM33932.9,47692.8L33916.3,47710.6C33897.9,47693.3 33880.5,47675 33864,47655.9L33882.5,47640C33898.3,47658.5 33915.2,47676.2 33932.9,47692.8ZM33852.1,47602L33832.5,47616.5C33817.5,47596.2 33803.6,47575.2 33790.8,47553.4L33811.7,47541.1C33824.1,47562.1 33837.6,47582.5 33852.1,47602ZM33788.6,47498.2L33766.8,47509C33755.7,47486.4 33745.7,47463.2 33737,47439.4L33759.9,47431.1C33768.3,47454.1 33777.9,47476.5 33788.6,47498.2ZM33744.8,47384.8L33721.4,47391.4C33714.5,47367.3 33708.9,47342.7 33704.6,47317.7L33728.6,47313.5C33732.7,47337.7 33738.2,47361.5 33744.8,47384.8ZM33722.1,47265.3L33697.9,47267.6C33695.7,47244.9 33694.5,47221.8 33694.5,47198.4C33694.5,47196.3 33694.5,47194.2 33694.6,47192.1L33718.9,47192.3C33718.8,47194.3 33718.8,47196.3 33718.8,47198.4C33718.8,47221 33719.9,47243.3 33722.1,47265.3ZM33721,47143.6L33696.8,47141.7C33698.8,47116.3 33702.2,47091.3 33706.9,47066.7L33730.8,47071.2C33726.3,47094.9 33723,47119.1 33721,47143.6ZM33741.6,47023.7L33718.1,47017.5C33724.6,46993 33732.4,46968.9 33741.5,46945.5L33764.1,46954.3C33755.4,46976.9 33747.9,47000.1 33741.6,47023.7ZM33783.3,46909.5L33761.3,46899.1C33772.1,46876.2 33784.1,46854 33797.3,46832.6L33818,46845.2C33805.3,46866 33793.8,46887.4 33783.3,46909.5ZM33844.9,46804.6L33825.1,46790.5C33839.8,46769.9 33855.6,46750.2 33872.3,46731.4L33890.5,46747.5C33874.3,46765.7 33859.1,46784.8 33844.9,46804.6ZM33924.1,46712.3L33907.2,46694.9C33925.3,46677.3 33944.3,46660.7 33964.1,46645.1L33979.1,46664.2C33960,46679.3 33941.6,46695.3 33924.1,46712.3ZM34018.5,46635.6L34004.9,46615.4C34025.8,46601.3 34047.4,46588.4 34069.8,46576.5L34081.2,46598C34059.6,46609.4 34038.7,46622 34018.5,46635.6ZM34125,46576.9L34115.3,46554.6C34138.3,46544.5 34161.9,46535.6 34186.1,46528L34193.4,46551.2C34170,46558.5 34147.2,46567.1 34125,46576.9ZM34240.3,46538.2L34234.7,46514.6C34259.1,46508.8 34283.9,46504.3 34309.2,46501.1L34312.2,46525.2C34287.8,46528.3 34263.9,46532.6 34240.3,46538.2Z" style="fill:rgb(51,94,234);"/>
            </g>
            <g transform="matrix(1.15323,0,0,1.15323,-369.528,-1145.93)">
                <g transform="matrix(1.078,0,0,1.03714,-31275.6,-38906.9)">
                    <circle cx="34577.6" cy="46568.3" r="30.35" style="fill:rgb(51,94,234);"/>
                </g>
                <g transform="matrix(1.078,0,0,1.03714,-31262.1,-38915.5)">
                    <g transform="matrix(62.5,0,0,62.5,34582.9,46598.7)">
                    </g>
                    <text x="34547.2px" y="46598.7px" style="font-family:'OpenSans-Bold', 'Open Sans';font-weight:700;font-size:62.5px;fill:white;">+</text>
                </g>
            </g>
            <g transform="matrix(1.15323,0,0,1.15323,-813.131,-264.984)">
                <g transform="matrix(1.078,0,0,1.03714,-31275.6,-38906.9)">
                    <circle cx="34577.6" cy="46568.3" r="30.35" style="fill:rgb(51,94,234);"/>
                </g>
                <g transform="matrix(1.078,0,0,1.03714,-31262.1,-38915.5)">
                    <g transform="matrix(62.5,0,0,62.5,34582.9,46598.7)">
                    </g>
                    <text x="34547.2px" y="46598.7px" style="font-family:'OpenSans-Bold', 'Open Sans';font-weight:700;font-size:62.5px;fill:white;">+</text>
                </g>
            </g>
            <g transform="matrix(1.15323,0,0,1.15323,-1039.68,-909.068)">
                <g transform="matrix(1.078,0,0,1.03714,-31275.6,-38906.9)">
                    <circle cx="34577.6" cy="46568.3" r="30.35" style="fill:rgb(51,94,234);"/>
                </g>
                <g transform="matrix(1.078,0,0,1.03714,-31262.1,-38915.5)">
                    <g transform="matrix(62.5,0,0,62.5,34582.9,46598.7)">
                    </g>
                    <text x="34547.2px" y="46598.7px" style="font-family:'OpenSans-Bold', 'Open Sans';font-weight:700;font-size:62.5px;fill:white;">+</text>
                </g>
            </g>
            <g transform="matrix(1.15323,0,0,1.15323,-68.5131,-700.264)">
                <g transform="matrix(1.078,0,0,1.03714,-31275.6,-38906.9)">
                    <circle cx="34577.6" cy="46568.3" r="30.35" style="fill:rgb(51,94,234);"/>
                </g>
                <g transform="matrix(1.078,0,0,1.03714,-31262.1,-38915.5)">
                    <g transform="matrix(62.5,0,0,62.5,34582.9,46598.7)">
                    </g>
                    <text x="34547.2px" y="46598.7px" style="font-family:'OpenSans-Bold', 'Open Sans';font-weight:700;font-size:62.5px;fill:white;">+</text>
                </g>
            </g>
            <g id="arrow-sync-circle-svgrepo-com.svg" transform="matrix(0.257557,-0.124754,0.129669,0.247794,5708.24,9838.78)">
                <g transform="matrix(1,0,0,1,-400,-400)">
                    <g id="ðŸ”-System-Icons">
                        <g id="ic_fluent_arrow_sync_circle_24_regular">
                            <path id="ðŸŽ¨-Color" d="M558.333,400C570.989,400 581.45,409.406 583.105,421.608L583.333,425L583.333,525C583.333,538.807 572.14,550 558.333,550C545.677,550 535.217,540.594 533.562,528.392L533.333,525L533.333,500C502.937,540.477 454.54,566.667 399.997,566.667C349.16,566.667 303.196,543.867 272.619,507.9C263.676,497.38 264.954,481.603 275.473,472.66C285.993,463.717 301.77,464.997 310.713,475.517C332.107,500.68 364.31,516.667 399.997,516.667C444.184,516.667 482.677,492.086 502.475,455.821L505.443,450L466.667,450C452.86,450 441.667,438.807 441.667,425C441.667,412.344 451.072,401.884 463.274,400.228L466.667,400L558.333,400ZM399.997,233.333C451.227,233.333 496.803,255.345 527.56,292.354C536.383,302.973 534.93,318.735 524.313,327.56C513.693,336.387 497.93,334.93 489.107,324.313C467.893,298.787 436.433,283.333 399.997,283.333C352.514,283.333 311.632,311.713 293.427,352.434L290.983,358.333L333.333,358.333C347.14,358.333 358.333,369.527 358.333,383.333C358.333,395.989 348.928,406.45 336.726,408.105L333.333,408.333L241.667,408.333C229.01,408.333 218.55,398.928 216.895,386.726L216.667,383.333L216.667,275C216.667,261.193 227.86,250 241.667,250C254.323,250 264.783,259.405 266.438,271.608L266.667,275L266.667,299.985C297.07,259.51 345.467,233.333 399.997,233.333Z" style="fill:rgb(0,169,246);fill-rule:nonzero;"/>
                        </g>
                    </g>
                </g>
            </g>
            <g transform="matrix(1.40479,0,0,1.40479,-2893.09,-3849.39)">
                <g id="avatar-svgrepo-com.svg" transform="matrix(0.48013,0,0,0.461929,7571.46,9579.43)">
                    <g transform="matrix(1,0,0,1,-72.3865,-72.3865)">
                        <g>
                            <circle cx="72.387" cy="72.386" r="72.386" style="fill:rgb(166,217,234);"/>
                            <g>
                                <g>
                                    <clipPath id="_clip1">
                                        <circle cx="72.387" cy="72.386" r="72.386"/>
                                    </clipPath>
                                    <g clip-path="url(#_clip1)">
                                        <path d="M73.415,33.032C73.415,33.032 63.286,30.649 54.649,37.201C46.012,43.754 50.598,53.078 42.258,60.524C33.92,67.97 35.11,74.67 39.727,82.86C44.342,91.05 33.907,94.878 36.85,104.873C39.704,114.561 49.852,119.516 49.852,119.516L95.27,119.516C95.27,119.516 109.915,108.688 110.659,100.796C111.403,92.903 103.167,88.973 105.55,83.463C107.931,77.953 108.103,70.225 102.624,64.183C95.87,56.737 101.101,55.183 96.015,44.889C90.145,33.01 81.6,30.433 73.415,33.032Z" style="fill:rgb(71,27,24);fill-rule:nonzero;"/>
                                        <g>
                                            <path d="M107.053,116.94C102.387,108.107 72.387,102.564 72.387,102.564C72.387,102.564 42.387,108.107 37.721,116.94C34.272,129.198 31.387,144.773 31.387,144.773L113.387,144.773C113.387,144.773 111.438,128.073 107.053,116.94Z" style="fill:rgb(241,201,165);fill-rule:nonzero;"/>
                                            <path d="M72.387,102.564C72.387,102.564 102.387,108.107 107.053,116.94C111.438,128.073 113.387,144.773 113.387,144.773L72.387,144.773L72.387,102.564Z" style="fill:rgb(228,182,146);fill-rule:nonzero;"/>
                                            <rect x="64.219" y="84.606" width="16.334" height="27.336" style="fill:rgb(241,201,165);"/>
                                            <rect x="72.387" y="84.606" width="8.166" height="27.336" style="fill:rgb(228,182,146);"/>
                                            <path d="M64.219,97.273C65.688,101.49 71.617,103.907 75.971,103.907C77.545,103.907 79.079,103.643 80.553,103.16L80.553,84.606L64.219,84.606L64.219,97.273Z" style="fill:rgb(221,172,140);fill-opacity:0.1;fill-rule:nonzero;"/>
                                            <path d="M93.387,67.357C93.387,50.283 83.985,40.574 72.387,40.574C60.789,40.574 51.387,50.283 51.387,67.357C51.387,84.431 60.789,98.274 72.387,98.274C83.985,98.274 93.387,84.432 93.387,67.357Z" style="fill:rgb(241,201,165);fill-rule:nonzero;"/>
                                            <path d="M90.19,79.195C86.383,78.771 83.813,74.412 84.458,69.463C85.095,64.51 88.7,60.833 92.509,61.254C96.314,61.676 98.88,66.033 98.238,70.986C97.598,75.939 93.997,79.613 90.19,79.195Z" style="fill:rgb(228,182,146);fill-rule:nonzero;"/>
                                            <path d="M46.684,70.986C46.041,66.033 48.608,61.675 52.411,61.254C56.221,60.833 59.827,64.51 60.466,69.463C61.109,74.412 58.536,78.772 54.732,79.195C50.924,79.613 47.323,75.939 46.684,70.986Z" style="fill:rgb(241,201,165);fill-rule:nonzero;"/>
                                            <path d="M93.387,67.357C93.387,50.283 83.985,40.574 72.387,40.574L72.387,98.274C83.985,98.274 93.387,84.432 93.387,67.357Z" style="fill:rgb(228,182,146);fill-rule:nonzero;"/>
                                        </g>
                                        <path d="M46.895,144.773L97.774,144.773L97.774,117.205L46.895,117.205L46.895,144.773Z" style="fill:white;fill-rule:nonzero;"/>
                                        <path d="M67.459,144.773L62.715,104.766C52.1,106.432 40.072,112.485 37.721,116.94C34.272,129.198 31.387,144.773 31.387,144.773L67.459,144.773Z" style="fill:rgb(254,57,62);fill-rule:nonzero;"/>
                                        <path d="M79.336,144.773L113.387,144.773C113.387,144.773 111.438,128.073 107.053,116.94C103.225,110.12 88.094,106.426 82.821,104.873L79.336,144.773Z" style="fill:rgb(254,57,62);fill-rule:nonzero;"/>
                                        <path d="M72.334,49.683C72.334,49.683 67.809,59.445 61.434,62.516C51.387,67.358 60.104,74.75 58.934,84.607C57.879,93.5 47.549,97.558 53.575,107.121C43.1,109.184 43.6,103.908 43.6,103.908C43.6,103.908 42.6,76.443 42.35,75.813C42.1,75.183 48.35,58.183 48.35,58.183L57.338,38.933L73.414,35.68L72.334,49.683Z" style="fill:rgb(71,27,24);fill-rule:nonzero;"/>
                                        <path d="M72.334,49.683C72.334,49.683 72.84,57.349 80.553,58.016C88.268,58.683 89.268,64.334 87.768,69.425C86.268,74.516 85.6,77.35 89.768,81.35C93.934,85.35 89.268,100.796 89.268,100.796L104.602,93.499C104.602,93.499 101.331,81.096 103.102,74.183C104.873,67.27 96.934,62.35 94.934,57.35C92.934,52.35 82.893,34.31 74.768,35.68C66.641,37.05 67.459,45.683 67.459,45.683L72.334,49.683Z" style="fill:rgb(71,27,24);fill-rule:nonzero;"/>
                                    </g>
                                </g>
                            </g>
                        </g>
                    </g>
                </g>
                <g id="avatar-svgrepo-com--1-.svg" serif:id="avatar-svgrepo-com (1).svg" transform="matrix(0.48013,0,0,0.461929,7595.43,9579.43)">
                    <g transform="matrix(1,0,0,1,-72.3865,-72.3865)">
                        <g>
                            <circle cx="72.387" cy="72.386" r="72.386" style="fill:rgb(245,192,2);"/>
                            <g>
                                <g>
                                    <clipPath id="_clip2">
                                        <circle cx="72.387" cy="72.386" r="72.386"/>
                                    </clipPath>
                                    <g clip-path="url(#_clip2)">
                                        <g>
                                            <path d="M107.053,116.94C102.387,108.107 72.387,102.564 72.387,102.564C72.387,102.564 42.387,108.107 37.721,116.94C34.272,129.198 31.387,144.773 31.387,144.773L113.387,144.773C113.387,144.773 111.438,128.073 107.053,116.94Z" style="fill:rgb(241,201,165);fill-rule:nonzero;"/>
                                            <path d="M72.387,102.564C72.387,102.564 102.387,108.107 107.053,116.94C111.439,128.073 113.387,144.773 113.387,144.773L72.387,144.773L72.387,102.564Z" style="fill:rgb(228,182,146);fill-rule:nonzero;"/>
                                            <rect x="64.22" y="84.606" width="16.334" height="27.336" style="fill:rgb(241,201,165);"/>
                                            <rect x="72.387" y="84.606" width="8.167" height="27.336" style="fill:rgb(228,182,146);"/>
                                            <path d="M64.22,97.273C65.689,101.49 71.617,103.907 75.971,103.907C77.546,103.907 79.078,103.643 80.554,103.16L80.554,84.606L64.22,84.606L64.22,97.273Z" style="fill:rgb(221,172,140);fill-opacity:0.1;fill-rule:nonzero;"/>
                                            <path d="M93.387,67.357C93.387,50.283 83.985,40.574 72.387,40.574C60.789,40.574 51.387,50.283 51.387,67.357C51.387,90.323 60.789,98.274 72.387,98.274C83.984,98.274 93.387,89.366 93.387,67.357Z" style="fill:rgb(241,201,165);fill-rule:nonzero;"/>
                                            <path d="M90.19,79.197C86.383,78.799 83.813,74.697 84.458,70.041C85.095,65.381 88.7,61.921 92.509,62.317C96.314,62.713 98.88,66.813 98.238,71.473C97.599,76.134 93.997,79.591 90.19,79.197Z" style="fill:rgb(228,182,146);fill-rule:nonzero;"/>
                                            <path d="M46.685,71.474C46.042,66.814 48.609,62.714 52.412,62.318C56.222,61.922 59.828,65.381 60.467,70.042C61.11,74.698 58.537,78.8 54.733,79.198C50.925,79.591 47.323,76.134 46.685,71.474Z" style="fill:rgb(241,201,165);fill-rule:nonzero;"/>
                                            <path d="M93.387,67.357C93.387,50.283 83.985,40.574 72.387,40.574L72.387,98.274C83.984,98.274 93.387,89.366 93.387,67.357Z" style="fill:rgb(228,182,146);fill-rule:nonzero;"/>
                                        </g>
                                        <path d="M91.277,81.668C90.147,84.844 88.236,88.662 84.783,88.662C80.467,88.662 77.38,85.154 72.429,85.154C72.415,85.154 72.402,85.156 72.388,85.156C72.373,85.156 72.36,85.154 72.345,85.154C67.395,85.154 64.309,88.662 59.991,88.662C56.538,88.662 54.628,84.844 53.498,81.668L52.52,75.55L52.52,82.871C52.52,82.871 54.161,91.493 57.31,93.576C59.875,95.855 68.248,99.759 72.343,99.759L72.344,99.759C72.358,99.759 72.372,99.757 72.387,99.757C72.401,99.757 72.415,99.759 72.428,99.759L72.43,99.759C76.526,99.759 84.899,95.856 87.463,93.576C90.612,91.493 92.253,82.871 92.253,82.871L92.253,75.55L91.277,81.668Z" style="fill:rgb(48,48,48);fill-rule:nonzero;"/>
                                        <path d="M62.218,43.841C62.218,43.841 66.118,59.628 87.85,67.614C85.806,64.085 85.435,59.813 85.435,59.813C85.435,59.813 88.964,63.528 94.721,66.5C97.879,60.186 101.594,50.713 93.236,45.513C84.878,40.312 65.004,31.024 62.218,43.841Z" style="fill:rgb(48,48,48);fill-rule:nonzero;"/>
                                        <path d="M54.975,66.314C54.975,66.314 56.588,48.291 63.303,44.304C57.575,41.805 48.846,49.412 49.774,54.055C50.703,58.699 54.975,66.314 54.975,66.314Z" style="fill:rgb(48,48,48);fill-rule:nonzero;"/>
                                        <path d="M107.053,116.94C104.327,111.782 92.971,107.749 83.988,105.284C83.636,111.394 78.586,116.244 72.387,116.244C66.189,116.244 61.138,111.394 60.787,105.284C51.804,107.749 40.447,111.782 37.721,116.94C34.272,129.198 31.387,144.773 31.387,144.773L113.387,144.773C113.387,144.773 111.438,128.073 107.053,116.94Z" style="fill:rgb(251,98,30);fill-rule:nonzero;"/>
                                        <path d="M60.114,108.284C60.486,114.394 65.829,119.244 72.386,119.244C78.944,119.244 84.286,114.394 84.658,108.284C92.891,110.419 102.998,113.733 107.43,117.934C107.306,117.598 107.18,117.266 107.051,116.94C104.325,111.782 92.969,107.749 83.986,105.284C83.634,111.394 78.584,116.244 72.385,116.244C66.187,116.244 61.136,111.394 60.785,105.284C51.802,107.749 40.445,111.782 37.719,116.94C37.638,117.229 37.557,117.522 37.476,117.814C41.976,113.671 51.96,110.398 60.114,108.284Z" style="fill:rgb(229,61,12);fill-opacity:0.2;fill-rule:nonzero;"/>
                                        <path d="M57.37,106.269C58.508,113.549 64.788,119.125 72.387,119.125C79.986,119.125 86.266,113.549 87.404,106.269C86.243,105.917 85.097,105.589 83.988,105.285C83.636,111.395 78.586,116.245 72.387,116.245C66.189,116.245 61.138,111.395 60.787,105.285C59.677,105.589 58.531,105.917 57.37,106.269Z" style="fill:rgb(229,61,12);fill-rule:nonzero;"/>
                                        <path d="M75.804,90.657C75.804,90.657 75.304,88.431 72.387,88.431C69.72,88.431 68.97,90.657 68.97,90.657L75.804,90.657Z" style="fill:white;fill-rule:nonzero;"/>
                                    </g>
                                </g>
                            </g>
                        </g>
                    </g>
                </g>
                <g id="avatar-svgrepo-com--2-.svg" serif:id="avatar-svgrepo-com (2).svg" transform="matrix(0.48013,0,0,0.461929,7619.41,9579.43)">
                    <g transform="matrix(1,0,0,1,-72.3865,-72.3865)">
                        <g>
                            <circle cx="72.387" cy="72.386" r="72.386" style="fill:rgb(18,181,186);"/>
                            <g>
                                <g>
                                    <clipPath id="_clip3">
                                        <circle cx="72.387" cy="72.386" r="72.386"/>
                                    </clipPath>
                                    <g clip-path="url(#_clip3)">
                                        <path d="M106.971,116.94C102.305,108.107 72.305,102.564 72.305,102.564C72.305,102.564 42.305,108.107 37.639,116.94C34.19,129.198 31.305,144.773 31.305,144.773L113.305,144.773C113.305,144.773 111.357,128.073 106.971,116.94Z" style="fill:rgb(241,201,165);fill-rule:nonzero;"/>
                                        <path d="M72.305,102.564C72.305,102.564 102.305,108.107 106.971,116.94C111.357,128.073 113.305,144.773 113.305,144.773L72.305,144.773L72.305,102.564Z" style="fill:rgb(228,182,146);fill-rule:nonzero;"/>
                                        <rect x="64.138" y="84.606" width="16.334" height="27.336" style="fill:rgb(241,201,165);"/>
                                        <rect x="72.305" y="84.606" width="8.167" height="27.336" style="fill:rgb(228,182,146);"/>
                                        <path d="M64.138,97.273C65.607,101.49 71.535,103.907 75.889,103.907C77.464,103.907 78.996,103.643 80.472,103.16L80.472,84.606L64.138,84.606L64.138,97.273Z" style="fill:rgb(221,172,140);fill-opacity:0.1;fill-rule:nonzero;"/>
                                        <path d="M93.305,67.357C93.305,50.283 83.903,40.574 72.305,40.574C60.707,40.574 51.305,50.283 51.305,67.357C51.305,84.431 60.707,98.274 72.305,98.274C83.903,98.274 93.305,84.432 93.305,67.357Z" style="fill:rgb(241,201,165);fill-rule:nonzero;"/>
                                        <path d="M90.109,79.195C86.302,78.771 83.732,74.412 84.377,69.463C85.014,64.51 88.619,60.833 92.428,61.254C96.233,61.676 98.799,66.033 98.157,70.986C97.517,75.939 93.916,79.613 90.109,79.195Z" style="fill:rgb(228,182,146);fill-rule:nonzero;"/>
                                        <path d="M46.603,70.986C45.96,66.033 48.527,61.675 52.329,61.254C56.14,60.833 59.745,64.51 60.384,69.463C61.027,74.412 58.454,78.772 54.65,79.195C50.843,79.613 47.242,75.939 46.603,70.986Z" style="fill:rgb(241,201,165);fill-rule:nonzero;"/>
                                        <path d="M93.305,67.357C93.305,50.283 83.903,40.574 72.305,40.574L72.305,98.274C83.903,98.274 93.305,84.432 93.305,67.357Z" style="fill:rgb(228,182,146);fill-rule:nonzero;"/>
                                        <path d="M62.371,90.815C62.371,90.815 53.314,83.434 55.327,73.708C57.339,63.981 62.371,62.305 62.371,57.942C70.756,68.006 78.138,75.047 91.554,71.359C95.579,73.708 90.548,85.786 84.509,92.158C101.617,82.765 121.407,48.216 80.148,34.797C38.888,21.379 27.15,88.803 62.371,90.815Z" style="fill:rgb(15,48,63);fill-rule:nonzero;"/>
                                        <path d="M72.304,51.159C83.144,51.159 92.149,58.993 93.982,69.307C94.206,68.047 94.329,66.753 94.329,65.43C94.329,53.267 84.469,43.406 72.304,43.406C60.141,43.406 50.281,53.267 50.281,65.43C50.281,66.753 50.404,68.047 50.629,69.307C52.46,58.993 61.464,51.159 72.304,51.159Z" style="fill:rgb(243,100,30);fill-rule:nonzero;"/>
                                        <path d="M56.287,106.577C59.225,108.151 66.094,111.432 72.304,111.432C80.472,111.432 91.149,107.432 91.149,107.432L89.68,107.009C86.339,105.92 83.019,105.015 80.183,104.311C72.065,109.176 64.147,104.387 64.139,104.382C61.756,104.979 59.05,105.715 56.287,106.577Z" style="fill:rgb(250,88,42);fill-rule:nonzero;"/>
                                        <path d="M106.971,116.94C105.393,113.953 100.915,111.344 95.684,109.197C92.796,119.393 83.426,126.867 72.305,126.867C61.184,126.867 51.814,119.393 48.926,109.197C43.695,111.345 39.217,113.953 37.639,116.94C34.19,129.198 31.305,144.773 31.305,144.773L113.305,144.773C113.305,144.773 111.357,128.073 106.971,116.94Z" style="fill:rgb(21,148,163);fill-rule:nonzero;"/>
                                        <path d="M119.941,101.12C115.441,99.516 108.274,103.016 103.566,102.564C98.421,102.07 95.636,105.566 92.472,104.932C86.389,103.713 85.829,105.917 85.829,105.917C85.829,105.917 84.358,102.932 90.442,103.906C96.526,104.881 101.176,101.973 102.566,100.098C104.667,97.264 111.691,97.932 111.691,97.932L108.025,93.681C105.442,93.181 101.608,93.514 99.525,97.098C97.442,100.682 95.525,101.098 89.68,100.431C83.835,99.764 80.183,104.31 80.183,104.31L91.233,107.526C91.233,107.526 93.513,108.148 95.847,108.088C98.181,108.027 100.621,105.624 105.503,105.994C110.732,106.39 115.482,103.848 121.635,106.148L119.941,101.12Z" style="fill:rgb(250,88,42);fill-rule:nonzero;"/>
                                    </g>
                                </g>
                            </g>
                        </g>
                    </g>
                </g>
            </g>
        </g>
    </g>
</svg>
