<?xml version="1.0" encoding="UTF-8" standalone="no"?>
<!DOCTYPE svg PUBLIC "-//W3C//DTD SVG 1.1//EN" "http://www.w3.org/Graphics/SVG/1.1/DTD/svg11.dtd">
<svg width="100%" height="100%" viewBox="0 0 5417 1250" version="1.1" xmlns="http://www.w3.org/2000/svg" xmlns:xlink="http://www.w3.org/1999/xlink" xml:space="preserve" xmlns:serif="http://www.serif.com/" style="fill-rule:evenodd;clip-rule:evenodd;stroke-miterlimit:10;">
    <g transform="matrix(1,0,0,1,-2404.99,-10215.3)">
        <g id="Tutorials">
        </g>
        <g id="Sponsors">
        </g>
        <g id="Blogs">
        </g>
        <g id="Text-logo-eyes-inside" serif:id="Text logo eyes inside" transform="matrix(4.16667,0,0,4.16667,2404.99,10215.3)">
            <rect x="0" y="0" width="1300" height="300" style="fill:none;"/>
            <g id="Layer-1" serif:id="Layer 1">
                <g transform="matrix(1,0,0,1,1039.5,132.136)">
                    <path d="M0,56.231C-10.539,64.23 -21.078,72.228 -31.617,80.227C-42.734,88.665 -54.049,97.213 -67.09,102.185C-80.131,107.157 -95.374,108.147 -107.683,101.569C-114.883,97.721 -120.569,91.618 -126.113,85.627C-143.213,67.148 -160.313,48.668 -177.414,30.189C-184.885,22.115 -185.229,9.804 -178.326,1.239C-164.25,-16.227 -143.465,-28.575 -123.61,-39.933C-113.304,-45.828 -102.223,-51.916 -90.373,-51.169C-77.058,-50.331 -65.573,-40.987 -54.829,-34.28C-43.563,-27.249 -32.525,-19.842 -22.221,-11.465C-11.536,-2.78 1.773,5.126 9.002,17.552C14.209,26.502 15.611,38.424 9.786,46.984C7.249,50.711 3.592,53.505 0,56.231" style="fill:rgb(36,40,48);fill-rule:nonzero;"/>
                </g>
                <g transform="matrix(1,0,0,1,1039.5,132.136)">
                    <path d="M0,56.231C-10.539,64.23 -21.078,72.228 -31.617,80.227C-42.734,88.665 -54.049,97.213 -67.09,102.185C-80.131,107.157 -95.374,108.147 -107.683,101.569C-114.883,97.721 -120.569,91.618 -126.113,85.627C-143.213,67.148 -160.313,48.668 -177.414,30.189C-184.885,22.115 -185.229,9.804 -178.326,1.239C-164.25,-16.227 -143.465,-28.575 -123.61,-39.933C-113.304,-45.828 -102.223,-51.916 -90.373,-51.169C-77.058,-50.331 -65.573,-40.987 -54.829,-34.28C-43.563,-27.249 -32.525,-19.842 -22.221,-11.465C-11.536,-2.78 1.773,5.126 9.002,17.552C14.209,26.502 15.611,38.424 9.786,46.984C7.249,50.711 3.592,53.505 0,56.231Z" style="fill:none;fill-rule:nonzero;stroke:rgb(36,40,48);stroke-width:1px;"/>
                </g>
                <g transform="matrix(1,0,0,1,665.649,132.136)">
                    <path d="M0,56.231C10.539,64.23 21.078,72.228 31.617,80.227C42.734,88.665 54.049,97.213 67.09,102.185C80.131,107.157 95.374,108.147 107.683,101.569C114.883,97.721 120.569,91.618 126.113,85.627C143.213,67.148 160.313,48.668 177.413,30.189C184.885,22.115 185.229,9.804 178.326,1.239C164.25,-16.227 143.465,-28.575 123.61,-39.933C113.304,-45.828 102.223,-51.916 90.373,-51.169C77.058,-50.331 65.573,-40.987 54.829,-34.28C43.563,-27.249 32.525,-19.842 22.221,-11.465C11.536,-2.78 -1.773,5.126 -9.002,17.552C-14.209,26.502 -15.611,38.424 -9.786,46.984C-7.249,50.711 -3.592,53.505 0,56.231" style="fill:rgb(36,40,48);fill-rule:nonzero;"/>
                </g>
                <g transform="matrix(1,0,0,1,665.649,132.136)">
                    <path d="M0,56.231C10.539,64.23 21.078,72.228 31.617,80.227C42.734,88.665 54.049,97.213 67.09,102.185C80.131,107.157 95.374,108.147 107.683,101.569C114.883,97.721 120.569,91.618 126.113,85.627C143.213,67.148 160.313,48.668 177.413,30.189C184.885,22.115 185.229,9.804 178.326,1.239C164.25,-16.227 143.465,-28.575 123.61,-39.933C113.304,-45.828 102.223,-51.916 90.373,-51.169C77.058,-50.331 65.573,-40.987 54.829,-34.28C43.563,-27.249 32.525,-19.842 22.221,-11.465C11.536,-2.78 -1.773,5.126 -9.002,17.552C-14.209,26.502 -15.611,38.424 -9.786,46.984C-7.249,50.711 -3.592,53.505 0,56.231Z" style="fill:none;fill-rule:nonzero;stroke:rgb(36,40,48);stroke-width:1px;"/>
                </g>
                <g transform="matrix(0,-1,-1,0,780.97,120.852)">
                    <path d="M-32.47,-32.47C-50.402,-32.47 -64.939,-17.933 -64.939,-0.001C-64.939,17.932 -50.402,32.47 -32.47,32.47C-14.538,32.47 -0.001,17.932 -0.001,-0.001C-0.001,-17.933 -14.538,-32.47 -32.47,-32.47" style="fill:white;fill-rule:nonzero;"/>
                </g>
                <g transform="matrix(0,-1,-1,0,780.97,120.852)">
                    <ellipse cx="-32.47" cy="0" rx="32.469" ry="32.47" style="fill:none;stroke:white;stroke-width:1px;"/>
                </g>
                <g transform="matrix(0,-1,-1,0,924.175,120.852)">
                    <path d="M-32.47,-32.47C-50.402,-32.47 -64.939,-17.933 -64.939,-0.001C-64.939,17.932 -50.402,32.47 -32.47,32.47C-14.538,32.47 -0.001,17.932 -0.001,-0.001C-0.001,-17.933 -14.538,-32.47 -32.47,-32.47" style="fill:white;fill-rule:nonzero;"/>
                </g>
                <g transform="matrix(0,-1,-1,0,924.175,120.852)">
                    <ellipse cx="-32.47" cy="0" rx="32.469" ry="32.47" style="fill:none;stroke:white;stroke-width:1px;"/>
                </g>
                <g transform="matrix(0,-1,-1,0,780.753,143.088)">
                    <path d="M-9.848,-9.848C-15.287,-9.848 -19.696,-5.438 -19.696,0C-19.696,5.438 -15.287,9.848 -9.848,9.848C-4.408,9.848 0,5.438 0,0C0,-5.438 -4.408,-9.848 -9.848,-9.848" style="fill:rgb(36,40,48);fill-rule:nonzero;"/>
                </g>
                <g transform="matrix(0,-1,-1,0,780.753,143.088)">
                    <ellipse cx="-9.848" cy="0" rx="9.848" ry="9.848" style="fill:none;stroke:rgb(36,40,48);stroke-width:1px;"/>
                </g>
                <g transform="matrix(0,-1,-1,0,924.407,143.088)">
                    <path d="M-9.848,-9.848C-15.287,-9.848 -19.696,-5.438 -19.696,0C-19.696,5.438 -15.287,9.848 -9.848,9.848C-4.408,9.848 0,5.438 0,0C0,-5.438 -4.408,-9.848 -9.848,-9.848" style="fill:rgb(36,40,48);fill-rule:nonzero;"/>
                </g>
                <g transform="matrix(0,-1,-1,0,924.407,143.088)">
                    <ellipse cx="-9.848" cy="0" rx="9.848" ry="9.848" style="fill:none;stroke:rgb(36,40,48);stroke-width:1px;"/>
                </g>
                <g transform="matrix(1,0,0,1,219.003,104.067)">
                    <path d="M0,111.061L-23.277,111.061L-23.277,43.793C-23.277,35.443 -24.855,29.213 -28.012,25.103C-31.168,20.994 -36.1,18.938 -42.807,18.938C-51.75,18.938 -58.309,21.848 -62.484,27.667C-66.66,33.486 -68.747,43.169 -68.747,56.714L-68.747,111.061L-91.926,111.061L-91.926,1.973L-73.777,1.973L-70.522,16.275L-69.339,16.275C-66.315,11.081 -61.926,7.07 -56.172,4.242C-50.418,1.415 -44.089,0 -37.185,0C-20.417,0 -9.306,5.721 -3.847,17.163L-2.269,17.163C0.952,11.771 5.489,7.563 11.343,4.538C17.194,1.514 23.901,0 31.464,0C44.483,0 53.968,3.289 59.92,9.864C65.87,16.44 68.846,26.468 68.846,39.947L68.846,111.061L45.667,111.061L45.667,43.793C45.667,35.443 44.072,29.213 40.883,25.103C37.693,20.994 32.746,18.938 26.039,18.938C17.029,18.938 10.438,21.749 6.264,27.371C2.087,32.993 0,41.623 0,53.262L0,111.061Z" style="fill:rgb(36,40,48);fill-rule:nonzero;"/>
                </g>
                <g transform="matrix(1,0,0,1,337.56,160.782)">
                    <path d="M0,-0.395C0,24.79 9.304,37.381 27.913,37.381C46.323,37.381 55.53,24.79 55.53,-0.395C55.53,-25.315 46.259,-37.777 27.716,-37.777C17.983,-37.777 10.932,-34.554 6.559,-28.111C2.186,-21.666 0,-12.428 0,-0.395M79.399,-0.395C79.399,17.425 74.828,31.333 65.689,41.327C56.549,51.322 43.825,56.319 27.519,56.319C17.325,56.319 8.317,54.018 0.493,49.415C-7.333,44.813 -13.35,38.204 -17.557,29.589C-21.766,20.976 -23.869,10.981 -23.869,-0.395C-23.869,-18.082 -19.332,-31.891 -10.258,-41.821C-1.184,-51.749 11.604,-56.714 28.11,-56.714C43.892,-56.714 56.384,-51.635 65.591,-41.476C74.796,-31.316 79.399,-17.622 79.399,-0.395" style="fill:rgb(36,40,48);fill-rule:nonzero;"/>
                </g>
                <g transform="matrix(1,0,0,1,487.581,104.068)">
                    <path d="M0,113.033C-16.506,113.033 -29.047,108.217 -37.629,98.583C-46.209,88.951 -50.5,75.126 -50.5,57.108C-50.5,38.762 -46.012,24.658 -37.037,14.795C-28.061,4.931 -15.091,0 1.874,0C13.38,0 23.736,2.137 32.943,6.411L25.94,25.053C16.142,21.24 8.054,19.332 1.677,19.332C-17.196,19.332 -26.631,31.858 -26.631,56.911C-26.631,69.141 -24.28,78.331 -19.578,84.479C-14.878,90.628 -7.989,93.701 1.085,93.701C11.407,93.701 21.172,91.137 30.379,86.008L30.379,106.227C26.236,108.661 21.813,110.404 17.113,111.455C12.411,112.506 6.707,113.033 0,113.033" style="fill:rgb(36,40,48);fill-rule:nonzero;"/>
                </g>
                <g transform="matrix(1,0,0,1,565.994,119.257)">
                    <path d="M0,38.269L13.118,21.896L46.062,-13.217L72.791,-13.217L28.899,33.633L75.553,95.871L48.33,95.871L13.315,48.034L0.592,58.489L0.592,95.871L-22.39,95.871L-22.39,-57.602L0.592,-57.602L0.592,17.26L-0.592,38.269L0,38.269Z" style="fill:rgb(36,40,48);fill-rule:nonzero;"/>
                </g>
                <g transform="matrix(1,0,0,1,1172.92,105.053)">
                    <path d="M0,111.061L-23.277,111.061L-23.277,43.991C-23.277,35.575 -24.971,29.294 -28.356,25.152C-31.744,21.009 -37.12,18.938 -44.483,18.938C-54.282,18.938 -61.448,21.832 -65.985,27.618C-70.522,33.405 -72.791,43.103 -72.791,56.714L-72.791,111.061L-95.97,111.061L-95.97,1.973L-77.821,1.973L-74.566,16.275L-73.383,16.275C-70.096,11.081 -65.428,7.07 -59.377,4.242C-53.328,1.415 -46.621,0 -39.256,0C-13.086,0 0,13.316 0,39.947L0,111.061Z" style="fill:rgb(36,40,48);fill-rule:nonzero;"/>
                </g>
            </g>
        </g>
    </g>
</svg>
