<svg xmlns="http://www.w3.org/2000/svg" xml:space="preserve" style="fill-rule:evenodd;clip-rule:evenodd;stroke-linejoin:round;stroke-miterlimit:2" viewBox="0 0 2134 2134"><path d="M0 0h2133.33v2133.33H0z" style="fill:none"/><path d="M2057.28 1218.99c-55.86 42.39-111.71 84.77-167.56 127.16-58.91 44.72-118.88 90.02-187.99 116.37-69.11 26.35-149.89 31.6-215.12-3.26-38.16-20.4-68.29-52.74-97.68-84.49-90.62-97.93-181.24-195.86-271.87-293.79-39.59-42.79-41.41-108.036-4.83-153.426 74.6-92.562 184.75-158.001 289.97-218.193 54.62-31.241 113.34-63.505 176.14-59.546 70.56 4.441 131.43 53.96 188.37 89.504 59.7 37.261 118.2 76.515 172.81 120.909 56.62 46.027 127.15 87.925 165.46 153.772 27.6 47.44 35.03 110.62 4.16 155.98-13.45 19.75-32.83 34.56-51.86 49.01ZM76.057 1218.99c-19.036-14.45-38.416-29.26-51.861-49.01-30.87-45.36-23.44-108.54 4.155-155.98 38.31-65.847 108.842-107.745 165.467-153.772 54.607-44.394 113.103-83.648 172.808-120.909 56.938-35.544 117.803-85.063 188.367-89.504 62.799-3.959 121.524 28.305 176.141 59.546 105.222 60.192 215.373 125.631 289.966 218.193 36.59 45.39 34.76 110.636-4.84 153.426l-271.862 293.79c-29.38 31.75-59.513 64.09-97.67 84.49-65.232 34.86-146.013 29.61-215.125 3.26-69.111-26.35-129.075-71.65-187.99-116.37-55.852-42.39-111.704-84.77-167.556-127.16Z" style="fill:#242830"/><path d="M515.134 1033.27c0-94.23 75.738-170.768 169.662-172.059.803-.011 1.606-.017 2.411-.017h.003c95.031 0 172.071 77.04 172.071 172.076 0 95.03-77.04 172.07-172.071 172.07h-.003c-95.035 0-172.073-77.04-172.073-172.07ZM1274.05 1033.27c0-94.23 75.74-170.768 169.66-172.059.81-.011 1.61-.017 2.41-.017h.01c95.03 0 172.07 77.04 172.07 172.076 0 95.03-77.04 172.07-172.07 172.07h-.01c-95.03 0-172.07-77.04-172.07-172.07Z" style="fill:#fff"/><path d="M635.02 1033.27c0-28.83 23.366-52.195 52.185-52.195h.002c.793 0 1.581.018 2.365.053 27.725 1.238 49.823 24.102 49.823 52.142 0 28.03-22.098 50.89-49.823 52.13-.784.04-1.572.05-2.365.05h-.002c-28.819 0-52.185-23.36-52.185-52.18ZM1393.94 1033.27c0-28.83 23.36-52.195 52.18-52.195.8 0 1.59.018 2.37.053 27.72 1.238 49.82 24.102 49.82 52.142 0 28.03-22.1 50.89-49.82 52.13-.78.04-1.57.05-2.37.05-28.82 0-52.18-23.36-52.18-52.18Z" style="fill:#242830"/><path d="M637.921 1451.9c0 61.38-49.734 111.11-111.111 111.11-61.378 0-111.112-49.73-111.112-111.11s88.889-222.22 111.112-222.22c22.222 0 111.111 160.84 111.111 222.22Z" style="fill:#5dadec;fill-rule:nonzero"/></svg>