<svg xmlns="http://www.w3.org/2000/svg" xml:space="preserve" style="fill-rule:evenodd;clip-rule:evenodd;stroke-linejoin:round;stroke-miterlimit:2" viewBox="0 0 1804 870"><path d="M0 0h1804v869.919H0z" style="fill:none"/><path d="M1741.08 563.979c-47.31 35.907-94.62 71.809-141.93 107.716-49.9 37.877-100.69 76.248-159.23 98.567-58.54 22.319-126.96 26.763-182.22-2.765-32.32-17.273-57.84-44.669-82.73-71.562-76.76-82.95-153.52-165.905-230.283-248.855-33.536-36.244-35.08-91.506-4.093-129.954 63.186-78.403 156.486-133.832 245.616-184.817 46.26-26.462 96-53.79 149.19-50.437 59.77 3.762 111.33 45.706 159.56 75.813 50.57 31.561 100.12 64.811 146.37 102.414 47.97 38.986 107.71 74.475 140.16 130.254 23.37 40.176 29.67 93.693 3.52 132.118-11.39 16.73-27.81 29.272-43.93 41.508ZM62.92 563.979c-16.124-12.236-32.54-24.778-43.929-41.508-26.147-38.425-19.854-91.942 3.52-132.118 32.45-55.779 92.193-91.268 140.156-130.254 46.254-37.603 95.802-70.853 146.374-102.414 48.229-30.107 99.784-72.051 159.554-75.813 53.193-3.353 102.935 23.975 149.197 50.437 89.127 50.985 182.429 106.414 245.614 184.817 30.987 38.448 29.443 93.71-4.098 129.954l-230.28 248.855c-24.887 26.893-50.411 54.289-82.731 71.562-55.253 29.528-123.678 25.084-182.217 2.765-58.54-22.319-109.332-60.69-159.235-98.567-47.308-35.907-94.617-71.809-141.925-107.716Z" style="fill:#242830"/><path d="M434.833 406.667c0-79.812 64.153-144.642 143.71-145.735.679-.01 1.36-.014 2.042-.014h.002c80.495 0 145.75 65.255 145.75 145.749 0 80.495-65.255 145.75-145.75 145.75h-.002c-80.498-.001-145.752-65.255-145.752-145.75ZM1077.66 406.667c0-79.812 64.16-144.642 143.71-145.735.68-.01 1.36-.014 2.04-.014h.01c80.49 0 145.75 65.255 145.75 145.749 0 80.495-65.26 145.75-145.75 145.75h-.01c-80.49-.001-145.75-65.255-145.75-145.75Z" style="fill:#fff"/><path d="M536.381 406.667c0-24.415 19.791-44.206 44.202-44.206h.002c.671 0 1.339.015 2.003.044 23.484 1.049 42.201 20.419 42.201 44.162 0 23.744-18.717 43.114-42.201 44.162-.664.03-1.332.045-2.003.045h-.002c-24.411 0-44.202-19.791-44.202-44.207ZM1179.21 406.667c0-24.415 19.79-44.206 44.2-44.206.68 0 1.34.015 2.01.044 23.48 1.049 42.2 20.419 42.2 44.162 0 23.744-18.72 43.114-42.2 44.162-.67.03-1.33.045-2.01.045-24.41 0-44.2-19.791-44.2-44.207Z" style="fill:#242830"/></svg>