<svg xmlns="http://www.w3.org/2000/svg" xml:space="preserve" style="fill-rule:evenodd;clip-rule:evenodd;stroke-linejoin:round;stroke-miterlimit:2" viewBox="0 0 4620 1015"><path d="M0 0h4620v1014.82H0z" style="fill:none"/><path d="m2392.6 835.276-1.86 5.548-20.47 29.693-27.28 22.542-32.37 14.316-35.71 5.021h-112.99l-30.32-3.6-28.27-10.411-25.1-16.66-16.12-17.305-6.77 10.046-41.12 27.704-50.45 10.226h-95.39l-50.44-10.226-18.96-12.766c-20.39 9.378-41.67 16.55-63.84 21.507l-.01.003c-27.3 6.1-60.36 9.668-99.28 9.668-111.87 0-194.73-38.046-252.89-103.34v-.001c-.41-.46-.82-.921-1.23-1.383l-.35.388c-61.2 66.927-144.82 104.337-254 104.337-67.18 0-126.27-16.202-177.835-46.533-12.257-7.209-23.897-15.105-34.909-23.701l-16.245 24.115-41.127 27.704-50.445 10.226H710.61l-50.444-10.226-41.128-27.704-3.203-4.755-3.203 4.755-41.127 27.704-50.445 10.226h-96.616l-50.445-10.226-41.127-27.704-2.794-4.148-2.795 4.148-41.127 27.704-50.445 10.226h-96.209l-50.445-10.226-41.127-27.704-27.704-41.127L10 782.892V330.1l10.226-50.445 27.704-41.127 41.127-27.704 50.445-10.226h75.331l43.365 7.475 3.691 2.053c32.598-11.669 67.509-17.717 104.827-17.717 58.203 0 106.525 11.129 146.043 31.226 40.659-20.208 86.821-31.226 138.899-31.226 99.354 0 168.697 33.357 214.119 83.534l.022.023c4.592 5.075 9.017 10.414 13.259 16.02 60.338-63.663 142.842-99.574 250.772-99.574 106.44 0 189.44 37.271 251.53 105.786l.01.014c.53.579 1.05 1.16 1.57 1.742 1.12-1.273 2.25-2.536 3.39-3.789 59.82-65.736 144.24-103.753 257.29-103.753 33.42 0 65.16 3.232 95.26 9.517v-56.056l10.23-50.445 27.7-41.127 41.13-27.705 50.44-10.226h95.39l50.45 10.226 41.12 27.705 27.71 41.127 10.22 50.445v70.856l7.78-5.467 51.46-10.662h110.94l37.46 5.536 33.61 15.706 27.77 24.588 19.98 32.171 5.99 22.319c1.18-.949 2.35-1.898 3.52-2.847 46.62-37.905 96.49-71.54 147.45-103.348 60.49-37.759 128.36-83.281 203.32-88.001 72.3-4.555 141.95 26.211 204.83 62.178v.001c70.82 40.515 143.21 84.845 203.44 139.364 60.23-54.52 132.61-98.85 203.44-139.365v-.001c62.88-35.966 132.53-66.732 204.83-62.177 74.96 4.72 142.83 50.242 203.3 87.994 50.98 31.815 100.85 65.45 147.46 103.347 13.95 11.339 28.55 22.648 43.18 34.256l9.85-48.572 27.7-41.127 41.13-27.704 50.45-10.226h75.33l43.36 7.475 5.4 3.003c34.29-12.248 71.36-18.668 111.31-18.668 96.41 0 166.36 31.131 214.57 80.185 47.48 48.316 77.87 118.497 77.87 215.126v295.173l-10.23 50.445-27.7 41.127-41.13 27.704-50.44 10.226h-96.62l-50.44-10.226-41.13-27.704-11.19-16.608-11.18 16.608-41.13 27.704-50.45 10.226h-96.2l-50.45-10.226-41.13-27.704-27.7-41.127-7.56-37.281c-29.2 22.161-58.4 44.321-87.6 66.483-55.18 41.885-112.19 82.94-176.92 107.62-85.95 32.767-186.29 34.527-267.42-8.825v-.001c-41.59-22.228-75.87-55.801-107.89-90.408l-164.67-177.951-164.67 177.951c-32.02 34.607-66.3 68.18-107.89 90.409v.001c-81.13 43.351-181.47 41.591-267.42 8.824-64.73-24.68-121.74-65.735-176.92-107.619-13.78-10.453-27.55-20.905-41.32-31.358Z" style="fill:#fff"/><path d="M234.183 370.232c12.676-16.484 29.107-29.715 49.33-39.655 25.217-12.389 52.946-18.628 83.203-18.628 69.379 0 116.54 22.81 142.197 67.091 13.78-19.704 31.986-35.429 54.655-47.143 25.621-13.242 54.972-19.948 88.09-19.948 57.519 0 99.201 15.17 125.497 44.219l.002.002c26.051 28.791 39.624 72.534 39.624 131.549v295.173c0 5.502-4.46 9.962-9.962 9.962H710.61c-5.501 0-9.961-4.46-9.961-9.962V503.683c0-31.874-5.593-55.78-17.765-71.469-11.506-14.82-29.554-21.736-53.744-21.736-33.654 0-58.491 9.981-74.082 30.98l-.002.003c-16.36 22.019-24.034 55.939-24.034 101.525v239.906c0 5.502-4.46 9.962-9.962 9.962h-96.616c-5.502 0-9.962-4.46-9.962-9.962V503.683c0-31.893-5.534-55.811-17.592-71.509-11.369-14.802-29.348-21.696-53.509-21.696-33.347 0-58.012 10.38-73.58 32.078-16.481 22.964-24.128 61.303-24.128 114.758v225.578c0 5.502-4.46 9.962-9.962 9.962h-96.209c-5.502 0-9.962-4.46-9.962-9.962V330.1c0-5.502 4.46-9.962 9.962-9.962h75.331c4.65 0 8.682 3.217 9.714 7.751l9.636 42.343ZM1352.68 555.678c0 76.887-20.09 136.777-59.52 179.898-39.73 43.443-94.91 65.467-165.78 65.467-44.23 0-83.29-10.063-117.23-30.032-34.159-20.087-60.458-48.903-78.821-86.506-18.086-37.011-27.21-79.943-27.21-128.827 0-76.334 19.942-135.812 59.104-178.668 39.437-43.145 94.877-65.058 166.607-65.058 68.66 0 122.9 22.328 162.96 66.522 39.72 43.85 59.89 102.853 59.89 177.204Zm-329.56 0c0 59.07 12.23 100.687 38.42 124.314 16.84 15.198 39.4 22.521 67.47 22.521 27.73 0 50.01-7.312 66.65-22.486 25.92-23.634 38.02-65.26 38.02-124.349 0-58.4-12.17-99.554-38.25-122.916-16.78-15.041-39.26-22.284-67.24-22.284-36.5 0-63.17 11.589-79.57 35.752-17.25 25.431-25.5 61.969-25.5 109.448ZM1635.85 801.042c-71.85 0-126.28-21.38-163.63-63.313-37.01-41.549-55.95-101.053-55.95-178.777 0-79.114 19.78-139.801 58.48-182.333 38.99-42.849 95.18-64.667 168.87-64.667 49.32 0 93.69 9.217 133.16 27.536 4.72 2.194 6.96 7.661 5.13 12.539l-29.07 77.377c-.94 2.493-2.83 4.506-5.26 5.592a9.9736 9.9736 0 0 1-7.68.189c-39.22-15.265-71.56-23.068-97.09-23.068-28.55 0-51.48 7.298-68.6 22.454-26.54 23.483-38.94 64.854-38.94 123.563 0 48.026 8.76 84.233 27.23 108.375v.003c17.67 23.125 43.72 34.365 77.85 34.365 41.14 0 80.05-10.231 116.74-30.672a9.9714 9.9714 0 0 1 9.9.114c3.04 1.789 4.91 5.057 4.91 8.589v83.923c0 3.532-1.87 6.8-4.91 8.589-18.1 10.63-37.41 18.242-57.94 22.832-20.12 4.496-44.51 6.79-73.2 6.79ZM1970.37 516.571l37.62-46.954c.16-.203.33-.399.51-.588l136.74-145.743c1.88-2.007 4.51-3.146 7.27-3.146h110.94c3.97 0 7.56 2.357 9.14 6 1.58 3.643.84 7.875-1.87 10.772l-176.47 188.362 188.63 251.645c2.27 3.019 2.63 7.057.94 10.431-1.68 3.374-5.13 5.506-8.91 5.506h-112.99c-3.18 0-6.16-1.515-8.04-4.078l-139.11-190.056-41.04 33.718v150.454c0 5.502-4.46 9.962-9.96 9.962h-95.39c-5.5 0-9.96-4.46-9.96-9.962V145.873c0-5.502 4.46-9.962 9.96-9.962h95.39c5.5 0 9.96 4.46 9.96 9.962v310.73c0 .187 0 .374-.01.56l-3.35 59.408ZM4176.99 374.999c13.67-16.844 31.27-30.332 52.83-40.412 26.38-12.328 55.62-18.544 87.74-18.544 57.55 0 100.53 15.151 129.31 44.432 28.72 29.224 43.59 72.891 43.59 131.338v295.173c0 5.502-4.46 9.962-9.96 9.962h-96.62c-5.5 0-9.96-4.46-9.96-9.962V508.598c0-32.054-5.94-56.114-18.83-71.89-12.4-15.156-32.29-22.136-59.23-22.136-37 0-64.28 10.367-81.41 32.213-17.85 22.768-26.12 61.073-26.12 114.623v225.578c0 5.502-4.46 9.962-9.97 9.962h-96.2c-5.51 0-9.97-4.46-9.97-9.962V334.194c0-5.502 4.46-9.962 9.97-9.962h75.33c4.65 0 8.68 3.217 9.71 7.751l9.79 43.016Z" style="fill:#242830;fill-rule:nonzero"/><path d="M3926.68 671.814c-43.74 33.201-87.48 66.399-131.23 99.6-46.14 35.024-93.11 70.504-147.24 91.142-54.13 20.637-117.39 24.746-168.49-2.557-29.88-15.972-53.48-41.304-76.49-66.171-70.98-76.701-141.96-153.406-212.94-230.107-31.01-33.513-32.44-84.612-3.78-120.163 58.42-72.496 144.69-123.749 227.11-170.893 42.77-24.468 88.77-49.737 137.95-46.637 55.27 3.478 102.94 42.263 147.54 70.101 46.76 29.184 92.57 59.928 135.34 94.699 44.35 36.049 99.59 68.864 129.6 120.441 21.61 37.149 27.43 86.633 3.25 122.163-10.53 15.47-25.71 27.067-40.62 38.382ZM2374.95 671.814c-14.9-11.315-30.08-22.912-40.61-38.382-24.18-35.53-18.36-85.014 3.25-122.163 30.01-51.577 85.25-84.392 129.6-120.441 42.77-34.771 88.58-65.515 135.34-94.699 44.6-27.838 92.27-66.623 147.54-70.101 49.18-3.1 95.18 22.169 137.95 46.637 82.42 47.144 168.69 98.397 227.11 170.893 28.66 35.551 27.23 86.65-3.79 120.163l-212.93 230.107c-23.01 24.867-46.61 50.199-76.5 66.171-51.09 27.303-114.36 23.194-168.48 2.557-54.13-20.638-101.1-56.118-147.24-91.142-43.75-33.201-87.49-66.399-131.24-99.6Z" style="fill:#242830"/><path d="M2718.85 526.354c0-73.8 59.32-133.745 132.88-134.757.63-.008 1.26-.013 1.89-.013 74.43 0 134.77 60.339 134.77 134.77 0 74.43-60.34 134.769-134.77 134.769-74.43-.001-134.77-60.339-134.77-134.769ZM3313.25 526.354c0-73.8 59.32-133.745 132.88-134.757.63-.008 1.26-.013 1.89-.013 74.43 0 134.77 60.339 134.77 134.77 0 74.43-60.34 134.769-134.77 134.769-74.43-.001-134.77-60.339-134.77-134.769Z" style="fill:#fff"/><path d="M2812.74 526.354c0-22.576 18.31-40.876 40.88-40.876.62 0 1.24.013 1.85.041 21.72.969 39.02 18.88 39.02 40.835 0 21.954-17.3 39.865-39.02 40.835-.61.027-1.23.041-1.85.041-22.57 0-40.88-18.301-40.88-40.876ZM3407.14 526.354c0-22.576 18.31-40.876 40.88-40.876.62 0 1.24.013 1.85.041 21.72.969 39.02 18.88 39.02 40.835 0 21.954-17.3 39.865-39.02 40.835-.61.027-1.23.041-1.85.041-22.57 0-40.88-18.301-40.88-40.876Z" style="fill:#242830"/></svg>