<svg xmlns="http://www.w3.org/2000/svg" xml:space="preserve" style="fill-rule:evenodd;clip-rule:evenodd;stroke-linejoin:round;stroke-miterlimit:2" viewBox="0 0 4620 1015">

  <path d="M120.38 362.526c13.37-17.387 30.702-31.344 52.034-41.829 26.599-13.068 55.849-19.649 87.764-19.649 73.183 0 122.93 24.06 149.993 70.768 14.536-20.784 33.74-37.371 57.651-49.727 27.026-13.968 57.987-21.041 92.92-21.041 60.672 0 104.639 16.001 132.378 46.643l.001.002c27.479 30.37 41.797 76.511 41.797 138.761V797.81c0 5.803-4.705 10.507-10.508 10.507H622.926c-5.803 0-10.508-4.704-10.508-10.507V503.293c0-33.621-5.898-58.838-18.738-75.387-12.137-15.633-31.174-22.927-56.69-22.927-35.499 0-61.698 10.527-78.144 32.678l-.002.003c-17.257 23.226-25.352 59.006-25.352 107.09v253.06c0 5.803-4.705 10.507-10.508 10.507H321.071c-5.803 0-10.508-4.704-10.508-10.507V503.293c0-33.641-5.837-58.871-18.556-75.429-11.993-15.614-30.957-22.885-56.443-22.885-35.175 0-61.193 10.948-77.614 33.836-17.384 24.223-25.451 64.664-25.451 121.049V797.81c0 5.803-4.704 10.507-10.507 10.507H20.508c-5.803 0-10.508-4.704-10.508-10.507V320.194c0-5.804 4.705-10.508 10.508-10.508h79.461c4.905 0 9.157 3.393 10.246 8.176l10.165 44.664Zm1179.81 195.612c0 81.103-21.18 144.276-62.78 189.761-41.9 45.825-100.11 69.056-174.87 69.056-46.65 0-87.848-10.614-123.652-31.678-36.032-21.189-63.772-51.584-83.142-91.249-19.078-39.04-28.702-84.325-28.702-135.89 0-80.518 21.035-143.257 62.344-188.463 41.595-45.51 100.078-68.624 175.742-68.624 72.42 0 129.64 23.552 171.89 70.168 41.9 46.255 63.17 108.492 63.17 186.919Zm-347.626 0c0 62.31 12.903 106.208 40.526 131.13 17.77 16.032 41.56 23.756 71.18 23.756 29.25 0 52.75-7.714 70.3-23.719 27.34-24.929 40.1-68.838 40.1-131.167 0-61.601-12.84-105.011-40.34-129.654-17.71-15.866-41.41-23.506-70.93-23.506-38.5 0-66.632 12.224-83.932 37.713-18.2 26.824-26.904 65.366-26.904 115.447Zm646.326 258.816c-75.79 0-133.2-22.551-172.6-66.784-39.04-43.827-59.01-106.593-59.01-188.578 0-83.451 20.85-147.465 61.68-192.329 41.13-45.198 100.4-68.212 178.13-68.212 52.02 0 98.83 9.722 140.45 29.046 4.99 2.314 7.35 8.08 5.41 13.226l-30.66 81.619c-.98 2.629-2.98 4.753-5.55 5.899-2.56 1.145-5.48 1.217-8.09.199-41.38-16.102-75.49-24.333-102.42-24.333-30.11 0-54.3 7.698-72.36 23.685-27.99 24.771-41.07 68.41-41.07 130.338 0 50.658 9.24 88.85 28.72 114.316v.003c18.64 24.393 46.12 36.249 82.12 36.249 43.39 0 84.44-10.792 123.14-32.353 3.25-1.813 7.23-1.768 10.44.12 3.21 1.887 5.18 5.334 5.18 9.059v88.524c0 3.726-1.97 7.173-5.18 9.06-19.09 11.213-39.46 19.243-61.12 24.084-21.21 4.743-46.95 7.162-77.21 7.162Zm352.86-300.066 39.68-49.529c.17-.213.35-.42.54-.619l144.24-153.734c1.98-2.117 4.76-3.318 7.66-3.318h117.03c4.19 0 7.97 2.486 9.64 6.329 1.66 3.842.89 8.306-1.97 11.363l-186.15 198.688 198.98 265.441c2.38 3.184 2.77 7.444.99 11.003s-5.42 5.807-9.4 5.807H2153.8c-3.35 0-6.5-1.598-8.48-4.301l-146.74-200.475-43.28 35.566v158.702c0 5.804-4.71 10.508-10.51 10.508h-100.62c-5.8 0-10.51-4.704-10.51-10.508V125.866c0-5.803 4.71-10.508 10.51-10.508h100.62c5.8 0 10.51 4.705 10.51 10.508v327.766c0 .197-.01.394-.02.591l-3.53 62.665Zm2327.59-149.334c14.42-17.767 32.98-31.994 55.73-42.627 27.83-13.004 58.67-19.561 92.55-19.561 60.7 0 106.04 15.981 136.4 46.868 30.29 30.826 45.98 76.887 45.98 138.538v311.356c0 5.803-4.7 10.508-10.51 10.508h-101.91c-5.8 0-10.51-4.705-10.51-10.508v-293.65c0-33.812-6.26-59.19-19.86-75.832-13.08-15.987-34.06-23.349-62.48-23.349-39.02 0-67.8 10.935-85.87 33.979-18.83 24.016-27.56 64.421-27.56 120.906v237.946c0 5.803-4.7 10.508-10.51 10.508h-101.48c-5.8 0-10.51-4.705-10.51-10.508V324.512c0-5.803 4.71-10.508 10.51-10.508h79.46c4.91 0 9.16 3.394 10.25 8.176l10.32 45.374Z" style="fill:#242830;fill-rule:nonzero"/>
  <path d="M4015.32 680.642c-46.15 35.021-92.29 70.039-138.43 105.06-48.67 36.944-98.21 74.37-155.31 96.138-57.1 21.769-123.84 26.104-177.73-2.697-31.52-16.847-56.42-43.568-80.69-69.798-74.87-80.906-149.74-161.816-224.61-242.722-32.71-35.35-34.21-89.251-3.99-126.751 61.63-76.471 152.63-130.533 239.56-180.262 45.12-25.81 93.64-52.464 145.52-49.194 58.3 3.669 108.58 44.58 155.62 73.945 49.33 30.783 97.65 63.213 142.77 99.89 46.78 38.025 105.05 72.64 136.7 127.044 22.8 39.185 28.93 91.383 3.43 128.861-11.11 16.318-27.12 28.55-42.84 40.486Zm-1636.81 0c-15.72-11.936-31.73-24.168-42.84-40.486-25.5-37.478-19.37-89.676 3.43-128.861 31.65-54.404 89.92-89.019 136.7-127.044 45.12-36.677 93.45-69.107 142.77-99.89 47.04-29.365 97.33-70.276 155.62-73.945 51.89-3.27 100.4 23.384 145.52 49.194 86.93 49.729 177.93 103.791 239.56 180.262 30.23 37.5 28.72 91.401-3.99 126.751l-224.61 242.722c-24.27 26.23-49.17 52.951-80.69 69.798-53.89 28.801-120.63 24.466-177.73 2.697-57.09-21.768-106.63-59.194-155.31-96.138-46.14-35.021-92.28-70.039-138.43-105.06Z" style="fill:#242830"/>
  <path d="M2741.26 527.207c0-77.846 62.57-141.078 140.17-142.144.66-.01 1.33-.014 1.99-.014h.01c78.51 0 142.15 63.647 142.15 142.158s-63.64 142.158-142.15 142.158h-.01c-78.51-.002-142.16-63.648-142.16-142.158Zm626.99 0c0-77.846 62.57-141.078 140.17-142.144.66-.01 1.32-.014 1.99-.014 78.51 0 142.16 63.647 142.16 142.158s-63.65 142.158-142.16 142.158c-78.52-.002-142.16-63.648-142.16-142.158Z" style="fill:#fff"/>
  <path d="M2840.31 527.207c0-23.814 19.3-43.117 43.11-43.117.66 0 1.31.014 1.96.043 22.9 1.023 41.16 19.916 41.16 43.074 0 23.158-18.26 42.051-41.16 43.073-.65.029-1.3.044-1.96.044-23.81 0-43.11-19.304-43.11-43.117Zm626.98 0c0-23.814 19.31-43.117 43.12-43.117.65 0 1.31.014 1.95.043 22.91 1.023 41.16 19.916 41.16 43.074 0 23.158-18.25 42.051-41.16 43.073-.64.029-1.3.044-1.95.044-23.81 0-43.12-19.304-43.12-43.117Z" style="fill:#242830"/>
</svg>
