<?xml version="1.0" encoding="utf-8" standalone="no"?>
<svg width="100%" height="100%" viewBox="0 0 2134 2134" version="1.2"
  xmlns:xlink="http://www.w3.org/1999/xlink"
  xmlns:serif="http://www.serif.com/" baseProfile="tiny-ps" stroke-miterlimit="10" fill-rule="evenodd"
  xmlns="http://www.w3.org/2000/svg">
  <title>Mockoon</title>
  <g transform="matrix(1,0,0,1,-2780.9,0)">
    <g id="Square-logo-white-bg" transform="matrix(4.16667,0,0,4.16667,2780.9,0)">
      <rect x="0" y="0" width="512" height="512" fill="none" />

      <g>
        <g transform="matrix(0.432106,0,0,0.615469,-1159.49,-1424.66)">
          <rect x="2683.33" y="2314.75" width="1184.89" height="831.885" fill="white" />
        </g>
        <g id="Layer-1">
          <g transform="matrix(1,0,0,1,493.268,221.108)">
            <path d="M0,71.376C-13.377,81.529 -26.755,91.682 -40.132,101.835C-54.244,112.545 -68.606,123.396 -85.16,129.707C-101.714,136.018 -121.061,137.274 -136.686,128.924C-145.825,124.041 -153.043,116.294 -160.08,108.689C-181.786,85.233 -203.491,61.777 -225.197,38.32C-234.681,28.071 -235.118,12.445 -226.355,1.572C-208.488,-20.597 -182.105,-36.271 -156.903,-50.688C-143.821,-58.171 -129.755,-65.898 -114.714,-64.951C-97.812,-63.886 -83.233,-52.026 -69.596,-43.513C-55.296,-34.587 -41.286,-25.187 -28.206,-14.553C-14.644,-3.528 2.251,6.507 11.427,22.28C18.036,33.641 19.816,48.773 12.421,59.638C9.201,64.37 4.559,67.916 0,71.376" fill-rule="nonzero" fill="rgb(36,40,48)" />
          </g>
          <g transform="matrix(1,0,0,1,493.268,221.108)">
            <path d="M0,71.376C-13.377,81.529 -26.755,91.682 -40.132,101.835C-54.244,112.545 -68.606,123.396 -85.16,129.707C-101.714,136.018 -121.061,137.274 -136.686,128.924C-145.825,124.041 -153.043,116.294 -160.08,108.689C-181.786,85.233 -203.491,61.777 -225.197,38.32C-234.681,28.071 -235.118,12.445 -226.355,1.572C-208.488,-20.597 -182.105,-36.271 -156.903,-50.688C-143.821,-58.171 -129.755,-65.898 -114.714,-64.951C-97.812,-63.886 -83.233,-52.026 -69.596,-43.513C-55.296,-34.587 -41.286,-25.187 -28.206,-14.553C-14.644,-3.528 2.251,6.507 11.427,22.28C18.036,33.641 19.816,48.773 12.421,59.638C9.201,64.37 4.559,67.916 0,71.376Z" stroke-width="1px" stroke="rgb(36,40,48)" fill-rule="nonzero" fill="none" />
          </g>
          <g transform="matrix(1,0,0,1,18.7317,221.108)">
            <path d="M0,71.376C13.377,81.529 26.755,91.682 40.132,101.835C54.244,112.545 68.606,123.396 85.16,129.707C101.714,136.018 121.061,137.274 136.686,128.924C145.825,124.041 153.043,116.294 160.08,108.689L225.197,38.32C234.681,28.071 235.118,12.445 226.355,1.572C208.488,-20.597 182.105,-36.271 156.903,-50.688C143.821,-58.171 129.755,-65.898 114.714,-64.951C97.812,-63.886 83.233,-52.026 69.596,-43.513C55.296,-34.587 41.286,-25.187 28.206,-14.553C14.644,-3.528 -2.251,6.507 -11.427,22.28C-18.036,33.641 -19.816,48.773 -12.421,59.638C-9.201,64.37 -4.559,67.916 0,71.376" fill-rule="nonzero" fill="rgb(36,40,48)" />
          </g>
          <g transform="matrix(1,0,0,1,18.7317,221.108)">
            <path d="M0,71.376C13.377,81.529 26.755,91.682 40.132,101.835C54.244,112.545 68.606,123.396 85.16,129.707C101.714,136.018 121.061,137.274 136.686,128.924C145.825,124.041 153.043,116.294 160.08,108.689L225.197,38.32C234.681,28.071 235.118,12.445 226.355,1.572C208.488,-20.597 182.105,-36.271 156.903,-50.688C143.821,-58.171 129.755,-65.898 114.714,-64.951C97.812,-63.886 83.233,-52.026 69.596,-43.513C55.296,-34.587 41.286,-25.187 28.206,-14.553C14.644,-3.528 -2.251,6.507 -11.427,22.28C-18.036,33.641 -19.816,48.773 -12.421,59.638C-9.201,64.37 -4.559,67.916 0,71.376Z" stroke-width="1px" stroke="rgb(36,40,48)" fill-rule="nonzero" fill="none" />
          </g>
          <g transform="matrix(0,-1,-1,0,165.113,206.786)">
            <path d="M-41.215,-41.215C-63.977,-41.215 -82.43,-22.763 -82.43,0.001C-82.43,22.762 -63.977,41.215 -41.215,41.215C-18.453,41.215 0.001,22.762 0.001,0.001C0.001,-22.763 -18.453,-41.215 -41.215,-41.215" fill-rule="nonzero" fill="white" />
          </g>
          <g transform="matrix(0,-1,-1,0,165.113,206.786)">
            <ellipse cx="-41.215" cy="0" rx="41.215" ry="41.215" stroke-width="1px" stroke="white" fill="none" />
          </g>
          <g transform="matrix(0,-1,-1,0,346.887,206.786)">
            <path d="M-41.215,-41.215C-63.977,-41.215 -82.43,-22.763 -82.43,0.001C-82.43,22.762 -63.977,41.215 -41.215,41.215C-18.453,41.215 0.001,22.762 0.001,0.001C0.001,-22.763 -18.453,-41.215 -41.215,-41.215" fill-rule="nonzero" fill="white" />
          </g>
          <g transform="matrix(0,-1,-1,0,346.887,206.786)">
            <ellipse cx="-41.215" cy="0" rx="41.215" ry="41.215" stroke-width="1px" stroke="white" fill="none" />
          </g>
          <g transform="matrix(0,-1,-1,0,164.837,235.009)">
            <path d="M-12.5,-12.5C-19.404,-12.5 -25,-6.904 -25,0C-25,6.904 -19.404,12.5 -12.5,12.5C-5.596,12.5 0,6.904 0,0C0,-6.904 -5.596,-12.5 -12.5,-12.5" fill-rule="nonzero" fill="rgb(36,40,48)" />
          </g>
          <g transform="matrix(0,-1,-1,0,164.837,235.009)">
            <circle cx="-12.5" cy="0" r="12.5" stroke-width="1px" stroke="rgb(36,40,48)" fill="none" />
          </g>
          <g transform="matrix(0,-1,-1,0,347.181,235.009)">
            <path d="M-12.5,-12.5C-19.404,-12.5 -25,-6.904 -25,0C-25,6.904 -19.404,12.5 -12.5,12.5C-5.596,12.5 0,6.904 0,0C0,-6.904 -5.596,-12.5 -12.5,-12.5" fill-rule="nonzero" fill="rgb(36,40,48)" />
          </g>
          <g transform="matrix(0,-1,-1,0,347.181,235.009)">
            <circle cx="-12.5" cy="0" r="12.5" stroke-width="1px" stroke="rgb(36,40,48)" fill="none" />
          </g>
        </g>
      </g>
    </g>
  </g>
</svg>
