<svg xmlns="http://www.w3.org/2000/svg" xml:space="preserve" style="fill-rule:evenodd;clip-rule:evenodd;stroke-linejoin:round;stroke-miterlimit:2" viewBox="0 0 1804 1804"><path d="M0 0h1804v1804H0z" style="fill:none"/><path d="M1741.08 1031.02c-47.31 35.91-94.62 71.81-141.93 107.72-49.9 37.87-100.69 76.24-159.23 98.56-58.54 22.32-126.96 26.77-182.22-2.76-32.32-17.28-57.84-44.67-82.73-71.56-76.76-82.95-153.52-165.91-230.283-248.86-33.536-36.243-35.08-91.506-4.093-129.953 63.186-78.403 156.486-133.832 245.616-184.817 46.26-26.462 96-53.791 149.19-50.437 59.77 3.761 111.33 45.705 159.56 75.813 50.57 31.561 100.12 64.81 146.37 102.414 47.97 38.986 107.71 74.475 140.16 130.254 23.37 40.176 29.67 93.692 3.52 132.117-11.39 16.729-27.81 29.269-43.93 41.509ZM62.92 1031.02c-16.124-12.24-32.54-24.78-43.929-41.509-26.147-38.425-19.854-91.941 3.52-132.117 32.45-55.779 92.193-91.268 140.156-130.254 46.254-37.604 95.802-70.853 146.374-102.414 48.229-30.108 99.784-72.052 159.554-75.813 53.193-3.354 102.935 23.975 149.197 50.437 89.127 50.985 182.429 106.414 245.614 184.817 30.987 38.447 29.443 93.71-4.098 129.953l-230.28 248.86c-24.887 26.89-50.411 54.28-82.731 71.56-55.253 29.53-123.678 25.08-182.217 2.76-58.54-22.32-109.332-60.69-159.235-98.56-47.308-35.91-94.617-71.81-141.925-107.72Z" style="fill:#242830"/><path d="M434.833 873.708c0-79.812 64.153-144.642 143.71-145.736.679-.009 1.36-.014 2.042-.014h.002c80.495 0 145.75 65.255 145.75 145.75s-65.255 145.752-145.75 145.752h-.002c-80.498 0-145.752-65.258-145.752-145.752ZM1077.66 873.708c0-79.812 64.16-144.642 143.71-145.736.68-.009 1.36-.014 2.04-.014h.01c80.49 0 145.75 65.255 145.75 145.75s-65.26 145.752-145.75 145.752h-.01c-80.49 0-145.75-65.258-145.75-145.752Z" style="fill:#fff"/><path d="M536.381 873.708c0-24.415 19.791-44.207 44.202-44.207h.002c.671 0 1.339.015 2.003.045 23.484 1.048 42.201 20.419 42.201 44.162s-18.717 43.114-42.201 44.162c-.664.03-1.332.045-2.003.045h-.002c-24.411 0-44.202-19.792-44.202-44.207ZM1179.21 873.708c0-24.415 19.79-44.207 44.2-44.207.68 0 1.34.015 2.01.045 23.48 1.048 42.2 20.419 42.2 44.162s-18.72 43.114-42.2 44.162c-.67.03-1.33.045-2.01.045-24.41 0-44.2-19.792-44.2-44.207Z" style="fill:#242830"/></svg>