<svg xmlns="http://www.w3.org/2000/svg" xml:space="preserve" style="fill-rule:evenodd;clip-rule:evenodd;stroke-linejoin:round;stroke-miterlimit:2" viewBox="0 0 1804 870">
  <path d="M0 0h1804v869.919H0z" style="fill:none"/>
  <path d="M901.999 533.769 720.021 730.426c-29.098 31.443-59.995 62.242-97.784 82.438l-.003.001c-71.971 38.463-161.02 36.177-237.272 7.105-60.655-23.125-113.904-61.873-165.609-101.118-42.718-32.422-85.435-64.84-128.152-97.261l-.003-.003c-22.114-16.783-43.566-35.088-59.185-58.033l-.007-.011c-42.129-61.91-37.788-148.21-.129-212.94 34.629-59.525 95.906-100.017 147.084-141.616 44.6-36.259 92.316-68.408 141.072-98.836 55.228-34.476 116.646-77.308 185.089-81.617 65.019-4.097 127.336 24.623 183.884 56.968l.003.002C764.17 128.5 841.436 175.734 902 236.278c60.564-60.544 137.83-107.778 212.99-150.773v-.002c56.55-32.345 118.87-61.065 183.89-56.968 68.44 4.309 129.86 47.141 185.08 81.612 48.76 30.433 96.48 62.582 141.07 98.836 51.19 41.604 112.46 82.096 147.09 141.621 37.66 64.73 42 151.03-.13 212.94v.011c-15.62 22.945-37.07 41.25-59.19 58.033v.003c-42.72 32.421-85.43 64.839-128.15 97.26-51.71 39.246-104.96 77.994-165.61 101.119-76.25 29.072-165.3 31.358-237.27-7.105l-.01-.001c-37.79-20.196-68.68-50.994-97.78-82.438-60.66-65.551-121.319-131.106-181.981-196.657Z" style="fill:#fff"/>
  <path d="M1659.67 551.58c-42.72 32.423-85.44 64.841-128.16 97.264-45.06 34.202-90.92 68.85-143.78 89.004-52.86 20.153-114.65 24.166-164.54-2.497-29.18-15.598-52.23-40.335-74.7-64.619-69.32-74.902-138.63-149.808-207.944-224.71-30.283-32.726-31.677-82.627-3.697-117.344 57.055-70.796 141.301-120.847 221.781-166.885 41.78-23.894 86.69-48.571 134.72-45.543 53.97 3.397 100.53 41.271 144.08 68.457 45.66 28.499 90.4 58.522 132.17 92.477 43.31 35.204 97.25 67.249 126.55 117.616 21.11 36.278 26.79 84.602 3.18 119.299-10.28 15.106-25.1 26.431-39.66 37.481ZM144.333 551.58c-14.56-11.05-29.383-22.375-39.666-37.481-23.611-34.697-17.928-83.021 3.178-119.299 29.301-50.367 83.248-82.412 126.558-117.616 41.765-33.955 86.506-63.978 132.171-92.477 43.55-27.186 90.102-65.06 144.073-68.457 48.032-3.028 92.947 21.649 134.721 45.543 80.479 46.038 164.728 96.089 221.783 166.885 27.98 34.717 26.586 84.618-3.701 117.344l-207.937 224.71c-22.471 24.284-45.519 49.021-74.703 64.619-49.893 26.663-111.678 22.65-164.538 2.497-52.859-20.154-98.723-54.802-143.784-89.004-42.718-32.423-85.437-64.841-128.155-97.264Z" style="fill:#242830"/>
  <path d="M480.161 409.531c0-72.068 57.928-130.608 129.766-131.595.614-.009 1.228-.013 1.844-.013h.002c72.685 0 131.608 58.924 131.608 131.608 0 72.685-58.923 131.609-131.608 131.609h-.002c-72.688-.001-131.61-58.925-131.61-131.609ZM1060.62 409.531c0-72.068 57.93-130.608 129.76-131.595.62-.009 1.23-.013 1.85-.013 72.68 0 131.61 58.924 131.61 131.608 0 72.685-58.93 131.609-131.61 131.609-72.69-.001-131.61-58.925-131.61-131.609Z" style="fill:#fff"/>
  <path d="M571.856 409.531c0-22.046 17.871-39.917 39.913-39.917h.002c.606 0 1.209.014 1.808.04 21.206.947 38.107 18.438 38.107 39.877 0 21.44-16.901 38.931-38.107 39.877-.599.027-1.202.041-1.808.041h-.002c-22.042 0-39.913-17.871-39.913-39.918ZM1152.31 409.531c0-22.046 17.87-39.917 39.92-39.917.61 0 1.21.014 1.81.04 21.2.947 38.1 18.438 38.1 39.877 0 21.44-16.9 38.931-38.1 39.877-.6.027-1.2.041-1.81.041-22.05 0-39.92-17.871-39.92-39.918Z" style="fill:#242830"/>
</svg>
