<?xml version="1.0" encoding="UTF-8" standalone="no"?>
<!DOCTYPE svg PUBLIC "-//W3C//DTD SVG 1.1//EN" "http://www.w3.org/Graphics/SVG/1.1/DTD/svg11.dtd">
<svg width="100%" height="100%" viewBox="0 0 200 37" version="1.1" xmlns="http://www.w3.org/2000/svg" xmlns:xlink="http://www.w3.org/1999/xlink" xml:space="preserve" xmlns:serif="http://www.serif.com/" style="fill-rule:evenodd;clip-rule:evenodd;stroke-linejoin:round;stroke-miterlimit:2;">
    <path d="M58.419,29.39C61.689,29.39 63.343,27.712 64.062,26.569L64.386,26.569C64.53,27.783 65.392,28.926 67.082,28.926L70.281,28.926L70.281,25.355L69.454,25.355C68.879,25.355 68.592,25.033 68.592,24.534L68.592,10.214L64.35,10.214L64.35,12.5L64.026,12.5C63.2,11.358 61.474,9.75 58.311,9.75C53.278,9.75 49.54,13.893 49.54,19.57C49.54,25.248 53.35,29.39 58.419,29.39M59.174,25.32C56.19,25.32 53.854,23.141 53.854,19.606C53.854,16.142 56.118,13.786 59.138,13.786C62.013,13.786 64.422,15.892 64.422,19.606C64.422,22.784 62.372,25.319 59.174,25.319M72.785,36.18L77.027,36.18L77.027,26.57L77.35,26.57C78.141,27.713 79.83,29.39 83.174,29.39C88.206,29.39 91.873,25.177 91.873,19.571C91.873,13.929 87.955,9.751 82.886,9.751C79.651,9.751 78.069,11.501 77.315,12.465L76.991,12.465L76.991,10.215L72.785,10.215L72.785,36.18ZM82.275,25.426C79.363,25.426 76.955,23.284 76.955,19.57C76.955,16.392 79.004,13.714 82.203,13.714C85.187,13.714 87.523,16.035 87.523,19.57C87.523,23.034 85.259,25.426 82.275,25.426M94.062,36.18L98.303,36.18L98.303,26.57L98.627,26.57C99.417,27.713 101.107,29.39 104.45,29.39C109.483,29.39 112.8,25.177 112.8,19.571C112.8,13.929 109.231,9.751 104.163,9.751C100.927,9.751 99.346,11.501 98.591,12.465L98.267,12.465L98.267,10.215L94.062,10.215L94.062,36.18ZM103.551,25.426C100.64,25.426 98.231,23.284 98.231,19.57C98.231,16.392 100.28,13.714 103.48,13.714C106.463,13.714 108.8,16.035 108.8,19.57C108.8,23.034 106.535,25.426 103.551,25.426M118.407,29.36L124.41,29.36L127.825,14.684L128.04,14.684L131.455,29.36L137.422,29.36L142.201,10.65L137.926,10.65L134.511,25.36L134.187,25.36L130.772,10.65L125.129,10.65L121.678,25.36L121.354,25.36L117.975,10.65L113.446,10.65L118.407,29.36ZM144.35,29.36L148.591,29.36L148.591,20.112C148.591,16.577 150.245,14.399 153.336,14.399L155.205,14.399L155.205,10.185L153.803,10.185C151.395,10.185 149.562,11.828 148.843,13.399L148.555,13.399L148.555,10.649L144.35,10.649L144.35,29.36ZM176.255,29.36L179.562,29.36L179.562,25.61L176.291,25.61C174.997,25.61 174.457,25.04 174.457,23.718L174.457,14.363L179.777,14.363L179.777,10.649L174.457,10.649L174.457,5.4L170.431,5.4L170.431,10.65L166.909,10.65L166.909,14.363L170.18,14.363L170.18,23.754C170.18,27.718 172.588,29.36 176.255,29.36M190.941,29.39C194.86,29.39 198.31,27.462 199.533,23.57L195.65,22.641C194.967,24.712 192.99,25.783 190.906,25.783C187.814,25.783 185.765,23.783 185.729,20.641L200,20.641L200,19.463C200,13.893 196.513,9.751 190.762,9.751C185.693,9.751 181.344,13.714 181.344,19.606C181.344,25.319 185.19,29.39 190.941,29.39M185.765,17.57C186.017,15.321 188.066,13.429 190.762,13.429C193.35,13.429 195.471,15.035 195.686,17.571L185.765,17.57Z" style="fill:rgb(134,154,184);fill-rule:nonzero;"/>
    <path d="M165.023,29.36L160.781,29.36L160.781,14.363L157.474,14.363L157.474,10.649L165.023,10.649L165.023,29.36Z" style="fill:rgb(134,154,184);"/>
    <path d="M162.586,8.053C164.132,8.053 165.282,6.91 165.282,5.41C165.282,3.946 164.132,2.804 162.586,2.804C161.041,2.804 159.89,3.946 159.89,5.41C159.89,6.91 161.041,8.053 162.586,8.053" style="fill:rgb(134,154,184);fill-rule:nonzero;"/>
    <path d="M37.035,24.772L37.035,33.03L16.29,33.03C10.246,33.03 4.97,29.709 2.146,24.772C0.898,22.586 0.164,20.143 0,17.631L0,15.399C0.074,14.253 0.267,13.117 0.577,12.011C2.515,5.079 8.817,0 16.291,0C23.765,0 30.066,5.079 32.003,12.01L23.133,12.01C21.677,9.751 19.157,8.257 16.291,8.257C13.424,8.257 10.904,9.751 9.448,12.011C8.999,12.706 8.657,13.466 8.434,14.263C8.229,14.996 8.126,15.754 8.127,16.515C8.127,18.882 9.111,21.015 10.689,22.52C12.195,23.966 14.204,24.773 16.291,24.772L37.035,24.772Z" style="fill:rgb(134,154,184);fill-rule:nonzero;"/>
    <path d="M37.035,14.263L37.035,22.52L21.893,22.52C23.533,20.955 24.46,18.782 24.455,16.515C24.455,15.734 24.348,14.979 24.148,14.263L37.035,14.263Z" style="fill:rgb(134,154,184);fill-rule:nonzero;"/>
</svg>
