<?xml version="1.0" encoding="utf-8"?>
<svg xmlns="http://www.w3.org/2000/svg" id="Ebene_1" data-name="Ebene 1" viewBox="0 0 1882.17 341.16">
  <defs>
    <style>.cls-1{fill:#869ab8;}</style>
  </defs>
  <title>Cloudflight Logo RGB</title>
  <path class="cls-1" d="M1787.69,249.8a43.25,43.25,0,0,0,11.82,17.76,47,47,0,0,0,18.25,9.73,84.22,84.22,0,0,0,23,3h.06a87.13,87.13,0,0,0,22.44-2.62,79.15,79.15,0,0,0,18.11-7.34l0-36.24a63.13,63.13,0,0,1-27.77,6.47h0c-7.88,0-14.09-2-18.44-6s-6.56-10.54-6.56-19.47l0-98.48,53.55,0,0-37.84-53.55,0,0-54.69-45,0,0,54.69h-25.27l0,37.84h25.27l0,105.58C1783.54,233.17,1784.93,242.46,1787.69,249.8Z"/>
  <path class="cls-1" d="M1644.81,115.42h0c13.55,0,24.17,4.31,31.59,12.79s11.14,20.66,11.13,36.26l0,112.37,45,0,0-126.21c0-23.14-6.14-41.81-18.27-55.49s-29.59-20.59-51.89-20.6h-.05a70.07,70.07,0,0,0-20.68,2.83,68.67,68.67,0,0,0-16.8,7.73,70,70,0,0,0-13.44,11.14,110.76,110.76,0,0,0-10.68,13.44l-.92,1.36.05-108.55-45,0-.12,274.29,45,0,0-111.62c0-15.61,4.21-27.93,12.49-36.64S1631.53,115.42,1644.81,115.42Z"/>
  <path class="cls-1" d="M1503.73,283.35c4.87-14.05,7.43-26.76,7.6-37.79.49-30.83.6-108.48.66-150.2,0-11.07,0-19.43,0-23.4V68.49l-42.94,0V79.8l-6-3.32c-45.62-25.1-93.81-8.88-117.84,20.11-27.2,32.82-28.92,78.07-4.27,112.6,11.85,16.65,27.51,28.11,46.54,34.05,27.62,8.6,52.12,6,74.92-8l4.75-2.91.66,5.53c3.63,30.79-10.9,53.23-37.9,58.55-17.89,3.53-33.75-.64-47.14-12.41a14.68,14.68,0,0,0-5.37-3.27c-10.55,4-21.09,8.6-31.28,13.05l-.74.31-6.58,2.85.67.9,1.15,1.54a103.82,103.82,0,0,0,6.61,8.33c23.68,25.67,53.64,35.18,91.58,29.06C1471.39,331.52,1493.21,313.55,1503.73,283.35Zm-50-91.86h0A51.74,51.74,0,0,1,1417,206.78h-.23c-27.82-.12-50.39-23.2-50.32-51.45s21.76-49.54,50.45-49.64h.2a52.26,52.26,0,0,1,37.13,15.17,48.68,48.68,0,0,1,14.59,34.64A50.41,50.41,0,0,1,1453.77,191.49Z"/>
  <rect class="cls-1" x="1240.91" y="4.61" width="48.4" height="42.37"/>
  <rect class="cls-1" x="1242.73" y="78.53" width="45.01" height="198.12"/>
  <rect class="cls-1" x="1148.37" y="2.31" width="45.01" height="274.29"/>
  <path class="cls-1" d="M1115.83,80l-52.79,0V68.5c0-10.13,2.27-17.86,6.73-23s11.26-7.7,20.16-7.7h0a67.89,67.89,0,0,1,13.87,1.33,119.72,119.72,0,0,1,12.4,3.39l0-37.41a142.16,142.16,0,0,0-15.8-3.66A124.13,124.13,0,0,0,1079.78,0h0c-19.43,0-34.6,5.34-45.1,15.86s-15.84,27-15.85,48.85V79.54H993.51l0,37.09h25.27v.5l-.07,159.4,45,0,.07-159.9,52,0Z"/>
  <path class="cls-1" d="M915.88,94.68a101.73,101.73,0,0,0-60.39-19.59h0A102.68,102.68,0,0,0,752.88,177.61,105.32,105.32,0,0,0,782.61,251c19.54,20.29,45.39,31.46,72.79,31.48h0c27.4,0,53.24-11.16,72.77-31.41A105.71,105.71,0,0,0,958,181.52l.16-180.1h-41.4l0,93.85ZM855.44,241.09h0c-33.17,0-61.17-29.08-61.16-63.46a61.26,61.26,0,0,1,61.19-61.15h0a61.25,61.25,0,0,1,61.16,61.21C916.62,212.06,888.6,241.09,855.44,241.09Z"/>
  <path class="cls-1" d="M612.66,280.5h0c15.09,0,27.63-3.49,37.28-10.36a97.58,97.58,0,0,0,24.33-24.79l.92-1.35,0,32.38,45,0,.09-198.12-45,0,0,111.62c0,15.61-4.21,27.94-12.49,36.64s-19.22,13.12-32.5,13.12h0c-13.55,0-24.18-4.31-31.6-12.79s-11.14-20.65-11.13-36.26l0-112.37-45,0,0,126.21c0,23.15,6.14,41.82,18.27,55.49S590.35,280.49,612.66,280.5Z"/>
  <path class="cls-1" d="M500.63,137.08a101.07,101.07,0,0,0-55.33-55A109.05,109.05,0,0,0,403.07,74H403a106.88,106.88,0,0,0-42.18,8.24,105.8,105.8,0,0,0-33.42,22.32,104,104,0,0,0-22.15,33,102.21,102.21,0,0,0,55.1,135.13,108.17,108.17,0,0,0,41.86,8.09h.06a108.16,108.16,0,0,0,42.36-8.24,102.94,102.94,0,0,0,55.77-55.15h0a100.84,100.84,0,0,0,8.08-40.15A103.15,103.15,0,0,0,500.63,137.08Zm-41.32,65.76a60.36,60.36,0,0,1-12.09,20.34,58.75,58.75,0,0,1-19.1,13.87,59.52,59.52,0,0,1-25.1,5.13h0A57.69,57.69,0,0,1,378.61,237a60.82,60.82,0,0,1-19.27-13.89,62.51,62.51,0,0,1-12.64-20.72,71.16,71.16,0,0,1-4.52-25.26,73.57,73.57,0,0,1,4.16-24.86A60.45,60.45,0,0,1,358.44,132a58,58,0,0,1,43.83-19h0a58.78,58.78,0,0,1,24.75,5.14,59.65,59.65,0,0,1,19.27,14.09A65.48,65.48,0,0,1,459,152.91,69.71,69.71,0,0,1,463.48,178,73.35,73.35,0,0,1,459.31,202.84Z"/>
  <rect class="cls-1" x="217.59" y="1.88" width="45.01" height="274.29"/>
  <path class="cls-1" d="M16.27,238a92.81,92.81,0,0,0,11.39,14,101.33,101.33,0,0,0,32.7,22.25,103.59,103.59,0,0,0,41.09,8.14c19.37,0,35.48-3.48,47.9-10.34a124.54,124.54,0,0,0,33.19-26.54l-26.87-26.66a113.64,113.64,0,0,1-23.1,17.78c-8.23,4.66-17.92,7-28.8,7a58.76,58.76,0,0,1-24.44-5.13,61.29,61.29,0,0,1-19.09-13.95,61.91,61.91,0,0,1-12.39-20.65,74,74,0,0,1-4.34-25.51,71.27,71.27,0,0,1,1.68-15.82,103.9,103.9,0,0,0-29,72.15C16.18,235.8,16.18,237,16.27,238Z"/>
  <path class="cls-1" d="M150.64,79.26c-12.4-6.24-28.21-9.4-47-9.4a102.82,102.82,0,0,0-41.23,8.26,100.78,100.78,0,0,0-32.9,22.56A104.26,104.26,0,0,0,0,174.13a113.44,113.44,0,0,0,1.32,17.3,103.84,103.84,0,0,1,5.56-17.79,106.05,106.05,0,0,1,21.93-33.52,103,103,0,0,1,71-31.06c2-.13,3.93-.09,5.78,0,.73,0,1.44,0,2.16,0,9.8.54,18,2.83,25.16,7a108.55,108.55,0,0,1,22.26,17.69l27.7-29.95A111.49,111.49,0,0,0,150.64,79.26Z"/>
  <path class="cls-1" d="M184.13,323.64a17.61,17.61,0,0,0-17.23-17.52H25.47v0l-.52,0-.22,0H24a17.52,17.52,0,0,0,0,35H166.86A17.6,17.6,0,0,0,184.13,323.64Z"/>
</svg>
