<svg width="652" height="150"
  xmlns="http://www.w3.org/2000/svg"
  xmlns:xlink="http://www.w3.org/1999/xlink" xml:space="preserve" version="1.1">
  <g>
    <title>Layer 1</title>
    <g id="svg_21">
      <path id="svg_1" fill="#FFFFFF" d="m70.1,17.4l-49.9,28.8l0,57.6l49.9,28.8l49.9,-28.8l0,-57.6l-49.9,-28.8zm0,0l-49.9,28.8l0,57.6l49.9,28.8l49.9,-28.8l0,-57.6l-49.9,-28.8z" class="st0"/>
      <path id="svg_2" fill="#869ab8" d="m89.8,110.1l-7.1,0l-8.5,-7.8l0,-4l8.8,-8.4l0,-13.3l11.5,-7.5l13.1,9.9l-17.8,31.1zm-29.4,-21l1.3,-12.5l-4.3,-11.2l25.4,0l-4.2,11.2l1.2,12.5l-9.8,0l-9.6,0zm5.8,13.2l-8.5,7.9l-7.2,0l-17.9,-31.2l13.2,-9.8l11.6,7.4l0,13.3l8.8,8.4l0,4zm-15.8,-60l39.3,0l4.7,20l-48.6,0l4.6,-20zm19.7,-24.9l-49.9,28.8l0,57.6l49.9,28.8l49.9,-28.8l0,-57.6l-49.9,-28.8z" class="st1"/>
      <g id="svg_3">
        <g id="svg_4">
          <g id="svg_5">
            <defs transform="translate(0 -2.9) translate(0 -10) translate(0 -10) translate(0 -10) translate(0 -10) translate(0 -10) translate(0 -10) translate(0 -10) translate(0 -10) translate(0 -10) translate(0 -10) translate(0 -10) translate(0 -10) translate(0 -10) translate(0 -10) translate(0 -10) translate(0 -10) translate(0 -10) translate(0 -10) translate(0 -10) translate(0 -10) translate(0 -10) translate(0 -10) translate(0 -10) translate(0 -10) translate(0 -1) translate(0 -1) translate(0 -1) translate(0 -1)">
              <path d="m70.1,264.3l0,24.9l19.6,0l4.7,20l-24.3,0l0,3l12.8,0l-4.2,11.2l1.2,12.5l-9.8,0l0,43.6l49.9,-28.8l0,-57.6l-49.9,-28.8zm12.9,59.2l0,0l11.5,-7.5l13.1,9.9l-17.8,31.1l-7.1,0l-8.5,-7.8l0,-4l8.8,-8.4l0,-13.3z" id="SVGID_1_"/>
            </defs>
            <clipPath transform="translate(0 -2.9) translate(0 -10) translate(0 -10) translate(0 -10) translate(0 -10) translate(0 -10) translate(0 -10) translate(0 -10) translate(0 -10) translate(0 -10) translate(0 -10) translate(0 -10) translate(0 -10) translate(0 -10) translate(0 -10) translate(0 -10) translate(0 -10) translate(0 -10) translate(0 -10) translate(0 -10) translate(0 -10) translate(0 -10) translate(0 -10) translate(0 -10) translate(0 -10) translate(0 -1) translate(0 -1) translate(0 -1) translate(0 -1)" id="SVGID_2_">
              <use id="svg_6" xlink:href="#SVGID_1_"/>
            </clipPath>
          </g>
        </g>
      </g>
      <g id="svg_7">
        <g id="svg_8">
          <g id="svg_9">
            <defs transform="translate(0 -2.9) translate(0 -10) translate(0 -10) translate(0 -10) translate(0 -10) translate(0 -10) translate(0 -10) translate(0 -10) translate(0 -10) translate(0 -10) translate(0 -10) translate(0 -10) translate(0 -10) translate(0 -10) translate(0 -10) translate(0 -10) translate(0 -10) translate(0 -10) translate(0 -10) translate(0 -10) translate(0 -10) translate(0 -10) translate(0 -10) translate(0 -10) translate(0 -10) translate(0 -1) translate(0 -1) translate(0 -1) translate(0 -1)">
              <path d="m70.1,264.3l-49.9,28.8l0,57.6l49.9,28.8l0,-43.5l-9.7,0l1.3,-12.5l-4.3,-11.2l12.7,0l0,-3l-24.2,0l4.6,-20l19.7,0l0,-25l-0.1,0zm-37.5,61.6l0,0l13.2,-9.8l11.6,7.4l0,13.3l8.8,8.4l0,4l-8.5,7.9l-7.2,0l-17.9,-31.2z" id="SVGID_3_"/>
            </defs>
            <clipPath transform="translate(0 -2.9) translate(0 -10) translate(0 -10) translate(0 -10) translate(0 -10) translate(0 -10) translate(0 -10) translate(0 -10) translate(0 -10) translate(0 -10) translate(0 -10) translate(0 -10) translate(0 -10) translate(0 -10) translate(0 -10) translate(0 -10) translate(0 -10) translate(0 -10) translate(0 -10) translate(0 -10) translate(0 -10) translate(0 -10) translate(0 -10) translate(0 -10) translate(0 -10) translate(0 -1) translate(0 -1) translate(0 -1) translate(0 -1)" id="SVGID_4_">
              <use id="svg_10" xlink:href="#SVGID_3_"/>
            </clipPath>
          </g>
        </g>
      </g>
      <path id="svg_11" fill="#869ab8" d="m176,101.7c-13.2,0 -22.9,-10.3 -22.9,-23c0,-12.7 9.8,-23.3 23,-23.3c8.4,0 13.6,3.1 17.7,7.6l-6.3,6.8c-3.1,-3.3 -6.4,-5.5 -11.5,-5.5c-7.4,0 -12.8,6.4 -12.8,14.2c0,8 5.5,14.4 13.3,14.4c4.8,0 8.3,-2.3 11.5,-5.5l6.1,6.1c-4.4,4.7 -9.5,8.2 -18.1,8.2" class="st2"/>
      <path id="svg_12" fill="#869ab8" d="m213.4,101.7l-10.2,0l0,-46.2l10.2,0l0,10.8c2.8,-6.6 7.9,-11.2 15.7,-10.8l0,10.8l-0.6,0c-8.9,0 -15.1,5.8 -15.1,17.6l0,17.8z" class="st2"/>
      <polygon id="svg_13" fill="#869ab8" points="282.3999938964844,55.30001449584961 259.8999938964844,114.10000228881836 249.60000610351562,114.10000228881836 254.5,101.70000839233398 235.1999969482422,55.30001449584961 246.10000610351562,55.30001449584961 259.20001220703125,89.60000228881836 271.79998779296875,55.30001449584961 " class="st2"/>
      <path id="svg_14" fill="#869ab8" d="m312.4,64.2c-6.9,0 -12.9,5.6 -12.9,14.3c0,8.7 6.1,14.3 12.9,14.3c7,0 12.7,-5.5 12.7,-14.3c0,-8.8 -5.8,-14.3 -12.7,-14.3m2.3,37.4c-7.3,0 -11.9,-3.7 -15,-7.8l0,20.3l-10.2,0l0,-58.8l10.2,0l0,8.3c3.3,-4.6 7.9,-8.3 15,-8.3c10.5,0 20.7,8.3 20.7,23.1c0,14.8 -10.1,23.2 -20.7,23.2" class="st2"/>
      <path id="svg_15" fill="#869ab8" d="m357.7,65l0,21.8c0,3.9 2,5.5 5.5,5.5l4,0l0,9.1l-7,0c-7.4,0 -12.7,-3.3 -12.7,-13l0,-23.4l-5.6,0l0,-8.7l5.6,0l0,-12.2l10.2,0l0,12.2l9.5,0l0,8.7l-9.5,0z" class="st2"/>
      <path id="svg_16" fill="#869ab8" d="m399.3,64.2c-8.2,0 -13.4,6.4 -13.4,14.2c0,7.9 5.6,14.4 13.5,14.4c8.2,0 13.4,-6.4 13.4,-14.2c0.2,-7.9 -5.5,-14.4 -13.5,-14.4m0,37.5c-13.5,0 -23.5,-10.3 -23.5,-23c0,-12.8 10.1,-23.3 23.7,-23.3c13.6,0 23.6,10.3 23.6,23.1c0,12.6 -10,23.2 -23.8,23.2" class="st2"/>
      <path id="svg_17" fill="#869ab8" d="m520.4,64.2c-8.2,0 -13.4,6.4 -13.4,14.2c0,7.9 5.6,14.4 13.5,14.4c8.2,0 13.4,-6.4 13.4,-14.2c0.1,-7.9 -5.5,-14.4 -13.5,-14.4m0,37.5c-13.5,0 -23.5,-10.3 -23.5,-23c0,-12.8 10.1,-23.3 23.7,-23.3c13.6,0 23.6,10.3 23.6,23.1c0,12.6 -10.1,23.2 -23.8,23.2" class="st2"/>
      <path id="svg_18" fill="#869ab8" d="m604.6,55.3c9.7,0 15.6,6.1 15.6,17l0,29.3l-10.2,0l0,-26.2c0,-7.1 -3.3,-10.8 -9,-10.8c-5.5,0 -9.5,3.9 -9.5,11l0,26.1l-10.2,0l0,-26.3c0,-6.9 -3.4,-10.8 -9,-10.8c-5.6,0 -9.5,4.2 -9.5,11.1l0,26l-10.2,0l0,-46.3l10.2,0l0,7.6c2.9,-3.9 6.7,-7.6 13.5,-7.6c6.4,0 10.8,3.1 13.2,7.8c3.7,-4.8 8.4,-7.9 15.1,-7.9" class="st2"/>
      <polygon id="svg_19" fill="#869ab8" points="441.79998779296875,92.30001449584961 441.79998779296875,97.49999618530273 441.5,97.99999618530273 437,100.49999618530273 436.3999938964844,100.49999618530273 432,97.99999618530273 431.70001220703125,97.49999618530273 431.70001220703125,92.30001449584961 432,91.80001449584961 436.3999938964844,89.30001449584961 437,89.30001449584961 441.5,91.80001449584961 " class="st2"/>
      <path id="svg_20" fill="#869ab8" d="m472.7,101.6c-13.2,-0.3 -22.7,-10.8 -22.5,-23.5c0.2,-12.7 10.2,-23.1 23.5,-22.8c8.4,0.2 13.6,3.4 17.6,8l-6.4,6.7c-3,-3.3 -6.3,-5.7 -11.4,-5.8c-7.4,-0.1 -12.9,6.1 -13,14c-0.2,8 5.2,14.5 13,14.6c4.8,0.1 8.4,-2.1 11.6,-5.3l6,6.2c-4.5,4.7 -9.7,8.1 -18.4,7.9" class="st2"/>
    </g>
  </g>
</svg>
