<?xml version="1.0" encoding="utf-8"?>
<svg xmlns="http://www.w3.org/2000/svg" width="207.874" height="26.331" viewBox="0 0 207.874 26.331">
  <path fill="#869ab8" d="M6.2165.0033C.83.0033.6832.3393.9445 1.9473h1.7947c1.6827 0 2.0573.2266 2.0573 1.6826v17.653c0 2.506-.7106 2.769-4.712 2.993-.12.486-.12 1.085 0 1.458h14.0533c10.6933 0 15.1067-5.163 15.1067-12.867C29.2445 4.864 24.5645 0 13.7912 0zm3.2533 21.02V2.2098h3.8534c7.1813 0 10.92 4.1866 10.92 11.3706 0 8.0533-4.076 10.1066-10.4707 10.1066-3.48 0-4.3013-.3733-4.3013-2.6533M45.8258.2647c-1.76 0-2.244.6-3.48 3.48l-7.404 17.5412c-1.0108 2.389-1.3468 2.613-4.2268 2.989-.112.486-.112 1.085 0 1.458h10.6974c.9334 0 1.196-.6.9334-1.683h-3.2134c-2.0586 0-2.0586-.56-1.2-2.768l1.5334-4.08h9.6506l2.356 5.649c.4133.973 0 1.309-4.076 1.421-.1133.493-.1133 1.093 0 1.466h12.1173c.9733 0 1.2-.6.9733-1.68h-.8533c-1.9066 0-2.32-.334-2.7333-1.307l-8.64-19.707c-.6-1.307-.8533-1.934-.9733-2.76zm-1.6467 5.16l4.078 9.728H40.29zM64.563.7527c-1.5706 0-1.7946.709-1.5706 1.68h1.796c1.72 0 2.056.2265 2.056 1.573v17.877c0 1.5334-.72 1.9068-3.7067 2.3934-.16.487-.16 1.086 0 1.459h11.36c1.12 0 1.2266-.6.9733-1.682h-2.0133c-1.5733 0-1.9467-.262-1.9467-1.57V4.715c0-1.5707.48-2.28 3.7333-2.5067.1067-.3733.1067-1.12 0-1.4573zm44.92 0l-8.64 17.989L91.4535.751h-7.5533c-1.56 0-1.7866.8133-1.56 1.68 3.7067.1066 3.9334.52 3.8134 1.72l-1.5334 17.5733c-.1066 1.5733-.4533 2.32-4.56 2.5466-.1066.48-.1066.973 0 1.453H92.327c1.0533 0 1.2-.6.9333-1.68H91.247c-3.96 0-3.96-.374-3.8534-1.84l1.2-16.8L98.927 25.818c.8533 0 1.16-.2268 1.84-1.5735l8.9826-18.8532 1.68 16.3066c.1867 1.826-.336 2.24-3.476 2.426l-2.0213.106c-.1467.48-.1467.962 0 1.453h13.2c1.0493 0 1.16-.6 1.0493-1.68-2.88-.374-3.48-.48-3.592-1.68l-1.8-18.253c-.1094-1.08.116-1.68 3.5866-1.907.1574-.48.1574-.974 0-1.454zm17.8772 0c-1.5706 0-1.7946.709-1.5706 1.68h1.7933c1.573 0 2.058.2265 2.058 1.573v17.129c0 2.4308-.823 2.9174-4.451 3.1414-.12.487-.08.971 0 1.459h18.24c.48-2.32 1.16-4.488 1.946-6.733.386-1.115-.107-1.573-1.12-1.573l-.12.004-1.054 2.318c-1.574 3.367-1.947 3.555-4.72 3.555h-2.4c-1.054 0-1.694-.337-1.694-1.573V5.202c0-2.4307.7465-2.768 4.672-2.9934.1065-.3733.1065-1.12 0-1.4573zm24.236 0c-1.6454 0-1.7947.709-1.6454 1.68h1.7867c1.68 0 2.0133.2265 2.0133 1.573v17.28c0 2.504-.72 2.7665-4.68 2.9905-.1466.4867-.1466.9707 0 1.4587h20.64c.48-2.32 1.2-4.6 1.9466-6.734.36-1.08-.12-1.574-1.12-1.574l-.12.004-1.0533 2.317c-1.573 3.366-1.946 3.554-4.72 3.554h-3.213c-2.546 0-2.88-.56-2.88-1.907v-6.584h3.924c.974 0 1.46.337 1.947 3.253.194.088.422.127.644.127.248 0 .488-.04.667-.12-.11-2.427-.11-5.014 0-7.36.076-1.16-.333-1.414-1.08-1.414h-.449l-.253 1.9065c-.117.9736-.341 1.347-1.462 1.347h-3.927V2.94h5.987c2.056 0 2.84.6 3.475 2.88l.494 1.68c.093.0135.173.0135.257.0135 1 0 1.3737-.6267 1.2-1.6934-.2583-1.6-.48-3.36-.593-5.04zM178.3748.639c-1.5334.112-1.796.8226-1.5334 1.7946h1.7947c1.534 0 2.059.2265 2.059 1.6932v17.28c0 2.28-.749 2.6532-4.004 2.88-.112.4932-.074 1.0532 0 1.4666h11.782c1.086 0 1.198-.6 1.086-1.68h-1.906c-1.946 0-2.282-.3735-2.282-1.4534v-5.493h2.507c2.28 0 2.356.12 3.2908 1.8.9737 1.72 2.32 3.2267 3.555 4.3067 2.7667 2.4 5.048 3.1465 8.5267 3.1465 3.973 0 4.9065-.9733 4.573-2.28-3.253 0-4.893-.3333-9.8264-4.3066-1.4137-1.16-4.227-3.7334-4.227-3.7334 3.107-1.3067 5.0535-3.8534 5.0535-6.9867 0-5.12-3.96-8.52-11.1465-8.52-5.227 0-7.48 0-9.267.1466m7 2.019h1.278c4.227 0 7.2136 1.574 7.2136 6.619s-2.989 5.649-6.693 5.649h-1.796z"/>
</svg>
