<?xml version="1.0" encoding="utf-8"?>
<svg xmlns:dc="http://purl.org/dc/elements/1.1/"
  xmlns:cc="http://creativecommons.org/ns#"
  xmlns:rdf="http://www.w3.org/1999/02/22-rdf-syntax-ns#"
  xmlns:svg="http://www.w3.org/2000/svg"
  xmlns="http://www.w3.org/2000/svg"
  xmlns:sodipodi="http://sodipodi.sourceforge.net/DTD/sodipodi-0.dtd"
  xmlns:inkscape="http://www.inkscape.org/namespaces/inkscape" width="319.23459" height="37.385811" id="svg4835" version="1.1" inkscape:version="0.48.4 r9939" sodipodi:docname="New document 4">
  <defs id="defs4837"/>
  <sodipodi:namedview id="base" pagecolor="#ffffff" bordercolor="#666666" borderopacity="1.0" inkscape:pageopacity="0.0" inkscape:pageshadow="2" inkscape:zoom="0.98994949" inkscape:cx="96.197071" inkscape:cy="-21.147089" inkscape:document-units="px" inkscape:current-layer="layer1" showgrid="false" fit-margin-top="0" fit-margin-left="0" fit-margin-right="0" fit-margin-bottom="0" inkscape:window-width="1440" inkscape:window-height="844" inkscape:window-x="-4" inkscape:window-y="-4" inkscape:window-maximized="1"/>
  <metadata id="metadata4840">
    <rdf:RDF>
      <cc:Work rdf:about="">
        <dc:format>image/svg+xml</dc:format>
        <dc:type rdf:resource="http://purl.org/dc/dcmitype/StillImage"/>
        <dc:title/>
      </cc:Work>
    </rdf:RDF>
  </metadata>
  <g inkscape:label="Layer 1" inkscape:groupmode="layer" id="layer1" transform="translate(-350.61803,-469.15066)">
    <path inkscape:connector-curvature="0" id="path3189" style="fill:#869ab8;fill-opacity:1;fill-rule:nonzero;stroke:none" d="m 500.33864,488.93448 c 0,0 2.08528,-4.89696 2.97464,-6.30832 0,0 2.54653,3.49664 3.44693,6.36908 0,0 -2.87245,0.4502 -6.42157,-0.0608 m -59.60868,-3.72036 0,-5.51841 c 0,0 0.0581,-4.11808 3.31435,-4.11808 3.27293,0 2.8614,4.00208 2.89454,4.50752 0.0276,0.51649 -0.18229,5.12897 -6.20889,5.12897 z m 10.19993,-13.8043 c 0,0 -15.88129,1.18765 -24.4489,0.38944 0,0 -1.01917,-0.27343 -1.30089,0.90592 0,0 -0.55515,0.89764 0.33973,1.51908 0.89487,0.62421 3.49388,2.14329 3.49388,7.77769 0,5.63717 0,10.87109 0,10.87109 0,0 0.5082,5.97689 -3.60989,8.22512 0,0 -0.83963,0.28449 -0.3922,1.47213 0,0 0.0581,1.06888 1.24565,0.90316 1.1766,-0.17411 7.83016,-0.67944 16.95569,-0.0581 0,0 0.7844,0.0581 1.00259,-0.45848 0.23201,-0.4944 0.29277,-0.55516 0.29277,-0.55516 0,0 0.79268,-0.78716 -0.40325,-1.57708 -1.17659,-0.78716 -3.15139,-1.9748 -3.31711,-6.98777 -0.16859,-5.01848 0,-5.1262 0,-5.1262 l 0.72916,0 c 0,0 2.52719,-0.232 4.22304,3.61541 0,0 3.27292,7.87712 3.7756,8.83276 0.51096,0.96392 1.4666,2.98844 5.01849,2.64872 3.54636,-0.3342 20.10156,-1.52184 37.68698,0.0581 0,0 1.91681,0.28172 2.64873,-1.57984 0,0 3.04092,-8.16713 3.77008,-9.47077 0,0 6.42708,-0.16572 9.92097,-0.11048 0,0 1.28983,2.20128 1.28983,4.85001 0,2.64872 -2.30347,3.27016 -2.30347,3.27016 0,0 -0.96117,0.38944 -0.50821,1.57708 0,0 0.1686,1.12964 1.29537,1.01364 1.12135,-0.116 11.20804,-1.06888 26.41817,-0.116 0,0 1.0164,0.40048 1.3506,-0.95288 0,0 0.62144,-1.07164 -0.4502,-1.57984 0,0 -3.99103,-0.89764 -3.99103,-7.27225 0,-6.36909 0.0552,-10.86832 0.0552,-10.86832 0,0 3.0354,4.33352 6.64253,10.81861 3.60712,6.4768 5.52392,9.24152 5.52392,9.24152 0,0 1.80356,3.49389 5.34716,1.63232 3.54912,-1.85604 7.37997,-3.99932 9.57849,-5.52668 0,0 0.85068,-0.38944 0.3922,-1.46937 l -0.33144,-0.67116 c 0,0 -0.0608,-0.39219 -1.24012,-0.5082 0,0 -2.64872,0.62421 -2.70948,-3.15416 -0.0497,-3.77008 -0.22648,-9.12552 0,-14.58869 0,0 0.116,-3.38616 3.21492,-4.3418 0,0 1.12136,-0.10761 0.61592,-1.46108 l -0.33696,-0.68221 c 0,0 0,-0.56344 -0.7844,-0.44743 -0.78716,0.116 -5.1842,0.50543 -9.85468,0.116 0,0 -1.0164,0 -1.13517,1.12135 0,0 -0.2762,1.01917 0.51373,1.35337 0.78716,0.33696 3.54359,1.35336 3.72036,5.68688 0.16307,4.35009 0.22096,10.37117 0.22096,10.37117 0,0 -6.42433,-9.46525 -10.53689,-16.73197 0,0 -0.67116,-1.97481 -3.10445,-1.8008 -2.40843,0.16572 -8.22236,0.44744 -12.4454,0.0471 0,0 -1.18489,-0.16306 -1.35337,1.19041 0,0 -0.33695,1.17936 0.67669,1.6848 0,0 3.3834,2.14328 3.3834,2.8752 0,0.73744 -0.0636,15.72385 -0.0636,15.72385 0,0 0.29001,6.14261 -1.34783,5.35269 0,0 -0.95564,0.61868 -3.26464,-3.60989 -2.309,-4.2258 -5.29745,-10.2524 -10.13917,-21.97694 0,0 -1.01916,-3.26464 -3.09892,-3.26464 0,0 -1.24012,0.0608 -2.53272,0.78164 -1.29813,0.74047 -5.41345,3.04921 -9.69173,4.29209 0,0 -1.12688,0.3342 -0.79268,1.46108 0,0 -0.16307,0.83963 1.07164,1.30641 1.23736,0.44467 2.309,0.95287 2.64596,1.56603 0,0 -1.2926,4.17056 -3.66237,8.46265 -2.367,4.27552 -5.40239,11.37377 -14.13848,11.37377 l -3.43865,0 c 0,0 -0.89764,0.1076 -0.89764,-1.12688 0,-1.23736 0,-9.06753 0,-9.06753 l 2.25377,0 c 0,0 3.65683,-0.79268 5.41068,3.94132 0,0 0.33144,1.46384 1.57156,0.89764 0,0 1.40584,-0.16572 1.29536,-1.57708 -0.11048,-1.40308 -0.21809,-5.23944 0.0552,-8.61732 0,0 0.116,-1.01365 -1.01364,-1.23736 0,0 -0.89764,-0.4502 -1.57708,0.28172 -0.67392,0.72915 -2.08529,2.47195 -5.29745,2.47195 -3.20388,0 -2.63767,0 -2.63767,0 l 0,-8.44884 c 0,0 -0.0608,-0.55792 0.32867,-0.61592 0.3922,-0.0581 5.30021,-1.24564 8.16989,1.06059 2.87244,2.31729 3.0492,3.27293 3.66236,4.12085 0,0 0.56068,1.41137 2.02452,0.45849 0,0 1.1324,-0.17677 0.5662,-1.92233 -0.5662,-1.75661 -0.72916,-2.36424 -1.6848,-6.76404 0,0 -0.17676,-1.86157 -2.08804,-1.6848 -1.91404,0.16572 -13.90925,1.57708 -25.18082,0.67115 0,0 -1.17936,-0.28172 -1.4086,0.96393 0,0 -0.51096,0.83687 0.44744,1.62403 0,0 3.31988,1.53013 3.31988,7.38273 0,5.86089 0,9.80773 0,9.80773 0,0 0.56896,7.77769 -2.19024,7.77769 0,0 -1.18764,0.50544 -3.2094,-3.49665 -2.02728,-3.99932 -2.14052,-4.11532 -2.14052,-4.11532 0,0 -1.63508,-5.24773 -8.68085,-5.46593 0,0 9.74697,-1.63232 8.84657,-8.95704 0,0 -0.16572,-5.58193 -7.48492,-5.80289"/>
    <path inkscape:connector-curvature="0" id="path3191" style="fill:#869ab8;fill-opacity:1;fill-rule:nonzero;stroke:none" d="m 583.76097,482.22843 c 3.04645,4.33352 3.44417,6.36633 3.44417,6.36633 -2.41672,0.40048 -6.41604,-0.0552 -6.41604,-0.0552 1.17107,-3.15692 2.97187,-6.31109 2.97187,-6.31109 m 25.52883,9.13105 c 0,0 0.22096,7.37444 -2.53825,6.86624 0,0 -0.96392,0.62421 -3.27016,-3.6016 -2.30348,-4.22028 -5.29468,-10.2524 -10.13917,-21.96865 0,0 -1.01364,-3.27293 -3.09892,-3.27293 0,0 -1.2346,0.0608 -2.52996,0.78164 -1.30088,0.7402 -5.41068,3.05473 -9.68896,4.29209 0,0 -1.13517,0.3342 -0.79545,1.46108 0,0 -0.17124,0.84792 1.07441,1.29536 1.23735,0.45848 2.31176,0.95564 2.64319,1.57984 0,0 -1.28983,4.16504 -3.6596,8.44885 -2.36424,4.28656 -4.45504,10.53689 -10.02592,13.35133 0,0 -1.07993,0.232 -0.73192,1.53012 0.39496,1.46108 1.12688,1.06888 1.12688,1.06888 6.4768,-0.67944 8.4516,-0.116 9.91821,0 1.46108,0.10761 1.23459,-1.06888 1.23459,-1.06888 0.3922,-0.7402 -0.11047,-1.18764 -0.11047,-1.18764 l -0.61868,-0.78992 c 0,0 -2.42501,-0.62421 1.01087,-7.54845 0,0 6.42985,-0.16572 9.91821,-0.116 0,0 1.30089,2.193 1.30089,4.84172 0,2.65701 -2.31453,3.27017 -2.31453,3.27017 0,0 -0.96116,0.39772 -0.51372,1.57708 0,0 0.17389,1.12964 1.30365,1.02192 1.12411,-0.116 19.83089,-0.90592 35.04102,0.0497 0,0 1.06612,0.0581 1.34508,-0.89488 0,0 0.6242,-1.18764 -0.44468,-1.86156 0,0 -2.99121,-1.35336 -3.21216,-6.13432 -0.22925,-4.80029 -0.16572,-13.87334 -0.16572,-13.87334 0,0 -0.22924,-5.06544 2.9774,-6.637 0,0 0.84516,-0.40325 0.40048,-1.53289 0,0 -0.22648,-1.06335 -1.24841,-0.95564 -1.01088,0.11601 -11.65272,0.67945 -16.66568,0.0579 0,0 -1.13793,-0.0579 -1.35613,0.89764 0,0 -0.56067,0.91145 0.40049,1.64337 0.95564,0.72916 3.43312,2.41672 3.43312,7.66168 0,5.23945 0,9.74697 0,9.74697"/>
    <path inkscape:connector-curvature="0" id="path3193" style="fill:#869ab8;fill-opacity:1;fill-rule:nonzero;stroke:none" d="m 644.43854,484.99316 0,-5.52393 c 0,0 0.116,-4.10704 3.21493,-4.10704 3.09865,0 3.14587,3.47731 2.98568,4.61801 -0.15754,1.12688 -0.44744,5.01296 -6.20061,5.01296 m 9.69173,-14.03354 c 0,0 -12.39569,1.46384 -23.88546,0.34249 0,0 -1.46384,-0.39773 -1.63784,1.12135 0,0 -0.10761,1.01364 0.51649,1.41689 0.61868,0.38391 3.1514,1.91128 3.31987,7.2032 0.1739,5.29468 0.28173,3.77284 0.1739,10.98985 0,0 0.43639,6.92424 -3.49389,8.61733 0,0 -1.01916,0.22372 -0.45572,1.69584 0,0 0.33972,1.12688 1.28708,0.72916 0,0 9.24429,-0.61316 17.24846,0.0581 0,0 0.90592,0.33972 1.18212,-0.84792 0,0 0.73192,-0.78716 -0.38944,-1.63508 -1.13517,-0.83688 -3.15969,-2.309 -3.39169,-5.86089 -0.22648,-3.55464 -0.16572,-6.3608 -0.16572,-6.3608 l 0.79268,0 c 0,0 2.64873,-0.34524 4.44953,3.82808 1.80632,4.1678 3.04368,7.21425 3.04368,7.21425 0,0 1.1766,3.32264 3.09616,4.39428 0,0 0.78716,0.73745 3.7176,0.38944 0,0 4.78925,-0.27344 9.52049,-2.46643 0,0 1.06888,-0.23201 0.72639,-1.46937 0,0 0.23201,-0.96945 -1.11583,-1.24288 -1.35336,-0.28448 -2.36424,-1.57984 -3.3254,-3.49941 -0.96393,-1.90852 -2.43053,-4.73124 -2.43053,-4.73124 0,0 -1.96652,-4.88868 -8.3936,-4.95496 0,0 8.8438,-1.51908 8.8438,-8.17818 0,-6.63699 -7.87712,-6.753 -7.87712,-6.753"/>
    <path inkscape:connector-curvature="0" id="path3195" style="fill:#ffffff;fill-opacity:1;fill-rule:nonzero;stroke:none" d="m 424.77133,487.84903 c 0,10.31317 -8.35217,18.67363 -18.66258,18.67363 -10.31317,0 -18.67639,-8.36046 -18.67639,-18.67363 0,-10.32146 8.36322,-18.68192 18.67639,-18.68192 10.31041,0 18.66258,8.36046 18.66258,18.68192"/>
    <path inkscape:connector-curvature="0" id="path3197" style="fill:#869ab8;fill-opacity:1;fill-rule:nonzero;stroke:none" d="m 414.12673,476.5885 c 5.68688,1.74557 9.8243,7.04025 9.8243,13.31267 0,0.92249 -0.0939,1.80632 -0.25962,2.66529 l -0.0221,0.12153 c -0.43087,2.45814 -1.4307,4.73124 -2.84758,6.65357 l -0.0276,0.0305 c 2.49129,-3.17074 3.98275,-7.18111 3.98275,-11.53948 0,-10.31317 -8.36599,-18.68192 -18.68744,-18.68192 -4.69534,0 -8.98191,1.73727 -12.26864,4.60143 l -0.0469,0.0415 c -2.58796,2.37529 -4.2037,5.78631 -4.2037,9.57296 0,1.56051 0.27067,3.07407 0.78439,4.4661 l 0.025,0.0663 c 1.30089,2.8393 4.17056,4.82239 7.50149,4.82239 4.54896,0 8.24446,-3.68446 8.24446,-8.2417 l -0.025,-3.54636 c 0,-1.61851 0.91145,-3.0492 2.251,-3.77836 l 0.0133,-0.004 c 1.04679,-0.57173 2.24272,-0.90869 3.52979,-0.90869 0.77611,0 1.51908,0.11601 2.22062,0.33972 l 0.0111,0.009"/>
    <path inkscape:connector-curvature="0" id="path3199" style="fill:#869ab8;fill-opacity:1;fill-rule:nonzero;stroke:none" d="m 391.79902,499.86357 c 3.42759,4.07665 8.56485,6.6729 14.30973,6.6729 4.6981,0 8.99847,-1.73451 12.27969,-4.59867 l 0.0442,-0.0331 c 2.58796,-2.38358 4.20647,-5.7946 4.20647,-9.57849 0,-1.56327 -0.2762,-3.07406 -0.78716,-4.46886 l -0.025,-0.0581 c -1.30365,-2.85587 -4.16504,-4.83343 -7.50425,-4.83343 -4.54896,0 -8.23894,3.68722 -8.23894,8.23617 l 0.025,3.55741 c 0,1.62127 -0.91145,3.04644 -2.25376,3.7756 l -0.0133,0.009 c -1.04678,0.57173 -2.251,0.90592 -3.52426,0.90592 -0.78164,0 -1.52737,-0.12705 -2.22615,-0.33972 l -0.009,-0.011 c -5.68964,-1.75109 -9.82706,-7.04853 -9.82706,-13.3099 0,-0.91421 0.091,-1.80909 0.25962,-2.67358 l 0.0155,-0.11601 c 0.43363,-2.46367 1.43346,-4.72019 2.85863,-6.6508 l 0.0177,-0.0303 c -2.48577,3.17074 -3.97999,7.18111 -3.97999,11.5312 0,2.99673 0.70983,5.83879 1.96376,8.35218 l -0.15467,0.116 c 0,0 -0.72364,0.55515 -2.19576,-1.12688 -1.46661,-1.69585 -10.08393,-12.11673 -10.08393,-12.11673 0,0 5.46869,-5.86089 10.82137,-8.22513 0,0 1.40032,-0.45296 1.06888,-1.68756 l -0.22924,-0.73744 c 0,0 -0.0469,-0.79269 -1.29536,-0.62421 -1.23736,0.17412 -7.10101,0.62421 -12.95361,0.0581 0,0 -0.90316,0 -1.24012,0.74021 0,0 -0.56897,0.95564 0,1.51079 0.5662,0.57173 2.59624,1.97757 2.59624,3.89161 0,0 0.43916,1.41439 -2.65148,3.66236 -3.10423,2.25918 -5.0155,3.72026 -6.3081,4.40246 l 0.0497,-5.29744 c 0,0 -0.16572,-4.44953 3.04645,-6.54309 0,0 0.78439,-0.33144 0.50544,-1.06336 l -0.21809,-0.56344 c 0,0 -0.17964,-0.90592 -1.13516,-0.79821 0,0 -5.57088,0.62421 -16.67674,0.11601 0,0 -0.73468,-0.0581 -1.01088,0.5082 l -0.22372,0.44743 c 0,0 -0.39496,1.02193 0.22372,1.46937 0.62421,0.4502 3.21217,1.97756 3.32817,6.64252 0,0 0.27896,8.84933 -0.116,12.28521 -0.39773,3.44141 -0.67392,5.41345 -3.43589,7.83017 0,0 -0.73192,0.57449 -0.39496,1.41412 l 0.39496,0.72916 c 0,0 0.27896,0.5662 1.2346,0.45849 0.96117,-0.11601 7.89093,-0.79821 16.67674,-0.11601 0,0 0.6242,0.22372 0.90316,-0.39219 l 0.39496,-0.78993 c 0,0 0.4502,-0.78716 -0.39496,-1.41136 -0.84793,-0.62144 -3.10169,-2.41672 -3.1514,-5.9106 -0.0552,-3.49388 -0.0552,-5.70622 -0.0552,-5.70622 0,0 1.52184,0.62697 9.6282,12.63322 0,0 2.8752,5.18145 8.95705,1.97481 0,0 4.44952,-2.42501 6.30832,-4.00209 l 0.19621,-0.116"/>
  </g>
</svg>
