<svg enable-background="new 0 0 1000 124" viewBox="0 0 1000 124"
  xmlns="http://www.w3.org/2000/svg">
  <path style="fill:#869ab8;" d="m238.9 95.2h31.4v28.8h-89.9v-124h89v28.8h-30.6v19.8h27.9v26.1h-27.9v20.5zm-137.6 28.8h59.3v-124h-59.3zm-42.9-124h-58.4v124h85.4v-33.2h-27zm595.7 74.6h27.9v-26.1h-27.9v-19.7h30.6v-28.8h-89v124h89.9v-28.8h-31.5zm-230.7 16.1c0 16.2-9.5 26.8-25.7 30.7-7.1 1.7-18.6 2.6-29 2.6h-80.5v-124h80c10.2 0 21.4.9 28.4 2.6 15.8 3.9 25.1 14.5 25.1 30.7 0 14.9-8.8 25.1-20 28.4 12 2.7 21.7 13.3 21.7 29m-78.7-40.4h8.1c10.8 0 14.4-5.4 14.4-13s-3.6-13-14.4-13h-8.1zm24.3 36c0-8.1-3.7-13.5-15.3-13.5h-9v27h9c11.7-.1 15.3-5.5 15.3-13.5m148-40.5h-19.8v-45.8h-58.4v124h58.4v-47.6h19.8v47.6h58.4v-124h-58.4zm450.9 26.5c15.3-7 22.1-18.6 22.1-34.4 0-18.4-11-30.4-29.4-34.9-8.1-1.9-21.2-3-33-3h-71.9v124h55.7v-39.5h5l21.1 39.5h62.5zm-48.4-13.9h-8.1v-29.6h8.1c10.8 0 14.4 5.4 14.4 14.8s-3.6 14.8-14.4 14.8zm-104.1 13.9c15.3-7 22.1-18.6 22.1-34.4 0-18.4-11-30.4-29.4-34.9-8.1-1.9-21.2-3-33-3h-71.9v124h55.7v-39.5h5l21.1 39.5h62.5zm-48.5-13.9h-8.1v-29.6h8.1c10.8 0 14.4 5.4 14.4 14.8s-3.6 14.8-14.4 14.8z"/>
</svg>
