<?xml version="1.0" encoding="UTF-8" standalone="no"?>
<svg id="Layer_1" version="1.1"
  xmlns="http://www.w3.org/2000/svg"
  xmlns:xlink="http://www.w3.org/1999/xlink" x="0px" y="0px" viewBox="0 0 367.9 64" xml:space="preserve" class="footer__svg">
  <g id="XMLID_1456_">
    <g id="XMLID_1457_">
      <path id="XMLID_1472_" d="M85.4,48.1V15.9c0-0.8,0.7-1.5,1.5-1.5h5.6c0.8,0,1.5,0.7,1.5,1.5v24.8
        c0,0.8,0.7,1.5,1.5,1.5h13.9c0.8,0,1.5,0.7,1.5,1.5v4.4c0,0.8-0.7,1.5-1.5,1.5H86.9C86.1,49.6,85.4,48.9,85.4,48.1z" fill="#869ab8"></path>
      <path id="XMLID_1470_" d="M232.5,48.1V15.9c0-0.8,0.7-1.5,1.5-1.5h5.6c0.8,0,1.5,0.7,1.5,1.5v24.8
        c0,0.8,0.7,1.5,1.5,1.5h13.9c0.8,0,1.5,0.7,1.5,1.5v4.4c0,0.8-0.7,1.5-1.5,1.5H234C233.2,49.6,232.5,48.9,232.5,48.1z" fill="#869ab8"></path>
      <path id="XMLID_1467_" d="M132.2,13.5c-11,0-19.1,7.1-19.1,18.4c0,11.1,8.1,18.7,19.1,18.7
        c11,0,19.2-7.5,19.2-18.7C151.3,20.6,143.2,13.5,132.2,13.5z M132.2,42.8c-5.9,0-10-4.6-10-10.9c0-6.2,4.1-10.7,10-10.7
        c6,0,10.1,4.6,10.1,10.7C142.3,38.2,138.1,42.8,132.2,42.8z" fill="#869ab8"></path>
      <path id="XMLID_1466_" d="M174.2,50.5c-10.8,0-18.9-7.5-18.9-18.6c0-11.3,8.3-18.5,19.1-18.5
      c4.3,0,9,1.4,12,4c0.6,0.6,0.7,1.6,0.1,2.2l-3.6,3.6c-0.6,0.6-1.5,0.6-2,0c-1.6-1.5-3.9-2.2-6.2-2.2c-5.9,0-10.1,4.6-10.1,10.8
      c0,6.4,4.1,10.8,10,10.8c2.7,0,5-1,6.5-2.5c0.6-0.5,1.5-0.5,2,0l3.7,3.5c0.6,0.6,0.6,1.6,0,2.1C183.8,48.7,179.5,50.5,174.2,50.5z
      " fill="#869ab8"></path>
      <path id="XMLID_1463_" d="M212.6,14.6h-6.3c-0.6,0-1.1,0.4-1.4,0.9l-13.5,32c-0.4,1,0.3,2.1,1.4,2.1h6
      c0.6,0,1.2-0.4,1.4-1l1.9-4.9c0.2-0.6,0.8-1,1.4-1H215c0.6,0,1.2,0.4,1.4,0.9l2,5c0.2,0.6,0.8,0.9,1.4,0.9h6.2
      c1.1,0,1.8-1.1,1.4-2.1l-13.4-32C213.7,15,213.2,14.6,212.6,14.6z M205.6,34l2.3-6.3c0.5-1.3,2.3-1.3,2.8,0l2.3,6.3
      c0.3,1-0.4,2-1.4,2H207C205.9,36,205.2,34.9,205.6,34z" fill="#869ab8"></path>
      <path id="XMLID_1460_" d="M284.2,14.6h-6.3c-0.6,0-1.1,0.4-1.4,0.9l-13.5,32c-0.4,1,0.3,2.1,1.4,2.1h6
      c0.6,0,1.2-0.4,1.4-1l1.9-4.9c0.2-0.6,0.8-1,1.4-1h11.6c0.6,0,1.2,0.4,1.4,0.9l2,5c0.2,0.6,0.8,0.9,1.4,0.9h6.2
      c1.1,0,1.8-1.1,1.4-2.1l-13.4-32C285.4,15,284.8,14.6,284.2,14.6z M277.2,34l2.3-6.3c0.5-1.3,2.3-1.3,2.8,0l2.3,6.3
      c0.3,1-0.4,2-1.4,2h-4.6C277.6,36,276.8,34.9,277.2,34z" fill="#869ab8"></path>
      <path id="XMLID_1459_" d="M303.6,48.1v-3.8c0-1.4,0.5-2.7,1.3-3.7l14.4-17.8c0.4-0.5,0-1.2-0.6-1.2h-13.3
      c-0.8,0-1.5-0.7-1.5-1.5v-4.2c0-0.8,0.7-1.5,1.5-1.5h24c0.8,0,1.5,0.7,1.5,1.5v3.2c0,1.4-0.5,2.7-1.3,3.7L314.9,41
      c-0.4,0.5-0.1,1.2,0.6,1.2h14.4c0.8,0,1.5,0.7,1.5,1.5v4.4c0,0.8-0.7,1.5-1.5,1.5h-24.7C304.3,49.6,303.6,48.9,303.6,48.1z" fill="#869ab8"></path>
      <path id="XMLID_1458_" d="M355.7,36.5v11.6c0,0.8-0.7,1.5-1.5,1.5h-5.5c-0.8,0-1.5-0.7-1.5-1.5V36.4
      c0-1.1-0.3-2.3-1-3.2l-10.7-16.5c-0.6-1,0.1-2.3,1.2-2.3h6.7c0.5,0,1,0.3,1.3,0.7l6.4,11.2c0.3,0.5,1,0.5,1.3,0l6.4-11.2
      c0.3-0.5,0.8-0.7,1.3-0.7h6.3c1.2,0,1.9,1.3,1.2,2.3l-11,16.5C356,34.2,355.7,35.3,355.7,36.5z" fill="#869ab8"></path>
    </g>
    <g id="XMLID_571_">
      <path id="XMLID_573_" d="M45.1,1.8l-0.4,1l-3.2,7.6c0.3-0.9-0.3-1.8-1.3-1.8h-26c-1,0-1.6,1-1.2,1.9
      l6.2,14.9c0.2,0.5,0.7,0.8,1.2,0.8h12.4c1,0,1.6,1,1.3,1.9L33.7,29l-3.2,7.6c0.3-0.9-0.3-1.8-1.3-1.8h-4.1c-1,0-1.6,1-1.2,1.9
      l10.5,25.1c0.4,1.1-0.3,2.3-1.5,2.3h-6.5c-0.7,0-1.2-0.4-1.5-1L0.2,3.8C-0.5,2,0.8,0,2.7,0h41.1C44.8,0,45.4,0.9,45.1,1.8z" fill="#869ab8"></path>
      <path id="XMLID_572_" d="M57.5,8.4l-12,28.5c-0.6,1.5-2.1,2.5-3.7,2.5H31.3c-1,0-1.6-1-1.2-1.9l0.4-0.9
      c0,0,0,0,0-0.1l0,0l3.2-7.6c-0.4,0.9,0.3,1.9,1.2,1.9h2.8c0.5,0,1-0.3,1.2-0.8l6.3-14.9c0.4-0.9-0.3-1.9-1.2-1.9h-1.7
      c-1,0-1.6-1-1.2-1.9l0.4-0.9c0,0,0-0.1,0-0.1l3.2-7.6c-0.4,0.9,0.3,1.9,1.2,1.9H55C57,4.7,58.3,6.6,57.5,8.4z" fill="#869ab8"></path>
    </g>
  </g>
</svg>
