<?xml version="1.0" encoding="utf-8"?>
<!-- Generator: Adobe Illustrator 21.1.0, SVG Export Plug-In . SVG Version: 6.00 Build 0)  -->
<svg version="1.1" id="Layer_1"
  xmlns="http://www.w3.org/2000/svg"
  xmlns:xlink="http://www.w3.org/1999/xlink" x="0px" y="0px" viewBox="0 0 300 51.06" style="enable-background:new 0 0 300 51.06;" xml:space="preserve">
  <style type="text/css">
	.st0{fill:#869ab8;}
	.st1{fill:#FFFFFF;}
  </style>
  <g style="fill:#869ab8;">
    <g>
      <g>
        <g>
          <path class="st0" d="M50.579,25.776c0,13.966-11.322,25.284-25.291,25.284C11.313,51.06,0,39.743,0,25.776
					C0,11.807,11.313,0.481,25.288,0.481C39.257,0.481,50.579,11.807,50.579,25.776z"/>
          <path class="st1" d="M21.945,39.363v-8.429h3.653l6.324,8.429h6.465l-7.641-10.171c2.381-1.709,3.946-4.489,3.946-7.637
					c0-5.171-4.205-9.37-9.375-9.37H16.78v27.179H21.945z M21.945,17.345h3.37c2.319,0,4.216,1.887,4.216,4.21
					c0,2.33-1.897,4.215-4.216,4.215h-3.37V17.345z"/>
        </g>
        <path d="M221.335,38.391c-0.468,0.98-1.511,2.414-3.621,2.414c-1.351,0-3.899-0.906-3.899-4.345V20.74h12.744v-8.649h-12.744
				V3.01h-8.65v9.081h-6.142v8.649h6.142v15.72c-0.002,8.137,6.381,12.997,12.549,12.997c6.311,0,10.493-4.296,12.045-8.803
				L221.335,38.391z"/>
        <path d="M114.493,12.091v1.617c-2.494-1.588-5.362-2.512-8.424-2.512c-9.408,0-17.062,8.58-17.062,19.117
				c0,10.54,7.653,19.114,17.062,19.114c3.062,0,5.931-0.92,8.424-2.511v1.616h8.649V12.091H114.493z M106.069,40.778
				c-4.639,0-8.415-4.695-8.415-10.466c0-5.767,3.776-10.462,8.415-10.462c4.645,0,8.424,4.695,8.424,10.462
				C114.493,36.083,110.714,40.778,106.069,40.778z"/>
        <path d="M187.347,12.091v21.407c0,4.015-3.264,7.28-7.282,7.28c-4.015,0-7.281-3.265-7.281-7.28V12.091h-8.65v21.407
				c0,8.783,7.147,15.929,15.931,15.929c2.623,0,5.097-0.645,7.282-1.776v0.881h8.649V12.091H187.347z"/>
        <path d="M284.069,11.196c-2.623,0-5.094,0.651-7.279,1.778v-0.883h-8.65v36.441h8.65V27.129c0-4.019,3.264-7.286,7.279-7.286
				c4.016,0,7.281,3.267,7.281,7.286v21.402H300V27.129C300,18.348,292.856,11.196,284.069,11.196z"/>
        <path d="M264.68,30.311c0-10.554-7.659-19.145-17.07-19.145c-9.572,0-17.071,8.412-17.071,19.145
				c0,11.286,9.627,19.148,18.269,19.148c4.362,0,10.334-1.496,15.03-8.157l-7.532-4.35c-6.388,7.804-15.29,2.507-16.178-4.095
				l24.384,0.005C264.608,32.014,264.68,31.162,264.68,30.311z M254.9,25.125h-14.586C241.933,18.039,253.295,16.563,254.9,25.125z" />
        <polygon points="145.32,29.172 162.404,12.091 150.171,12.091 136.982,25.284 136.982,0 128.332,0 128.332,48.531
				136.982,48.531 136.982,33.063 152.447,48.531 164.674,48.531 			"/>
        <path d="M64.287,48.531V34.413h6.118l10.592,14.118h10.828L79.026,31.496c3.989-2.863,6.608-7.518,6.608-12.792
				c0-8.66-7.042-15.694-15.702-15.694H55.637v45.522H64.287z M64.287,11.653h5.645c3.884,0,7.061,3.16,7.061,7.051
				c0,3.902-3.177,7.06-7.061,7.06h-5.645V11.653z"/>
      </g>
    </g>
  </g>
</svg>
