<?xml version="1.0" encoding="utf-8"?>
<svg xmlns="http://www.w3.org/2000/svg"
  xmlns:xlink="http://www.w3.org/1999/xlink" version="1.1" id="Page_1" x="0px" y="0px" width="426px" height="96px" viewBox="0 0 426 98" enable-background="new 0 0 426 98" xml:space="preserve">
  <g>
    <path fill-rule="evenodd" clip-rule="evenodd" fill="#869ab8" d="M47.7,0c26.4,0,47.7,21.4,47.7,47.7S74.1,95.5,47.7,95.5   S0,74.1,0,47.7S21.4,0,47.7,0L47.7,0z M47.7,9.1c21.4,0,38.7,17.3,38.7,38.7c0,14.2-7.7,26.7-19.2,33.4c2.4-8.4,3.4-17,3-26.9   c2.5,0.7,3.9,1.1,6.4,1.9c-2.9-7.3-6-13.9-10.1-20.6c-3.6,6.9-8.5,13.4-13.4,18.5l8-0.5c-6.9,12.3-16.6,18.3-28.9,20   C29.4,59.7,31.5,37,47.2,26.4l1.6,7.6c3.1-4.9,9.1-11.4,13.6-15.9c-7.1-2.8-15.3-3.7-23.3-2.2c1.3,1.1,2.9,2.5,4.2,3.6   C25.6,27,15.9,39.3,9.5,53.6c-0.3-1.9-0.4-3.9-0.4-5.8C9.1,26.4,26.4,9.1,47.7,9.1L47.7,9.1z"/>
    <g>
      <path fill="#869ab8" d="M138,70.9c0,0.7,0,1.4,0,2.1c-1.9,0-3.7,0-5.6,0c0,1.3,0,2.7,0,4h6.2c0,0.7,0,1.4,0,2.1H130V65.2h8.5    c0,0.7,0,1.4,0,2.1c-2.1,0-4.1,0-6.2,0v3.5C134.2,70.9,136.1,70.9,138,70.9L138,70.9z M120.3,79h-8.5V65.2c0.8,0,1.6,0,2.4,0v11.7    h6.2C120.3,77.6,120.3,78.3,120.3,79L120.3,79z M165.8,65.3l-3.2,3.7c-0.4-0.2-0.8-0.3-1.2-0.5l1.2-3.2    C163.6,65.3,164.7,65.3,165.8,65.3L165.8,65.3z M171.5,67.8c-0.3,0.2-0.5,0.6-0.5,1.3c0,1.2,0.4,1.6,1.5,1.8l2.2,0.2    c2.2,0.2,3.5,1.4,3.5,3.8l0,0.8c0,0.6-0.1,1.2-0.3,1.7c-0.2,0.5-0.5,0.9-0.9,1.2c-0.5,0.4-1.1,0.5-1.7,0.6    c-0.6,0.1-1.3,0.1-1.9,0.1l-4.5,0c0-0.8,0-1.6,0-2.4h4.9c0.2,0,0.4,0,0.6,0c1,0,1.6-0.2,1.5-1.7c0-0.7-0.2-1.1-0.4-1.3    c-0.3-0.2-0.7-0.3-1.2-0.4l-2.3-0.2c-0.8-0.1-1.7-0.3-2.3-0.9c-0.6-0.6-1-1.5-1-3c0-0.2,0-0.4,0-0.7c0.1-1.5,0.6-2.4,1.5-2.9    c0.9-0.5,2.1-0.6,3.3-0.6l4.1,0c0,0.8,0,1.6,0,2.4h-4.4C172.4,67.6,171.8,67.6,171.5,67.8L171.5,67.8z M199.4,79V65.2l6,0    c0.5,0,1.2,0.2,1.8,0.6c0.6,0.4,1,1.1,1,2.2l0,1.7c0,1.2-0.6,1.8-1,2.2c0.4,0.3,1,1,1,2.1l0,2.2c0,1.5-1.3,2.8-2.8,2.8L199.4,79    L199.4,79z M205.6,73.2c-0.1-0.1-0.4-0.3-0.6-0.3h-3.3v3.9l3.3,0c0.2,0,0.4-0.1,0.6-0.3c0.1-0.1,0.2-0.3,0.2-0.6l0-2.1    C205.9,73.7,205.8,73.4,205.6,73.2L205.6,73.2z M205.7,67.6c-0.2-0.2-0.4-0.3-0.7-0.3l-3.3,0v3.5l3.4,0c0.2,0,0.4-0.1,0.6-0.3    c0.2-0.2,0.3-0.5,0.3-0.7l0-1.6C205.9,68.1,205.8,67.8,205.7,67.6L205.7,67.6z M292.2,70.9h5.6c0,0.7,0,1.4,0,2.1h-5.6v4h6.2    c0,0.7,0,1.4,0,2.1h-8.5V65.2c2.8,0,5.7,0,8.5,0c0,0.7,0,1.4,0,2.1h-6.2V70.9L292.2,70.9z M279.1,79h-7.7V65.2c0.8,0,1.6,0,2.4,0    v11.7h5.3C279.1,77.6,279.1,78.3,279.1,79L279.1,79z M262.2,67.4h-3.5V79c-0.8,0-1.6,0-2.4,0V67.4h-3.5c0-0.7,0-1.4,0-2.1h9.4    C262.2,66,262.2,66.7,262.2,67.4L262.2,67.4z M243.5,67.4H240V79c-0.8,0-1.6,0-2.4,0V67.4h-3.5c0-0.7,0-1.4,0-2.1h9.4    C243.5,66,243.5,66.7,243.5,67.4L243.5,67.4z M219.4,76.1l-0.7,3h-2.5l3.8-13.8c1,0,2,0,3.1,0l3.8,13.8c-0.8,0-1.7,0-2.5,0l-0.8-3    H219.4L219.4,76.1z M219.9,74h3l-1.5-6L219.9,74L219.9,74z M156.4,67.4c-1.2,0-2.3,0-3.5,0V79c-0.8,0-1.6,0-2.4,0V67.4    c-1.2,0-2.3,0-3.5,0c0-0.7,0-1.4,0-2.1h9.4C156.4,66,156.4,66.7,156.4,67.4L156.4,67.4z"/>
      <g>
        <g>
          <polygon fill="#869ab8" points="121.7,27.6 125.1,47 132.7,47 141.1,16.5 133.7,16.5 129.1,36.3 125.9,16.5 122.6,16.5       120.8,16.5 117.5,16.5 114.3,36.3 109.7,16.5 102.3,16.5 110.7,47 118.3,47 121.7,27.6     "/>
          <path fill="#869ab8" d="M145.8,47l1.4-6.3h7.7l1.4,6.3h6.9l-8.4-30.5h-7.6L138.9,47H145.8L145.8,47z M151.1,24l2.6,11.5h-5.2      L151.1,24L151.1,24z"/>
          <path fill="#869ab8" d="M173.3,35.6h4.2l4.1,11.4h7.6l-5.4-12.7c2.3-0.8,3.8-2.8,3.8-5.2l0-6.8c0-2.8-1.9-4.9-4.4-5.5      c-1.6-0.4-3.2-0.3-4.9-0.3h-11.5V47h6.5V35.6L173.3,35.6z M173.3,22.4h5.5c1.2,0,2.3,0.6,2.3,2l0,3c0,1.5-1,2.2-2.3,2.2h-5.5      V22.4L173.3,22.4z"/>
          <path fill="#869ab8" d="M207.1,47.3c3.2,0,5.1-0.9,6.7-2.1V29h-10.3v5.8h3.8c0,2,0,3.7,0,5.8c-0.6,0.1-1.3,0.2-2,0.2h-2.6      c-3.7,0-4.6-2.6-4.6-5.4v-7.6c0-2.9,1.3-5,4.8-5h10.4v-6.5l-10.8,0c-6,0-10.3,3.6-10.9,9.8c0,0.5-0.1,1-0.1,1.5l0,8.8      c0,6.4,4.4,10.9,10.4,10.9L207.1,47.3L207.1,47.3z"/>
          <path fill="#869ab8" d="M222.8,47l1.4-6.3h7.7l1.4,6.3h6.9l-8.4-30.5h-7.6L215.9,47H222.8L222.8,47z M228,24l2.6,11.5h-5.2      L228,24L228,24z"/>
          <polygon fill="#869ab8" points="265.5,28.3 265.5,47 271.8,47 271.8,16.5 263.6,16.5 257.5,39.2 251.5,16.5 243.3,16.5       243.3,47 249.5,47 249.5,28.3 254.2,47 260.8,47 265.5,28.3     "/>
          <polygon fill="#869ab8" points="283.7,47 283.7,16.5 277.2,16.5 277.2,47 283.7,47     "/>
          <polygon fill="#869ab8" points="311.6,47 311.6,16.5 305.3,16.5 305.3,34.7 295.5,16.5 289.1,16.5 289.1,47 295.3,47       295.3,28.8 305.2,47 311.6,47     "/>
          <polygon fill="#869ab8" points="376.5,47 376.5,16.5 370.2,16.5 370.2,34.7 360.4,16.5 354,16.5 354,47 360.2,47 360.2,28.8       370.1,47 376.5,47     "/>
          <polygon fill="#869ab8" points="399.7,28.3 388,28.3 388,22.4 400.9,22.4 400.9,16.5 381.5,16.5 381.5,47 400.9,47 400.9,41.1       388,41.1 388,34.1 399.7,34.1 399.7,28.3     "/>
          <polygon fill="#869ab8" points="425.4,22.4 425.4,16.5 404.2,16.5 404.2,22.4 411.6,22.4 411.6,47 418.1,47 418.1,22.4       425.4,22.4     "/>
          <path fill="#869ab8" d="M331,47.3c3.2,0,5.1-0.9,6.7-2.1V29h-10.3v5.8h3.8c0,2,0,3.7,0,5.8c-0.6,0.1-1.3,0.2-2,0.2h-2.6      c-3.7,0-4.6-2.6-4.6-5.4v-7.6c0-2.9,1.3-5,4.8-5h10.4v-6.5l-10.8,0c-6,0-10.3,3.6-10.9,9.8c0,0.5-0.1,1-0.1,1.5l0,8.8      c0,6.4,4.4,10.9,10.4,10.9L331,47.3L331,47.3z"/>
        </g>
        <polygon fill-rule="evenodd" clip-rule="evenodd" fill="#869ab8" points="342.9,41.3 349.2,41.3 349.2,47.5 342.9,47.5      342.9,41.3    "/>
      </g>
    </g>
  </g>
</svg>
