<?xml version="1.0" standalone="no"?>
<!DOCTYPE svg PUBLIC "-//W3C//DTD SVG 20010904//EN"
 "http://www.w3.org/TR/2001/REC-SVG-20010904/DTD/svg10.dtd">
<svg version="1.0" xmlns="http://www.w3.org/2000/svg"
 width="512.000000pt" height="512.000000pt" viewBox="0 0 512.000000 512.000000"
 preserveAspectRatio="xMidYMid meet">
<metadata>
Created by potrace 1.14, written by Peter Selinger 2001-2017
</metadata>
<g transform="translate(0.000000,512.000000) scale(0.100000,-0.100000)"
fill="#000000" stroke="none">
<path d="M1235 3546 c-136 -45 -510 -285 -828 -533 -263 -204 -336 -286 -379
-426 -25 -82 -20 -175 11 -241 30 -62 90 -114 386 -339 307 -232 422 -311 540
-366 117 -56 176 -72 292 -78 168 -10 272 21 389 115 33 26 233 235 446 465
424 458 423 456 423 577 0 95 -33 155 -147 268 -51 50 -120 113 -153 138 -156
121 -504 331 -652 391 -78 33 -99 37 -188 40 -63 1 -115 -3 -140 -11z m535
-508 c195 -59 323 -260 291 -459 -54 -332 -452 -469 -695 -239 -171 162 -171
438 0 600 109 103 263 140 404 98z"/>
<path d="M1562 2736 c-34 -32 -37 -38 -37 -91 0 -53 3 -59 37 -91 32 -29 45
-34 84 -34 125 0 178 150 80 225 -51 39 -115 35 -164 -9z"/>
<path d="M3620 3541 c-87 -28 -174 -71 -335 -166 -268 -157 -410 -261 -548
-400 -99 -101 -132 -165 -132 -255 0 -121 -1 -120 423 -577 213 -230 413 -439
446 -465 117 -94 221 -125 389 -115 225 12 351 80 832 444 296 225 356 277
386 339 68 141 9 335 -147 485 -130 125 -436 352 -725 537 -170 109 -257 156
-328 178 -64 19 -194 17 -261 -5z m-30 -503 c103 -31 199 -113 249 -211 126
-251 -33 -558 -309 -597 -331 -47 -576 290 -432 594 85 178 300 271 492 214z"/>
<path d="M3393 2745 c-94 -75 -44 -225 76 -225 121 0 175 136 87 217 -47 43
-114 46 -163 8z"/>
</g>
</svg>
