<?xml version="1.0" encoding="UTF-8" standalone="no"?>
<!DOCTYPE svg PUBLIC "-//W3C//DTD SVG 1.1//EN" "http://www.w3.org/Graphics/SVG/1.1/DTD/svg11.dtd">
<svg width="100%" height="100%" viewBox="0 0 1024 1024" version="1.1" xmlns="http://www.w3.org/2000/svg" xmlns:xlink="http://www.w3.org/1999/xlink" xml:space="preserve" xmlns:serif="http://www.serif.com/" style="fill-rule:evenodd;clip-rule:evenodd;stroke-miterlimit:10;">
    <g transform="matrix(1,0,0,1,-54.8333,-26205.4)">
        <g id="Artboard1" transform="matrix(0.339642,0,0,0.339642,3389.89,14205.6)">
            <rect x="-9819.34" y="35331" width="3014.94" height="3014.94" style="fill:none;"/>
            <g id="api-mocking-ui-ux-design-research-focus-group.svg" transform="matrix(4.05198,0,0,4.05198,-8311.87,36838.5)">
                <g transform="matrix(1,0,0,1,-375,-250)">
                    <g id="freepik--background-simple--inject-60">
                        <g>
                            <path d="M277.374,176.658C242.209,179.505 208.299,185.565 178.225,195.072C142.778,206.276 106.561,223.731 117.258,246.562C137.007,288.711 231.746,289.479 212.83,317.819C191.403,349.92 205.772,387.576 301.916,398.047C484.528,417.936 705.278,301.563 643.277,237.617C604.678,197.806 464.093,161.544 277.374,176.658Z" style="fill:white;fill-opacity:0.45;fill-rule:nonzero;"/>
                        </g>
                    </g>
                    <g id="freepik--Window--inject-60">
                        <g>
                            <g>
                                <path d="M552.417,112.546C552.417,103.989 545.47,97.041 536.912,97.041L229.772,97.041C221.214,97.041 214.267,103.989 214.267,112.546L214.267,320.5C214.267,329.057 221.214,336.005 229.772,336.005L536.912,336.005C545.47,336.005 552.417,329.057 552.417,320.5L552.417,112.546Z" style="fill:rgb(51,94,234);"/>
                                <path d="M552.417,112.611C552.417,104.053 545.47,97.106 536.912,97.106L229.772,97.106C221.214,97.106 214.267,104.053 214.267,112.611L214.267,320.564C214.267,329.122 221.214,336.07 229.772,336.07L536.912,336.07C545.47,336.07 552.417,329.122 552.417,320.564L552.417,112.611Z" style="fill:white;fill-opacity:0.8;"/>
                                <path d="M229.964,97.041L536.997,97.041C545.508,97.041 552.417,103.951 552.417,112.461L552.417,127.104L214.267,127.104L214.267,112.739C214.267,104.075 221.301,97.041 229.965,97.041Z" style="fill:rgb(51,94,234);fill-rule:nonzero;"/>
                                <g>
                                    <circle cx="236.318" cy="112.757" r="4.741" style="fill:white;"/>
                                    <circle cx="247.761" cy="112.757" r="4.741" style="fill:white;"/>
                                    <path d="M264.292,112.757C264.292,115.375 262.169,117.498 259.551,117.498C256.932,117.498 254.809,115.375 254.809,112.757C254.809,110.138 256.932,108.015 259.551,108.015C262.169,108.015 264.292,110.138 264.292,112.757Z" style="fill:white;fill-rule:nonzero;"/>
                                </g>
                            </g>
                            <g>
                                <path d="M354.235,145.098C354.235,143.21 352.701,141.677 350.813,141.677L244.181,141.677C242.292,141.677 240.759,143.21 240.759,145.098L240.759,237.208C240.759,239.097 242.292,240.63 244.181,240.63L350.813,240.63C352.701,240.63 354.235,239.097 354.235,237.208L354.235,145.098Z" style="fill:rgb(51,94,234);"/>
                                <path d="M240.759,224.71L270.136,195.854C272.874,193.165 277.032,192.545 280.434,194.318L303.75,206.469L324.49,183.96C328.129,180.01 334.238,179.64 338.328,183.122L354.235,196.665L354.235,234.374C353.753,237.871 349.824,240.63 347.459,240.63L248.014,240.63C238.621,240.63 240.322,227.227 240.759,224.71Z" style="fill-opacity:0.2;fill-rule:nonzero;"/>
                                <path d="M316.609,169.759C316.609,176.532 311.245,182.023 304.629,182.023C298.013,182.023 292.649,176.532 292.649,169.759C292.649,162.986 298.013,157.496 304.629,157.496C311.245,157.496 316.609,162.986 316.609,169.759Z" style="fill-opacity:0.2;fill-rule:nonzero;"/>
                            </g>
                            <g>
                                <g>
                                    <rect x="244.663" y="253.834" width="109.571" height="8.647" style="fill:none;stroke:rgb(51,94,234);stroke-width:0.5px;"/>
                                    <rect x="244.663" y="270.011" width="109.571" height="8.647" style="fill:none;stroke:rgb(51,94,234);stroke-width:0.5px;"/>
                                </g>
                                <g>
                                    <rect x="244.663" y="285.881" width="109.571" height="8.647" style="fill:none;stroke:rgb(51,94,234);stroke-width:0.5px;"/>
                                    <rect x="244.663" y="302.058" width="109.571" height="8.647" style="fill:none;stroke:rgb(51,94,234);stroke-width:0.5px;"/>
                                </g>
                            </g>
                            <g>
                                <g>
                                    <path d="M454.26,149.912C454.26,148.024 452.727,146.491 450.838,146.491L402.341,146.491C400.452,146.491 398.919,148.024 398.919,149.912L398.919,191.327C398.919,193.216 400.452,194.749 402.341,194.749L450.838,194.749C452.727,194.749 454.26,193.216 454.26,191.327L454.26,149.912Z" style="fill:none;stroke:rgb(51,94,234);stroke-width:0.5px;"/>
                                    <path d="M398.919,186.985L413.246,172.912C414.581,171.601 416.609,171.298 418.268,172.163L429.639,178.089L439.754,167.111C441.528,165.185 444.508,165.005 446.502,166.703L454.26,173.308L454.26,191.698C454.025,193.403 452.109,194.749 450.955,194.749L402.457,194.749C397.877,194.749 398.706,188.212 398.919,186.985Z" style="fill:none;fill-rule:nonzero;stroke:rgb(51,94,234);stroke-width:0.5px;"/>
                                    <path d="M433.256,160.186C433.256,163.489 430.64,166.167 427.413,166.167C424.187,166.167 421.571,163.489 421.571,160.186C421.571,156.883 424.187,154.205 427.413,154.205C430.64,154.205 433.256,156.883 433.256,160.186Z" style="fill:none;fill-rule:nonzero;stroke:rgb(51,94,234);stroke-width:0.5px;"/>
                                </g>
                                <rect x="401.056" y="201.464" width="30.834" height="6.655" style="fill:none;stroke:rgb(51,94,234);stroke-width:0.5px;"/>
                                <rect x="401.056" y="218.069" width="55.171" height="6.655" style="fill:none;stroke:rgb(51,94,234);stroke-width:0.5px;"/>
                                <rect x="401.056" y="230.477" width="55.171" height="6.655" style="fill:none;stroke:rgb(51,94,234);stroke-width:0.5px;"/>
                                <rect x="401.056" y="243.492" width="32.164" height="6.655" style="fill:none;stroke:rgb(51,94,234);stroke-width:0.5px;"/>
                            </g>
                            <g>
                                <g>
                                    <path d="M527.249,149.912C527.249,148.024 525.716,146.491 523.828,146.491L475.33,146.491C473.442,146.491 471.909,148.024 471.909,149.912L471.909,191.327C471.909,193.216 473.442,194.749 475.33,194.749L523.828,194.749C525.716,194.749 527.249,193.216 527.249,191.327L527.249,149.912Z" style="fill:none;stroke:rgb(51,94,234);stroke-width:0.5px;"/>
                                    <path d="M471.909,186.985L486.236,172.912C487.571,171.601 489.599,171.298 491.258,172.163L502.629,178.089L512.743,167.111C514.518,165.185 517.497,165.005 519.492,166.703L527.249,173.308L527.249,191.698C527.015,193.403 525.098,194.749 523.945,194.749L475.447,194.749C470.866,194.749 471.696,188.212 471.909,186.985Z" style="fill:none;fill-rule:nonzero;stroke:rgb(51,94,234);stroke-width:0.5px;"/>
                                    <path d="M506.246,160.186C506.246,163.489 503.63,166.167 500.403,166.167C497.177,166.167 494.561,163.489 494.561,160.186C494.561,156.883 497.177,154.205 500.403,154.205C503.63,154.205 506.246,156.883 506.246,160.186Z" style="fill:none;fill-rule:nonzero;stroke:rgb(51,94,234);stroke-width:0.5px;"/>
                                </g>
                                <rect x="474.045" y="201.464" width="30.834" height="6.655" style="fill:none;stroke:rgb(51,94,234);stroke-width:0.5px;"/>
                                <rect x="474.045" y="218.069" width="55.171" height="6.655" style="fill:none;stroke:rgb(51,94,234);stroke-width:0.5px;"/>
                                <rect x="474.045" y="230.477" width="55.171" height="6.655" style="fill:none;stroke:rgb(51,94,234);stroke-width:0.5px;"/>
                                <rect x="474.045" y="243.492" width="32.164" height="6.655" style="fill:none;stroke:rgb(51,94,234);stroke-width:0.5px;"/>
                            </g>
                            <rect x="397.635" y="268.801" width="131.581" height="6.508" style="fill:none;stroke:rgb(51,94,234);stroke-width:0.5px;"/>
                            <rect x="397.635" y="279.894" width="131.581" height="35.778" style="fill:none;stroke:rgb(51,94,234);stroke-width:0.5px;"/>
                        </g>
                    </g>
                    <g id="freepik--Colors--inject-60">
                        <g>
                            <g>
                                <path d="M186.402,79.137L100.056,79.137C96.067,79.137 92.833,82.371 92.833,86.36L92.833,165.658C92.833,169.647 96.067,172.881 100.056,172.881L138.697,172.881C142.77,176.908 152.091,186.343 152.091,186.343L152.091,172.881L186.402,172.881C190.391,172.881 193.625,169.647 193.625,165.658L193.625,86.36C193.625,82.371 190.391,79.137 186.402,79.137Z" style="fill:rgb(51,94,234);fill-rule:nonzero;"/>
                                <path d="M186.402,79.137L100.056,79.137C96.067,79.137 92.833,82.371 92.833,86.36L92.833,165.658C92.833,169.647 96.067,172.881 100.056,172.881L138.697,172.881C142.77,176.908 152.091,186.343 152.091,186.343L152.091,172.881L186.402,172.881C190.391,172.881 193.625,169.647 193.625,165.658L193.625,86.36C193.625,82.371 190.391,79.137 186.402,79.137Z" style="fill:white;fill-opacity:0.8;fill-rule:nonzero;"/>
                            </g>
                            <path d="M141.307,90.823C142.973,89.098 149.357,92.558 155.566,98.552C161.775,104.546 165.459,110.804 163.793,112.53C162.127,114.255 155.743,110.795 149.533,104.801C143.324,98.807 139.641,92.549 141.307,90.823Z" style="fill:rgb(38,50,56);fill-rule:nonzero;"/>
                            <path d="M149.546,104.813C143.339,98.819 139.652,92.566 141.318,90.836L121.664,111.224C119.998,112.946 123.678,119.208 129.892,125.201C136.106,131.194 142.479,134.676 144.105,132.924L163.767,112.543C162.133,114.264 155.752,110.806 149.546,104.813Z" style="fill:rgb(51,94,234);fill-rule:nonzero;"/>
                            <path d="M149.546,104.813C143.339,98.819 139.652,92.566 141.318,90.836L121.664,111.224C119.998,112.946 123.678,119.208 129.892,125.201C136.106,131.194 142.479,134.676 144.105,132.924L163.767,112.543C162.133,114.264 155.752,110.806 149.546,104.813Z" style="fill:white;fill-opacity:0.6;fill-rule:nonzero;"/>
                            <path d="M177.617,105.776C173.922,112.425 168.237,114.359 161.73,112.883L161.683,112.883C158.879,112.314 154.173,109.266 149.546,104.805C147.18,102.556 145.062,100.06 143.229,97.358C143.403,95.061 146.506,93.158 149.246,92.889C152.855,92.526 157.513,93.276 162.085,99.609C167.565,107.205 173.314,105.926 174.143,103.115C175.58,98.188 180.95,99.791 177.617,105.776ZM172.406,101.117C172.619,99.056 170.866,98.243 171,100.233C171.135,102.223 172.256,102.602 172.406,101.117ZM176.567,111.066C178.091,110.616 178.067,109.148 176.709,109.819C175.351,110.49 175.47,111.382 176.567,111.066Z" style="fill:rgb(51,94,234);fill-rule:nonzero;"/>
                        </g>
                        <path d="M128.703,141.256C132.353,144.972 132.403,150.842 128.814,154.367C125.225,157.891 119.357,157.735 115.707,154.018C112.057,150.301 112.007,144.431 115.596,140.907C119.185,137.383 125.053,137.539 128.703,141.256ZM138.288,141.898C134.699,145.423 134.749,151.293 138.399,155.009C142.049,158.726 147.917,158.882 151.506,155.358C155.094,151.833 155.045,145.963 151.395,142.247C147.745,138.53 141.877,138.374 138.288,141.898ZM167.448,157.898C172.346,158.116 176.492,154.322 176.71,149.425C176.716,149.271 176.719,149.118 176.718,148.964C176.68,143.804 172.603,139.58 167.448,139.358C162.551,139.14 158.405,142.934 158.187,147.831C158.18,147.985 158.177,148.138 158.178,148.292C158.217,153.452 162.293,157.676 167.448,157.898ZM133.442,147.637C133.442,141.441 128.401,136.4 122.205,136.4C116.009,136.4 110.968,141.441 110.968,147.637C110.968,153.833 116.009,158.874 122.205,158.874C128.401,158.874 133.442,153.833 133.442,147.637ZM132.942,147.637C132.942,153.557 128.125,158.374 122.205,158.374C116.285,158.374 111.468,153.557 111.468,147.637C111.468,141.716 116.285,136.9 122.205,136.9C128.125,136.9 132.942,141.716 132.942,147.637Z" style="fill:rgb(51,94,234);fill-rule:nonzero;"/>
                    </g>
                    <g id="freepik--Character_3--inject-60">
                        <g>
                            <g>
                                <g>
                                    <path d="M536.951,380.598L638.643,380.598C640.532,380.598 642.065,382.131 642.065,384.02L642.065,460.77C642.065,463.839 639.574,466.33 636.505,466.33L536.951,466.33C535.063,466.33 533.529,464.797 533.529,462.908L533.529,384.019C533.529,382.131 535.063,380.598 536.951,380.598L536.951,380.598Z" style="fill:rgb(51,94,234);fill-rule:nonzero;"/>
                                    <path d="M568.613,441.402L568.613,405.518C568.613,403.707 570.574,402.575 572.142,403.481L587.68,412.452L603.219,421.423C604.787,422.328 604.787,424.592 603.219,425.497L587.68,434.469L572.142,443.44C570.574,444.345 568.613,443.213 568.613,441.402Z" style="fill:white;fill-opacity:0.7;fill-rule:nonzero;"/>
                                    <path d="M622.415,380.591L638.797,380.591C640.601,380.591 642.065,382.055 642.065,383.859L642.065,460.848C642.065,463.873 639.609,466.33 636.583,466.33L622.415,466.33L622.415,380.591Z" style="fill-opacity:0.3;fill-rule:nonzero;"/>
                                </g>
                                <path d="M558.439,459.48C558.439,459.48 563.197,457.396 563.12,457.695C563.044,457.993 555.708,425.774 553.104,413.968C550.5,402.162 545.798,385.929 545.798,385.929L583.755,380.73C583.755,380.73 526.643,375.845 527.626,376.583C528.335,377.114 538.729,430.552 547.443,454.442C550.83,463.728 558.439,459.48 558.439,459.48Z" style="fill-opacity:0.3;fill-rule:nonzero;"/>
                            </g>
                            <g>
                                <path d="M502.408,412.525L491.367,432.711L481.732,429.846L490.488,406.418L502.408,412.525Z" style="fill:rgb(233,179,118);fill-rule:nonzero;"/>
                                <g>
                                    <path d="M488.907,443.588L482.016,442.123C482.016,442.123 481.622,440.713 480.169,440.361C479.353,440.162 477.185,440.894 477.185,440.894L458.204,437.006C458.21,436.979 458.466,435.705 458.793,435.185C459.19,434.551 459.606,434.032 460.035,433.608C461.537,432.128 463.832,431.827 465.536,431.665C468.393,431.394 476.646,429.208 476.646,429.208C476.646,429.208 478.783,428.439 480.553,426.015C481.54,424.663 482.852,423.983 483.696,424.048C485.418,424.179 486.137,425.363 486.048,426.971L485.943,428.838C487.015,430.098 488.709,430.397 490.261,429.455C490.261,429.455 494.254,428.096 493.68,429.843C493.353,430.84 491.72,435.245 490.535,438.763C490.258,439.582 489.998,440.358 489.769,441.039L489.767,441.039C489.258,442.55 488.907,443.588 488.907,443.588Z" style="fill:rgb(38,50,56);fill-rule:nonzero;"/>
                                    <path d="M472.234,430.212C472.335,430.153 472.468,430.172 472.554,430.254C472.948,430.631 473.244,431.108 473.397,431.659C473.478,431.949 473.013,432.114 472.932,431.821C472.796,431.331 472.537,430.91 472.194,430.581C472.079,430.47 472.094,430.294 472.23,430.215L472.234,430.212Z" style="fill:rgb(51,94,234);fill-rule:nonzero;"/>
                                    <path d="M473.86,429.724C473.962,429.665 474.094,429.684 474.18,429.766C474.574,430.143 474.87,430.62 475.023,431.171C475.104,431.461 474.64,431.626 474.558,431.333C474.422,430.843 474.164,430.423 473.82,430.093C473.705,429.983 473.72,429.806 473.856,429.727L473.86,429.724Z" style="fill:rgb(51,94,234);fill-rule:nonzero;"/>
                                    <path d="M475.521,429.299C475.622,429.239 475.755,429.259 475.841,429.341C476.235,429.718 476.531,430.194 476.684,430.745C476.765,431.036 476.3,431.201 476.219,430.908C476.083,430.418 475.824,429.997 475.481,429.667C475.366,429.557 475.381,429.381 475.517,429.301L475.521,429.299Z" style="fill:rgb(51,94,234);fill-rule:nonzero;"/>
                                </g>
                                <path d="M475.652,429.554C475.844,428.908 476.037,428.257 476.114,427.587C476.19,426.917 476.144,426.219 475.873,425.601C475.746,425.314 475.534,425.022 475.224,424.978C474.897,424.932 474.599,425.183 474.425,425.463C474.091,426.001 474.045,426.686 474.203,427.3C474.362,427.914 475.25,429.064 475.652,429.554" style="fill:none;fill-rule:nonzero;stroke:rgb(51,94,234);stroke-width:0.25px;"/>
                                <path d="M475.732,429.571C476.116,429.016 476.503,428.458 476.978,427.98C477.453,427.501 478.026,427.1 478.678,426.925C478.981,426.844 479.342,426.827 479.57,427.041C479.811,427.267 479.801,427.657 479.691,427.968C479.481,428.566 478.975,429.03 478.397,429.29C477.819,429.551 476.366,429.577 475.732,429.571" style="fill:none;fill-rule:nonzero;stroke:rgb(51,94,234);stroke-width:0.25px;"/>
                            </g>
                            <g>
                                <path d="M548.035,427.329L553.074,449.778L543.946,453.99L535.05,430.614L548.035,427.329Z" style="fill:rgb(233,179,118);fill-rule:nonzero;"/>
                                <g>
                                    <path d="M558.409,459.571L552.266,463.022C552.266,463.022 551.04,462.223 549.716,462.917C548.972,463.308 547.827,465.289 547.827,465.289L531.006,474.903C530.992,474.879 530.344,473.753 530.246,473.147C530.126,472.409 530.095,471.744 530.137,471.143C530.287,469.04 531.813,467.298 532.985,466.051C534.951,463.96 539.706,456.869 539.706,456.869C539.706,456.869 540.803,454.88 540.531,451.892C540.379,450.224 540.916,448.847 541.593,448.339C542.972,447.3 544.294,447.714 545.289,448.98L546.443,450.452C548.08,450.69 549.549,449.796 550.093,448.063C550.093,448.063 552.193,444.406 552.917,446.097C553.329,447.062 555.012,451.448 556.445,454.872C556.778,455.671 557.095,456.425 557.373,457.088L557.371,457.089C557.987,458.56 558.409,459.571 558.409,459.571Z" style="fill:rgb(38,50,56);fill-rule:nonzero;"/>
                                    <path d="M537.055,460.536C537.092,460.425 537.205,460.352 537.324,460.357C537.868,460.38 538.405,460.542 538.884,460.855C539.137,461.02 538.897,461.451 538.642,461.284C538.216,461.006 537.744,460.861 537.269,460.84C537.11,460.833 537.004,460.691 537.054,460.541L537.055,460.536Z" style="fill:rgb(51,94,234);fill-rule:nonzero;"/>
                                    <path d="M537.954,459.096C537.991,458.985 538.104,458.912 538.223,458.917C538.767,458.94 539.304,459.102 539.783,459.414C540.035,459.579 539.796,460.01 539.541,459.844C539.115,459.566 538.643,459.42 538.168,459.399C538.009,459.393 537.903,459.25 537.953,459.101L537.954,459.096Z" style="fill:rgb(51,94,234);fill-rule:nonzero;"/>
                                    <path d="M538.921,457.68C538.957,457.569 539.07,457.496 539.189,457.501C539.733,457.523 540.27,457.686 540.749,457.999C541.002,458.163 540.762,458.594 540.507,458.428C540.082,458.149 539.61,458.004 539.134,457.984C538.975,457.977 538.869,457.834 538.919,457.685L538.921,457.68Z" style="fill:rgb(51,94,234);fill-rule:nonzero;"/>
                                </g>
                                <path d="M549.716,462.918C548.972,463.308 547.827,465.289 547.827,465.289L531.006,474.904C530.992,474.879 530.344,473.753 530.246,473.147C530.191,472.808 530.159,472.488 530.14,472.179L557.218,456.719C557.269,456.84 557.324,456.972 557.373,457.088L557.371,457.089C557.987,458.56 558.409,459.571 558.409,459.571L552.266,463.022C552.266,463.022 551.04,462.223 549.716,462.918Z" style="fill:white;fill-opacity:0.2;fill-rule:nonzero;"/>
                                <path d="M539.187,457.786C538.905,457.173 538.62,456.557 538.235,456.003C537.85,455.45 537.355,454.956 536.743,454.671C536.458,454.539 536.106,454.459 535.844,454.632C535.568,454.813 535.51,455.198 535.564,455.523C535.669,456.148 536.087,456.693 536.611,457.049C537.136,457.406 538.562,457.683 539.187,457.786" style="fill:none;fill-rule:nonzero;stroke:rgb(51,94,234);stroke-width:0.25px;"/>
                                <path d="M539.259,457.745C539.181,457.075 539.103,456.401 539.143,455.727C539.184,455.054 539.35,454.375 539.724,453.813C539.898,453.552 540.157,453.301 540.471,453.311C540.8,453.322 541.05,453.621 541.173,453.926C541.41,454.515 541.337,455.197 541.075,455.775C540.813,456.352 539.739,457.331 539.259,457.745" style="fill:none;fill-rule:nonzero;stroke:rgb(51,94,234);stroke-width:0.25px;"/>
                            </g>
                            <g>
                                <g id="freepik--freepik--Character--inject-281--inject-60">
                                    <path d="M512.433,369.479C512.796,373.078 513.575,377.995 514.515,381.488C517.066,391.349 519.98,400.834 523.641,410.629C530.727,429.982 536.451,447.936 536.451,447.936L554.445,442.539C554.445,442.539 542.548,386.545 534.524,380.821L583.724,380.821C584.644,380.821 585.562,380.759 586.474,380.636C578,379.539 564.795,374.317 552.541,369.096C541.715,364.469 531.589,359.843 526.104,358.098C519.388,360.966 511.918,363.835 512.433,369.479Z" style="fill:rgb(38,50,56);fill-rule:nonzero;"/>
                                    <path d="M526.09,358.151C531.589,359.935 541.715,364.522 552.528,369.149C564.782,374.37 577.987,379.592 586.46,380.689C600.737,378.785 606.104,361.773 591.18,342.156C581.49,342.156 571.748,351.409 571.748,351.409C571.748,351.409 542.455,351.264 526.09,358.151Z" style="fill-opacity:0.6;fill-rule:nonzero;"/>
                                    <path d="M486.024,418.402L497.921,425.606C497.921,425.606 507.848,404.76 517.339,381.244C516.4,377.751 515.746,374.188 515.383,370.59C514.867,364.945 519.349,360.966 526.064,358.164C531.563,359.949 541.688,364.535 552.501,369.162C564.755,374.383 577.961,379.605 586.434,380.702C587.407,380.833 588.387,380.903 589.369,380.914C605.654,380.914 611.272,366.637 604.702,342.42C595.013,342.42 578.423,341.376 578.423,341.376C578.423,341.376 546.407,333.683 523.367,336.3C512.15,337.622 503.069,346.036 500.895,357.12C494.96,386.518 486.024,418.402 486.024,418.402Z" style="fill:rgb(38,50,56);fill-rule:nonzero;"/>
                                    <path d="M484.146,419.277L497.921,425.606C497.921,425.606 507.848,404.76 517.339,381.244C516.4,377.751 515.746,374.188 515.383,370.59C514.867,364.945 519.349,360.966 526.064,358.164C531.563,359.949 541.688,364.535 552.501,369.162C564.755,374.383 577.961,379.605 586.434,380.702C587.407,380.833 588.387,380.903 589.369,380.914C605.654,380.914 611.272,366.637 604.702,342.42C595.013,342.42 578.423,341.376 578.423,341.376C578.423,341.376 546.407,333.683 523.367,336.3C512.15,337.622 503.069,346.036 500.895,357.12C494.96,386.518 484.146,419.277 484.146,419.277Z" style="fill:rgb(38,50,56);fill-rule:nonzero;"/>
                                </g>
                                <path d="M512.433,369.479C512.796,373.078 513.575,377.995 514.515,381.488C517.066,391.349 519.98,400.834 523.641,410.629C530.727,429.982 536.451,447.936 536.451,447.936L554.445,442.539C554.445,442.539 542.548,386.545 534.524,380.821L583.724,380.821C584.644,380.821 585.562,380.759 586.474,380.636C578,379.539 564.795,374.317 552.541,369.096C541.715,364.469 531.589,359.843 526.104,358.098C519.388,360.966 511.918,363.835 512.433,369.479Z" style="fill-opacity:0.2;fill-rule:nonzero;"/>
                            </g>
                            <g>
                                <path d="M568.13,266.327L573.597,261.889L589.163,260.86C589.163,260.86 593.064,264.066 593.257,264.098C593.45,264.13 595.724,265.041 595.724,265.041L594.181,268.836L568.13,266.327Z" style="fill:rgb(51,94,234);fill-rule:nonzero;"/>
                                <path d="M553.258,288.716C553.258,288.716 545.101,314.421 544.309,315.837C541.629,320.626 523.879,328.837 523.879,328.837L514.829,326.941L508.344,332.357L512.62,335.707L517.636,333.811C520.374,334.3 523.15,334.543 525.931,334.538C530.606,334.538 553.15,328.824 556.913,322.539C560.675,316.254 562.404,287.148 562.404,287.148L553.258,288.716Z" style="fill:rgb(233,179,118);fill-rule:nonzero;"/>
                                <g id="freepik--freepik--group--inject-39--inject-60">
                                    <path d="M605.905,347.37L551.581,339.181C552.389,303.961 560.438,267.102 560.438,267.102C576.103,265.33 591.913,265.253 607.595,266.872C600.311,289.457 605.905,347.37 605.905,347.37Z" style="fill:rgb(51,94,234);fill-rule:nonzero;"/>
                                    <path d="M601.276,346.733L551.581,339.181C552.389,303.961 560.438,267.102 560.438,267.102C576.103,265.33 591.913,265.253 607.595,266.872C600.311,289.457 601.276,346.733 601.276,346.733Z" style="fill:white;fill-opacity:0.6;fill-rule:nonzero;"/>
                                    <path d="M607.595,266.872C604.646,292.406 612.293,346.733 612.293,346.733C608.845,354.122 599.659,355.498 588.797,355.117C579.055,313.103 593.004,264.12 593.004,264.12L607.595,266.872Z" style="fill:rgb(51,94,234);fill-rule:nonzero;"/>
                                    <path d="M560.438,267.058C553.208,286.137 548.858,338.576 548.858,338.576L553.177,339.612C558.812,276.324 570.835,264.841 570.835,264.841L560.438,267.058Z" style="fill:rgb(51,94,234);fill-rule:nonzero;"/>
                                    <g>
                                        <path d="M565.433,289.364L565.946,282.112C565.971,281.697 566.271,281.379 566.627,281.392L584.413,281.959L584.433,281.96C584.803,281.985 585.086,282.356 585.066,282.789L584.692,290.259L584.319,297.762L584.319,297.775C584.298,298.203 583.985,298.529 583.62,298.505L565.573,297.238L565.57,297.238C565.195,297.207 564.912,296.825 564.939,296.386L565.433,289.364Z" style="fill:rgb(51,94,234);fill-rule:nonzero;"/>
                                        <path d="M565.433,289.364L565.946,282.112C565.971,281.697 566.271,281.379 566.627,281.392L584.413,281.959L584.433,281.96C584.803,281.985 585.086,282.356 585.066,282.789L584.692,290.259L584.319,297.762L584.319,297.775C584.298,298.203 583.985,298.529 583.62,298.505L565.573,297.238L565.57,297.238C565.195,297.207 564.912,296.825 564.939,296.386L565.433,289.364Z" style="fill:white;fill-opacity:0.4;fill-rule:nonzero;"/>
                                        <path d="M565.433,289.364C568.501,290.117 573.985,291.395 574.097,290.991C574.247,290.423 574.163,288.119 574.498,287.464C574.834,286.808 577.837,293.569 578.845,292.586C579.852,291.603 578.919,284.373 580.887,284.297C581.969,284.253 583.527,287.42 584.692,290.259L584.319,297.762L584.319,297.775C584.298,298.203 583.985,298.529 583.62,298.505L565.573,297.238L565.57,297.238C565.195,297.207 564.912,296.825 564.939,296.386L565.433,289.364Z" style="fill:rgb(38,50,56);fill-opacity:0.2;fill-rule:nonzero;"/>
                                    </g>
                                    <path d="M540.669,302.447L551.581,305.51L552.456,305.51L556.298,285.504L560.438,267.135C550.119,268.538 540.669,302.447 540.669,302.447Z" style="fill:rgb(51,94,234);fill-rule:nonzero;"/>
                                    <path d="M589.133,260.951L590.112,277.105L593.257,264.098L589.133,260.951Z" style="fill:rgb(51,94,234);fill-rule:nonzero;"/>
                                </g>
                            </g>
                            <g>
                                <path d="M509.424,336.378L570.661,336.378L570.661,336.389C570.653,337.675 569.216,338.713 567.452,338.707L540.209,338.707L540.163,338.707L540.161,338.707L512.572,338.707C510.823,338.695 509.415,337.654 509.424,336.378Z" style="fill:rgb(38,50,56);fill-rule:nonzero;"/>
                                <path d="M512.067,338.576L542.846,338.576C543.377,338.572 543.804,338.224 543.8,337.797C543.799,337.717 543.782,337.638 543.751,337.562L530.059,306.171C529.713,305.275 528.682,304.662 527.513,304.657L496.715,304.657C496.195,304.658 495.773,304.997 495.773,305.415C495.773,305.502 495.792,305.589 495.829,305.672L509.521,337.062C509.872,337.956 510.9,338.566 512.067,338.576Z" style="fill:rgb(38,50,56);fill-rule:nonzero;"/>
                                <path d="M496.715,304.658L527.513,304.658C528.682,304.662 529.713,305.275 530.059,306.171L543.235,336.378L570.661,336.378L570.661,336.389C570.653,337.675 569.216,338.713 567.452,338.707L540.209,338.707L540.163,338.707L540.161,338.707L512.572,338.707C512.017,338.703 511.505,338.587 511.053,338.401C510.337,338.16 509.765,337.682 509.521,337.062L495.829,305.672C495.792,305.589 495.773,305.502 495.773,305.415C495.773,304.997 496.195,304.658 496.715,304.658Z" style="fill:white;fill-opacity:0.7;fill-rule:nonzero;"/>
                                <path d="M515.212,321.369C515.877,322.876 517.225,323.91 518.23,323.7C519.235,323.489 519.503,322.116 518.858,320.606C518.212,319.095 516.848,318.084 515.843,318.295C514.838,318.505 514.538,319.823 515.212,321.369Z" style="fill:white;fill-rule:nonzero;"/>
                                <g opacity="0.3">
                                    <path d="M530.059,306.171L543.235,336.378L541.808,336.378L527.513,304.658C528.682,304.662 529.713,305.275 530.059,306.171Z" style="fill-rule:nonzero;"/>
                                </g>
                            </g>
                            <g>
                                <path d="M599.734,283.969C599.734,283.969 597.581,315.528 595.038,318.267C590.739,322.896 567.195,332.923 567.195,332.923L556.568,329.197C555.823,328.952 554.999,329.086 554.391,329.551L547.125,335.097L547.818,335.682C548.118,335.935 548.552,335.986 548.905,335.81L550.035,335.248L548.772,336.486L549.172,336.823C549.569,337.159 550.121,337.279 550.632,337.142L553.881,336.271L550.883,338.267C551.552,338.831 552.484,339.027 553.339,338.783L558.093,337.428C561.334,338.17 564.637,338.643 567.962,338.842C573.559,339.186 601.41,334.077 606.336,327.316C611.263,320.554 614.923,288.352 614.923,288.352L599.734,283.969Z" style="fill:rgb(233,179,118);fill-rule:nonzero;"/>
                                <path d="M607.595,266.873C607.595,266.873 616.481,268.019 616.447,277.521C616.417,285.708 613.455,307.04 613.455,307.04L594.637,303.493L598.782,279.884C599.729,274.488 602.936,269.754 607.595,266.873Z" style="fill:rgb(51,94,234);fill-rule:nonzero;"/>
                            </g>
                            <g>
                                <g>
                                    <path d="M566.155,226.491C566.533,226.008 565.487,215.164 584.156,220.561C598.018,224.568 592.781,235.434 592.781,235.434L576.929,223.984L566.155,226.491Z" style="fill:rgb(38,50,56);fill-rule:nonzero;"/>
                                    <path d="M588.76,265.994C587.38,265.188 587.203,264.574 586.762,263.136C585.617,259.425 586.847,246.761 586.847,246.761L573.006,252.451C573.006,252.451 573.113,252.761 573.274,253.285C573.712,254.751 574.6,257.874 574.867,260.484C575.039,262.109 574.964,263.543 574.418,264.27C573.852,265.019 572.209,266.036 571.164,266.387C571.164,266.387 572.919,270.166 579.12,269.682C585.321,269.199 588.76,265.994 588.76,265.994Z" style="fill:rgb(233,179,118);fill-rule:nonzero;"/>
                                    <path d="M584.55,253.729C584.55,253.729 581.577,259.911 574.742,259.697C574.475,257.088 573.587,253.964 573.148,252.499C573.662,252.306 573.993,252.189 573.993,252.189L584.55,253.729Z" style="fill-opacity:0.2;fill-rule:nonzero;"/>
                                    <path d="M566.923,224.27C566.923,224.27 562.893,235.667 568.26,241.373C573.628,247.08 577.806,225.227 577.806,225.227L566.923,224.27Z" style="fill:rgb(38,50,56);fill-rule:nonzero;"/>
                                    <path d="M584.565,254.162C580.344,257.347 575.563,258.124 571.542,255.951C568.955,254.558 566.839,252.176 565.824,249.141C565.686,248.744 565.575,248.329 565.476,247.906C563.781,240.146 565.206,227.412 573.69,224.16C579.724,221.798 586.545,224.776 588.905,230.82C589.588,232.535 589.839,234.391 589.667,236.234C588.995,244.799 589.495,250.441 584.565,254.162Z" style="fill:rgb(233,179,118);fill-rule:nonzero;"/>
                                    <path d="M576.631,238.864C576.676,239.759 576.129,240.484 575.53,240.471C574.931,240.458 574.481,239.712 574.493,238.814C574.505,237.916 575.01,237.193 575.595,237.207C576.179,237.22 576.643,237.952 576.631,238.864Z" style="fill:rgb(38,50,56);fill-rule:nonzero;"/>
                                    <path d="M568.769,238.846C568.814,239.741 568.252,240.467 567.668,240.453C567.083,240.44 566.618,239.694 566.631,238.796C566.643,237.899 567.148,237.176 567.732,237.189C568.317,237.202 568.783,237.991 568.769,238.846Z" style="fill:rgb(38,50,56);fill-rule:nonzero;"/>
                                    <path d="M571.183,238.614C570.308,240.736 569.144,242.728 567.724,244.531C568.682,245.246 569.908,245.5 571.072,245.225L571.183,238.614Z" style="fill:rgb(213,135,69);fill-rule:nonzero;"/>
                                    <path d="M565.814,234.785C565.946,234.862 566.11,234.863 566.243,234.786C567.127,234.23 568.221,234.124 569.196,234.499C569.398,234.599 569.643,234.515 569.742,234.313C569.842,234.111 569.759,233.866 569.556,233.767L569.554,233.766C568.335,233.26 566.945,233.377 565.827,234.079C565.63,234.189 565.56,234.438 565.669,234.635L565.674,234.643C565.713,234.698 565.76,234.746 565.814,234.785Z" style="fill:rgb(38,50,56);fill-rule:nonzero;"/>
                                    <path d="M578.21,235.247C578.293,235.246 578.373,235.219 578.44,235.17C578.593,235.004 578.581,234.745 578.415,234.593L578.408,234.587C577.438,233.685 576.09,233.311 574.793,233.585C574.576,233.645 574.448,233.869 574.507,234.087L574.508,234.088C574.572,234.302 574.793,234.428 575.01,234.374C576.04,234.187 577.097,234.498 577.861,235.212C577.967,235.274 578.094,235.287 578.21,235.247Z" style="fill:rgb(38,50,56);fill-rule:nonzero;"/>
                                    <path d="M583.577,225.395L582.861,229.142C584.055,229.886 584.708,231.334 584.036,232.784C582.602,235.879 584.072,240.929 586.377,243.059C586.377,243.059 586.546,241.688 587.685,242.092C588.825,242.498 587.727,248.267 586.518,251.814C586.518,251.814 589.159,250.049 591.603,242.654C593.863,235.815 594.477,230.03 593.229,227.24L583.577,225.395Z" style="fill:rgb(38,50,56);fill-rule:nonzero;"/>
                                    <path d="M583.577,225.395L582.861,229.142C584.055,229.886 584.708,231.334 584.036,232.784C582.602,235.879 584.072,240.929 586.377,243.059C586.377,243.059 586.546,241.688 587.685,242.092C588.825,242.498 587.727,248.267 586.518,251.814C586.518,251.814 589.159,250.049 591.603,242.654C593.863,235.815 594.477,230.03 593.229,227.24L583.577,225.395Z" style="fill:white;fill-opacity:0.4;fill-rule:nonzero;"/>
                                    <path d="M593.279,243.35C592.288,245.274 590.574,246.727 588.513,247.39C585.778,248.248 584.321,245.82 584.999,243.188C585.623,240.855 587.786,237.519 590.573,237.837C593.36,238.155 594.466,240.973 593.279,243.35Z" style="fill:rgb(233,179,118);fill-rule:nonzero;"/>
                                    <path d="M586.835,243.804C587.097,242.364 588.028,241.06 589.304,240.343C589.847,240.038 590.582,239.858 591.051,240.267" style="fill:none;fill-rule:nonzero;stroke:black;stroke-opacity:0.1;stroke-width:0.5px;"/>
                                    <path d="M563.907,227.357C562.323,227.729 560.56,227.211 559.429,226.041C561.669,225.894 563.872,225.215 565.806,224.076C563.841,224.576 561.647,224.076 560.093,222.773C563.064,222.299 565.781,220.866 568.611,219.845C574.868,217.587 581.94,217.389 588.144,219.79C589.607,220.357 591.067,221.101 592.037,222.335C593.007,223.57 594.065,225.912 593.229,227.24L583.118,227.694C581.5,224.717 578.944,225.751 575.244,227.961C573.746,228.855 570.333,230.534 568.643,230.966C566.501,231.512 564.816,231.761 563.498,231.694C561.223,231.578 560.295,230.919 558.9,229.873C560.971,229.094 562.284,228.862 563.907,227.357Z" style="fill:rgb(38,50,56);fill-rule:nonzero;"/>
                                </g>
                                <g>
                                    <path d="M574.232,246.442C575.858,245.981 577.368,245.179 578.66,244.09C578.802,244.344 578.905,244.617 578.968,244.901C579.093,245.404 579.093,245.929 578.968,246.432C578.711,247.459 577.838,248.579 575.434,249.277C575.259,249.338 575.081,249.39 574.9,249.431C574.456,248.485 573.945,247.572 573.369,246.699C573.369,246.699 573.698,246.617 574.232,246.442Z" style="fill:rgb(38,50,56);fill-rule:nonzero;"/>
                                    <path d="M578.618,244.09C578.761,244.344 578.864,244.617 578.927,244.901C578.423,245.795 576.924,246.565 574.664,247.243L574.191,246.442C575.817,245.981 577.326,245.179 578.618,244.09Z" style="fill:white;fill-rule:nonzero;"/>
                                    <path d="M576.451,247.737C577.207,247.157 578.059,246.715 578.968,246.432C578.711,247.459 577.838,248.579 575.434,249.277C575.604,248.67 575.96,248.131 576.451,247.737Z" style="fill:rgb(193,88,84);fill-rule:nonzero;"/>
                                </g>
                            </g>
                        </g>
                    </g>
                    <g id="freepik--Character_2--inject-60">
                        <g id="freepik--freepik--character-1--inject-2--inject-60">
                            <g>
                                <path d="M337.502,238.85L330.231,244.736L322.242,283.037L327.404,293.277L324.923,292.897C324.729,293.115 324.541,293.312 324.353,293.511L333.592,294.976C333.61,293.299 333.625,291.705 333.64,290.208C332.239,290.037 331.451,289.935 331.451,289.935L332.205,285.955C331.95,285.885 331.694,285.821 331.439,285.75C331.439,285.75 334.392,267.505 338.496,248.528C338.567,248.195 338.634,247.869 338.705,247.536C338.992,246.237 339.28,244.926 339.579,243.616C340.032,241.603 340.495,239.606 340.968,237.634C339.986,238.268 339.011,238.91 338.015,239.523L337.502,238.85Z" style="fill:none;fill-rule:nonzero;"/>
                                <path d="M448.561,222.593C447.901,223.184 445.748,224.998 444.202,226.604C443.535,227.297 442.558,228.213 441.617,229.096C441.495,229.186 441.372,229.275 441.261,229.385L440.345,230.298C439.885,230.739 439.484,231.133 439.211,231.43L438.16,232.478C437.537,233.109 437.037,233.85 436.687,234.664L434.572,242.297C429.712,247.089 419.204,256.926 418.594,256.549C418.191,256.3 416.275,250.74 414.512,245.406L417.732,244.259L417.191,242.673L416.62,242.883C415.557,238.962 409.295,216.118 406.994,213.575L406.989,213.581C402.664,208.589 397.126,204.904 390.995,202.801C391.152,202.201 391.358,201.618 391.618,201.057C394.129,202.226 397.064,202.409 399.797,201.401C402.653,200.398 405.018,198.342 406.408,195.652C406.603,195.296 406.776,194.905 406.948,194.503C407.621,192.79 408.166,190.493 408.509,187.994C410.154,187.78 411.529,186.511 411.776,184.788C411.895,182.966 410.789,181.36 409.169,180.734C409.531,178.923 409.622,177.106 409.598,175.562C411.193,174.105 412.061,172.015 411.96,169.854C411.627,166.52 406.994,165.957 406.994,165.957C406.994,165.957 405.603,162.198 402.533,161.06C399.464,159.921 396.383,162.773 396.383,162.773C396.383,162.773 392.554,159.071 388.094,160.128C384.999,160.763 382.77,163.476 382.748,166.635C382.748,166.635 377.517,167.164 377.632,169.854C377.738,172.338 380.329,174.103 380.726,174.36C380.56,176.566 380.639,179.19 381.054,182.432C380.703,182.965 380.48,183.591 380.457,184.275C380.44,184.773 380.528,185.269 380.713,185.731C381.046,186.749 381.575,187.679 382.26,188.475C382.793,190.165 383.445,191.584 384.088,192.721C382.716,195.774 381.027,198.72 379.119,200.758C371.8,200.469 366.745,200.691 362.826,201.542C362.757,201.557 362.691,201.572 362.623,201.587C362.372,201.644 362.125,201.703 361.882,201.765C361.344,201.9 360.822,202.045 360.324,202.207C354.603,203.226 349.303,205.911 345.12,209.965C338.659,215.967 327.99,226.382 327.99,226.382L328.026,226.429C322.918,231.263 318.399,235.7 317.315,237.255C314.533,241.244 314.667,281.332 314.667,281.332C314.667,281.332 313.42,283.857 313.389,285.665C313.377,286.377 313.084,289.779 313.01,291.712L295.543,288.942C292.673,288.487 289.977,290.445 289.522,293.315L284.697,323.744C284.242,326.614 286.2,329.31 289.07,329.765L332.993,336.73C332.991,336.817 332.989,336.904 332.988,336.992L360.517,336.992C360.993,331.012 361.436,325.379 361.813,320.664C361.819,320.682 361.828,320.73 361.835,320.76L361.824,320.774C361.824,320.774 362.804,329.633 363.587,336.992L386.653,336.992C385.304,320.068 383.454,305.261 381.783,293.912C382.105,293.912 382.432,293.914 382.748,293.912L382.278,291.358C382.431,291.35 382.584,291.346 382.736,291.337L382.737,291.317C382.737,291.26 382.76,289.382 382.971,286.42C383,286.039 383.032,285.647 383.07,285.233C383.208,283.485 383.415,281.439 383.702,279.232C383.82,278.33 383.962,277.369 384.115,276.386C385.035,270.602 386.566,264.086 389.117,258.664C391.519,253.616 393.796,248.511 395.962,243.361L398.015,247.156L399.179,249.289L398.475,249.548L399.004,250.927L401.247,250.129C405.106,260.178 410.683,272.627 415.064,273.978C421.724,276.03 437.073,251.169 440.296,245.8C443.473,244.668 445.94,239.894 445.94,239.894L448.673,236.254C449.593,235.03 449.503,233.322 448.46,232.201L445.812,229.472L445.85,229.426C446.878,228.229 449.964,225.339 450.153,224.207C450.342,223.074 449.22,222.002 448.561,222.593ZM339.579,243.616C339.28,244.926 338.992,246.237 338.705,247.536C338.634,247.869 338.567,248.195 338.496,248.528C334.392,267.505 331.439,285.75 331.439,285.75C331.694,285.821 331.95,285.885 332.205,285.955L331.451,289.935C331.451,289.935 332.239,290.037 333.64,290.208C333.625,291.705 333.61,293.299 333.592,294.976L324.353,293.511C324.541,293.312 324.729,293.115 324.923,292.897L327.404,293.277L322.242,283.037L330.231,244.736L337.502,238.85L338.015,239.523C339.011,238.91 339.986,238.268 340.968,237.634C340.495,239.606 340.032,241.603 339.579,243.616Z" style="fill-opacity:0.3;fill-rule:nonzero;"/>
                            </g>
                            <g>
                                <path d="M369.696,462.586L378.696,461.78L380.424,442.382L368.4,444.01L369.696,462.586Z" style="fill:rgb(167,120,101);fill-rule:nonzero;"/>
                                <g>
                                    <path d="M379.926,455.754L376.792,455.754C376.083,455.754 375.427,456.113 375.008,456.685C373.2,459.153 371.842,458.22 369.876,455.9C368.626,455.754 368.29,457.188 368.188,457.574L365.845,466.096C365.641,466.808 366.053,467.55 366.765,467.754C366.892,467.79 367.023,467.807 367.155,467.805L391.986,467.805C395.936,467.805 396.754,463.825 395.127,463.457C387.812,461.84 382.632,459.687 380.37,457.559C379.951,457.187 380.382,456.908 379.926,455.754Z" style="fill:rgb(38,50,56);fill-rule:nonzero;"/>
                                    <path d="M386.727,458.178C387.057,457.94 387.254,457.561 387.259,457.154C387.287,456.936 387.188,456.722 387.004,456.602C386.021,455.906 382.103,457.738 381.663,457.952C381.614,457.97 381.575,458.008 381.558,458.057C381.525,458.148 381.572,458.247 381.663,458.28C382.626,458.508 383.61,458.635 384.599,458.658C385.341,458.729 386.087,458.561 386.727,458.178ZM386.758,456.898C386.838,456.948 386.878,457.042 386.86,457.134C386.844,457.427 386.702,457.699 386.471,457.881C385.581,458.546 383.433,458.259 382.277,458.044C383.903,457.328 386.216,456.52 386.758,456.898Z" style="fill:rgb(51,94,234);fill-rule:nonzero;"/>
                                    <path d="M381.796,458.321C382.972,457.83 385.438,455.896 385.305,454.873C385.285,454.658 385.131,454.402 384.599,454.331C382.451,454.085 381.53,457.942 381.53,458.106C381.508,458.172 381.529,458.244 381.581,458.29C381.621,458.302 381.664,458.302 381.704,458.29L381.796,458.321ZM384.528,454.648C384.927,454.689 384.927,454.832 384.927,454.883C385.039,455.507 383.249,457.113 381.97,457.789C382.236,456.888 383.024,454.637 384.384,454.637L384.528,454.648Z" style="fill:rgb(51,94,234);fill-rule:nonzero;"/>
                                    <path d="M382.102,458.173C381.022,458.32 380.021,458.965 379.44,459.887" style="fill:none;fill-rule:nonzero;stroke:rgb(51,94,234);stroke-width:0.5px;stroke-linecap:round;stroke-linejoin:round;stroke-miterlimit:4;"/>
                                    <path d="M384.05,459.639C382.97,459.786 381.969,460.431 381.388,461.353" style="fill:none;fill-rule:nonzero;stroke:rgb(51,94,234);stroke-width:0.5px;stroke-linecap:round;stroke-linejoin:round;stroke-miterlimit:4;"/>
                                    <path d="M386.473,460.872C385.394,461.019 384.392,461.664 383.812,462.586" style="fill:none;fill-rule:nonzero;stroke:rgb(51,94,234);stroke-width:0.5px;stroke-linecap:round;stroke-linejoin:round;stroke-miterlimit:4;"/>
                                </g>
                            </g>
                            <g>
                                <path d="M325.555,462.712L334.073,462.712L338.231,442.984L326.093,442.984L325.555,462.712Z" style="fill:rgb(167,120,101);fill-rule:nonzero;"/>
                                <g>
                                    <path d="M335.88,456.987L332.746,456.987C332.037,456.987 331.381,457.346 330.962,457.918C329.155,460.386 327.796,459.453 325.83,457.133C324.581,456.987 324.244,458.421 324.142,458.807L321.799,467.329C321.596,468.041 322.008,468.783 322.719,468.986C322.846,469.023 322.977,469.04 323.109,469.038L347.94,469.038C351.89,469.038 352.708,465.058 351.082,464.69C343.766,463.073 338.586,460.92 336.325,458.792C335.905,458.42 336.336,458.141 335.88,456.987Z" style="fill:rgb(38,50,56);fill-rule:nonzero;"/>
                                    <path d="M342.682,459.41C343.011,459.173 343.209,458.793 343.214,458.387C343.241,458.169 343.142,457.955 342.958,457.835C341.976,457.139 338.057,458.97 337.617,459.185C337.568,459.203 337.53,459.241 337.512,459.29C337.48,459.381 337.526,459.48 337.617,459.513C338.58,459.741 339.564,459.868 340.553,459.891C341.296,459.962 342.042,459.793 342.682,459.41ZM342.712,458.131C342.792,458.181 342.833,458.275 342.815,458.367C342.798,458.66 342.657,458.932 342.426,459.114C341.536,459.779 339.387,459.492 338.231,459.277C339.858,458.561 342.17,457.753 342.712,458.131Z" style="fill:rgb(51,94,234);fill-rule:nonzero;"/>
                                    <path d="M337.75,459.554C338.927,459.063 341.392,457.129 341.259,456.106C341.239,455.891 341.086,455.635 340.553,455.563C338.405,455.318 337.484,459.175 337.484,459.339C337.463,459.405 337.483,459.477 337.535,459.523C337.575,459.535 337.618,459.535 337.658,459.523L337.75,459.554ZM340.482,455.88C340.881,455.921 340.881,456.065 340.881,456.116C340.993,456.74 339.203,458.346 337.924,459.022C338.19,458.121 338.978,455.87 340.338,455.87L340.482,455.88Z" style="fill:rgb(51,94,234);fill-rule:nonzero;"/>
                                    <path d="M338.056,459.406C336.977,459.553 335.975,460.198 335.395,461.12" style="fill:none;fill-rule:nonzero;stroke:rgb(51,94,234);stroke-width:0.5px;stroke-linecap:round;stroke-linejoin:round;stroke-miterlimit:4;"/>
                                    <path d="M340.004,460.872C338.925,461.019 337.923,461.664 337.342,462.586" style="fill:none;fill-rule:nonzero;stroke:rgb(51,94,234);stroke-width:0.5px;stroke-linecap:round;stroke-linejoin:round;stroke-miterlimit:4;"/>
                                    <path d="M342.428,462.105C341.348,462.252 340.347,462.897 339.766,463.819" style="fill:none;fill-rule:nonzero;stroke:rgb(51,94,234);stroke-width:0.5px;stroke-linecap:round;stroke-linejoin:round;stroke-miterlimit:4;"/>
                                </g>
                            </g>
                            <g>
                                <path d="M328.749,269.687L373.964,269.687C376.66,284.439 382.731,322.774 383.516,367.599C384.055,398.373 384.776,448.137 383.516,450.801L365.508,450.861C365.508,450.861 364.738,412.423 362.351,374.232C360.976,352.244 357.282,315.058 356.823,313.741C355.271,333.17 352.598,368.121 351.046,379.123C347.115,406.197 342.428,451.319 342.428,451.319L323.65,451.319C323.65,451.319 325.101,403.159 326.573,376.556C328.182,347.642 328.749,275.619 328.749,269.687Z" style="fill:rgb(38,50,56);fill-rule:nonzero;"/>
                                <path d="M356.834,313.85C356.834,313.85 358.655,330.306 359.314,336.992C360.579,319.747 361.864,307.377 361.864,307.377L356.834,313.85Z" style="fill:rgb(38,50,56);fill-opacity:0.2;fill-rule:nonzero;"/>
                            </g>
                            <path d="M431.998,232.864C431.435,233.807 414.386,250.109 413.604,249.626C412.822,249.143 406.338,228.645 406.338,228.645L391.68,230.266C391.68,230.266 402.613,264.755 410.074,267.054C417.536,269.354 435.917,237.849 435.917,237.849" style="fill:rgb(167,120,101);fill-rule:nonzero;"/>
                            <g>
                                <path d="M327.496,277.551L326.461,283.011C326.461,283.011 358.088,287.104 377.758,286.989L377.068,283.241L327.496,277.551Z" style="fill:rgb(51,94,234);fill-rule:nonzero;"/>
                                <path d="M385.472,226.288L386.806,228.737L393.025,240.233L394.324,242.613L411.787,236.543C411.787,236.543 404.522,209.434 402.004,206.652L385.472,226.288Z" style="fill:rgb(51,94,234);fill-rule:nonzero;"/>
                                <path d="M385.472,226.288L386.806,228.737L393.025,240.233L394.324,242.613L411.787,236.543C411.787,236.543 404.522,209.434 402.004,206.652L385.472,226.288Z" style="fill:white;fill-opacity:0.4;fill-rule:nonzero;"/>
                                <path d="M386.806,228.737L393.025,240.233C396.877,232.68 395.761,222.333 395.761,222.333L386.806,228.737Z" style="fill:rgb(38,50,56);fill-opacity:0.2;fill-rule:nonzero;"/>
                                <path d="M402.004,206.664C395.355,198.985 385.846,194.372 375.7,193.902C358.593,193.098 353.213,194.799 346.959,200.386C337.819,208.549 326.449,278.827 326.449,278.827C343.13,283.471 360.458,285.354 377.746,284.403C377.746,284.403 377.953,264.859 384.127,251.741C391.08,237.129 397.052,222.07 402.004,206.664Z" style="fill:rgb(51,94,234);fill-rule:nonzero;"/>
                                <path d="M326.449,278.827C343.13,283.471 360.457,285.359 377.746,284.414C377.746,284.414 377.746,282 378.08,278.309C378.218,276.562 378.425,274.516 378.712,272.308C379,270.101 379.413,267.583 379.862,265.077C380.138,263.732 380.46,262.375 380.805,261.03C381.606,257.837 382.699,254.724 384.07,251.73C384.828,250.12 385.564,248.522 386.277,246.959C387.507,244.222 388.68,241.567 389.726,239.026C392.025,233.68 393.979,228.794 395.612,224.518C396.762,221.448 397.796,218.7 398.636,216.344C399.567,213.711 400.303,211.55 400.843,209.94C401.544,207.813 401.889,206.652 401.889,206.652C401.318,205.937 400.704,205.257 400.05,204.617C393.634,198.293 385.151,194.497 376.16,193.925L375.585,193.925C362.548,193.316 356.329,194.155 351.339,197.064C349.73,198.027 348.224,199.152 346.844,200.421C345.546,201.827 344.524,203.465 343.832,205.249C341.707,210.191 339.962,215.287 338.613,220.494L337.854,223.287C336.704,227.553 335.624,232.094 334.589,236.692C334.29,238.003 334.003,239.313 333.715,240.613C333.29,242.613 332.864,244.602 332.462,246.568C331.427,251.523 330.496,256.328 329.68,260.651C328.53,266.859 327.599,272.055 327.047,275.286C326.668,277.562 326.449,278.827 326.449,278.827ZM376.689,194.558C377.842,194.587 378.993,194.675 380.138,194.822C384.736,195.443 391.807,199.133 391.634,200.881C391.462,202.628 388.772,207.089 381.897,206.008C379.501,205.566 377.228,204.618 375.229,203.226C371.435,200.72 368.676,197.328 368.4,196.225C368.055,194.903 372.516,194.454 376.7,194.581L376.689,194.558Z" style="fill:white;fill-opacity:0.4;fill-rule:nonzero;"/>
                                <path d="M333.715,240.647C344.568,236.14 353.144,217.528 353.144,217.528L346.982,213.803L338.613,220.528L337.854,223.322C336.704,227.587 335.624,232.128 334.589,236.727C334.29,238.037 334.003,239.348 333.715,240.647Z" style="fill:rgb(38,50,56);fill-opacity:0.2;fill-rule:nonzero;"/>
                                <path d="M393.485,242.624L412.201,235.75L412.742,237.336L394.014,244.004L393.485,242.624Z" style="fill:rgb(51,94,234);fill-rule:nonzero;"/>
                                <g transform="matrix(0.156606,-0.987661,0.987661,0.156606,-37.2189,570.122)">
                                    <path d="M335.879,278.609C335.879,275.705 333.521,273.347 330.617,273.347L299.808,273.347C296.904,273.347 294.546,275.705 294.546,278.609L294.546,335.098C294.546,338.002 296.904,340.36 299.808,340.36L330.617,340.36C333.521,340.36 335.879,338.002 335.879,335.098L335.879,278.609Z" style="fill:rgb(51,94,234);"/>
                                </g>
                                <path d="M309.953,299.082L298.928,304.796L307.642,313.637" style="fill:none;fill-rule:nonzero;stroke:white;stroke-width:2px;stroke-linecap:round;stroke-linejoin:round;stroke-miterlimit:4;"/>
                                <path d="M320.484,315.671L331.497,309.958L322.795,301.117" style="fill:none;fill-rule:nonzero;stroke:white;stroke-width:2px;stroke-linecap:round;stroke-linejoin:round;stroke-miterlimit:4;"/>
                                <path d="M311.482,314.246L318.955,300.508" style="fill:none;fill-rule:nonzero;stroke:white;stroke-width:2px;stroke-linecap:round;stroke-linejoin:round;stroke-miterlimit:4;"/>
                                <path d="M340.487,203.387C340.487,203.387 315.107,226.342 312.325,230.332C309.543,234.321 309.677,274.409 309.677,274.409C309.677,274.409 308.43,276.934 308.399,278.742C308.383,279.698 307.858,285.518 308.042,286.093C308.042,286.093 311.458,295.497 319.933,285.974L322.414,286.354L317.252,276.114L325.241,237.813L345.143,221.701L340.487,203.387Z" style="fill:rgb(167,120,101);fill-rule:nonzero;"/>
                                <path d="M356.202,195.121C359.18,201.433 356.915,214.723 351.42,219.413C345.605,224.235 339.459,228.641 333.025,232.6L323,219.459C323,219.459 333.669,209.043 340.13,203.042C344.525,198.782 350.147,196.011 356.202,195.121Z" style="fill:rgb(51,94,234);fill-rule:nonzero;"/>
                                <path d="M356.202,195.121C359.18,201.433 356.915,214.723 351.42,219.413C345.605,224.235 339.459,228.641 333.025,232.6L323,219.459C323,219.459 333.669,209.043 340.13,203.042C344.525,198.782 350.147,196.011 356.202,195.121Z" style="fill:white;fill-opacity:0.4;fill-rule:nonzero;"/>
                            </g>
                            <g>
                                <path d="M370.676,196.282C372.527,201.571 379.413,203.985 383.023,204.33C385.756,204.761 388.439,203.311 389.576,200.789C389.576,200.789 385.449,198.731 385.863,196.42C386.155,195.007 386.734,193.669 387.564,192.488C387.994,191.814 388.463,191.166 388.967,190.546L382.357,176.37C380.885,182.51 376.367,194.305 370.676,196.282Z" style="fill:rgb(167,120,101);fill-rule:nonzero;"/>
                                <path d="M382.092,182.912C378.942,189.81 383.391,194.558 385.863,196.374C386.155,194.961 386.734,193.623 387.564,192.442L382.092,182.912Z" style="fill:rgb(38,50,56);fill-opacity:0.2;fill-rule:nonzero;"/>
                                <path d="M404.257,164.506C404.257,164.506 406.373,176.186 400.28,180.866C394.186,185.545 393.566,163.724 393.566,163.724L404.257,164.506Z" style="fill:rgb(167,120,101);fill-rule:nonzero;"/>
                                <path d="M404.257,164.506C404.257,164.506 406.373,176.186 400.28,180.866C394.186,185.545 393.566,163.724 393.566,163.724L404.257,164.506Z" style="fill:rgb(38,50,56);fill-opacity:0.4;fill-rule:nonzero;"/>
                                <path d="M382.472,190.695C385.264,194.588 390.313,196.136 394.807,194.477C397.663,193.475 400.028,191.418 401.418,188.729C401.613,188.373 401.786,187.982 401.958,187.579C404.809,180.325 405.407,162.621 397.727,163.276C391.381,163.816 385.173,161.862 381.931,167.346C381.005,168.906 380.462,170.663 380.345,172.473C379.655,180.934 378.85,185.843 382.472,190.695Z" style="fill:rgb(167,120,101);fill-rule:nonzero;"/>
                                <path d="M392.68,176.658C392.542,177.325 392.864,177.934 393.313,178.003C393.761,178.072 394.198,177.555 394.301,176.853C394.405,176.152 394.106,175.577 393.669,175.52C393.232,175.462 392.784,175.968 392.68,176.658Z" style="fill:rgb(38,50,56);fill-rule:nonzero;"/>
                                <path d="M400.371,177.75C400.234,178.417 400.567,179.026 401.004,179.095C401.441,179.164 401.889,178.647 401.981,177.945C402.073,177.244 401.797,176.669 401.349,176.6C400.9,176.531 400.463,177.106 400.371,177.75Z" style="fill:rgb(38,50,56);fill-rule:nonzero;"/>
                                <path d="M397.877,177.738C398.395,179.932 399.211,182.044 400.303,184.016C399.26,184.557 398.032,184.612 396.946,184.165L397.877,177.738Z" style="fill:rgb(142,79,66);fill-rule:nonzero;"/>
                                <path d="M390.657,173.83C390.8,173.872 390.955,173.833 391.059,173.726C391.773,172.991 392.79,172.633 393.807,172.761C394.025,172.804 394.238,172.667 394.29,172.45C394.338,172.24 394.206,172.03 393.996,171.982L393.979,171.979C392.713,171.793 391.433,172.22 390.531,173.128C390.376,173.289 390.376,173.543 390.531,173.703C390.567,173.751 390.61,173.793 390.657,173.83Z" style="fill:rgb(38,50,56);fill-rule:nonzero;"/>
                                <path d="M404.05,175.566C404.124,175.594 404.206,175.594 404.28,175.566C404.483,175.514 404.606,175.308 404.555,175.105L404.545,175.071C404.175,173.827 403.223,172.841 401.992,172.427C401.786,172.363 401.567,172.478 401.503,172.685L401.498,172.703C401.439,172.916 401.562,173.136 401.774,173.197C402.738,173.552 403.479,174.34 403.774,175.324C403.821,175.445 403.924,175.536 404.05,175.566Z" style="fill:rgb(38,50,56);fill-rule:nonzero;"/>
                                <path d="M391.611,184.464C391.611,184.464 393.025,187.499 395.911,187.384" style="fill:none;fill-rule:nonzero;stroke:rgb(38,50,56);stroke-width:0.5px;stroke-linecap:round;stroke-linejoin:round;stroke-miterlimit:4;"/>
                                <path d="M387.944,162.977L388.059,166.725C386.699,167.219 385.952,168.679 386.346,170.07C387.243,173.289 385.024,177.957 382.46,179.658C382.46,179.658 382.46,178.302 381.31,178.509C380.161,178.716 379.804,185.774 381.701,189.327C381.701,189.327 377.643,185.591 376.436,178.037C375.286,171.059 375.505,166.633 376.436,163.287L387.944,162.977Z" style="fill:rgb(167,120,101);fill-rule:nonzero;"/>
                                <path d="M387.944,162.977L388.059,166.725C386.699,167.219 385.952,168.679 386.346,170.07C387.243,173.289 385.024,177.957 382.46,179.658C382.46,179.658 382.46,178.302 381.31,178.509C380.161,178.716 379.804,185.774 381.701,189.327C381.701,189.327 377.643,185.591 376.436,178.037C375.286,171.059 375.505,166.633 376.436,163.287L387.944,162.977Z" style="fill:rgb(38,50,56);fill-opacity:0.4;fill-rule:nonzero;"/>
                                <path d="M375.792,167.472C379.895,167.874 384.035,167.622 388.059,166.725C399.636,164.426 404.568,168.679 404.568,168.679C406.19,167.22 407.072,165.11 406.97,162.931C406.637,159.597 402.004,159.034 402.004,159.034C402.004,159.034 400.613,155.274 397.543,154.136C394.474,152.998 391.393,155.849 391.393,155.849C391.393,155.849 387.564,152.147 383.104,153.205C380.009,153.84 377.78,156.553 377.758,159.712C377.758,159.712 372.527,160.241 372.642,162.931C372.757,165.621 375.792,167.472 375.792,167.472Z" style="fill:rgb(38,50,56);fill-rule:nonzero;"/>
                                <path d="M393.577,172.887C395.653,172.887 397.336,174.827 397.336,177.221C397.336,179.615 395.653,181.555 393.577,181.555C391.501,181.555 389.818,179.615 389.818,177.221C389.818,174.827 391.501,172.887 393.577,172.887Z" style="fill:none;fill-rule:nonzero;stroke:rgb(38,50,56);stroke-width:0.5px;stroke-linecap:round;stroke-linejoin:round;stroke-miterlimit:4;"/>
                                <path d="M406.787,177.865C406.488,179.939 404.565,181.378 402.491,181.08C400.417,180.781 398.978,178.858 399.276,176.784C399.545,174.919 401.142,173.533 403.027,173.531C405.256,173.702 406.932,175.635 406.787,177.865Z" style="fill:none;fill-rule:nonzero;stroke:rgb(38,50,56);stroke-width:0.5px;stroke-linecap:round;stroke-linejoin:round;stroke-miterlimit:4;"/>
                                <path d="M397.325,177.738C397.325,177.738 398.544,176.98 399.268,177.865" style="fill:none;fill-rule:nonzero;stroke:rgb(38,50,56);stroke-width:0.5px;stroke-linecap:round;stroke-linejoin:round;stroke-miterlimit:4;"/>
                                <path d="M389.818,177.221L383.23,176.336C382.367,176.225 381.494,176.46 380.805,176.991L380.517,177.221" style="fill:none;fill-rule:nonzero;stroke:rgb(38,50,56);stroke-width:0.5px;stroke-linecap:round;stroke-linejoin:round;stroke-miterlimit:4;"/>
                                <path d="M375.723,178.808C376.384,180.83 377.818,182.508 379.712,183.475C382.23,184.728 384.024,182.613 383.771,179.957C383.541,177.589 381.966,174.025 379.172,173.887C377.192,173.821 375.533,175.372 375.467,177.352C375.451,177.85 375.538,178.345 375.723,178.808Z" style="fill:rgb(167,120,101);fill-rule:nonzero;"/>
                            </g>
                            <path d="M445.163,217.283C445.352,216.151 444.23,215.078 443.571,215.67C442.911,216.261 440.758,218.075 439.212,219.681C438.545,220.374 437.568,221.29 436.627,222.173C436.505,222.263 436.382,222.351 436.271,222.461L435.355,223.374C434.895,223.815 434.494,224.209 434.221,224.506L433.17,225.555C432.547,226.185 432.047,226.926 431.697,227.74L429.526,235.577L432.914,238.947C437.154,240.33 440.95,232.971 440.95,232.971L443.683,229.331C444.603,228.106 444.513,226.399 443.47,225.278L440.822,222.549L440.86,222.503C441.888,221.305 444.974,218.416 445.163,217.283Z" style="fill:rgb(167,120,101);fill-rule:nonzero;"/>
                        </g>
                    </g>
                    <g id="freepik--Character_1--inject-60">
                        <path d="M284.204,182.782L283.621,182.782L283.621,177.699L251.089,177.699L251.089,182.782L251.054,182.782C249.813,182.782 248.804,183.792 248.804,185.032L248.804,189.364C248.804,190.605 249.813,191.614 251.054,191.614L266.092,191.614C266.824,191.614 267.42,192.21 267.42,192.943L267.42,198.91L263.761,198.91L263.761,204.008C262.027,204.776 260.628,205.445 260.281,205.705C259.258,206.472 258.457,209.865 258.457,209.865L256.789,212.339C256.31,212.065 256.005,211.968 256.005,211.968L239.006,235.207C228.627,228.746 217.748,223.128 206.472,218.405C200.127,231.024 207.029,248.29 207.029,248.29C207.029,248.29 230.872,261.199 242.213,257.899C253.553,254.599 262.279,221.356 262.279,221.356C261.942,219.769 261.487,218.452 260.98,217.344L262.414,214.477C262.559,214.47 262.836,214.436 263.337,214.35C263.455,214.33 263.601,214.294 263.761,214.251L263.761,221.307C263.761,223.284 265.364,224.887 267.341,224.887L268.5,224.887C270.477,224.887 272.079,223.284 272.079,221.307L272.079,210.344C272.313,210.171 272.508,210.008 272.632,209.865C273.794,208.529 273.852,200.674 272.632,200.651C272.523,200.648 272.32,200.692 272.079,200.754L272.079,198.91L268.42,198.91L268.42,192.943C268.42,191.659 267.376,190.614 266.092,190.614L251.054,190.614C250.364,190.614 249.804,190.054 249.804,189.364L249.804,185.032C249.804,184.343 250.364,183.782 251.054,183.782L251.089,183.782L251.089,188.865L283.621,188.865L283.621,183.782L284.204,183.782L284.204,182.782Z" style="fill-opacity:0.3;fill-rule:nonzero;"/>
                        <g>
                            <g>
                                <path d="M161.832,223.423C157.707,228.176 136.722,268.6 140.777,278.035C144.833,287.47 178.459,276.594 178.459,276.594L176.449,263.266C176.449,263.266 163.389,263.731 162.134,262.488C160.879,261.245 179.807,242.351 179.807,242.351L161.832,223.423Z" style="fill:rgb(38,50,56);fill-rule:nonzero;"/>
                                <g opacity="0.2">
                                    <path d="M140.779,278.12C141.278,279.212 142.146,280.092 143.231,280.606L143.905,280.908L143.998,280.908C144.206,280.996 144.419,281.069 144.637,281.129C145.581,281.432 146.555,281.635 147.542,281.733L148.39,281.815C148.808,281.815 149.226,281.873 149.656,281.884L150.818,281.884C162.072,281.994 178.468,276.7 178.484,276.597L176.474,263.27C176.474,263.27 173.083,263.391 169.592,263.345C166.23,263.3 162.774,263.101 162.159,262.491C161.857,262.189 162.751,260.841 164.274,259.006C167.968,254.462 175.37,246.898 178.426,243.807L179.809,242.413L161.81,223.508C157.685,228.214 136.701,268.638 140.779,278.12Z" style="fill:white;fill-rule:nonzero;"/>
                                </g>
                                <path d="M168.724,279.275L169.982,274.324L169.06,263.333L172.466,263.333L174.36,275.304L172.556,278.303L168.724,279.275Z" style="fill:rgb(38,50,56);fill-opacity:0.2;fill-rule:nonzero;"/>
                                <path d="M169.06,253.501L164.85,241.12L165.928,256.987L169.06,253.501Z" style="fill:rgb(38,50,56);fill-opacity:0.2;fill-rule:nonzero;"/>
                                <path d="M162.305,262.666C162.305,262.666 160.54,267.216 156.938,270.187C156.938,270.187 162.689,267.933 163.71,263.018L162.305,262.666Z" style="fill:rgb(38,50,56);fill-opacity:0.2;fill-rule:nonzero;"/>
                            </g>
                            <g>
                                <path d="M193.483,447.794L199.293,447.887C205.207,420.105 209.39,385.723 211.992,359.789C212.399,355.722 212.771,351.876 213.154,348.285C213.306,346.577 213.457,344.939 213.596,343.359C214.293,335.562 214.758,329.415 215.06,325.558C215.269,322.769 215.374,321.235 215.374,321.235L194.25,321.235L194.447,326.592L195.144,344.265L195.214,346.287L195.656,357.964L196.388,377.845C189.172,405.848 193.483,447.794 193.483,447.794Z" style="fill:rgb(233,179,118);fill-rule:nonzero;"/>
                                <path d="M146.308,446.307L152.037,447.387C163.505,418.722 174.276,382.017 181.283,356.373C182.363,352.399 183.362,348.681 184.257,345.311C184.257,345.137 184.338,344.974 184.385,344.811C186.151,338.118 187.511,332.785 188.359,329.404L189.37,325.302L168.687,321.724L167.525,330.438L165.794,343.219L165.457,345.729L164.295,354.455L161.146,377.857C149.201,404.233 146.308,446.307 146.308,446.307Z" style="fill:rgb(233,179,118);fill-rule:nonzero;"/>
                                <path d="M210.668,467.105C209.585,466.226 208.353,465.549 207.031,465.107C205.709,464.664 203.069,461.179 201.152,449.351L195.969,447.991C194.165,447.561 192.284,448.298 191.252,449.839C191.109,450.049 190.999,450.281 190.927,450.524C190.659,451.793 190.472,453.078 190.369,454.37C190.079,458.695 190.052,463.033 190.288,467.361L191.229,467.361L191.601,459.227C191.74,456.45 193.866,459.704 194.471,462.713C195.075,465.723 196.365,468.86 202.43,469.011C209.518,469.116 212.457,468.837 210.668,467.105Z" style="fill:rgb(38,50,56);fill-rule:nonzero;"/>
                                <path d="M191.066,450.002C190.729,447.236 190.625,442.426 190.625,442.426L202.151,443.704C202.151,443.704 200.757,449.177 201.907,453.29C196.097,451.698 191.066,450.002 191.066,450.002Z" style="fill:rgb(38,50,56);fill-rule:nonzero;"/>
                                <path d="M163.772,467.105C162.689,466.23 161.457,465.557 160.135,465.118C158.814,464.679 156.173,461.191 154.267,449.363L149.074,448.003C147.27,447.573 145.388,448.31 144.356,449.851C144.213,450.061 144.103,450.292 144.031,450.536C143.763,451.805 143.577,453.09 143.473,454.382C143.185,458.707 143.162,463.045 143.403,467.373L144.286,467.373L144.658,459.239C144.798,456.462 146.924,459.715 147.528,462.725C148.132,465.734 149.422,468.872 155.499,469.023C162.622,469.116 165.561,468.837 163.772,467.105Z" style="fill:rgb(38,50,56);fill-rule:nonzero;"/>
                                <path d="M144.182,450.002C143.833,447.236 143.729,442.426 143.729,442.426L155.255,443.704C155.255,443.704 153.861,449.177 155.011,453.29C149.201,451.698 144.182,450.002 144.182,450.002Z" style="fill:rgb(38,50,56);fill-rule:nonzero;"/>
                            </g>
                            <path d="M178.459,202.753C179.795,203.705 181.308,204.38 182.909,204.74C187.615,205.832 190.834,205.03 192.937,202.869C190.12,203.565 187.154,203.32 184.489,202.172C182.496,201.436 180.276,201.65 178.459,202.753Z" style="fill:rgb(38,50,56);fill-opacity:0.2;fill-rule:nonzero;"/>
                            <g>
                                <path d="M193.924,187.915C193.924,190.331 194.993,192.284 196.248,192.284C197.503,192.284 198.642,190.331 198.642,187.915C198.642,185.498 197.573,183.546 196.248,183.546C194.924,183.546 193.924,185.498 193.924,187.915Z" style="fill:none;fill-rule:nonzero;stroke:rgb(38,50,56);stroke-width:0.5px;stroke-linecap:round;stroke-linejoin:round;stroke-miterlimit:4;"/>
                                <path d="M178.18,202.509C178.265,202.588 178.359,202.658 178.459,202.718C179.785,203.729 181.297,204.467 182.909,204.891C187.615,205.983 190.834,205.332 192.937,203.206C195.876,200.01 196.609,194.352 196.19,187.52C196.117,184.801 195.615,182.111 194.703,179.549L194.703,179.421C194.703,179.397 194.633,179.223 194.587,179.13C193.416,176.194 190.834,174.053 187.731,173.448C186.408,173.152 185.056,173 183.699,172.995C170.372,172.891 167.978,194.944 178.18,202.508Z" style="fill:rgb(233,179,118);fill-rule:nonzero;"/>
                                <path d="M177.111,214.779C176.286,218.567 181.201,220.112 181.201,220.112C189.23,216.626 190.717,212.408 190.717,212.408C184.013,208.922 185.954,199.034 185.954,199.034L184.594,199.708L175.031,201.579C175.031,201.579 177.68,206.668 178.029,207.83C179.842,213.93 177.111,214.779 177.111,214.779Z" style="fill:rgb(233,179,118);fill-rule:nonzero;"/>
                                <path d="M194.714,179.491C194.714,179.491 195.446,188.786 186.581,192.841C186.581,192.841 182.781,202.543 177.193,202.671C169.558,202.857 162.843,192.016 165.48,180.966C168.931,166.628 190.648,165.466 194.714,179.491Z" style="fill:rgb(38,50,56);fill-rule:nonzero;"/>
                                <path d="M178.459,169.568C178.459,169.568 187.359,167.313 192.286,170.904C198.038,175.087 200.222,179.409 193.448,186.125C193.448,186.125 178.494,181.28 173.521,182.302C170.614,182.889 167.761,183.716 164.992,184.777C163.912,174.901 173.486,167.546 178.459,169.567Z" style="fill:rgb(38,50,56);fill-rule:nonzero;"/>
                                <path d="M191.089,187.915C191.089,187.915 188.765,198.674 192.414,207.854L189.618,208.445L188.88,205.806C188.372,205.963 188.162,209.179 187.523,209.365C181.01,211.266 169.247,214.091 163.912,211.2C156.556,207.214 163.296,193.841 163.609,186.125C163.923,178.41 167.27,167.011 178.459,169.568C189.649,172.124 191.089,187.915 191.089,187.915Z" style="fill:rgb(38,50,56);fill-rule:nonzero;"/>
                                <path d="M198.307,187.229L189.765,187.229" style="fill:none;fill-rule:nonzero;stroke:rgb(38,50,56);stroke-width:0.5px;stroke-linecap:round;stroke-linejoin:round;stroke-miterlimit:4;"/>
                                <path d="M169.529,177.243C170.379,174.865 169.986,172.04 168.382,170.09C166.778,168.14 163.973,167.211 161.567,167.977C159.161,168.743 157.379,171.244 157.599,173.759C157.746,175.441 158.72,176.997 160.074,178.006C161.427,179.014 163.129,179.5 164.817,179.536C162.32,181.269 159.209,182.095 156.181,181.829C158.513,183.626 161.633,184.359 164.522,183.789C162.893,184.953 161.086,185.866 159.184,186.489C161.255,187.439 163.708,187.521 165.838,186.712C167.968,185.902 169.748,184.212 170.666,182.126L169.529,177.243Z" style="fill:rgb(38,50,56);fill-rule:nonzero;"/>
                            </g>
                            <g>
                                <g>
                                    <path d="M158.45,369.254C151.955,381.898 148.663,414.607 145.143,439.362L156.265,441.15L171.473,394.676L186.511,340.442L191.02,323.919L192.205,369.76C187.137,386.207 188.691,412.541 188.359,438.393L202.151,439.798L215.676,340.396C226.133,278.964 208.251,264.452 208.251,264.452L176.379,270.865C161.948,295.406 165.376,323.92 165.376,323.92L158.45,369.254Z" style="fill:rgb(51,94,234);fill-rule:nonzero;"/>
                                    <path d="M185.663,340.338L186.511,340.442L191.02,323.919C191.02,323.919 181.352,307.408 184.373,298.81C183.943,299.414 173.532,314.856 185.663,340.338Z" style="fill:rgb(38,50,56);fill-opacity:0.2;fill-rule:nonzero;"/>
                                </g>
                                <path d="M173.298,276.708L215.244,277.25C215.244,277.25 214.714,274.861 214.003,273.747C213.291,272.633 213.702,273.747 213.702,273.747L174.01,275.238L173.298,276.708Z" style="fill:rgb(38,50,56);fill-opacity:0.2;fill-rule:nonzero;"/>
                            </g>
                            <g>
                                <g>
                                    <path d="M265.215,202.485L265.215,188.48C265.215,187.47 264.396,186.651 263.387,186.651L248.348,186.651C247.382,186.651 246.598,185.868 246.598,184.901L246.598,180.569C246.598,179.602 247.382,178.819 248.348,178.819L281.499,178.819" style="fill:none;fill-rule:nonzero;stroke:rgb(38,50,56);stroke-width:1px;"/>
                                    <g transform="matrix(-1,-7.65714e-16,7.65714e-16,-1,529.299,357.638)">
                                        <rect x="248.384" y="173.236" width="32.532" height="11.166" style="fill:rgb(51,94,234);"/>
                                    </g>
                                    <g transform="matrix(-1,-7.65714e-16,7.65714e-16,-1,529.299,357.638)">
                                        <rect x="248.384" y="173.236" width="32.532" height="11.166" style="fill:white;fill-opacity:0.3;"/>
                                    </g>
                                    <g transform="matrix(-1,-7.65714e-16,7.65714e-16,-1,530.43,414.871)">
                                        <path d="M264.635,194.447L265.794,194.447C267.77,194.447 269.374,196.051 269.374,198.027L269.374,220.424L261.056,220.424L261.056,198.027C261.056,196.051 262.66,194.447 264.635,194.447Z" style="fill:rgb(38,50,56);fill-rule:nonzero;"/>
                                    </g>
                                    <g opacity="0.3">
                                        <path d="M248.389,177.64C248.833,177.472 249.635,177.786 249.851,178.209C250.066,178.632 250.119,179.122 250.325,179.549C250.859,180.656 252.503,181.022 253.456,180.245C254.162,179.67 254.564,178.589 255.47,178.496C256.237,178.418 256.847,179.14 257.151,179.849C257.454,180.557 257.631,181.365 258.202,181.884C258.718,182.352 259.455,182.484 260.151,182.509C261.089,182.543 262.083,182.399 262.818,181.818C263.487,181.289 263.853,180.475 264.192,179.693C264.532,178.911 264.894,178.097 265.559,177.563C266.224,177.029 267.289,176.89 267.892,177.492C268.333,177.931 268.413,178.623 268.794,179.115C269.153,179.577 269.781,179.814 270.356,179.704C270.931,179.594 271.426,179.141 271.589,178.579C271.722,178.119 271.672,177.557 272.034,177.243C272.537,176.806 273.365,177.31 273.565,177.945C273.765,178.581 273.599,179.269 273.638,179.934C273.696,180.932 274.285,181.92 275.205,182.311C276.125,182.702 277.336,182.372 277.816,181.495C278.25,180.702 278.056,179.672 278.513,178.892C278.92,178.196 280.08,177.628 280.839,177.9L280.916,173.236L248.384,173.236L248.389,177.64Z" style="fill:white;fill-rule:nonzero;"/>
                                    </g>
                                </g>
                                <path d="M203.766,213.942C203.766,213.942 193.134,210.154 177.111,214.779C161.088,219.403 160.484,226.224 160.484,226.224C160.484,226.224 170.639,249.242 172.243,275.304L214.003,273.747C214.003,273.747 218.987,236.96 203.766,213.942Z" style="fill:rgb(38,50,56);fill-rule:nonzero;"/>
                                <path d="M160.484,226.224C160.484,226.224 170.639,249.242 172.243,275.304L214.003,273.747C214.502,269.505 214.758,265.237 214.77,260.966C214.852,254.714 214.464,248.464 213.608,242.27C212.213,232.626 209.343,222.331 203.766,213.896C203.766,213.896 193.134,210.108 177.111,214.732C161.088,219.357 160.484,226.224 160.484,226.224Z" style="fill:white;fill-opacity:0.2;fill-rule:nonzero;"/>
                                <path d="M204.347,243.885C204.347,243.885 206.078,254.482 214.804,261.012C214.887,254.76 214.498,248.511 213.643,242.317L204.347,243.885Z" style="fill:rgb(38,50,56);fill-opacity:0.2;fill-rule:nonzero;"/>
                                <path d="M250.488,213.21L255.751,205.402C255.751,205.402 256.553,202.009 257.575,201.242C258.598,200.475 268.707,196.164 269.927,196.188C271.147,196.211 271.089,204.066 269.927,205.402C268.765,206.738 262.328,209.596 260.631,209.887C258.935,210.177 259.772,209.887 259.772,209.887L255.124,219.182L250.488,213.21Z" style="fill:rgb(233,179,118);fill-rule:nonzero;"/>
                                <path d="M203.766,213.942C215.042,218.665 225.922,224.283 236.3,230.744L253.3,207.505C253.3,207.505 257.878,208.922 259.574,216.893C259.574,216.893 250.848,250.136 239.507,253.436C228.167,256.736 204.324,243.827 204.324,243.827C204.324,243.827 197.422,226.561 203.766,213.942Z" style="fill:rgb(38,50,56);fill-rule:nonzero;"/>
                                <path d="M203.766,213.942C215.042,218.665 225.922,224.283 236.3,230.744L253.3,207.505C253.3,207.505 257.878,208.922 259.574,216.893C259.574,216.893 250.848,250.136 239.507,253.436C228.167,256.736 204.324,243.827 204.324,243.827C204.324,243.827 197.422,226.561 203.766,213.942Z" style="fill:white;fill-opacity:0.2;fill-rule:nonzero;"/>
                                <path d="M175.053,242.081C175.053,242.081 179.793,243.767 184.034,239.42C188.276,235.072 190.696,221.282 190.696,221.282L175.053,242.081Z" style="fill:rgb(38,50,56);fill-opacity:0.2;fill-rule:nonzero;"/>
                                <path d="M192.937,212.435C192.937,212.435 188.775,240.857 175.327,242.081C161.88,243.305 155.854,220.799 158.129,218.139C160.403,215.478 177.653,212.235 192.937,212.435Z" style="fill:rgb(38,50,56);fill-rule:nonzero;"/>
                                <path d="M192.937,212.435C192.937,212.435 188.775,240.857 175.327,242.081C161.88,243.305 155.854,220.799 158.129,218.139C160.403,215.478 177.653,212.235 192.937,212.435Z" style="fill:white;fill-opacity:0.3;fill-rule:nonzero;"/>
                            </g>
                            <path d="M191.089,190.157C191.089,188.705 189.927,186.253 187.603,186.59C185.28,186.927 183.955,192.713 189.718,194.003C190.59,194.189 191.089,193.213 191.089,190.157Z" style="fill:rgb(233,179,118);fill-rule:nonzero;"/>
                        </g>
                        <path d="M236.3,230.744C236.3,230.744 240.263,233.492 240.591,234.741C240.591,234.741 240.402,231.43 237.112,229.634L236.3,230.744Z" style="fill:rgb(38,50,56);fill-opacity:0.2;fill-rule:nonzero;"/>
                    </g>
                </g>
            </g>
        </g>
        <g id="Sponsors">
        </g>
    </g>
</svg>
