<?xml version="1.0" encoding="UTF-8" standalone="no"?>
<!DOCTYPE svg PUBLIC "-//W3C//DTD SVG 1.1//EN" "http://www.w3.org/Graphics/SVG/1.1/DTD/svg11.dtd">
<svg width="100%" height="100%" viewBox="0 0 1024 1024" version="1.1" xmlns="http://www.w3.org/2000/svg" xmlns:xlink="http://www.w3.org/1999/xlink" xml:space="preserve" xmlns:serif="http://www.serif.com/" style="fill-rule:evenodd;clip-rule:evenodd;stroke-linejoin:round;stroke-miterlimit:2;">
    <g transform="matrix(1,0,0,1,-54.8333,-24593.6)">
        <g id="Artboard1" transform="matrix(0.339642,0,0,0.339642,3389.89,12593.7)">
            <rect x="-9819.34" y="35331" width="3014.94" height="3014.94" style="fill:none;"/>
            <g id="api-mocking-during-presentation-client-demo.svg" transform="matrix(5.37233,0,0,5.37233,-8311.87,36838.5)">
                <g transform="matrix(1,0,0,1,-250,-250)">
                    <g id="freepik--background-simple--inject-38">
                        <path d="M342.55,141.06C378.47,167.06 439.07,221.9 428.67,283.19C416.73,353.58 326.18,341.98 271.67,318.57C244.03,306.7 222.67,314.12 196.67,325.17C164.67,338.78 135.32,337.87 104.44,320.3C64.78,297.73 52.25,259.73 59.93,217.36C69.35,165.36 108.32,118.88 159.87,108C221.51,95 293.45,105.47 342.55,141.06Z" style="fill:white;fill-opacity:0.45;fill-rule:nonzero;"/>
                    </g>
                    <g id="freepik--Board--inject-38">
                        <path d="M186.12,137.16C186.038,135.867 184.951,134.847 183.655,134.847C182.359,134.847 181.272,135.867 181.19,137.16L180.93,140.34L186.38,140.34L186.12,137.16ZM183.65,138.82C182.986,138.82 182.44,138.274 182.44,137.61C182.44,136.946 182.986,136.4 183.65,136.4C184.314,136.4 184.86,136.946 184.86,137.61C184.86,137.613 184.86,137.62 184.86,137.62C184.86,138.278 184.318,138.82 183.66,138.82C183.657,138.82 183.653,138.82 183.65,138.82Z" style="fill:rgb(51,94,234);fill-rule:nonzero;"/>
                        <path d="M311.56,137.16C311.445,135.888 310.367,134.902 309.09,134.902C307.813,134.902 306.735,135.888 306.62,137.16L306.36,140.34L311.82,140.34L311.56,137.16ZM309.09,138.82C309.087,138.82 309.083,138.82 309.08,138.82C308.416,138.82 307.87,138.274 307.87,137.61C307.87,136.946 308.416,136.4 309.08,136.4C309.744,136.4 310.29,136.946 310.29,137.61C310.29,137.613 310.29,137.617 310.29,137.62C310.29,138.278 309.748,138.82 309.09,138.82Z" style="fill:rgb(51,94,234);fill-rule:nonzero;"/>
                        <rect x="158.57" y="139.84" width="174.3" height="108" style="fill:rgb(38,50,56);"/>
                        <rect x="158.57" y="139.84" width="174.3" height="108" style="fill:white;fill-opacity:0.6;"/>
                        <rect x="163.03" y="144.3" width="165.38" height="99.08" style="fill:white;fill-opacity:0.9;"/>
                        <rect x="156.52" y="244.87" width="178.41" height="5.18" style="fill:rgb(38,50,56);"/>
                        <rect x="156.52" y="244.87" width="178.41" height="5.18" style="fill:white;fill-opacity:0.7;"/>
                        <rect x="179.76" y="162.13" width="12.72" height="16.71" style="fill:rgb(38,50,56);fill-opacity:0.2;"/>
                        <path d="M197.33,178.84C194.727,173.681 193.684,167.873 194.33,162.13L180,162.13C179.354,167.873 180.397,173.681 183,178.84L197.33,178.84Z" style="fill:rgb(51,94,234);fill-rule:nonzero;"/>
                        <path d="M197.33,178.84C194.727,173.681 193.684,167.873 194.33,162.13L180,162.13C179.354,167.873 180.397,173.681 183,178.84L197.33,178.84Z" style="fill:white;fill-opacity:0.5;fill-rule:nonzero;"/>
                        <rect x="301.87" y="162.13" width="12.72" height="16.71" style="fill:rgb(38,50,56);fill-opacity:0.2;"/>
                        <path d="M319.44,178.84C316.837,173.681 315.794,167.873 316.44,162.13L302.06,162.13C301.414,167.873 302.457,173.681 305.06,178.84L319.44,178.84Z" style="fill:rgb(51,94,234);fill-rule:nonzero;"/>
                        <path d="M319.44,178.84C316.837,173.681 315.794,167.873 316.44,162.13L302.06,162.13C301.414,167.873 302.457,173.681 305.06,178.84L319.44,178.84Z" style="fill:white;fill-opacity:0.2;fill-rule:nonzero;"/>
                        <rect x="209.57" y="162.42" width="12.72" height="16.71" style="fill:rgb(38,50,56);fill-opacity:0.2;"/>
                        <path d="M227.14,179.13C224.531,173.973 223.488,168.163 224.14,162.42L209.76,162.42C209.114,168.163 210.157,173.971 212.76,179.13L227.14,179.13Z" style="fill:rgb(51,94,234);fill-rule:nonzero;"/>
                        <path d="M227.14,179.13C224.531,173.973 223.488,168.163 224.14,162.42L209.76,162.42C209.114,168.163 210.157,173.971 212.76,179.13L227.14,179.13Z" style="fill:white;fill-opacity:0.8;fill-rule:nonzero;"/>
                        <rect x="275.9" y="162.13" width="12.72" height="16.71" style="fill:rgb(38,50,56);fill-opacity:0.2;"/>
                        <path d="M293.47,178.84C290.867,173.681 289.824,167.873 290.47,162.13L276.1,162.13C275.448,167.873 276.491,173.683 279.1,178.84L293.47,178.84Z" style="fill:rgb(51,94,234);fill-rule:nonzero;"/>
                        <path d="M293.47,178.84C290.867,173.681 289.824,167.873 290.47,162.13L276.1,162.13C275.448,167.873 276.491,173.683 279.1,178.84L293.47,178.84Z" style="fill:white;fill-opacity:0.6;fill-rule:nonzero;"/>
                        <path d="M269.47,176.38C268.19,168.64 272.47,161.45 280.19,159.38C287.91,157.31 297.26,161.79 298.03,170.38C299.44,186.23 275.03,190.21 271.23,175.23C271.171,175.003 270.965,174.843 270.73,174.843C270.447,174.843 270.213,175.077 270.213,175.36C270.213,175.404 270.219,175.448 270.23,175.49C272.14,183.06 278.54,186.06 286.09,185.6C293.374,185.012 299.055,178.853 299.055,171.546C299.055,170.895 299.01,170.245 298.92,169.6C297.68,160.97 288.5,156.46 280.48,158.25C271.87,160.18 267.06,168.08 268.48,176.57C268.59,177.2 269.54,176.94 269.48,176.31L269.47,176.38Z" style="fill:rgb(51,94,234);fill-rule:nonzero;"/>
                        <path d="M179,189.81C191.55,186.927 204.365,185.352 217.24,185.11C217.91,185.11 217.92,184.04 217.24,184.06C204.271,184.306 191.362,185.894 178.72,188.8C178.06,188.96 178.34,189.97 179,189.8L179,189.81Z" style="fill:rgb(51,94,234);fill-rule:nonzero;"/>
                        <path d="M188.27,191.59C195.778,189.881 203.441,188.939 211.14,188.78C211.81,188.78 211.82,187.71 211.14,187.73C203.35,187.892 195.597,188.847 188,190.58C187.796,190.655 187.66,190.851 187.66,191.068C187.66,191.353 187.895,191.588 188.18,191.588C188.21,191.588 188.24,191.585 188.27,191.58L188.27,191.59Z" style="fill:rgb(51,94,234);fill-rule:nonzero;"/>
                    </g>
                    <g id="freepik--character-3--inject-38">
                        <path d="M376.73,174.71C376.63,175.19 376.3,175.53 375.98,175.46C375.66,175.39 375.49,174.96 375.59,174.46C375.69,173.96 376.02,173.64 376.34,173.7C376.66,173.76 376.83,174.23 376.73,174.71Z" style="fill:rgb(38,50,56);fill-rule:nonzero;"/>
                        <path d="M376.34,175.54C375.468,176.89 374.414,178.115 373.21,179.18C373.777,179.792 374.587,180.122 375.42,180.08L376.34,175.54Z" style="fill:rgb(160,39,36);fill-rule:nonzero;"/>
                        <path d="M379,172.39C379.073,172.391 379.144,172.366 379.2,172.32C379.307,172.205 379.307,172.025 379.2,171.91C378.583,171.214 377.665,170.859 376.74,170.96C376.605,170.982 376.505,171.1 376.505,171.236C376.505,171.254 376.507,171.272 376.51,171.29C376.526,171.425 376.642,171.527 376.778,171.527C376.799,171.527 376.82,171.525 376.84,171.52C377.57,171.462 378.285,171.752 378.77,172.3C378.83,172.362 378.914,172.394 379,172.39Z" style="fill:rgb(38,50,56);fill-rule:nonzero;"/>
                        <path d="M390.43,181.47C389.56,185.93 388.69,194.08 391.8,197.05C391.8,197.05 390.59,201.57 382.31,201.57C373.22,201.57 377.97,197.05 377.97,197.05C382.97,195.87 382.8,192.19 381.97,188.73L390.43,181.47Z" style="fill:rgb(181,91,82);fill-rule:nonzero;"/>
                        <path d="M393,177C391.44,182.83 390.82,186.33 387.22,188.75C381.8,192.4 375.06,188.21 374.85,182.03C374.66,176.46 377.25,167.86 383.51,166.68C384.023,166.581 384.545,166.532 385.067,166.532C389.587,166.532 393.307,170.251 393.307,174.772C393.307,175.525 393.204,176.275 393,177Z" style="fill:rgb(181,91,82);fill-rule:nonzero;"/>
                        <path d="M380.55,179.37C380.55,179.37 381.85,187.37 389.72,187.12C389.72,187.12 399.23,181.77 398.24,171.67C398.24,171.67 401.24,167.72 399.44,166.08C398.27,165.08 396.9,167.28 396.9,167.28C396.9,167.28 397.56,161.49 395.19,160.86C392.82,160.23 392.57,163.95 392.57,163.95C392.57,163.95 392.02,158.09 389.57,157.78C386.75,157.42 387.57,161.57 387.57,161.57C387.57,161.57 386.65,156.69 383.89,156.7C381.59,156.7 382.7,161.34 382.7,161.34C382.7,161.34 380.52,156.41 378.43,157.54C376.34,158.67 379.02,162.29 379.02,162.29C379.02,162.29 375.02,159.48 374.22,161.42C373.42,163.36 377.48,165.73 377.48,165.73C377.48,165.73 373.58,166.18 373.9,168.06C374.22,169.94 378.78,169.65 378.78,169.65C378.78,169.65 377,173.9 381,175.9L380.55,179.37Z" style="fill:rgb(38,50,56);fill-rule:nonzero;"/>
                        <path d="M383.05,177.19C382.657,178.637 381.796,179.915 380.6,180.82C379.02,182 377.83,180.82 377.94,179.05C378.05,177.44 378.99,174.88 380.74,174.4C382.49,173.92 383.51,175.44 383.05,177.19Z" style="fill:rgb(181,91,82);fill-rule:nonzero;"/>
                        <path d="M380.19,187.8C378.78,187.55 378.11,187.87 376.02,186.02C377.327,188.262 379.629,189.749 382.21,190.02C382.14,189.79 381.52,188 380.19,187.8Z" style="fill-opacity:0.2;fill-rule:nonzero;"/>
                        <path d="M406.18,202.65C407.75,205.75 409.18,208.82 410.53,211.97C411.88,215.12 413.14,218.31 414.3,221.57C414.9,223.19 415.42,224.85 415.94,226.57L416.04,226.88L416.04,227.04L416.11,227.31C416.209,227.668 416.283,228.032 416.33,228.4C416.43,229.15 416.43,229.91 416.33,230.66C416.157,232.03 415.683,233.345 414.94,234.51C413.743,236.325 412.145,237.84 410.27,238.94C409.454,239.44 408.601,239.877 407.72,240.25C406.85,240.651 405.951,240.985 405.03,241.25L403.14,237.25C404.305,236.295 405.404,235.263 406.43,234.16C407.297,233.282 407.977,232.238 408.43,231.09C408.561,230.798 408.593,230.471 408.52,230.16C408.494,230.067 408.454,229.98 408.4,229.9C408.346,229.82 408.35,229.81 408.33,229.76L408.26,229.59L408.14,229.31C407.55,227.8 406.91,226.31 406.27,224.78C404.97,221.78 403.6,218.78 402.21,215.78L398.02,206.78L406.18,202.65Z" style="fill:rgb(181,91,82);fill-rule:nonzero;"/>
                        <path d="M405.27,236.62L400.92,235.49L400.67,242.49C400.67,242.49 404.08,242.99 406.16,240.91L405.27,236.62Z" style="fill:rgb(181,91,82);fill-rule:nonzero;"/>
                        <path d="M394.75,234.31L395.74,240.47L400.67,242.52L400.92,235.49L394.75,234.31Z" style="fill:rgb(255,195,189);fill-rule:nonzero;"/>
                        <path d="M368.26,199.67C366.55,199.67 364.59,199.67 362.76,199.53C360.93,199.39 359.04,199.32 357.19,199.15C355.34,198.98 353.52,198.77 351.75,198.47C350.84,198.35 349.98,198.15 349.1,198C348.22,197.85 347.37,197.62 346.55,197.37L345.32,197.02L344.15,196.61L343.81,196.5C343.732,196.276 343.675,196.045 343.64,195.81C343.503,195.051 343.43,194.281 343.42,193.51C343.36,190.12 344.27,183.96 344.78,180.26L340.95,179.46C338.697,183.996 337.033,188.802 336,193.76C335.804,194.94 335.713,196.134 335.73,197.33C335.739,198.874 336.059,200.401 336.67,201.82C337.07,202.69 337.29,202.82 338.25,203.61C338.729,204.004 339.252,204.34 339.81,204.61L340.59,204.97C341.11,205.2 341.59,205.45 342.15,205.66L343.7,206.25C347.726,207.622 351.886,208.564 356.11,209.06C358.17,209.29 360.22,209.5 362.28,209.59C364.34,209.68 366.33,209.74 368.54,209.65L368.26,199.67Z" style="fill:rgb(181,91,82);fill-rule:nonzero;"/>
                        <path d="M344.69,180.64L347.95,173.76L341.56,171.91C341.56,171.91 338.56,176.4 341.17,180.01L344.69,180.64Z" style="fill:rgb(181,91,82);fill-rule:nonzero;"/>
                        <path d="M347.56,170.66L342.6,168.11L341.56,171.91L347.95,173.76L347.56,170.66Z" style="fill:rgb(181,91,82);fill-rule:nonzero;"/>
                        <path d="M377.38,197.52C378.202,196.657 378.369,195.352 377.79,194.31C377.211,193.268 398.89,192.56 393.39,198.14L377.38,197.52Z" style="fill:rgb(51,94,234);fill-rule:nonzero;"/>
                        <path d="M377.38,197.52C378.202,196.657 378.369,195.352 377.79,194.31C377.211,193.268 398.89,192.56 393.39,198.14L377.38,197.52Z" style="fill:white;fill-opacity:0.3;fill-rule:nonzero;"/>
                        <path d="M401,223.23C401,223.23 408.28,220.13 413,214.3C413,214.3 408.46,199.81 403.29,198.86C398.12,197.91 401,223.23 401,223.23Z" style="fill:rgb(51,94,234);fill-rule:nonzero;"/>
                        <path d="M401,223.23C401,223.23 408.28,220.13 413,214.3C413,214.3 408.46,199.81 403.29,198.86C398.12,197.91 401,223.23 401,223.23Z" style="fill:white;fill-opacity:0.5;fill-rule:nonzero;"/>
                        <path d="M400.15,209.15C400.179,213.854 400.45,218.554 400.96,223.23C402.218,222.662 403.44,222.017 404.62,221.3C403.55,217.108 402.052,213.036 400.15,209.15Z" style="fill-opacity:0.2;fill-rule:nonzero;"/>
                        <path d="M404.6,199.47C400.48,219.55 401.06,237.6 401.6,248.47C401.785,251.943 399.286,255.029 395.85,255.57C388.203,256.503 380.463,256.378 372.85,255.2C369.916,254.741 367.603,252.416 367.16,249.48C362.38,218.71 364.82,206.42 366.39,200.43C366.938,198.365 368.823,196.917 370.96,196.92C379.45,196.86 401.25,197.06 404.6,199.47Z" style="fill:rgb(51,94,234);fill-rule:nonzero;"/>
                        <path d="M404.6,199.47C400.48,219.55 401.06,237.6 401.6,248.47C401.785,251.943 399.286,255.029 395.85,255.57C388.203,256.503 380.463,256.378 372.85,255.2C369.916,254.741 367.603,252.416 367.16,249.48C362.38,218.71 364.82,206.42 366.39,200.43C366.938,198.365 368.823,196.917 370.96,196.92C379.45,196.86 401.25,197.06 404.6,199.47Z" style="fill:white;fill-opacity:0.5;fill-rule:nonzero;"/>
                        <path d="M365.72,203.66C364.637,209.545 364.191,215.53 364.39,221.51C370.59,218.72 372.08,209.15 372.08,209.15L369.29,202.81L365.72,203.66Z" style="fill-opacity:0.2;fill-rule:nonzero;"/>
                        <path d="M370.69,196.9C367.86,195.32 354.79,198.9 354.79,198.9L354.79,213.68C354.79,213.68 367.89,216.99 370.64,212.48C373.39,207.97 374.15,198.83 370.69,196.9Z" style="fill:rgb(51,94,234);fill-rule:nonzero;"/>
                        <path d="M370.69,196.9C367.86,195.32 354.79,198.9 354.79,198.9L354.79,213.68C354.79,213.68 367.89,216.99 370.64,212.48C373.39,207.97 374.15,198.83 370.69,196.9Z" style="fill:white;fill-opacity:0.5;fill-rule:nonzero;"/>
                        <path d="M383.98,406.15L377.89,406.15L377.29,392.05L383.37,392.05L383.98,406.15Z" style="fill:rgb(181,91,82);fill-rule:nonzero;"/>
                        <path d="M428.65,403.33L422.7,404.62L416.73,391.49L422.68,390.2L428.65,403.33Z" style="fill:rgb(181,91,82);fill-rule:nonzero;"/>
                        <path d="M377.29,392.06L377.6,399.32L383.69,399.32L383.38,392.06L377.29,392.06Z" style="fill-opacity:0.2;fill-rule:nonzero;"/>
                        <path d="M422.68,390.2L416.73,391.49L419.81,398.26L425.76,396.97L422.68,390.2Z" style="fill-opacity:0.2;fill-rule:nonzero;"/>
                        <path d="M379.62,251.34C379.62,251.34 388.43,309.83 392.22,327.25C396.38,346.33 416.74,397.48 416.74,397.48L427.63,395.13C427.63,395.13 421.78,378.13 415.93,352.44C413.98,343.87 410.35,335.65 409.48,328.98C408.02,317.81 406.19,287.33 404.73,272.8C404.004,265.539 402.632,258.357 400.63,251.34L379.62,251.34Z" style="fill:rgb(38,50,56);fill-rule:nonzero;"/>
                        <path d="M414.13,393.85C414.08,393.85 416.13,397.79 416.13,397.79L428.39,395.13L427.39,391.45L414.13,393.85Z" style="fill:rgb(38,50,56);fill-rule:nonzero;"/>
                        <path d="M384,267.92C392,269.48 393,311.24 392.08,326.55C389.78,315.73 384.5,282.92 382.2,268.13C382.758,267.856 383.394,267.782 384,267.92Z" style="fill-opacity:0.5;fill-rule:nonzero;"/>
                        <path d="M368.08,251.34C368.08,251.34 369.14,308.82 369.8,327.34C370.49,346.64 375.33,397.87 375.33,397.87L385.64,397.87C387.799,384.107 388.915,370.201 388.98,356.27C389.1,345.03 387.24,334.78 387.38,328.81C387.63,318.66 388.38,290.7 390.07,277.06C391.108,268.514 391.576,259.908 391.47,251.3L368.08,251.34Z" style="fill:rgb(38,50,56);fill-rule:nonzero;"/>
                        <path d="M373.35,393.81C373.3,393.81 373.93,398.09 373.93,398.09L386.47,398.09L386.81,394.27L373.35,393.81Z" style="fill:rgb(38,50,56);fill-rule:nonzero;"/>
                        <path d="M378.05,403.77L385.05,403.77C385.337,403.77 385.575,404.003 385.58,404.29L386.8,411C386.793,411.621 386.349,412.158 385.74,412.28C385.664,412.29 385.586,412.29 385.51,412.28C382.62,412.18 380.08,411.97 376.51,411.92C372.25,411.85 373.23,412.37 368.21,412.36C365.21,412.36 365.3,408.9 366.61,408.75C372.61,408.11 373.56,406.35 376.23,404.29C376.766,403.929 377.404,403.747 378.05,403.77Z" style="fill:rgb(38,50,56);fill-rule:nonzero;"/>
                        <path d="M421.57,401.81L428.41,400.33C428.45,400.32 428.492,400.315 428.533,400.315C428.775,400.315 428.986,400.484 429.04,400.72L431.65,407.05C431.769,407.655 431.452,408.267 430.89,408.52C430.82,408.552 430.746,408.576 430.67,408.59C427.82,409.1 425.29,409.44 421.75,410.14C417.57,410.97 418.64,411.28 413.75,412.32C410.75,412.95 410.18,409.55 411.43,409.13C417.16,407.25 417.72,405.33 419.89,402.75C420.331,402.261 420.922,401.93 421.57,401.81Z" style="fill:rgb(38,50,56);fill-rule:nonzero;"/>
                    </g>
                    <g id="freepik--character-2--inject-38">
                        <path d="M288.9,227.8L292.98,223.12C293.285,221.733 293.68,220.367 294.16,219.03C294.64,218.03 295.67,215.76 296.72,215.4C298.376,215.182 300.049,215.676 301.32,216.76C302.32,217.95 302.82,221.57 302.12,222.98C301.42,224.39 296.33,226.29 296.33,226.29L292.33,231.29L288.9,227.8Z" style="fill:rgb(255,181,115);fill-rule:nonzero;"/>
                        <path d="M288.02,227.52L291.59,223.63L296.36,227.7L292.49,232.26L288.02,227.52Z" style="fill:rgb(51,94,234);fill-rule:nonzero;"/>
                        <path d="M288.02,227.52L291.59,223.63L296.36,227.7L292.49,232.26L288.02,227.52Z" style="fill:white;fill-opacity:0.8;fill-rule:nonzero;"/>
                        <path d="M262.47,204.71C262.47,204.71 266.19,208.95 271.56,222.79C276.93,236.63 282.9,232.6 289.44,225.13L294.81,230.03C294.81,230.03 284.76,242.55 278.44,242.55C271.44,242.55 264.56,231.63 263.19,224.01C261.82,216.39 262.47,204.71 262.47,204.71Z" style="fill:rgb(38,50,56);fill-rule:nonzero;"/>
                        <path d="M263.78,212.72L261.78,211.05L260.85,216.38C260.98,217.92 261.16,219.43 261.41,220.8C262.19,225.15 265.14,230.8 268.3,235.59C267.303,227.875 265.793,220.235 263.78,212.72Z" style="fill-opacity:0.4;fill-rule:nonzero;"/>
                        <path d="M235.31,172.26C235.31,172.26 232.47,172.26 232.85,174.45C233.32,177.27 242.94,176.45 242.94,176.45L240.38,173.08L235.31,172.26Z" style="fill:rgb(38,50,56);fill-rule:nonzero;"/>
                        <path d="M274.99,391.2L275.96,404.31L270.14,404.31L267.28,391.67L274.99,391.2Z" style="fill:rgb(255,181,115);fill-rule:nonzero;"/>
                        <path d="M276.52,403.6L269.37,403.6C269.363,403.6 269.357,403.6 269.35,403.6C269.063,403.6 268.825,403.833 268.82,404.12L267.58,411C267.591,411.631 268.042,412.174 268.66,412.3L268.89,412.3C271.84,412.19 274.44,411.99 278.12,411.93C282.47,411.86 281.47,412.4 286.59,412.38C289.68,412.38 289.59,408.85 288.22,408.7C282.1,408.05 281.13,406.25 278.41,404.14C277.859,403.753 277.193,403.563 276.52,403.6Z" style="fill:rgb(38,50,56);fill-rule:nonzero;"/>
                        <path d="M277.16,401.53L268,402C268,402 258.78,369.19 257.07,349.25C256.95,347.88 256.87,346.56 256.82,345.31C256.675,339.492 256.006,333.698 254.82,328L254.39,326L249.39,302.51L248.39,298.03C248.39,298.03 242.68,288.47 242.89,273.93C242.949,269.888 243.449,265.864 244.38,261.93C244.418,261.823 244.445,261.713 244.46,261.6L266.46,262.24L267.3,273.1L277.16,401.53Z" style="fill:rgb(51,94,234);fill-rule:nonzero;"/>
                        <path d="M251.57,312.8C254.57,297.54 253.09,279.44 253.09,279.44L248.59,281.24L245.59,289.66L245.59,291.46C246.308,293.731 247.249,295.925 248.4,298.01L251.57,312.8Z" style="fill-opacity:0.2;fill-rule:nonzero;"/>
                        <path d="M233.16,391.2L231.25,404.31L225.43,404.31L225.46,391.67L233.16,391.2Z" style="fill:rgb(255,181,115);fill-rule:nonzero;"/>
                        <path d="M231.74,403.6L224.59,403.6C224.583,403.6 224.577,403.6 224.57,403.6C224.285,403.6 224.05,403.834 224.05,404.12C224.05,404.12 224.05,404.12 224.05,404.12L222.8,411C222.811,411.631 223.262,412.174 223.88,412.3L224.12,412.3C227.07,412.19 229.66,411.99 233.35,411.93C237.69,411.86 236.69,412.4 241.82,412.38C244.9,412.38 244.82,408.85 243.45,408.7C237.33,408.05 236.36,406.25 233.64,404.14C233.084,403.755 232.415,403.565 231.74,403.6Z" style="fill:rgb(38,50,56);fill-rule:nonzero;"/>
                        <path d="M257.86,262.25L256.18,270.25L249.36,302.53L248.25,307.83L233.06,401.83L223.94,401.43C223.94,401.43 221.94,371.14 224.67,350.97C224.88,349.38 225.14,347.85 225.42,346.41C226.764,339.687 227.434,332.846 227.42,325.99L227.42,323.99L227.07,298C226.406,289.254 226.741,280.46 228.07,271.79C228.609,268.341 229.398,264.935 230.43,261.6L244.43,261.93L257.86,262.25Z" style="fill:rgb(51,94,234);fill-rule:nonzero;"/>
                        <path d="M267.76,280.06L259.66,280.77C257.433,281.222 255.209,279.852 254.61,277.66L254.35,276.66L252.65,270.38L250.65,277.65C250.045,279.87 247.857,281.307 245.58,280.98L241.1,280.34L227.24,278.42C227.669,272.7 228.745,267.047 230.45,261.57L244.45,261.9C244.488,261.793 244.515,261.683 244.53,261.57L266.53,262.21L267.76,280.06Z" style="fill-opacity:0.2;fill-rule:nonzero;"/>
                        <path d="M229.89,245.93L226.12,274.76L245.71,277.76C247.854,278.068 249.915,276.719 250.49,274.63L252.39,267.77L254.24,274.6C254.8,276.665 256.894,277.956 258.99,277.53L268.51,275.89L266.01,242.49C266.01,242.49 267.44,221.1 264.1,207.41C263.287,204.838 261.12,202.913 258.47,202.41C247.409,199.868 235.833,200.743 225.28,204.92C223.935,205.452 223.111,206.834 223.28,208.27L229.89,245.93Z" style="fill:rgb(38,50,56);fill-rule:nonzero;"/>
                        <circle cx="251.01" cy="233.71" r="0.88" style="fill-opacity:0.5;"/>
                        <circle cx="251.87" cy="245.93" r="0.88" style="fill-opacity:0.5;"/>
                        <circle cx="252.23" cy="258" r="0.88" style="fill-opacity:0.5;"/>
                        <path d="M237.69,200.57C241.068,199.31 244.739,199.053 248.26,199.83L250.42,201.07L251.19,203.48L248.44,205.64L241.96,206.3L236.6,204.08L236.89,201.7L237.69,200.57Z" style="fill:rgb(38,50,56);fill-rule:nonzero;"/>
                        <path d="M237.16,201.81C238.614,200.127 239.203,197.858 238.75,195.68L248.46,187.81C247.09,200.93 247.76,198.55 249.71,202.32C249.71,202.32 248.36,206.7 240.78,205.32C235.87,204.45 237.16,201.81 237.16,201.81Z" style="fill:rgb(255,181,115);fill-rule:nonzero;"/>
                        <path d="M238.75,195.68L248.46,187.81C248.21,189.72 248.01,191.3 247.88,192.68C246.226,196.26 242.662,198.594 238.72,198.68C238.963,197.696 238.973,196.669 238.75,195.68Z" style="fill-opacity:0.2;fill-rule:nonzero;"/>
                        <path d="M250.09,181.61C248.72,187.88 248.23,191.61 244.53,194.36C238.96,198.5 231.6,194.36 231.08,187.83C230.61,181.9 232.94,172.67 239.52,171.12C240.186,170.961 240.869,170.881 241.554,170.881C246.36,170.881 250.314,174.835 250.314,179.641C250.314,180.303 250.239,180.964 250.09,181.61Z" style="fill:rgb(255,181,115);fill-rule:nonzero;"/>
                        <path d="M239.9,181.89C239.82,182.41 239.48,182.79 239.15,182.73C238.82,182.67 238.6,182.22 238.69,181.73C238.78,181.24 239.1,180.84 239.44,180.9C239.78,180.96 240,181.38 239.9,181.89Z" style="fill:rgb(38,50,56);fill-rule:nonzero;"/>
                        <path d="M234.08,181C234,181.51 233.66,181.88 233.33,181.83C233,181.78 232.78,181.32 232.87,180.83C232.96,180.34 233.28,179.93 233.62,179.99C233.96,180.05 234.16,180.47 234.08,181Z" style="fill:rgb(38,50,56);fill-rule:nonzero;"/>
                        <path d="M236.21,181.52C235.352,182.994 234.291,184.34 233.06,185.52C233.691,186.142 234.567,186.454 235.45,186.37L236.21,181.52Z" style="fill:rgb(237,137,62);fill-rule:nonzero;"/>
                        <path d="M242.28,179.79C242.333,179.8 242.387,179.8 242.44,179.79C242.58,179.701 242.631,179.52 242.56,179.37C242.108,178.496 241.263,177.889 240.29,177.74C240.28,177.739 240.27,177.738 240.259,177.738C240.102,177.738 239.97,177.863 239.96,178.02C239.959,178.03 239.958,178.041 239.958,178.051C239.958,178.211 240.081,178.345 240.24,178.36C241.01,178.483 241.674,178.972 242.02,179.67C242.084,179.747 242.18,179.792 242.28,179.79Z" style="fill:rgb(38,50,56);fill-rule:nonzero;"/>
                        <path d="M232.18,178.28C232.285,178.294 232.388,178.242 232.44,178.15C232.862,177.502 233.568,177.093 234.34,177.05C234.508,177.05 234.649,176.918 234.66,176.75C234.66,176.747 234.66,176.743 234.66,176.74C234.66,176.575 234.525,176.44 234.36,176.44C234.36,176.44 234.36,176.44 234.36,176.44C233.371,176.466 232.457,176.979 231.92,177.81C231.881,177.859 231.86,177.921 231.86,177.983C231.86,178.079 231.909,178.169 231.99,178.22C232.043,178.263 232.111,178.285 232.18,178.28Z" style="fill:rgb(38,50,56);fill-rule:nonzero;"/>
                        <path d="M233.46,188.46C235.532,188.228 237.619,188.171 239.7,188.29C239.1,189.52 238.03,190.51 235.7,190.43C233.37,190.35 233.46,188.46 233.46,188.46Z" style="fill:rgb(38,50,56);fill-rule:nonzero;"/>
                        <path d="M236.83,189.48C235.934,189.402 235.034,189.587 234.24,190.01C234.67,190.284 235.17,190.426 235.68,190.42C236.576,190.498 237.476,190.313 238.27,189.89C237.842,189.612 237.34,189.469 236.83,189.48Z" style="fill:rgb(255,86,82);fill-rule:nonzero;"/>
                        <path d="M233.68,188.43C233.761,188.758 234.028,189.009 234.36,189.07C235.72,189.103 237.08,189.037 238.43,188.87C238.858,188.856 239.255,188.641 239.5,188.29C237.559,188.202 235.614,188.248 233.68,188.43Z" style="fill:white;fill-rule:nonzero;"/>
                        <path d="M237.14,208.74L239.72,217.15L245.72,225.81L250.64,230.93L252.48,223.43L251.89,207.77L251.79,204.4L250.42,202.46L248.23,204.38L246.37,205.09L243.64,205.12L236.47,202.94L237.14,208.74Z" style="fill:rgb(51,94,234);fill-rule:nonzero;"/>
                        <path d="M237.14,208.74L239.72,217.15L245.72,225.81L250.64,230.93L252.48,223.43L251.89,207.77L251.79,204.4L250.42,202.46L248.23,204.38L246.37,205.09L243.64,205.12L236.47,202.94L237.14,208.74Z" style="fill:rgb(51,94,234);fill-opacity:0.8;fill-rule:nonzero;"/>
                        <path d="M237.14,208.74L239.72,217.15L245.72,225.81L250.64,230.93L252.48,223.43L251.89,207.77L251.79,204.4L250.42,202.46L248.23,204.38L246.37,205.09L243.64,205.12L236.47,202.94L237.14,208.74Z" style="fill:white;fill-opacity:0.5;fill-rule:nonzero;"/>
                        <path d="M242.93,207.77C243.613,209.134 244.562,210.348 245.72,211.34C246.878,212.332 244.52,219.9 246.36,225.9L250.64,230.9L251.89,224.68C251.89,224.68 249.98,214.68 247.41,210.96C248.071,209.666 248.549,208.286 248.83,206.86L247.3,205.61C247.3,205.61 245.17,207.13 243.89,206.07L242.93,207.77Z" style="fill:rgb(51,94,234);fill-rule:nonzero;"/>
                        <path d="M237,201.34C237,201.34 241,204.71 244.93,204.71C248.86,204.71 249.34,200.57 249.34,200.57L251.02,202.38C251.098,204.465 250.626,206.535 249.65,208.38L245.51,205.58L242.7,209.58C240.032,208.226 237.771,206.186 236.15,203.67L237,201.34Z" style="fill:rgb(51,94,234);fill-rule:nonzero;"/>
                        <path d="M237,201.34C237,201.34 241,204.71 244.93,204.71C248.86,204.71 249.34,200.57 249.34,200.57L251.02,202.38C251.098,204.465 250.626,206.535 249.65,208.38L245.51,205.58L242.7,209.58C240.032,208.226 237.771,206.186 236.15,203.67L237,201.34Z" style="fill:white;fill-opacity:0.8;fill-rule:nonzero;"/>
                        <path d="M237.69,200.57C237.69,200.57 234.45,210.57 250.42,229.64C250.42,229.64 253.28,206.27 248.26,199.83L251.75,201.21L255.39,206.71L252.72,208.42L256.02,209.89C256.02,209.89 255.55,217.46 250.91,232.03C250.91,232.03 240.41,223.91 233.55,212.95L236.74,210.4L232.47,209.73L234.37,202.14L237.69,200.57Z" style="fill:rgb(38,50,56);fill-rule:nonzero;"/>
                        <path d="M237.69,200.57C237.69,200.57 234.45,210.57 250.42,229.64C250.42,229.64 253.28,206.27 248.26,199.83L251.75,201.21L255.39,206.71L252.72,208.42L256.02,209.89C256.02,209.89 255.55,217.46 250.91,232.03C250.91,232.03 240.41,223.91 233.55,212.95L236.74,210.4L232.47,209.73L234.37,202.14L237.69,200.57Z" style="fill-opacity:0.3;fill-rule:nonzero;"/>
                        <path d="M247,187C247,187 244.44,188.32 246.13,183.34C247.82,178.36 245.56,176.75 245.25,174.34C245.25,174.34 230.69,174.84 231.38,168.41C232.07,161.98 240.81,167.09 240.81,167.09C240.81,167.09 240.15,164.17 242.59,163.84C245.86,163.41 248.84,169.72 252.89,171.59C256.94,173.46 254.69,179.75 254.69,179.75C254.69,179.75 255.93,183.94 248.52,191.95C248.433,192.043 248.311,192.096 248.184,192.096C247.96,192.096 247.766,191.932 247.73,191.71L247,187Z" style="fill:rgb(38,50,56);fill-rule:nonzero;"/>
                        <path d="M242.74,181C242.58,180.89 241.91,180.56 241.53,180.38C240.712,179.86 239.769,179.566 238.8,179.53C238.104,179.409 237.388,179.559 236.8,179.95C236.755,180.001 236.718,180.058 236.69,180.12C236.576,180.025 236.437,179.966 236.29,179.95C236.137,179.935 235.983,179.956 235.84,180.01C235.82,179.93 235.79,179.852 235.75,179.78C234.908,179.077 233.847,178.688 232.75,178.68C232.054,178.566 231.341,178.716 230.75,179.1C230.583,179.305 230.504,179.567 230.53,179.83C230.597,180.809 230.976,181.741 231.61,182.49C232.273,182.937 233.061,183.164 233.86,183.14C234.205,183.156 234.548,183.087 234.86,182.94C235.436,182.416 235.814,181.71 235.93,180.94C235.945,180.794 235.945,180.646 235.93,180.5C236.017,180.457 236.113,180.436 236.21,180.44C236.348,180.493 236.47,180.583 236.56,180.7C236.633,181.674 237.015,182.599 237.65,183.34C238.31,183.787 239.094,184.014 239.89,183.99C240.235,184.008 240.579,183.939 240.89,183.79C241.464,183.265 241.841,182.559 241.96,181.79C241.989,181.581 241.989,181.369 241.96,181.16C242.12,181.235 242.274,181.322 242.42,181.42C244.172,182.964 245.841,184.6 247.42,186.32L247.78,185.98C246.195,184.226 244.513,182.564 242.74,181ZM235.64,180.89C235.54,181.574 235.213,182.205 234.71,182.68C233.736,182.961 232.687,182.812 231.83,182.27C231.25,181.577 230.901,180.721 230.83,179.82C230.802,179.643 230.849,179.461 230.96,179.32C231.372,179.044 231.867,178.92 232.36,178.97L232.73,178.97C233.744,178.975 234.725,179.329 235.51,179.97C235.67,180.245 235.717,180.571 235.64,180.88L235.64,180.89ZM241.64,181.73C241.533,182.417 241.202,183.049 240.7,183.53C239.729,183.807 238.685,183.657 237.83,183.12C237.252,182.426 236.903,181.57 236.83,180.67C236.805,180.49 236.852,180.307 236.96,180.16C237.379,179.893 237.875,179.773 238.37,179.82L238.74,179.82C239.751,179.822 240.731,180.176 241.51,180.82C241.684,181.085 241.746,181.409 241.68,181.72L241.64,181.73Z" style="fill:rgb(38,50,56);fill-rule:nonzero;"/>
                        <path d="M252.26,188C251.198,189.213 249.698,189.957 248.09,190.07C245.96,190.2 245.33,188.19 246.3,186.4C247.17,184.81 249.3,182.81 251.3,183.51C252.36,183.91 253.065,184.931 253.065,186.064C253.065,186.79 252.775,187.488 252.26,188Z" style="fill:rgb(255,181,115);fill-rule:nonzero;"/>
                        <path d="M223.72,211L227.87,234.17L228.36,233.56C229.659,225.831 229.352,217.916 227.46,210.31L226.2,210.98L223.72,211Z" style="fill-opacity:0.4;fill-rule:nonzero;"/>
                        <path d="M197.45,228.6L192.61,224.71C192.064,223.395 191.437,222.116 190.73,220.88C190.08,219.98 188.67,217.94 187.57,217.76C185.904,217.839 184.345,218.616 183.28,219.9C182.49,221.25 182.65,224.9 183.58,226.17C184.51,227.44 189.87,228.41 189.87,228.41L194.64,232.59L197.45,228.6Z" style="fill:rgb(255,181,115);fill-rule:nonzero;"/>
                        <path d="M198.26,228.17L194.07,224.97L190.09,229.8L194.69,233.62L198.26,228.17Z" style="fill:rgb(51,94,234);fill-rule:nonzero;"/>
                        <path d="M198.26,228.17L194.07,224.97L190.09,229.8L194.69,233.62L198.26,228.17Z" style="fill:white;fill-opacity:0.8;fill-rule:nonzero;"/>
                        <path d="M224.43,205.86C224.05,205.41 222.72,206.01 222.38,206.49C221.27,208.07 215.03,223.32 212.58,229.36C212.006,230.755 210.464,231.51 209.01,231.11C204.81,229.986 200.722,228.476 196.8,226.6L191.43,231.5C191.43,231.5 205.43,242.66 213.11,242.66C220.11,242.66 226.74,227.74 228.11,220.12C229.112,215.058 227.757,209.805 224.43,205.86Z" style="fill:rgb(38,50,56);fill-rule:nonzero;"/>
                        <path d="M326.93,207.68L302.76,205.41C302.76,205.41 296.34,215.47 293.61,238.41L317.87,240.68C320.32,220.68 325.68,210.07 326.93,207.68Z" style="fill:rgb(51,94,234);fill-rule:nonzero;"/>
                        <path d="M326.93,207.68L302.76,205.41C302.76,205.41 296.34,215.47 293.61,238.41L317.87,240.68C320.32,220.68 325.68,210.07 326.93,207.68Z" style="fill:white;fill-opacity:0.4;fill-rule:nonzero;"/>
                        <path d="M326.93,207.68L302.76,205.41C302.76,205.41 297.22,214.59 294.49,237.48L318.74,239.76C321.19,219.81 325.68,210.07 326.93,207.68Z" style="fill:rgb(51,94,234);fill-rule:nonzero;"/>
                        <path d="M326.93,207.68L302.76,205.41C302.76,205.41 297.22,214.59 294.49,237.48L318.74,239.76C321.19,219.81 325.68,210.07 326.93,207.68Z" style="fill:white;fill-opacity:0.7;fill-rule:nonzero;"/>
                        <path d="M305.94,205.62C305.725,205.3 305.363,205.108 304.978,205.108C304.739,205.108 304.506,205.182 304.31,205.32L301.94,207C301.624,207.219 301.435,207.58 301.435,207.965C301.435,208.609 301.966,209.14 302.61,209.14C302.849,209.14 303.083,209.067 303.28,208.93C303.334,208.895 303.366,208.835 303.366,208.771C303.366,208.731 303.353,208.692 303.33,208.66C303.293,208.606 303.231,208.573 303.165,208.573C303.124,208.573 303.084,208.586 303.05,208.61C302.919,208.701 302.764,208.75 302.604,208.75C302.347,208.75 302.105,208.623 301.96,208.41C301.725,208.054 301.814,207.569 302.16,207.32L304.53,205.68C304.885,205.439 305.374,205.529 305.62,205.88C305.711,206.011 305.76,206.166 305.76,206.326C305.76,206.583 305.633,206.825 305.42,206.97L304.62,207.52L304.17,207.84L304.07,207.91C303.868,208.042 303.594,207.993 303.45,207.8C303.313,207.599 303.362,207.321 303.56,207.18L304.65,206.42C304.706,206.388 304.741,206.328 304.741,206.264C304.741,206.222 304.726,206.182 304.7,206.15C304.665,206.096 304.605,206.064 304.541,206.064C304.501,206.064 304.462,206.077 304.43,206.1L303.34,206.86C303.111,207.014 302.973,207.273 302.973,207.549C302.973,207.717 303.024,207.881 303.12,208.02C303.383,208.393 303.903,208.487 304.28,208.23L304.38,208.16L304.84,207.85L305.64,207.29C305.971,207.077 306.171,206.709 306.171,206.315C306.171,206.065 306.09,205.821 305.94,205.62Z" style="fill:rgb(51,94,234);fill-rule:nonzero;"/>
                    </g>
                    <g id="freepik--character-1--inject-38">
                        <path d="M97.18,189.37C97.18,189.37 100.01,187.49 98.65,181.89C98.65,181.89 103.08,180.71 103.81,177.44C103.81,177.44 104.61,180.27 106.2,179.96C107.79,179.65 106.2,176.91 106.2,176.91C106.2,176.91 108.73,179.43 110.01,179.21C111.29,178.99 110.01,176.91 110.01,176.91C110.01,176.91 111.13,179.33 112.52,178.91C114.35,178.38 110.66,174.56 110.66,174.56C110.66,174.56 113.32,178.76 114.08,177.75C114.84,176.74 109.36,170.8 102.08,171.75C102.08,171.75 93.16,170.42 90.78,179.44C90.78,179.44 83.88,183.74 87.33,190.3C87.33,190.3 81.67,196.83 85.12,200.25C85.12,200.25 79.45,209.93 86.27,209.73C93.09,209.53 112.85,208.36 115.61,206.45C118.37,204.54 114.74,199.98 114.74,199.98C114.74,199.98 115.97,198.63 115.66,195.44C115.593,193.725 114.852,192.104 113.6,190.93C114.912,189.856 115.327,188.012 114.6,186.48C111.74,179.91 100.54,179.48 100.54,179.48C100.54,179.48 101.51,190.35 97.18,189.37Z" style="fill:rgb(38,50,56);fill-rule:nonzero;"/>
                        <path d="M150.14,210.47C150.593,208.644 150.927,206.79 151.14,204.92L152.54,201.65C152.54,201.65 154.69,197.79 154.07,196.65C153.33,195.26 149.51,194.21 148.07,194.8C146.78,195.32 145.37,199.67 145.37,199.67L146.23,204.1C146.019,205.716 145.685,207.314 145.23,208.88L150.14,210.47Z" style="fill:rgb(206,122,99);fill-rule:nonzero;"/>
                        <path d="M151,209C149.12,216.94 145.51,228.55 131.35,224.2C124,222 113,215.94 116.12,208.51C119.24,201.08 120.45,212.43 132.85,216.42C142.23,219.42 143.18,212.73 144.85,207.05L151,209Z" style="fill:rgb(51,94,234);fill-rule:nonzero;"/>
                        <path d="M98.69,201.34C101.682,200.69 104.797,200.877 107.69,201.88C110.583,202.883 109.42,206.07 105.69,206.25C101.96,206.43 98.69,202.66 98.69,202.66L98.69,201.34Z" style="fill:rgb(51,94,234);fill-rule:nonzero;"/>
                        <path d="M97.8,203.76C97.8,203.76 100.19,203.67 100.17,200.76C100.118,198.576 99.947,196.396 99.66,194.23L106.73,194.86C106.73,194.86 105.79,203.56 109.03,204C109,204 106.2,208.29 97.8,203.76Z" style="fill:rgb(206,122,99);fill-rule:nonzero;"/>
                        <path d="M106.73,194.82L99.66,194.19C99.66,194.19 99.84,195.51 99.98,197.19C101.693,199.333 104.185,200.714 106.91,201.03C106.587,198.976 106.526,196.889 106.73,194.82Z" style="fill-opacity:0.1;fill-rule:nonzero;"/>
                        <path d="M95.13,184.7C96.07,191.04 96.33,193.7 99.83,196.7C105.09,201.21 112.67,198.7 113.65,192.18C114.52,186.33 112.84,176.95 106.39,174.95C105.53,174.675 104.632,174.535 103.73,174.535C99.92,174.535 96.53,177.025 95.39,180.66C94.985,181.967 94.896,183.352 95.13,184.7Z" style="fill:rgb(206,122,99);fill-rule:nonzero;"/>
                        <path d="M109.32,186.17C109.883,187.312 110.6,188.372 111.45,189.32C110.954,189.752 110.289,189.939 109.64,189.83L109.32,186.17Z" style="fill:rgb(186,77,60);fill-rule:nonzero;"/>
                        <path d="M102.35,183.28C102.307,183.271 102.266,183.254 102.23,183.23C102.181,183.183 102.153,183.118 102.153,183.05C102.153,182.982 102.181,182.917 102.23,182.87C102.8,182.09 103.714,181.631 104.68,181.64C104.81,181.65 104.911,181.759 104.911,181.889C104.911,181.896 104.911,181.903 104.91,181.91C104.899,182.049 104.779,182.156 104.64,182.15C103.853,182.145 103.109,182.517 102.64,183.15C102.584,183.254 102.465,183.308 102.35,183.28Z" style="fill:rgb(38,50,56);fill-rule:nonzero;"/>
                        <path d="M113.36,182.42L113.23,182.42C112.599,181.929 111.767,181.772 111,182C110.969,182.013 110.936,182.02 110.903,182.02C110.8,182.02 110.707,181.956 110.67,181.86C110.622,181.726 110.688,181.575 110.82,181.52C111.739,181.227 112.746,181.395 113.52,181.97C113.637,182.05 113.672,182.208 113.6,182.33C113.541,182.407 113.447,182.449 113.35,182.44L113.36,182.42Z" style="fill:rgb(38,50,56);fill-rule:nonzero;"/>
                        <path d="M105.58,185.62C105.58,186.14 105.94,186.54 106.28,186.51C106.62,186.48 106.86,186.04 106.81,185.51C106.76,184.98 106.45,184.59 106.12,184.62C105.79,184.65 105.54,185.1 105.58,185.62Z" style="fill:rgb(38,50,56);fill-rule:nonzero;"/>
                        <path d="M111.45,185.12C111.45,185.64 111.81,186.03 112.14,186C112.47,185.97 112.72,185.53 112.68,185C112.64,184.47 112.32,184.09 111.98,184.12C111.64,184.15 111.4,184.6 111.45,185.12Z" style="fill:rgb(38,50,56);fill-rule:nonzero;"/>
                        <path d="M111.84,184.17L113.05,183.71C113.05,183.71 112.49,184.73 111.84,184.17Z" style="fill:rgb(38,50,56);fill-rule:nonzero;"/>
                        <path d="M106,184.67L107.22,184.21C107.22,184.21 106.63,185.23 106,184.67Z" style="fill:rgb(38,50,56);fill-rule:nonzero;"/>
                        <path d="M108.41,192.86C108.708,192.859 109.006,192.832 109.3,192.78C109.376,192.772 109.433,192.707 109.433,192.631C109.433,192.621 109.432,192.61 109.43,192.6C109.422,192.524 109.357,192.467 109.281,192.467C109.271,192.467 109.26,192.468 109.25,192.47C107.935,192.74 106.568,192.368 105.57,191.47C105.542,191.439 105.502,191.422 105.46,191.422C105.418,191.422 105.378,191.439 105.35,191.47C105.292,191.531 105.292,191.629 105.35,191.69C106.182,192.457 107.278,192.876 108.41,192.86Z" style="fill:rgb(38,50,56);fill-rule:nonzero;"/>
                        <path d="M127,307C126.91,331.68 123.13,405.91 123.13,405.91L116.13,405.91C116.13,405.91 112,375.76 112.43,349.25C112.59,339.66 113.43,332.33 113.52,326.64C113.68,316.38 105.84,281.22 105.84,281.22L127.1,283.82C127.1,283.82 127,301.14 127,307Z" style="fill:rgb(206,122,99);fill-rule:nonzero;"/>
                        <path d="M126.67,323.52C126.81,318.86 126.91,314.64 126.97,311.05L111.59,310.35C112.498,315.254 113.129,320.205 113.48,325.18C117.946,325.647 122.459,325.079 126.67,323.52Z" style="fill-opacity:0.2;fill-rule:nonzero;"/>
                        <path d="M122.7,404L115.88,404C115.877,404 115.873,404 115.87,404C115.596,404 115.37,404.226 115.37,404.5C115.37,404.503 115.37,404.507 115.37,404.51L114.3,411.06C114.317,411.651 114.727,412.163 115.3,412.31L115.52,412.31C118.33,412.21 120.81,412.01 124.32,411.96C128.46,411.89 127.52,412.4 132.4,412.39C135.4,412.39 135.18,409.02 133.9,408.88C128.05,408.26 127.1,406.54 124.47,404.53C123.951,404.172 123.331,403.986 122.7,404Z" style="fill:rgb(38,50,56);fill-rule:nonzero;"/>
                        <path d="M103.32,308.78L90,406.2L83.11,406.2C83.11,406.2 80.79,377.82 82.54,353.47C83.19,344.41 85,336.39 85.96,330.75C87.96,318.96 87.6,280.84 87.6,280.84L105.97,283.84L103.32,308.78Z" style="fill:rgb(206,122,99);fill-rule:nonzero;"/>
                        <path d="M101.21,324.82L103.52,303.91L87.72,303.19C87.54,310.19 87.23,317.05 86.72,321.79C91.492,323.062 96.329,324.073 101.21,324.82Z" style="fill-opacity:0.2;fill-rule:nonzero;"/>
                        <path d="M89.76,404L82.94,404C82.658,404 82.425,404.229 82.42,404.51L81.23,411.06C81.237,411.655 81.651,412.173 82.23,412.31L82.46,412.31C85.27,412.21 87.75,412.01 91.26,411.96C95.41,411.89 94.45,412.4 99.34,412.39C102.28,412.39 102.17,409.02 100.89,408.88C95.06,408.26 94.13,406.54 91.54,404.53C91.018,404.17 90.394,403.984 89.76,404Z" style="fill:rgb(38,50,56);fill-rule:nonzero;"/>
                        <path d="M96.67,203.29L98.65,202.66L103.81,206.25L105.7,206.25L107.29,205.55L109.14,203.7L110.98,204.46L112.3,209.53L112.3,211.07L112.86,212.94L114.48,219.22L115.71,227.32L115.71,233.42L115.25,239.97L113.53,236.56L108.66,227.46L104.61,215.99L103.42,211.99L100.33,208.73L97.92,204.61L96.67,203.29Z" style="fill:rgb(51,94,234);fill-rule:nonzero;"/>
                        <path d="M96.67,203.29L98.65,202.66L103.81,206.25L105.7,206.25L107.29,205.55L109.14,203.7L110.98,204.46L112.3,209.53L112.3,211.07L112.86,212.94L114.48,219.22L115.71,227.32L115.71,233.42L115.25,239.97L113.53,236.56L108.66,227.46L104.61,215.99L103.42,211.99L100.33,208.73L97.92,204.61L96.67,203.29Z" style="fill:rgb(51,94,234);fill-rule:nonzero;"/>
                        <path d="M96.67,203.29L98.65,202.66L103.81,206.25L105.7,206.25L107.29,205.55L109.14,203.7L110.98,204.46L112.3,209.53L112.3,211.07L112.86,212.94L114.48,219.22L115.71,227.32L115.71,233.42L115.25,239.97L113.53,236.56L108.66,227.46L104.61,215.99L103.42,211.99L100.33,208.73L97.92,204.61L96.67,203.29Z" style="fill:white;fill-opacity:0.5;fill-rule:nonzero;"/>
                        <path d="M90.51,256.62C90.51,256.62 85.44,270.54 85.21,279.05C85,287.15 85.87,296.57 85.74,304.16C85.669,308.932 85.238,313.693 84.45,318.4C83.662,323.107 111.84,327.11 129.63,319.46C130.73,298.421 129.323,277.326 125.44,256.62L112.86,257.3L90.51,256.62Z" style="fill:rgb(38,50,56);fill-rule:nonzero;"/>
                        <path d="M87.79,208.34L94,240.74C91.327,248.344 89.048,256.081 87.17,263.92C85.292,271.759 106.17,270.24 111.74,267.47C113.52,266.58 115.57,260.47 115.57,260.47C115.57,260.47 118.76,266.9 120.89,267.47C122.64,267.9 127.44,264.47 127.44,264.47C127.44,264.47 125.2,249.94 122.44,240.02L123.78,229.02C123.78,229.02 126.38,222.91 121.38,212.02L119.94,207.63C119.751,207.046 119.342,206.558 118.8,206.27C115.907,204.783 112.826,203.696 109.64,203.04C106.454,202.384 116.64,219.62 114.96,235.87C114.96,235.87 108.14,211.78 97.23,202.59C94.5,202.866 91.854,203.689 89.45,205.01C88.249,205.654 87.582,206.994 87.79,208.34Z" style="fill:rgb(51,94,234);fill-rule:nonzero;"/>
                        <path d="M97.18,202.66L98.69,201.34C98.69,201.34 102.79,205.82 105.52,205.67C108.25,205.52 107.7,201.88 107.7,201.88L109.59,203.11L110.43,203.89L110.23,208.73C110.23,208.73 107.84,205.93 106.43,206.34C105.02,206.75 103.81,209.76 103.81,209.76C103.81,209.76 100.64,208 97.18,202.66Z" style="fill:rgb(51,94,234);fill-rule:nonzero;"/>
                        <path d="M97.18,202.66L98.69,201.34C98.69,201.34 102.79,205.82 105.52,205.67C108.25,205.52 107.7,201.88 107.7,201.88L109.59,203.11L110.43,203.89L110.23,208.73C110.23,208.73 107.84,205.93 106.43,206.34C105.02,206.75 103.81,209.76 103.81,209.76C103.81,209.76 100.64,208 97.18,202.66Z" style="fill:white;fill-opacity:0.8;fill-rule:nonzero;"/>
                        <path d="M115.39,240.83C115.39,240.83 116.8,232.37 116.53,213.71L112.86,211.71L115.16,211.07C113.998,208.457 112.661,205.924 111.16,203.49C110.64,203.36 110.16,203.23 109.57,203.11C109.57,203.11 116.57,222.56 114.89,238.81C114.89,238.81 108.07,211.81 97.16,202.66C97.16,202.66 96.65,202.66 95.83,202.84C98.43,205.552 99.919,209.144 100,212.9L102.93,212.9L100.54,215.08L115.39,240.83Z" style="fill:rgb(51,94,234);fill-rule:nonzero;"/>
                        <path d="M115.39,240.83C115.39,240.83 117.86,233.43 117.59,214.78L112.86,211.71L116.23,211.07L111.23,203.49C110.71,203.36 110.23,203.23 109.64,203.11C109.64,203.11 116.64,222.56 114.96,238.81C114.96,238.81 108.14,211.81 97.23,202.66C97.23,202.66 96.72,202.66 95.9,202.84C97.28,204.29 97.84,207.77 97.9,212.9L102.95,212.9L99.5,217.2L115.39,240.83Z" style="fill-opacity:0.2;fill-rule:nonzero;"/>
                        <path d="M109.88,253.72L125.4,253.32C126.002,253.289 126.497,252.82 126.56,252.22L128.44,228.35C128.44,227.801 127.989,227.35 127.44,227.35L111.92,227.75C111.315,227.782 110.818,228.257 110.76,228.86L108.87,252.72C108.87,252.72 108.87,252.72 108.87,252.72C108.87,253.269 109.321,253.72 109.87,253.72C109.873,253.72 109.877,253.72 109.88,253.72Z" style="fill:rgb(38,50,56);fill-rule:nonzero;"/>
                        <path d="M117.69,229.44L121.41,229.35C122.163,229.313 122.781,228.721 122.85,227.97L123.03,225.77L116.63,225.94L116.46,228.14C116.455,228.184 116.453,228.228 116.453,228.272C116.453,228.914 116.981,229.442 117.623,229.442C117.645,229.442 117.668,229.441 117.69,229.44Z" style="fill:rgb(38,50,56);fill-rule:nonzero;"/>
                        <path d="M117.69,229.44L121.41,229.35C122.163,229.313 122.781,228.721 122.85,227.97L123.03,225.77L116.63,225.94L116.46,228.14C116.455,228.184 116.453,228.228 116.453,228.272C116.453,228.914 116.981,229.442 117.623,229.442C117.645,229.442 117.668,229.441 117.69,229.44Z" style="fill:white;fill-opacity:0.7;fill-rule:nonzero;"/>
                        <path d="M111.23,227.8L111.96,227.8C111.356,227.827 110.859,228.299 110.8,228.9L108.91,252.77C108.909,252.787 108.909,252.803 108.909,252.82C108.909,253.369 109.36,253.82 109.909,253.82C109.909,253.82 109.91,253.82 109.91,253.82L109.18,253.82C108.631,253.82 108.18,253.369 108.18,252.82L110.07,228.95C110.105,228.329 110.609,227.83 111.23,227.8Z" style="fill:rgb(38,50,56);fill-rule:nonzero;"/>
                        <path d="M111.23,227.8L111.96,227.8C111.356,227.827 110.859,228.299 110.8,228.9L108.91,252.77C108.909,252.787 108.909,252.803 108.909,252.82C108.909,253.369 109.36,253.82 109.909,253.82C109.909,253.82 109.91,253.82 109.91,253.82L109.18,253.82C108.631,253.82 108.18,253.369 108.18,252.82L110.07,228.95C110.105,228.329 110.609,227.83 111.23,227.8Z" style="fill:white;fill-opacity:0.7;fill-rule:nonzero;"/>
                        <path d="M101.89,247.26C103.764,247.15 105.628,246.913 107.47,246.55L111.01,246.94C111.01,246.94 115.34,247.87 116.27,246.94C117.38,245.82 117.27,241.86 116.27,240.63C115.39,239.55 110.82,239.47 110.82,239.47L106.82,241.59C105.209,241.845 103.581,241.978 101.95,241.99L101.89,247.26Z" style="fill:rgb(206,122,99);fill-rule:nonzero;"/>
                        <path d="M102.46,247.71C94.32,248.23 79.09,247.01 79.11,232.2C79.11,224.57 82.92,203.98 90.94,204.8C98.96,205.62 87.41,213.94 87.41,231.15C87.41,241 96.61,241.35 102.53,241.29L102.46,247.71Z" style="fill:rgb(51,94,234);fill-rule:nonzero;"/>
                        <path d="M102.46,247.71C94.32,248.23 79.09,247.01 79.11,232.2C79.11,224.57 82.92,203.98 90.94,204.8C98.96,205.62 87.41,213.94 87.41,231.15C87.41,241 96.61,241.35 102.53,241.29L102.46,247.71Z" style="fill-opacity:0.1;fill-rule:nonzero;"/>
                        <path d="M97.18,189.37C97.18,189.37 100.01,187.49 98.65,181.89C98.65,181.89 103.08,180.71 103.81,177.44C103.81,177.44 104.61,180.27 106.2,179.96C107.79,179.65 106.2,176.91 106.2,176.91C106.2,176.91 108.73,179.43 110.01,179.21C111.29,178.99 110.01,176.91 110.01,176.91C110.01,176.91 111.14,179.36 112.52,178.91C113.9,178.46 111.94,176.24 111.94,176.24C111.94,176.24 113.73,178.78 114.13,177.57C114.53,176.36 109.36,170.8 102.13,171.77C102.13,171.77 93.21,170.44 90.83,179.46C90.83,179.46 87.03,181.94 88.91,187.84C88.91,187.85 98.07,189.57 97.18,189.37Z" style="fill:rgb(38,50,56);fill-rule:nonzero;"/>
                        <path d="M94.05,189.87C94.507,191.022 95.403,191.947 96.54,192.44C98.05,193.08 99.02,191.78 98.77,190.24C98.55,188.86 97.5,186.86 95.9,186.87C94.754,186.929 93.855,187.913 93.9,189.06C93.9,189.337 93.951,189.611 94.05,189.87Z" style="fill:rgb(206,122,99);fill-rule:nonzero;"/>
                    </g>
                    <g id="freepik--Desk--inject-38">
                        <path d="M197.75,293.71C197.201,293.71 196.75,293.259 196.75,292.71C196.75,292.161 197.201,291.71 197.75,291.71L225.63,291.71C226.179,291.71 226.63,292.161 226.63,292.71C226.63,293.259 226.179,293.71 225.63,293.71L197.75,293.71Z" style="fill:rgb(51,94,234);fill-rule:nonzero;"/>
                        <path d="M197.75,293.71C197.201,293.71 196.75,293.259 196.75,292.71C196.75,292.161 197.201,291.71 197.75,291.71L225.63,291.71C226.179,291.71 226.63,292.161 226.63,292.71C226.63,293.259 226.179,293.71 225.63,293.71L197.75,293.71Z" style="fill:white;fill-opacity:0.5;fill-rule:nonzero;"/>
                        <path d="M200.11,291.94L196.4,265.52C196.243,264.533 195.399,263.791 194.4,263.76L190.85,263.76L190.85,293.69L198.61,293.69C198.625,293.69 198.64,293.691 198.655,293.691C199.467,293.691 200.135,293.023 200.135,292.211C200.135,292.12 200.127,292.029 200.11,291.94Z" style="fill:rgb(51,94,234);fill-rule:nonzero;"/>
                        <path d="M200.11,291.94L196.4,265.52C196.243,264.533 195.399,263.791 194.4,263.76L190.85,263.76L190.85,293.69L198.61,293.69C198.625,293.69 198.64,293.691 198.655,293.691C199.467,293.691 200.135,293.023 200.135,292.211C200.135,292.12 200.127,292.029 200.11,291.94Z" style="fill:white;fill-opacity:0.6;fill-rule:nonzero;"/>
                        <path d="M197.07,293.69L165.53,293.69C164.533,293.664 163.688,292.925 163.53,291.94L159.82,265.52C159.804,265.431 159.795,265.34 159.795,265.249C159.795,264.432 160.468,263.759 161.285,263.759C161.3,263.759 161.315,263.76 161.33,263.76L192.86,263.76C193.857,263.794 194.699,264.535 194.86,265.52L198.57,291.94C198.585,292.026 198.593,292.113 198.593,292.2C198.593,293.018 197.92,293.69 197.103,293.69C197.092,293.69 197.081,293.69 197.07,293.69Z" style="fill:rgb(51,94,234);fill-rule:nonzero;"/>
                        <path d="M197.07,293.69L165.53,293.69C164.533,293.664 163.688,292.925 163.53,291.94L159.82,265.52C159.804,265.431 159.795,265.34 159.795,265.249C159.795,264.432 160.468,263.759 161.285,263.759C161.3,263.759 161.315,263.76 161.33,263.76L192.86,263.76C193.857,263.794 194.699,264.535 194.86,265.52L198.57,291.94C198.585,292.026 198.593,292.113 198.593,292.2C198.593,293.018 197.92,293.69 197.103,293.69C197.092,293.69 197.081,293.69 197.07,293.69Z" style="fill:white;fill-opacity:0.5;fill-rule:nonzero;"/>
                        <path d="M181.82,280.09C181.845,280.226 181.857,280.363 181.857,280.501C181.857,281.768 180.814,282.811 179.547,282.811C179.525,282.811 179.502,282.811 179.48,282.81C177.937,282.762 176.633,281.615 176.39,280.09C176.365,279.954 176.353,279.817 176.353,279.679C176.353,278.417 177.391,277.379 178.653,277.379C178.675,277.379 178.698,277.379 178.72,277.38C180.262,277.426 181.568,278.568 181.82,280.09Z" style="fill:white;fill-opacity:0.7;fill-rule:nonzero;"/>
                        <path d="M343.14,412.4L340.53,412.4L337.16,300.23L340.62,300.23L343.14,412.4Z" style="fill:rgb(38,50,56);fill-rule:nonzero;"/>
                        <path d="M343.14,412.4L340.53,412.4L337.16,300.23L340.62,300.23L343.14,412.4Z" style="fill:white;fill-opacity:0.6;fill-rule:nonzero;"/>
                        <path d="M300.99,300.23L300.99,412.4L303.76,412.4L307.01,305.35L340.4,305.35L342.84,412.4L345.58,412.4L345.58,300.23L300.99,300.23Z" style="fill:rgb(38,50,56);fill-rule:nonzero;"/>
                        <path d="M300.99,300.23L300.99,412.4L303.76,412.4L307.01,305.35L340.4,305.35L342.84,412.4L345.58,412.4L345.58,300.23L300.99,300.23Z" style="fill:white;fill-opacity:0.4;fill-rule:nonzero;"/>
                        <path d="M300.99,412.4L298.38,412.4L297.53,300.23L300.99,300.23L300.99,412.4Z" style="fill:rgb(38,50,56);fill-rule:nonzero;"/>
                        <path d="M300.99,412.4L298.38,412.4L297.53,300.23L300.99,300.23L300.99,412.4Z" style="fill:white;fill-opacity:0.6;fill-rule:nonzero;"/>
                        <path d="M201.25,412.4L198.63,412.4L195.27,300.23L198.72,300.23L201.25,412.4Z" style="fill:rgb(38,50,56);fill-rule:nonzero;"/>
                        <path d="M201.25,412.4L198.63,412.4L195.27,300.23L198.72,300.23L201.25,412.4Z" style="fill:white;fill-opacity:0.6;fill-rule:nonzero;"/>
                        <path d="M159.09,300.23L159.09,412.4L161.86,412.4L165.11,305.35L198.5,305.35L200.94,412.4L203.68,412.4L203.68,300.23L159.09,300.23Z" style="fill:rgb(38,50,56);fill-rule:nonzero;"/>
                        <path d="M159.09,300.23L159.09,412.4L161.86,412.4L165.11,305.35L198.5,305.35L200.94,412.4L203.68,412.4L203.68,300.23L159.09,300.23Z" style="fill:white;fill-opacity:0.4;fill-rule:nonzero;"/>
                        <path d="M159.09,412.4L156.48,412.4L155.64,300.23L159.09,300.23L159.09,412.4Z" style="fill:rgb(38,50,56);fill-rule:nonzero;"/>
                        <path d="M159.09,412.4L156.48,412.4L155.64,300.23L159.09,300.23L159.09,412.4Z" style="fill:white;fill-opacity:0.6;fill-rule:nonzero;"/>
                        <rect x="151.06" y="293.78" width="147.77" height="6.45" style="fill:rgb(38,50,56);"/>
                        <rect x="151.06" y="293.78" width="147.77" height="6.45" style="fill:white;fill-opacity:0.4;"/>
                        <rect x="294.81" y="293.78" width="55.34" height="6.45" style="fill:rgb(38,50,56);"/>
                        <rect x="294.81" y="293.78" width="55.34" height="6.45" style="fill:white;fill-opacity:0.3;"/>
                        <path d="M322.37,293.94L285.72,293.94C284.723,293.914 283.878,293.175 283.72,292.19L280,265.86C279.983,265.771 279.975,265.68 279.975,265.589C279.975,264.777 280.643,264.109 281.455,264.109C281.47,264.109 281.485,264.11 281.5,264.11L318.16,264.11C319.157,264.136 320.002,264.875 320.16,265.86L323.86,292.19C323.875,292.276 323.883,292.363 323.883,292.45C323.883,293.268 323.21,293.94 322.393,293.94C322.385,293.94 322.378,293.94 322.37,293.94Z" style="fill:rgb(51,94,234);fill-rule:nonzero;"/>
                        <path d="M322.37,293.94L285.72,293.94C284.723,293.914 283.878,293.175 283.72,292.19L280,265.86C279.983,265.771 279.975,265.68 279.975,265.589C279.975,264.777 280.643,264.109 281.455,264.109C281.47,264.109 281.485,264.11 281.5,264.11L318.16,264.11C319.157,264.136 320.002,264.875 320.16,265.86L323.86,292.19C323.875,292.276 323.883,292.363 323.883,292.45C323.883,293.268 323.21,293.94 322.393,293.94C322.385,293.94 322.378,293.94 322.37,293.94Z" style="fill:white;fill-opacity:0.5;fill-rule:nonzero;"/>
                        <path d="M320.08,290L287.51,289.85C286.588,289.824 285.808,289.14 285.66,288.23L282.77,268.36C282.755,268.277 282.747,268.193 282.747,268.109C282.747,267.358 283.365,266.739 284.117,266.739C284.131,266.739 284.146,266.74 284.16,266.74L316.73,266.89C317.649,266.917 318.427,267.601 318.57,268.51L321.46,288.38C321.475,288.463 321.483,288.546 321.483,288.63C321.483,289.382 320.865,290 320.113,290C320.102,290 320.091,290 320.08,290Z" style="fill:rgb(38,50,56);fill-rule:nonzero;"/>
                        <path d="M345.21,293.82L300.85,293.82C300.175,293.82 299.62,293.265 299.62,292.59C299.62,291.915 300.175,291.36 300.85,291.36L345.21,291.36C345.886,291.36 346.445,291.914 346.45,292.59C346.445,293.266 345.886,293.82 345.21,293.82Z" style="fill:rgb(51,94,234);fill-rule:nonzero;"/>
                        <path d="M345.21,293.82L300.85,293.82C300.175,293.82 299.62,293.265 299.62,292.59C299.62,291.915 300.175,291.36 300.85,291.36L345.21,291.36C345.886,291.36 346.445,291.914 346.45,292.59C346.445,293.266 345.886,293.82 345.21,293.82Z" style="fill:white;fill-opacity:0.7;fill-rule:nonzero;"/>
                        <path d="M310.21,293.82L286.55,293.82C285.875,293.82 285.32,293.265 285.32,292.59C285.32,291.915 285.875,291.36 286.55,291.36L310.21,291.36C310.213,291.36 310.217,291.36 310.22,291.36C310.895,291.36 311.45,291.915 311.45,292.59L311.45,292.59C311.45,293.265 310.895,293.82 310.22,293.82C310.217,293.82 310.213,293.82 310.21,293.82Z" style="fill:rgb(51,94,234);fill-rule:nonzero;"/>
                        <path d="M310.21,293.82L286.55,293.82C285.875,293.82 285.32,293.265 285.32,292.59C285.32,291.915 285.875,291.36 286.55,291.36L310.21,291.36C310.213,291.36 310.217,291.36 310.22,291.36C310.895,291.36 311.45,291.915 311.45,292.59L311.45,292.59C311.45,293.265 310.895,293.82 310.22,293.82C310.217,293.82 310.213,293.82 310.21,293.82Z" style="fill:white;fill-opacity:0.6;fill-rule:nonzero;"/>
                    </g>
                </g>
            </g>
        </g>
        <g id="Sponsors">
        </g>
    </g>
</svg>
