<?xml version="1.0" encoding="UTF-8" standalone="no"?>
<!DOCTYPE svg PUBLIC "-//W3C//DTD SVG 1.1//EN" "http://www.w3.org/Graphics/SVG/1.1/DTD/svg11.dtd">
<svg width="100%" height="100%" viewBox="0 0 1024 1024" version="1.1" xmlns="http://www.w3.org/2000/svg" xmlns:xlink="http://www.w3.org/1999/xlink" xml:space="preserve" xmlns:serif="http://www.serif.com/" style="fill-rule:evenodd;clip-rule:evenodd;stroke-linecap:round;stroke-linejoin:round;">
    <g transform="matrix(1,0,0,1,0,-18783.3)">
        <g id="Artboard1" transform="matrix(0.339642,0,0,0.339642,3335.06,6783.42)">
            <rect x="-9819.34" y="35331" width="3014.94" height="3014.94" style="fill:none;"/>
            <g id="api-mocking-speeds-up-developer-onboarding.svg" transform="matrix(5.3841,0,0,5.3841,-8311.87,36838.5)">
                <g transform="matrix(1,0,0,1,-250,-250)">
                    <g id="freepik--background-simple--inject-105">
                        <path d="M80.61,141.51C56.352,204.866 75.15,277.083 127.22,320.57C216.22,395.07 414.11,407.1 429.3,255.81C430.359,245.412 430.09,234.921 428.5,224.59C424.83,201.18 412.8,184.21 390.55,175.45C357.68,162.51 318.66,168.32 288.16,150.5C255.83,131.62 241.72,92 209.16,73.5C179.71,56.78 137.16,71.44 113.77,92.22C98.84,105.56 87.85,122.78 80.61,141.51Z" style="fill:white;fill-opacity:0.45;fill-rule:nonzero;"/>
                    </g>
                    <g id="freepik--character-1--inject-105">
                        <path d="M130.26,117.73C130.26,117.73 123.9,116.31 123,108.11C122.17,100.5 125.56,98.99 125.56,98.99C125.56,98.99 121.23,91.21 128.46,86.74C135.69,82.27 146.76,88.23 151.02,86.21C155.28,84.19 160.02,85.32 158.67,91.32C157.32,97.32 151,98.88 151,98.88L136.41,96.32C136.41,96.32 142.7,112.72 138.97,115.81C135.24,118.9 130.26,117.73 130.26,117.73Z" style="fill:rgb(38,50,56);fill-rule:nonzero;"/>
                        <path d="M155.68,93.56C155.68,93.56 158.83,105.8 155.68,107.91C152.53,110.02 151.85,95.37 151.85,95.37L155.68,93.56Z" style="fill:rgb(38,50,56);fill-rule:nonzero;"/>
                        <path d="M132.47,212.11L129.34,218.81L123.79,218.01C118.56,218.85 116.38,215.88 116.38,215.88L113.09,212.88C94.7,195.66 91.6,186.88 93.18,179.95C94.85,172.63 105.93,151.1 109.27,146.09C112.61,141.08 115.13,139.71 115.13,139.71C121.19,137.1 125.78,138.98 127.89,145.46C129.6,150.7 125.72,156.17 122.73,160.12C119.052,164.955 115.653,169.997 112.55,175.22C111.55,176.94 110.55,178.69 109.61,180.45C109.2,181.21 106.94,184.51 107.19,185.18C108.73,189.47 116.47,201.65 119.19,205.87L120.13,207.33C130.17,208.77 132.47,212.11 132.47,212.11Z" style="fill:rgb(38,50,56);fill-rule:nonzero;"/>
                        <path d="M236.93,141.35L231.1,144.68C231.1,144.68 229.84,147.16 227.76,150.63C223.03,158.54 214.08,171.63 206.17,172.51C195.78,173.38 184.86,168.57 173.89,161.21C162.92,153.85 166.79,137.01 166.79,137.01C166.79,137.01 173.34,138.85 183.48,146.35C193.62,153.85 202.22,158.43 204.72,159.4C204.72,159.4 213.32,156.63 222.63,145.81L225.27,137.33L234.02,134.33L236.93,141.35Z" style="fill:rgb(38,50,56);fill-rule:nonzero;"/>
                        <path d="M114.76,165.46C115.14,166 125,214.4 125,214.4L171.06,214.4C171.06,214.4 171.47,184.81 172.23,177.79C172.99,170.77 177.65,141.79 166.79,137.01C166.79,137.01 155.73,134.38 147.57,134.27C142.657,134.203 137.75,134.622 132.92,135.52C128.09,136.418 118.79,136.27 115.12,139.69C111.45,143.11 114.76,165.46 114.76,165.46Z" style="fill:rgb(38,50,56);fill-rule:nonzero;"/>
                        <path d="M171.06,213.75C171.06,213.75 170.28,283.56 168.19,300.26C166.1,316.96 160.68,389.13 160.68,389.13L147,385.84C147,385.84 146,333.31 144.57,307.22C143.14,281.13 143.46,250.22 143.46,250.22C143.46,250.22 133.46,315.22 129.61,321.48C125.76,327.74 110.1,363.92 100,382L88.86,372.26C88.86,372.26 107,314.52 110.1,304.78C113.2,295.04 115.9,222.78 125,214.4L171.06,213.75Z" style="fill:rgb(51,94,234);fill-rule:nonzero;"/>
                        <path d="M98.31,379.88L95.53,384.13L91.78,389.87L84.12,385.89L87.26,379.55L89.6,374.85L98.31,379.88Z" style="fill:rgb(206,122,99);fill-rule:nonzero;"/>
                        <path d="M236.93,141.35L231.1,144.68C231.1,144.68 229.84,147.16 227.76,150.63L222.63,145.81L225.27,137.33L234.02,134.33L236.93,141.35Z" style="fill:rgb(206,122,99);fill-rule:nonzero;"/>
                        <path d="M171.05,213.75C171.05,213.75 170.28,283.56 168.19,300.25C166.1,316.94 160.68,389.13 160.68,389.13L147.17,386.86C147.17,386.86 145.92,333.31 144.54,307.21C144.15,299.77 143.46,294.11 143.31,289.76C143.16,285.41 143.19,277.76 143.31,270.27C143.44,259.43 143.68,248.89 143.68,248.89L143.38,250.81C143.38,251.09 143.29,251.4 143.23,251.73L143.17,252.13C141.04,265.59 132.92,316.02 129.62,321.44C125.75,327.74 110.1,363.92 100,382L88.86,372.26C88.86,372.26 106.96,314.51 110.09,304.78C113.22,295.05 115.89,222.78 124.99,214.39L171.05,213.75Z" style="fill-opacity:0.3;fill-rule:nonzero;"/>
                        <path d="M143.34,250.8C143.34,251.08 143.25,251.39 143.19,251.72L143.34,250.8Z" style="fill-opacity:0.2;fill-rule:nonzero;"/>
                        <path d="M145.53,236.79C145.53,236.79 145.27,256.79 143.27,270.26C143.4,259.42 143.64,248.88 143.64,248.88L145.53,236.79Z" style="fill-opacity:0.2;fill-rule:nonzero;"/>
                        <path d="M149.48,132.36C150.821,133.406 152.348,134.19 153.98,134.67C155.612,135.15 151.65,137.47 144.18,136.92C141.27,136.7 137.57,138.29 132.93,135.52C132.93,135.52 134.87,124.44 134.02,117.88C134.02,117.88 126.35,114.59 128.18,109.6C129.84,105.06 135.01,110.27 135.95,111.26C135.03,110.09 129.51,102.72 133.53,96.69C136.134,92.795 140.341,90.254 145,89.76L151.34,91.46L153.89,97.46C153.89,97.46 157.3,102.08 157.54,111.33C157.78,120.58 152.43,123.86 148.54,124.96C148.54,124.96 148.43,125.96 148.43,127.31C148.38,129.12 148.55,131.51 149.48,132.36Z" style="fill:rgb(206,122,99);fill-rule:nonzero;"/>
                        <path d="M151.49,112.06L150.49,104.59L154.7,110.47C153.895,111.419 152.733,111.995 151.49,112.06Z" style="fill:rgb(186,77,60);fill-rule:nonzero;"/>
                        <path d="M144.18,112.53C145.372,114.076 147.38,114.766 149.27,114.28" style="fill:none;fill-rule:nonzero;stroke:rgb(38,50,56);stroke-width:1px;"/>
                        <path d="M142.27,102.2C142.27,102.2 143.47,99.58 145.93,99.98" style="fill:none;fill-rule:nonzero;stroke:rgb(38,50,56);stroke-width:1px;"/>
                        <path d="M153.08,99C154.564,98.806 156.055,99.339 157.08,100.43" style="fill:none;fill-rule:nonzero;stroke:rgb(38,50,56);stroke-width:1px;"/>
                        <path d="M146.75,105.6C146.75,106.33 146.38,106.92 145.93,106.92C145.48,106.92 145.11,106.33 145.11,105.6C145.11,104.87 145.48,104.29 145.93,104.29C146.38,104.29 146.75,104.88 146.75,105.6Z" style="fill:rgb(38,50,56);fill-rule:nonzero;"/>
                        <path d="M155.07,105.06C155.07,105.78 154.7,106.37 154.25,106.37C153.8,106.37 153.43,105.78 153.43,105.06C153.43,104.34 153.8,103.74 154.25,103.74C154.7,103.74 155.07,104.33 155.07,105.06Z" style="fill:rgb(38,50,56);fill-rule:nonzero;"/>
                        <path d="M141.22,140.32L147.64,139.34L149.21,145.55L146.22,151.11L144.5,151.11L141.22,146.12L141.22,140.32Z" style="fill:rgb(51,94,234);fill-rule:nonzero;"/>
                        <path d="M144.5,151.11L141.22,180.45L147.22,186.23L151.55,180.32L146.22,151.11L144.5,151.11Z" style="fill:rgb(51,94,234);fill-rule:nonzero;"/>
                        <path d="M141.22,140.32L147.64,139.34L149.21,145.55L146.22,151.11L144.5,151.11L141.22,146.12L141.22,140.32Z" style="fill-opacity:0.3;fill-rule:nonzero;"/>
                        <path d="M144.5,151.11L141.22,180.45L147.22,186.23L151.55,180.32L146.22,151.11L144.5,151.11Z" style="fill-opacity:0.3;fill-rule:nonzero;"/>
                        <path d="M144.18,136.92L147.43,145.48C147.43,145.48 155.83,141.29 157.06,134.27L151.06,132.21C148.972,134.061 146.661,135.644 144.18,136.92Z" style="fill:white;fill-rule:nonzero;"/>
                        <path d="M133.5,131.65C133.5,131.65 139.31,134.71 144.18,136.92L142.27,145.48C142.27,145.48 132.65,139.72 129.42,135.22L133.5,131.65Z" style="fill:white;fill-rule:nonzero;"/>
                        <path d="M148.5,124.93C148.5,124.93 148.39,125.93 148.39,127.28C146.736,126.872 145.14,126.257 143.64,125.45C145.278,125.672 146.946,125.494 148.5,124.93Z" style="fill-opacity:0.2;fill-rule:nonzero;"/>
                        <path d="M136,111.26C137.087,106.926 136.7,102.35 134.9,98.26C133.1,94.17 146.31,101.53 146.34,91.14C146.34,91.14 131.12,93.57 130.34,98.98C129.56,104.39 134.7,109.79 136,111.26Z" style="fill:rgb(38,50,56);fill-rule:nonzero;"/>
                        <path d="M146.17,92.67C146.17,92.67 150.53,98.86 154.27,97.58L154.27,88.58L141.27,88.58L134.4,92.68L139.16,97.58L142.7,94.67L146.17,92.67Z" style="fill:rgb(38,50,56);fill-rule:nonzero;"/>
                        <path d="M159.77,400.38L150.01,399.88L149.77,392.48L149.59,387.08L157.49,386.29L159.05,386.36L159.39,393.04L159.77,400.38Z" style="fill:rgb(206,122,99);fill-rule:nonzero;"/>
                        <path d="M159.39,393.04L149.77,392.48L149.59,387.08L157.49,386.29L159.05,386.36L159.39,393.04Z" style="fill-opacity:0.2;fill-rule:nonzero;"/>
                        <path d="M144.29,390.63L163.06,390.17L164.12,384.05L144.73,384.05L144.29,390.63Z" style="fill:rgb(38,50,56);fill-rule:nonzero;"/>
                        <path d="M161.87,400.79C161.87,400.79 165.14,391.15 167.69,392.11C170.24,393.07 161.87,400.79 161.87,400.79Z" style="fill:none;fill-rule:nonzero;stroke:rgb(51,94,234);stroke-width:1px;stroke-linecap:butt;stroke-linejoin:miter;stroke-miterlimit:10;"/>
                        <path d="M162.43,400.79C162.43,400.79 167.37,396.09 169.36,397.92C171.35,399.75 162.43,400.79 162.43,400.79Z" style="fill:none;fill-rule:nonzero;stroke:rgb(51,94,234);stroke-width:1px;stroke-linecap:butt;stroke-linejoin:miter;stroke-miterlimit:10;"/>
                        <path d="M98.31,379.88L95.53,384.13L87.26,379.55L89.6,374.85L98.31,379.88Z" style="fill-opacity:0.2;fill-rule:nonzero;"/>
                        <path d="M85.42,376.04L99.76,383.63L103.14,379.47L88.53,371.26L85.42,376.04Z" style="fill:rgb(38,50,56);fill-rule:nonzero;"/>
                        <path d="M94.55,392.42C94.55,392.42 98.61,387.34 100.26,388.54C101.91,389.74 94.55,392.42 94.55,392.42Z" style="fill:none;fill-rule:nonzero;stroke:rgb(51,94,234);stroke-width:1px;stroke-linecap:butt;stroke-linejoin:miter;stroke-miterlimit:10;"/>
                        <path d="M95.29,392.42C95.29,392.42 102.29,390.77 102.59,393.04C102.89,395.31 95.29,392.42 95.29,392.42Z" style="fill:none;fill-rule:nonzero;stroke:rgb(51,94,234);stroke-width:1px;stroke-linecap:butt;stroke-linejoin:miter;stroke-miterlimit:10;"/>
                        <path d="M93.7,387L86.17,382.77C85.083,382.167 83.693,382.558 83.08,383.64L79.69,389.64C79.08,390.729 79.473,392.127 80.56,392.74L101.93,404.74C103.019,405.35 104.417,404.957 105.03,403.87C105.571,402.903 105.333,401.675 104.47,400.98C101.71,398.77 96.05,393.69 94.8,388.43C94.648,387.822 94.249,387.303 93.7,387Z" style="fill:rgb(38,50,56);fill-rule:nonzero;"/>
                        <path d="M158.87,396.63L148.87,396.63C147.426,396.635 146.24,397.826 146.24,399.27L146.24,407.27C146.24,408.713 147.427,409.9 148.87,409.9L177.23,409.9C177.233,409.9 177.237,409.9 177.24,409.9C178.683,409.9 179.87,408.713 179.87,407.27C179.87,407.27 179.87,407.27 179.87,407.27C179.869,405.988 178.934,404.884 177.67,404.67C173.62,404 165.04,402.08 160.79,397.49C160.296,396.951 159.601,396.639 158.87,396.63Z" style="fill:rgb(38,50,56);fill-rule:nonzero;"/>
                        <path d="M132.47,212.11L129.34,218.81L123.79,218.01C118.56,218.85 116.38,215.88 116.38,215.88L113.09,212.88L119.2,205.88L120.14,207.34C130.17,208.77 132.47,212.11 132.47,212.11Z" style="fill:rgb(206,122,99);fill-rule:nonzero;"/>
                        <path d="M222.63,145.37L220.69,147.95L226.37,152.91L228.04,150.63L222.63,145.37Z" style="fill:white;fill-rule:nonzero;"/>
                        <path d="M112.84,213.16L119.39,205.5L117.18,202.69L110.34,210.92L112.84,213.16Z" style="fill:white;fill-rule:nonzero;"/>
                    </g>
                    <g id="freepik--character-2--inject-105">
                        <path d="M238.59,97.75C237.222,101.817 237.759,106.292 240.05,109.92C243.93,115.8 243.05,96.36 243.05,96.36L238.59,97.75Z" style="fill:rgb(38,50,56);fill-rule:nonzero;"/>
                        <path d="M246.54,141.84C246.54,141.84 222.54,175.44 217.85,174.03C213.16,172.62 202.35,151.66 202.35,151.66L201.72,143.37L194.64,133.62L185.64,140.72L190,148.83C190,148.83 191.3,153.04 195.14,154.22C195.14,154.22 203.97,181.33 215.14,186.42C226.31,191.51 241.81,159.21 241.81,159.21L246.54,141.84Z" style="fill:rgb(255,181,115);fill-rule:nonzero;"/>
                        <path d="M297.92,386.69L285.53,391.4C269.53,356.26 256.53,253.78 256.53,253.78C256.53,253.78 256.15,256.65 255.58,261.27C253.72,276.57 249.78,310.96 250.58,323.27C251.85,343.98 248.19,395.16 248.19,395.16L233.19,396.94C233.19,396.94 233.7,346.35 231.56,318.32C229.42,290.29 235.97,218.37 235.97,218.37L277.34,216.47C284.44,224.63 286.21,325.06 287.99,334.29C289.77,343.52 297.92,386.69 297.92,386.69Z" style="fill:rgb(38,50,56);fill-rule:nonzero;"/>
                        <path d="M231.89,146.85C232.093,145.739 232.74,144.756 233.68,144.13C237.03,141.89 245.62,136.31 247.93,136.13C250.83,135.9 265.99,132.34 272,136.13C278.01,139.92 281.81,151.06 281.81,151.06C281.81,151.06 281.37,202.55 278.69,219.27L235.9,218.38C235.9,218.38 229.17,161.94 231.89,146.85Z" style="fill:rgb(51,94,234);fill-rule:nonzero;"/>
                        <path d="M279.81,165.55L286.49,177.81C286.49,177.81 287.38,205.45 285.16,212.58L281.81,219.27L281.81,230L289.81,231.11L292.04,222.64C292.04,222.64 293.37,216.4 292.04,213.73C292.04,213.73 301.4,192.33 298.04,173.83C298.04,173.83 281.15,136.59 270.79,135.56C260.43,134.53 279.81,165.55 279.81,165.55Z" style="fill:rgb(255,181,115);fill-rule:nonzero;"/>
                        <path d="M266.17,135.61C266.17,135.61 259.56,141.99 253.53,141.81C247.5,141.63 249.15,136.49 249.15,136.49C252.25,135.91 253.26,132.81 253.55,130.15C253.693,128.82 253.693,127.48 253.55,126.15C253.407,124.82 246.36,126.15 242.32,117.37C238.28,108.59 242.32,97.02 242.32,97.02C242.32,97.02 257.59,93.16 264.43,95.09C271.27,97.02 265.84,114.21 265.84,114.21C264.06,123.86 266.17,135.61 266.17,135.61Z" style="fill:rgb(255,181,115);fill-rule:nonzero;"/>
                        <path d="M252.77,106.17C252.77,106.86 252.39,107.42 251.93,107.42C251.47,107.42 251.1,106.86 251.1,106.17C251.1,105.48 251.47,104.92 251.93,104.92C252.39,104.92 252.77,105.48 252.77,106.17Z" style="fill:rgb(38,50,56);fill-rule:nonzero;"/>
                        <path d="M244.25,107C244.25,107.69 243.88,108.25 243.42,108.25C242.96,108.25 242.58,107.69 242.58,107C242.58,106.31 242.96,105.75 243.42,105.75C243.88,105.75 244.25,106.28 244.25,107Z" style="fill:rgb(38,50,56);fill-rule:nonzero;"/>
                        <path d="M247.07,107.6L247.07,114.31C245.945,114.659 244.714,114.295 243.96,113.39L247.07,107.6Z" style="fill:rgb(237,137,62);fill-rule:nonzero;"/>
                        <path d="M249.92,115.48C249.92,115.48 253.48,115.48 254.78,112.55" style="fill:none;fill-rule:nonzero;stroke:rgb(38,50,56);stroke-width:1px;"/>
                        <path d="M251.1,101.35C251.1,101.35 254.2,101.1 255.1,103.03" style="fill:none;fill-rule:nonzero;stroke:rgb(38,50,56);stroke-width:1px;"/>
                        <path d="M240.51,103.71C241.006,102.472 242.108,101.575 243.42,101.34" style="fill:none;fill-rule:nonzero;stroke:rgb(38,50,56);stroke-width:1px;"/>
                        <path d="M259,125.08C257.59,127.157 255.731,128.89 253.56,130.15C253.703,128.82 253.703,127.48 253.56,126.15C255.426,126.153 257.274,125.79 259,125.08Z" style="fill-opacity:0.2;fill-rule:nonzero;"/>
                        <path d="M251.75,142.02L255.38,141.68L256.4,149.26L254.51,152.73L252.35,152.73L250.33,148.97L251.75,142.02Z" style="fill:rgb(38,50,56);fill-rule:nonzero;"/>
                        <path d="M265.73,132.56C262.112,136.194 258.006,139.308 253.53,141.81L255.69,147.17C255.69,147.17 264.75,145.61 268.63,134.86L265.73,132.56Z" style="fill:white;fill-rule:nonzero;"/>
                        <path d="M253.53,141.81L251.1,147.17C251.1,147.17 247.42,143.54 246.54,136.53L251.1,133.62C251.1,133.62 251.27,138.87 253.53,141.81Z" style="fill:white;fill-rule:nonzero;"/>
                        <path d="M252.51,150.73L250.04,182.78L254.19,187.82L258.02,182.47L254.28,150.73L252.51,150.73Z" style="fill:rgb(38,50,56);fill-rule:nonzero;"/>
                        <path d="M268.92,109.4C268.92,109.4 260.16,110.46 258.71,97.77C258.71,97.77 243.28,102.38 237.71,97.65C232.14,92.92 236.66,86.77 236.66,86.77C237.138,87.967 237.71,89.124 238.37,90.23L238.37,86.23C239.307,87.46 240.34,88.614 241.46,89.68C245.953,90.403 250.559,89.514 254.46,87.17C261.15,83.17 269.66,90.76 268.09,96.61C268.14,96.64 275.68,102.52 268.92,109.4Z" style="fill:rgb(38,50,56);fill-rule:nonzero;"/>
                        <path d="M262.91,109.76C262.91,109.76 265.27,101.39 269.15,104.34C273.03,107.29 267.5,115.53 264.8,115.06C262.1,114.59 262.91,109.76 262.91,109.76Z" style="fill:rgb(255,181,115);fill-rule:nonzero;"/>
                        <path d="M194.87,156L203.31,151.34C203.31,151.34 212.38,168.86 217.64,171.06C217.64,171.06 228.33,160.27 231.85,146.76L236.64,169.28C236.64,169.28 228.35,186.79 217.87,187.04C207.39,187.29 198.8,167.35 194.87,156Z" style="fill:rgb(51,94,234);fill-rule:nonzero;"/>
                        <path d="M273.81,158.58L286.53,179L284.41,210.63L293.98,212.5C293.98,212.5 301.35,190.5 298.08,173.85C295.71,161.76 288.22,146.43 279.53,139.1C276.442,136.569 272.619,135.099 268.63,134.91C264.641,134.721 266.28,140.33 266.4,144.91C266.52,149.49 273.81,158.58 273.81,158.58Z" style="fill:rgb(51,94,234);fill-rule:nonzero;"/>
                        <path d="M281.47,170.86L273.81,158.58C274.47,159.64 281.47,180.86 281.47,180.86L281.47,170.86Z" style="fill-opacity:0.2;fill-rule:nonzero;"/>
                        <path d="M256.53,253.78C256.53,253.78 256.15,256.65 255.58,261.27L253.58,236.95L256.53,253.78Z" style="fill-opacity:0.2;fill-rule:nonzero;"/>
                        <path d="M292.77,401.84L300.53,398.23L298.3,392.14L296.67,387.69L289.99,389.64L288.75,390.2L290.66,395.75L292.77,401.84Z" style="fill:rgb(255,181,115);fill-rule:nonzero;"/>
                        <path d="M290.66,395.75L298.3,392.14L296.67,387.69L289.99,389.64L288.75,390.2L290.66,395.75Z" style="fill-opacity:0.2;fill-rule:nonzero;"/>
                        <path d="M291.19,402.86C291.19,402.86 285.37,396.1 283.61,397.71C281.85,399.32 291.19,402.86 291.19,402.86Z" style="fill:none;fill-rule:nonzero;stroke:rgb(51,94,234);stroke-width:1px;stroke-linecap:butt;stroke-linejoin:miter;stroke-miterlimit:10;"/>
                        <path d="M290.74,403C290.74,403 285.18,400.8 284.16,402.94C283.14,405.08 290.74,403 290.74,403Z" style="fill:none;fill-rule:nonzero;stroke:rgb(51,94,234);stroke-width:1px;stroke-linecap:butt;stroke-linejoin:miter;stroke-miterlimit:10;"/>
                        <path d="M292.27,398.5L300.38,395.22C301.551,394.749 302.903,395.321 303.38,396.49L306,403C306.112,403.275 306.17,403.57 306.17,403.867C306.17,404.803 305.598,405.65 304.73,406L281.68,415.31C281.404,415.423 281.109,415.481 280.811,415.481C279.872,415.481 279.024,414.904 278.68,414.03C278.257,412.991 278.653,411.786 279.61,411.2C282.67,409.33 289.03,404.95 290.97,399.83C291.192,399.221 291.666,398.736 292.27,398.5Z" style="fill:rgb(38,50,56);fill-rule:nonzero;"/>
                        <path d="M236.07,409.49L244.62,409.28L245,402.8L245.28,398.07L238.38,397.2L237.02,397.22L236.56,403.07L236.07,409.49Z" style="fill:rgb(255,181,115);fill-rule:nonzero;"/>
                        <path d="M236.56,403.07L245,402.8L245.28,398.07L238.38,397.2L237.02,397.22L236.56,403.07Z" style="fill-opacity:0.2;fill-rule:nonzero;"/>
                        <path d="M234.21,409.8C234.21,409.8 231.57,401.28 229.32,402.06C227.07,402.84 234.21,409.8 234.21,409.8Z" style="fill:none;fill-rule:nonzero;stroke:rgb(51,94,234);stroke-width:1px;stroke-linecap:butt;stroke-linejoin:miter;stroke-miterlimit:10;"/>
                        <path d="M233.72,409.79C233.72,409.79 229.5,405.55 227.72,407.11C225.94,408.67 233.72,409.79 233.72,409.79Z" style="fill:none;fill-rule:nonzero;stroke:rgb(51,94,234);stroke-width:1px;stroke-linecap:butt;stroke-linejoin:miter;stroke-miterlimit:10;"/>
                        <path d="M236.94,406.23L245.69,406.46C246.934,406.492 247.941,407.524 247.941,408.769C247.941,408.789 247.941,408.81 247.94,408.83L247.75,415.83C247.718,417.069 246.69,418.071 245.451,418.071C245.427,418.071 245.404,418.071 245.38,418.07L220.53,417.42C219.291,417.388 218.289,416.36 218.289,415.121C218.289,415.097 218.289,415.074 218.29,415.05C218.324,413.925 219.175,412.981 220.29,412.83C223.85,412.33 231.42,410.83 235.24,406.92C235.688,406.466 236.303,406.217 236.94,406.23Z" style="fill:rgb(38,50,56);fill-rule:nonzero;"/>
                        <path d="M285.26,394.88L280.97,387.41L299.64,380.5L300.95,390.4L285.26,394.88Z" style="fill:rgb(51,94,234);fill-rule:nonzero;"/>
                        <path d="M231.11,390.34L231.11,400L250.7,400L251.45,390.34L231.11,390.34Z" style="fill:rgb(51,94,234);fill-rule:nonzero;"/>
                    </g>
                    <g id="freepik--character-3--inject-105">
                        <path d="M335.68,154.22C335.68,154.22 330,176.62 324,183.56C324,183.56 313.11,172.68 309.8,163.21C309.8,163.21 309.49,158.79 306.33,156.9L301.6,150.43L293.71,153.27L295.6,159.58L303.81,164.16C303.81,164.16 314.22,192.87 323.68,192.71C333.14,192.55 337.41,179.93 337.41,179.93L342.61,152.93L335.68,154.22Z" style="fill:rgb(255,139,123);fill-rule:nonzero;"/>
                        <path d="M304,166.85L309.84,163.21C309.84,163.21 319.78,179.45 324.43,182.71C324.43,182.71 330.22,172.15 332.2,163.46C333.239,158.731 334.517,154.059 336.03,149.46L342.65,159.05C342.65,159.05 338.3,189.59 329.3,192.69C320.3,195.79 315.21,187 313.16,183.54C311.11,180.08 304,166.85 304,166.85Z" style="fill:rgb(38,50,56);fill-rule:nonzero;"/>
                        <path d="M354.05,386.69C354.05,387.06 360.05,395.54 360.05,395.54L366.33,387.42L359.56,377.83L354.05,386.69Z" style="fill:rgb(255,139,123);fill-rule:nonzero;"/>
                        <path d="M357.22,392.3L363.72,385.25C364.665,384.233 366.278,384.17 367.3,385.11L372.94,390.33C373.458,390.807 373.754,391.48 373.754,392.185C373.754,392.821 373.513,393.434 373.08,393.9L354.6,413.9C353.656,414.911 352.051,414.973 351.03,414.04C350.123,413.204 349.953,411.821 350.63,410.79C352.79,407.5 357.03,400.2 356.56,394.21C356.503,393.509 356.742,392.816 357.22,392.3Z" style="fill:rgb(38,50,56);fill-rule:nonzero;"/>
                        <path d="M340.58,382.75L358.82,366.75L365.53,380.68L353.06,391.52L340.58,382.75Z" style="fill:rgb(51,94,234);fill-rule:nonzero;"/>
                        <path d="M333.91,201.45C333.91,201.45 314.24,287.32 313.91,307.92C313.58,328.52 331.55,364.25 342.91,380.98L358.21,368.81L336.04,314.81L346.33,247.57L358.21,383.81L372.89,385.69C372.89,385.69 374.76,334.17 372.89,315.44C371.02,296.71 381.42,233.01 373.72,208.65L333.91,201.45Z" style="fill:rgb(38,50,56);fill-rule:nonzero;"/>
                        <path d="M373.77,208.63C373.77,208.63 377.12,176.69 383.55,164.18L386.05,149.71C386.05,149.71 381.4,143.99 370.86,144.17C360.32,144.35 355.68,143.17 355.68,143.17C355.68,143.17 341.91,142.24 338.68,145.28C335.45,148.32 335.29,162.08 334.75,168.69C334.21,175.3 332.95,205.69 332.95,205.69L373.77,208.63Z" style="fill:rgb(51,94,234);fill-rule:nonzero;"/>
                        <path d="M372.84,143.11C372.84,143.11 357,161.66 360,208.63L378.52,211.81L376,192.33L387.87,156.72C387.87,156.72 390.36,145.63 372.84,143.11Z" style="fill:rgb(38,50,56);fill-rule:nonzero;"/>
                        <path d="M354.78,143.11C354.78,143.11 337.72,155.57 336.41,203.38L327.48,203.63L334.79,165.39C333.507,161.939 333.339,158.171 334.31,154.62C335.31,151.18 336.39,147.14 338.69,145.24C342.35,142.21 348.18,142.47 354.78,143.11Z" style="fill:rgb(38,50,56);fill-rule:nonzero;"/>
                        <path d="M375.68,154.33C375.68,154.33 386.3,180.11 383.68,190.54C383.68,190.54 365.36,185.83 356.91,177.64C356.91,177.64 354.26,173.17 349.91,172.84L341.55,168.55L334.77,175.67L340.07,181.29L351.07,181.78C351.07,181.78 377.07,206.43 386.93,201.29C391.54,198.88 393.52,194.2 394.32,189.9C395.066,185.68 394.833,181.345 393.64,177.23L386.59,152L375.68,154.33Z" style="fill:rgb(255,139,123);fill-rule:nonzero;"/>
                        <path d="M350.4,184.24L357.64,175.82C357.64,175.82 373.72,188.22 383.64,190.54C382.775,182.069 381.439,173.653 379.64,165.33L374.64,156.72L375.1,153.1L387.22,151.53C387.22,151.53 398.22,182.28 395.3,193.36C392.38,204.44 386.11,205.54 375.55,201.45C364.99,197.36 350.4,184.24 350.4,184.24Z" style="fill:rgb(38,50,56);fill-rule:nonzero;"/>
                        <path d="M373.09,407.96L363.02,407.96L362.15,395.39L361.98,392.97L373.08,393.9L373.08,399.58L373.09,407.96Z" style="fill:rgb(255,139,123);fill-rule:nonzero;"/>
                        <path d="M362.59,404.21L372.18,404.21C373.568,404.21 374.71,405.352 374.71,406.74L374.71,414.43C374.705,415.814 373.564,416.95 372.18,416.95L344.94,416.95C344.937,416.95 344.933,416.95 344.93,416.95C343.548,416.95 342.41,415.812 342.41,414.43C342.41,414.43 342.41,414.43 342.41,414.43C342.408,413.198 343.305,412.135 344.52,411.93C348.41,411.29 356.65,409.45 360.73,405.03C361.208,404.509 361.883,404.211 362.59,404.21Z" style="fill:rgb(38,50,56);fill-rule:nonzero;"/>
                        <path d="M372.84,143.11C371.015,145.523 369.472,148.137 368.24,150.9C364.655,158.812 362.253,167.209 361.11,175.82L372.84,166.32L370.29,158.15L384.56,147.79C384.56,147.79 380.83,144 372.84,143.11Z" style="fill:white;fill-opacity:0.1;fill-rule:nonzero;"/>
                        <path d="M340.94,169.36C340.94,169.36 346.59,149.21 354.78,143.11C354.78,143.11 345.07,141.76 340.6,144.03L341.6,158.15L337.43,159.46L340.94,169.36Z" style="fill:white;fill-opacity:0.1;fill-rule:nonzero;"/>
                        <path d="M384.76,109.75C386.68,114.56 384.62,119.97 384.81,125.14C384.89,127.5 385.45,129.82 385.51,132.14C385.57,134.46 385.03,137.02 383.3,138.63C381.74,140.1 379.51,140.54 377.41,140.93C374.13,141.52 370.57,142.08 367.63,140.52C366.95,140.16 366.33,139.7 365.63,139.4C364.178,138.904 362.626,138.77 361.11,139.01C359.598,139.254 358.051,139.179 356.57,138.79C351.89,137.16 355.11,130.72 355.91,127.42C357.143,122.367 358.37,117.317 359.59,112.27C364.64,111.27 369.65,109.87 374.71,108.85C376.362,108.379 378.103,108.303 379.79,108.63C381.37,109.11 383.18,110.26 384.76,109.75Z" style="fill:rgb(38,50,56);fill-rule:nonzero;"/>
                        <path d="M384.89,119.69C384.498,121.003 383.655,122.137 382.51,122.89C381.34,123.51 381.16,124.61 381.26,125.89C381.47,128.89 383.1,133.13 377.49,135.53C375.811,136.37 373.785,136.147 372.33,134.96C368.39,131.85 367.14,123.13 367.14,123.13L360,102.54C360.023,102.495 360.054,102.455 360.09,102.42L360.15,102.31C360.174,102.269 360.205,102.232 360.24,102.2C360.493,101.848 360.771,101.514 361.07,101.2C361.293,100.941 361.53,100.694 361.78,100.46C364.39,98.04 369.78,94.95 377.51,100.11C386,105.79 386.73,114.78 384.89,119.69Z" style="fill:rgb(38,50,56);fill-rule:nonzero;"/>
                        <path d="M385.3,121.43C385.39,123.82 383.19,125.19 381.3,125.94C380.377,126.288 379.423,126.546 378.45,126.71C376.69,129.64 372.88,131.71 372.88,131.71C372.597,132.796 372.426,133.909 372.37,135.03C372.268,137.744 372.439,140.461 372.88,143.14L370.3,147.14C359.55,152.06 355.72,143.14 355.72,143.14C359.66,142.72 360.92,139.41 361.29,136.63C361.442,135.354 361.442,134.066 361.29,132.79C357.75,131.3 355.14,128.186 354.29,124.44C353.02,119.06 354.06,114 356.29,109.03C357.186,107.047 358.261,105.149 359.5,103.36L360,102.55C360.023,102.505 360.054,102.465 360.09,102.43C360.133,102.352 360.183,102.278 360.24,102.21L360.24,102.14C360.42,101.91 360.68,101.58 361.02,101.22L361.08,101.22L374.57,99.47L380.43,104.15L382.48,115.75L379.48,119.32L378.23,120.81L377.92,121.17L378.31,120.84C380.69,118.84 383.73,117.84 384.84,119.73C385.127,120.252 385.285,120.835 385.3,121.43Z" style="fill:rgb(255,139,123);fill-rule:nonzero;"/>
                        <path d="M367.08,112.77C366.91,113.48 366.39,113.97 365.93,113.86C365.47,113.75 365.22,113.08 365.39,112.36C365.56,111.64 366.08,111.16 366.55,111.27C367.02,111.38 367.26,112.05 367.08,112.77Z" style="fill:rgb(38,50,56);fill-rule:nonzero;"/>
                        <path d="M359.4,110.7C359.23,111.42 358.71,111.91 358.24,111.8C357.77,111.69 357.53,111.01 357.7,110.3C357.87,109.59 358.39,109.09 358.86,109.2C359.33,109.31 359.57,110 359.4,110.7Z" style="fill:rgb(38,50,56);fill-rule:nonzero;"/>
                        <path d="M366.67,111.32L364.82,110.32C364.82,110.32 365.14,112.21 366.67,111.32Z" style="fill:rgb(38,50,56);fill-rule:nonzero;"/>
                        <path d="M359,109.31L357.15,108.31C357.15,108.31 357.5,110.21 359,109.31Z" style="fill:rgb(38,50,56);fill-rule:nonzero;"/>
                        <path d="M361.28,111.55L359.52,117.88C359.341,117.936 359.153,117.965 358.965,117.965C358.133,117.965 357.398,117.403 357.18,116.6L361.28,111.55Z" style="fill:rgb(255,86,82);fill-rule:nonzero;"/>
                        <path d="M361.66,122.28C361.66,122.28 366.03,122.93 367.28,119.28" style="fill:none;fill-rule:nonzero;stroke:rgb(38,50,56);stroke-width:1px;"/>
                        <path d="M367.14,107.81C367.58,107.58 368.068,107.459 368.565,107.459C369.767,107.459 370.863,108.165 371.36,109.26" style="fill:none;fill-rule:nonzero;stroke:rgb(38,50,56);stroke-width:1px;"/>
                        <path d="M361.05,105.19C360.591,104.883 360.051,104.72 359.5,104.72C358.441,104.72 357.47,105.322 357,106.27" style="fill:none;fill-rule:nonzero;stroke:rgb(38,50,56);stroke-width:1px;"/>
                        <path d="M383.54,115.91L378.36,120.8L378.28,120.8C369.62,118 371.36,102 371.36,102C368.91,103.56 360.23,102.7 360,102.52C360.469,101.826 361.009,101.183 361.61,100.6C361.99,100.23 363.2,100.34 363.7,100.3L366.89,100.05L373.35,99.53C373.54,99.53 374.44,99.3 374.6,99.43L380.46,104.11L383.54,115.91Z" style="fill:rgb(38,50,56);fill-rule:nonzero;"/>
                        <path d="M365.7,133.47C364.57,134.947 363.018,136.046 361.25,136.62C361.402,135.344 361.402,134.056 361.25,132.78C362.689,133.236 364.19,133.469 365.7,133.47Z" style="fill-opacity:0.2;fill-rule:nonzero;"/>
                        <path d="M344.17,261.98L345.28,233.43L346.38,247.55L344.17,261.98Z" style="fill-opacity:0.3;fill-rule:nonzero;"/>
                        <path d="M373.08,394.87L373.08,399.58L362.44,399.58L362.15,395.39L373.08,394.87Z" style="fill-opacity:0.1;fill-rule:nonzero;"/>
                        <path d="M356.07,383.44L358.65,397.89L374.47,397.89L376.65,382.75L356.07,383.44Z" style="fill:rgb(51,94,234);fill-rule:nonzero;"/>
                    </g>
                </g>
            </g>
        </g>
        <g id="Sponsors">
        </g>
    </g>
</svg>
