<?xml version="1.0" encoding="UTF-8" standalone="no"?>
<!DOCTYPE svg PUBLIC "-//W3C//DTD SVG 1.1//EN" "http://www.w3.org/Graphics/SVG/1.1/DTD/svg11.dtd">
<svg width="100%" height="100%" viewBox="0 0 1024 1024" version="1.1" xmlns="http://www.w3.org/2000/svg" xmlns:xlink="http://www.w3.org/1999/xlink" xml:space="preserve" xmlns:serif="http://www.serif.com/" style="fill-rule:evenodd;clip-rule:evenodd;stroke-linejoin:round;stroke-miterlimit:2;">
    <g transform="matrix(1,0,0,1,-54.8333,-20156.5)">
        <g id="Artboard1" transform="matrix(0.339642,0,0,0.339642,3389.89,8156.61)">
            <rect x="-9819.34" y="35331" width="3014.94" height="3014.94" style="fill:none;"/>
            <g id="api-mocking-development-teams-dependency.svg" transform="matrix(4.16448,0,0,4.16448,-8311.87,36838.5)">
                <g transform="matrix(1,0,0,1,-375,-250)">
                    <g id="freepik--background-simple--inject-220">
                        <g>
                            <path d="M275.646,61.949C243.343,64.913 212.194,71.222 184.568,81.119C152.007,92.783 118.738,110.954 128.564,134.722C146.705,178.602 233.732,179.401 216.356,208.905C196.674,242.324 209.873,281.525 298.19,292.426C465.937,313.132 668.717,191.981 611.764,125.41C576.307,83.966 447.166,46.214 275.646,61.949Z" style="fill:white;fill-opacity:0.45;fill-rule:nonzero;"/>
                        </g>
                    </g>
                    <g id="freepik--Character_3--inject-220">
                        <g>
                            <g>
                                <path d="M546.078,233.047C546.078,233.047 545.471,243.52 540.356,261.874C537.147,273.217 533.253,284.354 528.695,295.224C526.144,301.364 523.216,307.883 519.855,314.739C518.344,317.857 516.724,321.028 515.024,324.281C513.067,379.831 481.89,436.3 481.89,436.3C480.163,437.19 474.13,436.219 474.171,434.464C478.786,427.136 487.869,355.957 493.727,322.189C494.091,317.6 494.617,312.742 495.265,307.6C496.979,293.969 499.516,279.15 502.013,266.112C505.887,245.571 509.571,229.47 509.571,229.47L519.842,230.469L546.078,233.047Z" style="fill:rgb(238,193,187);fill-rule:nonzero;"/>
                                <path d="M481.553,448.284L479.798,448.284L479.299,446.071L473.361,448.77L458.312,448.77C458.312,448.77 455.924,446.368 463.077,444.465C463.425,444.365 463.764,444.234 464.089,444.073C467.908,442.278 473.334,436.232 473.334,436.232L481.58,436.232C481.835,436.615 482.06,437.017 482.255,437.433C483.159,439.215 484.711,443.075 481.553,448.284Z" style="fill:rgb(38,50,56);fill-rule:nonzero;"/>
                                <path d="M482.255,437.406C481.175,436.192 476.222,441.523 472.591,443.345C469.352,444.951 465.708,445.666 464.089,444.033C467.908,442.238 474.71,433.838 474.71,433.838L480.541,434.424C480.541,434.424 481.877,436.624 482.255,437.406Z" style="fill:rgb(238,193,187);fill-rule:nonzero;"/>
                            </g>
                            <g>
                                <path d="M558.333,309.948C557.505,315.922 556.439,322.315 555.134,329.126C566.269,366.281 543.366,438.796 543.366,438.796C539.492,439.566 536.064,439.066 534.323,437.757C538.642,415.907 535.538,359.101 532.177,325.158C531.88,322.081 531.502,318.693 531.098,315.077C530.409,308.949 529.586,302.201 528.709,295.224C527.224,283.549 525.564,271.268 524.066,260.376C522.231,247.218 520.638,236.083 519.815,230.482C519.477,228.026 519.275,226.636 519.275,226.636L551.423,230.118C551.423,230.118 559.602,239.282 560.87,267.907C561.289,281.969 560.44,296.039 558.333,309.948Z" style="fill:rgb(238,193,187);fill-rule:nonzero;"/>
                                <path d="M544.162,448.284L542.367,448.284L541.867,446.071L535.943,448.77L520.908,448.77C520.908,448.77 518.519,446.368 525.685,444.465C526.034,444.365 526.373,444.234 526.698,444.073C530.504,442.278 535.943,436.232 535.943,436.232L544.189,436.232C544.437,436.619 544.663,437.02 544.864,437.433C545.768,439.215 547.28,443.075 544.162,448.284Z" style="fill:rgb(38,50,56);fill-rule:nonzero;"/>
                                <path d="M544.864,437.406C543.77,436.192 538.817,441.523 535.187,443.345C531.948,444.951 528.304,445.666 526.698,444.033C530.504,442.238 536.509,434.424 536.509,434.424L543.136,434.424C543.136,434.424 544.472,436.624 544.864,437.406Z" style="fill:rgb(238,193,187);fill-rule:nonzero;"/>
                            </g>
                            <g>
                                <path d="M566.775,152.322C565.124,150.897 562.457,151.443 560.187,151.176C556.74,150.771 553.964,148.282 552.48,145.457C550.997,142.632 550.566,139.471 550.037,136.384C549.509,133.297 548.826,130.135 546.934,127.515C545.042,124.895 540.485,121.647 537.174,123.633L532.74,130.505C535.401,138.555 537.565,146.738 539.218,155.004C539.956,158.695 540.69,162.599 543.369,165.474C545.994,168.29 550.149,169.663 554.226,169.926C556.293,170.059 558.431,169.927 560.32,169.16C562.208,168.393 563.817,166.912 564.236,165.088C564.654,163.264 563.649,161.158 561.728,160.46C563.582,159.677 565.512,158.841 566.748,157.371C567.984,155.902 568.252,153.599 566.775,152.322Z" style="fill:rgb(38,50,56);fill-rule:nonzero;"/>
                                <g>
                                    <path d="M503.263,118.126C498.195,123.03 497.555,128.867 498.36,132.862C500.062,138.146 502.638,141.636 505.057,146.631L513.642,112.332C510.409,113.608 508.774,113.195 503.263,118.126Z" style="fill:rgb(38,50,56);fill-rule:nonzero;"/>
                                    <path d="M518.55,112.131C528.445,112.332 538.378,120.605 539.155,128.633C539.933,136.66 532.037,147.019 530.556,147.655L525.87,149.377C525.87,149.377 531.039,137.426 528.894,134.232C526.749,131.039 525.193,131.004 525.193,131.004L518.55,112.131Z" style="fill:rgb(38,50,56);fill-rule:nonzero;"/>
                                    <path d="M510.149,114.034C515.295,110.395 521.376,112.476 524.983,114.034C529.048,116.38 531.915,120.351 532.862,124.948C533.648,129.263 534.601,134.494 532.396,137.219C531.167,138.789 529.336,139.77 527.349,139.922L502.42,124.116C504.097,120.153 506.757,116.683 510.149,114.034Z" style="fill:rgb(38,50,56);fill-rule:nonzero;"/>
                                    <g>
                                        <path d="M520.204,172.482C522.154,173.876 523.549,173.038 525.576,171.743C537.754,164.683 532.751,159.093 532.751,159.093C529.75,156.642 529.01,153.192 528.947,147.739C528.937,147.582 528.915,147.425 528.883,147.271C528.745,146.566 528.394,145.922 527.876,145.426C526.497,144.031 524.248,144.019 522.854,145.398L522.85,145.402L517.32,148.131C517.318,148.214 517.317,148.298 517.315,148.391C517.826,151.287 518.318,153.518 518.62,155.288C518.616,155.506 518.695,155.726 518.723,155.934C518.719,156.152 518.777,156.381 518.815,156.59C519.116,159.035 515.669,163.335 514.154,164.483C513.248,165.246 513.597,167.789 520.204,172.482Z" style="fill:rgb(238,193,187);fill-rule:nonzero;"/>
                                        <path d="M529.7,126.774C531.293,136.792 532.187,140.982 528.434,147.263C522.779,156.699 510.431,156.706 505.896,147.416C501.886,139.039 499.909,124.103 508.481,117.811C517.053,111.52 528.096,116.746 529.7,126.774Z" style="fill:rgb(238,193,187);fill-rule:nonzero;"/>
                                        <path d="M535.674,134.514C535.057,136.852 533.509,138.634 531.892,139.54C529.459,140.901 526.975,137.07 527.157,134.214C527.322,131.643 529.464,129.39 532.143,129.216C534.782,129.043 536.38,131.842 535.674,134.514Z" style="fill:rgb(238,193,187);fill-rule:nonzero;"/>
                                        <path d="M530.017,135.733C529.899,135.733 529.795,135.651 529.771,135.533C529.567,134.512 529.78,133.43 530.355,132.563C530.931,131.696 531.845,131.08 532.864,130.873C532.996,130.844 533.131,130.933 533.159,131.068C533.187,131.203 533.1,131.335 532.964,131.363C532.073,131.544 531.274,132.083 530.771,132.84C530.27,133.597 530.083,134.542 530.262,135.434C530.289,135.57 530.201,135.702 530.065,135.729C530.049,135.732 530.032,135.733 530.017,135.733L530.017,135.733Z" style="fill-opacity:0.2;fill-rule:nonzero;"/>
                                        <g>
                                            <g>
                                                <path d="M517.484,133.437C517.718,134.493 517.385,135.503 516.74,135.692C516.096,135.881 515.384,135.178 515.149,134.122C514.915,133.065 515.248,132.056 515.893,131.867C516.538,131.678 517.25,132.381 517.484,133.437Z" style="fill:rgb(38,50,56);fill-rule:nonzero;"/>
                                                <path d="M507.753,136.041C507.978,137.066 507.639,138.049 506.996,138.237C506.354,138.426 505.65,137.749 505.425,136.724C505.201,135.7 505.539,134.717 506.182,134.529C506.825,134.34 507.528,135.017 507.753,136.041Z" style="fill:rgb(38,50,56);fill-rule:nonzero;"/>
                                                <path d="M518.557,129.246C518.435,129.294 518.298,129.292 518.176,129.229C516.276,128.234 514.7,129.191 514.682,129.202C514.448,129.344 514.153,129.271 514.025,129.028C513.897,128.785 513.985,128.47 514.22,128.322C514.303,128.272 516.281,127.068 518.638,128.304C518.873,128.427 518.96,128.734 518.833,128.99C518.771,129.112 518.671,129.201 518.557,129.246Z" style="fill:rgb(38,50,56);fill-rule:nonzero;"/>
                                                <path d="M503.143,131.98C503.034,131.973 502.932,131.922 502.859,131.825C502.708,131.626 502.741,131.313 502.932,131.126C504.842,129.249 506.774,129.759 506.856,129.783C507.086,129.847 507.209,130.114 507.131,130.379C507.054,130.644 506.805,130.808 506.575,130.745C506.5,130.724 504.996,130.353 503.477,131.846C503.378,131.942 503.257,131.987 503.143,131.98Z" style="fill:rgb(38,50,56);fill-rule:nonzero;"/>
                                                <path d="M510.268,134.844C510.268,134.844 509.725,138.953 508.608,141.725C508.413,142.209 508.76,142.745 509.281,142.791C510.619,142.909 511.934,142.118 511.934,142.118L510.268,134.844Z" style="fill:rgb(212,130,125);fill-rule:nonzero;"/>
                                            </g>
                                            <path d="M516.276,131.809L513.868,131.888C513.868,131.888 515.563,133.24 516.276,131.809Z" style="fill:rgb(38,50,56);fill-rule:nonzero;"/>
                                            <path d="M506.421,134.489L504.014,134.567C504.014,134.567 505.708,135.919 506.421,134.489Z" style="fill:rgb(38,50,56);fill-rule:nonzero;"/>
                                        </g>
                                    </g>
                                    <path d="M526.688,129.835C526.688,129.835 519.801,124.361 518.61,118.823C518.61,118.823 497.392,118.013 502.479,135.272C502.479,135.272 495.299,120.854 511.508,115.334C527.716,109.814 535.118,130.948 528.948,139.908C528.905,139.835 530.958,133.273 526.688,129.835Z" style="fill:rgb(38,50,56);fill-rule:nonzero;"/>
                                    <path d="M504.329,118.893C502.519,121.397 501.554,124.412 501.574,127.501C501.969,129.672 505.21,130.703 505.21,130.703L507.957,125.312L508.715,129.47C514.507,127.745 517.353,123.984 518.55,119.086L514.183,113.801C514.183,113.801 505.981,116.836 504.329,118.893Z" style="fill:rgb(38,50,56);fill-rule:nonzero;"/>
                                </g>
                                <path d="M516.401,144.187C516.278,144.187 516.154,144.177 516.032,144.157C515.896,144.135 515.804,144.007 515.825,143.871C515.848,143.735 515.971,143.641 516.112,143.664C516.696,143.758 517.327,143.561 517.753,143.145C518.178,142.729 518.393,142.105 518.312,141.516C518.293,141.379 518.389,141.253 518.525,141.235C518.676,141.209 518.788,141.313 518.808,141.449C518.908,142.192 518.639,142.979 518.103,143.502C517.654,143.939 517.027,144.187 516.401,144.187Z" style="fill:rgb(38,50,56);fill-rule:nonzero;"/>
                            </g>
                            <path d="M508.95,226.636L551.639,226.636L552.799,232.142C552.799,232.142 568.482,253.844 560.533,307.964C560.533,307.964 526.185,311.932 493.835,304.995C493.835,304.995 501.095,249.391 508.68,231.238L508.95,226.636Z" style="fill:rgb(38,50,56);fill-rule:nonzero;"/>
                            <g>
                                <path d="M549.483,209.854L552.518,232.555L505.72,230.669C505.597,225.792 509.948,212.849 509.444,209.311C508.024,204.939 500.835,198.341 498.921,193.059C496.88,185.725 501.094,165.556 502.469,164.916C504.135,164.142 506.211,164.211 507.489,163.649C512.456,162.48 523.757,158.444 528.821,157.814C529.801,157.722 530.774,157.545 531.742,157.433C531.742,157.433 550.889,156.512 551.736,164.302C551.82,164.735 547.172,185.171 549.483,209.854Z" style="fill:rgb(51,94,234);fill-rule:nonzero;"/>
                                <path d="M528.732,225.298C529.358,225.216 534.915,219.18 534.915,219.18L550.81,219.781L550.042,214.033C550.514,213.661 531.467,214.53 531.467,214.53L528.732,220.462L528.732,225.298Z" style="fill-opacity:0.2;fill-rule:nonzero;"/>
                                <path d="M544.507,159.244C545.326,159.346 548.654,157.462 554.662,165.178C560.671,172.895 567.406,202.314 567.786,206.607C568.269,212.057 564.637,214.745 561.014,215.343C550.146,217.137 530.087,217.499 530.087,217.499L530.087,208.259L550.101,203.728C550.101,203.728 538.743,176.385 540.536,169.341C542.329,162.297 544.507,159.244 544.507,159.244Z" style="fill:rgb(51,94,234);fill-rule:nonzero;"/>
                            </g>
                            <path d="M535.505,157.407C534.06,165.262 528.185,171.428 520.45,173.419C517.737,174.071 514.705,172.57 512.56,170.793C510.387,168.979 508.939,166.443 508.484,163.649C517.903,159.936 526.435,156.751 535.505,157.407Z" style="fill:rgb(238,193,187);fill-rule:nonzero;"/>
                            <path d="M550.101,203.728C550.101,203.728 553.355,203.543 554.734,205.317C554.734,205.317 553.903,201.918 549.654,202.632L550.101,203.728Z" style="fill-opacity:0.2;fill-rule:nonzero;"/>
                        </g>
                        <g>
                            <path d="M523.623,263.019L523.623,159.982L420.732,159.982L420.732,201.15C422.597,201.859 428.69,202.325 430.543,201.635C433.79,200.425 431.671,196.683 434.806,195.207C439.432,193.028 445.196,196.098 447.62,200.6C449.501,204.092 449.854,205.921 449.682,208.938C449.854,211.955 449.501,213.784 447.62,217.276C445.196,221.777 439.432,224.847 434.806,222.669C431.671,221.193 434.221,217.544 430.973,216.334C429.121,215.643 422.597,216.017 420.732,216.726L420.732,263.019L466.742,263.019C466.797,264.024 466.683,265.029 466.327,265.982C465.117,269.23 461.666,271.162 460.189,274.297C458.011,278.923 461.081,284.687 465.583,287.112C469.075,288.992 470.903,289.345 473.92,289.173C476.938,289.345 478.766,288.992 482.258,287.112C486.76,284.687 489.83,278.923 487.652,274.297C486.175,271.162 482.724,269.23 481.513,265.982C481.158,265.029 481.043,264.024 481.099,263.019L523.623,263.019Z" style="fill:rgb(51,94,234);fill-rule:nonzero;"/>
                            <g>
                                <path d="M528.732,263.019L528.732,159.982L425.84,159.982L425.84,201.15C427.705,201.859 429.747,202.035 431.6,201.345C434.847,200.135 436.779,196.683 439.915,195.207C444.541,193.028 450.304,196.098 452.729,200.6C454.61,204.092 454.963,205.921 454.79,208.938C454.963,211.955 454.61,213.784 452.729,217.276C450.304,221.777 444.541,224.847 439.915,222.669C436.779,221.193 434.847,217.741 431.6,216.531C429.747,215.841 427.705,216.017 425.84,216.726L425.84,263.019L471.851,263.019C471.906,264.024 471.791,265.029 471.436,265.982C470.226,269.23 466.774,271.162 465.298,274.297C463.12,278.923 466.189,284.687 470.691,287.112C474.183,288.992 476.012,289.345 479.029,289.173C482.046,289.345 483.875,288.992 487.367,287.112C491.868,284.687 494.938,278.923 492.76,274.297C491.284,271.162 487.832,269.23 486.622,265.982C486.267,265.029 486.152,264.024 486.207,263.019L528.732,263.019Z" style="fill:rgb(51,94,234);fill-rule:nonzero;"/>
                                <g opacity="0.3">
                                    <path d="M528.732,263.019L528.732,159.982L425.84,159.982L425.84,201.15C427.705,201.859 429.747,202.035 431.6,201.345C434.847,200.135 436.779,196.683 439.915,195.207C444.541,193.028 450.304,196.098 452.729,200.6C454.61,204.092 454.963,205.921 454.79,208.938C454.963,211.955 454.61,213.784 452.729,217.276C450.304,221.777 444.541,224.847 439.915,222.669C436.779,221.193 434.847,217.741 431.6,216.531C429.747,215.841 427.705,216.017 425.84,216.726L425.84,263.019L471.851,263.019C471.906,264.024 471.791,265.029 471.436,265.982C470.226,269.23 466.774,271.162 465.298,274.297C463.12,278.923 466.189,284.687 470.691,287.112C474.183,288.992 476.012,289.345 479.029,289.173C482.046,289.345 483.875,288.992 487.367,287.112C491.868,284.687 494.938,278.923 492.76,274.297C491.284,271.162 487.832,269.23 486.622,265.982C486.267,265.029 486.152,264.024 486.207,263.019L528.732,263.019Z" style="fill:white;fill-rule:nonzero;"/>
                                </g>
                                <g>
                                    <path d="M528.732,210.065C528.732,210.065 521.825,211.792 521.069,213.416C520.312,215.041 522.867,214.917 522.867,214.917C522.867,214.917 520.064,215.227 520.035,216.435C520,217.884 522.676,217.742 522.676,217.742C522.676,217.742 520.398,218.088 520.444,219.165C520.491,220.281 523.524,220.335 523.524,220.335C523.524,220.335 521.965,220.882 522.42,221.612C522.876,222.342 529.309,222.582 531.204,221.377C533.098,220.173 533.105,211.906 532.736,210.102C532.367,208.298 530.998,207.325 528.732,204.586L528.732,210.065Z" style="fill:rgb(238,193,187);fill-rule:nonzero;"/>
                                    <path d="M522.874,215.052L522.885,215.051L527.746,214.277C527.811,214.267 527.856,214.198 527.846,214.124C527.836,214.05 527.772,213.997 527.71,214.008L522.849,214.782C522.784,214.793 522.739,214.862 522.749,214.935C522.758,215.006 522.813,215.055 522.874,215.052Z" style="fill-opacity:0.2;fill-rule:nonzero;"/>
                                    <path d="M522.822,217.87L522.825,217.87L527.553,217.498C527.619,217.493 527.668,217.428 527.662,217.354C527.657,217.279 527.609,217.234 527.533,217.228L522.805,217.6C522.739,217.605 522.691,217.67 522.696,217.744C522.701,217.818 522.757,217.874 522.822,217.87Z" style="fill-opacity:0.2;fill-rule:nonzero;"/>
                                    <path d="M523.692,220.462L527.213,220.286C527.279,220.283 527.329,220.22 527.325,220.145C527.322,220.07 527.265,220.012 527.199,220.015L523.678,220.191C523.612,220.195 523.562,220.258 523.566,220.333C523.569,220.407 523.626,220.465 523.692,220.462Z" style="fill-opacity:0.2;fill-rule:nonzero;"/>
                                </g>
                            </g>
                            <g>
                                <path d="M449.755,207.338C449.755,207.338 457.151,209.405 457.908,211.03C458.664,212.655 456.109,212.531 456.109,212.531C456.109,212.531 458.912,212.841 458.942,214.049C458.977,215.498 456.3,215.356 456.3,215.356C456.3,215.356 458.579,215.702 458.533,216.778C458.485,217.895 455.453,217.949 455.453,217.949C455.453,217.949 457.011,218.496 456.556,219.227C456.101,219.956 449.667,220.195 447.773,218.991C445.879,217.787 445.871,209.52 446.24,207.716C446.61,205.912 446.76,206.21 449.026,203.471L449.439,205.004C449.551,205.421 449.626,205.847 449.663,206.278L449.755,207.338Z" style="fill:rgb(238,193,187);fill-rule:nonzero;"/>
                                <path d="M456.103,212.666L456.091,212.665L451.23,211.891C451.165,211.881 451.12,211.812 451.13,211.738C451.141,211.664 451.204,211.611 451.267,211.623L456.127,212.396C456.193,212.407 456.238,212.476 456.228,212.549C456.218,212.62 456.163,212.669 456.103,212.666Z" style="fill-opacity:0.2;fill-rule:nonzero;"/>
                                <path d="M456.155,215.485L456.152,215.484L451.424,215.112C451.358,215.107 451.309,215.042 451.314,214.968C451.32,214.893 451.367,214.848 451.443,214.842L456.171,215.214C456.237,215.219 456.286,215.284 456.281,215.358C456.275,215.432 456.219,215.488 456.155,215.485Z" style="fill-opacity:0.2;fill-rule:nonzero;"/>
                                <path d="M455.285,218.076L451.764,217.9C451.698,217.897 451.647,217.834 451.651,217.759C451.655,217.684 451.711,217.626 451.777,217.629L455.298,217.805C455.364,217.809 455.415,217.872 455.411,217.947C455.407,218.021 455.351,218.08 455.285,218.076Z" style="fill-opacity:0.2;fill-rule:nonzero;"/>
                            </g>
                        </g>
                    </g>
                    <g id="freepik--Character_2--inject-220">
                        <g>
                            <g>
                                <path d="M298.181,436.758L308.393,437.758L315.94,411.903L300.404,410.212L298.181,436.758Z" style="fill:rgb(238,193,187);fill-rule:nonzero;"/>
                                <g>
                                    <path d="M309.872,433.248L306.226,433.248C305.401,433.248 304.637,433.666 304.15,434.331C302.048,437.203 300.468,436.117 298.181,433.418C296.727,433.248 296.335,434.917 296.217,435.365L293.491,445.28C293.254,446.107 293.734,446.97 294.562,447.207C294.709,447.249 294.861,447.27 295.015,447.267L323.901,447.267C328.495,447.267 329.447,442.637 327.555,442.209C319.045,440.328 313.019,437.824 310.389,435.348C309.901,434.915 310.402,434.591 309.872,433.248Z" style="fill:rgb(38,50,56);fill-rule:nonzero;"/>
                                    <path d="M317.783,436.067C318.167,435.791 318.397,435.35 318.402,434.877C318.434,434.624 318.319,434.374 318.105,434.234C316.962,433.425 312.404,435.556 311.892,435.806C311.835,435.826 311.79,435.871 311.77,435.928C311.732,436.033 311.786,436.149 311.892,436.186C313.012,436.452 314.157,436.599 315.308,436.627C316.171,436.709 317.039,436.513 317.783,436.067ZM317.819,434.58C317.912,434.637 317.959,434.746 317.938,434.853C317.919,435.194 317.754,435.511 317.486,435.722C316.45,436.496 313.951,436.163 312.606,435.913C314.498,435.08 317.188,434.139 317.819,434.58Z" style="fill:rgb(51,94,234);fill-rule:nonzero;"/>
                                    <path d="M312.047,436.234C313.415,435.663 316.284,433.413 316.129,432.223C316.105,431.973 315.926,431.675 315.308,431.592C312.808,431.306 311.737,435.794 311.737,435.984C311.712,436.061 311.736,436.145 311.797,436.198C311.843,436.212 311.893,436.212 311.939,436.198L312.047,436.234ZM315.224,431.961C315.688,432.009 315.688,432.175 315.688,432.235C315.819,432.961 313.737,434.829 312.249,435.615C312.558,434.568 313.475,431.949 315.058,431.949L315.224,431.961Z" style="fill:rgb(51,94,234);fill-rule:nonzero;"/>
                                    <path d="M309.307,438.307C309.261,438.307 309.215,438.294 309.173,438.269C309.057,438.194 309.021,438.04 309.095,437.924C309.812,436.785 311.035,435.996 312.369,435.813C312.502,435.799 312.632,435.891 312.65,436.027C312.669,436.164 312.574,436.29 312.437,436.31C311.248,436.472 310.157,437.175 309.518,438.189C309.471,438.266 309.39,438.307 309.307,438.307Z" style="fill:rgb(51,94,234);fill-rule:nonzero;"/>
                                    <path d="M311.572,440.012C311.526,440.012 311.48,439.999 311.439,439.974C311.322,439.899 311.287,439.745 311.361,439.629C312.078,438.489 313.302,437.701 314.635,437.52C314.768,437.503 314.897,437.597 314.916,437.733C314.935,437.871 314.839,437.997 314.702,438.016C313.514,438.177 312.423,438.88 311.784,439.895C311.736,439.971 311.655,440.012 311.572,440.012Z" style="fill:rgb(51,94,234);fill-rule:nonzero;"/>
                                    <path d="M314.392,441.446C314.346,441.446 314.3,441.434 314.258,441.408C314.142,441.334 314.106,441.18 314.18,441.063C314.896,439.925 316.12,439.136 317.454,438.953C317.587,438.939 317.717,439.03 317.735,439.167C317.754,439.304 317.659,439.43 317.521,439.449C316.333,439.611 315.242,440.314 314.603,441.329C314.556,441.405 314.475,441.446 314.392,441.446Z" style="fill:rgb(51,94,234);fill-rule:nonzero;"/>
                                </g>
                                <path d="M311.951,425.567L311.025,428.738L299.007,426.892L299.225,424.293L311.951,425.567Z" style="fill-opacity:0.3;fill-rule:nonzero;"/>
                            </g>
                            <g>
                                <path d="M357.625,436.758L367.837,437.758L375.384,411.903L359.849,410.212L357.625,436.758Z" style="fill:rgb(238,193,187);fill-rule:nonzero;"/>
                                <g>
                                    <path d="M369.316,433.248L365.67,433.248C364.845,433.248 364.082,433.666 363.594,434.331C361.492,437.203 359.912,436.117 357.625,433.418C356.171,433.248 355.78,434.917 355.661,435.365L352.936,445.28C352.699,446.107 353.178,446.97 354.006,447.207C354.153,447.249 354.306,447.27 354.459,447.267L383.345,447.267C387.94,447.267 388.892,442.637 386.999,442.209C378.489,440.328 372.463,437.824 369.833,435.348C369.345,434.915 369.846,434.591 369.316,433.248Z" style="fill:rgb(38,50,56);fill-rule:nonzero;"/>
                                    <path d="M377.228,436.067C377.611,435.791 377.841,435.35 377.847,434.877C377.879,434.624 377.763,434.374 377.549,434.234C376.407,433.425 371.848,435.556 371.336,435.806C371.279,435.826 371.235,435.871 371.214,435.928C371.176,436.033 371.231,436.149 371.336,436.186C372.456,436.452 373.601,436.599 374.752,436.627C375.616,436.709 376.483,436.513 377.228,436.067ZM377.263,434.58C377.356,434.637 377.404,434.746 377.383,434.853C377.363,435.194 377.199,435.511 376.93,435.722C375.895,436.496 373.395,436.163 372.05,435.913C373.943,435.08 376.633,434.139 377.263,434.58Z" style="fill:rgb(51,94,234);fill-rule:nonzero;"/>
                                    <path d="M371.491,436.234C372.86,435.663 375.728,433.413 375.573,432.223C375.55,431.973 375.371,431.675 374.752,431.592C372.253,431.306 371.181,435.794 371.181,435.984C371.157,436.061 371.18,436.145 371.241,436.198C371.288,436.212 371.337,436.212 371.384,436.198L371.491,436.234ZM374.669,431.961C375.133,432.009 375.133,432.175 375.133,432.235C375.264,432.961 373.181,434.829 371.693,435.615C372.003,434.568 372.919,431.949 374.502,431.949L374.669,431.961Z" style="fill:rgb(51,94,234);fill-rule:nonzero;"/>
                                    <path d="M368.751,438.307C368.705,438.307 368.659,438.294 368.618,438.269C368.501,438.194 368.466,438.04 368.54,437.924C369.256,436.785 370.479,435.996 371.813,435.813C371.946,435.799 372.076,435.891 372.095,436.027C372.114,436.164 372.018,436.29 371.881,436.31C370.692,436.472 369.601,437.175 368.962,438.189C368.915,438.266 368.834,438.307 368.751,438.307Z" style="fill:rgb(51,94,234);fill-rule:nonzero;"/>
                                    <path d="M371.017,440.012C370.971,440.012 370.925,439.999 370.884,439.974C370.767,439.899 370.732,439.745 370.806,439.629C371.523,438.489 372.747,437.701 374.08,437.52C374.211,437.503 374.342,437.597 374.361,437.733C374.379,437.871 374.284,437.997 374.147,438.016C372.959,438.177 371.868,438.88 371.229,439.895C371.181,439.971 371.1,440.012 371.017,440.012Z" style="fill:rgb(51,94,234);fill-rule:nonzero;"/>
                                    <path d="M373.836,441.446C373.79,441.446 373.744,441.434 373.703,441.408C373.586,441.334 373.551,441.18 373.625,441.063C374.341,439.925 375.565,439.136 376.898,438.953C377.048,438.944 377.162,439.031 377.181,439.167C377.199,439.304 377.104,439.43 376.967,439.449C375.778,439.611 374.687,440.314 374.047,441.329C374,441.405 373.919,441.446 373.836,441.446L373.836,441.446Z" style="fill:rgb(51,94,234);fill-rule:nonzero;"/>
                                </g>
                                <path d="M371.395,425.567L370.47,428.738L358.451,426.892L358.669,424.293L371.395,425.567Z" style="fill-opacity:0.3;fill-rule:nonzero;"/>
                            </g>
                            <g>
                                <g>
                                    <path d="M379.452,241.924C379.452,241.924 387.916,279.301 391.95,311.858C393.179,321.78 393.414,335.05 391.241,344.819L374.928,425.921L354.399,423.865C357.625,388.887 362.121,345.746 363.409,327.392C358.893,305.883 349.271,279.846 339.811,253.952L379.452,241.924Z" style="fill:rgb(51,94,234);fill-rule:nonzero;"/>
                                    <g opacity="0.2">
                                        <path d="M379.452,241.924C379.452,241.924 387.916,279.301 391.95,311.858C393.179,321.78 393.414,335.05 391.241,344.819L374.928,425.921L354.399,423.865C357.625,388.887 362.121,345.746 363.409,327.392C358.893,305.883 349.271,279.846 339.811,253.952L379.452,241.924Z" style="fill-rule:nonzero;"/>
                                    </g>
                                    <path d="M311.996,333.923C312.461,331.9 313.202,327.791 314.113,322.372C314.085,322.366 314.054,322.359 314.028,322.353C314.695,315.187 315.929,281.945 318.196,260.743C319.938,247.238 323.39,238.099 326.865,233.624C327.045,233.394 327.209,233.185 327.358,232.999C327.935,232.278 328.286,231.881 328.286,231.881C328.947,232.047 329.603,232.201 330.257,232.344C330.501,232.398 330.744,232.45 330.986,232.501C355.525,237.631 377.119,231.181 377.119,231.181C379.377,236.76 381.065,248.655 382.712,260.991C380.146,263.807 368.882,267.462 355.959,269.884L352.274,286.55C350.335,296.883 347.845,307.018 345.73,316.144L343.521,326.138C343.386,326.794 343.255,327.444 343.13,328.083C342.009,333.828 315.328,426.407 315.328,426.407L297.945,425.389C297.945,425.389 305.71,361.314 311.996,333.923Z" style="fill:rgb(51,94,234);fill-rule:nonzero;"/>
                                    <path d="M311.996,333.923C312.461,331.9 313.202,327.791 314.113,322.372C314.085,322.366 314.054,322.359 314.028,322.353C314.695,315.187 315.929,281.945 318.196,260.743C319.938,247.238 323.39,238.099 326.865,233.624C327.045,233.394 327.209,233.185 327.358,232.999C327.935,232.278 328.286,231.881 328.286,231.881C328.947,232.047 329.603,232.201 330.257,232.344C330.501,232.398 330.744,232.45 330.986,232.501C355.525,237.631 377.119,231.181 377.119,231.181C379.377,236.76 381.065,248.655 382.712,260.991C380.146,263.807 368.882,267.462 355.959,269.884L352.274,286.55C350.335,296.883 347.845,307.018 345.73,316.144L343.521,326.138C343.386,326.794 343.255,327.444 343.13,328.083C342.009,333.828 315.328,426.407 315.328,426.407L297.945,425.389C297.945,425.389 305.71,361.314 311.996,333.923Z" style="fill-opacity:0.2;fill-rule:nonzero;"/>
                                </g>
                                <path d="M352.037,288.09C351.969,288.43 359.997,259.248 359.997,259.248C359.997,259.248 366.757,285.301 356.472,301.598L352.037,288.09Z" style="fill-opacity:0.2;fill-rule:nonzero;"/>
                            </g>
                            <g>
                                <path d="M334.762,156.428C334.762,156.428 338.845,159.567 344.101,164.096C345.196,165.04 346.402,165.856 347.678,166.534C351.123,168.364 354.263,169.411 355.113,167.75C355.302,167.385 355.447,166.989 355.555,166.575C356.277,163.794 355.981,159.884 353.733,158.095C351.199,156.078 349.977,154.352 350.434,151.622C350.673,150.073 351.234,148.475 351.888,146.923L349.894,144.591L339.463,134.064C339.724,141.093 340.256,152.612 334.762,156.428Z" style="fill:rgb(238,193,187);fill-rule:nonzero;"/>
                                <path d="M350.349,152.221C347.48,150.518 344.332,147.564 344.71,144.189C344.878,142.768 345.184,141.422 345.525,140.559L351.352,148.273C350.873,149.517 350.699,150.339 350.349,152.221Z" style="fill-opacity:0.2;fill-rule:nonzero;"/>
                                <path d="M336.51,122.77C337.492,133.488 337.681,138.033 343.212,143.653C351.531,152.106 364.329,149.262 366.533,138.639C368.516,129.077 366.577,113.157 356.056,108.653C345.69,104.215 335.529,112.053 336.51,122.77Z" style="fill:rgb(238,193,187);fill-rule:nonzero;"/>
                                <path d="M349.86,126.15C349.916,127.153 350.532,127.978 351.237,127.993C351.942,128.008 352.468,127.207 352.412,126.203C352.356,125.2 351.74,124.375 351.035,124.36C350.33,124.345 349.804,125.146 349.86,126.15Z" style="fill:rgb(38,50,56);fill-rule:nonzero;"/>
                                <path d="M360.967,125.998C361.023,126.97 361.638,127.77 362.341,127.785C363.043,127.8 363.568,127.024 363.511,126.052C363.455,125.08 362.84,124.279 362.137,124.264C361.434,124.249 360.91,125.026 360.967,125.998Z" style="fill:rgb(38,50,56);fill-rule:nonzero;"/>
                                <path d="M348.156,122.31C348.292,122.325 348.431,122.285 348.537,122.188C350.188,120.659 352.047,121.196 352.068,121.202C352.344,121.282 352.623,121.126 352.686,120.845C352.748,120.564 352.573,120.269 352.294,120.185C352.197,120.156 349.864,119.48 347.815,121.378C347.611,121.567 347.607,121.902 347.806,122.126C347.902,122.233 348.028,122.296 348.156,122.31Z" style="fill:rgb(38,50,56);fill-rule:nonzero;"/>
                                <path d="M364.396,121.776C364.522,121.807 364.657,121.791 364.772,121.72C365.008,121.572 365.069,121.247 364.909,120.994C363.305,118.458 360.919,118.303 360.817,118.299C360.532,118.284 360.305,118.508 360.31,118.801C360.315,119.093 360.55,119.342 360.835,119.358C360.929,119.363 362.778,119.51 364.054,121.527C364.136,121.658 364.262,121.744 364.396,121.776Z" style="fill:rgb(38,50,56);fill-rule:nonzero;"/>
                                <path d="M341.077,129.494C341.077,129.494 344.383,124.496 343.021,114.761C342.793,113.129 343.825,111.584 345.443,111.27C350.066,110.372 356.248,104.539 363.791,116.124C363.791,116.124 360.194,102.247 339.134,107.837C320.393,112.812 333.224,128.697 335.157,130.331C337.09,131.965 341.077,129.494 341.077,129.494Z" style="fill:rgb(38,50,56);fill-rule:nonzero;"/>
                                <path d="M333.268,131.505C334.534,133.703 336.591,135.083 338.477,135.557C341.314,136.268 342.779,131.707 341.81,128.865C340.938,126.306 338.151,124.613 335.39,125.17C332.67,125.72 331.82,128.992 333.268,131.505Z" style="fill:rgb(238,193,187);fill-rule:nonzero;"/>
                                <g>
                                    <path d="M358.265,136.468C357.392,137.811 356.343,140.413 356.343,140.413C356.09,140.361 355.837,140.308 355.588,140.243C352.176,139.444 350.857,137.946 350.429,136.528C350.198,135.752 350.244,134.992 350.36,134.39C350.487,133.693 350.736,133.226 350.736,133.226C352.292,134.729 355.416,135.719 357.106,136.178C357.812,136.377 358.265,136.468 358.265,136.468Z" style="fill:rgb(38,50,56);fill-rule:nonzero;"/>
                                    <path d="M357.106,136.178L356.509,137.326C353.297,136.566 351.138,135.6 350.36,134.39C350.487,133.693 350.736,133.226 350.736,133.226C352.292,134.729 355.416,135.719 357.106,136.178Z" style="fill:white;fill-rule:nonzero;"/>
                                    <path d="M355.588,140.243C352.176,139.444 350.857,137.946 350.429,136.528C351.582,136.845 352.936,137.356 354.042,138.166C354.891,138.782 355.34,139.532 355.588,140.243Z" style="fill:rgb(220,87,83);fill-rule:nonzero;"/>
                                </g>
                                <path d="M358.086,125.705C358.086,125.705 359.763,129.717 361.654,132.218C361.985,132.655 361.78,133.293 361.266,133.482C359.943,133.969 358.394,133.528 358.394,133.528L358.086,125.705Z" style="fill:rgb(212,130,125);fill-rule:nonzero;"/>
                                <path d="M350.82,124.336L353.28,123.754C353.28,123.754 351.935,125.589 350.82,124.336Z" style="fill:rgb(38,50,56);fill-rule:nonzero;"/>
                                <path d="M361.884,124.29L364.344,123.708C364.344,123.708 362.999,125.543 361.884,124.29Z" style="fill:rgb(38,50,56);fill-rule:nonzero;"/>
                                <path d="M365.666,120.657C365.666,120.657 372.157,112.979 367.826,106.649C366.199,104.27 363.211,103.916 360.574,102.753C354.488,100.072 349.556,99.531 341.79,107.142C333.71,115.061 332.249,117.728 341.161,127.484C341.161,127.484 340.199,126.208 343.494,123.306C346.788,120.403 350.425,117.821 348.659,115.006C348.659,115.006 351.398,116.062 351.595,118.669L356.412,117.353C356.412,117.353 356.203,115.49 354.928,113.627C354.928,113.627 357.426,115.098 358.236,117.255L362.404,118.039C362.404,118.039 361.792,114.215 360.615,112.842C360.615,112.842 364.434,116.768 365.666,120.657Z" style="fill:rgb(38,50,56);fill-rule:nonzero;"/>
                            </g>
                            <path d="M339.635,131.44C339.507,131.44 339.398,131.342 339.387,131.212C339.303,130.264 338.859,129.344 338.169,128.688C337.479,128.032 336.538,127.635 335.585,127.6C335.447,127.595 335.34,127.479 335.345,127.341C335.35,127.203 335.442,127.112 335.604,127.1C336.676,127.14 337.737,127.586 338.514,128.325C339.291,129.064 339.791,130.101 339.885,131.168C339.897,131.306 339.795,131.427 339.658,131.439L339.635,131.44L339.635,131.44Z" style="fill-opacity:0.2;fill-rule:nonzero;"/>
                            <g>
                                <g>
                                    <path d="M390.59,220.125C389.987,219.661 389.415,219.146 388.879,218.587C388.424,218.11 388.107,217.495 388.217,217.495C388.193,217.427 388.166,217.36 388.134,217.295L387.941,216.849L387.472,215.649C387.155,214.788 386.851,213.85 386.548,212.896C385.913,211.004 385.32,209.035 384.741,207.051C383.568,203.067 382.451,199.037 381.319,194.992L379.244,186.511C378.943,185.137 378.477,183.135 377.858,180.85L377.857,180.844L377.857,180.844C376.169,174.614 373.348,166.305 369.661,163.001C363.936,158.621 360.282,164.025 357.926,169.643C355.664,175.034 361.246,189.769 361.246,189.769L368.047,189.277C368.907,192.413 369.808,195.531 370.697,198.714C371.855,202.867 373.235,206.943 374.615,211.019C375.318,213.065 376.049,215.111 376.849,217.172C377.319,218.218 377.746,219.249 378.229,220.341C378.464,220.879 378.726,221.448 379.015,222.017L379.526,222.971C379.74,223.369 379.98,223.75 380.243,224.109C381.252,225.407 382.492,226.455 383.885,227.186C384.958,227.787 386.087,228.256 387.251,228.585C389.372,229.198 391.561,229.463 393.749,229.37L394.977,223.432C393.515,222.34 391.901,221.202 390.59,220.125Z" style="fill:rgb(38,50,56);fill-rule:nonzero;"/>
                                    <path d="M390.59,220.125C389.987,219.661 389.415,219.146 388.879,218.587C388.424,218.11 388.107,217.495 388.217,217.495C388.193,217.427 388.166,217.36 388.134,217.295L387.941,216.849L387.472,215.649C387.155,214.788 386.851,213.85 386.548,212.896C385.913,211.004 385.32,209.035 384.741,207.051C383.568,203.067 382.451,199.037 381.319,194.992L379.244,186.511C378.943,185.137 378.477,183.135 377.858,180.85L377.857,180.844L377.857,180.844C376.169,174.614 373.348,166.305 369.661,163.001C363.936,158.621 360.282,164.025 357.926,169.643C355.664,175.034 361.246,189.769 361.246,189.769L368.047,189.277C368.907,192.413 369.808,195.531 370.697,198.714C371.855,202.867 373.235,206.943 374.615,211.019C375.318,213.065 376.049,215.111 376.849,217.172C377.319,218.218 377.746,219.249 378.229,220.341C378.464,220.879 378.726,221.448 379.015,222.017L379.526,222.971C379.74,223.369 379.98,223.75 380.243,224.109C381.252,225.407 382.492,226.455 383.885,227.186C384.958,227.787 386.087,228.256 387.251,228.585C389.372,229.198 391.561,229.463 393.749,229.37L394.977,223.432C393.515,222.34 391.901,221.202 390.59,220.125Z" style="fill:white;fill-opacity:0.5;fill-rule:nonzero;"/>
                                    <g opacity="0.3">
                                        <path d="M370.918,172.572C372.067,174.535 372.461,175.652 373.181,177.913C373.901,180.174 374.716,192.385 370.594,195.995L370.594,187.528C370.744,182.341 370.767,177.759 370.918,172.572Z" style="fill-rule:nonzero;"/>
                                    </g>
                                    <path d="M320.207,188.016L313.823,166.247C317.862,160.22 337.844,155.589 337.844,155.589L348.085,159.183L351.009,156.309C351.009,156.309 356.069,157.437 360.401,158.85C366.184,160.736 369.311,162.253 370.69,165.462C370.69,165.462 373.103,172.572 371.652,187.223C371.253,191.252 371.706,212.198 372.831,219.117L379.644,240.684C355.59,259.417 321.919,241.924 321.919,241.924C323,238.617 326.603,228.46 327.092,225.228C326.739,221.103 327.23,214.744 325.484,207.522C325.147,206.129 320.792,189.37 320.207,188.016Z" style="fill:rgb(38,50,56);fill-rule:nonzero;"/>
                                    <path d="M320.207,188.016L313.823,166.247C317.862,160.22 337.844,155.589 337.844,155.589L348.085,159.183L351.009,156.309C351.009,156.309 356.069,157.437 360.401,158.85C366.184,160.736 369.311,162.253 370.69,165.462C370.69,165.462 373.103,172.572 371.652,187.223C371.253,191.252 371.706,212.198 372.831,219.117L379.644,240.684C355.59,259.417 321.919,241.924 321.919,241.924C323,238.617 326.603,228.46 327.092,225.228C326.739,221.103 327.23,214.744 325.484,207.522C325.147,206.129 320.792,189.37 320.207,188.016Z" style="fill:white;fill-opacity:0.5;fill-rule:nonzero;"/>
                                </g>
                                <path d="M393.285,211.459C394.034,202.4 401.019,195.101 410.036,193.955L408.19,197.031L411.713,194.939L395.562,215.197L393.285,211.459Z" style="fill:rgb(51,94,234);fill-rule:nonzero;"/>
                                <path d="M393.285,211.459C394.034,202.4 401.019,195.101 410.036,193.955L408.19,197.031L411.713,194.939L395.562,215.197L393.285,211.459Z" style="fill:white;fill-opacity:0.8;fill-rule:nonzero;"/>
                                <path d="M367.982,194.831L373.535,194.662L400.115,203.676L375.888,240.685L352.047,234.732C350.688,234.355 349.891,232.948 350.268,231.589C350.324,231.387 350.405,231.192 350.508,231.009L360.138,213.597C360.329,213.253 360.329,212.834 360.138,212.49L358.83,210.167C358.555,209.691 358.555,209.105 358.83,208.629L365.29,196.523C365.838,195.535 366.854,194.896 367.982,194.831Z" style="fill:rgb(51,94,234);fill-rule:nonzero;"/>
                                <path d="M400.115,203.676L415.251,193.955L390.363,230.932L375.888,240.685L400.115,203.676Z" style="fill:rgb(51,94,234);fill-rule:nonzero;"/>
                                <path d="M400.115,203.676L415.251,193.955L390.363,230.932L375.888,240.685L400.115,203.676Z" style="fill-opacity:0.2;fill-rule:nonzero;"/>
                                <g>
                                    <path d="M397.143,220.873C397.143,220.873 391.261,219.331 389.968,220.34C388.676,221.349 390.445,222.308 390.445,222.308C390.445,222.308 388.42,221.397 387.816,222.368C387.09,223.533 388.949,224.528 388.949,224.528C388.949,224.528 387.258,223.864 386.767,224.759C386.259,225.688 388.261,226.99 388.261,226.99C388.261,226.99 386.954,226.789 386.905,227.572C386.856,228.355 391.043,231.219 392.893,231.025C394.743,230.831 398.75,224.105 399.377,222.483C400.003,220.861 399.938,219.599 398.75,218.47L397.143,220.873Z" style="fill:rgb(238,193,187);fill-rule:nonzero;"/>
                                    <path d="M390.384,222.42L390.392,222.424L394.018,223.811C394.066,223.829 394.13,223.792 394.159,223.728C394.188,223.663 394.171,223.594 394.124,223.577L390.498,222.19C390.449,222.172 390.386,222.209 390.357,222.273C390.329,222.334 390.342,222.398 390.384,222.42Z" style="fill-opacity:0.2;fill-rule:nonzero;"/>
                                    <path d="M388.985,224.693L388.987,224.694L392.329,226.353C392.376,226.376 392.44,226.343 392.472,226.28C392.505,226.217 392.495,226.161 392.447,226.124L389.105,224.465C389.058,224.442 388.994,224.475 388.962,224.538C388.929,224.6 388.94,224.669 388.985,224.693Z" style="fill-opacity:0.2;fill-rule:nonzero;"/>
                                    <path d="M388.312,227.163L390.752,228.481C390.798,228.506 390.862,228.475 390.896,228.412C390.929,228.35 390.92,228.279 390.874,228.255L388.434,226.937C388.388,226.912 388.324,226.943 388.29,227.005C388.256,227.068 388.266,227.139 388.312,227.163Z" style="fill-opacity:0.2;fill-rule:nonzero;"/>
                                </g>
                                <path d="M354.783,157.23L350.344,152.931L348.085,159.183L338.223,151.323L333.222,156.808L345.608,165.439L348.085,159.958L354.783,164.983L354.783,157.23Z" style="fill:rgb(38,50,56);fill-rule:nonzero;"/>
                                <path d="M354.783,157.23C355.098,157.714 354.783,164.983 354.783,164.983L348.085,159.958L345.608,165.439L333.706,157.23L345.889,167.845L348.085,161.4L355.555,167.845L354.783,157.23Z" style="fill-opacity:0.3;fill-rule:nonzero;"/>
                                <path d="M361.121,190.944L327.004,223.816L327.004,217.32C327.004,217.32 357.714,189.188 358.086,189.147C358.458,189.107 361.121,190.944 361.121,190.944Z" style="fill-opacity:0.3;fill-rule:nonzero;"/>
                                <path d="M329.077,193.545L325.382,178.304L324.65,195.995L329.077,193.545Z" style="fill-opacity:0.3;fill-rule:nonzero;"/>
                            </g>
                            <path d="M335.2,135.276C335.2,136.408 336.117,137.326 337.25,137.326C338.382,137.326 339.3,136.408 339.3,135.276C339.3,134.144 338.382,133.226 337.25,133.226C336.117,133.226 335.2,134.144 335.2,135.276Z" style="fill:rgb(51,94,234);fill-rule:nonzero;"/>
                            <g>
                                <g>
                                    <path d="M313.823,166.247C313.823,166.247 309.21,170.738 307.657,186.06C306.543,197.057 303.725,220.771 312.271,223.816C320.817,226.861 358.086,191.229 358.086,191.229L352.036,180.844L324.65,195.995C324.65,195.995 327.442,170.877 322.615,168.581C317.789,166.285 313.823,166.247 313.823,166.247Z" style="fill:rgb(38,50,56);fill-rule:nonzero;"/>
                                    <path d="M313.823,166.247C313.823,166.247 309.21,170.738 307.657,186.06C306.543,197.057 303.725,220.771 312.271,223.816C320.817,226.861 358.086,191.229 358.086,191.229L352.036,180.844L324.65,195.995C324.65,195.995 327.442,170.877 322.615,168.581C317.789,166.285 313.823,166.247 313.823,166.247Z" style="fill:white;fill-opacity:0.5;fill-rule:nonzero;"/>
                                </g>
                                <path d="M354.376,180.073C354.376,180.073 357.971,172.873 359.677,172.556C361.384,172.238 362.758,172.808 362.758,172.808C362.758,172.808 374.377,165.963 375.151,167.764C375.569,168.739 372.989,170.887 367.45,174.047C367.45,174.047 370.64,175.221 369.354,177.09C369.354,177.09 371.702,178.167 370.449,180.5C370.449,180.5 371.527,182.561 370.172,183.877C368.817,185.193 362.433,188.826 358.736,189.368C355.039,189.911 352.883,182.726 352.883,182.726L354.376,180.073Z" style="fill:rgb(238,193,187);fill-rule:nonzero;"/>
                            </g>
                        </g>
                    </g>
                    <g id="freepik--Puzzle_piece--inject-220">
                        <g>
                            <path d="M393.627,385.791C396.762,387.268 398.695,390.719 401.942,391.929C403.766,392.609 405.775,392.45 407.617,391.769L407.617,345.441L363.276,345.441C363.221,344.436 363.336,343.431 363.691,342.478C364.901,339.231 368.353,337.298 369.829,334.163C372.007,329.537 368.938,323.773 364.436,321.349C360.944,319.468 359.115,319.115 356.098,319.287C353.081,319.115 351.252,319.468 347.76,321.349C343.259,323.773 340.189,329.537 342.367,334.163C343.843,337.298 347.295,339.231 348.505,342.478C348.86,343.431 348.975,344.436 348.92,345.441L304.58,345.441L304.58,448.478L407.617,448.478L407.617,407.276C405.775,406.595 403.766,406.436 401.942,407.116C398.695,408.326 396.75,411.751 393.627,413.254C389.463,415.258 383.257,412.355 380.813,407.86C378.918,404.376 378.579,402.54 378.752,399.523C378.579,396.505 378.932,394.677 380.813,391.185C383.238,386.683 389.001,383.613 393.627,385.791Z" style="fill:rgb(51,94,234);fill-rule:nonzero;"/>
                            <path d="M393.627,385.791C396.762,387.268 398.695,390.719 401.942,391.929C403.766,392.609 405.775,392.45 407.617,391.769L407.617,345.441L363.276,345.441C363.221,344.436 363.336,343.431 363.691,342.478C364.901,339.231 368.353,337.298 369.829,334.163C372.007,329.537 368.938,323.773 364.436,321.349C360.944,319.468 359.115,319.115 356.098,319.287C353.081,319.115 351.252,319.468 347.76,321.349C343.259,323.773 340.189,329.537 342.367,334.163C343.843,337.298 347.295,339.231 348.505,342.478C348.86,343.431 348.975,344.436 348.92,345.441L304.58,345.441L304.58,448.478L407.617,448.478L407.617,407.276C405.775,406.595 403.766,406.436 401.942,407.116C398.695,408.326 396.75,411.751 393.627,413.254C389.463,415.258 383.257,412.355 380.813,407.86C378.918,404.376 378.579,402.54 378.752,399.523C378.579,396.505 378.932,394.677 380.813,391.185C383.238,386.683 389.001,383.613 393.627,385.791Z" style="fill-opacity:0.4;fill-rule:nonzero;"/>
                            <path d="M398.679,385.791C401.814,387.268 403.747,390.719 406.994,391.929C408.818,392.609 410.827,392.45 412.669,391.769L412.669,345.441L368.328,345.441C368.273,344.436 368.388,343.431 368.743,342.478C369.953,339.231 373.405,337.298 374.881,334.163C377.059,329.537 373.99,323.773 369.488,321.349C365.996,319.468 364.167,319.115 361.15,319.287C358.133,319.115 356.304,319.468 352.812,321.349C348.311,323.773 345.241,329.537 347.419,334.163C348.895,337.298 352.347,339.231 353.557,342.478C353.912,343.431 354.027,344.436 353.972,345.441L309.632,345.441L309.632,448.478L412.669,448.478L412.669,407.276C410.827,406.595 408.818,406.436 406.994,407.116C403.747,408.326 401.802,411.751 398.679,413.254C394.515,415.258 388.309,412.355 385.865,407.86C383.97,404.376 383.631,402.54 383.804,399.523C383.631,396.505 383.984,394.677 385.865,391.185C388.29,386.683 394.053,383.613 398.679,385.791Z" style="fill:rgb(51,94,234);fill-rule:nonzero;"/>
                        </g>
                    </g>
                    <g id="freepik--Character_4--inject-220">
                        <g>
                            <g>
                                <path d="M522.442,359.58L557.662,346.047L577.992,326.338C578.556,325.684 584.452,315.518 584.452,315.518L594.43,336.892C594.43,336.892 569.619,361.824 560.533,364.727C553.188,367.073 527.185,373.444 527.185,373.444L522.442,359.58Z" style="fill:rgb(51,94,234);fill-rule:nonzero;"/>
                                <path d="M544.032,369.218C544.032,369.218 548.278,352.572 557.77,349.109C567.262,345.647 579.532,351.077 579.181,351.311C578.829,351.545 568.551,361.115 568.2,361.232C567.938,361.319 554.872,365.925 548.11,368.159L544.032,369.218Z" style="fill-opacity:0.4;fill-rule:nonzero;"/>
                            </g>
                            <g>
                                <g>
                                    <path d="M480.09,345.971C480.035,346.976 480.15,347.981 480.505,348.934C481.715,352.182 485.166,354.114 486.643,357.249C488.821,361.875 485.751,367.639 481.25,370.064C477.758,371.944 475.929,372.298 472.912,372.125C469.895,372.298 468.066,371.944 464.574,370.064C460.072,367.639 457.002,361.875 459.181,357.249C460.657,354.114 464.109,352.182 465.319,348.934C465.674,347.981 465.789,346.976 465.734,345.971L419.808,345.971L419.808,392.265C417.943,392.974 415.901,393.15 414.048,392.46C410.801,391.249 408.869,387.798 405.733,386.321C401.107,384.143 395.344,387.213 392.919,391.715C391.038,395.207 390.685,397.035 390.858,400.053C390.685,403.07 391.038,404.898 392.919,408.39C395.344,412.892 401.107,415.962 405.733,413.784C408.869,412.307 410.801,408.856 414.048,407.646C415.901,406.955 417.943,407.132 419.808,407.84L419.808,449.008L522.489,449.467L522.489,346.43L480.09,345.971Z" style="fill:rgb(38,50,56);fill-rule:nonzero;"/>
                                    <g opacity="0.4">
                                        <path d="M480.09,345.971C480.035,346.976 480.15,347.981 480.505,348.934C481.715,352.182 485.166,354.114 486.643,357.249C488.821,361.875 485.751,367.639 481.25,370.064C477.758,371.944 475.929,372.298 472.912,372.125C469.895,372.298 468.066,371.944 464.574,370.064C460.072,367.639 457.002,361.875 459.181,357.249C460.657,354.114 464.109,352.182 465.319,348.934C465.674,347.981 465.789,346.976 465.734,345.971L419.808,345.971L419.808,392.265C417.943,392.974 415.901,393.15 414.048,392.46C410.801,391.249 408.869,387.798 405.733,386.321C401.107,384.143 395.344,387.213 392.919,391.715C391.038,395.207 390.685,397.035 390.858,400.053C390.685,403.07 391.038,404.898 392.919,408.39C395.344,412.892 401.107,415.962 405.733,413.784C408.869,412.307 410.801,408.856 414.048,407.646C415.901,406.955 417.943,407.132 419.808,407.84L419.808,449.008L522.489,449.467L522.489,346.43L480.09,345.971Z" style="fill-rule:nonzero;"/>
                                    </g>
                                </g>
                                <path d="M484.635,345.971C484.58,346.976 484.694,347.981 485.05,348.934C486.26,352.182 489.711,354.114 491.188,357.249C493.366,361.875 490.296,367.639 485.794,370.064C482.302,371.944 480.474,372.298 477.457,372.125C474.439,372.298 472.611,371.944 469.119,370.064C464.617,367.639 461.547,361.875 463.726,357.249C465.202,354.114 468.653,352.182 469.864,348.934C470.219,347.981 470.334,346.976 470.279,345.971L424.353,345.971L424.353,392.265C422.488,392.974 420.446,393.15 418.593,392.46C415.346,391.249 413.414,387.798 410.278,386.321C405.652,384.143 399.889,387.213 397.464,391.715C395.583,395.207 395.23,397.035 395.403,400.053C395.23,403.07 395.583,404.898 397.464,408.39C399.889,412.892 405.652,415.962 410.278,413.784C413.414,412.307 415.346,408.856 418.593,407.646C420.446,406.955 422.488,407.132 424.353,407.84L424.353,449.008L527.034,449.467L527.034,346.43L484.635,345.971Z" style="fill:rgb(38,50,56);fill-rule:nonzero;"/>
                            </g>
                            <g>
                                <g>
                                    <path d="M556.961,415.427L573.112,414.45C570.528,428.679 567.871,437.909 569.002,445.214L562.492,449.566L556.464,443.638C556.464,443.638 555.35,432.008 556.961,415.427Z" style="fill:rgb(233,179,118);fill-rule:nonzero;"/>
                                    <g>
                                        <g>
                                            <path d="M555.493,433.654L561.362,433.723C564.201,438.64 566.166,437.482 569.176,434.013C570.88,433.835 571.315,435.793 571.448,436.32L574.502,447.962C574.768,448.934 574.195,449.938 573.222,450.204C573.049,450.251 572.87,450.273 572.691,450.268C567.509,450.207 565.057,450.178 558.606,450.102L538.879,449.871C533.501,449.808 532.45,444.375 534.672,443.899C544.658,441.815 551.747,438.967 554.859,436.105C555.436,435.605 554.854,435.218 555.493,433.654Z" style="fill:rgb(51,94,234);fill-rule:nonzero;"/>
                                            <path d="M556.089,439.54C556.005,439.54 555.923,439.498 555.876,439.421C555.136,438.213 553.857,437.368 552.455,437.16C552.319,437.14 552.225,437.013 552.245,436.876C552.266,436.74 552.383,436.642 552.529,436.666C554.075,436.896 555.486,437.827 556.302,439.159C556.374,439.277 556.337,439.431 556.22,439.503C556.179,439.528 556.134,439.54 556.089,439.54Z" style="fill:rgb(38,50,56);fill-rule:nonzero;"/>
                                            <path d="M553.413,441.505C553.329,441.505 553.247,441.463 553.2,441.386C552.459,440.178 551.18,439.333 549.779,439.125C549.644,439.104 549.549,438.978 549.569,438.841C549.59,438.705 549.707,438.61 549.854,438.631C551.397,438.859 552.809,439.792 553.626,441.124C553.698,441.242 553.661,441.395 553.544,441.468C553.503,441.493 553.458,441.505 553.413,441.505Z" style="fill:rgb(38,50,56);fill-rule:nonzero;"/>
                                            <path d="M550.094,443.145C550.01,443.145 549.928,443.103 549.881,443.025C549.14,441.817 547.86,440.973 546.459,440.765C546.323,440.744 546.229,440.617 546.249,440.48C546.27,440.344 546.385,440.249 546.533,440.271C548.078,440.5 549.489,441.432 550.307,442.764C550.379,442.882 550.342,443.035 550.225,443.107C550.184,443.133 550.139,443.145 550.094,443.145Z" style="fill:rgb(38,50,56);fill-rule:nonzero;"/>
                                        </g>
                                        <path d="M573.222,450.204C573.049,450.251 572.87,450.273 572.691,450.268C567.509,450.207 565.057,450.178 558.606,450.102L538.879,449.871C535.969,449.836 534.336,448.23 533.793,446.688C534.611,446.704 573.809,447.468 574.328,447.3L574.536,448.168C574.676,449.072 574.126,449.957 573.222,450.204Z" style="fill:white;fill-opacity:0.7;fill-rule:nonzero;"/>
                                    </g>
                                </g>
                                <path d="M618.811,372.594C618.811,372.594 574.703,349.816 566.115,349.167C557.526,348.518 549.318,353.169 547.677,370.952C546.035,388.736 549.318,434.47 549.318,434.47L573.111,434.879L576.06,381.895C576.06,381.895 612.909,408.812 614.003,408.538C615.097,408.265 629.481,407.614 629.481,407.614L618.811,372.594Z" style="fill:rgb(38,50,56);fill-rule:nonzero;"/>
                                <path d="M618.811,372.594C618.811,372.594 574.703,349.816 566.115,349.167C557.526,348.518 549.318,353.169 547.677,370.952C546.035,388.736 549.318,434.47 549.318,434.47L573.111,434.879L576.06,381.895C576.06,381.895 612.909,408.812 614.003,408.538C615.097,408.265 629.481,407.614 629.481,407.614L618.811,372.594Z" style="fill:white;fill-opacity:0.3;fill-rule:nonzero;"/>
                                <path d="M574.708,406.673C574.708,406.673 555.27,413.481 555.063,429.512C554.856,445.543 571.999,442.492 571.999,442.492L574.708,406.673Z" style="fill-opacity:0.4;fill-rule:nonzero;"/>
                            </g>
                            <g>
                                <g>
                                    <path d="M635.694,448.44L631.321,432.542C646.606,430.888 656.818,434.651 663.924,431.297L670.323,436.623L666.097,444.555C666.097,444.555 654.829,448.383 635.694,448.44Z" style="fill:rgb(233,179,118);fill-rule:nonzero;"/>
                                    <g>
                                        <g>
                                            <path d="M656.21,448.553L654.511,442.549C658.669,438.173 656.896,436.519 652.452,434.495C651.757,432.812 653.622,431.778 654.119,431.484L665.068,424.861C665.98,424.297 667.176,424.579 667.74,425.49C667.84,425.652 667.916,425.828 667.965,426.012C669.465,431.314 670.174,433.823 672.041,440.422L677.751,460.605C679.307,466.106 674.085,468.815 672.931,466.694C667.796,457.14 662.756,450.772 658.9,448.461C658.216,448.024 657.997,448.733 656.21,448.553Z" style="fill:rgb(51,94,234);fill-rule:nonzero;"/>
                                            <path d="M660.437,450.881C660.313,450.881 660.206,450.791 660.188,450.666C659.958,449.025 660.482,447.312 661.591,446.081C661.683,445.979 661.842,445.971 661.943,446.063C662.046,446.154 662.055,446.313 661.962,446.415C660.951,447.537 660.474,449.101 660.685,450.596C660.703,450.732 660.608,450.859 660.472,450.879C660.46,450.88 660.448,450.881 660.437,450.881L660.437,450.881Z" style="fill:rgb(38,50,56);fill-rule:nonzero;"/>
                                            <path d="M663.247,453.017C663.124,453.017 663.018,452.927 663,452.802C662.768,451.161 663.291,449.447 664.4,448.217C664.492,448.115 664.65,448.106 664.753,448.198C664.855,448.29 664.864,448.448 664.771,448.551C663.761,449.674 663.283,451.236 663.494,452.731C663.514,452.868 663.419,452.995 663.282,453.014C663.271,453.016 663.259,453.017 663.247,453.017L663.247,453.017Z" style="fill:rgb(38,50,56);fill-rule:nonzero;"/>
                                            <path d="M665.919,455.907C665.796,455.907 665.688,455.817 665.671,455.692C665.44,454.052 665.965,452.338 667.073,451.106C667.165,451.004 667.323,450.996 667.426,451.088C667.528,451.18 667.537,451.338 667.444,451.44C666.434,452.563 665.956,454.127 666.167,455.622C666.186,455.759 666.091,455.886 665.954,455.905C665.942,455.906 665.931,455.907 665.919,455.907L665.919,455.907Z" style="fill:rgb(38,50,56);fill-rule:nonzero;"/>
                                        </g>
                                        <path d="M667.74,425.49C667.84,425.652 667.916,425.828 667.965,426.012C669.465,431.314 670.174,433.823 672.041,440.422L677.751,460.605C678.593,463.582 677.448,465.731 676.039,466.75C675.808,465.91 664.773,425.716 664.445,425.238L665.267,424.764C666.148,424.35 667.215,424.643 667.74,425.49Z" style="fill:white;fill-opacity:0.7;fill-rule:nonzero;"/>
                                    </g>
                                </g>
                                <path d="M667.151,381.277L669.065,390.891C669.065,390.891 673.974,409.961 667.094,419.539C660.52,428.69 650.821,430.322 650.821,430.322L652.815,448.713L650.821,449.955C650.821,449.955 638.133,449.955 612.161,448.769C587.489,447.642 566.281,446.464 561.904,438.803C557.526,431.143 556.515,427.423 563.674,418.284C570.143,410.025 619.4,397.86 621.114,397.367L620.426,393.17L619.627,390.198L667.151,381.277Z" style="fill:rgb(38,50,56);fill-rule:nonzero;"/>
                                <path d="M667.151,381.277L669.065,390.891C669.065,390.891 673.974,409.961 667.094,419.539C660.52,428.69 650.821,430.322 650.821,430.322L652.815,448.713L650.821,449.955C650.821,449.955 638.133,449.955 612.161,448.769C587.489,447.642 566.281,446.464 561.904,438.803C557.526,431.143 556.515,427.423 563.674,418.284C570.143,410.025 619.4,397.86 621.114,397.367L620.426,393.17L619.627,390.198L667.151,381.277Z" style="fill:white;fill-opacity:0.3;fill-rule:nonzero;"/>
                                <path d="M650.821,430.322C649.307,430.717 595.801,428.991 595.801,428.991C595.801,428.991 611.616,431.704 623.311,432.69C635.006,433.676 650.821,430.322 650.821,430.322Z" style="fill-opacity:0.4;fill-rule:nonzero;"/>
                                <path d="M621.114,397.367L651.925,391.994C651.925,391.994 629.716,391.633 621.114,397.367Z" style="fill-opacity:0.4;fill-rule:nonzero;"/>
                            </g>
                            <g>
                                <path d="M542.568,375.551C542.568,375.551 539.997,371.595 536.172,370.829C532.347,370.063 529.496,368.433 526.613,368.06C523.73,367.687 526.345,370.612 528.052,371.887C529.758,373.161 531.68,374.623 530.515,375.749C529.351,376.876 515.842,380.303 514.405,382.049C512.968,383.795 515.327,383.924 515.327,383.924C515.327,383.924 512.068,384.845 512.081,386.235C512.085,386.596 512.678,387.431 514.229,387.244C517.718,386.824 524.994,385.565 524.994,385.565C524.575,385.628 515.705,387.824 514.419,388.326C512.739,388.982 512.281,390.149 512.694,391.11C513.28,392.479 524.371,390.132 524.908,390.36C524.908,390.36 518.478,391.498 517.863,393.319C517.248,395.139 521.335,394.644 524.856,393.523C528.083,392.495 534.684,391.324 537.863,389.96C541.781,388.281 544.034,386.273 544.119,382.276C544.204,378.28 542.568,375.551 542.568,375.551Z" style="fill:rgb(233,179,118);fill-rule:nonzero;"/>
                                <path d="M538.341,375.465L548.207,371.519L551.615,382.191L540.045,386.317L538.341,375.465Z" style="fill:rgb(233,179,118);fill-rule:nonzero;"/>
                            </g>
                            <g>
                                <g>
                                    <g>
                                        <g>
                                            <path d="M609.908,301.653C609.908,301.653 607.229,295.601 607.797,283.622C607.794,283.61 607.141,283.489 607.138,283.477C607.21,281.804 607.341,280.242 607.49,278.879C607.491,278.84 607.488,278.829 607.488,278.829L594.43,291.965C595.647,295.461 596.017,302.691 595.95,305.797C595.95,305.797 595.281,311.555 602.379,310.101C607.566,309.039 609.908,301.653 609.908,301.653Z" style="fill:rgb(233,179,118);fill-rule:nonzero;"/>
                                            <path d="M595.372,297.064L603.716,292.966C603.571,295.901 601.922,299.732 595.848,301.466C595.848,301.466 595.726,298.25 595.372,297.064Z" style="fill-opacity:0.2;fill-rule:nonzero;"/>
                                        </g>
                                        <g>
                                            <path d="M605.826,271.356C607.116,281.318 608.045,286.91 604.027,292.877C597.983,301.853 585.248,299.744 580.995,290.34C577.167,281.876 575.699,267.007 584.619,261.322C593.408,255.722 604.535,261.394 605.826,271.356Z" style="fill:rgb(233,179,118);fill-rule:nonzero;"/>
                                            <path d="M601.989,257.342C597.377,251.943 588.789,256.671 585.525,260.174C585.037,260.698 593.87,263.193 593.347,263.109L596.138,265.423C596.497,265.267 597.242,268.691 597.872,271.657C598.45,274.381 599.75,276.889 601.65,278.926C603.241,280.632 605.373,282.676 607.767,284.335C610.882,281.996 609.93,275.975 610.328,272.203C610.922,266.585 610.791,256.066 601.989,257.342Z" style="fill:rgb(38,50,56);fill-rule:nonzero;"/>
                                            <path d="M611.294,278.815C610.995,281.501 609.476,283.789 607.709,285.135C605.052,287.16 603.339,284.159 603.02,281.003C602.733,278.163 602.893,274.605 606.068,273.82C609.197,273.046 611.636,275.743 611.294,278.815Z" style="fill:rgb(233,179,118);fill-rule:nonzero;"/>
                                            <path d="M592.281,276.912C592.474,277.919 592.096,278.834 591.435,278.954C590.775,279.075 590.081,278.356 589.887,277.348C589.693,276.34 590.072,275.426 590.732,275.306C591.393,275.185 592.086,275.904 592.281,276.912Z" style="fill:rgb(38,50,56);fill-rule:nonzero;"/>
                                            <path d="M582.437,279.011C582.631,280.018 582.253,280.933 581.592,281.053C580.931,281.174 580.238,280.455 580.044,279.447C579.85,278.44 580.228,277.525 580.889,277.405C581.55,277.284 582.243,278.003 582.437,279.011Z" style="fill:rgb(38,50,56);fill-rule:nonzero;"/>
                                            <path d="M585.544,277.833C585.544,277.833 583.319,283.453 582.689,285.689C584.335,286.686 586.638,285.636 586.638,285.636L585.544,277.833Z" style="fill:rgb(213,135,69);fill-rule:nonzero;"/>
                                            <path d="M593.829,271.689C593.689,271.78 593.504,271.796 593.343,271.714C591.428,270.735 589.877,271.587 589.861,271.595C589.63,271.725 589.335,271.645 589.203,271.416C589.071,271.186 589.152,270.894 589.381,270.764C589.463,270.718 591.406,269.65 593.782,270.865C594.019,270.986 594.113,271.274 593.992,271.509C593.953,271.585 593.896,271.645 593.829,271.689Z" style="fill:rgb(38,50,56);fill-rule:nonzero;"/>
                                            <path d="M590.559,288.586C590.381,288.586 590.223,288.46 590.189,288.279C590.152,288.075 590.287,287.88 590.49,287.842C591.824,287.597 592.883,286.798 594.03,285.173C594.151,285.003 594.386,284.964 594.553,285.082C594.723,285.202 594.763,285.436 594.644,285.604C593.747,286.875 592.568,288.222 590.627,288.58C590.604,288.584 590.581,288.586 590.559,288.586Z" style="fill:rgb(38,50,56);fill-rule:nonzero;"/>
                                        </g>
                                        <path d="M604.594,280.59C604.464,280.59 604.354,280.49 604.345,280.359C604.273,279.448 604.443,278.53 604.836,277.704C605.103,277.146 605.59,276.401 606.4,276.028C607.2,275.663 608.144,275.792 608.698,276.349C608.796,276.446 608.796,276.604 608.698,276.702C608.6,276.801 608.441,276.799 608.345,276.702C607.941,276.298 607.215,276.204 606.609,276.482C605.935,276.793 605.518,277.436 605.287,277.919C604.933,278.666 604.778,279.496 604.843,280.32C604.854,280.458 604.751,280.578 604.613,280.589L604.594,280.59L604.594,280.59Z" style="fill-opacity:0.2;fill-rule:nonzero;"/>
                                    </g>
                                    <path d="M577.258,275.598C577.167,275.596 577.075,275.568 576.995,275.511C576.776,275.359 576.72,275.059 576.869,274.842C578.371,272.66 580.578,272.724 580.677,272.714C580.942,272.723 581.152,272.945 581.146,273.21C581.14,273.474 580.922,273.681 580.659,273.675C580.567,273.668 578.866,273.641 577.661,275.393C577.567,275.53 577.413,275.602 577.258,275.598Z" style="fill:rgb(38,50,56);fill-rule:nonzero;"/>
                                </g>
                                <path d="M601.989,257.342C601.989,257.342 595.857,249.764 585.249,252.264C576.717,254.275 572.267,260.517 572.102,266.488C572.031,269.054 572.6,270.963 573.273,272.306C573.781,273.321 575.239,273.169 575.566,272.082C575.659,271.773 575.77,271.47 575.9,271.173C575.934,271.24 575.971,271.307 576.01,271.371C576.631,272.413 578.284,272.03 578.31,270.817C578.318,270.434 578.362,270.051 578.441,269.673L578.458,269.7C579.027,270.614 580.452,270.337 580.679,269.285C581.682,264.643 587.339,261.157 592.45,263.232L596.138,265.423C600.364,262.952 601.989,257.343 601.989,257.343Z" style="fill:rgb(38,50,56);fill-rule:nonzero;"/>
                            </g>
                            <path d="M617.908,390.479L617.326,394.38L600.122,399.559L604.087,402.1L621.114,397.367L621.816,389.787L617.908,390.479Z" style="fill-opacity:0.4;fill-rule:nonzero;"/>
                            <g>
                                <g>
                                    <path d="M630.762,302.878C623.037,297.925 609.423,300.28 609.423,300.28L584.452,315.518L601.527,355.654C601.527,355.654 608.653,372.724 612.497,384.092C613.449,386.909 615.271,390.837 618.22,390.452L665.649,381.877C667.967,381.458 669.431,379.146 668.803,376.876C664.225,360.338 637.681,307.315 630.762,302.878Z" style="fill:rgb(51,94,234);fill-rule:nonzero;"/>
                                    <path d="M635.22,325.202C635.22,325.202 627.619,339.51 614.275,351.985C608.885,357.023 605.143,364.287 605.143,364.287L601.797,355.74L635.22,325.202Z" style="fill-opacity:0.4;fill-rule:nonzero;"/>
                                </g>
                                <path d="M611.708,314.176L579.376,354.493L541.415,371.727L545.2,387.44C545.2,387.44 575.979,379.135 588.349,371.426C600.719,363.716 621.114,342.16 621.114,342.16C621.114,342.16 638.9,327.885 638.051,316.338C637.203,304.79 620.273,302.093 611.708,314.176Z" style="fill:rgb(51,94,234);fill-rule:nonzero;"/>
                                <path d="M594.156,309.596C594.156,309.596 595.357,303.437 595.939,303.685C596.521,303.933 602.301,307.403 602.301,307.403L608.765,297.719L612.645,300.286L603.716,318.799L594.156,309.596Z" style="fill:rgb(51,94,234);fill-rule:nonzero;"/>
                                <path d="M591.317,335.436L583.861,325.202L589.885,341.227L592.818,338.107L613.406,312.082L591.317,335.436Z" style="fill-opacity:0.4;fill-rule:nonzero;"/>
                                <path d="M594.156,309.596C594.482,309.713 599.836,313.323 599.544,313.382C599.251,313.441 601.797,309.064 601.797,309.064L607.473,311.223L612.132,299.946L607.546,312.936L602.169,310.337L599.544,315.097L594.156,309.596Z" style="fill-opacity:0.4;fill-rule:nonzero;"/>
                            </g>
                        </g>
                    </g>
                    <g id="freepik--Character_1--inject-220">
                        <g>
                            <g>
                                <g>
                                    <path d="M225.722,232.948C225.777,231.944 225.663,230.939 225.308,229.985C224.098,226.738 220.646,224.806 219.169,221.67C216.991,217.044 220.061,211.281 224.563,208.856C228.055,206.975 229.883,206.622 232.901,206.795C235.918,206.622 237.746,206.975 241.238,208.856C245.74,211.281 248.81,217.044 246.632,221.67C245.155,224.806 241.704,226.738 240.494,229.985C240.138,230.939 240.024,231.944 240.079,232.948L286.004,232.948L286.004,186.655C287.869,185.946 289.911,185.77 291.764,186.46C295.011,187.67 296.944,191.122 300.079,192.598C304.705,194.776 310.468,191.707 312.893,187.205C314.774,183.713 315.127,181.884 314.955,178.867C315.127,175.85 314.774,174.021 312.893,170.529C310.468,166.028 304.705,162.958 300.079,165.136C296.944,166.612 295.011,170.064 291.764,171.274C289.911,171.964 287.869,171.788 286.004,171.079L286.004,129.911L183.323,129.452L183.323,232.489L225.722,232.948Z" style="fill:rgb(38,50,56);fill-rule:nonzero;"/>
                                    <g opacity="0.4">
                                        <path d="M225.722,232.948C225.777,231.944 225.663,230.939 225.308,229.985C224.098,226.738 220.646,224.806 219.169,221.67C216.991,217.044 220.061,211.281 224.563,208.856C228.055,206.975 229.883,206.622 232.901,206.795C235.918,206.622 237.746,206.975 241.238,208.856C245.74,211.281 248.81,217.044 246.632,221.67C245.155,224.806 241.704,226.738 240.494,229.985C240.138,230.939 240.024,231.944 240.079,232.948L286.004,232.948L286.004,186.655C287.869,185.946 289.911,185.77 291.764,186.46C295.011,187.67 296.944,191.122 300.079,192.598C304.705,194.776 310.468,191.707 312.893,187.205C314.774,183.713 315.127,181.884 314.955,178.867C315.127,175.85 314.774,174.021 312.893,170.529C310.468,166.028 304.705,162.958 300.079,165.136C296.944,166.612 295.011,170.064 291.764,171.274C289.911,171.964 287.869,171.788 286.004,171.079L286.004,129.911L183.323,129.452L183.323,232.489L225.722,232.948Z" style="fill-rule:nonzero;"/>
                                    </g>
                                </g>
                                <path d="M228.835,232.948C228.89,231.944 228.775,230.939 228.42,229.985C227.21,226.738 223.758,224.806 222.282,221.67C220.104,217.044 223.174,211.281 227.675,208.856C231.167,206.975 232.996,206.622 236.013,206.795C239.03,206.622 240.859,206.975 244.351,208.856C248.853,211.281 251.922,217.044 249.744,221.67C248.268,224.806 244.816,226.738 243.606,229.985C243.251,230.939 243.136,231.944 243.191,232.948L289.117,232.948L289.117,186.655C290.982,185.946 293.024,185.77 294.876,186.46C298.124,187.67 300.056,191.122 303.192,192.598C307.818,194.776 313.581,191.707 316.006,187.205C317.887,183.713 318.24,181.884 318.067,178.867C318.24,175.85 317.887,174.021 316.006,170.529C313.581,166.028 307.818,162.958 303.192,165.136C300.056,166.612 298.124,170.064 294.876,171.274C293.024,171.964 290.982,171.788 289.117,171.079L289.117,129.911L186.436,129.452L186.436,232.489L228.835,232.948Z" style="fill:rgb(38,50,56);fill-rule:nonzero;"/>
                            </g>
                            <g>
                                <path d="M160.565,177.796C160.565,177.796 153.067,204.36 157.862,208.984C162.658,213.609 179.442,210.526 178.586,210.183C177.73,209.841 182.868,177.894 183.21,179.053C183.553,180.211 160.565,177.796 160.565,177.796Z" style="fill:rgb(185,121,100);fill-rule:nonzero;"/>
                                <g>
                                    <path d="M169.893,417.648L169.87,440.693L180.57,441.525L184.331,419.876C179.437,416.341 174.621,415.498 169.893,417.648Z" style="fill:rgb(185,121,100);fill-rule:nonzero;"/>
                                    <path d="M169.774,438.288C168.722,441.33 168.653,453.774 168.653,453.774L191.334,453.8C192.681,449.3 190.596,446.228 187.951,445.821C186.814,445.647 185.476,444.383 184.502,443.279C184.495,443.135 183.108,436.223 182.251,435.892C182.251,435.892 181.66,435.173 181.157,435.891C180.654,436.608 180.217,438.944 180.217,438.944C176.677,434.185 173.207,434.82 169.774,438.288Z" style="fill:rgb(38,50,56);fill-rule:nonzero;"/>
                                    <path d="M169.499,441.901C172.062,440.878 174.812,441.267 177.047,442.967C177.438,443.264 177.809,442.569 177.421,442.274C175.04,440.463 172.032,440.038 169.302,441.127C168.858,441.304 169.05,442.08 169.499,441.901Z" style="fill:white;fill-rule:nonzero;"/>
                                    <path d="M191.266,451.98L191.265,451.98L168.918,451.954C168.713,451.954 168.547,451.774 168.547,451.552C168.548,451.331 168.714,451.151 168.918,451.151L168.918,451.151L191.266,451.177C191.471,451.177 191.636,451.357 191.636,451.579C191.636,451.8 191.47,451.98 191.266,451.98Z" style="fill:white;fill-rule:nonzero;"/>
                                </g>
                                <g>
                                    <path d="M216.055,414.643L216.029,440.652L226.325,441.501L231.39,417.156C227.256,413.829 222.456,412.199 216.055,414.643Z" style="fill:rgb(185,121,100);fill-rule:nonzero;"/>
                                    <path d="M215.563,438.342C214.51,441.383 214.442,453.827 214.442,453.827L240.498,453.858C241.846,449.358 239.03,446.69 236.385,446.282C235.248,446.109 231.265,444.436 230.29,443.332C230.284,443.189 228.897,436.277 228.04,435.946C228.04,435.946 227.449,435.227 226.946,435.945C226.443,436.662 226.006,438.998 226.006,438.998C222.466,434.238 218.996,434.874 215.563,438.342Z" style="fill:rgb(38,50,56);fill-rule:nonzero;"/>
                                    <path d="M215.288,441.955C217.851,440.932 220.601,441.321 222.836,443.02C223.227,443.318 223.598,442.622 223.21,442.327C220.829,440.516 217.82,440.091 215.091,441.181C214.647,441.358 214.839,442.134 215.288,441.955Z" style="fill:white;fill-rule:nonzero;"/>
                                    <path d="M240.5,452.038L240.5,452.038L214.706,452.007C214.502,452.007 214.336,451.827 214.336,451.606C214.337,451.384 214.502,451.205 214.707,451.205L214.707,451.205L240.501,451.235C240.706,451.235 240.871,451.415 240.871,451.637C240.871,451.858 240.705,452.038 240.5,452.038Z" style="fill:white;fill-rule:nonzero;"/>
                                </g>
                                <g>
                                    <path d="M165.456,429.005L188.258,430.219C193.373,413.64 198.43,354.193 198.952,336.346C199.577,315.022 207.212,261.502 200.461,250.365C193.71,239.228 163.172,248.098 163.172,248.098C163.172,248.098 166.977,313.265 165.456,334.048C164.138,352.061 162.098,405.009 165.456,429.005Z" style="fill:rgb(38,50,56);fill-rule:nonzero;"/>
                                    <path d="M190.719,424.212L189.237,431.83L164.527,431.027L163.621,423.713L190.719,424.212Z" style="fill:rgb(51,94,234);fill-rule:nonzero;"/>
                                    <path d="M210.995,429.005L233.6,430.219C236.353,411.865 247.409,345.027 246.5,332.223C245.391,316.585 232.299,248.891 227.43,243.672C222.561,238.452 186.917,251.981 186.917,251.981C186.917,251.981 201.566,310.193 213.116,335.369C215.516,340.599 209.139,406.683 210.995,429.005Z" style="fill:rgb(38,50,56);fill-rule:nonzero;"/>
                                    <path d="M236.185,424.783L235.032,431.83L209.91,430.219L209.405,422.842L236.185,424.783Z" style="fill:rgb(51,94,234);fill-rule:nonzero;"/>
                                    <path d="M201.178,303.302L194.541,281.117L182.763,277.273L191.97,284.412L199.375,324.85L201.178,303.302Z" style="fill-opacity:0.3;fill-rule:nonzero;"/>
                                </g>
                                <g>
                                    <g>
                                        <path d="M213.88,106.805C213.88,107.762 214.299,108.484 214.904,108.585C215.508,108.686 216.063,107.88 216.113,106.906C216.163,105.932 215.71,105.226 215.105,105.126C214.501,105.025 213.997,105.881 213.88,106.805Z" style="fill:rgb(38,50,56);fill-rule:nonzero;"/>
                                        <path d="M214.266,106.671C214.601,109.756 215.364,112.779 216.533,115.655C215.019,116.211 213.337,116.076 211.932,115.285L214.266,106.671Z" style="fill:rgb(162,78,63);fill-rule:nonzero;"/>
                                        <path d="M212.15,103.732C212.026,103.744 211.902,103.715 211.797,103.648C211.579,103.433 211.577,103.082 211.792,102.864L211.797,102.859C212.918,101.463 214.646,100.699 216.432,100.81C216.728,100.836 216.946,101.097 216.92,101.393L216.919,101.398C216.868,101.696 216.599,101.906 216.298,101.885C214.883,101.82 213.524,102.446 212.654,103.564C212.527,103.705 212.336,103.768 212.15,103.732Z" style="fill:rgb(38,50,56);fill-rule:nonzero;"/>
                                    </g>
                                    <g>
                                        <path d="M214.284,119.516C214.158,120.027 214.003,120.53 213.819,121.024C212.792,123.843 210.923,126.29 208.457,128.046C207.836,128.494 207.181,128.892 206.497,129.238C201.125,132.063 194.496,131.027 190.28,126.703C184.852,121.316 184.994,115.092 184.375,104.56C184.212,102.296 184.587,100.026 185.471,97.93C188.58,90.574 197.166,87.089 204.648,90.146L204.654,90.148C215.121,94.356 216.565,110.022 214.284,119.516Z" style="fill:rgb(185,121,100);fill-rule:nonzero;"/>
                                        <path d="M208.418,128.046C207.798,128.494 207.143,128.892 206.458,129.238C202.823,131.144 198.506,131.33 194.714,129.745C195.199,128.479 195.845,127.278 196.635,126.17C200.664,125.673 204.754,126.325 208.418,128.046Z" style="fill-opacity:0.2;fill-rule:nonzero;"/>
                                        <path d="M186.85,141.71C192.136,146.425 205.066,144.688 205.066,144.688C205.066,144.688 213.136,142.508 211.435,140.037C206.69,139.264 204.383,137.083 203.429,134.282C202.914,132.552 202.752,130.738 202.952,128.946C203.028,127.947 203.161,126.952 203.352,125.967L187.366,114.332C189.454,122.013 192.02,136.146 186.85,141.71Z" style="fill:rgb(185,121,100);fill-rule:nonzero;"/>
                                        <path d="M208.418,109.934L210.725,110.783L209.578,106.144C209.578,106.144 212.956,101.074 209.578,96.676C209.578,96.676 218.912,93.887 213.639,89.071C211.679,87.271 209.243,89.071 202.797,86.32C199.304,84.812 188.371,84.698 187.83,89.071C187.83,89.071 179.953,89.071 179.102,102.253C178.599,110.071 181.655,117.706 187.443,123.09C187.443,123.09 196.957,125.296 201.624,121.544C206.291,117.792 208.418,109.934 208.418,109.934Z" style="fill:rgb(38,50,56);fill-rule:nonzero;"/>
                                        <path d="M202.333,110.681C202.741,112.688 204.048,114.407 205.891,115.358C208.07,116.271 209.514,113.254 209.191,110.086C208.895,107.272 207.412,103.317 205.079,103.849C202.746,104.382 201.572,107.842 202.333,110.681Z" style="fill:rgb(185,121,100);fill-rule:nonzero;"/>
                                    </g>
                                </g>
                                <g>
                                    <path d="M170.595,139.176C170.595,139.176 166.881,140.305 165.033,140.982C161.182,142.393 158.64,146.681 157.246,150.891C153.84,161.178 148.335,185.533 148.335,185.533L168.308,189.73L178.963,166.784L170.595,139.176Z" style="fill:rgb(51,94,234);fill-rule:nonzero;"/>
                                    <path d="M170.595,139.176C170.595,139.176 165.25,140.171 162.437,142.495C160.295,144.265 158.59,146.83 157.246,150.891C153.84,161.178 148.335,185.533 148.335,185.533L168.308,189.73L178.963,166.784L170.595,139.176Z" style="fill:white;fill-opacity:0.5;fill-rule:nonzero;"/>
                                    <path d="M218.967,140.357C213.076,139.722 194.955,135.628 170.595,139.176L164.895,229.247C164.895,229.247 164.163,243.027 162.005,254.852C186.761,265.482 216.047,262.442 232.607,253.506C232.415,253.882 231.873,244.053 231.024,229.656C229.527,204.286 227.077,164.729 223.917,141.827C223.831,141.262 219.554,140.42 218.967,140.357Z" style="fill:rgb(51,94,234);fill-rule:nonzero;"/>
                                    <g opacity="0.5">
                                        <path d="M218.967,140.357C213.076,139.722 194.955,135.628 170.595,139.176L164.895,229.247C164.895,229.247 164.163,243.027 162.005,254.852C186.761,265.482 216.047,262.442 232.607,253.506C232.415,253.882 231.873,244.053 231.024,229.656C229.527,204.286 227.077,164.729 223.917,141.827C223.831,141.262 219.554,140.42 218.967,140.357Z" style="fill:white;fill-rule:nonzero;"/>
                                    </g>
                                    <g>
                                        <path d="M186.582,138.239C187.286,136.146 188.266,134.672 189.522,133.82L203.087,134.865L209.448,139.059L186.582,138.239Z" style="fill:rgb(51,94,234);fill-rule:nonzero;"/>
                                        <path d="M186.582,138.239C187.286,136.146 188.266,134.672 189.522,133.82L203.087,134.865L209.448,139.058L186.582,138.239Z" style="fill:white;fill-opacity:0.5;fill-rule:nonzero;"/>
                                    </g>
                                    <path d="M218.336,168.391C220.508,178.536 223.632,198.423 229.526,205.354L228.125,185.227L218.336,168.391Z" style="fill-opacity:0.2;fill-rule:nonzero;"/>
                                    <path d="M167.038,189.451L167.563,163.438L162.103,188.214L167.038,189.451Z" style="fill-opacity:0.2;fill-rule:nonzero;"/>
                                </g>
                                <g>
                                    <path d="M228.736,176.415C227.974,176.708 242.664,209.76 248.646,210.055C254.627,210.35 282.708,197.571 282.708,197.571L276.408,190.052L255.183,191.269L244.358,168.225L228.735,176.415Z" style="fill:rgb(185,121,100);fill-rule:nonzero;"/>
                                    <g>
                                        <path d="M221.349,141.491C213.73,146.523 209.954,157.915 230.379,193.092L252.437,179.622C247.975,171.39 243.247,165.405 237.994,153.482C227.404,138.237 221.349,141.491 221.349,141.491Z" style="fill:rgb(51,94,234);fill-rule:nonzero;"/>
                                        <path d="M221.349,141.491C213.73,146.523 209.954,157.915 230.379,193.092L252.437,179.622C247.975,171.39 243.247,165.405 237.994,153.482C227.404,138.237 221.349,141.491 221.349,141.491Z" style="fill:white;fill-opacity:0.5;fill-rule:nonzero;"/>
                                    </g>
                                    <path d="M292.6,189.829C292.6,187.9 292.006,185.803 290.968,185.739C289.929,185.675 284.382,185.732 284.382,185.732C284.382,184.176 287.302,182.473 286.35,181.409C285.109,180.022 277.92,185.948 277.467,187.158C276.577,189.532 276.131,190.125 276.131,190.125L279.931,198.846C279.931,198.846 286.962,203.478 288.594,201.846C290.226,200.214 290.078,198.47 290.078,198.47C290.078,198.47 291.71,196.208 291.561,194.725C291.413,193.241 292.6,191.757 292.6,189.829Z" style="fill:rgb(185,121,100);fill-rule:nonzero;"/>
                                </g>
                            </g>
                        </g>
                    </g>
                </g>
            </g>
        </g>
        <g id="Sponsors">
        </g>
    </g>
</svg>
