<?xml version="1.0" encoding="UTF-8" standalone="no"?>
<!DOCTYPE svg PUBLIC "-//W3C//DTD SVG 1.1//EN" "http://www.w3.org/Graphics/SVG/1.1/DTD/svg11.dtd">
<svg width="100%" height="100%" viewBox="0 0 2000 2000" version="1.1" xmlns="http://www.w3.org/2000/svg" xmlns:xlink="http://www.w3.org/1999/xlink" xml:space="preserve" xmlns:serif="http://www.serif.com/" style="fill-rule:evenodd;clip-rule:evenodd;stroke-linejoin:round;stroke-miterlimit:2;">
    <g transform="matrix(1,0,0,1,-37282.6,-60856)">
        <g id="Sponsors">
        </g>
        <g id="base64" transform="matrix(0.998004,0,0,0.998004,13027.1,121.469)">
            <rect x="24304" y="60856" width="2004" height="2004" style="fill:none;"/>
            <g id="cached_black_24dp.svg" transform="matrix(43.3365,0,0,43.3365,25306,61858)">
                <g transform="matrix(1,0,0,1,-12,-12)">
                    <rect x="0" y="0" width="24" height="24" style="fill:none;fill-rule:nonzero;"/>
                    <g transform="matrix(0.707107,0.707107,-0.707107,0.707107,12,-4.97056)">
                        <path d="M19.707,8.707L15.707,12.707L18.707,12.707C18.707,16.017 16.017,18.707 12.707,18.707C11.697,18.707 10.737,18.457 9.907,18.007L8.447,19.467C9.677,20.247 11.137,20.707 12.707,20.707C17.127,20.707 20.707,17.127 20.707,12.707L23.707,12.707L19.707,8.707ZM5.293,11.293C5.293,7.983 7.983,5.293 11.293,5.293C12.303,5.293 13.263,5.543 14.093,5.993L15.553,4.533C14.323,3.753 12.863,3.293 11.293,3.293C6.873,3.293 3.293,6.873 3.293,11.293L0.293,11.293L4.293,15.293L8.293,11.293L5.293,11.293Z" style="fill:rgb(51,94,234);fill-rule:nonzero;"/>
                    </g>
                </g>
            </g>
            <g transform="matrix(0.618527,0,0,0.618527,19471.2,54456.6)">
                <path d="M9060.17,11917.2C9077.57,11917.2 9091.19,11924 9101.03,11937.6C9110.88,11951.2 9115.8,11969.8 9115.8,11993.4C9115.8,12017.8 9110.72,12036.6 9100.57,12050C9090.42,12063.3 9076.6,12070 9059.11,12070C9041.8,12070 9028.22,12063.7 9018.37,12051.2L9015.61,12051.2L9008.88,12067.4L8978.17,12067.4L8978.17,11862.2L9018.37,11862.2L9018.37,11910C9018.37,11916 9017.85,11925.7 9016.79,11939.1L9018.37,11939.1C9027.78,11924.5 9041.71,11917.2 9060.17,11917.2ZM9047.25,11949.4C9037.32,11949.4 9030.06,11952.4 9025.49,11958.6C9020.92,11964.7 9018.55,11974.7 9018.37,11988.8L9018.37,11993.2C9018.37,12009 9020.73,12020.3 9025.43,12027.2C9030.13,12034 9037.58,12037.5 9047.77,12037.5C9056.03,12037.5 9062.6,12033.7 9067.48,12026.1C9072.36,12018.4 9074.8,12007.4 9074.8,11992.9C9074.8,11978.4 9072.34,11967.5 9067.42,11960.3C9062.5,11953 9055.77,11949.4 9047.25,11949.4Z" style="fill:rgb(55,184,135);fill-rule:nonzero;"/>
                <path d="M9242.62,12067.4L9234.85,12047.3L9233.79,12047.3C9227.02,12055.9 9220.06,12061.8 9212.9,12065.1C9205.73,12068.4 9196.39,12070 9184.88,12070C9170.73,12070 9159.59,12066 9151.46,12057.9C9143.33,12049.8 9139.27,12038.3 9139.27,12023.3C9139.27,12007.7 9144.74,11996.2 9155.68,11988.7C9166.62,11981.3 9183.12,11977.2 9205.18,11976.4C9205.18,11976.4 9226.5,11976.8 9230.76,11975.6C9232.83,11975 9230.76,11969.2 9230.76,11969.2C9230.76,11954.2 9223.11,11946.8 9207.82,11946.8C9196.04,11946.8 9182.2,11950.3 9166.29,11957.4L9152.98,11930.3C9169.94,11921.4 9188.75,11917 9209.4,11917C9229.18,11917 9244.34,11921.3 9254.89,11929.9C9265.43,11938.5 9270.7,11951.6 9270.7,11969.2L9270.7,12067.4L9242.62,12067.4ZM9230.76,11999.1L9215.2,11999.6C9203.51,12000 9194.81,12002.1 9189.1,12005.9C9183.39,12009.8 9180.53,12015.7 9180.53,12023.6C9180.53,12035 9187.03,12040.6 9200.04,12040.6C9209.36,12040.6 9216.81,12037.9 9222.39,12032.6C9227.97,12027.2 9230.76,12020.1 9230.76,12011.2L9230.76,11999.1Z" style="fill:rgb(55,184,135);fill-rule:nonzero;"/>
                <path d="M9414.93,12023.6C9414.93,12038.7 9409.68,12050.2 9399.18,12058.2C9388.67,12066.1 9372.96,12070 9352.05,12070C9341.32,12070 9332.18,12069.3 9324.62,12067.8C9317.07,12066.4 9309.99,12064.3 9303.4,12061.4L9303.4,12028.2C9310.87,12031.7 9319.29,12034.7 9328.65,12037.1C9338.01,12039.4 9346.25,12040.6 9353.36,12040.6C9367.95,12040.6 9375.25,12036.4 9375.25,12028C9375.25,12024.8 9374.28,12022.2 9372.35,12020.2C9370.42,12018.3 9367.08,12016 9362.33,12013.5C9357.58,12011 9351.26,12008.1 9343.34,12004.8C9332.01,12000 9323.68,11995.6 9318.36,11991.6C9313.05,11987.5 9309.18,11982.9 9306.76,11977.7C9304.34,11972.4 9303.14,11966 9303.14,11958.4C9303.14,11945.3 9308.21,11935.1 9318.36,11928C9328.51,11920.8 9342.91,11917.2 9361.54,11917.2C9379.29,11917.2 9396.56,11921.1 9413.35,11928.8L9401.22,11957.8C9393.84,11954.7 9386.94,11952.1 9380.52,11950C9374.11,11948 9367.56,11947 9360.88,11947C9349.01,11947 9343.08,11950.2 9343.08,11956.6C9343.08,11960.2 9344.99,11963.4 9348.82,11966C9352.64,11968.6 9361.01,11972.5 9373.93,11977.7C9385.44,11982.4 9393.88,11986.7 9399.24,11990.8C9404.6,11994.8 9408.56,11999.5 9411.11,12004.8C9413.66,12010 9414.93,12016.3 9414.93,12023.6Z" style="fill:rgb(55,184,135);fill-rule:nonzero;"/>
                <path d="M9507.35,11945.8C9498.82,11945.8 9492.14,11948.5 9487.31,11953.9C9482.47,11959.3 9479.71,11967 9479,11976.9L9535.43,11976.9C9535.25,11967 9532.66,11959.3 9527.65,11953.9C9522.64,11948.5 9515.87,11945.8 9507.35,11945.8ZM9513.02,12070C9489.29,12070 9470.74,12063.5 9457.38,12050.4C9444.02,12037.3 9437.34,12018.7 9437.34,11994.7C9437.34,11970 9443.52,11951 9455.87,11937.5C9468.21,11924 9485.29,11917.2 9507.08,11917.2C9527.91,11917.2 9544.13,11923.2 9555.73,11935C9567.33,11946.9 9573.13,11963.3 9573.13,11984.2L9573.13,12003.7L9478.08,12003.7C9478.52,12015.1 9481.9,12024.1 9488.23,12030.5C9494.56,12036.9 9503.44,12040.1 9514.86,12040.1C9523.74,12040.1 9532.13,12039.2 9540.04,12037.3C9547.95,12035.5 9556.21,12032.5 9564.83,12028.5L9564.83,12059.6C9557.8,12063.1 9550.28,12065.7 9542.28,12067.4C9534.28,12069.2 9524.53,12070 9513.02,12070Z" style="fill:rgb(55,184,135);fill-rule:nonzero;"/>
                <path d="M9594.23,11985.5C9594.23,11947.4 9602.29,11919 9618.42,11900.3C9634.55,11881.7 9658.69,11872.4 9690.86,11872.4C9701.85,11872.4 9710.46,11873.1 9716.7,11874.4L9716.7,11906.9C9708.88,11905.2 9701.14,11904.3 9693.5,11904.3C9679.52,11904.3 9668.12,11906.4 9659.29,11910.6C9650.45,11914.8 9643.84,11921.1 9639.44,11929.4C9635.05,11937.6 9632.46,11949.3 9631.67,11964.6L9633.38,11964.6C9642.08,11949.6 9656.01,11942.1 9675.17,11942.1C9692.4,11942.1 9705.89,11947.5 9715.65,11958.4C9725.4,11969.2 9730.28,11984.1 9730.28,12003.2C9730.28,12023.7 9724.48,12040 9712.88,12052C9701.27,12064 9685.19,12070 9664.62,12070C9650.39,12070 9637.97,12066.7 9627.38,12060.1C9616.79,12053.5 9608.62,12043.9 9602.86,12031.3C9597.1,12018.6 9594.23,12003.4 9594.23,11985.5ZM9663.83,12037.5C9672.53,12037.5 9679.22,12034.5 9683.87,12028.7C9688.53,12022.8 9690.86,12014.5 9690.86,12003.7C9690.86,11994.3 9688.68,11986.9 9684.33,11981.5C9679.98,11976.1 9673.41,11973.4 9664.62,11973.4C9656.36,11973.4 9649.31,11976.1 9643.47,11981.4C9637.62,11986.8 9634.7,11993 9634.7,12000.1C9634.7,12010.6 9637.44,12019.4 9642.94,12026.6C9648.43,12033.9 9655.4,12037.5 9663.83,12037.5Z" style="fill:rgb(55,184,135);fill-rule:nonzero;"/>
                <path d="M9888.74,12027.4L9865.54,12027.4L9865.54,12067.4L9825.73,12067.4L9825.73,12027.4L9743.46,12027.4L9743.46,11999.1L9827.97,11874.6L9865.54,11874.6L9865.54,11995.8L9888.74,11995.8L9888.74,12027.4ZM9825.73,11995.8L9825.73,11963.1C9825.73,11957.7 9825.95,11949.7 9826.39,11939.4C9826.83,11929 9827.18,11923 9827.44,11921.3L9826.39,11921.3C9823.13,11928.5 9819.22,11935.5 9814.65,11942.4L9779.32,11995.8L9825.73,11995.8Z" style="fill:rgb(55,184,135);fill-rule:nonzero;"/>
            </g>
        </g>
    </g>
</svg>
