<?xml version="1.0" encoding="UTF-8" standalone="no"?>
<!DOCTYPE svg PUBLIC "-//W3C//DTD SVG 1.1//EN" "http://www.w3.org/Graphics/SVG/1.1/DTD/svg11.dtd">
<svg width="100%" height="100%" viewBox="0 0 2000 2000" version="1.1" xmlns="http://www.w3.org/2000/svg" xmlns:xlink="http://www.w3.org/1999/xlink" xml:space="preserve" xmlns:serif="http://www.serif.com/" style="fill-rule:evenodd;clip-rule:evenodd;stroke-linejoin:round;stroke-miterlimit:2;">
    <g transform="matrix(1,0,0,1,-31156,-60856)">
        <g id="Sponsors">
        </g>
        <g id="base64" transform="matrix(0.998004,0,0,0.998004,6900.51,121.469)">
            <rect x="24304" y="60856" width="2004" height="2004" style="fill:none;"/>
            <g id="cached_black_24dp.svg" transform="matrix(43.3365,0,0,43.3365,25306,61858)">
                <g transform="matrix(1,0,0,1,-12,-12)">
                    <rect x="0" y="0" width="24" height="24" style="fill:none;fill-rule:nonzero;"/>
                    <g transform="matrix(0.707107,0.707107,-0.707107,0.707107,12,-4.97056)">
                        <path d="M19.707,8.707L15.707,12.707L18.707,12.707C18.707,16.017 16.017,18.707 12.707,18.707C11.697,18.707 10.737,18.457 9.907,18.007L8.447,19.467C9.677,20.247 11.137,20.707 12.707,20.707C17.127,20.707 20.707,17.127 20.707,12.707L23.707,12.707L19.707,8.707ZM5.293,11.293C5.293,7.983 7.983,5.293 11.293,5.293C12.303,5.293 13.263,5.543 14.093,5.993L15.553,4.533C14.323,3.753 12.863,3.293 11.293,3.293C6.873,3.293 3.293,6.873 3.293,11.293L0.293,11.293L4.293,15.293L8.293,11.293L5.293,11.293Z" style="fill:rgb(51,94,234);fill-rule:nonzero;"/>
                    </g>
                </g>
            </g>
            <g transform="matrix(0.618527,0,0,0.618527,19471.2,54456.6)">
                <text x="8957.07px" y="12067.4px" style="font-family:'OpenSans-Bold', 'Open Sans', sans-serif;font-weight:700;font-size:269.996px;fill:rgb(55,184,135);">base64</text>
            </g>
        </g>
    </g>
</svg>
