<?xml version="1.0" encoding="UTF-8" standalone="no"?>
<!DOCTYPE svg PUBLIC "-//W3C//DTD SVG 1.1//EN" "http://www.w3.org/Graphics/SVG/1.1/DTD/svg11.dtd">
<svg width="100%" height="100%" viewBox="0 0 2000 2000" version="1.1" xmlns="http://www.w3.org/2000/svg" xmlns:xlink="http://www.w3.org/1999/xlink" xml:space="preserve" xmlns:serif="http://www.serif.com/" style="fill-rule:evenodd;clip-rule:evenodd;stroke-linejoin:round;stroke-miterlimit:2;">
    <g transform="matrix(1,0,0,1,-57665.6,-60871)">
        <g id="Sponsors">
        </g>
        <g id="hash" transform="matrix(0.998004,0,0,0.998004,33410.1,136.501)">
            <rect x="24304" y="60856" width="2004" height="2004" style="fill:none;"/>
            <g transform="matrix(1,0,0,1,0,-44.9538)">
                <g id="key_24dp_E8EAED.svg" transform="matrix(17.2916,0,0,17.2916,25877.5,62098.5)">
                    <g transform="matrix(1,0,0,1,-12,-12)">
                        <g>
                            <rect x="0" y="0" width="24" height="24" style="fill:none;"/>
                        </g>
                        <g>
                            <path d="M21,10L12.65,10C11.83,7.67 9.61,6 7,6C3.69,6 1,8.69 1,12C1,15.31 3.69,18 7,18C9.61,18 11.83,16.33 12.65,14L13,14L15,16L17,14L19,16L23,11.96L21,10ZM7,15C5.35,15 4,13.65 4,12C4,10.35 5.35,9 7,9C8.65,9 10,10.35 10,12C10,13.65 8.65,15 7,15Z" style="fill:rgb(55,184,135);fill-rule:nonzero;"/>
                        </g>
                    </g>
                </g>
                <path d="M25551.6,62131.6C25546.3,62132.7 25540.4,62133.2 25533.9,62133.2C25520.9,62133.2 25511.5,62129.9 25505.6,62123.4C25499.7,62116.9 25496.8,62107.1 25496.8,62094L25496.8,62036.9L25481.3,62036.9L25481.3,62023.2L25499.1,62012.4L25508.4,61987.3L25529.1,61987.3L25529.1,62012.6L25562.3,62012.6L25562.3,62036.9L25529.1,62036.9L25529.1,62094C25529.1,62098.6 25530.4,62102 25533,62104.2C25535.5,62106.4 25538.9,62107.5 25543.2,62107.5C25547.6,62107.5 25552.7,62106.7 25558.5,62105.2C25555.9,62113.8 25553.6,62122.6 25551.6,62131.6ZM25586.9,62038L25586.9,62012.6L25602.4,62012.6C25596.9,62020.8 25591.7,62029.3 25586.9,62038ZM25691.4,61921.4L25691.4,61869.8C25691.4,61861.3 25690,61854.9 25687.1,61850.6C25684.2,61846.3 25679.7,61844.2 25673.6,61844.2C25665.3,61844.2 25659.3,61847.2 25655.6,61853.3C25651.8,61859.4 25649.9,61869.4 25649.9,61883.3L25649.9,61939L25617.6,61939L25617.6,61820.5L25642.3,61820.5L25646.7,61835.7L25648.5,61835.7C25651.6,61830.2 25656.2,61826 25662.2,61822.9C25668.2,61819.8 25675.1,61818.3 25682.9,61818.3C25700.6,61818.3 25712.7,61824.1 25718.9,61835.7L25721.8,61835.7C25725,61830.2 25729.7,61825.9 25735.9,61822.9C25742,61819.8 25749,61818.3 25756.8,61818.3C25770.2,61818.3 25780.4,61821.7 25787.3,61828.6C25794.2,61835.5 25797.6,61846.6 25797.6,61861.8L25797.6,61870.9C25786.6,61874 25775.7,61877.6 25765.2,61881.7L25765.2,61869.8C25765.2,61861.3 25763.7,61854.9 25760.9,61850.6C25758,61846.3 25753.5,61844.2 25747.4,61844.2C25739.4,61844.2 25733.5,61847 25729.6,61852.6C25725.7,61858.3 25723.7,61867.3 25723.7,61879.6L25723.7,61901.2C25712.5,61907.4 25701.8,61914.1 25691.4,61921.4ZM25824.8,61864.4C25826.9,61852.2 25831.4,61842.3 25838.5,61834.6C25848.4,61823.7 25862.1,61818.3 25879.7,61818.3C25896.4,61818.3 25909.4,61823.1 25918.8,61832.6C25925.8,61839.8 25930.2,61849 25931.9,61860.3C25921.9,61859.2 25911.7,61858.4 25901.5,61858.1C25900.5,61854 25898.7,61850.5 25896.2,61847.8C25892.2,61843.5 25886.7,61841.3 25879.9,61841.3C25873,61841.3 25867.6,61843.5 25863.8,61847.8C25861,61850.9 25859.1,61854.8 25858,61859.6C25846.8,61860.7 25835.7,61862.3 25824.8,61864.4ZM25962.5,61865.2L25962.5,61844.8L25947.1,61844.8L25947.1,61831.1L25964.9,61820.3L25974.2,61795.3L25994.9,61795.3L25994.9,61820.5L26028.1,61820.5L26028.1,61844.8L25994.9,61844.8L25994.9,61873.6C25984.3,61870.3 25973.5,61867.5 25962.5,61865.2ZM26080.6,61913.8L26083.4,61913.8L26085,61916.2C26085,61916.4 26084.9,61916.5 26084.9,61916.6C26083.5,61915.7 26082.1,61914.7 26080.6,61913.8ZM25371.7,61799.1L25371.7,61820.5L25404.9,61820.5L25404.9,61844.8L25371.7,61844.8L25371.7,61901.9C25371.7,61906.5 25373,61909.9 25375.5,61912.1C25378.1,61914.3 25381.5,61915.4 25385.8,61915.4C25391.4,61915.4 25398.2,61914.2 25406.1,61911.7L25406.1,61935.8C25398.1,61939.4 25388.2,61941.2 25376.4,61941.2C25363.5,61941.2 25354.1,61937.9 25348.2,61931.4C25342.3,61924.8 25339.3,61915 25339.3,61901.9L25339.3,61844.8L25323.9,61844.8L25323.9,61831.1L25341.7,61820.3L25351,61795.3L25354,61795.3L25354,61628.5L25380.3,61628.5L25384.8,61643.8L25386.3,61643.8C25393.9,61632.1 25405.1,61626.3 25419.9,61626.3C25433.9,61626.3 25444.9,61631.7 25452.8,61642.5C25460.7,61653.3 25464.6,61668.3 25464.6,61687.5C25464.6,61700.2 25462.8,61711.2 25459.1,61720.5C25455.4,61729.8 25450.1,61736.9 25443.2,61741.8C25436.4,61746.7 25428.3,61749.1 25419.1,61749.1C25405.1,61749.1 25394.2,61744.1 25386.3,61734L25384.6,61734C25385.7,61743.8 25386.3,61749.6 25386.3,61751.1L25386.3,61799.1L25371.7,61799.1ZM25409.5,61652.1C25401.5,61652.1 25395.7,61654.6 25392,61659.5C25388.3,61664.4 25386.4,61672.5 25386.3,61683.8L25386.3,61687.3C25386.3,61700 25388.2,61709.1 25392,61714.7C25395.8,61720.2 25401.7,61722.9 25409.9,61722.9C25424.4,61722.9 25431.7,61711 25431.7,61687.1C25431.7,61675.4 25429.9,61666.7 25426.3,61660.9C25422.7,61655 25417.1,61652.1 25409.5,61652.1ZM24536.8,61747L24536.8,61592L24569.6,61592L24569.6,61719.9L24632.5,61719.9L24632.5,61747L24536.8,61747ZM24764.6,61687.5C24764.6,61706.8 24759.5,61721.9 24749.3,61732.8C24739.1,61743.7 24725,61749.1 24706.8,61749.1C24695.4,61749.1 24685.4,61746.6 24676.7,61741.6C24668,61736.7 24661.3,61729.5 24656.7,61720.2C24652,61710.8 24649.7,61700 24649.7,61687.5C24649.7,61668.2 24654.7,61653.1 24664.8,61642.4C24674.9,61631.6 24689.1,61626.3 24707.4,61626.3C24718.8,61626.3 24728.9,61628.7 24737.5,61633.7C24746.2,61638.6 24752.9,61645.7 24757.6,61655C24762.2,61664.2 24764.6,61675.1 24764.6,61687.5ZM24682.6,61687.5C24682.6,61699.3 24684.6,61708.1 24688.4,61714.1C24692.3,61720.1 24698.5,61723.1 24707.2,61723.1C24715.8,61723.1 24722,61720.2 24725.8,61714.2C24729.6,61708.2 24731.5,61699.3 24731.5,61687.5C24731.5,61675.8 24729.6,61667 24725.8,61661.1C24722,61655.3 24715.7,61652.3 24707,61652.3C24698.4,61652.3 24692.2,61655.2 24688.4,61661.1C24684.5,61666.9 24682.6,61675.7 24682.6,61687.5ZM24857.4,61626.3C24861.8,61626.3 24865.5,61626.6 24868.4,61627.2L24865.9,61657.5C24863.3,61656.8 24860.1,61656.5 24856.4,61656.5C24846.1,61656.5 24838,61659.1 24832.3,61664.4C24826.5,61669.7 24823.6,61677.1 24823.6,61686.7L24823.6,61747L24791.3,61747L24791.3,61628.5L24815.8,61628.5L24820.5,61648.4L24822.1,61648.4C24825.8,61641.8 24830.8,61636.4 24837,61632.3C24843.3,61628.3 24850.1,61626.3 24857.4,61626.3ZM24943.5,61749.1C24924.4,61749.1 24909.5,61743.8 24898.8,61733.3C24888,61722.8 24882.7,61707.9 24882.7,61688.6C24882.7,61668.7 24887.6,61653.4 24897.6,61642.5C24907.5,61631.7 24921.2,61626.3 24938.7,61626.3C24955.5,61626.3 24968.5,61631 24977.9,61640.6C24987.2,61650.1 24991.9,61663.3 24991.9,61680.1L24991.9,61695.8L24915.4,61695.8C24915.8,61705 24918.5,61712.2 24923.6,61717.3C24928.7,61722.5 24935.8,61725 24945,61725C24952.1,61725 24958.9,61724.3 24965.2,61722.8C24971.6,61721.3 24978.2,61719 24985.2,61715.7L24985.2,61740.7C24979.5,61743.6 24973.5,61745.7 24967,61747C24960.6,61748.4 24952.8,61749.1 24943.5,61749.1ZM24939,61649.3C24932.1,61649.3 24926.7,61651.4 24922.8,61655.8C24919,61660.1 24916.7,61666.3 24916.2,61674.3L24961.5,61674.3C24961.4,61666.3 24959.3,61660.1 24955.3,61655.8C24951.3,61651.4 24945.8,61649.3 24939,61649.3ZM25124.3,61747L25091.9,61747L25091.9,61677.8C25091.9,61669.2 25090.5,61662.8 25087.6,61658.5C25084.8,61654.3 25080.3,61652.1 25074.1,61652.1C25065.8,61652.1 25059.8,61655.2 25056.1,61661.2C25052.3,61667.3 25050.5,61677.3 25050.5,61691.2L25050.5,61747L25018.1,61747L25018.1,61628.5L25042.8,61628.5L25047.2,61643.6L25049,61643.6C25052.2,61638.2 25056.8,61633.9 25062.8,61630.9C25068.8,61627.8 25075.7,61626.3 25083.4,61626.3C25101.2,61626.3 25113.2,61632 25119.5,61643.6L25122.3,61643.6C25125.5,61638.1 25130.2,61633.8 25136.4,61630.8C25142.6,61627.8 25149.6,61626.3 25157.3,61626.3C25170.8,61626.3 25180.9,61629.7 25187.8,61636.6C25194.7,61643.5 25198.1,61654.5 25198.1,61669.7L25198.1,61747L25165.7,61747L25165.7,61677.8C25165.7,61669.2 25164.3,61662.8 25161.4,61658.5C25158.5,61654.3 25154,61652.1 25147.9,61652.1C25140,61652.1 25134.1,61654.9 25130.1,61660.6C25126.2,61666.2 25124.3,61675.2 25124.3,61687.5L25124.3,61747ZM25286.3,61597.8C25286.3,61587.3 25292.2,61582 25303.9,61582C25315.7,61582 25321.5,61587.3 25321.5,61597.8C25321.5,61602.9 25320.1,61606.8 25317.1,61609.6C25314.2,61612.3 25309.8,61613.7 25303.9,61613.7C25292.2,61613.7 25286.3,61608.4 25286.3,61597.8ZM25320,61747L25287.7,61747L25287.7,61628.5L25320,61628.5L25320,61747ZM25574,61711.8C25574,61724 25569.8,61733.2 25561.4,61739.6C25552.9,61745.9 25540.3,61749.1 25523.5,61749.1C25514.8,61749.1 25507.5,61748.5 25501.4,61747.4C25495.3,61746.2 25489.7,61744.5 25484.4,61742.2L25484.4,61715.5C25490.4,61718.3 25497.1,61720.7 25504.7,61722.6C25512.2,61724.5 25518.8,61725.5 25524.5,61725.5C25536.3,61725.5 25542.1,61722.1 25542.1,61715.3C25542.1,61712.8 25541.4,61710.7 25539.8,61709.1C25538.2,61707.5 25535.6,61705.7 25531.7,61703.7C25527.9,61701.7 25522.8,61699.3 25516.5,61696.6C25507.4,61692.8 25500.7,61689.3 25496.4,61686C25492.1,61682.8 25489,61679.1 25487.1,61674.9C25485.1,61670.7 25484.1,61665.5 25484.1,61659.3C25484.1,61648.8 25488.2,61640.7 25496.4,61634.9C25504.5,61629.1 25516.1,61626.3 25531.1,61626.3C25545.4,61626.3 25559.3,61629.4 25572.8,61635.6L25563,61658.9C25557.1,61656.4 25551.5,61654.3 25546.4,61652.6C25541.2,61651 25535.9,61650.2 25530.6,61650.2C25521,61650.2 25516.3,61652.8 25516.3,61657.9C25516.3,61660.8 25517.8,61663.4 25520.9,61665.5C25523.9,61667.6 25530.7,61670.7 25541.1,61674.9C25550.3,61678.7 25557.1,61682.2 25561.4,61685.4C25565.7,61688.7 25568.9,61692.4 25571,61696.6C25573,61700.9 25574,61705.9 25574,61711.8ZM25683.2,61747L25678.9,61731.8L25677.2,61731.8C25673.7,61737.3 25668.8,61741.6 25662.4,61744.6C25656.1,61747.6 25648.8,61749.1 25640.7,61749.1C25626.8,61749.1 25616.3,61745.4 25609.2,61737.9C25602.2,61730.5 25598.6,61719.7 25598.6,61705.8L25598.6,61628.5L25631,61628.5L25631,61697.7C25631,61706.2 25632.5,61712.7 25635.5,61716.9C25638.6,61721.2 25643.4,61723.4 25650,61723.4C25659.1,61723.4 25665.6,61720.3 25669.7,61714.3C25673.7,61708.2 25675.7,61698.2 25675.7,61684.2L25675.7,61628.5L25708,61628.5L25708,61747L25683.2,61747ZM25848.1,61747L25815.7,61747L25815.7,61677.8C25815.7,61669.2 25814.3,61662.8 25811.4,61658.5C25808.6,61654.3 25804.1,61652.1 25797.9,61652.1C25789.7,61652.1 25783.6,61655.2 25779.9,61661.2C25776.2,61667.3 25774.3,61677.3 25774.3,61691.2L25774.3,61747L25741.9,61747L25741.9,61628.5L25766.6,61628.5L25771,61643.6L25772.8,61643.6C25776,61638.2 25780.6,61633.9 25786.6,61630.9C25792.6,61627.8 25799.5,61626.3 25807.2,61626.3C25825,61626.3 25837,61632 25843.3,61643.6L25846.2,61643.6C25849.3,61638.1 25854,61633.8 25860.2,61630.8C25866.4,61627.8 25873.4,61626.3 25881.1,61626.3C25894.6,61626.3 25904.7,61629.7 25911.6,61636.6C25918.5,61643.5 25921.9,61654.5 25921.9,61669.7L25921.9,61747L25889.5,61747L25889.5,61677.8C25889.5,61669.2 25888.1,61662.8 25885.2,61658.5C25882.4,61654.3 25877.8,61652.1 25871.7,61652.1C25863.8,61652.1 25857.9,61654.9 25853.9,61660.6C25850,61666.2 25848.1,61675.2 25848.1,61687.5L25848.1,61747ZM24571.8,61941.2C24557.8,61941.2 24546.9,61935.8 24538.9,61924.9C24531,61914.1 24527,61899.1 24527,61880C24527,61860.6 24531.1,61845.4 24539.2,61834.6C24547.2,61823.7 24558.4,61818.3 24572.6,61818.3C24587.5,61818.3 24598.9,61824.1 24606.7,61835.7L24607.8,61835.7C24606.2,61826.9 24605.4,61819 24605.4,61812L24605.4,61774.1L24637.8,61774.1L24637.8,61939L24613,61939L24606.7,61923.7L24605.4,61923.7C24598,61935.3 24586.8,61941.2 24571.8,61941.2ZM24583.1,61915.4C24591.4,61915.4 24597.4,61913 24601.3,61908.2C24605.1,61903.4 24607.2,61895.2 24607.6,61883.7L24607.6,61880.2C24607.6,61867.5 24605.6,61858.4 24601.7,61852.9C24597.8,61847.3 24591.4,61844.6 24582.6,61844.6C24575.4,61844.6 24569.8,61847.6 24565.8,61853.8C24561.8,61859.9 24559.8,61868.8 24559.8,61880.4C24559.8,61892.1 24561.8,61900.8 24565.8,61906.7C24569.8,61912.5 24575.6,61915.4 24583.1,61915.4ZM24779.3,61879.6C24779.3,61898.9 24774.2,61914 24764,61924.8C24753.9,61935.7 24739.7,61941.2 24721.5,61941.2C24710.2,61941.2 24700.1,61938.7 24691.4,61933.7C24682.7,61928.7 24676.1,61921.6 24671.4,61912.2C24666.7,61902.9 24664.4,61892 24664.4,61879.6C24664.4,61860.2 24669.5,61845.2 24679.6,61834.4C24689.7,61823.7 24703.9,61818.3 24722.2,61818.3C24733.6,61818.3 24743.6,61820.8 24752.3,61825.7C24761,61830.7 24767.6,61837.8 24772.3,61847C24777,61856.3 24779.3,61867.1 24779.3,61879.6ZM24697.4,61879.6C24697.4,61891.3 24699.3,61900.2 24703.1,61906.2C24707,61912.2 24713.3,61915.2 24722,61915.2C24730.6,61915.2 24736.8,61912.2 24740.6,61906.2C24744.3,61900.3 24746.2,61891.4 24746.2,61879.6C24746.2,61867.8 24744.3,61859 24740.5,61853.2C24736.7,61847.3 24730.4,61844.4 24721.7,61844.4C24713.1,61844.4 24706.9,61847.3 24703.1,61853.1C24699.3,61859 24697.4,61867.8 24697.4,61879.6ZM24838.4,61939L24806,61939L24806,61774.1L24838.4,61774.1L24838.4,61939ZM24980,61879.6C24980,61898.9 24974.9,61914 24964.7,61924.8C24954.5,61935.7 24940.4,61941.2 24922.2,61941.2C24910.8,61941.2 24900.8,61938.7 24892.1,61933.7C24883.4,61928.7 24876.7,61921.6 24872.1,61912.2C24867.4,61902.9 24865.1,61892 24865.1,61879.6C24865.1,61860.2 24870.1,61845.2 24880.2,61834.4C24890.3,61823.7 24904.5,61818.3 24922.8,61818.3C24934.2,61818.3 24944.3,61820.8 24952.9,61825.7C24961.6,61830.7 24968.3,61837.8 24973,61847C24977.6,61856.3 24980,61867.1 24980,61879.6ZM24898,61879.6C24898,61891.3 24900,61900.2 24903.8,61906.2C24907.7,61912.2 24913.9,61915.2 24922.6,61915.2C24931.3,61915.2 24937.5,61912.2 24941.2,61906.2C24945,61900.3 24946.9,61891.4 24946.9,61879.6C24946.9,61867.8 24945,61859 24941.2,61853.2C24937.4,61847.3 24931.1,61844.4 24922.4,61844.4C24913.8,61844.4 24907.6,61847.3 24903.8,61853.1C24899.9,61859 24898,61867.8 24898,61879.6ZM25072.8,61818.3C25077.2,61818.3 25080.9,61818.6 25083.8,61819.3L25081.3,61849.6C25078.7,61848.9 25075.5,61848.5 25071.8,61848.5C25061.5,61848.5 25053.4,61851.2 25047.7,61856.5C25041.9,61861.8 25039,61869.2 25039,61878.7L25039,61939L25006.7,61939L25006.7,61820.5L25031.2,61820.5L25036,61840.5L25037.5,61840.5C25041.2,61833.8 25046.2,61828.5 25052.4,61824.4C25058.7,61820.3 25065.5,61818.3 25072.8,61818.3ZM25244.4,61903.8C25244.4,61916 25240.1,61925.3 25231.7,61931.6C25223.2,61938 25210.6,61941.2 25193.8,61941.2C25185.2,61941.2 25177.8,61940.6 25171.7,61939.4C25165.7,61938.2 25160,61936.5 25154.7,61934.3L25154.7,61907.6C25160.7,61910.4 25167.5,61912.8 25175,61914.7C25182.5,61916.6 25189.1,61917.5 25194.9,61917.5C25206.6,61917.5 25212.5,61914.1 25212.5,61907.3C25212.5,61904.8 25211.7,61902.7 25210.1,61901.1C25208.6,61899.6 25205.9,61897.8 25202.1,61895.7C25198.2,61893.7 25193.2,61891.4 25186.8,61888.7C25177.7,61884.9 25171,61881.3 25166.7,61878.1C25162.4,61874.8 25159.3,61871.1 25157.4,61866.9C25155.4,61862.7 25154.5,61857.5 25154.5,61851.4C25154.5,61840.8 25158.5,61832.7 25166.7,61826.9C25174.9,61821.2 25186.4,61818.3 25201.4,61818.3C25215.7,61818.3 25229.6,61821.4 25243.1,61827.6L25233.3,61851C25227.4,61848.4 25221.8,61846.3 25216.7,61844.7C25211.5,61843.1 25206.3,61842.3 25200.9,61842.3C25191.4,61842.3 25186.6,61844.8 25186.6,61850C25186.6,61852.9 25188.1,61855.4 25191.2,61857.5C25194.3,61859.6 25201,61862.8 25211.4,61867C25220.6,61870.7 25227.4,61874.2 25231.7,61877.5C25236.1,61880.7 25239.2,61884.4 25241.3,61888.7C25243.3,61892.9 25244.4,61898 25244.4,61903.8ZM25268.2,61789.9C25268.2,61779.4 25274.1,61774.1 25285.8,61774.1C25297.5,61774.1 25303.4,61779.4 25303.4,61789.9C25303.4,61794.9 25301.9,61798.8 25299,61801.6C25296.1,61804.4 25291.7,61805.8 25285.8,61805.8C25274.1,61805.8 25268.2,61800.5 25268.2,61789.9ZM25301.9,61939L25269.6,61939L25269.6,61820.5L25301.9,61820.5L25301.9,61939ZM25561.7,61939L25555.5,61922.9L25554.6,61922.9C25549.2,61929.8 25543.6,61934.5 25537.8,61937.2C25532.1,61939.8 25524.6,61941.2 25515.3,61941.2C25503.9,61941.2 25495,61937.9 25488.4,61931.4C25481.9,61924.9 25478.6,61915.7 25478.6,61903.6C25478.6,61891.1 25483,61881.8 25491.8,61875.8C25500.6,61869.8 25513.9,61866.5 25531.6,61865.9L25552.2,61865.3L25552.2,61860.1C25552.2,61848.1 25546,61842 25533.8,61842C25524.3,61842 25513.2,61844.9 25500.4,61850.6L25489.7,61828.8C25503.3,61821.7 25518.4,61818.1 25535,61818.1C25550.9,61818.1 25563.1,61821.6 25571.6,61828.5C25580.1,61835.4 25584.3,61845.9 25584.3,61860.1L25584.3,61939L25561.7,61939ZM25552.2,61884.1L25539.7,61884.6C25530.3,61884.8 25523.3,61886.5 25518.7,61889.6C25514.1,61892.8 25511.8,61897.5 25511.8,61903.8C25511.8,61913 25517,61917.5 25527.5,61917.5C25535,61917.5 25541,61915.4 25545.5,61911.1C25550,61906.7 25552.2,61901 25552.2,61893.9L25552.2,61884.1ZM24582.4,62133.2C24545.5,62133.2 24527,62113 24527,62072.5C24527,62052.3 24532,62036.9 24542.1,62026.3C24552.1,62015.7 24566.5,62010.4 24585.2,62010.4C24598.9,62010.4 24611.2,62013 24622.1,62018.4L24612.6,62043.4C24607.5,62041.4 24602.7,62039.7 24598.4,62038.4C24594,62037.1 24589.6,62036.4 24585.2,62036.4C24568.4,62036.4 24560,62048.4 24560,62072.3C24560,62095.4 24568.4,62107 24585.2,62107C24591.4,62107 24597.2,62106.2 24602.5,62104.5C24607.8,62102.9 24613.1,62100.3 24618.4,62096.7L24618.4,62124.4C24613.2,62127.7 24607.9,62130 24602.5,62131.3C24597.2,62132.6 24590.5,62133.2 24582.4,62133.2ZM24753.5,62071.6C24753.5,62090.9 24748.5,62106 24738.3,62116.9C24728.1,62127.8 24713.9,62133.2 24695.8,62133.2C24684.4,62133.2 24674.4,62130.7 24665.7,62125.7C24657,62120.8 24650.3,62113.6 24645.6,62104.3C24641,62094.9 24638.6,62084.1 24638.6,62071.6C24638.6,62052.3 24643.7,62037.2 24653.8,62026.5C24663.9,62015.7 24678.1,62010.4 24696.4,62010.4C24707.8,62010.4 24717.8,62012.8 24726.5,62017.8C24735.2,62022.7 24741.9,62029.8 24746.6,62039.1C24751.2,62048.3 24753.5,62059.2 24753.5,62071.6ZM24671.6,62071.6C24671.6,62083.4 24673.5,62092.2 24677.4,62098.2C24681.2,62104.2 24687.5,62107.2 24696.2,62107.2C24704.8,62107.2 24711,62104.3 24714.8,62098.3C24718.6,62092.3 24720.5,62083.4 24720.5,62071.6C24720.5,62059.9 24718.6,62051.1 24714.8,62045.2C24710.9,62039.4 24704.7,62036.4 24696,62036.4C24687.4,62036.4 24681.1,62039.3 24677.3,62045.2C24673.5,62051 24671.6,62059.8 24671.6,62071.6ZM24889.7,62131.1L24857.3,62131.1L24857.3,62061.9C24857.3,62053.3 24855.8,62046.9 24852.8,62042.6C24849.7,62038.4 24844.9,62036.2 24838.2,62036.2C24829.2,62036.2 24822.7,62039.2 24818.6,62045.3C24814.6,62051.3 24812.6,62061.3 24812.6,62075.3L24812.6,62131.1L24780.3,62131.1L24780.3,62012.6L24805,62012.6L24809.3,62027.7L24811.1,62027.7C24814.7,62022 24819.7,62017.7 24826,62014.8C24832.3,62011.8 24839.5,62010.4 24847.6,62010.4C24861.4,62010.4 24871.8,62014.1 24879,62021.5C24886.1,62029 24889.7,62039.8 24889.7,62053.8L24889.7,62131.1ZM25005.6,62095.9C25005.6,62108.1 25001.4,62117.3 24993,62123.7C24984.5,62130 24971.9,62133.2 24955.1,62133.2C24946.4,62133.2 24939.1,62132.6 24933,62131.5C24926.9,62130.3 24921.3,62128.6 24916,62126.3L24916,62099.6C24922,62102.4 24928.7,62104.8 24936.3,62106.7C24943.8,62108.6 24950.4,62109.6 24956.1,62109.6C24967.9,62109.6 24973.7,62106.2 24973.7,62099.4C24973.7,62096.9 24972.9,62094.8 24971.4,62093.2C24969.8,62091.6 24967.2,62089.8 24963.3,62087.8C24959.5,62085.8 24954.4,62083.4 24948.1,62080.7C24939,62076.9 24932.3,62073.4 24928,62070.1C24923.7,62066.9 24920.6,62063.2 24918.7,62059C24916.7,62054.8 24915.7,62049.6 24915.7,62043.4C24915.7,62032.9 24919.8,62024.8 24928,62019C24936.1,62013.2 24947.7,62010.4 24962.7,62010.4C24977,62010.4 24990.9,62013.5 25004.4,62019.7L24994.6,62043C24988.7,62040.5 24983.1,62038.4 24978,62036.7C24972.8,62035.1 24967.5,62034.3 24962.2,62034.3C24952.6,62034.3 24947.9,62036.9 24947.9,62042C24947.9,62044.9 24949.4,62047.5 24952.5,62049.6C24955.5,62051.7 24962.3,62054.8 24972.7,62059C24981.9,62062.8 24988.7,62066.3 24993,62069.5C24997.3,62072.8 25000.5,62076.5 25002.6,62080.7C25004.6,62085 25005.6,62090 25005.6,62095.9ZM25084.5,62133.2C25065.4,62133.2 25050.5,62127.9 25039.8,62117.4C25029,62106.9 25023.7,62092 25023.7,62072.7C25023.7,62052.8 25028.6,62037.5 25038.5,62026.6C25048.5,62015.8 25062.2,62010.4 25079.7,62010.4C25096.5,62010.4 25109.5,62015.1 25118.8,62024.7C25128.2,62034.2 25132.8,62047.4 25132.8,62064.2L25132.8,62079.9L25056.4,62079.9C25056.8,62089.1 25059.5,62096.3 25064.6,62101.4C25069.7,62106.6 25076.8,62109.1 25086,62109.1C25093.1,62109.1 25099.9,62108.4 25106.2,62106.9C25112.6,62105.4 25119.2,62103.1 25126.2,62099.8L25126.2,62124.8C25120.5,62127.7 25114.5,62129.8 25108,62131.1C25101.6,62132.5 25093.8,62133.2 25084.5,62133.2ZM25079.9,62033.4C25073.1,62033.4 25067.7,62035.5 25063.8,62039.9C25059.9,62044.2 25057.7,62050.4 25057.2,62058.4L25102.5,62058.4C25102.4,62050.4 25100.3,62044.2 25096.3,62039.9C25092.2,62035.5 25086.8,62033.4 25079.9,62033.4ZM25207.3,62133.2C25170.4,62133.2 25151.9,62113 25151.9,62072.5C25151.9,62052.3 25156.9,62036.9 25167,62026.3C25177,62015.7 25191.4,62010.4 25210.1,62010.4C25223.8,62010.4 25236.1,62013 25247,62018.4L25237.5,62043.4C25232.4,62041.4 25227.6,62039.7 25223.3,62038.4C25218.9,62037.1 25214.5,62036.4 25210.1,62036.4C25193.3,62036.4 25184.9,62048.4 25184.9,62072.3C25184.9,62095.4 25193.3,62107 25210.1,62107C25216.3,62107 25222.1,62106.2 25227.4,62104.5C25232.7,62102.9 25238,62100.3 25243.3,62096.7L25243.3,62124.4C25238.1,62127.7 25232.8,62130 25227.5,62131.3C25222.1,62132.6 25215.4,62133.2 25207.3,62133.2ZM25320.7,62107.5C25326.3,62107.5 25333.1,62106.2 25341,62103.7L25341,62127.8C25333,62131.4 25323.1,62133.2 25311.4,62133.2C25298.4,62133.2 25289,62129.9 25283.1,62123.4C25277.2,62116.9 25274.3,62107.1 25274.3,62094L25274.3,62036.9L25258.8,62036.9L25258.8,62023.2L25276.6,62012.4L25285.9,61987.3L25306.6,61987.3L25306.6,62012.6L25339.8,62012.6L25339.8,62036.9L25306.6,62036.9L25306.6,62094C25306.6,62098.6 25307.9,62102 25310.5,62104.2C25313,62106.4 25316.4,62107.5 25320.7,62107.5ZM25418.6,62133.2C25399.5,62133.2 25384.6,62127.9 25373.9,62117.4C25363.2,62106.9 25357.8,62092 25357.8,62072.7C25357.8,62052.8 25362.7,62037.5 25372.7,62026.6C25382.6,62015.8 25396.3,62010.4 25413.9,62010.4C25430.6,62010.4 25443.6,62015.1 25453,62024.7C25462.3,62034.2 25467,62047.4 25467,62064.2L25467,62079.9L25390.5,62079.9C25390.9,62089.1 25393.6,62096.3 25398.7,62101.4C25403.8,62106.6 25410.9,62109.1 25420.1,62109.1C25427.3,62109.1 25434,62108.4 25440.4,62106.9C25446.7,62105.4 25453.4,62103.1 25460.3,62099.8L25460.3,62124.8C25454.6,62127.7 25448.6,62129.8 25442.2,62131.1C25435.7,62132.5 25427.9,62133.2 25418.6,62133.2ZM25414.1,62033.4C25407.2,62033.4 25401.8,62035.5 25398,62039.9C25394.1,62044.2 25391.8,62050.4 25391.3,62058.4L25436.7,62058.4C25436.5,62050.4 25434.4,62044.2 25430.4,62039.9C25426.4,62035.5 25420.9,62033.4 25414.1,62033.4Z" style="fill:rgb(51,94,234);"/>
            </g>
        </g>
    </g>
</svg>
