<?xml version="1.0" encoding="UTF-8" standalone="no"?>
<!DOCTYPE svg PUBLIC "-//W3C//DTD SVG 1.1//EN" "http://www.w3.org/Graphics/SVG/1.1/DTD/svg11.dtd">
<svg width="100%" height="100%" viewBox="0 0 2000 2000" version="1.1" xmlns="http://www.w3.org/2000/svg" xmlns:xlink="http://www.w3.org/1999/xlink" xml:space="preserve" xmlns:serif="http://www.serif.com/" style="fill-rule:evenodd;clip-rule:evenodd;stroke-linejoin:round;stroke-miterlimit:2;">
    <g transform="matrix(1,0,0,1,-42299,-60816)">
        <g id="Sponsors">
        </g>
        <g id="date-unix-converter" serif:id="date unix converter" transform="matrix(0.998004,0,0,0.998004,18043.5,81.4691)">
            <rect x="24304" y="60856" width="2004" height="2004" style="fill:none;"/>
            <g id="event_repeat_black_24dp.svg" transform="matrix(37.9978,0,0,37.9978,25306,61858)">
                <g transform="matrix(1,0,0,1,-12,-12)">
                    <g>
                        <rect x="0" y="0" width="24" height="24" style="fill:none;"/>
                    </g>
                    <g>
                        <path d="M21,12L21,6C21,4.9 20.1,4 19,4L18,4L18,2L16,2L16,4L8,4L8,2L6,2L6,4L5,4C3.9,4 3,4.9 3,6L3,20C3,21.1 3.9,22 5,22L12,22L12,20L5,20L5,10L19,10L19,12L21,12Z" style="fill:rgb(51,94,234);fill-rule:nonzero;"/>
                        <path d="M22.69,18.37L23.83,17.37L22.83,15.64L21.38,16.13C21.06,15.86 20.7,15.65 20.3,15.5L20,14L18,14L17.7,15.49C17.3,15.64 16.94,15.85 16.62,16.12L15.17,15.63L14.17,17.36L15.31,18.36C15.23,18.86 15.23,19.12 15.31,19.62L14.17,20.62L15.17,22.35L16.62,21.86C16.94,22.13 17.3,22.34 17.7,22.49L18,24L20,24L20.3,22.51C20.7,22.36 21.06,22.15 21.38,21.88L22.83,22.37L23.83,20.64L22.69,19.64C22.77,19.13 22.77,18.87 22.69,18.37ZM19,21C17.9,21 17,20.1 17,19C17,17.9 17.9,17 19,17C20.1,17 21,17.9 21,19C21,20.1 20.1,21 19,21Z" style="fill:rgb(55,184,135);fill-rule:nonzero;"/>
                    </g>
                </g>
            </g>
        </g>
    </g>
</svg>
