<?xml version="1.0" encoding="UTF-8" standalone="no"?>
<!DOCTYPE svg PUBLIC "-//W3C//DTD SVG 1.1//EN" "http://www.w3.org/Graphics/SVG/1.1/DTD/svg11.dtd">
<svg width="100%" height="100%" viewBox="0 0 2000 2000" version="1.1" xmlns="http://www.w3.org/2000/svg" xmlns:xlink="http://www.w3.org/1999/xlink" xml:space="preserve" xmlns:serif="http://www.serif.com/" style="fill-rule:evenodd;clip-rule:evenodd;stroke-linejoin:round;stroke-miterlimit:2;">
    <g transform="matrix(1,0,0,1,-41755,-63147)">
        <g id="Sponsors">
        </g>
        <g id="dns-lookup" serif:id="dns lookup" transform="matrix(1.05024,0,0,1,-2098,-0.0676931)">
            <rect x="41755.4" y="63147.1" width="1904.33" height="2000" style="fill:none;"/>
            <g id="dns_24dp_E8EAED.svg" transform="matrix(40.4269,0,0,42.4578,42707.5,64147.1)">
                <g transform="matrix(1,0,0,1,-12,-12)">
                    <clipPath id="_clip1">
                        <rect x="0" y="0" width="24" height="24"/>
                    </clipPath>
                    <g clip-path="url(#_clip1)">
                        <rect x="0" y="0" width="24" height="24" style="fill:none;fill-rule:nonzero;"/>
                        <path d="M15.083,21L4,21C3.45,21 3,20.55 3,20L3,14C3,13.45 3.45,13 4,13L20,13C20.55,13 21,13.45 21,14L21,15.083C20.674,15.016 20.336,14.981 19.991,14.981C17.226,14.981 14.981,17.226 14.981,19.991C14.981,20.336 15.016,20.674 15.083,21ZM7,19C8.1,19 9,18.1 9,17C9,15.9 8.1,15 7,15C5.9,15 5,15.9 5,17C5,18.1 5.9,19 7,19ZM20,3C20.55,3 21,3.45 21,4L21,10C21,10.55 20.55,11 20,11L4,11C3.45,11 3,10.55 3,10L3,4C3,3.45 3.45,3 4,3L20,3ZM7,9C8.1,9 9,8.1 9,7C9,5.9 8.1,5 7,5C5.9,5 5,5.9 5,7C5,8.1 5.9,9 7,9Z" style="fill:rgb(51,94,234);"/>
                        <g id="search_24dp_E8EAED.svg">
                        </g>
                        <g transform="matrix(0.335309,0,0,0.335309,15.9526,15.9526)">
                            <rect x="0" y="0" width="24" height="24" style="fill:none;fill-rule:nonzero;"/>
                        </g>
                        <g transform="matrix(0.335309,0,0,0.335309,15.9526,15.9526)">
                            <path d="M15.5,14L14.71,14L14.43,13.73C15.41,12.59 16,11.11 16,9.5C16,5.91 13.09,3 9.5,3C5.91,3 3,5.91 3,9.5C3,13.09 5.91,16 9.5,16C11.11,16 12.59,15.41 13.73,14.43L14,14.71L14,15.5L19,20.49L20.49,19L15.5,14ZM9.5,14C7.01,14 5,11.99 5,9.5C5,7.01 7.01,5 9.5,5C11.99,5 14,7.01 14,9.5C14,11.99 11.99,14 9.5,14Z" style="fill:rgb(55,184,135);fill-rule:nonzero;"/>
                        </g>
                    </g>
                </g>
            </g>
        </g>
    </g>
</svg>
