<?xml version="1.0" encoding="UTF-8" standalone="no"?>
<!DOCTYPE svg PUBLIC "-//W3C//DTD SVG 1.1//EN" "http://www.w3.org/Graphics/SVG/1.1/DTD/svg11.dtd">
<svg width="100%" height="100%" viewBox="0 0 784 582" version="1.1" xmlns="http://www.w3.org/2000/svg" xmlns:xlink="http://www.w3.org/1999/xlink" xml:space="preserve" xmlns:serif="http://www.serif.com/" style="fill-rule:evenodd;clip-rule:evenodd;stroke-linejoin:round;stroke-miterlimit:2;">
    <g transform="matrix(1.52578,0,0,1.52578,-260.784,5.68434e-14)">
        <g>
            <g transform="matrix(0.961089,0,0,0.961089,4.47637,-151.684)">
                <path d="M574.1,479.328C573.987,479.328 573.916,479.325 573.891,479.323L560.327,479.325L560.327,477.325L573.94,477.325C574.255,477.336 580.686,477.518 586.611,470.328C595.44,459.613 602.691,433.088 587.092,367.572C566.117,279.477 583.611,201.649 592.106,172.277C592.359,171.399 592.487,170.491 592.487,169.578C592.487,164.228 588.085,159.825 582.735,159.825C582.731,159.825 582.727,159.825 582.723,159.825L380.148,159.825C377.027,159.829 374.088,161.325 372.248,163.846C368.65,168.796 363.711,178.306 360.621,195.501L358.652,195.148C361.81,177.579 366.909,167.789 370.63,162.67C372.847,159.632 376.387,157.83 380.148,157.825L582.723,157.825C582.727,157.825 582.731,157.825 582.735,157.825C589.182,157.825 594.487,163.131 594.487,169.578C594.487,170.679 594.333,171.774 594.028,172.832C585.577,202.052 568.173,279.476 589.038,367.109C604.857,433.547 597.252,460.646 588.088,471.681C582.043,478.959 575.382,479.328 574.1,479.328Z" style="fill:rgb(230,230,230);fill-rule:nonzero;"/>
            </g>
            <g transform="matrix(0.961089,0,0,0.961089,4.47637,-151.684)">
                <path d="M537.6,515.828C537.487,515.828 537.416,515.825 537.391,515.823L523.827,515.825L523.827,513.825L537.44,513.825C537.757,513.834 544.186,514.018 550.111,506.828C558.94,496.113 566.191,469.588 550.592,404.072C529.617,315.977 547.111,238.149 555.606,208.777C555.859,207.899 555.987,206.991 555.987,206.078C555.987,200.728 551.585,196.325 546.235,196.325C546.231,196.325 546.227,196.325 546.223,196.325L343.648,196.325C340.527,196.329 337.588,197.825 335.748,200.346C332.15,205.296 327.211,214.806 324.121,232.001L322.152,231.648C325.31,214.079 330.409,204.289 334.13,199.17C336.347,196.132 339.887,194.33 343.648,194.325L546.223,194.325C546.227,194.325 546.231,194.325 546.235,194.325C552.682,194.325 557.987,199.631 557.987,206.078C557.987,207.179 557.833,208.274 557.528,209.332C549.077,238.552 531.673,315.976 552.538,403.609C568.357,470.047 560.752,497.146 551.588,508.181C545.543,515.459 538.882,515.828 537.6,515.828Z" style="fill:rgb(204,204,204);fill-rule:nonzero;"/>
            </g>
            <g transform="matrix(0.961089,0,0,0.961089,4.47637,-151.684)">
                <path d="M501.1,552.328C500.987,552.328 500.916,552.325 500.891,552.323L301.438,552.325C301.433,552.325 301.429,552.325 301.424,552.325C294.978,552.325 289.674,547.02 289.674,540.575C289.674,539.084 289.957,537.607 290.509,536.223C297.746,518.142 307.49,474.764 291.441,387.383C272.49,284.203 289.456,246.914 297.63,235.67C299.847,232.632 303.387,230.83 307.148,230.825L509.723,230.825C509.727,230.825 509.731,230.825 509.735,230.825C516.182,230.825 521.487,236.131 521.487,242.578C521.487,243.679 521.333,244.774 521.028,245.832C512.577,275.052 495.173,352.476 516.038,440.109C531.857,506.547 524.252,533.646 515.087,544.681C509.043,551.959 502.382,552.328 501.1,552.328ZM307.148,232.825C304.027,232.829 301.088,234.325 299.248,236.846C291.225,247.881 274.597,284.603 293.408,387.022C308.74,470.496 301.304,514.636 292.366,536.966C291.144,539.956 291.512,543.369 293.343,546.03C295.159,548.715 298.197,550.327 301.438,550.325L500.94,550.325C501.255,550.34 507.686,550.518 513.611,543.328C522.44,532.613 529.691,506.088 514.092,440.572C493.117,352.477 510.611,274.649 519.106,245.277C519.359,244.399 519.487,243.491 519.487,242.578C519.487,237.228 515.085,232.825 509.735,232.825C509.731,232.825 509.727,232.825 509.723,232.825L307.148,232.825Z" style="fill:rgb(63,61,86);fill-rule:nonzero;"/>
            </g>
            <g transform="matrix(0.961089,0,0,0.961089,4.47637,-151.684)">
                <path d="M475.267,320.825L316.267,320.825C311.879,320.825 308.267,317.214 308.267,312.825C308.267,308.436 311.879,304.825 316.267,304.825L475.267,304.825C479.656,304.825 483.267,308.436 483.267,312.825C483.267,317.214 479.656,320.825 475.267,320.825Z" style="fill:rgb(51,94,234);fill-rule:nonzero;"/>
            </g>
            <g transform="matrix(0.961089,0,0,0.961089,4.47637,-151.684)">
                <path d="M475.267,354.825L316.267,354.825C311.879,354.825 308.267,351.214 308.267,346.825C308.267,342.436 311.879,338.825 316.267,338.825L475.267,338.825C479.656,338.825 483.267,342.436 483.267,346.825C483.267,351.214 479.656,354.825 475.267,354.825Z" style="fill:rgb(204,204,204);fill-rule:nonzero;"/>
            </g>
            <g transform="matrix(0.961089,0,0,0.961089,4.47637,-151.684)">
                <path d="M475.267,388.825L316.267,388.825C311.879,388.825 308.267,385.214 308.267,380.825C308.267,376.436 311.879,372.825 316.267,372.825L475.267,372.825C479.656,372.825 483.267,376.436 483.267,380.825C483.267,385.214 479.656,388.825 475.267,388.825Z" style="fill:rgb(204,204,204);fill-rule:nonzero;"/>
            </g>
            <g transform="matrix(0.961089,0,0,0.961089,4.47637,-151.684)">
                <path d="M487.267,422.825L328.267,422.825C323.879,422.825 320.267,419.214 320.267,414.825C320.267,410.436 323.879,406.825 328.267,406.825L487.267,406.825C491.656,406.825 495.267,410.436 495.267,414.825C495.267,419.214 491.656,422.825 487.267,422.825Z" style="fill:rgb(204,204,204);fill-rule:nonzero;"/>
            </g>
            <g transform="matrix(0.961089,0,0,0.961089,4.47637,-151.684)">
                <path d="M487.267,456.825L328.267,456.825C323.879,456.825 320.267,453.214 320.267,448.825C320.267,444.436 323.879,440.825 328.267,440.825L487.267,440.825C491.656,440.825 495.267,444.436 495.267,448.825C495.267,453.214 491.656,456.825 487.267,456.825Z" style="fill:rgb(204,204,204);fill-rule:nonzero;"/>
            </g>
            <g transform="matrix(0.961089,0,0,0.961089,4.47637,-151.684)">
                <path d="M391.267,286.825L316.267,286.825C311.879,286.825 308.267,283.214 308.267,278.825C308.267,274.436 311.879,270.825 316.267,270.825L391.267,270.825C395.656,270.825 399.267,274.436 399.267,278.825C399.267,283.214 395.656,286.825 391.267,286.825Z" style="fill:rgb(51,94,234);fill-rule:nonzero;"/>
            </g>
        </g>
    </g>
</svg>
