<?xml version="1.0" encoding="UTF-8" standalone="no"?>
<!DOCTYPE svg PUBLIC "-//W3C//DTD SVG 1.1//EN" "http://www.w3.org/Graphics/SVG/1.1/DTD/svg11.dtd">
<svg width="100%" height="100%" viewBox="0 0 2000 2000" version="1.1" xmlns="http://www.w3.org/2000/svg" xmlns:xlink="http://www.w3.org/1999/xlink" xml:space="preserve" xmlns:serif="http://www.serif.com/" style="fill-rule:evenodd;clip-rule:evenodd;stroke-linejoin:round;stroke-miterlimit:2;">
    <g transform="matrix(1,0,0,1,-48325.8,-63135.9)">
        <g id="Sponsors">
        </g>
        <g id="json-schema" serif:id="json schema" transform="matrix(1.05024,0,0,1,4472.82,-11.2142)">
            <rect x="41755.4" y="63147.1" width="1904.33" height="2000" style="fill:none;"/>
            <g transform="matrix(10.2344,0,0,10.2344,-385110,-582552)">
                <path d="M41817.1,63215.2C41816.4,63214.5 41815.5,63213.5 41814.4,63212.1C41812.7,63210 41811.1,63208.2 41810.9,63208.2C41810.4,63208.2 41805.2,63214.2 41801.2,63219.3C41797.7,63223.9 41794.6,63224 41793.6,63223.1L41793.7,63223.1C41792.1,63221.6 41792.3,63219 41794.2,63216.4C41795.6,63214.5 41801.4,63208.4 41805.6,63204.3L41807.3,63202.7L41804.6,63196.6C41801.6,63189.8 41801.6,63189.7 41805.6,63189.2L41807.8,63189L41810.2,63192.9C41811.6,63195 41812.8,63196.7 41813.1,63196.7C41813.3,63196.7 41815.7,63194.7 41818.5,63192.2C41823.2,63187.9 41823.5,63187.7 41825.1,63187.9C41826,63188.1 41826.9,63188 41827.1,63187.7C41827.6,63187.1 41828.9,63188 41828.9,63188.9C41828.9,63189.3 41828.2,63190.2 41827.4,63191C41824,63194.2 41816.8,63201.8 41816.8,63202.1C41816.8,63202.3 41818.3,63205 41820,63208L41821.6,63210.6C41819.9,63211.9 41818.4,63213.5 41817.1,63215.2ZM41832.6,63205.8L41832.6,63200.3C41832.6,63198.6 41832.8,63197.1 41833.3,63195.6C41833.7,63194.3 41834.5,63193 41835.6,63192C41836.8,63191 41838.4,63190.3 41840.5,63189.7C41840.8,63189.6 41841.1,63189.6 41841.4,63189.5L41841.4,63188.5C41841.1,63188.5 41840.8,63188.4 41840.5,63188.3L41840.5,63188.3C41838.4,63187.8 41836.8,63187 41835.6,63186C41834.5,63185 41833.7,63183.8 41833.3,63182.4C41832.8,63181 41832.6,63179.5 41832.6,63177.8L41832.6,63164.6C41832.6,63162.1 41832.3,63160 41831.8,63158.3C41831.2,63156.7 41830.2,63155.5 41828.8,63154.7C41827.4,63153.9 41825.5,63153.5 41823.1,63153.5L41823.1,63147.1C41826.2,63147.1 41828.8,63147.4 41830.8,63148.1C41832.9,63148.8 41834.6,63149.9 41835.8,63151.3C41837.1,63152.8 41838,63154.6 41838.5,63156.8C41839.1,63159 41839.4,63161.6 41839.4,63164.6L41839.4,63175.1C41839.4,63178.7 41840.1,63181.3 41841.4,63182.8C41842.8,63184.3 41845.3,63185.1 41848.7,63185.1L41848.7,63193C41845.3,63193 41842.8,63193.7 41841.4,63195.3C41840.1,63196.8 41839.4,63199.4 41839.4,63202.9L41839.4,63205.8C41838.2,63205.6 41837.1,63205.5 41835.9,63205.5C41834.8,63205.5 41833.7,63205.6 41832.6,63205.8ZM41789.4,63187.7C41789.4,63187.7 41789.4,63187.6 41789.4,63187.6C41781.5,63175.2 41775.7,63173 41775.9,63172.9C41778.9,63170.8 41784.6,63172.8 41788.1,63176.1C41788.1,63176.1 41788.2,63176.2 41788.2,63176.2C41789,63177 41789.2,63177.2 41790.2,63178.4C41790.4,63178.4 41794.3,63171.7 41794.3,63171.6C41802.1,63158.8 41810.2,63153.3 41814.9,63153.3C41817.1,63153.3 41817.5,63154.2 41817.5,63154.2C41809.8,63158.4 41803.4,63165.8 41796.7,63179.6C41794.8,63183.5 41791.7,63189.8 41791.5,63190.3C41791.1,63190.9 41791.1,63190 41789.4,63187.7L41789.4,63187.7ZM41763.6,63188.3C41763.3,63188.4 41763,63188.5 41762.7,63188.5L41762.7,63189.5C41763,63189.6 41763.3,63189.6 41763.6,63189.7C41765.7,63190.3 41767.3,63191 41768.5,63192C41769.6,63193.1 41770.4,63194.3 41770.8,63195.7C41771.3,63197.1 41771.5,63198.6 41771.5,63200.3L41771.5,63213.4C41771.5,63216 41771.8,63218.1 41772.3,63219.7C41772.9,63221.4 41773.9,63222.6 41775.3,63223.4C41776.7,63224.2 41778.6,63224.6 41781,63224.6L41781,63231C41777.9,63231 41775.3,63230.7 41773.3,63230C41771.2,63229.3 41769.5,63228.2 41768.3,63226.7C41767,63225.3 41766.1,63223.5 41765.6,63221.3C41765,63219.1 41764.7,63216.4 41764.7,63213.4L41764.7,63202.9C41764.7,63199.4 41764,63196.8 41762.7,63195.3C41761.3,63193.7 41758.8,63193 41755.4,63193L41755.4,63185.1C41758.8,63185.1 41761.3,63184.3 41762.7,63182.8C41764,63181.3 41764.7,63178.7 41764.7,63175.1L41764.7,63164.6C41764.7,63161.6 41765,63159 41765.6,63156.8C41766.1,63154.6 41767,63152.8 41768.3,63151.3C41769.5,63149.9 41771.2,63148.8 41773.3,63148.1C41775.3,63147.4 41777.9,63147.1 41781,63147.1L41781,63153.5C41778.6,63153.5 41776.7,63153.9 41775.3,63154.7C41773.9,63155.5 41772.9,63156.7 41772.3,63158.3C41771.8,63160 41771.5,63162.1 41771.5,63164.6L41771.5,63177.8C41771.5,63179.5 41771.3,63181 41770.8,63182.4C41770.4,63183.8 41769.6,63185 41768.5,63186C41767.3,63187 41765.7,63187.8 41763.6,63188.3Z" style="fill:rgb(51,94,234);"/>
            </g>
            <g transform="matrix(32.9162,0,0,34.5697,42521.6,63936.9)">
                <path d="M15.47,20.5L12,17L13.4,15.59L15.47,17.67L20.6,12.5L22,13.91L15.47,20.5Z" style="fill:rgb(55,184,135);"/>
            </g>
        </g>
    </g>
</svg>
