<?xml version="1.0" encoding="UTF-8" standalone="no"?>
<!DOCTYPE svg PUBLIC "-//W3C//DTD SVG 1.1//EN" "http://www.w3.org/Graphics/SVG/1.1/DTD/svg11.dtd">
<svg width="100%" height="100%" viewBox="0 0 2000 2000" version="1.1" xmlns="http://www.w3.org/2000/svg" xmlns:xlink="http://www.w3.org/1999/xlink" xml:space="preserve" xmlns:serif="http://www.serif.com/" style="fill-rule:evenodd;clip-rule:evenodd;stroke-linejoin:round;stroke-miterlimit:2;">
    <g transform="matrix(1,0,0,1,-51310.1,-63135.9)">
        <g id="Sponsors">
        </g>
        <g id="json-minify" serif:id="json minify" transform="matrix(1.05024,0,0,1,7457.09,-11.2142)">
            <rect x="41755.4" y="63147.1" width="1904.33" height="2000" style="fill:none;"/>
            <g id="data_object_24dp_E8EAED.svg" transform="matrix(41.4407,0,0,43.5225,42707.5,64147.1)">
                <g transform="matrix(1,0,0,1,-12,-12)">
                    <clipPath id="_clip1">
                        <rect x="0" y="0" width="24" height="24"/>
                    </clipPath>
                    <g clip-path="url(#_clip1)">
                        <g>
                            <rect x="0" y="0" width="24" height="24" style="fill:none;"/>
                        </g>
                        <g>
                            <path d="M18.037,14.528C18.211,13.428 18.982,12.53 20,12.17L20,11.83C18.84,11.42 18,10.3 18,9L18,7C18,6.45 17.55,6 17,6L14,6L14,4L17,4C18.65,4 20,5.35 20,7L20,9C20,9.55 20.45,10 21,10L22,10L22,14L21,14C20.545,14 20.159,14.307 20.039,14.725C19.553,14.584 19.039,14.508 18.508,14.508C18.349,14.508 18.192,14.515 18.037,14.528ZM4,7C4,5.35 5.35,4 7,4L10,4L10,6L7,6C6.45,6 6,6.45 6,7L6,9C6,10.3 5.16,11.42 4,11.83L4,12.17C5.16,12.58 6,13.7 6,15L6,17C6,17.55 6.45,18 7,18L10,18L10,20L7,20C5.35,20 4,18.65 4,17L4,15C4,14.45 3.55,14 3,14L2,14L2,10L3,10C3.55,10 4,9.55 4,9L4,7Z" style="fill:rgb(51,94,234);"/>
                            <g id="compress_24dp_E8EAED.svg" transform="matrix(0.38322,0,0,0.38322,18.3362,19.4014)">
                                <g transform="matrix(1,0,0,1,-12,-12)">
                                    <rect x="0" y="0" width="24" height="24" style="fill:none;fill-rule:nonzero;"/>
                                    <rect x="0" y="0" width="24" height="24" style="fill:none;fill-rule:nonzero;"/>
                                    <path d="M8,19L11,19L11,22L13,22L13,19L16,19L12,15L8,19ZM16,4L13,4L13,1L11,1L11,4L8,4L12,8L16,4ZM4,9L4,11L20,11L20,9L4,9Z" style="fill:rgb(55,184,135);fill-rule:nonzero;"/>
                                    <rect x="4" y="12" width="16" height="2" style="fill:rgb(55,184,135);fill-rule:nonzero;"/>
                                </g>
                            </g>
                        </g>
                    </g>
                </g>
            </g>
        </g>
    </g>
</svg>
