<?xml version="1.0" encoding="UTF-8" standalone="no"?>
<!DOCTYPE svg PUBLIC "-//W3C//DTD SVG 1.1//EN" "http://www.w3.org/Graphics/SVG/1.1/DTD/svg11.dtd">
<svg width="100%" height="100%" viewBox="0 0 2000 2000" version="1.1" xmlns="http://www.w3.org/2000/svg" xmlns:xlink="http://www.w3.org/1999/xlink" xml:space="preserve" xmlns:serif="http://www.serif.com/" style="fill-rule:evenodd;clip-rule:evenodd;stroke-linejoin:round;stroke-miterlimit:2;">
    <g transform="matrix(1,0,0,1,-43999.6,-60838)">
        <g id="Sponsors">
        </g>
        <g id="jsonpath" transform="matrix(0.998004,0,0,0.998004,19744.1,103.469)">
            <rect x="24304" y="60856" width="2004" height="2004" style="fill:none;"/>
            <g transform="matrix(41.6331,0,0,41.6331,24639.6,61358.4)">
                <path d="M4,7L4,9C4,9.55 3.55,10 3,10L2,10L2,14L3,14C3.55,14 4,14.45 4,15L4,17C4,18.65 5.35,20 7,20L10,20L10,18L7,18C6.45,18 6,17.55 6,17L6,15C6,13.7 5.16,12.58 4,12.17L4,11.83C5.16,11.42 6,10.3 6,9L6,7C6,6.45 6.45,6 7,6L10,6L10,4L7,4C5.35,4 4,5.35 4,7Z" style="fill:rgb(51,94,234);fill-rule:nonzero;"/>
                <g transform="matrix(1,0,0,1,8.01444,8.18545e-12)">
                    <path d="M21,10C20.45,10 20,9.55 20,9L20,7C20,5.35 18.65,4 17,4L14,4L14,6L17,6C17.55,6 18,6.45 18,7L18,9C18,10.3 18.84,11.42 20,11.83L20,12.17C18.84,12.58 18,13.69 18,15L18,17C18,17.55 17.55,18 17,18L14,18L14,20L17,20C18.65,20 20,18.65 20,17L20,15C20,14.45 20.45,14 21,14L22,14L22,10L21,10Z" style="fill:rgb(51,94,234);fill-rule:nonzero;"/>
                </g>
            </g>
            <g transform="matrix(0.700301,0,0,0.700301,18794.6,53605.9)">
                <path d="M9388.96,11886.6C9388.96,11928.6 9373.8,11962.2 9343.48,11987.7C9313.16,12013.1 9270.7,12028.4 9216.13,12033.4L9216.13,12114.4L9161.94,12114.4L9161.94,12035C9097.61,12033.6 9041.18,12022.3 8992.67,12000.9L8992.67,11896.5C9015.61,11907.9 9043.23,11917.9 9075.52,11926.6C9107.82,11935.3 9136.63,11940.4 9161.94,11942L9161.94,11819.4L9135.44,11809.1C9083.24,11788.6 9046.26,11766.2 9024.51,11742.1C9002.75,11718 8991.88,11688.1 8991.88,11652.5C8991.88,11614.3 9006.84,11582.8 9036.76,11558.2C9066.69,11533.5 9108.42,11518.6 9161.94,11513.3L9161.94,11452.8L9216.13,11452.8L9216.13,11511.7C9276.51,11514.3 9331.09,11526.5 9379.86,11548.1L9342.69,11640.6C9301.55,11623.8 9259.37,11613.5 9216.13,11609.8L9216.13,11726.5C9267.54,11746.2 9304.12,11763.4 9325.88,11777.9C9347.63,11792.4 9363.58,11808.3 9373.73,11825.7C9383.88,11843.1 9388.96,11863.4 9388.96,11886.6ZM9269.91,11892.6C9269.91,11881.5 9265.43,11872.1 9256.47,11864.5C9247.5,11856.8 9234.06,11848.9 9216.13,11840.8L9216.13,11939.2C9251.98,11933.2 9269.91,11917.6 9269.91,11892.6ZM9110.92,11652.5C9110.92,11664.1 9114.94,11673.7 9122.99,11681.2C9131.03,11688.7 9144.01,11696.4 9161.94,11704.3L9161.94,11611.4C9127.93,11616.4 9110.92,11630.1 9110.92,11652.5Z" style="fill:rgb(55,184,135);fill-rule:nonzero;"/>
                <path d="M9465.69,12010.8C9465.69,11988.7 9471.62,11971.9 9483.49,11960.6C9495.35,11949.3 9512.62,11943.6 9535.3,11943.6C9557.18,11943.6 9574.12,11949.4 9586.12,11961C9598.11,11972.6 9604.11,11989.2 9604.11,12010.8C9604.11,12031.7 9598.05,12048.1 9585.92,12060.1C9573.79,12072.1 9556.92,12078.1 9535.3,12078.1C9513.15,12078.1 9496.01,12072.2 9483.88,12060.5C9471.75,12048.7 9465.69,12032.2 9465.69,12010.8Z" style="fill:rgb(55,184,135);fill-rule:nonzero;"/>
            </g>
        </g>
    </g>
</svg>
