<?xml version="1.0" encoding="UTF-8" standalone="no"?>
<!DOCTYPE svg PUBLIC "-//W3C//DTD SVG 1.1//EN" "http://www.w3.org/Graphics/SVG/1.1/DTD/svg11.dtd">
<svg width="100%" height="100%" viewBox="0 0 2000 2000" version="1.1" xmlns="http://www.w3.org/2000/svg" xmlns:xlink="http://www.w3.org/1999/xlink" xml:space="preserve" xmlns:serif="http://www.serif.com/" style="fill-rule:evenodd;clip-rule:evenodd;stroke-linejoin:round;stroke-miterlimit:2;">
    <g transform="matrix(1,0,0,1,-24290,-63104)">
        <g id="Sponsors">
        </g>
        <g id="json-formatter" serif:id="json formatter" transform="matrix(0.998004,0,0,0.998004,34.511,2369.47)">
            <rect x="24304" y="60856" width="2004" height="2004" style="fill:none;"/>
            <g transform="matrix(43.6371,0,0,43.6371,24782.4,61310.4)">
                <path d="M4,7L4,9C4,9.55 3.55,10 3,10L2,10L2,14L3,14C3.55,14 4,14.45 4,15L4,17C4,18.65 5.35,20 7,20L10,20L10,18L7,18C6.45,18 6,17.55 6,17L6,15C6,13.7 5.16,12.58 4,12.17L4,11.83C5.16,11.42 6,10.3 6,9L6,7C6,6.45 6.45,6 7,6L10,6L10,4L7,4C5.35,4 4,5.35 4,7Z" style="fill:rgb(51,94,234);fill-rule:nonzero;"/>
            </g>
            <g transform="matrix(43.6371,0,0,43.6371,24782.4,61310.4)">
                <path d="M18.17,14.002C18.472,13.147 19.15,12.47 20,12.17L20,11.83C18.84,11.42 18,10.3 18,9L18,7C18,6.45 17.55,6 17,6L14,6L14,4L17,4C18.65,4 20,5.35 20,7L20,9C20,9.55 20.45,10 21,10L22,10L22,14L21,14C20.681,14 20.395,14.152 20.212,14.387C19.572,14.155 18.885,14.021 18.17,14.002Z" style="fill:rgb(51,94,234);fill-rule:nonzero;"/>
            </g>
            <g id="auto_awesome_24dp.svg" transform="matrix(13.2073,0,0,13.2073,25524.2,62111.9)">
                <g transform="matrix(1,0,0,1,-12,-12)">
                    <rect x="0" y="0" width="24" height="24" style="fill:none;fill-rule:nonzero;"/>
                    <path d="M19,9L20.25,6.25L23,5L20.25,3.75L19,1L17.75,3.75L15,5L17.75,6.25L19,9ZM11.5,9.5L9,4L6.5,9.5L1,12L6.5,14.5L9,20L11.5,14.5L17,12L11.5,9.5ZM19,15L17.75,17.75L15,19L17.75,20.25L19,23L20.25,20.25L23,19L20.25,17.75L19,15Z" style="fill:rgb(55,184,135);fill-rule:nonzero;"/>
                </g>
            </g>
        </g>
    </g>
</svg>
