<?xml version="1.0" encoding="UTF-8" standalone="no"?>
<!DOCTYPE svg PUBLIC "-//W3C//DTD SVG 1.1//EN" "http://www.w3.org/Graphics/SVG/1.1/DTD/svg11.dtd">
<svg width="100%" height="100%" viewBox="0 0 2000 2000" version="1.1" xmlns="http://www.w3.org/2000/svg" xmlns:xlink="http://www.w3.org/1999/xlink" xml:space="preserve" xmlns:serif="http://www.serif.com/" style="fill-rule:evenodd;clip-rule:evenodd;stroke-linejoin:round;stroke-miterlimit:2;">
    <g transform="matrix(1,0,0,1,-32684.5,-63109.8)">
        <g id="Sponsors">
        </g>
        <g id="jwt-decode" serif:id="jwt decode" transform="matrix(0.998004,0,0,0.998004,8429.05,2375.26)">
            <rect x="24304" y="60856" width="2004" height="2004" style="fill:none;"/>
            <g transform="matrix(0.986681,0,0,0.986681,211.155,539.933)">
                <g transform="matrix(44.0172,0,0,44.0172,24905.4,61593.4)">
                    <path d="M4,7L4,9C4,9.55 3.55,10 3,10L2,10L2,14L3,14C3.55,14 4,14.45 4,15L4,17C4,18.65 5.35,20 7,20L10,20L10,18L7,18C6.45,18 6,17.55 6,17L6,15C6,13.7 5.16,12.58 4,12.17L4,11.83C5.16,11.42 6,10.3 6,9L6,7C6,6.45 6.45,6 7,6L10,6L10,4L7,4C5.35,4 4,5.35 4,7Z" style="fill:rgb(51,94,234);fill-rule:nonzero;"/>
                </g>
                <g transform="matrix(44.0172,0,0,44.0172,24905.4,61593.4)">
                    <path d="M18.17,14.002C18.472,13.147 19.15,12.47 20,12.17L20,11.83C18.84,11.42 18,10.3 18,9L18,7C18,6.45 17.55,6 17,6L14,6L14,4L17,4C18.65,4 20,5.35 20,7L20,9C20,9.55 20.45,10 21,10L22,10L22,14L21,14C20.681,14 20.395,14.152 20.212,14.387C19.572,14.155 18.885,14.021 18.17,14.002Z" style="fill:rgb(51,94,234);fill-rule:nonzero;"/>
                </g>
            </g>
            <g id="key_24dp_E8EAED.svg" transform="matrix(17.2916,0,0,17.2916,25532.8,62106.4)">
                <g transform="matrix(1,0,0,1,-12,-12)">
                    <g>
                        <rect x="0" y="0" width="24" height="24" style="fill:none;"/>
                    </g>
                    <g>
                        <path d="M21,10L12.65,10C11.83,7.67 9.61,6 7,6C3.69,6 1,8.69 1,12C1,15.31 3.69,18 7,18C9.61,18 11.83,16.33 12.65,14L13,14L15,16L17,14L19,16L23,11.96L21,10ZM7,15C5.35,15 4,13.65 4,12C4,10.35 5.35,9 7,9C8.65,9 10,10.35 10,12C10,13.65 8.65,15 7,15Z" style="fill:rgb(55,184,135);fill-rule:nonzero;"/>
                    </g>
                </g>
            </g>
        </g>
    </g>
</svg>
