<?xml version="1.0" encoding="UTF-8" standalone="no"?>
<!DOCTYPE svg PUBLIC "-//W3C//DTD SVG 1.1//EN" "http://www.w3.org/Graphics/SVG/1.1/DTD/svg11.dtd">
<svg width="100%" height="100%" viewBox="0 0 2000 2000" version="1.1" xmlns="http://www.w3.org/2000/svg" xmlns:xlink="http://www.w3.org/1999/xlink" xml:space="preserve" xmlns:serif="http://www.serif.com/" style="fill-rule:evenodd;clip-rule:evenodd;stroke-linejoin:round;stroke-miterlimit:2;">
    <g transform="matrix(1,0,0,1,-34874,-63129.6)">
        <g id="Sponsors">
        </g>
        <g id="markdown-to-html" serif:id="markdown to html" transform="matrix(0.998004,0,0,0.998004,10618.5,2395.03)">
            <rect x="24304" y="60856" width="2004" height="2004" style="fill:none;"/>
            <g transform="matrix(1,0,0,1,-11.2932,0)">
                <g transform="matrix(36.0564,0,0,40.7324,25485.7,61369.2)">
                    <path d="M9.4,16.6L4.8,12L9.4,7.4L8,6L2,12L8,18L9.4,16.6ZM14.6,16.6L19.2,12L14.6,7.4L16,6L22,12L16,18L14.6,16.6Z" style="fill:rgb(51,94,234);fill-rule:nonzero;"/>
                </g>
                <g id="sync_alt_black_24dp.svg" transform="matrix(16.199,0,0,16.199,25306,61858)">
                    <g transform="matrix(1,0,0,1,-12,-12)">
                        <g>
                            <rect x="0" y="0" width="24" height="24" style="fill:none;"/>
                        </g>
                        <g>
                            <g>
                                <path d="M18,12L22,8L18,4L18,7L3,7L3,9L18,9L18,12Z" style="fill:rgb(55,184,135);fill-rule:nonzero;"/>
                                <path d="M6,12L2,16L6,20L6,17L21,17L21,15L6,15L6,12Z" style="fill:rgb(55,184,135);fill-rule:nonzero;"/>
                            </g>
                        </g>
                    </g>
                </g>
                <g id="markdown-svgrepo-com.svg" transform="matrix(0.881788,0,0,0.881788,24708.4,61858)">
                    <g transform="matrix(1,0,0,1,-400,-400)">
                        <path d="M133.333,293.333L152.189,274.477C144.563,266.851 133.093,264.569 123.129,268.697C113.164,272.824 106.667,282.548 106.667,293.333L133.333,293.333ZM240,400L221.144,418.856L240,437.713L258.856,418.856L240,400ZM346.667,293.333L373.333,293.333C373.333,282.548 366.836,272.824 356.871,268.697C346.907,264.569 335.437,266.851 327.811,274.477L346.667,293.333ZM560,506.667L541.141,525.523L560,544.379L578.859,525.523L560,506.667ZM80,160L720,160L720,106.667L80,106.667L80,160ZM746.667,186.667L746.667,613.333L800,613.333L800,186.667L746.667,186.667ZM720,640L80,640L80,693.333L720,693.333L720,640ZM53.333,613.333L53.333,186.667L0,186.667L0,613.333L53.333,613.333ZM80,640C65.273,640 53.333,628.059 53.333,613.333L0,613.333C0,657.515 35.817,693.333 80,693.333L80,640ZM746.667,613.333C746.667,628.059 734.725,640 720,640L720,693.333C764.181,693.333 800,657.515 800,613.333L746.667,613.333ZM720,160C734.725,160 746.667,171.939 746.667,186.667L800,186.667C800,142.484 764.181,106.667 720,106.667L720,160ZM80,106.667C35.817,106.667 0,142.484 0,186.667L53.333,186.667C53.333,171.939 65.273,160 80,160L80,106.667ZM160,533.333L160,293.333L106.667,293.333L106.667,533.333L160,533.333ZM114.477,312.189L221.144,418.856L258.856,381.144L152.189,274.477L114.477,312.189ZM258.856,418.856L365.523,312.189L327.811,274.477L221.144,381.144L258.856,418.856ZM320,293.333L320,533.333L373.333,533.333L373.333,293.333L320,293.333ZM533.333,266.667L533.333,506.667L586.667,506.667L586.667,266.667L533.333,266.667ZM434.477,418.856L541.141,525.523L578.859,487.811L472.189,381.144L434.477,418.856ZM578.859,525.523L685.525,418.856L647.808,381.144L541.141,487.811L578.859,525.523Z" style="fill:rgb(51,94,234);fill-rule:nonzero;"/>
                    </g>
                </g>
            </g>
        </g>
    </g>
</svg>
