<?xml version="1.0" encoding="UTF-8" standalone="no"?>
<!DOCTYPE svg PUBLIC "-//W3C//DTD SVG 1.1//EN" "http://www.w3.org/Graphics/SVG/1.1/DTD/svg11.dtd">
<svg width="100%" height="100%" viewBox="0 0 2000 2000" version="1.1" xmlns="http://www.w3.org/2000/svg" xmlns:xlink="http://www.w3.org/1999/xlink" xml:space="preserve" xmlns:serif="http://www.serif.com/" style="fill-rule:evenodd;clip-rule:evenodd;stroke-linejoin:round;stroke-miterlimit:2;">
    <g transform="matrix(1,0,0,1,-37149.9,-63147.1)">
        <g id="Sponsors">
        </g>
        <g id="password-generator" serif:id="password generator" transform="matrix(0.998004,0,0,0.998004,12894.5,2412.54)">
            <rect x="24304" y="60856" width="2004" height="2004" style="fill:none;"/>
            <g id="password_24dp_E8EAED.svg" transform="matrix(39.743,0,0,39.743,25306,61858)">
                <g transform="matrix(1,0,0,1,-12,-12)">
                    <g>
                        <rect x="0" y="0" width="24" height="24" style="fill:none;fill-rule:nonzero;"/>
                    </g>
                    <g>
                        <g>
                            <path d="M16.034,19L2,19L2,17L15.557,17C15.573,17.715 15.743,18.392 16.034,19ZM18.333,12.479L17.85,12.2L18.7,10.72L17,10.72L17,9.22L18.7,9.22L17.85,7.75L19.15,7L20,8.47L20.85,7L22.15,7.75L21.3,9.22L23,9.22L23,10.72L21.3,10.72L22.15,12.2L22.036,12.265C21.537,12.093 21.002,12 20.444,12C20.398,12 20.352,12.001 20.306,12.002L20,11.47L19.66,12.063C19.192,12.138 18.747,12.28 18.333,12.479ZM3.15,12.95L1.85,12.2L2.7,10.72L1,10.72L1,9.22L2.7,9.22L1.85,7.75L3.15,7L4,8.47L4.85,7L6.15,7.75L5.3,9.22L7,9.22L7,10.72L5.3,10.72L6.15,12.2L4.85,12.95L4,11.47L3.15,12.95ZM9.85,12.2L10.7,10.72L9,10.72L9,9.22L10.7,9.22L9.85,7.75L11.15,7L12,8.47L12.85,7L14.15,7.75L13.3,9.22L15,9.22L15,10.72L13.3,10.72L14.15,12.2L12.85,12.95L12,11.47L11.15,12.95L9.85,12.2Z" style="fill:rgb(51,94,234);"/>
                        </g>
                        <g id="auto_fix_high_24dp_E8EAED.svg" transform="matrix(0.310406,0,0,0.310406,20.2751,16.7249)">
                            <g transform="matrix(1,0,0,1,-12,-12)">
                                <rect x="0" y="0" width="24" height="24" style="fill:none;fill-rule:nonzero;"/>
                                <path d="M7.5,5.6L10,7L8.6,4.5L10,2L7.5,3.4L5,2L6.4,4.5L5,7L7.5,5.6ZM19.5,15.4L17,14L18.4,16.5L17,19L19.5,17.6L22,19L20.6,16.5L22,14L19.5,15.4ZM22,2L19.5,3.4L17,2L18.4,4.5L17,7L19.5,5.6L22,7L20.6,4.5L22,2ZM14.37,7.29C13.98,6.9 13.35,6.9 12.96,7.29L1.29,18.96C0.9,19.35 0.9,19.98 1.29,20.37L3.63,22.71C4.02,23.1 4.65,23.1 5.04,22.71L16.7,11.05C17.09,10.66 17.09,10.03 16.7,9.64L14.37,7.29ZM13.34,12.78L11.22,10.66L13.66,8.22L15.78,10.34L13.34,12.78Z" style="fill:rgb(55,184,135);fill-rule:nonzero;"/>
                            </g>
                        </g>
                    </g>
                </g>
            </g>
        </g>
    </g>
</svg>
