<?xml version="1.0" encoding="UTF-8" standalone="no"?>
<!DOCTYPE svg PUBLIC "-//W3C//DTD SVG 1.1//EN" "http://www.w3.org/Graphics/SVG/1.1/DTD/svg11.dtd">
<svg width="100%" height="100%" viewBox="0 0 2000 2000" version="1.1" xmlns="http://www.w3.org/2000/svg" xmlns:xlink="http://www.w3.org/1999/xlink" xml:space="preserve" xmlns:serif="http://www.serif.com/" style="fill-rule:evenodd;clip-rule:evenodd;stroke-linejoin:round;stroke-miterlimit:2;">
    <g transform="matrix(1,0,0,1,-39491.1,-63147.1)">
        <g id="Sponsors">
        </g>
        <g id="sla" transform="matrix(0.998004,0,0,0.998004,15235.6,2412.54)">
            <rect x="24304" y="60856" width="2004" height="2004" style="fill:none;"/>
            <g id="dns_24dp_E8EAED.svg" transform="matrix(42.5427,0,0,42.5427,25306,61858)">
                <g transform="matrix(1,0,0,1,-12,-12)">
                    <rect x="0" y="0" width="24" height="24" style="fill:none;fill-rule:nonzero;"/>
                    <path d="M16.156,21L4,21C3.45,21 3,20.55 3,20L3,14C3,13.45 3.45,13 4,13L20,13C20.55,13 21,13.45 21,14L21,16.156C20.686,16.076 20.356,16.034 20.017,16.034C17.819,16.034 16.034,17.819 16.034,20.017C16.034,20.356 16.076,20.686 16.156,21ZM7,19C8.1,19 9,18.1 9,17C9,15.9 8.1,15 7,15C5.9,15 5,15.9 5,17C5,18.1 5.9,19 7,19ZM20,3C20.55,3 21,3.45 21,4L21,10C21,10.55 20.55,11 20,11L4,11C3.45,11 3,10.55 3,10L3,4C3,3.45 3.45,3 4,3L20,3ZM7,9C8.1,9 9,8.1 9,7C9,5.9 8.1,5 7,5C5.9,5 5,5.9 5,7C5,8.1 5.9,9 7,9Z" style="fill:rgb(51,94,234);"/>
                    <g id="schedule_24dp_E8EAED.svg" transform="matrix(0.331499,0,0,0.331499,20.022,20.022)">
                        <g transform="matrix(1,0,0,1,-12,-12)">
                            <rect x="0" y="0" width="24" height="24" style="fill:none;fill-rule:nonzero;"/>
                            <path d="M11.99,2C6.47,2 2,6.48 2,12C2,17.52 6.47,22 11.99,22C17.52,22 22,17.52 22,12C22,6.48 17.52,2 11.99,2ZM12,20C7.58,20 4,16.42 4,12C4,7.58 7.58,4 12,4C16.42,4 20,7.58 20,12C20,16.42 16.42,20 12,20Z" style="fill:rgb(55,184,135);fill-rule:nonzero;"/>
                            <path d="M12.5,7L11,7L11,13L16.25,16.15L17,14.92L12.5,12.25L12.5,7Z" style="fill:rgb(55,184,135);fill-rule:nonzero;"/>
                        </g>
                    </g>
                </g>
            </g>
        </g>
    </g>
</svg>
