<?xml version="1.0" encoding="UTF-8" standalone="no"?>
<!DOCTYPE svg PUBLIC "-//W3C//DTD SVG 1.1//EN" "http://www.w3.org/Graphics/SVG/1.1/DTD/svg11.dtd">
<svg width="100%" height="100%" viewBox="0 0 2000 2000" version="1.1" xmlns="http://www.w3.org/2000/svg" xmlns:xlink="http://www.w3.org/1999/xlink" xml:space="preserve" xmlns:serif="http://www.serif.com/" style="fill-rule:evenodd;clip-rule:evenodd;stroke-linejoin:round;stroke-miterlimit:2;">
    <g transform="matrix(1,0,0,1,-46233.6,-60816)">
        <g id="Sponsors">
        </g>
        <g id="string-length" transform="matrix(0.998004,0,0,0.998004,21978.1,81.4691)">
            <rect x="24304" y="60856" width="2004" height="2004" style="fill:none;"/>
            <g id="straighten_black_24dp.svg" transform="matrix(53.5235,0,0,53.5235,25347.8,61962.3)">
                <g transform="matrix(1,0,0,1,-12,-12)">
                    <rect x="0" y="0" width="24" height="24" style="fill:none;fill-rule:nonzero;"/>
                    <g transform="matrix(1,0,0,1,0,1.5)">
                        <path d="M21,6L3,6C1.9,6 1,6.9 1,8L1,13C1,14.1 1.9,15 3,15L21,15C22.1,15 23,14.1 23,13L23,8C23,6.9 22.1,6 21,6ZM21,13L3,13L3,8L5,8L5,10L7,10L7,8L9,8L9,10L11,10L11,8L13,8L13,10L15,10L15,8L17,8L17,10L19,10L19,8L21,8L21,13Z" style="fill:rgb(51,94,234);fill-rule:nonzero;"/>
                    </g>
                </g>
            </g>
            <g transform="matrix(0.949774,0,0,0.949774,16229.4,50131.5)">
                <path d="M9071.77,12067.4L9063.99,12047.3L9062.93,12047.3C9056.17,12055.9 9049.2,12061.8 9042.04,12065.1C9034.88,12068.4 9025.54,12070 9014.02,12070C8999.87,12070 8988.73,12066 8980.6,12057.9C8972.47,12049.8 8968.41,12038.3 8968.41,12023.3C8968.41,12007.7 8973.88,11996.2 8984.82,11988.7C8995.76,11981.3 9012.27,11977.2 9034.33,11976.4L9059.9,11975.6L9059.9,11969.2C9059.9,11954.2 9052.26,11946.8 9036.96,11946.8C9025.19,11946.8 9011.34,11950.3 8995.43,11957.4L8982.12,11930.3C8999.08,11921.4 9017.89,11917 9038.55,11917C9058.32,11917 9073.48,11921.3 9084.03,11929.9C9094.57,11938.5 9099.85,11951.6 9099.85,11969.2L9099.85,12067.4L9071.77,12067.4ZM9059.9,11999.1L9044.35,11999.6C9032.66,12000 9023.95,12002.1 9018.24,12005.9C9012.53,12009.8 9009.67,12015.7 9009.67,12023.6C9009.67,12035 9016.18,12040.6 9029.18,12040.6C9038.5,12040.6 9045.95,12037.9 9051.53,12032.6C9057.11,12027.2 9059.9,12020.1 9059.9,12011.2L9059.9,11999.1Z" style="fill:rgb(55,184,135);fill-rule:nonzero;"/>
                <path d="M9223.25,11917.2C9240.65,11917.2 9254.27,11924 9264.11,11937.6C9273.96,11951.2 9278.88,11969.8 9278.88,11993.4C9278.88,12017.8 9273.8,12036.6 9263.65,12050C9253.5,12063.3 9239.68,12070 9222.19,12070C9204.88,12070 9191.3,12063.7 9181.45,12051.2L9178.68,12051.2L9171.96,12067.4L9141.24,12067.4L9141.24,11862.2L9181.45,11862.2L9181.45,11910C9181.45,11916 9180.93,11925.7 9179.87,11939.1L9181.45,11939.1C9190.86,11924.5 9204.79,11917.2 9223.25,11917.2ZM9210.33,11949.4C9200.39,11949.4 9193.14,11952.4 9188.57,11958.6C9184,11964.7 9181.63,11974.7 9181.45,11988.8L9181.45,11993.2C9181.45,12009 9183.8,12020.3 9188.51,12027.2C9193.21,12034 9200.66,12037.5 9210.85,12037.5C9219.11,12037.5 9225.68,12033.7 9230.56,12026.1C9235.44,12018.4 9237.88,12007.4 9237.88,11992.9C9237.88,11978.4 9235.42,11967.5 9230.5,11960.3C9225.57,11953 9218.85,11949.4 9210.33,11949.4Z" style="fill:rgb(55,184,135);fill-rule:nonzero;"/>
                <path d="M9371.95,12070C9326.08,12070 9303.14,12044.8 9303.14,11994.5C9303.14,11969.4 9309.38,11950.3 9321.86,11937.1C9334.34,11923.8 9352.22,11917.2 9375.51,11917.2C9392.56,11917.2 9407.86,11920.6 9421.39,11927.2L9409.53,11958.4C9403.2,11955.8 9397.31,11953.7 9391.86,11952.1C9386.41,11950.5 9380.96,11949.7 9375.51,11949.7C9354.59,11949.7 9344.14,11964.5 9344.14,11994.2C9344.14,12023 9354.59,12037.5 9375.51,12037.5C9383.25,12037.5 9390.41,12036.4 9397,12034.4C9403.59,12032.3 9410.18,12029.1 9416.78,12024.7L9416.78,12059.1C9410.27,12063.2 9403.7,12066.1 9397.07,12067.6C9390.43,12069.2 9382.06,12070 9371.95,12070Z" style="fill:rgb(55,184,135);fill-rule:nonzero;"/>
                <path d="M9497.59,12070C9480.28,12070 9466.68,12063.3 9456.79,12049.8C9446.9,12036.4 9441.96,12017.8 9441.96,11993.9C9441.96,11969.8 9446.99,11951 9457.05,11937.5C9467.12,11924 9480.98,11917.2 9498.65,11917.2C9517.19,11917.2 9531.34,11924.4 9541.1,11938.8L9542.42,11938.8C9540.39,11927.9 9539.38,11918.1 9539.38,11909.4L9539.38,11862.2L9579.72,11862.2L9579.72,12067.4L9548.88,12067.4L9541.1,12048.3L9539.38,12048.3C9530.24,12062.8 9516.31,12070 9497.59,12070ZM9511.7,12038C9521.98,12038 9529.52,12035 9534.31,12029C9539.1,12023 9541.71,12012.9 9542.15,11998.6L9542.15,11994.2C9542.15,11978.4 9539.71,11967.1 9534.84,11960.2C9529.96,11953.3 9522.02,11949.9 9511.04,11949.9C9502.07,11949.9 9495.11,11953.7 9490.14,11961.3C9485.18,11968.9 9482.69,11980 9482.69,11994.5C9482.69,12009 9485.2,12019.9 9490.21,12027.1C9495.22,12034.4 9502.38,12038 9511.7,12038Z" style="fill:rgb(55,184,135);fill-rule:nonzero;"/>
                <path d="M9682.82,11945.8C9674.29,11945.8 9667.61,11948.5 9662.78,11953.9C9657.95,11959.3 9655.18,11967 9654.47,11976.9L9710.9,11976.9C9710.72,11967 9708.13,11959.3 9703.12,11953.9C9698.11,11948.5 9691.34,11945.8 9682.82,11945.8ZM9688.49,12070C9664.76,12070 9646.21,12063.5 9632.85,12050.4C9619.49,12037.3 9612.81,12018.7 9612.81,11994.7C9612.81,11970 9618.99,11951 9631.34,11937.5C9643.69,11924 9660.76,11917.2 9682.56,11917.2C9703.38,11917.2 9719.6,11923.2 9731.2,11935C9742.8,11946.9 9748.6,11963.3 9748.6,11984.2L9748.6,12003.7L9653.55,12003.7C9653.99,12015.1 9657.37,12024.1 9663.7,12030.5C9670.03,12036.9 9678.91,12040.1 9690.33,12040.1C9699.21,12040.1 9707.6,12039.2 9715.51,12037.3C9723.42,12035.5 9731.68,12032.5 9740.3,12028.5L9740.3,12059.6C9733.27,12063.1 9725.75,12065.7 9717.75,12067.4C9709.76,12069.2 9700,12070 9688.49,12070Z" style="fill:rgb(55,184,135);fill-rule:nonzero;"/>
                <path d="M9862.77,11950.2L9827.97,11950.2L9827.97,12067.4L9787.76,12067.4L9787.76,11950.2L9765.61,11950.2L9765.61,11930.8L9787.76,11920L9787.76,11909.2C9787.76,11892.4 9791.89,11880.1 9800.15,11872.4C9808.41,11864.7 9821.64,11860.8 9839.83,11860.8C9853.72,11860.8 9866.07,11862.9 9876.88,11867L9866.59,11896.5C9858.51,11894 9851.04,11892.7 9844.18,11892.7C9838.47,11892.7 9834.34,11894.4 9831.79,11897.8C9829.24,11901.2 9827.97,11905.5 9827.97,11910.8L9827.97,11920L9862.77,11920L9862.77,11950.2Z" style="fill:rgb(55,184,135);fill-rule:nonzero;"/>
                <path d="M10014.1,11920L10014.1,11940.4L9991.05,11946.4C9995.26,11952.9 9997.38,11960.3 9997.38,11968.5C9997.38,11984.3 9991.86,11996.7 9980.83,12005.5C9969.8,12014.3 9954.48,12018.7 9934.89,12018.7L9927.63,12018.3L9921.7,12017.7C9917.57,12020.8 9915.51,12024.4 9915.51,12028.2C9915.51,12034 9922.89,12036.9 9937.65,12036.9L9962.7,12036.9C9978.87,12036.9 9991.2,12040.4 9999.68,12047.3C10008.2,12054.3 10012.4,12064.5 10012.4,12077.9C10012.4,12095.2 10005.2,12108.5 9990.85,12118C9976.48,12127.5 9955.85,12132.2 9928.95,12132.2C9908.39,12132.2 9892.68,12128.7 9881.82,12121.5C9870.97,12114.3 9865.54,12104.3 9865.54,12091.4C9865.54,12082.5 9868.31,12075.1 9873.85,12069.1C9879.38,12063.1 9887.51,12058.9 9898.24,12056.3C9894.1,12054.5 9890.5,12051.7 9887.43,12047.7C9884.35,12043.7 9882.81,12039.4 9882.81,12035C9882.81,12029.3 9884.44,12024.6 9887.69,12020.9C9890.94,12017.2 9895.64,12013.5 9901.8,12009.9C9894.06,12006.6 9887.93,12001.2 9883.4,11993.8C9878.88,11986.4 9876.61,11977.7 9876.61,11967.7C9876.61,11951.6 9881.84,11939.2 9892.3,11930.4C9902.76,11921.6 9917.7,11917.2 9937.13,11917.2C9941.26,11917.2 9946.16,11917.6 9951.83,11918.3C9957.5,11919.1 9961.12,11919.6 9962.7,11920L10014.1,11920ZM9900.34,12088.2C9900.34,12093.7 9903,12098.1 9908.32,12101.3C9913.64,12104.4 9921.09,12106 9930.67,12106C9945.08,12106 9956.37,12104 9964.55,12100.1C9972.72,12096.1 9976.81,12090.7 9976.81,12083.9C9976.81,12078.3 9974.39,12074.5 9969.56,12072.4C9964.72,12070.3 9957.25,12069.2 9947.15,12069.2L9926.32,12069.2C9918.93,12069.2 9912.76,12071 9907.79,12074.4C9902.83,12077.9 9900.34,12082.5 9900.34,12088.2ZM9914.98,11968.2C9914.98,11976.2 9916.8,11982.6 9920.45,11987.2C9924.1,11991.9 9929.66,11994.2 9937.13,11994.2C9944.68,11994.2 9950.22,11991.9 9953.74,11987.2C9957.25,11982.6 9959.01,11976.2 9959.01,11968.2C9959.01,11950.5 9951.72,11941.6 9937.13,11941.6C9922.36,11941.6 9914.98,11950.5 9914.98,11968.2Z" style="fill:rgb(55,184,135);fill-rule:nonzero;"/>
                <path d="M10032.7,12048.5C10032.7,12041.1 10034.7,12035.6 10038.6,12031.8C10042.6,12028 10048.4,12026.1 10055.9,12026.1C10063.2,12026.1 10068.9,12028.1 10072.9,12031.9C10076.8,12035.8 10078.8,12041.3 10078.8,12048.5C10078.8,12055.5 10076.8,12060.9 10072.8,12064.9C10068.7,12068.9 10063.1,12070.9 10055.9,12070.9C10048.5,12070.9 10042.8,12069 10038.8,12065.1C10034.7,12061.2 10032.7,12055.6 10032.7,12048.5Z" style="fill:rgb(55,184,135);fill-rule:nonzero;"/>
                <path d="M10109.7,12048.5C10109.7,12041.1 10111.7,12035.6 10115.6,12031.8C10119.6,12028 10125.3,12026.1 10132.9,12026.1C10140.2,12026.1 10145.8,12028.1 10149.8,12031.9C10153.8,12035.8 10155.8,12041.3 10155.8,12048.5C10155.8,12055.5 10153.8,12060.9 10149.8,12064.9C10145.7,12068.9 10140.1,12070.9 10132.9,12070.9C10125.5,12070.9 10119.8,12069 10115.8,12065.1C10111.7,12061.2 10109.7,12055.6 10109.7,12048.5Z" style="fill:rgb(55,184,135);fill-rule:nonzero;"/>
                <path d="M10186.7,12048.5C10186.7,12041.1 10188.7,12035.6 10192.6,12031.8C10196.6,12028 10202.3,12026.1 10209.9,12026.1C10217.2,12026.1 10222.8,12028.1 10226.8,12031.9C10230.8,12035.8 10232.8,12041.3 10232.8,12048.5C10232.8,12055.5 10230.8,12060.9 10226.8,12064.9C10222.7,12068.9 10217.1,12070.9 10209.9,12070.9C10202.5,12070.9 10196.8,12069 10192.8,12065.1C10188.7,12061.2 10186.7,12055.6 10186.7,12048.5Z" style="fill:rgb(55,184,135);fill-rule:nonzero;"/>
            </g>
        </g>
    </g>
</svg>
