<?xml version="1.0" encoding="UTF-8" standalone="no"?>
<!DOCTYPE svg PUBLIC "-//W3C//DTD SVG 1.1//EN" "http://www.w3.org/Graphics/SVG/1.1/DTD/svg11.dtd">
<svg width="100%" height="100%" viewBox="0 0 2000 2000" version="1.1" xmlns="http://www.w3.org/2000/svg" xmlns:xlink="http://www.w3.org/1999/xlink" xml:space="preserve" xmlns:serif="http://www.serif.com/" style="fill-rule:evenodd;clip-rule:evenodd;stroke-linejoin:round;stroke-miterlimit:2;">
    <g transform="matrix(1,0,0,1,-40107,-60816)">
        <g id="Sponsors">
        </g>
        <g id="string-length" transform="matrix(0.998004,0,0,0.998004,15851.5,81.4691)">
            <rect x="24304" y="60856" width="2004" height="2004" style="fill:none;"/>
            <g id="straighten_black_24dp.svg" transform="matrix(53.5235,0,0,53.5235,25347.8,61962.3)">
                <g transform="matrix(1,0,0,1,-12,-12)">
                    <rect x="0" y="0" width="24" height="24" style="fill:none;fill-rule:nonzero;"/>
                    <g transform="matrix(1,0,0,1,0,1.5)">
                        <path d="M21,6L3,6C1.9,6 1,6.9 1,8L1,13C1,14.1 1.9,15 3,15L21,15C22.1,15 23,14.1 23,13L23,8C23,6.9 22.1,6 21,6ZM21,13L3,13L3,8L5,8L5,10L7,10L7,8L9,8L9,10L11,10L11,8L13,8L13,10L15,10L15,8L17,8L17,10L19,10L19,8L21,8L21,13Z" style="fill:rgb(51,94,234);fill-rule:nonzero;"/>
                    </g>
                </g>
            </g>
            <g transform="matrix(0.949774,0,0,0.949774,16229.4,50131.5)">
                <text x="8957.07px" y="12067.4px" style="font-family:'OpenSans-Bold', 'Open Sans', sans-serif;font-weight:700;font-size:269.996px;fill:rgb(55,184,135);">abcdefg...</text>
            </g>
        </g>
    </g>
</svg>
