<?xml version="1.0" encoding="UTF-8" standalone="no"?>
<!DOCTYPE svg PUBLIC "-//W3C//DTD SVG 1.1//EN" "http://www.w3.org/Graphics/SVG/1.1/DTD/svg11.dtd">
<svg width="100%" height="100%" viewBox="0 0 1024 1024" version="1.1" xmlns="http://www.w3.org/2000/svg" xmlns:xlink="http://www.w3.org/1999/xlink" xml:space="preserve" xmlns:serif="http://www.serif.com/" style="fill-rule:evenodd;clip-rule:evenodd;stroke-linejoin:round;stroke-miterlimit:2;">
    <g transform="matrix(1,0,0,1,-54.8333,-29604.8)">
        <g id="training" transform="matrix(0.339642,0,0,0.339642,3389.89,17604.9)">
            <rect x="-9819.34" y="35331" width="3014.94" height="3014.94" style="fill:none;"/>
            <g id="At-the-office-rafiki.svg" serif:id="At the office-rafiki.svg" transform="matrix(6.02988,0,0,6.02988,-8311.87,36838.5)">
                <g transform="matrix(1,0,0,1,-250,-250)">
                    <g id="freepik--background-simple--inject-190">
                        <path d="M422.05,184.81C413.59,242.6 362.8,298.26 307.6,333C164.85,423.64 33.16,251.89 68.82,194.2C95.96,135.2 175.7,155.63 210.36,133.61C405.19,8.89 429.87,136.49 422.05,184.81Z" style="fill:white;fill-opacity:0.45;fill-rule:nonzero;"/>
                    </g>
                    <g id="freepik--Shadow--inject-190">
                        <ellipse id="freepik--path--inject-190" cx="250" cy="416.24" rx="193.89" ry="11.32" style="fill:rgb(245,245,245);"/>
                    </g>
                    <g id="freepik--Board--inject-190">
                        <path d="M343.31,251.79L104.76,251.79C98.147,251.74 92.683,246.4 92.48,239.79L89.35,104.67C89.347,104.57 89.346,104.47 89.346,104.37C89.346,97.952 94.628,92.67 101.046,92.67C101.054,92.67 101.062,92.67 101.07,92.67L339.62,92.67C346.233,92.72 351.697,98.06 351.9,104.67L355,239.79C355.003,239.89 355.004,239.99 355.004,240.09C355.004,246.506 349.726,251.787 343.31,251.79Z" style="fill:rgb(51,94,234);fill-rule:nonzero;"/>
                        <path d="M343.31,252.29L104.76,252.29C97.884,252.24 92.203,246.683 92,239.81L88.85,104.68C88.847,104.573 88.846,104.467 88.846,104.36C88.846,97.673 94.349,92.17 101.036,92.17C101.047,92.17 101.059,92.17 101.07,92.17L339.62,92.17C346.507,92.21 352.202,97.776 352.4,104.66L355.53,239.78C355.533,239.887 355.534,239.993 355.534,240.1C355.534,246.787 350.031,252.29 343.344,252.29C343.333,252.29 343.321,252.29 343.31,252.29ZM101.07,93.17C101.059,93.17 101.047,93.17 101.036,93.17C94.897,93.17 89.846,98.221 89.846,104.36C89.846,104.46 89.847,104.56 89.85,104.66L93,239.78C93.182,246.125 98.432,251.255 104.78,251.29L343.31,251.29C343.318,251.29 343.326,251.29 343.334,251.29C349.478,251.29 354.534,246.234 354.534,240.09C354.534,239.997 354.532,239.903 354.53,239.81L351.4,104.68C351.218,98.335 345.968,93.205 339.62,93.17L101.07,93.17Z" style="fill:rgb(51,94,234);fill-rule:nonzero;"/>
                        <path d="M345.31,251.79L106.76,251.79C100.147,251.74 94.683,246.4 94.48,239.79L91.35,104.67C91.347,104.57 91.346,104.47 91.346,104.37C91.346,97.952 96.628,92.67 103.046,92.67C103.054,92.67 103.062,92.67 103.07,92.67L341.62,92.67C348.233,92.72 353.697,98.06 353.9,104.67L357,239.79C357.003,239.89 357.004,239.99 357.004,240.09C357.004,246.506 351.726,251.787 345.31,251.79Z" style="fill:rgb(245,245,245);fill-rule:nonzero;"/>
                        <path d="M345.31,252.29L106.76,252.29C99.884,252.24 94.203,246.683 94,239.81L90.85,104.68C90.847,104.573 90.846,104.467 90.846,104.36C90.846,97.673 96.349,92.17 103.036,92.17C103.047,92.17 103.059,92.17 103.07,92.17L341.62,92.17C348.507,92.21 354.202,97.776 354.4,104.66L357.53,239.78C357.533,239.887 357.534,239.993 357.534,240.1C357.534,246.787 352.031,252.29 345.344,252.29C345.333,252.29 345.321,252.29 345.31,252.29ZM103.07,93.17C103.059,93.17 103.047,93.17 103.036,93.17C96.897,93.17 91.846,98.221 91.846,104.36C91.846,104.46 91.847,104.56 91.85,104.66L95,239.78C95.182,246.125 100.432,251.255 106.78,251.29L345.31,251.29C345.318,251.29 345.326,251.29 345.334,251.29C351.478,251.29 356.534,246.234 356.534,240.09C356.534,239.997 356.532,239.903 356.53,239.81L353.4,104.68C353.218,98.335 347.968,93.205 341.62,93.17L103.07,93.17Z" style="fill:rgb(51,94,234);fill-rule:nonzero;"/>
                        <path d="M138.23,130.48L122.1,115.48C129.73,107.24 143.29,107.24 152.1,115.48C154.917,118.096 157.046,121.366 158.3,125L138.23,130.48Z" style="fill:rgb(224,224,224);fill-rule:nonzero;"/>
                        <path d="M134.87,130.81L113.87,132.66C113.368,129.619 113.546,126.504 114.39,123.54C115.225,120.653 116.722,117.999 118.76,115.79L134.87,130.81Z" style="fill:rgb(51,94,234);fill-opacity:0.2;fill-rule:nonzero;"/>
                        <path d="M138.23,132L126.59,144.58C125.021,143.117 123.7,141.408 122.68,139.52C121.678,137.648 121.001,135.619 120.68,133.52L138.23,132Z" style="fill:white;fill-rule:nonzero;"/>
                        <path d="M139.36,133.71L159.47,128.21C162.015,135.255 160.474,143.157 155.47,148.73C147.84,156.97 134.28,156.97 125.47,148.73L139.36,133.71Z" style="fill:rgb(51,94,234);fill-opacity:0.6;fill-rule:nonzero;"/>
                        <path d="M193.48,130.48L177.35,115.48C184.98,107.24 198.54,107.24 207.35,115.48C210.169,118.096 212.302,121.366 213.56,125L193.48,130.48Z" style="fill:rgb(51,94,234);fill-opacity:0.2;fill-rule:nonzero;"/>
                        <path d="M190.11,130.81L169.11,132.66C168.607,129.619 168.788,126.503 169.64,123.54C170.467,120.652 171.961,117.997 174,115.79L190.11,130.81Z" style="fill:rgb(224,224,224);fill-rule:nonzero;"/>
                        <path d="M193.48,132L181.83,144.58C180.261,143.117 178.94,141.408 177.92,139.52C176.918,137.648 176.241,135.619 175.92,133.52L193.48,132Z" style="fill:rgb(51,94,234);fill-opacity:0.6;fill-rule:nonzero;"/>
                        <path d="M194.6,133.71L214.71,128.21C217.262,135.254 215.72,143.16 210.71,148.73C203.08,156.97 189.52,156.97 180.71,148.73L194.6,133.71Z" style="fill:white;fill-rule:nonzero;"/>
                        <g opacity="0.3">
                            <path d="M106.93,232.37L106.88,232.37C106.61,232.334 106.412,232.092 106.43,231.82C107.57,220.04 114.87,208.75 125.96,201.63C135.57,195.46 147.78,192.34 161.35,192.63C164.83,192.7 168.35,192.99 171.78,193.28C176.984,193.831 182.22,194.011 187.45,193.82C193.3,193.47 204.04,191.68 210.2,183.58C212.274,180.58 213.954,177.327 215.2,173.9C216.86,169.9 218.57,165.69 221.64,162.47C225.72,158.18 231.99,155.74 240.29,155.21C244.572,155.015 248.862,155.055 253.14,155.33C256.83,155.5 260.65,155.68 264.4,155.53C271.02,155.27 280.17,153.68 286.14,147.53C288.88,144.73 290.78,141.15 292.62,137.69C293.62,135.89 294.57,134.02 295.68,132.26C299.478,126.271 304.755,121.36 311,118C311.073,117.96 311.154,117.939 311.237,117.939C311.418,117.939 311.585,118.04 311.67,118.2C311.797,118.442 311.708,118.745 311.47,118.88C305.348,122.176 300.18,126.999 296.47,132.88C295.38,134.61 294.39,136.46 293.47,138.25C291.6,141.77 289.67,145.41 286.82,148.32C281.91,153.32 274.16,156.21 264.4,156.59C260.62,156.74 256.78,156.59 253.07,156.39C248.825,156.12 244.569,156.08 240.32,156.27C232.32,156.78 226.23,159.12 222.32,163.27C219.38,166.35 217.71,170.44 216.08,174.39C214.811,177.9 213.093,181.231 210.97,184.3C204.56,192.71 193.5,194.57 187.47,194.93C182.197,195.123 176.917,194.94 171.67,194.38C168.27,194.1 164.75,193.81 161.3,193.74C147.97,193.46 135.91,196.53 126.47,202.59C115.64,209.59 108.47,220.59 107.4,232.04C107.324,232.234 107.138,232.364 106.93,232.37Z" style="fill:rgb(51,94,234);fill-rule:nonzero;"/>
                            <path d="M313.09,122.94L313,122.94C312.738,122.867 312.58,122.593 312.65,122.33L313.74,118.08C313.862,117.596 314.019,117.121 314.21,116.66C314.23,116.626 314.23,116.584 314.21,116.55C311.05,116.632 307.905,117.021 304.82,117.71C304.784,117.718 304.747,117.722 304.71,117.722C304.478,117.722 304.276,117.557 304.23,117.33C304.222,117.294 304.218,117.257 304.218,117.22C304.218,116.988 304.383,116.786 304.61,116.74C307.732,116.04 310.912,115.632 314.11,115.52C314.474,115.51 314.82,115.683 315.03,115.98C315.248,116.294 315.29,116.699 315.14,117.05C314.971,117.467 314.831,117.894 314.72,118.33L313.62,122.58C313.557,122.814 313.33,122.968 313.09,122.94Z" style="fill:rgb(51,94,234);fill-rule:nonzero;"/>
                        </g>
                    </g>
                    <g id="freepik--character-2--inject-190">
                        <path d="M354.44,111.89C354.44,111.89 340.44,105.75 336.33,123.06C333,137 326,142.22 326,142.22C326,142.22 350.75,151.78 364.55,140.57L354.44,111.89Z" style="fill:rgb(38,50,56);fill-rule:nonzero;"/>
                        <path d="M338.17,170.17C337.66,171.55 337.17,172.73 336.63,173.97C336.09,175.21 335.53,176.4 334.96,177.6C333.81,180 332.51,182.32 331.19,184.6C328.514,189.255 325.41,193.65 321.92,197.73L321.25,198.49C321.01,198.76 320.89,198.93 320.39,199.44C319.461,200.375 318.313,201.062 317.05,201.44C315.895,201.765 314.684,201.833 313.5,201.64C312.556,201.491 311.635,201.222 310.76,200.84C309.336,200.203 307.993,199.397 306.76,198.44C305.636,197.577 304.562,196.652 303.54,195.67C299.754,191.895 296.418,187.694 293.6,183.15L297.15,180.47C300.533,184.06 304.169,187.401 308.03,190.47C309.692,191.828 311.554,192.921 313.55,193.71C314.35,193.98 314.9,193.86 314.76,193.82C314.62,193.78 314.63,193.82 314.66,193.82C314.69,193.82 314.88,193.53 315.04,193.31L315.59,192.59C318.515,188.678 321.155,184.56 323.49,180.27C324.67,178.11 325.77,175.9 326.84,173.68C327.37,172.57 327.89,171.46 328.39,170.34C328.89,169.22 329.39,168.05 329.79,167.04L338.17,170.17Z" style="fill:rgb(255,195,189);fill-rule:nonzero;"/>
                        <path d="M335.32,158.14C331.58,158 325,171.6 325,171.6L334.73,183.39C334.73,183.39 346.07,169.16 344.52,164.56C342.86,159.77 340.76,158.33 335.32,158.14Z" style="fill:rgb(38,50,56);fill-rule:nonzero;"/>
                        <path d="M334.7,161.42L329.64,177.27L334.2,182.78L334.7,161.42Z" style="fill-opacity:0.2;fill-rule:nonzero;"/>
                        <path d="M296.35,184.78L286,182.16L293,176.63C293,176.63 298.2,178.82 298.53,182.46L296.35,184.78Z" style="fill:rgb(255,195,189);fill-rule:nonzero;"/>
                        <path d="M281.15,177.72L286.52,173.72L292.96,176.63L285.95,182.16L281.15,177.72Z" style="fill:rgb(255,195,189);fill-rule:nonzero;"/>
                        <path d="M361.73,402.23L352.95,402.23L353.38,381.89L362.16,381.89L361.73,402.23Z" style="fill:rgb(255,195,189);fill-rule:nonzero;"/>
                        <path d="M352.1,401.21L362,401.21C362.349,401.206 362.65,401.464 362.7,401.81L363.82,409.62C363.825,409.67 363.828,409.72 363.828,409.77C363.828,410.544 363.192,411.18 362.418,411.18C362.415,411.18 362.413,411.18 362.41,411.18C358.97,411.12 357.31,410.92 352.97,410.92C350.3,410.92 342.64,411.2 338.97,411.2C335.3,411.2 335.09,407.55 336.62,407.2C343.5,405.72 348.36,403.68 350.68,401.73C351.081,401.402 351.582,401.218 352.1,401.21Z" style="fill:rgb(38,50,56);fill-rule:nonzero;"/>
                        <g opacity="0.2">
                            <path d="M353.38,381.89L353.16,392.38L361.94,392.38L362.17,381.89L353.38,381.89Z" style="fill-rule:nonzero;"/>
                        </g>
                        <path d="M331.79,162.49C331.6,168.05 332.56,181.02 338.4,211.21L374.06,210.15C373.06,195.66 372.75,186.71 378.8,156.72C373.777,155.839 368.697,155.321 363.6,155.17C358.195,154.947 352.781,155.11 347.4,155.66C343.28,156.16 338.83,157.01 335.91,157.66C333.601,158.136 331.896,160.135 331.79,162.49Z" style="fill:rgb(38,50,56);fill-rule:nonzero;"/>
                        <path d="M361.45,137C360.58,142.24 359.85,151.82 363.6,155.18C360.782,159.616 356.342,162.782 351.23,164C343.01,159.83 347.4,155.66 347.4,155.66C353.17,154.1 352.89,149.79 351.76,145.77L361.45,137Z" style="fill:rgb(255,195,189);fill-rule:nonzero;"/>
                        <path d="M351.23,164L352.29,161.92L358,163.21L351.23,164Z" style="fill:rgb(224,224,224);fill-rule:nonzero;"/>
                        <path d="M352.29,161.92C354.13,161.08 362.61,155.56 362.94,153.83C363.61,154.56 367.2,154.78 367.2,154.78C367.2,154.78 365.05,164.65 360.89,171.87C358.05,165.43 355.35,163.92 352.29,161.92Z" style="fill:white;fill-rule:nonzero;"/>
                        <path d="M351.23,164L350.75,161.92L347.25,162.17L351.23,164Z" style="fill:rgb(224,224,224);fill-rule:nonzero;"/>
                        <path d="M350.75,161.92C347.92,160.04 348.61,156.11 348.89,154.39C348.22,155.11 344.63,155.33 344.63,155.33C344.63,155.33 339.55,164.65 343.72,171.87C345.69,166.69 347.69,163.92 350.75,161.92Z" style="fill:white;fill-rule:nonzero;"/>
                        <path d="M357.5,140.57L351.77,145.77C352.044,146.705 352.238,147.662 352.35,148.63C354.56,148.24 357.54,145.71 357.7,143.38C357.804,142.439 357.737,141.487 357.5,140.57Z" style="fill-opacity:0.2;fill-rule:nonzero;"/>
                        <path d="M364.3,125C364.19,133.72 364.3,137.41 360.16,142.08C353.88,149.08 343.16,147.08 340.7,138.5C338.46,130.79 339.01,117.83 347.35,113.95C348.934,113.204 350.663,112.818 352.414,112.818C358.936,112.818 364.304,118.185 364.304,124.708C364.304,124.805 364.302,124.903 364.3,125Z" style="fill:rgb(255,195,189);fill-rule:nonzero;"/>
                        <path d="M363.59,129.19L352.64,128.65C352.507,128.645 352.4,128.534 352.4,128.4C352.4,128.397 352.4,128.393 352.4,128.39C352.405,128.256 352.516,128.149 352.65,128.149C352.657,128.149 352.663,128.149 352.67,128.15L363.62,128.69C363.75,128.7 363.851,128.809 363.851,128.939C363.851,128.946 363.851,128.953 363.85,128.96C363.845,129.088 363.738,129.191 363.61,129.191C363.603,129.191 363.597,129.191 363.59,129.19Z" style="fill:white;fill-rule:nonzero;"/>
                        <path d="M338.4,211.21C338.4,211.21 342.91,276.46 345.4,303.13C348.01,330.88 351.4,390.35 351.4,390.35L363.27,390.35C363.27,390.35 365.75,329.87 364.81,302.5C363.81,272.67 364.44,210.44 364.44,210.44L338.4,211.21Z" style="fill:rgb(38,50,56);fill-rule:nonzero;"/>
                        <path d="M364.37,390.77L350.44,390.77L349.41,386.33L365.02,385.78L364.37,390.77Z" style="fill:rgb(51,94,234);fill-rule:nonzero;"/>
                        <path d="M364.35,233.74C362.91,232.14 361.35,232.97 359.57,237.53C353.64,253.09 359.96,277.92 364.57,292.22C364.26,274.42 364.27,251 364.35,233.74Z" style="fill-opacity:0.2;fill-rule:nonzero;"/>
                        <path d="M350,128.76C350,129.47 349.68,130.06 349.22,130.08C348.76,130.1 348.36,129.55 348.32,128.84C348.28,128.13 348.63,127.54 349.1,127.52C349.57,127.5 350,128.05 350,128.76Z" style="fill:rgb(38,50,56);fill-rule:nonzero;"/>
                        <path d="M342,129C342,129.71 341.68,130.3 341.22,130.32C340.76,130.34 340.36,129.79 340.32,129.08C340.28,128.37 340.63,127.78 341.1,127.76C341.57,127.74 342,128.24 342,129Z" style="fill:rgb(38,50,56);fill-rule:nonzero;"/>
                        <path d="M341.29,127.74L339.57,127.33C339.57,127.33 340.51,128.62 341.29,127.74Z" style="fill:rgb(38,50,56);fill-rule:nonzero;"/>
                        <path d="M345.08,129.53C344.531,131.175 343.757,132.737 342.78,134.17C343.534,134.664 344.471,134.792 345.33,134.52L345.08,129.53Z" style="fill:rgb(237,132,126);fill-rule:nonzero;"/>
                        <path d="M349.32,137.1C348.99,137.169 348.656,137.212 348.32,137.23C348.317,137.23 348.313,137.23 348.31,137.23C348.198,137.23 348.105,137.141 348.1,137.03C348.105,136.92 348.191,136.83 348.3,136.82C350.087,136.775 351.748,135.874 352.76,134.4C352.798,134.337 352.866,134.299 352.94,134.299C352.979,134.299 353.017,134.31 353.05,134.33C353.112,134.366 353.151,134.432 353.151,134.504C353.151,134.541 353.14,134.578 353.12,134.61C352.245,135.922 350.872,136.821 349.32,137.1Z" style="fill:rgb(38,50,56);fill-rule:nonzero;"/>
                        <path d="M367,132.86C366.488,134.464 365.357,135.8 363.86,136.57C361.86,137.57 360.44,135.9 360.63,133.79C360.8,131.9 362.04,129.08 364.22,128.95C364.26,128.948 364.3,128.947 364.341,128.947C365.91,128.947 367.201,130.239 367.201,131.807C367.201,132.168 367.133,132.525 367,132.86Z" style="fill:rgb(255,195,189);fill-rule:nonzero;"/>
                        <path d="M353.13,126.32C352.956,126.359 352.775,126.277 352.69,126.12C351.74,124.45 349.27,124.19 349.25,124.18C349.04,124.16 348.878,123.981 348.878,123.77C348.878,123.544 349.064,123.358 349.29,123.358C349.303,123.358 349.317,123.359 349.33,123.36C349.45,123.36 352.25,123.66 353.41,125.71C353.449,125.774 353.469,125.848 353.469,125.922C353.469,126.071 353.389,126.208 353.26,126.28L353.13,126.32Z" style="fill:rgb(38,50,56);fill-rule:nonzero;"/>
                        <path d="M339.42,124.92C339.276,124.954 339.125,124.904 339.03,124.79C338.95,124.713 338.905,124.606 338.905,124.495C338.905,124.384 338.95,124.277 339.03,124.2C340,123.28 341.358,122.885 342.67,123.14C342.892,123.198 343.027,123.428 342.97,123.65C342.907,123.868 342.681,124.001 342.46,123.95C341.42,123.753 340.346,124.079 339.59,124.82C339.542,124.866 339.484,124.901 339.42,124.92Z" style="fill:rgb(38,50,56);fill-rule:nonzero;"/>
                        <path d="M383.2,166.8C384.37,171.47 385.59,176.23 386.84,180.91C388.09,185.59 389.46,190.26 390.97,194.78C392.48,199.3 394.35,203.78 396.08,208.38C397.81,212.98 399.57,217.62 401.16,222.31L397.16,224.2C394.56,219.96 392.16,215.65 389.79,211.27C388.623,209.083 387.483,206.87 386.37,204.63C385.24,202.42 384.17,200.04 383.22,197.63C381.31,192.89 379.72,188.12 378.3,183.32C376.88,178.52 375.58,173.72 374.48,168.78L383.2,166.8Z" style="fill:rgb(255,195,189);fill-rule:nonzero;"/>
                        <path d="M378.8,156.72C382.4,157.72 387.06,169.87 387.06,169.87L373.49,180.19C373.49,180.19 368.13,170.08 369.49,165.41C370.92,160.56 374.68,155.6 378.8,156.72Z" style="fill:rgb(38,50,56);fill-rule:nonzero;"/>
                        <path d="M348.8,402.75C348.05,402.815 347.299,402.625 346.67,402.21C346.391,401.957 346.25,401.585 346.29,401.21C346.308,400.977 346.444,400.769 346.65,400.66C347.72,400.07 351.22,401.86 351.65,402.06C351.728,402.104 351.772,402.191 351.76,402.28C351.751,402.37 351.68,402.441 351.59,402.45C350.672,402.639 349.737,402.74 348.8,402.75ZM347.23,400.93C347.1,400.922 346.969,400.946 346.85,401C346.764,401.045 346.71,401.133 346.71,401.23C346.67,401.479 346.761,401.732 346.95,401.9C347.48,402.38 348.95,402.46 350.87,402.14C349.735,401.53 348.504,401.121 347.23,400.93Z" style="fill:rgb(51,94,234);fill-rule:nonzero;"/>
                        <path d="M351.52,402.44L351.44,402.44C350.39,401.96 348.32,400.07 348.44,399.08C348.44,398.84 348.65,398.55 349.22,398.49C349.64,398.441 350.062,398.572 350.38,398.85C351.48,399.77 351.68,402.13 351.69,402.23C351.696,402.305 351.662,402.377 351.6,402.42C351.575,402.432 351.548,402.439 351.52,402.44ZM349.43,398.88L349.31,398.88C348.93,398.88 348.9,399.07 348.89,399.12C348.8,399.72 350.2,401.21 351.27,401.86C351.187,400.863 350.795,399.915 350.15,399.15C349.952,398.973 349.695,398.877 349.43,398.88Z" style="fill:rgb(51,94,234);fill-rule:nonzero;"/>
                        <path d="M413.27,402.23L404.49,402.23L399.17,381.89L407.96,381.89L413.27,402.23Z" style="fill:rgb(255,195,189);fill-rule:nonzero;"/>
                        <path d="M413.35,401.21L403.48,401.21C403.465,401.209 403.45,401.208 403.435,401.208C403.144,401.208 402.905,401.447 402.905,401.738C402.905,401.762 402.907,401.786 402.91,401.81L403.51,409.62C403.643,410.489 404.381,411.147 405.26,411.18C408.69,411.12 410.26,410.92 414.64,410.92C417.31,410.92 419.97,411.2 423.64,411.2C427.31,411.2 426.72,407.55 425.11,407.2C417.9,405.72 417.66,403.68 414.91,401.73C414.454,401.404 413.91,401.223 413.35,401.21Z" style="fill:rgb(38,50,56);fill-rule:nonzero;"/>
                        <g opacity="0.2">
                            <path d="M399.18,381.89L401.91,392.38L410.7,392.38L407.96,381.89L399.18,381.89Z" style="fill-rule:nonzero;"/>
                        </g>
                        <path d="M374.06,210.15C384.21,223.75 390.39,273.69 394.88,300.39C399.55,328.16 411.03,390.39 411.03,390.39L399.16,390.39C399.16,390.39 383.01,327.09 374.55,300.29C365.2,270.7 351.23,210.19 351.23,210.19L374.06,210.15Z" style="fill:rgb(38,50,56);fill-rule:nonzero;"/>
                        <path d="M411.88,390.77L397.94,390.77L396.92,386.33L412.53,385.78L411.88,390.77Z" style="fill:rgb(51,94,234);fill-rule:nonzero;"/>
                        <path d="M414.52,401.46C415.228,401.197 415.824,400.699 416.21,400.05C416.357,399.696 416.32,399.291 416.11,398.97C415.997,398.77 415.789,398.642 415.56,398.63C414.33,398.56 411.94,401.68 411.67,402.04C411.62,402.112 411.62,402.208 411.67,402.28C411.716,402.354 411.807,402.387 411.89,402.36C412.793,402.144 413.674,401.843 414.52,401.46ZM415.15,399.14C415.268,399.079 415.398,399.045 415.53,399.04C415.626,399.044 415.712,399.102 415.75,399.19C415.893,399.395 415.923,399.658 415.83,399.89C415.55,400.55 414.28,401.25 412.39,401.8C413.154,400.764 414.087,399.865 415.15,399.14Z" style="fill:rgb(51,94,234);fill-rule:nonzero;"/>
                        <path d="M411.93,402.35C411.957,402.339 411.981,402.322 412,402.3C412.74,401.42 413.79,398.82 413.22,397.99C413.08,397.79 412.8,397.6 412.22,397.8C411.823,397.939 411.501,398.236 411.33,398.62C410.73,399.92 411.57,402.14 411.6,402.24C411.627,402.308 411.688,402.358 411.76,402.37C411.817,402.391 411.88,402.383 411.93,402.35ZM412.28,398.24L412.4,398.19C412.76,398.06 412.85,398.19 412.87,398.19C413.22,398.68 412.59,400.63 411.87,401.68C411.513,400.744 411.458,399.719 411.71,398.75C411.83,398.515 412.033,398.333 412.28,398.24Z" style="fill:rgb(51,94,234);fill-rule:nonzero;"/>
                        <path d="M349.29,127.55L347.57,127.14C347.57,127.14 348.51,128.43 349.29,127.55Z" style="fill:rgb(38,50,56);fill-rule:nonzero;"/>
                        <path d="M374.53,208L375.53,211.17C375.66,211.41 375.37,211.67 374.96,211.69L338.26,212.78C337.94,212.78 337.67,212.64 337.64,212.44L337.23,209.25C337.23,209.03 337.47,208.84 337.82,208.83L373.93,207.75C374.159,207.724 374.387,207.819 374.53,208Z" style="fill:rgb(51,94,234);fill-rule:nonzero;"/>
                        <path d="M369.8,212.23L370.8,212.23C370.99,212.23 371.13,212.12 371.12,212L370.54,207.86C370.54,207.74 370.35,207.65 370.16,207.65L369.16,207.65C368.97,207.65 368.83,207.76 368.84,207.88L369.42,212.02C369.44,212.14 369.61,212.23 369.8,212.23Z" style="fill:rgb(38,50,56);fill-rule:nonzero;"/>
                        <path d="M341,213.08L342,213.08C342.19,213.08 342.33,212.97 342.32,212.85L341.74,208.72C341.74,208.6 341.55,208.5 341.36,208.51L340.36,208.51C340.17,208.51 340.03,208.62 340.04,208.74L340.62,212.87C340.64,213 340.81,213.09 341,213.08Z" style="fill:rgb(38,50,56);fill-rule:nonzero;"/>
                        <path d="M355.4,212.65L356.4,212.65C356.59,212.65 356.73,212.54 356.72,212.41L356.14,208.28C356.14,208.16 355.95,208.07 355.76,208.07L354.76,208.07C354.57,208.07 354.43,208.18 354.44,208.3L355.02,212.43C355,212.57 355.21,212.66 355.4,212.65Z" style="fill:rgb(38,50,56);fill-rule:nonzero;"/>
                        <path d="M400.15,220.73L407.15,227.14L398.29,228.28C398.29,228.28 394.97,223.73 396.55,220.44L400.15,220.73Z" style="fill:rgb(255,195,189);fill-rule:nonzero;"/>
                        <path d="M408.34,234.43L400.87,234.98L398.27,228.28L407.13,227.15L408.34,234.43Z" style="fill:rgb(255,195,189);fill-rule:nonzero;"/>
                        <path d="M355.5,112.8C355.5,112.8 348.13,109.42 340,119.67C349.79,122.58 356.37,120.56 356.37,120.56L355.5,112.8Z" style="fill:rgb(38,50,56);fill-rule:nonzero;"/>
                        <path d="M354.44,111.89C354.44,111.89 356.22,137.66 354.44,150.5C364.78,147.22 374.67,136.99 374.67,136.99C374.67,136.99 373.22,108.78 354.44,111.89Z" style="fill:rgb(38,50,56);fill-rule:nonzero;"/>
                        <path d="M349.19,134.73C346.87,134.73 344.74,131.86 344.43,128.33C344.164,126.417 344.684,124.475 345.87,122.95C346.431,122.288 347.252,121.901 348.12,121.89C350.44,121.89 352.58,124.76 352.89,128.29C353.157,130.205 352.634,132.149 351.44,133.67C350.879,134.332 350.058,134.719 349.19,134.73ZM348.12,122.39C347.396,122.407 346.712,122.731 346.24,123.28C345.151,124.703 344.678,126.506 344.93,128.28C345.21,131.55 347.13,134.22 349.19,134.22C349.917,134.208 350.604,133.879 351.07,133.32C352.165,131.9 352.641,130.096 352.39,128.32C352.1,125.05 350.19,122.39 348.12,122.39Z" style="fill:white;fill-rule:nonzero;"/>
                        <path d="M340.48,134.73C338.6,134.73 336.88,131.92 336.57,128.33C336.36,125.92 336.86,123.73 337.87,122.63C338.253,122.174 338.815,121.905 339.41,121.89C341.29,121.89 343,124.7 343.32,128.29C343.52,130.7 343.02,132.88 342.01,133.99C341.629,134.443 341.072,134.712 340.48,134.73ZM339.41,122.39C338.954,122.4 338.524,122.613 338.24,122.97C337.33,123.97 336.87,126.05 337.07,128.29C337.34,131.51 338.91,134.23 340.48,134.23C340.932,134.213 341.355,134.001 341.64,133.65C342.55,132.65 343.01,130.57 342.82,128.33C342.54,125.11 341,122.39 339.41,122.39Z" style="fill:white;fill-rule:nonzero;"/>
                        <path d="M344.68,128.56L344.57,128.56C344.142,128.333 343.628,128.333 343.2,128.56C343.084,128.63 342.932,128.594 342.86,128.48C342.832,128.44 342.817,128.392 342.817,128.343C342.817,128.261 342.86,128.184 342.93,128.14C343.509,127.838 344.201,127.838 344.78,128.14C344.903,128.198 344.96,128.344 344.91,128.47C344.851,128.534 344.766,128.567 344.68,128.56Z" style="fill:white;fill-rule:nonzero;"/>
                    </g>
                    <g id="freepik--Desk--inject-190">
                        <rect x="113.33" y="280.84" width="273.33" height="9.33" style="fill:rgb(51,94,234);"/>
                        <rect x="113.33" y="280.84" width="273.33" height="9.33" style="fill:white;fill-opacity:0.8;"/>
                        <rect x="306.67" y="280.84" width="80" height="9.33" style="fill:rgb(51,94,234);fill-opacity:0.3;"/>
                        <path d="M326.17,414.67L320.84,414.67L313.75,290.17L326.17,290.17L326.17,414.67Z" style="fill:rgb(51,94,234);fill-rule:nonzero;"/>
                        <path d="M381.33,414.67L386.67,414.67L379.58,290.17L367.16,290.17L381.33,414.67Z" style="fill:rgb(51,94,234);fill-rule:nonzero;"/>
                        <path d="M118.67,414.67L113.33,414.67L120.42,290.17L132.84,290.17L118.67,414.67Z" style="fill:rgb(51,94,234);fill-rule:nonzero;"/>
                        <path d="M173.83,414.67L179.16,414.67L186.25,290.17L173.83,290.17L173.83,414.67Z" style="fill:rgb(51,94,234);fill-rule:nonzero;"/>
                        <path d="M302.45,236.14L244.13,236.14C242.734,236.185 241.545,237.198 241.28,238.57L234.9,275.1C234.87,275.238 234.855,275.379 234.855,275.52C234.855,276.618 235.758,277.52 236.855,277.52C236.87,277.52 236.885,277.52 236.9,277.52L295.21,277.52C296.603,277.476 297.791,276.468 298.06,275.1L304.44,238.57C304.471,238.429 304.487,238.284 304.487,238.14C304.487,237.042 303.584,236.14 302.487,236.14C302.475,236.14 302.462,236.14 302.45,236.14Z" style="fill:rgb(51,94,234);fill-rule:nonzero;"/>
                        <path d="M302.45,236.14L244.13,236.14C242.734,236.185 241.545,237.198 241.28,238.57L234.9,275.1C234.87,275.238 234.855,275.379 234.855,275.52C234.855,276.618 235.758,277.52 236.855,277.52C236.87,277.52 236.885,277.52 236.9,277.52L295.21,277.52C296.603,277.476 297.791,276.468 298.06,275.1L304.44,238.57C304.471,238.429 304.487,238.284 304.487,238.14C304.487,237.042 303.584,236.14 302.487,236.14C302.475,236.14 302.462,236.14 302.45,236.14Z" style="fill:white;fill-opacity:0.2;fill-rule:nonzero;"/>
                        <path d="M301.33,236.14L243,236.14C241.604,236.185 240.415,237.198 240.15,238.57L233.77,275.1C233.74,275.238 233.725,275.379 233.725,275.52C233.725,276.618 234.628,277.52 235.725,277.52C235.74,277.52 235.755,277.52 235.77,277.52L294.08,277.52C295.499,277.509 296.726,276.492 297,275.1L303.38,238.57C303.411,238.428 303.427,238.283 303.427,238.138C303.427,237.04 302.524,236.138 301.427,236.138C301.395,236.138 301.362,236.138 301.33,236.14Z" style="fill:rgb(51,94,234);fill-rule:nonzero;"/>
                        <path d="M301.33,236.14L243,236.14C241.604,236.185 240.415,237.198 240.15,238.57L233.77,275.1C233.74,275.238 233.725,275.379 233.725,275.52C233.725,276.618 234.628,277.52 235.725,277.52C235.74,277.52 235.755,277.52 235.77,277.52L294.08,277.52C295.499,277.509 296.726,276.492 297,275.1L303.38,238.57C303.411,238.428 303.427,238.283 303.427,238.138C303.427,237.04 302.524,236.138 301.427,236.138C301.395,236.138 301.362,236.138 301.33,236.14Z" style="fill:white;fill-opacity:0.4;fill-rule:nonzero;"/>
                        <path d="M235.8,276.52C235.49,276.533 235.19,276.409 234.98,276.18C234.784,275.92 234.711,275.588 234.78,275.27L241.16,238.74C241.341,237.847 242.11,237.186 243.02,237.14L301.33,237.14C301.641,237.13 301.942,237.259 302.15,237.49C302.347,237.749 302.42,238.082 302.35,238.4L296,274.92C295.819,275.813 295.05,276.474 294.14,276.52L235.8,276.52Z" style="fill:white;fill-rule:nonzero;"/>
                        <path d="M294.4,277.52L221.06,277.52C219.281,277.531 217.821,278.991 217.81,280.77L297.65,280.77C297.639,278.991 296.179,277.531 294.4,277.52Z" style="fill:rgb(51,94,234);fill-rule:nonzero;"/>
                        <path d="M294.4,277.52L221.06,277.52C219.281,277.531 217.821,278.991 217.81,280.77L297.65,280.77C297.639,278.991 296.179,277.531 294.4,277.52Z" style="fill:white;fill-opacity:0.4;fill-rule:nonzero;"/>
                        <path d="M294.4,277.52L278.06,277.52C276.281,277.531 274.821,278.991 274.81,280.77L297.65,280.77C297.639,278.991 296.179,277.531 294.4,277.52Z" style="fill:rgb(51,94,234);fill-opacity:0.8;fill-rule:nonzero;"/>
                        <path d="M334,265.71L334,279.65C334,280.307 333.467,280.84 332.81,280.84L322.1,280.84C321.443,280.84 320.91,280.307 320.91,279.65L320.91,265.71C320.91,265.053 321.443,264.52 322.1,264.52L332.81,264.52C333.467,264.52 334,265.053 334,265.71Z" style="fill:rgb(51,94,234);"/>
                        <path d="M322.63,272.47L322.82,271.53L321.92,271.53L321.92,270.53L323,270.53L323.26,269.21L324.26,269.21L323.99,270.53L324.8,270.53L325.07,269.21L326.12,269.21L325.85,270.53L326.36,270.53L326.36,271.53L325.65,271.53L325.46,272.47L326.36,272.47L326.36,273.47L325.25,273.47L324.99,274.77L324,274.77L324.26,273.48L323.45,273.48L323.19,274.78L322.19,274.78L322.45,273.48L321.94,273.48L321.94,272.48L322.63,272.47ZM323.68,272.47L324.49,272.47L324.68,271.53L323.87,271.53L323.68,272.47Z" style="fill:white;fill-rule:nonzero;"/>
                        <path d="M330.4,269.2L330.4,274.7L328.88,274.7L328.88,271.09C328.658,271.265 328.421,271.419 328.17,271.55C327.888,271.68 327.597,271.79 327.3,271.88L327.3,270.65C327.732,270.522 328.139,270.319 328.5,270.05C328.781,269.82 329.007,269.529 329.16,269.2L330.4,269.2Z" style="fill:white;fill-rule:nonzero;"/>
                        <path d="M335.23,279.05C332.64,279.05 330.61,276.25 330.61,272.68C330.61,269.11 332.68,266.3 335.23,266.3C337.78,266.3 339.85,269.16 339.85,272.68C339.85,276.2 337.82,279.05 335.23,279.05ZM335.23,267.77C333.52,267.77 332.08,270.01 332.08,272.68C332.08,275.35 333.52,277.58 335.23,277.58C336.94,277.58 338.38,275.34 338.38,272.68C338.38,270.02 336.93,267.77 335.23,267.77Z" style="fill:rgb(51,94,234);fill-rule:nonzero;"/>
                    </g>
                    <g id="freepik--character-1--inject-190">
                        <path d="M181.55,234.11L180.62,235.55L179.62,237.13C178.97,238.19 178.34,239.27 177.71,240.36C176.47,242.54 175.27,244.75 174.16,246.99C171.929,251.401 170.059,255.986 168.57,260.7C168.21,261.86 167.89,263.02 167.57,264.18L167.16,265.93L166.99,266.8L166.9,267.24C166.9,267.38 166.84,267.57 166.84,267.53C166.84,267.49 166.76,267.53 166.66,267.27C166.553,267.039 166.387,266.839 166.18,266.69C166.01,266.59 165.98,266.69 166.07,266.78C166.277,266.968 166.509,267.126 166.76,267.25C167.614,267.67 168.518,267.979 169.45,268.17C170.582,268.434 171.727,268.637 172.88,268.78C175.26,269.09 177.88,269.24 180.34,269.37L180.59,269.37C182.444,269.467 183.917,271.019 183.917,272.875C183.917,274.354 182.983,275.682 181.59,276.18C178.829,277.17 175.974,277.877 173.07,278.29C169.823,278.82 166.506,278.735 163.29,278.04C162.251,277.785 161.245,277.413 160.29,276.93C159.083,276.318 157.993,275.499 157.07,274.51C155.991,273.337 155.191,271.936 154.73,270.41C154.339,269.033 154.2,267.596 154.32,266.17C154.32,265.79 154.32,265.65 154.38,265.46L154.45,264.91L154.58,263.79C154.69,263.06 154.79,262.32 154.91,261.59C155.16,260.13 155.44,258.68 155.79,257.26C157.159,251.64 159.082,246.17 161.53,240.93C162.74,238.35 164.03,235.81 165.44,233.34C166.14,232.1 166.88,230.88 167.64,229.67C168.02,229.06 168.41,228.46 168.82,227.85C169.23,227.24 169.61,226.69 170.13,225.97C171.45,224.195 173.536,223.147 175.747,223.147C179.588,223.147 182.747,226.307 182.747,230.147C182.747,231.448 182.385,232.724 181.7,233.83L181.55,234.11Z" style="fill:rgb(51,94,234);fill-rule:nonzero;"/>
                        <path d="M208.29,193.75C208.39,194.43 208.83,194.92 209.29,194.86C209.75,194.8 210.01,194.19 209.91,193.52C209.81,192.85 209.37,192.35 208.91,192.41C208.45,192.47 208.19,193.08 208.29,193.75Z" style="fill:rgb(38,50,56);fill-rule:nonzero;"/>
                        <path d="M208.77,194.93C209.881,196.872 211.254,198.652 212.85,200.22C212.018,201.024 210.871,201.42 209.72,201.3L208.77,194.93Z" style="fill:rgb(160,39,36);fill-rule:nonzero;"/>
                        <path d="M205.34,190.37C205.425,190.363 205.504,190.324 205.56,190.26C206.268,189.525 207.291,189.177 208.3,189.33C208.516,189.373 208.731,189.235 208.78,189.02C208.823,188.806 208.683,188.595 208.47,188.55C207.198,188.339 205.899,188.765 205,189.69C204.847,189.848 204.847,190.102 205,190.26C205.091,190.345 205.216,190.386 205.34,190.37Z" style="fill:rgb(38,50,56);fill-rule:nonzero;"/>
                        <path d="M188.48,201.2C188.77,207.5 188.29,218.88 183.4,222.33C183.4,222.33 184.15,228.78 195.52,230.48C208.01,232.34 202.42,225.16 202.42,225.16C195.84,222.52 196.77,217.48 198.67,212.91L188.48,201.2Z" style="fill:rgb(181,91,82);fill-rule:nonzero;"/>
                        <path d="M181.44,224.85C180.95,222 180.44,218.75 182.59,218.25C184.95,217.7 197.17,219.33 201.03,222.25C204.89,225.17 202.91,230.25 202.91,230.25L181.44,224.85Z" style="fill:rgb(224,224,224);fill-rule:nonzero;"/>
                        <path d="M214.39,235.47C214.85,245.55 214.39,265.54 207.55,295.8L162.33,295.8C162.05,289.51 168.54,262.39 167.98,232.59C167.979,232.52 167.978,232.45 167.978,232.38C167.978,226.214 173.044,221.135 179.21,221.12C180.1,221.12 181.04,221.12 182.01,221.23C188.407,221.675 194.772,222.503 201.07,223.71C202.95,224.14 204.78,224.64 206.44,225.15C210.991,226.564 214.184,230.708 214.39,235.47Z" style="fill:rgb(51,94,234);fill-rule:nonzero;"/>
                        <path d="M207.56,253.61C206.84,258.73 205.18,267.61 211.17,277.43C211.85,273.36 212.4,269.55 212.85,265.99L207.56,253.61Z" style="fill-opacity:0.2;fill-rule:nonzero;"/>
                        <path d="M242.8,266L250.41,263.38L247.31,255.38C243.791,255.89 240.829,258.306 239.62,261.65L242.8,266Z" style="fill:rgb(181,91,82);fill-rule:nonzero;"/>
                        <path d="M254.44,261.1L255.25,254.64L247.31,255.3L250.41,263.33L254.44,261.1Z" style="fill:rgb(181,91,82);fill-rule:nonzero;"/>
                        <path d="M214.34,234.54C214.76,236.01 215.28,237.72 215.78,239.32C216.28,240.92 216.78,242.56 217.36,244.17C218.44,247.39 219.63,250.56 220.88,253.66C222.13,256.76 223.53,259.77 225.04,262.58C226.419,265.238 228.097,267.731 230.04,270.01L222.71,268.88C224.12,268.27 225.57,267.64 227.03,266.88C228.49,266.12 229.98,265.44 231.45,264.64L235.95,262.27C237.45,261.48 238.95,260.62 240.48,259.88L240.64,259.8C241.132,259.553 241.676,259.425 242.227,259.425C244.169,259.425 245.767,261.023 245.767,262.965C245.767,263.735 245.515,264.485 245.05,265.1C243.931,266.578 242.736,267.996 241.47,269.35C240.22,270.7 238.91,271.98 237.55,273.24C236.19,274.5 234.75,275.69 233.25,276.83C231.75,277.97 230.16,279.07 228.47,280.09C226.252,281.414 223.404,281.098 221.53,279.32L221.14,278.95C218.176,276.077 215.604,272.825 213.49,269.28C211.482,266.02 209.695,262.629 208.14,259.13C206.57,255.7 205.22,252.22 203.99,248.72C203.38,246.97 202.79,245.21 202.26,243.44C201.73,241.67 201.26,239.93 200.75,237.97C200.593,237.381 200.513,236.774 200.513,236.165C200.513,232.324 203.674,229.163 207.515,229.163C210.677,229.163 213.465,231.305 214.28,234.36L214.34,234.54Z" style="fill:rgb(51,94,234);fill-rule:nonzero;"/>
                        <path d="M185.58,195.69C187.33,203.89 187.93,208.78 192.75,212.41C200,217.87 209.66,212.55 210.4,203.98C211.06,196.27 208.1,184.15 199.5,182.06C198.6,181.837 197.677,181.725 196.75,181.725C190.469,181.725 185.3,186.894 185.3,193.175C185.3,194.021 185.394,194.865 185.58,195.69Z" style="fill:rgb(181,91,82);fill-rule:nonzero;"/>
                        <path d="M203.25,196.55C207.17,196.25 206.94,194.44 206.06,193.11C205.18,191.78 204.11,187 204.11,187C204.11,187 209.56,188.44 208.44,183.22C207.32,178 199.96,171.39 193.53,175.44C180.72,173.33 176.53,178.5 178.53,183.28C168.36,187.78 175.7,196.89 179.75,196.89C176.14,200.11 181.53,204.75 190.27,209.96C196.67,202.25 206.11,204.32 203.25,196.55Z" style="fill:rgb(38,50,56);fill-rule:nonzero;"/>
                        <path d="M195.33,178.06C195.061,178.056 194.805,177.944 194.62,177.75C191.591,174.704 187.156,173.494 183,174.58C182.468,174.704 181.928,174.371 181.8,173.84C181.676,173.308 182.009,172.768 182.54,172.64C187.388,171.403 192.545,172.82 196.08,176.36C196.465,176.747 196.465,177.383 196.08,177.77C195.882,177.967 195.609,178.073 195.33,178.06Z" style="fill:rgb(38,50,56);fill-rule:nonzero;"/>
                        <path d="M182.08,206C181.814,206.002 181.559,205.897 181.37,205.71C178.55,202.87 177.37,200.65 177.73,198.71C178.071,197.222 179.14,196.003 180.57,195.47C180.704,195.406 180.851,195.373 181,195.373C181.55,195.373 182.002,195.825 182.002,196.375C182.002,196.761 181.779,197.114 181.43,197.28C180.38,197.78 179.82,198.36 179.7,199.05C179.58,199.74 179.98,201.47 182.79,204.29C182.979,204.478 183.086,204.733 183.086,205C183.086,205.267 182.979,205.522 182.79,205.71C182.601,205.897 182.346,206.002 182.08,206Z" style="fill:rgb(38,50,56);fill-rule:nonzero;"/>
                        <path d="M198.43,195.91C199.101,197.884 200.401,199.585 202.13,200.75C204.42,202.26 205.97,200.55 205.67,198.08C205.4,195.85 203.88,192.38 201.42,191.85C198.96,191.32 197.66,193.52 198.43,195.91Z" style="fill:rgb(181,91,82);fill-rule:nonzero;"/>
                        <path d="M276.62,407.35C277.7,407.35 278.75,407.2 279.1,406.72C279.284,406.456 279.284,406.104 279.1,405.84C278.963,405.604 278.735,405.434 278.47,405.37C277.06,404.99 274.11,406.67 273.98,406.75C273.908,406.788 273.871,406.871 273.89,406.95C273.9,407.032 273.96,407.1 274.04,407.12C274.892,407.267 275.755,407.344 276.62,407.35ZM277.96,405.71C278.088,405.71 278.216,405.727 278.34,405.76C278.507,405.792 278.652,405.894 278.74,406.04C278.88,406.29 278.83,406.41 278.74,406.48C278.34,407.03 276.2,407.04 274.63,406.82C275.67,406.234 276.815,405.857 278,405.71L277.96,405.71Z" style="fill:rgb(51,94,234);fill-rule:nonzero;"/>
                        <path d="M274.06,407.12L274.14,407.12C275.14,406.67 277.19,404.84 277.03,403.88C277.03,403.66 276.84,403.38 276.29,403.32C275.889,403.279 275.489,403.401 275.18,403.66C274.1,404.55 273.87,406.83 273.86,406.92C273.857,406.991 273.891,407.059 273.95,407.1C273.983,407.121 274.022,407.128 274.06,407.12ZM276.13,403.69L276.25,403.69C276.61,403.69 276.63,403.87 276.64,403.91C276.73,404.49 275.36,405.91 274.31,406.55C274.406,405.586 274.797,404.674 275.43,403.94C275.626,403.777 275.874,403.688 276.13,403.69Z" style="fill:rgb(51,94,234);fill-rule:nonzero;"/>
                        <path d="M264.45,406.92L272.91,406.92L271.3,387.34L262.84,387.34L264.45,406.92Z" style="fill:rgb(181,91,82);fill-rule:nonzero;"/>
                        <path d="M272.92,405.94L263.69,405.94C263.357,405.929 263.071,406.187 263.05,406.52L262.5,414C262.499,414.017 262.499,414.033 262.499,414.05C262.499,414.844 263.146,415.5 263.94,415.51C267.26,415.45 272.04,415.26 276.23,415.26C281.12,415.26 281.63,415.52 287.37,415.52C290.84,415.52 291.28,412.01 289.78,411.7C282.96,410.25 281.29,410.09 275.05,406.57C274.405,406.182 273.672,405.965 272.92,405.94Z" style="fill:rgb(38,50,56);fill-rule:nonzero;"/>
                        <path d="M271.29,387.35L272.13,397.44L263.67,397.44L262.84,387.35L271.29,387.35Z" style="fill-opacity:0.2;fill-rule:nonzero;"/>
                        <path d="M224,407.35C224.712,407.433 225.43,407.235 226,406.8C226.216,406.503 226.216,406.097 226,405.8C225.867,405.563 225.637,405.395 225.37,405.34C224.14,405.05 221.8,406.65 221.7,406.72C221.639,406.767 221.608,406.844 221.62,406.92C221.632,406.997 221.693,407.058 221.77,407.07C222.501,407.245 223.249,407.339 224,407.35ZM225.06,405.74C225.143,405.73 225.227,405.73 225.31,405.74C225.467,405.772 225.602,405.871 225.68,406.01C225.86,406.34 225.75,406.48 225.68,406.52C225.32,407 223.59,407 222.33,406.79C223.131,406.246 224.043,405.887 225,405.74L225.06,405.74Z" style="fill:rgb(51,94,234);fill-rule:nonzero;"/>
                        <path d="M221.82,407.12L221.91,407.12C222.79,406.64 224.48,404.79 224.3,403.85C224.239,403.545 223.971,403.323 223.66,403.32C223.353,403.282 223.043,403.377 222.81,403.58C221.81,404.38 221.62,406.82 221.62,406.92C221.612,406.995 221.647,407.069 221.71,407.11C221.745,407.124 221.783,407.127 221.82,407.12ZM223.52,403.69L223.61,403.69C223.87,403.69 223.9,403.84 223.91,403.89C224.01,404.45 222.91,405.89 222.06,406.51C222.121,405.547 222.469,404.623 223.06,403.86C223.189,403.751 223.352,403.691 223.52,403.69Z" style="fill:rgb(51,94,234);fill-rule:nonzero;"/>
                        <path d="M214.08,406.92L222.53,406.92L226.78,387.34L218.33,387.34L214.08,406.92Z" style="fill:rgb(181,91,82);fill-rule:nonzero;"/>
                        <path d="M223.13,405.94L213.64,405.94C213.294,405.937 212.991,406.181 212.92,406.52L211.25,414C211.23,414.089 211.22,414.179 211.22,414.27C211.22,414.95 211.78,415.51 212.46,415.51C212.467,415.51 212.473,415.51 212.48,415.51C215.8,415.45 217.41,415.26 221.59,415.26C224.16,415.26 227.45,415.52 231,415.52C234.55,415.52 235,412.01 233.56,411.7C227.05,410.27 226.56,408.31 224.51,406.43C224.126,406.103 223.634,405.929 223.13,405.94Z" style="fill:rgb(38,50,56);fill-rule:nonzero;"/>
                        <path d="M194,295.8C194,295.8 240.9,310.03 242.06,328.87C244.19,363.57 227.17,393.14 227.17,393.14L214.49,393.14C214.49,393.14 219.31,378.48 221.04,347.05C223.21,307.55 148.52,347.97 162.33,295.8L194,295.8Z" style="fill-rule:nonzero;"/>
                        <g opacity="0.2">
                            <path d="M218.32,387.35L226.78,387.35L224.59,397.44L216.13,397.44L218.32,387.35Z" style="fill-rule:nonzero;"/>
                        </g>
                        <path d="M207.55,295.8C207.55,295.8 268.2,299.8 270.6,331.99C273.35,368.99 274.15,393.14 274.15,393.14L261.59,393.14C261.59,393.14 255.13,370.45 249.59,337.83C247.92,328.06 227.2,326.38 207.59,325.22C190.69,324.22 177.71,323.22 176.29,304.5L176.51,295.8L207.55,295.8Z" style="fill:rgb(38,50,56);fill-rule:nonzero;"/>
                        <path d="M277.22,389.78C277.29,389.78 276.41,395.78 276.41,395.78L259,395.78L258.53,390.47L277.22,389.78Z" style="fill:rgb(51,94,234);fill-rule:nonzero;"/>
                        <path d="M231,389.78C231.07,389.78 229.4,395.78 229.4,395.78L212,395.78L212.32,390.47L231,389.78Z" style="fill:rgb(51,94,234);fill-rule:nonzero;"/>
                        <path d="M204.82,322.56L196.33,264.89C195.861,261.677 193.077,259.27 189.83,259.27C189.83,259.27 139.74,259.27 139.739,259.27C136.135,259.27 133.169,262.236 133.169,265.84C133.169,266.161 133.193,266.482 133.24,266.8L141.44,322.56C141.44,322.56 141.44,322.56 141.44,322.56C141.44,325.237 143.643,327.44 146.32,327.44C146.323,327.44 146.327,327.44 146.33,327.44L237.64,327.44C237.64,327.44 237.64,327.44 237.64,327.44C237.64,324.763 235.437,322.56 232.76,322.56C232.757,322.56 232.753,322.56 232.75,322.56L204.82,322.56Z" style="fill:rgb(51,94,234);fill-rule:nonzero;"/>
                        <path d="M204.82,322.56L196.33,264.89C195.861,261.677 193.077,259.27 189.83,259.27C189.83,259.27 139.74,259.27 139.739,259.27C136.135,259.27 133.169,262.236 133.169,265.84C133.169,266.161 133.193,266.482 133.24,266.8L141.44,322.56C141.44,322.56 141.44,322.56 141.44,322.56C141.44,325.237 143.643,327.44 146.32,327.44C146.323,327.44 146.327,327.44 146.33,327.44L237.64,327.44C237.64,327.44 237.64,327.44 237.64,327.44C237.64,324.763 235.437,322.56 232.76,322.56C232.757,322.56 232.753,322.56 232.75,322.56L204.82,322.56Z" style="fill:white;fill-opacity:0.5;fill-rule:nonzero;"/>
                        <path d="M189.83,259.27C189.83,259.27 139.74,259.27 139.739,259.27C136.135,259.27 133.169,262.236 133.169,265.84C133.169,266.161 133.193,266.482 133.24,266.8L141.44,322.56C141.44,322.56 141.44,322.56 141.44,322.56C141.44,325.237 143.643,327.44 146.32,327.44C146.323,327.44 146.327,327.44 146.33,327.44L199.44,327.44L189.83,259.27Z" style="fill:rgb(51,94,234);fill-opacity:0.3;fill-rule:nonzero;"/>
                        <path d="M142.08,416.24L139.25,416.24L146.33,327.44L149.17,327.44L142.08,416.24Z" style="fill:rgb(51,94,234);fill-rule:nonzero;"/>
                        <path d="M142.08,416.24L139.25,416.24L146.33,327.44L149.17,327.44L142.08,416.24Z" style="fill:white;fill-opacity:0.6;fill-rule:nonzero;"/>
                        <path d="M190.23,416.24L187.4,416.24L194.49,327.44L197.32,327.44L190.23,416.24Z" style="fill:rgb(51,94,234);fill-rule:nonzero;"/>
                        <path d="M190.23,416.24L187.4,416.24L194.49,327.44L197.32,327.44L190.23,416.24Z" style="fill:white;fill-opacity:0.6;fill-rule:nonzero;"/>
                        <path d="M194.59,416.24L191.75,416.24L184.67,327.44L187.5,327.44L194.59,416.24Z" style="fill:rgb(51,94,234);fill-rule:nonzero;"/>
                        <path d="M194.59,416.24L191.75,416.24L184.67,327.44L187.5,327.44L194.59,416.24Z" style="fill:white;fill-opacity:0.7;fill-rule:nonzero;"/>
                        <path d="M242.74,416.24L239.91,416.24L232.82,327.44L235.65,327.44L242.74,416.24Z" style="fill:rgb(51,94,234);fill-rule:nonzero;"/>
                        <path d="M242.74,416.24L239.91,416.24L232.82,327.44L235.65,327.44L242.74,416.24Z" style="fill:white;fill-opacity:0.7;fill-rule:nonzero;"/>
                    </g>
                </g>
            </g>
        </g>
        <g id="Sponsors">
        </g>
    </g>
</svg>
