<?xml version="1.0" encoding="UTF-8" standalone="no"?>
<!DOCTYPE svg PUBLIC "-//W3C//DTD SVG 1.1//EN" "http://www.w3.org/Graphics/SVG/1.1/DTD/svg11.dtd">
<svg width="100%" height="100%" viewBox="0 0 1024 1024" version="1.1" xmlns="http://www.w3.org/2000/svg" xmlns:xlink="http://www.w3.org/1999/xlink" xml:space="preserve" xmlns:serif="http://www.serif.com/" style="fill-rule:evenodd;clip-rule:evenodd;stroke-linejoin:round;stroke-miterlimit:2;">
    <g transform="matrix(1,0,0,1,-54.8333,-30697)">
        <g id="mock-creation" serif:id="mock creation" transform="matrix(0.339642,0,0,0.339642,3389.89,18697.1)">
            <rect x="-9819.34" y="35331" width="3014.94" height="3014.94" style="fill:none;"/>
            <g id="Application-programming-interface-rafiki.svg" serif:id="Application programming interface-rafiki.svg" transform="matrix(6.02988,0,0,6.02988,-8311.87,36838.5)">
                <g transform="matrix(1,0,0,1,-250,-250)">
                    <g id="freepik--background-simple--inject-40">
                        <g opacity="0.45">
                            <path d="M411.14,148.1C410.9,130.04 409.14,111.65 402.06,95.1C394.98,78.55 381.87,63.73 364.69,58.17C348.92,53.07 331.43,56.17 316.34,63.03C289.34,75.29 269,98.44 251.24,122.16C241.94,134.58 233.03,147.43 223.44,159.63C208.257,178.942 186.398,191.907 162.17,195.97L91.77,207.73C73.31,211 51,216.1 45.05,227.29C39.1,238.48 40.78,252.59 46.7,263.82C52.62,275.05 62.19,283.87 72.07,291.82C118.59,329.28 175.26,352.4 233.14,367.14C257.31,373.3 283.01,378.05 306.94,371.02C341.85,360.77 365.13,327.89 380.24,294.8C401.197,248.767 411.748,198.675 411.14,148.1Z" style="fill:white;fill-rule:nonzero;"/>
                        </g>
                    </g>
                    <g id="freepik--Shadow--inject-40">
                        <path d="M455.06,447.49C455.06,450.87 361.54,453.62 246.18,453.62C130.82,453.62 37.31,450.87 37.31,447.49C37.31,444.11 130.82,441.35 246.18,441.35C361.54,441.35 455.06,444.1 455.06,447.49Z" style="fill:rgb(245,245,245);fill-rule:nonzero;"/>
                    </g>
                    <g id="freepik--Device--inject-40">
                        <rect x="192.53" y="402.19" width="7.64" height="7.64" style="fill:rgb(38,50,56);"/>
                        <path d="M94.51,121C94.51,121 118.14,121 118.14,121L118.14,353.54L92.72,353.54C88.704,353.54 85.4,350.236 85.4,346.22L85.4,130.12C85.4,130.117 85.4,130.113 85.4,130.11C85.4,125.112 89.512,121 94.51,121Z" style="fill:white;fill-opacity:0.5;fill-rule:nonzero;"/>
                        <path d="M215.62,349.53L205.22,402.82L220.31,402.82L232.35,349.97L215.62,349.53Z" style="fill:white;fill-opacity:0.5;fill-rule:nonzero;"/>
                        <rect x="192.53" y="402.19" width="7.64" height="7.64" style="fill:white;fill-opacity:0.5;"/>
                        <path d="M310.38,409.83L213.46,409.83L227.23,329.07L291.73,329.07L310.38,409.83Z" style="fill:rgb(38,50,56);fill-rule:nonzero;"/>
                        <path d="M310.38,409.83L213.46,409.83L227.23,329.07L291.73,329.07L310.38,409.83Z" style="fill:white;fill-opacity:0.7;fill-rule:nonzero;"/>
                        <path d="M297.35,353.54L223.02,353.54L220.31,369.45L299.51,362.91L297.35,353.54Z" style="fill-opacity:0.1;fill-rule:nonzero;"/>
                        <rect x="198.03" y="402.19" width="125.63" height="7.64" style="fill:rgb(38,50,56);"/>
                        <g opacity="0.7">
                            <rect x="198.03" y="402.19" width="125.63" height="7.64" style="fill:white;"/>
                        </g>
                        <path d="M101.23,121L415.47,121C419.9,121.06 423.503,124.74 423.47,129.17L423.47,345.37C423.503,349.8 419.9,353.48 415.47,353.54L101.23,353.54C96.8,353.48 93.197,349.8 93.23,345.37L93.23,129.18C93.191,124.746 96.796,121.06 101.23,121Z" style="fill:rgb(38,50,56);fill-rule:nonzero;"/>
                        <g opacity="0.7">
                            <path d="M101.23,121L415.47,121C419.9,121.06 423.503,124.74 423.47,129.17L423.47,345.37C423.503,349.8 419.9,353.48 415.47,353.54L101.23,353.54C96.8,353.48 93.197,349.8 93.23,345.37L93.23,129.18C93.191,124.746 96.796,121.06 101.23,121Z" style="fill:white;fill-rule:nonzero;"/>
                        </g>
                        <rect x="100.55" y="129.01" width="314.18" height="208.46" style="fill:rgb(51,94,234);"/>
                        <rect x="100.55" y="129.01" width="314.18" height="208.46" style="fill:white;fill-opacity:0.9;"/>
                        <rect x="100.55" y="129.01" width="314.18" height="16.73" style="fill:rgb(51,94,234);"/>
                        <path d="M410.55,137.38C410.55,137.383 410.55,137.387 410.55,137.39C410.55,139.343 408.943,140.95 406.99,140.95C405.037,140.95 403.43,139.343 403.43,137.39C403.43,135.437 405.037,133.83 406.99,133.83C408.939,133.83 410.545,135.431 410.55,137.38Z" style="fill:white;fill-opacity:0.5;fill-rule:nonzero;"/>
                        <path d="M400.44,137.38C400.44,137.383 400.44,137.387 400.44,137.39C400.44,139.343 398.833,140.95 396.88,140.95C394.927,140.95 393.32,139.343 393.32,137.39C393.32,135.437 394.927,133.83 396.88,133.83C396.883,133.83 396.887,133.83 396.89,133.83C398.835,133.835 400.435,135.435 400.44,137.38Z" style="fill:white;fill-opacity:0.5;fill-rule:nonzero;"/>
                        <path d="M390.34,137.38C390.34,137.383 390.34,137.387 390.34,137.39C390.34,139.343 388.733,140.95 386.78,140.95C384.827,140.95 383.22,139.343 383.22,137.39C383.22,135.437 384.827,133.83 386.78,133.83C388.729,133.83 390.335,135.431 390.34,137.38Z" style="fill:white;fill-opacity:0.5;fill-rule:nonzero;"/>
                        <path d="M158.8,267.82C157.798,269.359 157.092,271.072 156.72,272.87L153.9,273.13L153.9,278.59L156.72,278.86C157.099,280.641 157.804,282.336 158.8,283.86L157,286.04L160.86,289.9L163.04,288.1C164.563,289.097 166.259,289.803 168.04,290.18L168.31,293L173.77,293L174.03,290.18C175.828,289.808 177.541,289.102 179.08,288.1L181.25,289.9L185.11,286.04L183.31,283.86C184.314,282.339 185.024,280.643 185.4,278.86L188.21,278.59L188.21,273.13L185.4,272.87C185.028,271.07 184.319,269.356 183.31,267.82L185.11,265.65L181.25,261.79L179.08,263.59C177.544,262.581 175.83,261.872 174.03,261.5L173.77,258.69L168.31,258.69L168.04,261.5C166.257,261.876 164.561,262.586 163.04,263.59L160.86,261.79L157,265.65L158.8,267.82ZM176.1,270.82C177.443,272.153 178.2,273.969 178.2,275.861C178.2,279.756 174.995,282.961 171.1,282.961C167.205,282.961 164,279.756 164,275.861C164,273.969 164.757,272.153 166.1,270.82C168.855,268.098 173.356,268.107 176.1,270.84L176.1,270.82Z" style="fill:rgb(51,94,234);fill-rule:nonzero;"/>
                        <path d="M158.8,267.82C157.798,269.359 157.092,271.072 156.72,272.87L153.9,273.13L153.9,278.59L156.72,278.86C157.099,280.641 157.804,282.336 158.8,283.86L157,286.04L160.86,289.9L163.04,288.1C164.563,289.097 166.259,289.803 168.04,290.18L168.31,293L173.77,293L174.03,290.18C175.828,289.808 177.541,289.102 179.08,288.1L181.25,289.9L185.11,286.04L183.31,283.86C184.314,282.339 185.024,280.643 185.4,278.86L188.21,278.59L188.21,273.13L185.4,272.87C185.028,271.07 184.319,269.356 183.31,267.82L185.11,265.65L181.25,261.79L179.08,263.59C177.544,262.581 175.83,261.872 174.03,261.5L173.77,258.69L168.31,258.69L168.04,261.5C166.257,261.876 164.561,262.586 163.04,263.59L160.86,261.79L157,265.65L158.8,267.82ZM176.1,270.82C177.443,272.153 178.2,273.969 178.2,275.861C178.2,279.756 174.995,282.961 171.1,282.961C167.205,282.961 164,279.756 164,275.861C164,273.969 164.757,272.153 166.1,270.82C168.855,268.098 173.356,268.107 176.1,270.84L176.1,270.82Z" style="fill:white;fill-opacity:0.4;fill-rule:nonzero;"/>
                        <path d="M319.92,201C318.988,202.425 318.333,204.013 317.99,205.68L315.38,205.92L315.38,211L317.99,211.24C318.333,212.907 318.988,214.495 319.92,215.92L318.25,217.92L321.83,221.5L323.83,219.83C325.255,220.762 326.843,221.417 328.51,221.76L328.75,224.37L333.81,224.37L334.05,221.76C335.717,221.417 337.305,220.762 338.73,219.83L340.73,221.5L344.31,217.92L342.64,215.92C343.572,214.495 344.227,212.907 344.57,211.24L347.18,211L347.18,206L344.57,205.76C344.227,204.093 343.572,202.505 342.64,201.08L344.31,199.08L340.73,195.5L338.73,197.17C337.305,196.238 335.717,195.583 334.05,195.24L333.81,192.63L328.75,192.63L328.51,195.24C326.843,195.583 325.255,196.238 323.83,197.17L321.83,195.5L318.25,199L319.92,201ZM335.92,203.8C337.155,205.034 337.85,206.71 337.85,208.456C337.85,212.065 334.88,215.036 331.27,215.036C327.66,215.036 324.69,212.065 324.69,208.456C324.69,206.71 325.385,205.034 326.62,203.8C327.852,202.569 329.524,201.876 331.265,201.876C333.021,201.876 334.706,202.58 335.94,203.83L335.92,203.8Z" style="fill:rgb(51,94,234);fill-rule:nonzero;"/>
                        <path d="M319.92,201C318.988,202.425 318.333,204.013 317.99,205.68L315.38,205.92L315.38,211L317.99,211.24C318.333,212.907 318.988,214.495 319.92,215.92L318.25,217.92L321.83,221.5L323.83,219.83C325.255,220.762 326.843,221.417 328.51,221.76L328.75,224.37L333.81,224.37L334.05,221.76C335.717,221.417 337.305,220.762 338.73,219.83L340.73,221.5L344.31,217.92L342.64,215.92C343.572,214.495 344.227,212.907 344.57,211.24L347.18,211L347.18,206L344.57,205.76C344.227,204.093 343.572,202.505 342.64,201.08L344.31,199.08L340.73,195.5L338.73,197.17C337.305,196.238 335.717,195.583 334.05,195.24L333.81,192.63L328.75,192.63L328.51,195.24C326.843,195.583 325.255,196.238 323.83,197.17L321.83,195.5L318.25,199L319.92,201ZM335.92,203.8C337.155,205.034 337.85,206.71 337.85,208.456C337.85,212.065 334.88,215.036 331.27,215.036C327.66,215.036 324.69,212.065 324.69,208.456C324.69,206.71 325.385,205.034 326.62,203.8C327.852,202.569 329.524,201.876 331.265,201.876C333.021,201.876 334.706,202.58 335.94,203.83L335.92,203.8Z" style="fill:white;fill-opacity:0.4;fill-rule:nonzero;"/>
                        <path d="M313.66,173.05C313.066,173.965 312.645,174.982 312.42,176.05L310.73,176.2L310.73,179.47L312.42,179.63C312.642,180.699 313.063,181.716 313.66,182.63L312.58,183.93L314.89,186.24L316.2,185.16C317.111,185.764 318.129,186.189 319.2,186.41L319.36,188.1L322.62,188.1L322.78,186.41C323.851,186.189 324.869,185.764 325.78,185.16L327.08,186.24L329.39,183.93L328.32,182.63C328.917,181.716 329.338,180.699 329.56,179.63L331.25,179.47L331.25,176.2L329.56,176.04C329.334,174.972 328.914,173.956 328.32,173.04L329.39,171.74L327.08,169.43L325.78,170.51C324.867,169.91 323.849,169.486 322.78,169.26L322.62,167.58L319.36,167.58L319.2,169.26C318.131,169.486 317.113,169.91 316.2,170.51L314.89,169.43L312.58,171.74L313.66,173.05ZM324,174.86C324.8,175.657 325.25,176.741 325.25,177.87C325.25,180.202 323.331,182.12 321,182.12C318.669,182.12 316.75,180.202 316.75,177.87C316.75,176.741 317.2,175.657 318,174.86C319.648,173.218 322.352,173.218 324,174.86Z" style="fill:rgb(51,94,234);fill-rule:nonzero;"/>
                        <path d="M313.66,173.05C313.066,173.965 312.645,174.982 312.42,176.05L310.73,176.2L310.73,179.47L312.42,179.63C312.642,180.699 313.063,181.716 313.66,182.63L312.58,183.93L314.89,186.24L316.2,185.16C317.111,185.764 318.129,186.189 319.2,186.41L319.36,188.1L322.62,188.1L322.78,186.41C323.851,186.189 324.869,185.764 325.78,185.16L327.08,186.24L329.39,183.93L328.32,182.63C328.917,181.716 329.338,180.699 329.56,179.63L331.25,179.47L331.25,176.2L329.56,176.04C329.334,174.972 328.914,173.956 328.32,173.04L329.39,171.74L327.08,169.43L325.78,170.51C324.867,169.91 323.849,169.486 322.78,169.26L322.62,167.58L319.36,167.58L319.2,169.26C318.131,169.486 317.113,169.91 316.2,170.51L314.89,169.43L312.58,171.74L313.66,173.05ZM324,174.86C324.8,175.657 325.25,176.741 325.25,177.87C325.25,180.202 323.331,182.12 321,182.12C318.669,182.12 316.75,180.202 316.75,177.87C316.75,176.741 317.2,175.657 318,174.86C319.648,173.218 322.352,173.218 324,174.86Z" style="fill:white;fill-opacity:0.7;fill-rule:nonzero;"/>
                        <path d="M177,300.57C176.406,301.486 175.986,302.502 175.76,303.57L174.07,303.73L174.07,307L175.76,307.16C175.984,308.228 176.405,309.245 177,310.16L175.93,311.46L178.24,313.77L179.54,312.69C180.451,313.294 181.469,313.719 182.54,313.94L182.7,315.63L186,315.63L186.16,313.94C187.231,313.719 188.249,313.294 189.16,312.69L190.47,313.77L192.78,311.46L191.7,310.16C192.299,309.247 192.72,308.229 192.94,307.16L194.63,307L194.63,303.73L192.94,303.57C192.719,302.501 192.298,301.483 191.7,300.57L192.78,299.27L190.47,297L189.16,298C188.247,297.4 187.229,296.976 186.16,296.75L186,295.07L182.74,295.07L182.58,296.75C181.511,296.976 180.493,297.4 179.58,298L178.28,296.92L175.97,299.23L177,300.57ZM187.36,302.38C188.16,303.177 188.61,304.261 188.61,305.39C188.61,307.722 186.691,309.64 184.36,309.64C182.029,309.64 180.11,307.722 180.11,305.39C180.11,304.261 180.56,303.177 181.36,302.38C183.008,300.738 185.712,300.738 187.36,302.38Z" style="fill:rgb(51,94,234);fill-rule:nonzero;"/>
                        <path d="M177,300.57C176.406,301.486 175.986,302.502 175.76,303.57L174.07,303.73L174.07,307L175.76,307.16C175.984,308.228 176.405,309.245 177,310.16L175.93,311.46L178.24,313.77L179.54,312.69C180.451,313.294 181.469,313.719 182.54,313.94L182.7,315.63L186,315.63L186.16,313.94C187.231,313.719 188.249,313.294 189.16,312.69L190.47,313.77L192.78,311.46L191.7,310.16C192.299,309.247 192.72,308.229 192.94,307.16L194.63,307L194.63,303.73L192.94,303.57C192.719,302.501 192.298,301.483 191.7,300.57L192.78,299.27L190.47,297L189.16,298C188.247,297.4 187.229,296.976 186.16,296.75L186,295.07L182.74,295.07L182.58,296.75C181.511,296.976 180.493,297.4 179.58,298L178.28,296.92L175.97,299.23L177,300.57ZM187.36,302.38C188.16,303.177 188.61,304.261 188.61,305.39C188.61,307.722 186.691,309.64 184.36,309.64C182.029,309.64 180.11,307.722 180.11,305.39C180.11,304.261 180.56,303.177 181.36,302.38C183.008,300.738 185.712,300.738 187.36,302.38Z" style="fill:white;fill-opacity:0.7;fill-rule:nonzero;"/>
                        <path d="M199.5,206.29C195.155,212.925 192.101,220.322 190.5,228.09L178.32,229.24L178.32,252.82L190.5,254C192.103,261.771 195.156,269.17 199.5,275.81L191.72,285.2L208.4,301.88L217.79,294.1C224.43,298.444 231.829,301.497 239.6,303.1L240.75,315.28L264.33,315.28L265.48,303.1C273.248,301.499 280.645,298.445 287.28,294.1L296.68,301.88L313.36,285.2L305.58,275.81C309.925,269.171 312.979,261.771 314.58,254L326.75,252.85L326.75,229.24L314.58,228.09C312.977,220.322 309.924,212.926 305.58,206.29L313.36,196.89L296.68,180.22L287.28,187.99C280.644,183.646 273.248,180.593 265.48,178.99L264.33,166.81L240.75,166.81L239.6,179C231.829,180.603 224.43,183.656 217.79,188L208.4,180.22L191.72,196.9L199.5,206.29ZM279.62,214C286.801,221.18 290.84,230.929 290.84,241.084C290.84,262.095 273.551,279.384 252.54,279.384C231.529,279.384 214.24,262.095 214.24,241.084C214.24,230.929 218.279,221.18 225.46,214C240.319,199.151 264.761,199.151 279.62,214Z" style="fill:rgb(51,94,234);fill-rule:nonzero;"/>
                        <path d="M241.26,244.4L232.76,244.4L231.13,248.33L226.79,248.33L235,230L239.18,230L247.37,248.32L242.92,248.32L241.26,244.4ZM239.93,241.18L237.02,234.18L234.12,241.18L239.93,241.18Z" style="fill:rgb(51,94,234);fill-rule:nonzero;"/>
                        <path d="M261.4,230.82C263.675,231.908 265.129,234.216 265.129,236.738C265.129,237.949 264.794,239.138 264.16,240.17C263.487,241.194 262.527,241.998 261.4,242.48C260.061,243.035 258.62,243.304 257.17,243.27L253.48,243.27L253.48,248.33L249.24,248.33L249.24,230L257.17,230C258.622,229.97 260.064,230.249 261.4,230.82ZM259.84,239C260.48,238.384 260.841,237.533 260.841,236.645C260.841,235.757 260.48,234.906 259.84,234.29C259,233.684 257.974,233.39 256.94,233.46L253.48,233.46L253.48,239.82L256.94,239.82C257.972,239.893 258.999,239.603 259.84,239Z" style="fill:rgb(51,94,234);fill-rule:nonzero;"/>
                        <rect x="268.14" y="230" width="4.24" height="18.32" style="fill:rgb(51,94,234);fill-rule:nonzero;"/>
                        <path d="M217.79,245.88C217.534,245.881 217.316,245.685 217.29,245.43C216.144,235.265 219.247,225.065 225.86,217.26C225.955,217.149 226.094,217.085 226.24,217.085C226.514,217.085 226.74,217.311 226.74,217.585C226.74,217.704 226.697,217.819 226.62,217.91C220.183,225.506 217.166,235.437 218.29,245.33C218.313,245.603 218.112,245.849 217.84,245.88L217.79,245.88Z" style="fill:rgb(51,94,234);fill-rule:nonzero;"/>
                        <path d="M219.48,253.78C219.257,253.783 219.059,253.635 219,253.42C218.588,252.026 218.254,250.611 218,249.18C217.995,249.15 217.992,249.12 217.992,249.09C217.992,248.811 218.221,248.582 218.5,248.582C218.745,248.582 218.957,248.759 219,249C219.259,250.397 219.592,251.779 220,253.14C220.013,253.185 220.02,253.233 220.02,253.28C220.02,253.502 219.873,253.698 219.66,253.76C219.603,253.782 219.541,253.789 219.48,253.78Z" style="fill:rgb(51,94,234);fill-rule:nonzero;"/>
                        <path d="M171.08,239.36L128.33,239.36C128.056,239.36 127.83,239.134 127.83,238.86L127.83,188.8C127.83,188.526 128.056,188.3 128.33,188.3C128.604,188.3 128.83,188.526 128.83,188.8L128.83,238.36L171.08,238.36C171.354,238.36 171.58,238.586 171.58,238.86C171.575,239.132 171.352,239.355 171.08,239.36Z" style="fill:rgb(51,94,234);fill-rule:nonzero;"/>
                        <circle cx="128.33" cy="188.8" r="2.56" style="fill:rgb(51,94,234);"/>
                        <circle cx="389.2" cy="278.42" r="2.56" style="fill:rgb(51,94,234);"/>
                        <path d="M389.7,298.4L326.08,298.4L326.08,270.99L317.2,270.99L317.2,269.99L327.08,269.99L327.08,297.4L388.7,297.4L388.7,278.05L389.7,278.05L389.7,298.4Z" style="fill:rgb(51,94,234);fill-rule:nonzero;"/>
                    </g>
                    <g id="freepik--Server--inject-40">
                        <rect x="359.99" y="305.39" width="108.89" height="104.44" style="fill:rgb(51,94,234);"/>
                        <rect x="359.99" y="305.39" width="108.89" height="104.44" style="fill:white;fill-opacity:0.4;"/>
                        <rect x="394.65" y="305.39" width="74.22" height="104.44" style="fill:white;fill-opacity:0.4;"/>
                        <rect x="398.36" y="310.73" width="66.8" height="12.93" style="fill:rgb(51,94,234);"/>
                        <rect x="398.36" y="326.9" width="66.8" height="12.93" style="fill:rgb(51,94,234);"/>
                        <rect x="398.36" y="343.06" width="66.8" height="12.93" style="fill:rgb(51,94,234);"/>
                        <rect x="398.36" y="359.23" width="66.8" height="12.93" style="fill:rgb(51,94,234);"/>
                        <rect x="398.36" y="375.4" width="66.8" height="12.93" style="fill:rgb(51,94,234);"/>
                        <rect x="398.36" y="391.57" width="66.8" height="12.93" style="fill:rgb(51,94,234);"/>
                        <rect x="363.88" y="310.73" width="26.89" height="12.93" style="fill:rgb(51,94,234);"/>
                        <rect x="363.88" y="326.9" width="26.89" height="12.93" style="fill:rgb(51,94,234);"/>
                        <rect x="363.88" y="343.06" width="26.89" height="12.93" style="fill:rgb(51,94,234);"/>
                        <rect x="363.88" y="359.23" width="26.89" height="12.93" style="fill:rgb(51,94,234);"/>
                        <rect x="363.88" y="375.4" width="26.89" height="12.93" style="fill:rgb(51,94,234);"/>
                        <rect x="363.88" y="391.57" width="26.89" height="12.93" style="fill:rgb(51,94,234);"/>
                        <rect x="460.33" y="312.41" width="1.56" height="9.57" style="fill:white;fill-opacity:0.3;"/>
                        <rect x="457.33" y="312.41" width="1.56" height="9.57" style="fill:white;fill-opacity:0.3;"/>
                        <rect x="454.33" y="312.41" width="1.56" height="9.57" style="fill:white;fill-opacity:0.3;"/>
                        <rect x="451.33" y="312.41" width="1.56" height="9.57" style="fill:white;fill-opacity:0.3;"/>
                        <rect x="448.33" y="312.41" width="1.56" height="9.57" style="fill:white;fill-opacity:0.3;"/>
                        <rect x="460.33" y="328.58" width="1.56" height="9.56" style="fill:white;fill-opacity:0.3;"/>
                        <rect x="457.33" y="328.58" width="1.56" height="9.56" style="fill:white;fill-opacity:0.3;"/>
                        <rect x="454.33" y="328.58" width="1.56" height="9.56" style="fill:white;fill-opacity:0.3;"/>
                        <rect x="451.33" y="328.58" width="1.56" height="9.56" style="fill:white;fill-opacity:0.3;"/>
                        <rect x="448.33" y="328.58" width="1.56" height="9.56" style="fill:white;fill-opacity:0.3;"/>
                        <rect x="460.33" y="344.75" width="1.56" height="9.56" style="fill:white;fill-opacity:0.3;"/>
                        <rect x="457.33" y="344.75" width="1.56" height="9.56" style="fill:white;fill-opacity:0.3;"/>
                        <rect x="454.33" y="344.75" width="1.56" height="9.56" style="fill:white;fill-opacity:0.3;"/>
                        <rect x="451.33" y="344.75" width="1.56" height="9.56" style="fill:white;fill-opacity:0.3;"/>
                        <rect x="448.33" y="344.75" width="1.56" height="9.56" style="fill:white;fill-opacity:0.3;"/>
                        <rect x="460.33" y="360.92" width="1.56" height="9.57" style="fill:white;fill-opacity:0.3;"/>
                        <rect x="457.33" y="360.92" width="1.56" height="9.57" style="fill:white;fill-opacity:0.3;"/>
                        <rect x="454.33" y="360.92" width="1.56" height="9.57" style="fill:white;fill-opacity:0.3;"/>
                        <rect x="451.33" y="360.92" width="1.56" height="9.57" style="fill:white;fill-opacity:0.3;"/>
                        <rect x="448.33" y="360.92" width="1.56" height="9.57" style="fill:white;fill-opacity:0.3;"/>
                        <rect x="460.33" y="377.09" width="1.56" height="9.56" style="fill:white;fill-opacity:0.3;"/>
                        <rect x="457.33" y="377.09" width="1.56" height="9.56" style="fill:white;fill-opacity:0.3;"/>
                        <rect x="454.33" y="377.09" width="1.56" height="9.56" style="fill:white;fill-opacity:0.3;"/>
                        <rect x="451.33" y="377.09" width="1.56" height="9.56" style="fill:white;fill-opacity:0.3;"/>
                        <rect x="448.33" y="377.09" width="1.56" height="9.56" style="fill:white;fill-opacity:0.3;"/>
                        <rect x="460.33" y="393.25" width="1.56" height="9.57" style="fill:white;fill-opacity:0.3;"/>
                        <rect x="457.33" y="393.25" width="1.56" height="9.57" style="fill:white;fill-opacity:0.3;"/>
                        <rect x="454.33" y="393.25" width="1.56" height="9.57" style="fill:white;fill-opacity:0.3;"/>
                        <rect x="451.33" y="393.25" width="1.56" height="9.57" style="fill:white;fill-opacity:0.3;"/>
                        <rect x="448.33" y="393.25" width="1.56" height="9.57" style="fill:white;fill-opacity:0.3;"/>
                        <path d="M406.13,317.19C406.13,318.062 405.412,318.78 404.54,318.78C403.668,318.78 402.95,318.062 402.95,317.19C402.95,316.318 403.668,315.6 404.54,315.6C405.412,315.6 406.13,316.318 406.13,317.19Z" style="fill:white;fill-opacity:0.2;fill-rule:nonzero;"/>
                        <path d="M416.13,317.19C416.13,318.062 415.412,318.78 414.54,318.78C413.668,318.78 412.95,318.062 412.95,317.19C412.95,316.318 413.668,315.6 414.54,315.6C415.412,315.6 416.13,316.318 416.13,317.19Z" style="fill:white;fill-opacity:0.2;fill-rule:nonzero;"/>
                        <path d="M426.13,317.19C426.13,318.062 425.412,318.78 424.54,318.78C423.668,318.78 422.95,318.062 422.95,317.19C422.95,316.318 423.668,315.6 424.54,315.6C425.412,315.6 426.13,316.318 426.13,317.19Z" style="fill:white;fill-opacity:0.4;fill-rule:nonzero;"/>
                        <path d="M406.13,333.36C406.13,334.232 405.412,334.95 404.54,334.95C403.668,334.95 402.95,334.232 402.95,333.36C402.95,332.488 403.668,331.77 404.54,331.77C405.412,331.77 406.13,332.488 406.13,333.36Z" style="fill:white;fill-opacity:0.4;fill-rule:nonzero;"/>
                        <path d="M416.13,333.36C416.13,334.232 415.412,334.95 414.54,334.95C413.668,334.95 412.95,334.232 412.95,333.36C412.95,332.488 413.668,331.77 414.54,331.77C415.412,331.77 416.13,332.488 416.13,333.36Z" style="fill:white;fill-opacity:0.2;fill-rule:nonzero;"/>
                        <path d="M426.13,333.36C426.13,334.232 425.412,334.95 424.54,334.95C423.668,334.95 422.95,334.232 422.95,333.36C422.95,332.488 423.668,331.77 424.54,331.77C425.412,331.77 426.13,332.488 426.13,333.36Z" style="fill:white;fill-opacity:0.4;fill-rule:nonzero;"/>
                        <path d="M406.13,349.53C406.13,350.402 405.412,351.12 404.54,351.12C403.668,351.12 402.95,350.402 402.95,349.53C402.95,348.658 403.668,347.94 404.54,347.94C405.412,347.94 406.13,348.658 406.13,349.53Z" style="fill:white;fill-opacity:0.2;fill-rule:nonzero;"/>
                        <path d="M416.13,349.53C416.13,350.402 415.412,351.12 414.54,351.12C413.668,351.12 412.95,350.402 412.95,349.53C412.95,348.658 413.668,347.94 414.54,347.94C415.412,347.94 416.13,348.658 416.13,349.53Z" style="fill:white;fill-opacity:0.4;fill-rule:nonzero;"/>
                        <path d="M426.13,349.53C426.13,350.402 425.412,351.12 424.54,351.12C423.668,351.12 422.95,350.402 422.95,349.53C422.95,348.658 423.668,347.94 424.54,347.94C425.412,347.94 426.13,348.658 426.13,349.53Z" style="fill:white;fill-opacity:0.2;fill-rule:nonzero;"/>
                        <path d="M406.13,365.7C406.13,366.572 405.412,367.29 404.54,367.29C403.668,367.29 402.95,366.572 402.95,365.7C402.95,364.828 403.668,364.11 404.54,364.11C405.412,364.11 406.13,364.828 406.13,365.7Z" style="fill:white;fill-opacity:0.4;fill-rule:nonzero;"/>
                        <path d="M416.13,365.7C416.13,366.572 415.412,367.29 414.54,367.29C413.668,367.29 412.95,366.572 412.95,365.7C412.95,364.828 413.668,364.11 414.54,364.11C415.412,364.11 416.13,364.828 416.13,365.7Z" style="fill:white;fill-opacity:0.2;fill-rule:nonzero;"/>
                        <path d="M426.13,365.7C426.13,366.572 425.412,367.29 424.54,367.29C423.668,367.29 422.95,366.572 422.95,365.7C422.95,364.828 423.668,364.11 424.54,364.11C425.412,364.11 426.13,364.828 426.13,365.7Z" style="fill:white;fill-opacity:0.2;fill-rule:nonzero;"/>
                        <path d="M406.13,381.87C406.13,382.742 405.412,383.46 404.54,383.46C403.668,383.46 402.95,382.742 402.95,381.87C402.95,380.998 403.668,380.28 404.54,380.28C405.412,380.28 406.13,380.998 406.13,381.87Z" style="fill:white;fill-opacity:0.2;fill-rule:nonzero;"/>
                        <path d="M416.13,381.87C416.13,382.742 415.412,383.46 414.54,383.46C413.668,383.46 412.95,382.742 412.95,381.87C412.95,380.998 413.668,380.28 414.54,380.28C415.412,380.28 416.13,380.998 416.13,381.87Z" style="fill:white;fill-opacity:0.4;fill-rule:nonzero;"/>
                        <path d="M426.13,381.87C426.13,382.742 425.412,383.46 424.54,383.46C423.668,383.46 422.95,382.742 422.95,381.87C422.95,380.998 423.668,380.28 424.54,380.28C425.412,380.28 426.13,380.998 426.13,381.87Z" style="fill:white;fill-opacity:0.4;fill-rule:nonzero;"/>
                        <path d="M406.13,398C406.13,398.872 405.412,399.59 404.54,399.59C403.668,399.59 402.95,398.872 402.95,398C402.95,397.128 403.668,396.41 404.54,396.41C405.412,396.41 406.13,397.128 406.13,398Z" style="fill:white;fill-opacity:0.4;fill-rule:nonzero;"/>
                        <path d="M416.13,398C416.13,398.872 415.412,399.59 414.54,399.59C413.668,399.59 412.95,398.872 412.95,398C412.95,397.128 413.668,396.41 414.54,396.41C415.412,396.41 416.13,397.128 416.13,398Z" style="fill:white;fill-opacity:0.2;fill-rule:nonzero;"/>
                        <path d="M426.13,398C426.13,398.872 425.412,399.59 424.54,399.59C423.668,399.59 422.95,398.872 422.95,398C422.95,397.128 423.668,396.41 424.54,396.41C425.412,396.41 426.13,397.128 426.13,398Z" style="fill:white;fill-opacity:0.4;fill-rule:nonzero;"/>
                        <rect x="359.99" y="305.39" width="34.66" height="104.44" style="fill-opacity:0.3;"/>
                    </g>
                    <g id="freepik--Tabs--inject-40">
                        <path d="M465.09,180.2L465.09,263.72C465.09,266.446 462.876,268.66 460.15,268.66L358.95,268.66C356.224,268.66 354.01,266.446 354.01,263.72L354.01,180.2C354.01,177.474 356.224,175.26 358.95,175.26L460.15,175.26C462.876,175.26 465.09,177.474 465.09,180.2Z" style="fill:rgb(51,94,234);"/>
                        <path d="M465.09,180.2L465.09,263.72C465.09,266.446 462.876,268.66 460.15,268.66L358.95,268.66C356.224,268.66 354.01,266.446 354.01,263.72L354.01,180.2C354.01,177.474 356.224,175.26 358.95,175.26L460.15,175.26C462.876,175.26 465.09,177.474 465.09,180.2Z" style="fill:white;fill-opacity:0.5;"/>
                        <path d="M358.64,175.26L460.54,175.26C463.036,175.26 465.09,177.314 465.09,179.81L465.09,191.55L354,191.55C354,191.55 354,179.89 354,179.89C354,177.35 356.09,175.26 358.63,175.26C358.633,175.26 358.637,175.26 358.64,175.26Z" style="fill:rgb(51,94,234);fill-rule:nonzero;"/>
                        <path d="M458.81,184.59C458.81,184.593 458.81,184.597 458.81,184.6C458.81,186.553 457.203,188.16 455.25,188.16C453.297,188.16 451.69,186.553 451.69,184.6C451.69,182.647 453.297,181.04 455.25,181.04C455.253,181.04 455.257,181.04 455.26,181.04C457.207,181.04 458.81,182.643 458.81,184.59Z" style="fill:white;fill-opacity:0.5;fill-rule:nonzero;"/>
                        <path d="M448.71,184.59C448.71,184.593 448.71,184.597 448.71,184.6C448.71,186.553 447.103,188.16 445.15,188.16C443.197,188.16 441.59,186.553 441.59,184.6C441.59,182.647 443.197,181.04 445.15,181.04C447.099,181.04 448.705,182.641 448.71,184.59Z" style="fill:white;fill-opacity:0.5;fill-rule:nonzero;"/>
                        <path d="M438.6,184.59C438.6,184.593 438.6,184.597 438.6,184.6C438.6,186.553 436.993,188.16 435.04,188.16C433.087,188.16 431.48,186.553 431.48,184.6C431.48,182.647 433.087,181.04 435.04,181.04C435.043,181.04 435.047,181.04 435.05,181.04C436.997,181.04 438.6,182.643 438.6,184.59Z" style="fill:white;fill-opacity:0.5;fill-rule:nonzero;"/>
                        <rect x="379.01" y="205.16" width="56.97" height="3.32" style="fill:white;fill-opacity:0.6;"/>
                        <rect x="379.89" y="212.34" width="40.77" height="3.32" style="fill:rgb(38,50,56);fill-opacity:0.6;"/>
                        <rect x="440.17" y="205.16" width="11.21" height="3.32" style="fill:rgb(51,94,234);"/>
                        <rect x="363.84" y="205.16" width="11.21" height="3.32" style="fill:rgb(51,94,234);"/>
                        <rect x="379.01" y="220.31" width="56.97" height="3.32" style="fill:rgb(51,94,234);"/>
                        <rect x="440.17" y="220.31" width="11.21" height="3.32" style="fill:white;fill-opacity:0.6;"/>
                        <rect x="363.84" y="220.31" width="11.21" height="3.32" style="fill:rgb(51,94,234);"/>
                        <rect x="379.01" y="251.87" width="56.97" height="3.32" style="fill:rgb(51,94,234);"/>
                        <rect x="440.17" y="251.87" width="11.21" height="3.32" style="fill:white;fill-opacity:0.6;"/>
                        <rect x="379.01" y="228.29" width="56.97" height="3.32" style="fill:rgb(51,94,234);"/>
                        <rect x="440.17" y="228.29" width="11.21" height="3.32" style="fill:rgb(38,50,56);fill-opacity:0.6;"/>
                        <rect x="363.84" y="228.29" width="11.21" height="3.32" style="fill:rgb(38,50,56);fill-opacity:0.6;"/>
                        <rect x="425.12" y="212.47" width="27.08" height="3.32" style="fill:rgb(51,94,234);"/>
                        <rect x="379.01" y="235.25" width="40.77" height="3.32" style="fill:white;fill-opacity:0.6;"/>
                        <rect x="424.24" y="235.38" width="27.08" height="3.32" style="fill:rgb(51,94,234);"/>
                        <rect x="379.01" y="242.46" width="20.38" height="3.32" style="fill:rgb(38,50,56);fill-opacity:0.6;"/>
                        <path d="M163.78,84.59L163.78,168.11C163.78,170.836 161.566,173.05 158.84,173.05L57.64,173.05C54.914,173.05 52.7,170.836 52.7,168.11L52.7,84.59C52.7,81.864 54.914,79.65 57.64,79.65L158.84,79.65C161.566,79.65 163.78,81.864 163.78,84.59Z" style="fill:rgb(51,94,234);"/>
                        <path d="M163.78,84.59L163.78,168.11C163.78,170.836 161.566,173.05 158.84,173.05L57.64,173.05C54.914,173.05 52.7,170.836 52.7,168.11L52.7,84.59C52.7,81.864 54.914,79.65 57.64,79.65L158.84,79.65C161.566,79.65 163.78,81.864 163.78,84.59Z" style="fill:white;fill-opacity:0.5;"/>
                        <path d="M57.32,79.65L159.23,79.65C161.726,79.65 163.78,81.704 163.78,84.2L163.78,95.94L52.7,95.94L52.7,84.28C52.7,81.744 54.784,79.655 57.32,79.65Z" style="fill:rgb(51,94,234);fill-rule:nonzero;"/>
                        <path d="M157.5,89C157.494,90.949 155.889,92.549 153.94,92.549C151.987,92.549 150.38,90.942 150.38,88.989C150.38,87.037 151.987,85.429 153.94,85.429C153.96,85.429 153.98,85.43 154,85.43C155.936,85.457 157.511,87.064 157.5,89Z" style="fill:white;fill-opacity:0.5;fill-rule:nonzero;"/>
                        <path d="M147.4,89C147.4,90.953 145.793,92.56 143.84,92.56C141.887,92.56 140.28,90.953 140.28,89C140.28,87.047 141.887,85.44 143.84,85.44C143.843,85.44 143.847,85.44 143.85,85.44C145.797,85.44 147.4,87.043 147.4,88.99C147.4,88.993 147.4,88.997 147.4,89Z" style="fill:white;fill-opacity:0.5;fill-rule:nonzero;"/>
                        <path d="M137.29,89C137.29,90.953 135.683,92.56 133.73,92.56C131.777,92.56 130.17,90.953 130.17,89C130.17,87.047 131.777,85.44 133.73,85.44C133.733,85.44 133.74,85.44 133.74,85.44C135.687,85.44 137.29,87.043 137.29,88.99C137.29,88.993 137.29,88.997 137.29,89Z" style="fill:white;fill-opacity:0.5;fill-rule:nonzero;"/>
                        <path d="M143.24,131.72C139.56,126.78 132.01,124.37 126.98,127.94C125.537,117.598 116.598,109.818 106.155,109.818C94.62,109.818 85.128,119.31 85.128,130.845C85.128,131.817 85.196,132.787 85.33,133.75C80.47,132.64 75.13,133.81 71.98,138.83C67.88,145.33 73.19,151.78 73.19,151.78L101.69,151.95L101.69,141.5L98.05,141.5C98.047,141.5 98.045,141.5 98.042,141.5C97.642,141.5 97.312,141.171 97.312,140.77C97.312,140.579 97.387,140.396 97.52,140.26L101.71,135.88L106.57,130.81C106.709,130.667 106.9,130.586 107.1,130.586C107.3,130.586 107.491,130.667 107.63,130.81L112.48,135.88L116.68,140.26C116.805,140.396 116.875,140.575 116.875,140.76C116.875,141.16 116.55,141.492 116.15,141.5L112.5,141.5L112.5,152L142.84,152.17C147.16,147.21 146.93,136.66 143.24,131.72Z" style="fill:white;fill-rule:nonzero;"/>
                    </g>
                    <g id="freepik--Character--inject-40">
                        <path d="M100.52,412.61C100.52,412.61 187.64,392.2 191.78,410.34C197.7,436.25 134.84,453.67 101.36,452.61C67.88,451.55 100.52,412.61 100.52,412.61Z" style="fill:rgb(38,50,56);fill-rule:nonzero;"/>
                        <path d="M100.52,412.61C100.52,412.61 187.64,392.2 191.78,410.34C197.7,436.25 134.84,453.67 101.36,452.61C67.88,451.55 100.52,412.61 100.52,412.61Z" style="fill-opacity:0.2;fill-rule:nonzero;"/>
                        <path d="M163.2,415.94L122.28,441.94L127.74,449.7C127.74,449.7 124.87,453.97 119.39,440.87L144.7,424.14C144.7,424.14 136.78,423.35 136.98,422.14C137.32,420.14 154.72,416.23 162.66,414.49C162.73,414.47 162.801,414.461 162.874,414.461C163.307,414.461 163.664,414.817 163.664,415.251C163.664,415.56 163.482,415.842 163.2,415.97L163.2,415.94Z" style="fill-opacity:0.7;fill-rule:nonzero;"/>
                        <path d="M120.8,439L127.9,450.5C119.138,452.02 110.252,452.72 101.36,452.59C98.442,452.569 95.55,452.045 92.81,451.04L90.32,446.48L95.68,435.68L120.8,439Z" style="fill-opacity:0.7;fill-rule:nonzero;"/>
                        <path d="M134.34,434.44L116.15,445.98L119.41,454.81L140.77,445.21L134.34,434.44Z" style="fill:rgb(185,121,100);fill-rule:nonzero;"/>
                        <path d="M106.13,448.94L107.92,455.29C108.741,455.499 109.404,456.109 109.68,456.91C109.735,457.861 109.627,458.815 109.36,459.73L114.14,477.24C114.721,477.087 115.282,476.866 115.81,476.58C116.322,476.217 116.789,475.794 117.2,475.32C118.5,473.83 118.64,471.66 118.69,470.06C118.77,467.38 120.31,459.53 120.31,459.53C120.856,458.022 121.808,456.693 123.06,455.69C124.047,454.975 124.655,453.847 124.71,452.63C124.596,451.458 123.599,450.553 122.421,450.553C122.221,450.553 122.023,450.579 121.83,450.63L120.09,450.84C118.815,449.935 118.45,448.177 119.26,446.84C120.07,445.503 120.26,443.03 118.69,443.67C117.77,444.03 113.76,445.83 110.54,447.15L108.46,448L106.13,448.94Z" style="fill:rgb(38,50,56);fill-rule:nonzero;"/>
                        <path d="M119.64,463.71C119.685,463.611 119.661,463.493 119.58,463.42C119.201,463.063 118.73,462.817 118.22,462.71C117.94,462.71 117.82,463.1 118.09,463.16C118.54,463.252 118.958,463.463 119.3,463.77C119.339,463.824 119.403,463.857 119.47,463.857C119.537,463.857 119.601,463.824 119.64,463.77L119.64,463.71Z" style="fill:rgb(51,94,234);fill-rule:nonzero;"/>
                        <path d="M120,462.16C120.045,462.061 120.021,461.943 119.94,461.87C119.561,461.514 119.09,461.272 118.58,461.17C118.3,461.11 118.17,461.55 118.45,461.61C118.9,461.702 119.318,461.913 119.66,462.22C119.7,462.262 119.755,462.286 119.812,462.286C119.892,462.286 119.964,462.241 120,462.17L120,462.16Z" style="fill:rgb(51,94,234);fill-rule:nonzero;"/>
                        <path d="M120.3,460.59C120.341,460.487 120.318,460.369 120.24,460.29C119.854,459.939 119.381,459.698 118.87,459.59C118.6,459.53 118.47,459.97 118.75,460.03C119.198,460.126 119.613,460.34 119.95,460.65C119.989,460.69 120.043,460.712 120.099,460.712C120.181,460.712 120.256,460.664 120.29,460.59L120.3,460.59Z" style="fill:rgb(51,94,234);fill-rule:nonzero;"/>
                        <path d="M108.46,448L106.13,449L107.92,455.35C108.741,455.559 109.404,456.169 109.68,456.97C109.735,457.921 109.627,458.875 109.36,459.79L114.14,477.3C114.721,477.147 115.282,476.926 115.81,476.64C116.07,476.45 116.3,476.26 116.52,476.07L108.81,447.9L108.46,448Z" style="fill:white;fill-opacity:0.2;fill-rule:nonzero;"/>
                        <path d="M122.73,461.87C122.559,461.868 122.388,461.851 122.22,461.82C121.414,461.524 120.658,461.106 119.98,460.58L119.78,460.45L120,460.36C120.596,460.124 121.212,459.94 121.84,459.81C122.481,459.672 123.148,459.71 123.77,459.92C124.183,459.967 124.498,460.32 124.498,460.735C124.498,461.055 124.311,461.347 124.02,461.48C123.642,461.742 123.19,461.879 122.73,461.87ZM120.31,460.52C120.916,460.975 121.591,461.329 122.31,461.57C122.86,461.696 123.439,461.591 123.91,461.28C124.139,461.145 124.277,460.896 124.27,460.63C124.21,460.37 123.91,460.22 123.73,460.15C123.146,459.958 122.522,459.923 121.92,460.05C121.37,460.159 120.832,460.316 120.31,460.52Z" style="fill:rgb(51,94,234);fill-rule:nonzero;"/>
                        <path d="M119.92,460.65L119.92,460.42C119.83,459.563 119.867,458.697 120.03,457.85C120.241,457.25 120.684,456.76 121.26,456.49C121.392,456.406 121.544,456.362 121.7,456.362C122.15,456.362 122.52,456.732 122.52,457.182C122.52,457.288 122.5,457.392 122.46,457.49C122.317,458.132 122.003,458.723 121.55,459.2C121.116,459.665 120.64,460.09 120.13,460.47L119.92,460.65ZM121.73,456.65C121.596,456.65 121.463,456.677 121.34,456.73C120.827,456.972 120.433,457.413 120.25,457.95C120.096,458.68 120.059,459.429 120.14,460.17C120.574,459.838 120.978,459.47 121.35,459.07C121.765,458.622 122.058,458.074 122.2,457.48C122.277,457.237 122.228,456.97 122.07,456.77C121.979,456.682 121.856,456.635 121.73,456.64L121.73,456.65Z" style="fill:rgb(51,94,234);fill-rule:nonzero;"/>
                        <path d="M136.51,357.18C136.51,357.18 139.69,385.5 140.51,387.02C143.39,392.16 162.44,401.02 162.44,401.02L172.15,399.02L179.15,404.83L174.56,408.42L169.18,406.42C166.242,406.944 163.264,407.205 160.28,407.2C155.28,407.2 131.07,401.07 127.03,394.32C122.99,387.57 121.14,356.32 121.14,356.32L136.51,357.18Z" style="fill:rgb(185,121,100);fill-rule:nonzero;"/>
                        <path d="M120.71,368.31C120.71,368.31 113.25,343.44 122.55,336.53C131.85,329.62 139.24,363.83 139.24,363.83L120.71,368.31Z" style="fill:rgb(51,94,234);fill-rule:nonzero;"/>
                        <path d="M120.71,368.31C120.71,368.31 113.25,343.44 122.55,336.53C131.85,329.62 139.24,363.83 139.24,363.83L120.71,368.31Z" style="fill:white;fill-opacity:0.3;fill-rule:nonzero;"/>
                        <path d="M126.6,413.81L126.53,380.81L125.61,335.41L106.34,331.41L89.34,330.66L70.1,339.55L69.65,350.63C69.65,350.63 71.85,401.49 71.73,403.03C71.58,404.91 66.1,416.7 66.1,416.7C90.48,422.26 127,415.49 126.6,413.81Z" style="fill:rgb(51,94,234);fill-rule:nonzero;"/>
                        <path d="M126.6,413.81L126.53,380.81L125.61,335.41L106.34,331.41L89.34,330.66L70.1,339.55L69.65,350.63C69.65,350.63 71.85,401.49 71.73,403.03C71.58,404.91 66.1,416.7 66.1,416.7C90.48,422.26 127,415.49 126.6,413.81Z" style="fill:white;fill-opacity:0.3;fill-rule:nonzero;"/>
                        <path d="M99,338C99,338 103.73,342.21 106.15,336.77L107.41,337.77C107.41,337.77 107.29,341.82 104.99,343.17C105.55,345.42 115.15,378.12 116.87,394.6L114.25,401.29L107.25,395.78C107.25,395.78 103.87,367.51 102.71,343.48C99.965,342.56 97.765,340.466 96.71,337.77L99,338Z" style="fill:rgb(51,94,234);fill-rule:nonzero;"/>
                        <path d="M105.1,338.58L109.2,341.77L109.87,332.2L108.57,331.92L107.48,338.37L105.54,337.24L105.1,338.58Z" style="fill-opacity:0.2;fill-rule:nonzero;"/>
                        <path d="M85.35,332.57C85.28,332.57 95,344.46 95,344.46L98.3,341.94L100.57,340.02L101.16,339.3L88.29,330.36C87.699,330.991 87.064,331.579 86.39,332.12C86.03,332.236 85.682,332.387 85.35,332.57Z" style="fill-opacity:0.2;fill-rule:nonzero;"/>
                        <path d="M86.04,332.37L90.74,328.17L103.61,340.22L100.25,339.03L95.34,342.8L86.04,332.37Z" style="fill:rgb(51,94,234);fill-rule:nonzero;"/>
                        <path d="M103.61,340.22C103.33,339.67 104.61,328.73 104.61,328.73L109.17,331.85C108.93,331.8 108.77,340.85 108.62,340.85C108.47,340.85 105.62,337.75 105.62,337.75L103.61,340.22Z" style="fill:rgb(51,94,234);fill-rule:nonzero;"/>
                        <path d="M126.26,366.97L125.26,345.71L130.02,366.06L126.26,366.97Z" style="fill-opacity:0.2;fill-rule:nonzero;"/>
                        <path d="M85,370.07C85.6,369.95 88.63,368.95 88.63,368.95L81.9,350.17L91.17,371L85.6,373.22L85,370.07Z" style="fill-opacity:0.2;fill-rule:nonzero;"/>
                        <path d="M86.04,332.37L90.74,328.17L103.61,340.22L100.25,339.03L95.34,342.8L86.04,332.37Z" style="fill:white;fill-opacity:0.3;fill-rule:nonzero;"/>
                        <path d="M103.61,340.22C103.33,339.67 104.61,328.73 104.61,328.73L109.17,331.85C108.93,331.8 108.77,340.85 108.62,340.85C108.47,340.85 105.62,337.75 105.62,337.75L103.61,340.22Z" style="fill:white;fill-opacity:0.3;fill-rule:nonzero;"/>
                        <path d="M110.91,357.8L113.07,368.41L119.36,370.69L123.61,366.98L122.83,356.96L110.91,357.8Z" style="fill:white;fill-opacity:0.3;fill-rule:nonzero;"/>
                        <path d="M104.38,339.3L102.38,339.78C102.38,339.78 102.31,339.91 102.38,339.83C102.45,339.75 101.29,343.6 101.29,343.6C101.61,343.89 102.68,345.74 102.8,345.71C102.92,345.68 105.57,345.43 105.57,345.43L106.57,342.63L104.38,339.3Z" style="fill:rgb(51,94,234);fill-rule:nonzero;"/>
                        <path d="M104.38,339.3L102.38,339.78C102.38,339.78 102.31,339.91 102.38,339.83C102.45,339.75 101.29,343.6 101.29,343.6C101.61,343.89 102.68,345.74 102.8,345.71C102.92,345.68 105.57,345.43 105.57,345.43L106.57,342.63L104.38,339.3Z" style="fill-opacity:0.2;fill-rule:nonzero;"/>
                        <path d="M82.41,354.49C82.41,354.49 87.13,385.93 89.86,388.87C94.47,393.87 117.32,407.02 117.32,407.02L128.73,403.02C129.521,402.756 130.394,402.899 131.06,403.4L138.86,409.4L138.12,410.03C137.793,410.304 137.333,410.359 136.95,410.17L135.74,409.57L137.09,410.89L136.67,411.26C136.234,411.622 135.647,411.749 135.1,411.6L131.61,410.66L134.83,412.81C134.094,413.414 133.106,413.62 132.19,413.36L127.09,411.91C123.607,412.703 120.065,413.208 116.5,413.42C110.5,413.79 82.13,403.88 76.84,396.63C71.55,389.38 66.1,359.19 66.1,359.19L82.41,354.49Z" style="fill:rgb(185,121,100);fill-rule:nonzero;"/>
                        <path d="M67.31,375.41C67.31,375.41 60.24,346.91 69.54,340C78.84,333.09 88.05,369.15 88.05,369.15L67.31,375.41Z" style="fill:rgb(51,94,234);fill-rule:nonzero;"/>
                        <path d="M67.31,375.41C67.31,375.41 60.24,346.91 69.54,340C78.84,333.09 88.05,369.15 88.05,369.15L67.31,375.41Z" style="fill:white;fill-opacity:0.3;fill-rule:nonzero;"/>
                        <path d="M128.18,301.69C129.439,301.555 130.405,300.48 130.405,299.214C130.405,298.027 129.555,296.997 128.39,296.77L122.88,296.22C123.14,299.76 123.403,303.297 123.67,306.83C124.73,307.15 125.86,307.15 126.92,306.83C127.99,306.491 128.837,305.662 129.2,304.6C129.54,303.514 129.123,302.326 128.18,301.69Z" style="fill:rgb(38,50,56);fill-rule:nonzero;"/>
                        <path d="M107.11,322.1L95.26,307.19L95.26,307.24C95.26,308.65 95.26,310.24 95.1,311.98C95.1,311.98 93.82,311.37 93.82,311.39C93.31,319.13 90.25,332.39 90.39,333.49L102.84,339.68L105.11,337.41L105.55,332.41C104.28,329.21 105.46,325.53 107.11,322.1Z" style="fill:rgb(185,121,100);fill-rule:nonzero;"/>
                        <path d="M105.33,327.13L97.84,321.21C97.65,324.21 99.23,328.96 105.24,331.42C104.914,330.005 104.945,328.53 105.33,327.13Z" style="fill-opacity:0.2;fill-rule:nonzero;"/>
                        <path d="M97.79,299.8C95.34,309.8 94.41,314.65 97.79,321.21C102.94,331.07 115.53,331.15 120.95,322.02C125.82,313.81 129.02,298.79 120.55,291.96C118.025,289.942 114.887,288.842 111.654,288.842C105.075,288.842 99.31,293.399 97.79,299.8Z" style="fill:rgb(185,121,100);fill-rule:nonzero;"/>
                        <path d="M99.9,286.18C102.9,281.18 110.9,280.37 113.83,284.32C114.26,284.91 109.52,285.05 110.06,285.02L107.28,292.93C106.73,292.62 105.37,292.93 104.22,294.57C104.22,294.57 102.43,305.45 96.79,308.49C91.26,300.85 91.89,286.2 99.9,286.18Z" style="fill:rgb(38,50,56);fill-rule:nonzero;"/>
                        <path d="M91.35,306.8C91.374,309.389 92.434,311.865 94.29,313.67C96.78,316.04 99.66,314.2 100.35,311.02C100.96,308.15 100.41,303.45 97.26,302.29C94.11,301.13 91.35,303.62 91.35,306.8Z" style="fill:rgb(185,121,100);fill-rule:nonzero;"/>
                        <path d="M111.37,308.21C111.06,309.21 111.37,310.21 112,310.39C112.63,310.57 113.45,309.93 113.77,308.93C114.09,307.93 113.77,306.93 113.14,306.74C112.51,306.55 111.69,307.2 111.37,308.21Z" style="fill:rgb(38,50,56);fill-rule:nonzero;"/>
                        <path d="M121.25,311.42C120.94,312.42 121.25,313.42 121.88,313.6C122.51,313.78 123.34,313.14 123.65,312.14C123.96,311.14 123.65,310.14 123.02,309.95C122.39,309.76 121.57,310.41 121.25,311.42Z" style="fill:rgb(38,50,56);fill-rule:nonzero;"/>
                        <path d="M117.77,308.73C117.77,308.73 119.03,313.32 119.6,316.04C119.617,316.116 119.625,316.194 119.625,316.271C119.625,316.843 119.171,317.321 118.6,317.35C117.614,317.328 116.649,317.064 115.79,316.58L117.77,308.73Z" style="fill:rgb(162,78,63);fill-rule:nonzero;"/>
                        <path d="M110.32,302.16C110.456,302.273 110.642,302.307 110.81,302.25C111.975,301.773 113.3,301.873 114.38,302.52C114.601,302.679 114.912,302.635 115.08,302.42C115.236,302.2 115.187,301.891 114.97,301.73C113.621,300.876 111.938,300.727 110.46,301.33C110.211,301.427 110.082,301.708 110.17,301.96C110.202,302.038 110.254,302.107 110.32,302.16Z" style="fill:rgb(38,50,56);fill-rule:nonzero;"/>
                        <path d="M126.5,306.84C126.596,306.819 126.686,306.775 126.76,306.71C126.948,306.52 126.948,306.21 126.76,306.02C125.735,304.815 124.186,304.18 122.61,304.32C122.341,304.366 122.154,304.62 122.19,304.89C122.226,305.128 122.433,305.306 122.674,305.306C122.7,305.306 122.725,305.304 122.75,305.3C124,305.188 125.228,305.706 126.02,306.68C126.141,306.813 126.323,306.873 126.5,306.84Z" style="fill:rgb(38,50,56);fill-rule:nonzero;"/>
                        <path d="M110.54,318.63C110.886,318.909 111.254,319.16 111.64,319.38C111.766,319.444 111.922,319.411 112.01,319.3C112.071,319.165 112.018,319.004 111.89,318.93C109.879,317.85 108.503,315.871 108.19,313.61C108.174,313.47 108.051,313.364 107.91,313.37C107.782,313.364 107.671,313.462 107.66,313.59C107.655,313.61 107.655,313.63 107.66,313.65C107.895,315.634 108.938,317.436 110.54,318.63Z" style="fill:rgb(38,50,56);fill-rule:nonzero;"/>
                        <path d="M133.15,294.2C132.47,292.2 130.09,291.36 127.98,291.2C129.335,291.042 130.364,289.874 130.35,288.51C130.267,287.168 129.583,285.933 128.49,285.15C126.584,283.67 124.035,283.29 121.78,284.15C122.186,283.907 122.367,283.407 122.21,282.96C122.047,282.526 121.753,282.152 121.37,281.89C119.021,280.201 115.788,280.364 113.62,282.28C112.794,279.789 110.179,278.315 107.62,278.9C105.23,279.52 100.73,280 100.04,286.11C99.11,285.224 97.874,284.729 96.59,284.729C93.847,284.729 91.59,286.986 91.59,289.729C91.59,291.55 92.585,293.232 94.18,294.11C93.015,293.728 91.738,294.323 91.28,295.46C90.884,296.603 91.137,297.875 91.94,298.78C92.748,299.65 93.79,300.268 94.94,300.56C96.008,300.907 97.153,300.942 98.24,300.66C99.334,300.35 100.184,299.48 100.47,298.38C100.717,299.554 101.815,300.366 103.01,300.26C104.192,300.082 105.132,299.159 105.33,297.98C105.484,296.806 104.994,295.635 104.05,294.92C104.591,295.376 105.276,295.626 105.983,295.626C107.097,295.626 108.123,295.006 108.64,294.02C109.525,295.954 111.042,297.53 112.94,298.49C114.904,299.419 117.264,298.917 118.68,297.27C119.274,298.033 119.975,298.706 120.76,299.27C121.567,299.83 122.578,300.013 123.53,299.77C124.485,299.482 125.1,298.54 124.98,297.55C126.484,298.896 128.576,299.383 130.52,298.84C132.441,298.192 133.581,296.181 133.15,294.2Z" style="fill:rgb(38,50,56);fill-rule:nonzero;"/>
                        <path d="M143.43,411.63L107.27,411.63C107.27,413.01 108.82,414.12 110.72,414.11L169.61,414.11C171.49,414.11 173,412.98 172.99,411.61L143.43,411.63Z" style="fill:rgb(38,50,56);fill-rule:nonzero;"/>
                        <path d="M170.15,414L137.15,414C136.651,414.035 136.207,413.667 136.15,413.17C136.152,413.081 136.169,412.993 136.2,412.91L150.9,379.23C151.399,378.19 152.478,377.546 153.63,377.6L186.63,377.6C187.127,377.559 187.573,377.925 187.63,378.42C187.629,378.513 187.609,378.605 187.57,378.69L172.88,412.38C172.374,413.412 171.299,414.05 170.15,414Z" style="fill:rgb(38,50,56);fill-rule:nonzero;"/>
                        <path d="M186.63,377.59L153.63,377.59C152.478,377.536 151.399,378.18 150.9,379.22L136.76,411.63L107.27,411.63C107.27,413.01 108.82,414.12 110.72,414.11L169.61,414.11C170.17,414.109 170.724,413.997 171.24,413.78C171.972,413.567 172.576,413.044 172.89,412.35L187.58,378.66C187.619,378.575 187.639,378.483 187.64,378.39C187.573,377.899 187.124,377.543 186.63,377.59Z" style="fill:white;fill-opacity:0.7;fill-rule:nonzero;"/>
                        <path d="M166.78,395.53C166.06,397.14 164.62,398.25 163.54,398.03C162.46,397.81 162.17,396.33 162.87,394.71C163.57,393.09 165.02,392 166.1,392.23C167.18,392.46 167.5,393.87 166.78,395.53Z" style="fill:white;fill-rule:nonzero;"/>
                        <g opacity="0.3">
                            <path d="M150.85,379.22L136.71,411.63L138.24,411.63L153.58,377.63C152.437,377.569 151.361,378.196 150.85,379.22Z" style="fill-rule:nonzero;"/>
                        </g>
                        <path d="M152.55,449L173.83,452.42L177.24,443.65L154.88,436.67L152.55,449Z" style="fill:rgb(185,121,100);fill-rule:nonzero;"/>
                        <path d="M183.29,456.85L186.16,450.91C185.68,450.21 185.589,449.312 185.92,448.53C186.24,447.81 188.03,446.63 188.03,446.63L196.03,430.35C195.495,430.077 194.927,429.872 194.34,429.74C193.715,429.669 193.085,429.669 192.46,429.74C190.51,430.01 188.97,431.53 187.87,432.74C186.03,434.74 179.67,439.55 179.67,439.55C178.26,440.318 176.664,440.682 175.06,440.6C173.847,440.474 172.642,440.917 171.8,441.8C171.504,442.196 171.344,442.677 171.344,443.172C171.344,444.038 171.835,444.833 172.61,445.22L174.06,446.22C174.42,447.736 173.543,449.293 172.06,449.77C170.577,450.247 168.76,451.95 170.39,452.52C171.31,452.86 175.51,454.18 178.79,455.32L180.92,456.06L183.29,456.85Z" style="fill:rgb(38,50,56);fill-rule:nonzero;"/>
                        <path d="M183,436.83C182.894,436.87 182.828,436.977 182.84,437.09C182.899,437.607 183.092,438.1 183.4,438.52C183.57,438.75 183.96,438.52 183.79,438.27C183.511,437.904 183.338,437.468 183.29,437.01C183.29,437.01 183.29,437.009 183.29,437.009C183.29,436.899 183.2,436.809 183.09,436.809C183.059,436.809 183.028,436.816 183,436.83Z" style="fill:rgb(51,94,234);fill-rule:nonzero;"/>
                        <path d="M181.67,437.75C181.568,437.794 181.507,437.9 181.52,438.01C181.569,438.528 181.759,439.023 182.07,439.44C182.24,439.67 182.63,439.44 182.46,439.19C182.184,438.823 182.014,438.387 181.97,437.93C181.956,437.821 181.862,437.738 181.752,437.738C181.727,437.738 181.703,437.742 181.68,437.75L181.67,437.75Z" style="fill:rgb(51,94,234);fill-rule:nonzero;"/>
                        <path d="M180.4,438.74C180.298,438.784 180.237,438.89 180.25,439C180.302,439.519 180.496,440.014 180.81,440.43C180.97,440.65 181.36,440.43 181.19,440.18C180.919,439.81 180.75,439.376 180.7,438.92C180.693,438.81 180.6,438.724 180.49,438.724C180.463,438.724 180.436,438.729 180.41,438.74L180.4,438.74Z" style="fill:rgb(51,94,234);fill-rule:nonzero;"/>
                        <path d="M185.92,448.53C186.24,447.81 188.03,446.63 188.03,446.63L196.03,430.35C195.495,430.077 194.927,429.872 194.34,429.74L193.43,429.74L180.53,455.94L180.89,456.06L183.27,456.89L186.14,450.95C185.652,450.237 185.568,449.319 185.92,448.53Z" style="fill:white;fill-opacity:0.2;fill-rule:nonzero;"/>
                        <path d="M180.69,439.18L180.47,439.1L180.52,438.98L180.47,439.09C179.867,438.88 179.285,438.616 178.73,438.3C178.157,437.977 177.683,437.503 177.36,436.93C177.153,436.637 177.119,436.255 177.27,435.93C177.483,435.633 177.852,435.488 178.21,435.56C178.839,435.646 179.407,435.986 179.78,436.5C180.184,437.256 180.474,438.069 180.64,438.91L180.69,439.18ZM178.07,435.84C177.842,435.822 177.62,435.92 177.48,436.1C177.394,436.338 177.432,436.604 177.58,436.81C177.884,437.344 178.326,437.786 178.86,438.09C179.333,438.362 179.828,438.593 180.34,438.78C180.197,438.048 179.94,437.343 179.58,436.69C179.248,436.23 178.742,435.926 178.18,435.85L178.07,435.84Z" style="fill:rgb(51,94,234);fill-rule:nonzero;"/>
                        <path d="M177.62,441.28C177.403,441.277 177.188,441.243 176.98,441.18C176.632,441.081 176.364,440.802 176.28,440.45C176.285,440.106 176.467,439.789 176.76,439.61C177.293,439.227 177.917,438.993 178.57,438.93C179.209,438.875 179.851,438.875 180.49,438.93L180.73,438.93L180.58,439.11C180.089,439.829 179.489,440.467 178.8,441C178.435,441.186 178.03,441.282 177.62,441.28ZM179.43,439.14C179.154,439.125 178.876,439.125 178.6,439.14C177.991,439.197 177.408,439.414 176.91,439.77C176.695,439.903 176.555,440.129 176.53,440.38C176.597,440.638 176.801,440.838 177.06,440.9C177.607,441.055 178.193,440.986 178.69,440.71C179.287,440.264 179.81,439.728 180.24,439.12L179.43,439.14Z" style="fill:rgb(51,94,234);fill-rule:nonzero;"/>
                        <path d="M72.61,439.3C68.02,431.99 57.61,412.18 78.69,408.3C99.77,404.42 170.05,437.85 170.05,437.85L165.6,451.3L100.15,441C100.15,441 109.15,452.95 98.24,452.41C82.44,450.83 78.65,447.05 72.61,439.3Z" style="fill:rgb(38,50,56);fill-rule:nonzero;"/>
                        <path d="M101.7,441.35L83.7,435.7C83.7,435.7 98.76,444.91 104.29,446.01L101.7,441.35Z" style="fill-opacity:0.7;fill-rule:nonzero;"/>
                    </g>
                    <g id="freepik--speech-bubble--inject-40">
                        <path d="M35,270.84L71.6,270.84C74.892,270.84 77.6,273.548 77.6,276.84L77.6,296.6C77.6,299.892 74.892,302.6 71.6,302.6L62.84,302.6L62.78,308.6L56.19,302.6L35,302.6C31.708,302.6 29,299.892 29,296.6L29,276.83C29.005,273.542 31.712,270.84 35,270.84Z" style="fill:rgb(51,94,234);fill-rule:nonzero;"/>
                        <path d="M48.79,283.59L43,286.28L48.77,288.98L48.77,291.15L41.06,287.41L41.06,285.16L48.77,281.42L48.79,283.59Z" style="fill:white;fill-rule:nonzero;"/>
                        <path d="M66.35,285.16L66.35,287.41L58.64,291.15L58.64,289L64.41,286.3L58.64,283.61L58.64,281.44L66.35,285.16Z" style="fill:white;fill-rule:nonzero;"/>
                        <path d="M55.07,279.9L51.31,292.9L53.19,292.9L56.95,279.9L55.07,279.9Z" style="fill:white;fill-rule:nonzero;"/>
                        <path d="M63.15,269.49L44.36,269.49C44.223,269.49 44.11,269.377 44.11,269.24C44.11,269.103 44.223,268.99 44.36,268.99L63.15,268.99C63.287,268.99 63.4,269.103 63.4,269.24C63.4,269.377 63.287,269.49 63.15,269.49Z" style="fill:rgb(51,94,234);fill-rule:nonzero;"/>
                        <path d="M68.34,269.5L65.34,269.5C65.203,269.5 65.09,269.387 65.09,269.25C65.09,269.113 65.203,269 65.34,269L68.34,269C68.477,269 68.59,269.113 68.59,269.25C68.59,269.387 68.477,269.5 68.34,269.5Z" style="fill:rgb(51,94,234);fill-rule:nonzero;"/>
                    </g>
                </g>
            </g>
        </g>
        <g id="Sponsors">
        </g>
    </g>
</svg>
