<?xml version="1.0" encoding="UTF-8" standalone="no"?>
<!DOCTYPE svg PUBLIC "-//W3C//DTD SVG 1.1//EN" "http://www.w3.org/Graphics/SVG/1.1/DTD/svg11.dtd">
<svg width="100%" height="100%" viewBox="0 0 1024 1024" version="1.1" xmlns="http://www.w3.org/2000/svg" xmlns:xlink="http://www.w3.org/1999/xlink" xml:space="preserve" xmlns:serif="http://www.serif.com/" style="fill-rule:evenodd;clip-rule:evenodd;stroke-linejoin:round;stroke-miterlimit:2;">
    <g transform="matrix(1,0,0,1,-54.8333,-28496.6)">
        <g id="support" transform="matrix(0.339642,0,0,0.339642,3389.89,16496.7)">
            <rect x="-9819.34" y="35331" width="3014.94" height="3014.94" style="fill:none;"/>
            <g id="Pair-programming-rafiki.svg" serif:id="Pair programming-rafiki.svg" transform="matrix(6.02988,0,0,6.02988,-8323.9,36838.5)">
                <g transform="matrix(1,0,0,1,-250,-250)">
                    <g id="freepik--background-simple--inject-32">
                        <g id="freepik--layer-8--inject-32" opacity="0.5">
                            <path d="M385.34,58.05C360.74,39.58 324.34,44.46 295.2,54.34C265.807,64.443 241.135,85.014 225.91,112.11C217.16,127.84 211.6,145.73 199.29,158.87C180.38,179.06 146.39,182.87 123.52,167.27C111.52,159.13 100.06,145.84 85.87,148.63C77.87,150.21 71.59,157.04 68.66,164.69C65.73,172.34 65.56,180.75 65.83,188.94C66.55,211.31 70.21,233.82 79.1,254.36C87.99,274.9 102.37,293.43 121.52,305.02C144.21,318.76 172.52,321.91 198.38,316.02C224.24,310.13 247.66,295.54 266.45,276.81C281.26,262.03 293.32,244.73 307.45,229.3C321.58,213.87 338.51,199.93 358.78,194.71C373.17,191.01 388.33,191.92 403.01,189.61C417.69,187.3 433.11,180.61 439.43,167.13C444.93,155.41 442.2,141.53 437.89,129.31C427.3,99.22 410.83,77.18 385.34,58.05Z" style="fill:white;fill-rule:nonzero;"/>
                            <path d="M385.34,58.05C360.74,39.58 324.34,44.46 295.2,54.34C265.807,64.443 241.135,85.014 225.91,112.11C217.16,127.84 211.6,145.73 199.29,158.87C180.38,179.06 146.39,182.87 123.52,167.27C111.52,159.13 100.06,145.84 85.87,148.63C77.87,150.21 71.59,157.04 68.66,164.69C65.73,172.34 65.56,180.75 65.83,188.94C66.55,211.31 70.21,233.82 79.1,254.36C87.99,274.9 102.37,293.43 121.52,305.02C144.21,318.76 172.52,321.91 198.38,316.02C224.24,310.13 247.66,295.54 266.45,276.81C281.26,262.03 293.32,244.73 307.45,229.3C321.58,213.87 338.51,199.93 358.78,194.71C373.17,191.01 388.33,191.92 403.01,189.61C417.69,187.3 433.11,180.61 439.43,167.13C444.93,155.41 442.2,141.53 437.89,129.31C427.3,99.22 410.83,77.18 385.34,58.05Z" style="fill:white;fill-opacity:0.8;fill-rule:nonzero;"/>
                        </g>
                    </g>
                    <g id="freepik--Desk--inject-32">
                        <g id="freepik--Group--inject-32">
                            <rect x="46.56" y="273.12" width="407.62" height="5.13" style="fill:rgb(64,123,255);"/>
                            <path d="M70.84,276.8L70.84,399.14L74.02,399.14L78.02,276.8L70.84,276.8Z" style="fill:rgb(64,123,255);fill-rule:nonzero;"/>
                            <path d="M108.38,280.8L108.38,394.14L111.56,394.14L115.56,280.8L108.38,280.8Z" style="fill:rgb(64,123,255);fill-rule:nonzero;"/>
                            <path d="M108.38,280.8L108.38,394.14L111.56,394.14L115.56,280.8L108.38,280.8Z" style="fill-opacity:0.5;fill-rule:nonzero;"/>
                            <path d="M431.35,276.8L431.35,399.14L428.18,399.14L424.17,276.8L431.35,276.8Z" style="fill:rgb(64,123,255);fill-rule:nonzero;"/>
                            <path d="M393.81,280.8L393.81,394.14L390.63,394.14L386.63,280.8L393.81,280.8Z" style="fill:rgb(64,123,255);fill-rule:nonzero;"/>
                            <path d="M393.81,280.8L393.81,394.14L390.63,394.14L386.63,280.8L393.81,280.8Z" style="fill-opacity:0.5;fill-rule:nonzero;"/>
                            <path d="M438.6,283.74L63.34,283.74L55.04,278.25L446.9,278.25L438.6,283.74Z" style="fill:rgb(64,123,255);fill-rule:nonzero;"/>
                            <path d="M438.6,283.74L63.34,283.74L55.04,278.25L446.9,278.25L438.6,283.74Z" style="fill-opacity:0.5;fill-rule:nonzero;"/>
                        </g>
                    </g>
                    <g id="freepik--Device--inject-32">
                        <rect x="244.1" y="248.73" width="11.79" height="23.95" style="fill:rgb(64,123,255);"/>
                        <rect x="244.1" y="248.73" width="11.79" height="23.95" style="fill:white;fill-opacity:0.5;"/>
                        <path d="M261.22,273.11L238.88,273.11L244.33,268.32L255.77,268.32L261.22,273.11Z" style="fill:rgb(64,123,255);fill-rule:nonzero;"/>
                        <path d="M261.22,273.11L238.88,273.11L244.33,268.32L255.77,268.32L261.22,273.11Z" style="fill:white;fill-opacity:0.5;fill-rule:nonzero;"/>
                        <path d="M310.33,265.36L254.49,265.36L264.58,273.14L320.41,273.14L310.33,265.36Z" style="fill:rgb(64,123,255);fill-rule:nonzero;"/>
                        <path d="M310.33,265.36L254.49,265.36L264.58,273.14L320.41,273.14L310.33,265.36Z" style="fill:white;fill-opacity:0.4;fill-rule:nonzero;"/>
                        <path d="M255.78,273.14L254.49,265.36L264.58,273.14L255.78,273.14Z" style="fill:rgb(64,123,255);fill-rule:nonzero;"/>
                        <path d="M255.78,273.14L254.49,265.36L264.58,273.14L255.78,273.14Z" style="fill-opacity:0.5;fill-rule:nonzero;"/>
                        <path d="M302.46,193.97L302.46,256.29C302.46,257.355 301.595,258.22 300.53,258.22L198.9,258.22C197.835,258.22 196.97,257.355 196.97,256.29L196.97,193.97C196.97,192.905 197.835,192.04 198.9,192.04L300.53,192.04C301.595,192.04 302.46,192.905 302.46,193.97Z" style="fill:rgb(64,123,255);"/>
                        <rect x="200.8" y="196.18" width="97.72" height="57.67" style="fill-opacity:0.5;"/>
                        <rect x="246.1" y="208.04" width="49.31" height="33.95" style="fill-opacity:0.4;"/>
                        <rect x="246.1" y="208.04" width="49.31" height="3.11" style="fill:rgb(64,123,255);"/>
                        <path d="M255.14,226.82L263.2,231.28C263.507,231.428 263.783,231.635 264.01,231.89C264.147,232.09 264.217,232.328 264.21,232.57C264.211,232.912 264.074,233.24 263.83,233.48C263.605,233.721 263.29,233.858 262.96,233.86C262.602,233.819 262.258,233.692 261.96,233.49L251.56,227.71C251.221,227.541 251.006,227.194 251.006,226.815C251.006,226.436 251.221,226.089 251.56,225.92L261.96,220.14C262.261,219.946 262.604,219.826 262.96,219.79C263.292,219.785 263.611,219.919 263.84,220.16C264.085,220.395 264.223,220.721 264.22,221.06C264.229,221.302 264.159,221.541 264.02,221.74C263.793,221.995 263.517,222.202 263.21,222.35L255.14,226.82Z" style="fill:white;fill-rule:nonzero;"/>
                        <path d="M275.88,218.49L267.88,235.68C267.752,235.992 267.565,236.278 267.33,236.52C267.114,236.689 266.845,236.778 266.57,236.77C266.24,236.775 265.922,236.645 265.69,236.41C265.452,236.199 265.314,235.898 265.31,235.58C265.339,235.229 265.441,234.889 265.61,234.58L273.61,217.4C273.735,217.094 273.915,216.812 274.14,216.57C274.36,216.399 274.631,216.307 274.91,216.31C275.237,216.305 275.552,216.436 275.78,216.67C276.009,216.881 276.139,217.179 276.14,217.49C276.125,217.838 276.037,218.179 275.88,218.49Z" style="fill:white;fill-rule:nonzero;"/>
                        <path d="M285.91,226.82L277.85,222.35C277.546,222.196 277.272,221.99 277.04,221.74C276.901,221.541 276.831,221.302 276.84,221.06C276.837,220.721 276.975,220.395 277.22,220.16C277.453,219.92 277.775,219.786 278.11,219.79C278.466,219.828 278.808,219.948 279.11,220.14L289.51,225.92C289.849,226.089 290.064,226.436 290.064,226.815C290.064,227.194 289.849,227.541 289.51,227.71L279.11,233.49C278.81,233.69 278.468,233.817 278.11,233.86C277.768,233.864 277.441,233.722 277.21,233.47C276.971,233.232 276.838,232.907 276.84,232.57C276.833,232.328 276.903,232.09 277.04,231.89C277.272,231.64 277.546,231.434 277.85,231.28L285.91,226.82Z" style="fill:white;fill-rule:nonzero;"/>
                        <rect x="204.81" y="201.5" width="3.34" height="3.34" style="fill:white;"/>
                        <rect x="204.81" y="210.15" width="3.34" height="3.34" style="fill:white;"/>
                        <rect x="204.81" y="218.79" width="3.34" height="3.34" style="fill:white;"/>
                        <rect x="204.81" y="227.43" width="3.34" height="3.34" style="fill:white;"/>
                        <rect x="204.81" y="236.07" width="3.34" height="3.34" style="fill:white;"/>
                        <rect x="204.81" y="244.71" width="3.34" height="3.34" style="fill:white;"/>
                        <rect x="211.32" y="202.26" width="13.31" height="1" style="fill:white;"/>
                        <rect x="214.42" y="210.92" width="4.74" height="1" style="fill:white;"/>
                        <rect x="235.05" y="220.64" width="4.74" height="1" style="fill:white;"/>
                        <rect x="214.42" y="228.35" width="4.74" height="1" style="fill:white;"/>
                        <rect x="221.25" y="228.35" width="4.74" height="1" style="fill:white;"/>
                        <rect x="221.25" y="220.64" width="12.11" height="1" style="fill:white;"/>
                        <rect x="228.31" y="228.35" width="7.97" height="1" style="fill:white;"/>
                        <rect x="228.28" y="246.88" width="4.74" height="1" style="fill:white;"/>
                        <rect x="235.12" y="246.88" width="4.74" height="1" style="fill:white;"/>
                        <rect x="242.17" y="246.88" width="2.65" height="1" style="fill:white;"/>
                        <rect x="221.53" y="210.92" width="14.75" height="1" style="fill:white;"/>
                        <rect x="221.25" y="237.38" width="4.74" height="1" style="fill:white;"/>
                        <rect x="227.58" y="237.38" width="2.74" height="1" style="fill:white;"/>
                        <rect x="232.41" y="237.38" width="7.74" height="1" style="fill:white;"/>
                    </g>
                    <g id="freepik--speech-code--inject-32">
                        <path d="M241.44,164.5C241.19,176.6 228.62,186.75 213.35,187.15C208.661,187.308 203.993,186.445 199.67,184.62C198.13,188.42 194.89,191.68 185.6,193.14C195.29,185.65 189.99,179.31 187.78,173.74C186.637,171.308 186.065,168.647 186.11,165.96C186.36,153.85 198.93,143.72 214.2,143.31C229.47,142.9 241.68,152.4 241.44,164.5Z" style="fill:rgb(64,123,255);fill-rule:nonzero;"/>
                        <rect x="200.79" y="151.83" width="13.31" height="1" style="fill:white;"/>
                        <rect x="203.89" y="160.5" width="4.74" height="1" style="fill:white;"/>
                        <rect x="224.52" y="170.22" width="4.74" height="1" style="fill:white;"/>
                        <rect x="203.89" y="177.93" width="4.74" height="1" style="fill:white;"/>
                        <rect x="210.73" y="177.93" width="4.74" height="1" style="fill:white;"/>
                        <rect x="210.73" y="170.22" width="12.11" height="1" style="fill:white;"/>
                        <rect x="217.78" y="177.93" width="7.97" height="1" style="fill:white;"/>
                        <rect x="211.01" y="160.5" width="14.75" height="1" style="fill:white;"/>
                    </g>
                    <g id="freepik--character-2--inject-32">
                        <path d="M299.17,393.75L291.88,391.57L293.58,373.7L300.87,375.88L299.17,393.75Z" style="fill:rgb(127,62,59);fill-rule:nonzero;"/>
                        <path d="M301.47,371.84L294.18,369.67L293.23,379.68L300.6,381.05L301.47,371.84Z" style="fill-opacity:0.2;fill-rule:nonzero;"/>
                        <path d="M342.32,283.38C342.32,283.38 292.19,287.61 293.42,309.38C294.42,327.2 297.07,322.38 291.88,375.38L304.49,376.08C304.49,376.08 317.32,332.74 315.59,315.52C329.72,315.52 362.07,316.76 366.77,304.01C369.102,297.536 370.237,290.691 370.12,283.81L342.32,283.38Z" style="fill:rgb(64,123,255);fill-rule:nonzero;"/>
                        <path d="M306.49,378.48L290.01,375.66L290.28,368.37L307.34,372.16L306.49,378.48Z" style="fill:rgb(38,50,56);fill-rule:nonzero;"/>
                        <path d="M291.13,388.57L299.55,390.24C299.865,390.314 300.075,390.619 300.03,390.94L299.33,398.94C299.28,399.682 298.656,400.265 297.913,400.265C297.872,400.265 297.831,400.264 297.79,400.26C294.87,399.62 293.49,399.15 289.79,398.41C287.51,397.96 282.3,396.87 279.13,396.51C275.96,396.15 276.34,392.45 277.71,392.26C283.87,391.45 287.37,390.45 289.76,388.91C290.155,388.622 290.647,388.5 291.13,388.57Z" style="fill:rgb(38,50,56);fill-rule:nonzero;"/>
                        <path d="M287.35,390C288.013,390.09 288.683,390.11 289.35,390.06C289.419,390.062 289.482,390.017 289.5,389.95C289.53,389.89 289.53,389.82 289.5,389.76C289.29,389.55 287.4,387.76 286.43,387.96C286.201,387.997 286.012,388.16 285.94,388.38C285.78,388.7 285.803,389.082 286,389.38C286.354,389.752 286.837,389.974 287.35,390ZM288.96,389.73C287.57,389.73 286.59,389.57 286.3,389.16C286.179,388.964 286.179,388.716 286.3,388.52C286.332,388.411 286.42,388.327 286.53,388.3C287,388.2 288.18,389 289,389.74L288.96,389.73Z" style="fill:rgb(64,123,255);fill-rule:nonzero;"/>
                        <path d="M289.36,390.07L289.44,390.07C289.498,390.048 289.542,390 289.56,389.94C289.56,389.85 290.11,387.72 289.47,386.87C289.312,386.639 289.05,386.5 288.77,386.5C288.463,386.456 288.163,386.631 288.05,386.92C287.74,387.71 288.6,389.46 289.27,390.03C289.292,390.057 289.325,390.072 289.36,390.07ZM288.84,386.86C288.979,386.889 289.104,386.967 289.19,387.08C289.478,387.87 289.509,388.731 289.28,389.54C288.67,388.857 288.348,387.965 288.38,387.05C288.38,386.95 288.49,386.84 288.75,386.85L288.84,386.86Z" style="fill:rgb(64,123,255);fill-rule:nonzero;"/>
                        <path d="M266.67,396.53L259.73,393.41L264.53,376.29L271.47,379.41L266.67,396.53Z" style="fill:rgb(127,62,59);fill-rule:nonzero;"/>
                        <path d="M272.64,375L265.7,371.88L263.23,380.71L270.17,383.83L272.64,375Z" style="fill-opacity:0.2;fill-rule:nonzero;"/>
                        <path d="M327.4,283.38C327.07,283.38 271.2,289.13 271.13,308.08C271.01,339.42 262.06,375.34 262.06,375.34L273.06,380.81C273.06,380.81 292.29,341.87 292,317.44C307.37,313.03 347.13,320.44 351.83,307.7C355.68,297.28 353.6,283.38 353.6,283.38L327.4,283.38Z" style="fill:rgb(64,123,255);fill-rule:nonzero;"/>
                        <path d="M274.86,382.4L260.06,375.74L261.25,369.68L276.86,375.07L274.86,382.4Z" style="fill:rgb(38,50,56);fill-rule:nonzero;"/>
                        <path d="M260.42,387.66L268.86,389.41C269.186,389.518 269.387,389.851 269.33,390.19L268.67,398.94C268.55,399.89 267.87,400.54 267.14,400.39C264.22,399.72 262.84,399.2 259.14,398.39C256.86,397.93 250.65,396.39 247.52,395.6C244.39,394.81 245.09,390.8 246.52,390.77C252.71,390.68 256.72,389.67 259.1,387.94C259.481,387.666 259.96,387.565 260.42,387.66Z" style="fill:rgb(38,50,56);fill-rule:nonzero;"/>
                        <path d="M257,389.55C257.587,389.227 258.14,388.845 258.65,388.41C258.702,388.362 258.725,388.289 258.71,388.22C258.69,388.153 258.63,388.105 258.56,388.1C258.27,388.1 255.69,387.72 255.02,388.47C254.87,388.643 254.818,388.88 254.88,389.1C254.94,389.452 255.185,389.746 255.52,389.87C256.036,389.952 256.564,389.838 257,389.55ZM258.13,388.38C257.04,389.23 256.13,389.64 255.66,389.5C255.446,389.404 255.298,389.202 255.27,388.97C255.236,388.865 255.263,388.749 255.34,388.67C255.64,388.31 257,388.28 258.08,388.38L258.13,388.38Z" style="fill:rgb(64,123,255);fill-rule:nonzero;"/>
                        <path d="M258.6,388.41L258.67,388.36C258.705,388.309 258.705,388.241 258.67,388.19C258.62,388.12 257.79,386.07 256.78,385.76C256.516,385.676 256.227,385.721 256,385.88C255.724,386.027 255.586,386.349 255.67,386.65C255.88,387.48 257.61,388.37 258.5,388.43L258.6,388.41ZM256.27,386.13C256.404,386.071 256.556,386.071 256.69,386.13C257.394,386.595 257.933,387.27 258.23,388.06C257.332,387.873 256.539,387.346 256.02,386.59C255.96,386.51 256.02,386.35 256.2,386.21L256.27,386.13Z" style="fill:rgb(64,123,255);fill-rule:nonzero;"/>
                        <path d="M346.38,222.92C347.85,226.08 349.06,229.12 350.27,232.28C351.48,235.44 352.55,238.6 353.54,241.84C354.53,245.08 355.39,248.4 356.08,251.84C356.833,255.414 357.208,259.057 357.2,262.71C357.189,264.855 356.869,266.987 356.25,269.04C355.858,270.297 355.296,271.495 354.58,272.6C354.157,273.222 353.678,273.804 353.15,274.34L352.72,274.76C352.48,274.96 352.22,275.18 351.97,275.35C351.547,275.637 351.098,275.885 350.63,276.09C349.934,276.389 349.21,276.62 348.47,276.78C347.886,276.901 347.295,276.988 346.7,277.04C345.684,277.1 344.666,277.1 343.65,277.04C341.846,276.951 340.049,276.75 338.27,276.44C331.632,275.232 325.131,273.369 318.86,270.88L320.31,265.37C326.66,266.13 333.14,266.94 339.25,267.22C340.77,267.22 342.25,267.29 343.63,267.22C344.244,267.183 344.856,267.106 345.46,266.99C345.96,266.9 346.39,266.72 346.24,266.73C346.139,266.76 346.045,266.808 345.96,266.87C345.859,266.929 345.765,266.999 345.68,267.08C345.713,267.025 345.744,266.968 345.77,266.91C345.898,266.624 345.999,266.326 346.07,266.02C346.29,264.921 346.38,263.8 346.34,262.68C346.188,259.816 345.763,256.973 345.07,254.19C344.39,251.19 343.51,248.27 342.55,245.3C341.59,242.33 340.55,239.36 339.41,236.4C338.27,233.44 337.07,230.47 335.89,227.68L346.38,222.92Z" style="fill:rgb(127,62,59);fill-rule:nonzero;"/>
                        <path d="M323.07,266.87L316.44,263.14L313.11,270.32C313.11,270.32 320.86,273.55 322.49,271.53L323.07,266.87Z" style="fill:rgb(127,62,59);fill-rule:nonzero;"/>
                        <path d="M311.07,264.5L308.04,269.3L313.11,270.27L316.44,263.09L311.07,264.5Z" style="fill:rgb(127,62,59);fill-rule:nonzero;"/>
                        <path d="M330.92,228.62C329.65,231.81 328.32,234.86 326.92,237.95C325.52,241.04 324.12,244.08 322.64,247.12C319.66,253.309 316.321,259.32 312.64,265.12C311.64,266.6 310.64,268.07 309.52,269.54C308.96,270.28 308.34,271.01 307.68,271.76C307.32,272.14 307.03,272.49 306.61,272.88L306.01,273.46L305.67,273.78C304.718,274.594 303.598,275.188 302.39,275.52C301.753,275.701 301.105,275.838 300.45,275.93C299.382,276.058 298.305,276.102 297.23,276.06C295.373,276.002 293.522,275.818 291.69,275.51C284.91,274.312 278.27,272.429 271.87,269.89L273.33,264.37C279.8,265.15 286.41,265.98 292.63,266.24C294.097,266.295 295.565,266.275 297.03,266.18C297.62,266.131 298.205,266.038 298.78,265.9C298.967,265.853 299.148,265.786 299.32,265.7C299.38,265.7 299.32,265.63 299.05,265.8C298.95,265.852 298.859,265.919 298.78,266L298.88,265.88L299.16,265.57C299.34,265.39 299.56,265.09 299.77,264.85C300.18,264.33 300.6,263.77 301.02,263.16C301.85,261.97 302.66,260.65 303.46,259.31C305.06,256.63 306.55,253.78 308.01,250.9C309.47,248.02 310.87,245.08 312.25,242.12C315,236.22 317.69,230.12 320.25,224.22L330.92,228.62Z" style="fill:rgb(127,62,59);fill-rule:nonzero;"/>
                        <path d="M276.17,265.81L269.53,262L266.2,269.18C266.2,269.18 273.95,272.42 275.59,270.4L276.17,265.81Z" style="fill:rgb(127,62,59);fill-rule:nonzero;"/>
                        <path d="M264.17,263.45L261.13,268.24L266.2,269.21L269.53,262.03L264.17,263.45Z" style="fill:rgb(127,62,59);fill-rule:nonzero;"/>
                        <path d="M348.09,193.14L343.85,198.05L337.38,204.74L337.87,205.95C338.369,207.187 338.66,208.498 338.73,209.83C338.88,212.51 338.62,214.78 334.39,216.6C334.39,216.6 329.95,222.4 340.51,220.79C351.07,219.18 352.66,213.7 352.66,213.7C348,210.37 347.72,199.3 348.09,193.14Z" style="fill:rgb(127,62,59);fill-rule:nonzero;"/>
                        <path d="M326.56,187.6C326.56,188.26 326.23,188.82 325.79,188.84C325.35,188.86 325,188.34 324.99,187.68C324.98,187.02 325.33,186.46 325.76,186.44C326.19,186.42 326.55,186.94 326.56,187.6Z" style="fill:rgb(38,50,56);fill-rule:nonzero;"/>
                        <path d="M328.77,185.14C328.64,185.139 328.519,185.071 328.45,184.96C327.925,184.101 327.031,183.532 326.03,183.42C325.818,183.409 325.65,183.232 325.65,183.02C325.65,183.02 325.65,183.02 325.65,183.019C325.65,182.811 325.822,182.639 326.03,182.639C326.037,182.639 326.043,182.64 326.05,182.64C327.313,182.752 328.45,183.458 329.11,184.54C329.22,184.722 329.167,184.962 328.99,185.08C328.923,185.118 328.847,185.139 328.77,185.14Z" style="fill:rgb(38,50,56);fill-rule:nonzero;"/>
                        <path d="M326.32,188C325.781,189.8 325.008,191.522 324.02,193.12C324.851,193.589 325.849,193.662 326.74,193.32L326.32,188Z" style="fill:rgb(99,15,15);fill-rule:nonzero;"/>
                        <path d="M348.69,184.27C348.3,192.43 348.48,197.27 344.43,201.59C342.416,203.809 339.555,205.077 336.558,205.077C331.641,205.077 327.335,201.666 326.21,196.88C324.37,189.65 325.33,177.52 333.21,173.88C334.692,173.146 336.324,172.764 337.977,172.764C343.869,172.764 348.717,177.612 348.717,183.504C348.717,183.76 348.708,184.015 348.69,184.27Z" style="fill:rgb(127,62,59);fill-rule:nonzero;"/>
                        <path d="M352.39,187C351.213,190.461 349.417,193.68 347.09,196.5L336.47,198.5C336.47,198.5 328.08,194.99 330.32,189.21C328.9,188.01 329.43,184.3 330.43,182.26C332.087,183.621 334.517,183.557 336.1,182.11C336.812,183.224 338.047,183.901 339.369,183.901C340.467,183.901 341.515,183.435 342.25,182.62C343.014,183.36 344.038,183.774 345.101,183.774C346.607,183.774 347.995,182.945 348.71,181.62C350.045,182.455 351.775,182.341 352.99,181.34L353.14,181.2C353.284,183.164 353.029,185.137 352.39,187Z" style="fill:rgb(38,50,56);fill-rule:nonzero;"/>
                        <path d="M352.39,187C351.213,190.461 349.417,193.68 347.09,196.5L336.47,198.5C336.47,198.5 328.08,194.99 330.32,189.21C328.9,188.01 329.43,184.3 330.43,182.26C332.087,183.621 334.517,183.557 336.1,182.11C336.812,183.224 338.047,183.901 339.369,183.901C340.467,183.901 341.515,183.435 342.25,182.62C343.014,183.36 344.038,183.774 345.101,183.774C346.607,183.774 347.995,182.945 348.71,181.62C350.045,182.455 351.775,182.341 352.99,181.34L353.14,181.2C353.284,183.164 353.029,185.137 352.39,187Z" style="fill:white;fill-opacity:0.1;fill-rule:nonzero;"/>
                        <path d="M353.92,177.1C354.508,178.48 354.198,180.087 353.14,181.15L352.99,181.29C351.775,182.291 350.045,182.405 348.71,181.57C347.995,182.895 346.607,183.724 345.101,183.724C344.038,183.724 343.014,183.31 342.25,182.57C341.515,183.385 340.467,183.851 339.369,183.851C338.047,183.851 336.812,183.174 336.1,182.06C334.517,183.507 332.087,183.571 330.43,182.21C330.005,181.88 329.662,181.456 329.43,180.97C329.375,180.864 329.328,180.753 329.29,180.64C329.204,180.738 329.111,180.828 329.01,180.91C327.99,181.725 326.559,181.809 325.45,181.12C324.578,180.514 324.09,179.489 324.17,178.43C324.181,178.213 324.218,177.998 324.28,177.79C324.201,177.941 324.1,178.079 323.98,178.2C323.514,178.649 322.892,178.901 322.244,178.901C321.553,178.901 320.892,178.614 320.42,178.11C320.086,177.605 319.908,177.012 319.908,176.407C319.908,175.318 320.484,174.306 321.42,173.75C321.99,173.418 322.64,173.245 323.3,173.25C324.339,173.265 325.346,173.616 326.17,174.25C325.959,173.831 325.849,173.369 325.849,172.9C325.849,171.254 327.203,169.9 328.849,169.9C329.615,169.9 330.353,170.194 330.91,170.72C330.683,169.678 331.116,168.597 332,168C333.38,167.2 335.68,167.89 336.8,169.23C336.8,169.23 338.34,165.51 341,165.93C341.58,166.01 344.31,167.22 344.24,168.2C344.255,168.262 344.255,168.328 344.24,168.39C344.277,168.313 344.321,168.24 344.37,168.17C344.967,167.365 345.929,166.91 346.93,166.96C347.999,167.039 349.043,167.317 350.01,167.78C352.08,168.63 354.28,169.58 355.48,171.47C356.68,173.36 356.07,176.5 353.92,177.1Z" style="fill:rgb(38,50,56);fill-rule:nonzero;"/>
                        <path d="M335,190C334.705,192.014 333.781,193.883 332.36,195.34C330.55,197.07 329.01,195.34 328.99,192.71C328.99,190.33 329.88,186.56 331.99,185.86C334.1,185.16 335.4,187.37 335,190Z" style="fill:rgb(127,62,59);fill-rule:nonzero;"/>
                        <path d="M367,216.54C366.25,214.54 362.75,212.54 360.6,212.54L359.18,212.54C356.315,212.565 353.454,212.749 350.61,213.09C344.894,213.722 339.218,214.677 333.61,215.95C331.03,216.63 328.54,217.49 326.56,218.23C324.04,219.23 322.56,219.9 322.56,219.9C322.56,219.9 325.32,238.28 326.75,256.54C327.54,266.71 327.21,276.8 327.47,283.74L370.13,283.74C371.6,275.4 371.37,268.13 371.49,253.07C371.55,244 370.08,224.77 367,216.54Z" style="fill:rgb(38,50,56);fill-rule:nonzero;"/>
                        <path d="M325.82,246.34C326.14,250.17 326.47,254.19 326.82,258.21C331.82,250.91 334.58,230.94 334.58,230.94L325.82,246.34Z" style="fill-opacity:0.2;fill-rule:nonzero;"/>
                        <path d="M320.14,221.24C314.03,224.68 308.04,242.24 308.04,242.24L322.04,252.79C327.38,247.74 335.19,235.21 336.04,230.2C337.4,222.56 329.93,215.76 320.14,221.24Z" style="fill:rgb(38,50,56);fill-rule:nonzero;"/>
                        <path d="M308.06,400.44C308.06,402.826 306.096,404.79 303.71,404.79C301.324,404.79 299.36,402.826 299.36,400.44C299.36,398.054 301.324,396.09 303.71,396.09C306.096,396.09 308.06,398.054 308.06,400.44Z" style="fill:rgb(38,50,56);fill-rule:nonzero;"/>
                        <path d="M373,400.44C373,402.826 374.964,404.79 377.35,404.79C379.736,404.79 381.7,402.826 381.7,400.44C381.7,398.054 379.736,396.09 377.35,396.09C374.964,396.09 373,398.054 373,400.44Z" style="fill:rgb(38,50,56);fill-rule:nonzero;"/>
                        <path d="M336.27,399C336.27,401.386 338.234,403.35 340.62,403.35C343.006,403.35 344.97,401.386 344.97,399C344.97,396.614 343.006,394.65 340.62,394.65C338.234,394.65 336.27,396.614 336.27,399Z" style="fill:rgb(38,50,56);fill-rule:nonzero;"/>
                        <path d="M339.27,393.68L339.27,385.27L326.81,385.27C324.364,385.267 321.923,385.494 319.52,385.95L296.32,390.45C295.333,390.642 294.614,391.515 294.614,392.521C294.614,393.679 295.566,394.631 296.724,394.631C296.746,394.631 296.768,394.631 296.79,394.63L339.27,393.68Z" style="fill:rgb(38,50,56);fill-rule:nonzero;"/>
                        <path d="M339.27,393.68L339.27,385.27L351.74,385.27C354.178,385.284 356.608,385.529 359,386L385.08,390.16C386.067,390.352 386.786,391.225 386.786,392.231C386.786,393.389 385.834,394.341 384.676,394.341C384.654,394.341 384.632,394.341 384.61,394.34L339.27,393.68Z" style="fill:rgb(38,50,56);fill-rule:nonzero;"/>
                        <rect x="331.55" y="346.77" width="15.43" height="38.51" style="fill:rgb(38,50,56);"/>
                        <rect x="333.77" y="328.85" width="11" height="17.91" style="fill:rgb(38,50,56);"/>
                        <path d="M333.77,334.11L344.77,336.88L344.77,328.85L333.77,328.85L333.77,334.11Z" style="fill-opacity:0.5;fill-rule:nonzero;"/>
                        <rect x="298.12" y="288.33" width="5.59" height="23.85" style="fill:rgb(38,50,56);"/>
                        <path d="M331.74,328.85L331.74,225.16C331.737,221.237 333.435,217.5 336.39,214.92L343.78,208.45C346.268,206.268 349.47,205.069 352.78,205.08L379.47,205.08L392.49,219L392.49,328.85L331.74,328.85Z" style="fill:rgb(64,123,255);fill-rule:nonzero;"/>
                        <path d="M292,308.79L352.9,308.79L352.9,328.85L282.07,328.85C278.119,328.843 274.872,325.591 274.872,321.64C274.872,320.353 275.217,319.089 275.87,317.98C279.235,312.283 285.383,308.78 292,308.79Z" style="fill:rgb(64,123,255);fill-rule:nonzero;"/>
                        <path d="M392.49,219L392.49,328.85L282.07,328.85C278.119,328.843 274.872,325.591 274.872,321.64C274.872,320.353 275.217,319.089 275.87,317.98C279.237,312.284 285.383,308.782 292,308.79L322.67,308.79C327.668,308.79 331.78,304.678 331.78,299.68L331.78,225.16C331.777,221.237 333.475,217.5 336.43,214.92L343.82,208.45C346.308,206.268 349.51,205.069 352.82,205.08L379.51,205.08L392.49,219Z" style="fill:white;fill-opacity:0.7;fill-rule:nonzero;"/>
                        <path d="M340.62,328.85L340.62,225.16C340.623,221.238 342.319,217.503 345.27,214.92L352.66,208.45C355.148,206.268 358.35,205.069 361.66,205.08L382.47,205.08C386.226,205.077 389.82,206.631 392.39,209.37L397.71,215.02C400.08,217.547 401.4,220.885 401.4,224.35L401.4,318.46C401.4,318.463 401.4,318.467 401.4,318.47C401.4,324.164 396.714,328.85 391.02,328.85C391.013,328.85 391.007,328.85 391,328.85L340.62,328.85Z" style="fill:rgb(64,123,255);fill-rule:nonzero;"/>
                        <path d="M340.62,328.85L340.62,225.16C340.623,221.238 342.319,217.503 345.27,214.92L352.66,208.45C355.148,206.268 358.35,205.069 361.66,205.08L382.47,205.08C386.226,205.077 389.82,206.631 392.39,209.37L397.71,215.02C400.08,217.547 401.4,220.885 401.4,224.35L401.4,318.46C401.4,318.463 401.4,318.467 401.4,318.47C401.4,324.164 396.714,328.85 391.02,328.85C391.013,328.85 391.007,328.85 391,328.85L340.62,328.85Z" style="fill:white;fill-opacity:0.5;fill-rule:nonzero;"/>
                        <path d="M319.9,295.61C307.601,291.311 294.199,291.311 281.9,295.61C279.358,296.559 276.475,295.46 275.21,293.06C274.07,290.65 275.6,287.53 278.7,286.44C293.064,281.421 308.716,281.421 323.08,286.44C326.18,287.52 327.71,290.65 326.57,293.06C325.306,295.45 322.436,296.547 319.9,295.61Z" style="fill:rgb(64,123,255);fill-rule:nonzero;"/>
                        <path d="M319.9,295.61C307.601,291.311 294.199,291.311 281.9,295.61C279.358,296.559 276.475,295.46 275.21,293.06C274.07,290.65 275.6,287.53 278.7,286.44C293.064,281.421 308.716,281.421 323.08,286.44C326.18,287.52 327.71,290.65 326.57,293.06C325.306,295.45 322.436,296.547 319.9,295.61Z" style="fill:white;fill-opacity:0.7;fill-rule:nonzero;"/>
                    </g>
                    <g id="freepik--character-1--inject-32">
                        <g id="freepik--group--inject-32">
                            <path d="M164.49,196.39C164.28,196.98 164.43,197.57 164.82,197.7C165.21,197.83 165.69,197.47 165.89,196.88C166.09,196.29 165.95,195.69 165.57,195.56C165.19,195.43 164.7,195.79 164.49,196.39Z" style="fill:rgb(38,50,56);fill-rule:nonzero;"/>
                            <path d="M164.38,197C164.462,199.059 164.821,201.098 165.45,203.06C164.431,203.348 163.336,203.18 162.45,202.6L164.38,197Z" style="fill:rgb(160,39,36);fill-rule:nonzero;"/>
                            <path d="M163.53,192.37C163.604,192.401 163.686,192.401 163.76,192.37C164.65,192.086 165.624,192.234 166.39,192.77C166.454,192.817 166.531,192.843 166.61,192.843C166.729,192.843 166.84,192.786 166.91,192.69C167.023,192.551 167.023,192.349 166.91,192.21C165.958,191.502 164.72,191.297 163.59,191.66C163.402,191.73 163.3,191.938 163.36,192.13C163.394,192.24 163.48,192.326 163.59,192.36L163.53,192.37Z" style="fill:rgb(38,50,56);fill-rule:nonzero;"/>
                            <path d="M142.56,198.57C143.68,204.26 144.79,214.69 140.81,218.49C140.81,218.49 142.37,224.26 152.95,224.26C164.58,224.26 158.51,218.49 158.51,218.49C152.16,216.97 153.18,212.26 154.29,207.84L142.56,198.57Z" style="fill:rgb(181,91,82);fill-rule:nonzero;"/>
                            <path d="M145.15,188.25C143.07,195.69 141.47,199.94 143.85,204.95C147.42,212.5 159.9,213.48 163.3,204.84C165.89,196.84 168.45,188.47 162.3,183.1C160.371,181.392 157.882,180.448 155.306,180.448C150.552,180.448 146.358,183.661 145.12,188.25L145.15,188.25Z" style="fill:rgb(181,91,82);fill-rule:nonzero;"/>
                            <path d="M137.09,190.73C136.55,187.99 136.41,184.99 137.78,182.55C139.15,180.11 142.46,178.62 144.87,180.04C146.804,175.966 150.929,173.358 155.439,173.358C161.858,173.358 167.139,178.64 167.139,185.058C167.139,189.163 164.979,192.978 161.46,195.09C162.01,193.04 162.57,191 163.12,188.95C162.629,191.803 161.114,194.382 158.86,196.2L159.86,190.07C159.542,193.002 157.857,195.617 155.32,197.12L156.49,192.83C155.897,194.803 155.141,196.723 154.23,198.57C153.23,199.72 152.59,207.24 149.15,207.48C137.33,209.83 138.35,197.13 137.09,190.73Z" style="fill:rgb(38,50,56);fill-rule:nonzero;"/>
                            <path d="M153,194.29C152.8,196.197 153.229,198.118 154.22,199.76C155.55,201.9 157.5,201.08 158.22,198.89C158.86,196.89 158.93,193.44 157.08,192.05C155.23,190.66 153.28,192 153,194.29Z" style="fill:rgb(181,91,82);fill-rule:nonzero;"/>
                            <path d="M124.81,266.37C123.54,265.95 117.59,262.89 116.64,263.44C119.39,256.44 121.1,255.35 122.35,250.89C123.057,248.641 122.553,246.18 121.02,244.39C119.26,242.03 118.65,240.84 115.73,241.13C111.73,247.85 106.64,256.13 104.66,263.72C103.99,266.27 103.51,268.21 105.03,270.37C106.37,272.27 108.84,273.03 111.16,273.24C116.73,273.74 125,272.72 124.89,269.41C124.83,267.32 124.81,266.37 124.81,266.37Z" style="fill:rgb(181,91,82);fill-rule:nonzero;"/>
                            <path d="M123.87,266.12L128.59,264.59L128.17,273.12C128.17,273.12 124.39,273.25 122.37,270.72L123.87,266.12Z" style="fill:rgb(181,91,82);fill-rule:nonzero;"/>
                            <path d="M134.49,264.45L133.82,271.49L128.17,273.12L128.59,264.59L134.49,264.45Z" style="fill:rgb(181,91,82);fill-rule:nonzero;"/>
                            <path d="M188.61,272.18C188.61,272.18 182,267 173.38,250C172.1,247.62 170.88,245.21 169.7,242.79C168.52,240.37 167.4,237.95 166.32,235.38L176.54,230.98C178.64,235.56 181.92,240.29 184.24,244.84C186.56,249.39 192.03,260.17 192.72,261.17C193.06,261.69 193.43,262.12 193.78,262.6L194.31,263.3L187.72,270.92L188.61,272.18Z" style="fill:rgb(181,91,82);fill-rule:nonzero;"/>
                            <path d="M197.26,239L195.26,236.56L194.32,232.91L200.49,227.18C201.434,228.38 202.273,229.658 203,231C203.159,231.309 203.235,231.653 203.22,232L202.97,238.43L197.26,239Z" style="fill:rgb(181,91,82);fill-rule:nonzero;"/>
                            <path d="M194.36,228.97L198.97,224.78L200.43,227.23L194.27,232.93L194.36,228.97Z" style="fill:rgb(181,91,82);fill-rule:nonzero;"/>
                            <path d="M197.35,237.24C197.51,236.55 197.65,237.9 198.11,237.36C199.47,235.72 201.45,235.55 202.63,237.36C203.81,239.17 202.8,256.98 200.92,262.57C199.67,266.28 199,269.24 195.8,271.5C194.507,272.498 192.932,273.065 191.3,273.12C189.643,273.14 188.118,272.194 187.4,270.7C186.4,268.37 189.98,259.97 191.24,257.26C195.19,248.73 195.46,245.3 197.35,237.24Z" style="fill:rgb(181,91,82);fill-rule:nonzero;"/>
                            <path d="M184.12,236.47L192.29,236.39C193.456,236.465 194.624,236.28 195.71,235.85C197.04,235.073 198.035,233.829 198.5,232.36C199.66,229.36 199.76,226.14 200.21,223C200.66,219.86 201.62,216.56 204,214.45C199.66,215.03 192,213.67 188.65,217.22C186.89,219.11 183.78,236.47 184.12,236.47Z" style="fill:rgb(64,123,255);fill-rule:nonzero;"/>
                            <path d="M184.12,236.47L192.29,236.39C193.456,236.465 194.624,236.28 195.71,235.85C197.04,235.073 198.035,233.829 198.5,232.36C199.66,229.36 199.76,226.14 200.21,223C200.66,219.86 201.62,216.56 204,214.45C199.66,215.03 192,213.67 188.65,217.22C186.89,219.11 183.78,236.47 184.12,236.47Z" style="fill:white;fill-opacity:0.5;fill-rule:nonzero;"/>
                            <path d="M198.1,224.33C197.63,224.46 197.32,226.13 197.42,226.61L197.88,227.43L198.81,231.43L201.93,229.71L199.12,224.71C198.9,224.375 198.485,224.221 198.1,224.33Z" style="fill:rgb(181,91,82);fill-rule:nonzero;"/>
                            <path d="M127.63,219.92C120.33,221.59 109.53,244.34 109.53,244.34L124.18,254.34C128.399,248.32 132.208,242.022 135.58,235.49C139.91,226.43 135.09,218.21 127.63,219.92Z" style="fill:rgb(64,123,255);fill-rule:nonzero;"/>
                            <path d="M138.29,220.47C137.45,218.64 136.54,216.55 138.43,215.9C140.52,215.18 151.96,214.44 155.9,215.79C157.663,216.268 158.897,217.881 158.897,219.708C158.897,220.074 158.847,220.438 158.75,220.79L158.75,220.86L138.29,220.47Z" style="fill:rgb(38,50,56);fill-rule:nonzero;"/>
                            <path d="M132.14,233.06L121.73,252.66L124.18,254.34C124.18,254.34 128.9,247.77 132.18,242.09L132.14,233.06Z" style="fill-opacity:0.2;fill-rule:nonzero;"/>
                            <path d="M172,229.93C173.58,237.93 169.89,256.93 169.93,287.93L128.31,287.93C128.04,281.67 132.6,266.83 126.93,237.27C126.75,236.27 126.67,220.12 127.63,219.95C131.66,219.246 135.727,218.765 139.81,218.51C145.705,218.17 151.615,218.17 157.51,218.51C159.92,218.76 163.71,220.25 166.11,221.11C169.84,222.43 171.24,226 172,229.93Z" style="fill:rgb(64,123,255);fill-rule:nonzero;"/>
                            <path d="M161,237.88C162.08,244.45 166.39,253.13 170.68,258.23C170.85,254.5 171.23,250.6 171.22,247.61L161,237.88Z" style="fill-opacity:0.2;fill-rule:nonzero;"/>
                            <path d="M158,228C157,235.37 171.5,254.18 171.5,254.18L186.09,244.18C186.09,244.18 182.04,233.81 175.23,227.01C167.5,219.23 159.17,220 158,228Z" style="fill:rgb(64,123,255);fill-rule:nonzero;"/>
                            <path d="M205.72,391.13L213.5,391.13L215.27,373.1L207.49,373.1L205.72,391.13Z" style="fill:rgb(181,91,82);fill-rule:nonzero;"/>
                            <path d="M215.15,374.19L214.25,383.48L206.46,383.48L207.37,374.19L215.15,374.19Z" style="fill-opacity:0.2;fill-rule:nonzero;"/>
                            <path d="M175.03,391.13L182.81,391.13L186.72,373.1L178.94,373.1L175.03,391.13Z" style="fill:rgb(181,91,82);fill-rule:nonzero;"/>
                            <g opacity="0.2">
                                <path d="M178.77,374.06L186.55,374.06L184.53,383.35L176.75,383.35L178.77,374.06Z" style="fill-rule:nonzero;"/>
                            </g>
                            <path d="M213.94,387.63L205.45,387.63C205.089,387.672 204.806,387.968 204.78,388.33L203.24,397.23C203.058,397.94 203.414,398.685 204.08,398.99C204.173,399.005 204.267,399.005 204.36,398.99C207.42,398.93 211.85,398.69 215.7,398.69C220.21,398.69 224.1,399 229.38,399C232.58,399 233.47,394.82 232.13,394.45C226.04,392.73 221.07,392.55 215.81,388.34C215.286,387.896 214.626,387.646 213.94,387.63Z" style="fill:rgb(38,50,56);fill-rule:nonzero;"/>
                            <path d="M220.12,390.52C221.12,390.52 222.12,390.38 222.41,389.93C222.579,389.687 222.579,389.363 222.41,389.12C222.277,388.91 222.07,388.756 221.83,388.69C220.53,388.34 217.83,389.89 217.7,389.96C217.63,389.995 217.593,390.074 217.61,390.15C217.621,390.224 217.677,390.284 217.75,390.3C218.531,390.448 219.325,390.522 220.12,390.52ZM221.36,389.01L221.71,389.01C221.862,389.041 221.993,389.136 222.07,389.27C222.2,389.5 222.16,389.61 222.07,389.67C221.71,390.18 219.74,390.19 218.29,389.98C219.244,389.466 220.285,389.134 221.36,389L221.36,389.01Z" style="fill:rgb(64,123,255);fill-rule:nonzero;"/>
                            <path d="M217.77,390.3L217.85,390.3C218.79,389.88 220.65,388.2 220.5,387.3C220.5,387.09 220.32,386.84 219.82,386.78C219.458,386.753 219.099,386.868 218.82,387.1C217.82,387.91 217.62,390.01 217.61,390.1C217.6,390.165 217.627,390.23 217.68,390.27C217.706,390.289 217.738,390.299 217.77,390.3ZM219.67,387.15L219.78,387.15C220.11,387.15 220.13,387.32 220.14,387.36C220.23,387.89 218.96,389.21 218,389.78C218.082,388.9 218.431,388.066 219,387.39C219.191,387.238 219.426,387.154 219.67,387.15Z" style="fill:rgb(64,123,255);fill-rule:nonzero;"/>
                            <path d="M183.36,387.63L174.62,387.63C174.261,387.673 173.982,387.969 173.96,388.33L172.42,397.23C172.248,397.955 172.626,398.706 173.31,399C173.393,399.01 173.477,399.01 173.56,399C176.61,398.94 178.1,398.7 181.94,398.7C184.31,398.7 187.34,399.01 190.61,399.01C193.88,399.01 194.3,394.83 192.96,394.46C186.96,392.76 186.55,390.46 184.63,388.18C184.308,387.82 183.843,387.618 183.36,387.63Z" style="fill:rgb(38,50,56);fill-rule:nonzero;"/>
                            <path d="M187.93,391.51C188.597,391.602 189.272,391.418 189.8,391C189.988,390.741 189.988,390.389 189.8,390.13C189.68,389.908 189.467,389.75 189.22,389.7C188.08,389.43 185.93,390.9 185.84,390.96C185.782,391.005 185.752,391.077 185.76,391.15C185.772,391.222 185.828,391.278 185.9,391.29C186.567,391.438 187.247,391.512 187.93,391.51ZM188.93,390.03L189.15,390.03C189.293,390.057 189.417,390.144 189.49,390.27C189.66,390.58 189.56,390.7 189.49,390.75C189.16,391.18 187.57,391.19 186.4,391C187.152,390.484 188.009,390.142 188.91,390L188.93,390.03Z" style="fill:rgb(64,123,255);fill-rule:nonzero;"/>
                            <path d="M186,391.3C186.81,390.86 188.37,389.16 188.2,388.3C188.147,388.017 187.898,387.81 187.61,387.81C187.329,387.783 187.047,387.869 186.83,388.05C185.93,388.79 185.74,391.05 185.73,391.13C185.727,391.199 185.761,391.264 185.82,391.3L186,391.3ZM187.57,388.15L187.65,388.15C187.89,388.15 187.91,388.29 187.92,388.34C188.02,388.85 187.02,390.14 186.22,390.75C186.282,389.864 186.602,389.016 187.14,388.31C187.26,388.208 187.412,388.151 187.57,388.15Z" style="fill:rgb(64,123,255);fill-rule:nonzero;"/>
                            <path d="M157.46,287.91C157.46,287.91 194.31,303.13 201.93,314.82C197.4,344.56 189.27,378.44 189.27,378.44L175.41,378.44C175.432,363.781 176.633,349.147 179,334.68C181,298.33 115.58,335.94 128.29,287.91L157.46,287.91Z" style="fill:rgb(38,50,56);fill-rule:nonzero;"/>
                            <path d="M182.94,313C180.359,313.152 177.788,313.449 175.24,313.89L167.17,315.13C171.333,318.628 175.726,321.842 180.32,324.75C183.11,326.52 186.15,328.22 189.44,328.23C193.14,328.23 203.18,323.49 201.52,318.56C199.86,313.63 187.14,312.82 182.94,313Z" style="fill-opacity:0.3;fill-rule:nonzero;"/>
                            <path d="M169.94,287.91C169.94,287.91 204,292.31 222.78,303C228.56,306.29 227.78,316.86 227.6,323.82C227.197,342.497 223.613,360.969 217,378.44L205.42,378.44C205.42,378.44 206.01,359.57 205.62,329.12C205.5,319.99 187.07,316.98 169.06,315.92C153.527,314.943 139.836,305.203 133.82,290.85L132.59,287.91L169.94,287.91Z" style="fill:rgb(38,50,56);fill-rule:nonzero;"/>
                            <path d="M219.81,375.34C219.87,375.34 219.06,380.81 219.06,380.81L203.06,380.81L202.62,375.93L219.81,375.34Z" style="fill:rgb(64,123,255);fill-rule:nonzero;"/>
                            <path d="M190.61,375.34C190.67,375.34 189.14,380.81 189.14,380.81L173.14,380.81L173.43,375.93L190.61,375.34Z" style="fill:rgb(64,123,255);fill-rule:nonzero;"/>
                            <path d="M147.62,315.51L136.15,400.02L134.08,399.73L142.93,314.87L147.62,315.51Z" style="fill:rgb(64,123,255);fill-rule:nonzero;"/>
                            <path d="M147.21,318.54L136.15,400.02L134.08,399.73L142.55,318.52L147.21,318.54Z" style="fill-opacity:0.4;fill-rule:nonzero;"/>
                            <path d="M187.94,318.53L122.94,318.53C122.94,314.46 126.29,311.11 130.36,311.11L180.52,311.11C184.59,311.11 187.94,314.46 187.94,318.53Z" style="fill:rgb(64,123,255);fill-rule:nonzero;"/>
                            <path d="M187.94,318.53L122.94,318.53C122.94,314.46 126.29,311.11 130.36,311.11L180.52,311.11C184.59,311.11 187.94,314.46 187.94,318.53Z" style="fill:white;fill-opacity:0.7;fill-rule:nonzero;"/>
                            <path d="M125.95,318.52L116.15,400.69L118.25,400.69L130.68,318.52L125.95,318.52Z" style="fill:rgb(64,123,255);fill-rule:nonzero;"/>
                            <path d="M184.93,318.52L194.73,400.69L192.63,400.69L180.21,318.52L184.93,318.52Z" style="fill:rgb(64,123,255);fill-rule:nonzero;"/>
                            <path d="M184.93,318.52L194.73,400.69L192.63,400.69L180.21,318.52L184.93,318.52Z" style="fill-opacity:0.4;fill-rule:nonzero;"/>
                            <path d="M171.82,318.52L172.01,400.69L169.92,400.69L167.09,318.52L171.82,318.52Z" style="fill:rgb(64,123,255);fill-rule:nonzero;"/>
                        </g>
                    </g>
                </g>
            </g>
        </g>
        <g id="Sponsors">
        </g>
    </g>
</svg>
