<?xml version="1.0" encoding="UTF-8" standalone="no"?>
<!DOCTYPE svg PUBLIC "-//W3C//DTD SVG 1.1//EN" "http://www.w3.org/Graphics/SVG/1.1/DTD/svg11.dtd">
<svg width="100%" height="100%" viewBox="0 0 3425 607" version="1.1" xmlns="http://www.w3.org/2000/svg" xmlns:xlink="http://www.w3.org/1999/xlink" xml:space="preserve" xmlns:serif="http://www.serif.com/" style="fill-rule:evenodd;clip-rule:evenodd;stroke-linejoin:round;stroke-miterlimit:2;">
    <g transform="matrix(1,0,0,1,-162.58,-96.7291)">
        <g transform="matrix(1.20997,0,0,0.411389,-5794.1,-3754.4)">
            <g transform="matrix(1.93704,0,0,5.69717,4788.66,8959.17)">
                <g id="Appwrite">
                    <g id="built-with-appwrite.svg">
                        <g>
                            <path d="M368.384,202.21C368.384,257.211 323.798,301.799 268.795,301.799C243.248,301.799 219.949,292.177 202.319,276.365C230.561,263.65 250.222,235.262 250.222,202.282C250.222,169.259 230.512,140.842 202.211,128.151C219.856,112.281 243.196,102.622 268.795,102.622C323.798,102.622 368.384,147.209 368.384,202.21Z" style="fill:rgb(240,46,101);fill-rule:nonzero;"/>
                            <path d="M228.987,122.718C167.825,76.497 79.561,113.816 70.114,189.895C65.724,225.253 80.556,260.262 109.009,281.704C170.205,327.884 258.443,290.5 267.838,214.414C272.197,179.101 257.387,144.148 228.987,122.717L228.987,122.718ZM217.91,137.393C267.809,175.046 258.233,252.593 200.674,276.979C173.964,288.297 143.242,284.504 120.085,267.028C70.189,229.374 79.763,151.827 137.321,127.442C164.032,116.126 194.754,119.918 217.91,137.393Z" style="fill:rgb(240,46,101);fill-rule:nonzero;"/>
                            <path d="M482.978,129.125C496.645,129.125 508.294,132.662 517.927,139.74C527.559,146.819 534.182,156.201 537.798,167.886L537.798,130.838L554.85,130.838L554.85,265.696L537.798,265.696L537.798,228.65C534.182,240.346 527.559,249.732 517.927,256.81C508.294,263.889 496.645,267.428 482.978,267.428C470.794,267.428 459.885,264.628 450.252,259.031C440.62,253.435 433.129,245.407 427.777,234.947C422.426,224.488 419.748,212.261 419.748,198.267C419.748,184.111 422.426,171.804 427.777,161.344C433.129,150.895 440.579,142.914 450.13,137.396C459.68,131.88 470.629,129.125 482.978,129.125ZM487.422,144.429C472.274,144.429 460.13,149.244 450.987,158.878C441.856,168.511 437.29,181.641 437.29,198.267C437.29,214.896 441.856,228.027 450.987,237.66C460.13,247.291 472.274,252.106 487.422,252.106C496.971,252.106 505.574,249.886 513.224,245.441C520.883,241 526.894,234.701 531.257,226.55C535.618,218.399 537.798,208.973 537.798,198.267C537.798,187.563 535.618,178.142 531.257,169.999C526.894,161.851 520.883,155.546 513.224,151.096C505.574,146.651 496.971,144.429 487.422,144.429ZM664.501,129.125C676.85,129.125 687.759,131.88 697.226,137.396C706.695,142.914 714.106,150.895 719.458,161.344C724.809,171.804 727.485,184.111 727.485,198.267C727.485,212.261 724.809,224.488 719.458,234.947C714.106,245.407 706.651,253.435 697.105,259.031C687.555,264.628 676.686,267.428 664.501,267.428C650.669,267.428 638.98,263.889 629.43,256.81C619.88,249.732 613.296,240.346 609.679,228.65L609.679,329.418L592.382,329.418L592.382,130.838L609.679,130.838L609.679,167.886C613.296,156.201 619.88,146.819 629.43,139.74C638.98,132.662 650.669,129.125 664.501,129.125ZM659.811,144.429C650.261,144.429 641.656,146.651 633.995,151.096C626.345,155.546 620.379,161.851 616.1,169.999C611.821,178.142 609.679,187.563 609.679,198.267C609.679,208.973 611.821,218.399 616.1,226.55C620.379,234.701 626.345,241 633.995,245.441C641.656,249.886 650.261,252.106 659.811,252.106C675.122,252.106 687.308,247.291 696.368,237.66C705.419,228.027 709.943,214.896 709.943,198.267C709.943,181.641 705.419,168.511 696.368,158.878C687.308,149.244 675.122,144.429 659.811,144.429ZM830.713,129.125C843.064,129.125 853.973,131.88 863.44,137.396C872.909,142.914 880.321,150.895 885.673,161.344C891.023,171.804 893.7,184.111 893.7,198.267C893.7,212.261 891.023,224.488 885.673,234.947C880.321,245.407 872.868,253.435 863.318,259.031C853.769,264.628 842.901,267.428 830.713,267.428C816.883,267.428 805.195,263.889 795.646,256.81C786.094,249.732 779.512,240.346 775.896,228.65L775.896,329.418L758.598,329.418L758.598,130.838L775.896,130.838L775.896,167.886C779.512,156.201 786.094,146.819 795.646,139.74C805.195,132.662 816.883,129.125 830.713,129.125ZM826.027,144.429C816.478,144.429 807.87,146.651 800.21,151.096C792.561,155.546 786.596,161.851 782.315,169.999C778.036,178.142 775.896,187.563 775.896,198.267C775.896,208.973 778.036,218.399 782.315,226.55C786.596,234.701 792.561,241 800.21,245.441C807.87,249.886 816.478,252.106 826.027,252.106C841.338,252.106 853.523,247.291 862.582,237.66C871.633,228.027 876.158,214.896 876.158,198.267C876.158,181.641 871.633,168.511 862.582,158.878C853.523,149.244 841.338,144.429 826.027,144.429ZM1085.1,128.879L1117.71,128.879L1080.9,265.696L1042.37,265.696L1012.99,166.17L982.85,265.696L944.333,265.696L907.776,128.879L942.602,128.879L964.833,234.58L995.199,128.879L1032,128.879L1062.63,234.58L1085.1,128.879ZM1169.82,155.047C1174.92,146.325 1181.67,139.452 1190.06,134.425C1198.47,129.41 1207.85,126.904 1218.22,126.904L1218.22,164.193L1208.1,164.193C1182.58,164.193 1169.82,176.047 1169.82,199.752L1169.82,265.696L1135,265.696L1135,128.879L1169.82,128.879L1169.82,155.047ZM1233.54,89.594C1233.54,83.998 1235.52,79.432 1239.47,75.897C1243.42,72.355 1248.61,70.582 1255.02,70.582C1261.45,70.582 1266.63,72.355 1270.59,75.897C1274.54,79.432 1276.52,83.998 1276.52,89.594C1276.52,95.029 1274.54,99.518 1270.59,103.063C1266.63,106.606 1261.45,108.379 1255.02,108.379C1248.61,108.379 1243.42,106.606 1239.47,103.063C1235.52,99.518 1233.54,95.029 1233.54,89.594ZM1237.49,128.879L1272.32,128.879L1272.32,265.696L1237.49,265.696L1237.49,128.879ZM1363.45,235.806L1377.03,235.806L1377.03,265.696L1358.75,265.696C1343.43,265.696 1331.71,261.995 1323.56,254.589C1315.4,247.173 1311.33,234.826 1311.33,217.542L1311.33,158.264L1292.32,158.264L1292.32,128.879L1311.33,128.879L1311.33,95.034L1346.15,95.034L1346.15,128.879L1376.78,128.879L1376.78,158.264L1346.15,158.264L1346.15,218.032C1346.15,224.62 1347.47,229.233 1350.11,231.867C1352.74,234.493 1357.19,235.806 1363.45,235.806ZM1530.65,192.094C1530.65,195.555 1530.24,199.509 1529.42,203.951L1429.14,203.951C1429.63,216.136 1432.93,225.111 1439.03,230.872C1445.11,236.633 1452.69,239.514 1461.75,239.514C1469.82,239.514 1476.52,237.538 1481.86,233.584C1487.21,229.641 1490.63,224.295 1492.11,217.542L1528.91,217.542C1527.11,227.092 1523.24,235.651 1517.32,243.222C1511.38,250.801 1503.77,256.73 1494.47,261.009C1485.17,265.288 1474.84,267.428 1463.48,267.428C1450.14,267.428 1438.28,264.589 1427.9,258.91C1417.54,253.23 1409.47,245.12 1403.71,234.58C1397.94,224.04 1395.06,211.607 1395.06,197.287C1395.06,182.958 1397.94,170.486 1403.71,159.874C1409.47,149.25 1417.54,141.138 1427.9,135.544C1438.28,129.947 1450.14,127.148 1463.48,127.148C1476.97,127.148 1488.78,129.947 1498.92,135.544C1509.04,141.138 1516.86,148.837 1522.37,158.633C1527.89,168.427 1530.65,179.581 1530.65,192.094ZM1495.58,188.648C1496.08,177.442 1493.16,168.957 1486.81,163.199C1480.47,157.436 1472.69,154.557 1463.48,154.557C1454.09,154.557 1446.18,157.436 1439.76,163.199C1433.34,168.957 1429.8,177.442 1429.14,188.648L1495.58,188.648Z" style="fill:rgb(240,46,101);fill-rule:nonzero;"/>
                            <path d="M171.666,167.755C171.548,168.048 170.023,174.028 168.386,181.123C166.683,188.216 163.986,199.414 162.464,206.037C159.531,218.173 157.772,226.146 157.772,227.2C157.772,227.492 159.591,227.729 161.816,227.729L165.864,227.729L167.679,219.637C168.736,215.242 171.083,205.157 172.957,197.243C174.834,189.329 177.118,179.714 177.999,175.843C178.878,171.974 179.758,168.46 179.934,168.048C180.11,167.521 179.112,167.347 176.063,167.347C173.776,167.347 171.782,167.521 171.666,167.755ZM140.183,193.138L134.79,199.002L136.375,200.878C137.252,201.932 139.659,204.571 141.709,206.742L145.462,210.725L156.133,210.725L151.089,205.274C148.332,202.346 146.046,199.529 146.046,199.179C146.046,198.768 148.157,196.132 150.739,193.316C153.317,190.446 155.428,187.98 155.428,187.688C155.428,187.452 153.201,187.277 150.505,187.277L145.638,187.277L140.183,193.138ZM181.221,187.629C181.221,187.806 182.219,188.917 183.449,190.149C188.025,194.722 191.248,198.593 191.071,199.352C190.956,199.766 188.726,202.519 186.03,205.391L181.165,210.725L186.616,210.725L192.068,210.668L197.049,205.215C199.808,202.169 202.035,199.469 202.035,199.119C202.035,198.827 199.69,196.071 196.757,192.965L191.485,187.277L186.381,187.277C183.508,187.277 181.221,187.452 181.221,187.629Z" style="fill:rgb(240,46,101);fill-rule:nonzero;"/>
                        </g>
                    </g>
                </g>
            </g>
        </g>
    </g>
</svg>
