<?xml version="1.0" standalone="no"?>
<!DOCTYPE svg PUBLIC "-//W3C//DTD SVG 20010904//EN"
 "http://www.w3.org/TR/2001/REC-SVG-20010904/DTD/svg10.dtd">
<svg version="1.0" xmlns="http://www.w3.org/2000/svg"
 width="512.000000pt" height="512.000000pt" viewBox="0 0 512.000000 512.000000"
 preserveAspectRatio="xMidYMid meet">
<metadata>
Created by potrace 1.11, written by Peter Selinger 2001-2013
</metadata>
<g transform="translate(0.000000,512.000000) scale(0.100000,-0.100000)"
fill="#000000" stroke="none">
<path d="M1235 3546 c-74 -23 -178 -83 -389 -221 -208 -136 -245 -162 -488
-349 -236 -182 -332 -310 -345 -463 -8 -96 14 -166 72 -230 44 -50 547 -438
694 -537 189 -126 321 -176 487 -184 173 -7 285 29 400 131 32 29 226 234 432
457 255 274 382 419 396 450 31 69 29 169 -7 241 -30 63 -143 184 -252 271
-192 152 -586 384 -729 427 -78 24 -207 27 -271 7z m558 -515 c199 -69 315
-287 263 -491 -43 -165 -167 -279 -339 -311 -218 -40 -438 120 -478 348 -44
250 177 495 432 479 36 -3 91 -14 122 -25z"/>
<path d="M1582 2756 c-36 -19 -62 -66 -62 -111 0 -45 26 -92 62 -111 13 -8 44
-13 70 -14 119 -1 169 147 77 225 -34 28 -106 34 -147 11z"/>
<path d="M3603 3536 c-146 -48 -533 -277 -718 -424 -109 -87 -222 -208 -252
-271 -36 -72 -38 -172 -7 -241 14 -31 141 -176 396 -450 206 -223 400 -428
432 -457 115 -102 227 -138 400 -131 166 8 298 58 487 184 147 99 650 487 694
536 122 136 93 343 -72 518 -147 157 -746 585 -981 703 -102 51 -106 52 -205
54 -86 3 -114 -1 -174 -21z m-38 -491 c166 -44 286 -174 316 -344 47 -266
-211 -521 -478 -472 -93 17 -166 54 -228 116 -232 232 -120 623 200 701 69 17
121 17 190 -1z"/>
<path d="M3391 2745 c-92 -78 -42 -226 77 -225 56 1 86 16 113 56 37 57 16
148 -43 180 -41 23 -113 17 -147 -11z"/>
</g>
</svg>
