<?xml version="1.0" encoding="utf-8"?>
<!-- Generator: Adobe Illustrator 19.2.1, SVG Export Plug-In . SVG Version: 6.00 Build 0)  -->
<svg version="1.1" id="layer" xmlns="http://www.w3.org/2000/svg" xmlns:xlink="http://www.w3.org/1999/xlink" x="0px" y="0px"
	 viewBox="0 0 652 652" style="enable-background:new 0 0 652 652;" xml:space="preserve">
<path d="M20.8,281.3l65.1-33.7l65.8,33.7l-65.8,33.9L20.8,281.3z M411.9,297.7v-0.8c0-11.1,6.5-14.7,17.6-13.9v-20.3
	c-26.4-1.6-38.9,11.6-38.9,34.2v0.8h-11.9V318h11.9v61.5h21.4V318h12.6h4.9h7v61.5h21.4V318h17.6v-20.3h-17.6v-0.8
	c0-11.1,6.4-14.7,17.6-13.9v-20.3c-26.4-1.6-38.9,11.6-38.9,34.2v0.8h-7h-4.9H411.9z M262.6,320c6.8-5.4,10.9-13.1,10.9-23
	c0-19.2-15.6-32.2-35.3-32.2h-45.6v114.5h49.3c20.1,0,36.2-13.5,36.2-33.2C277.8,334.3,271.9,325.2,262.6,320z M238.3,286
	c7.4,0,12.4,5.4,12.4,12.6s-5.3,12.6-12.4,12.6h-22.9V286H238.3z M241.8,358.3h-26.3v-27h26.3c7.8,0,13.4,5.7,13.4,13.4
	C255.2,352.6,249.6,358.3,241.8,358.3z M344.7,297.6v44.2c0,14.2-7.8,20.3-18.3,20.3c-9.6,0-16.4-5.7-16.4-16.9v-47.6h-21.4v50.3
	c0,21.8,13.7,33.9,31.4,33.9c11.1,0,19.8-4.1,24.6-11.5v9.2h21.4v-81.8H344.7z M563.9,347.2h-62.5c3.1,10.8,12.1,15.4,23.2,15.4
	c8.4,0,15-3.4,18.6-8.1l17.2,9.8c-7.7,11.1-20.1,17.6-36.1,17.6c-27.8,0-45.4-18.8-45.4-43.3c0-24.4,17.7-43.3,43.8-43.3
	c24.5,0,41.9,19.2,41.9,43.3C564.7,341.7,564.4,344.4,563.9,347.2z M522.8,314.3c-11.5,0-19.3,6.1-21.7,16.5h42.3
	C540.7,319,531.8,314.3,522.8,314.3z M595.6,311.7v-14.1h-21.4v81.8h21.4v-39.1c0-17.2,14-22.1,25.2-20.8V296
	C610.3,296,599.9,300.6,595.6,311.7z M85.9,373.1L41.5,349l-20.7,11.2l65.1,35.3l65.8-35.3L130.9,349L85.9,373.1z M41.5,310.9
	l44.4,21.9l44.9-21.9l20.9,10.2l-65.8,32.1l-65.1-32.1L41.5,310.9z"/>
</svg>
