<?xml version="1.0" encoding="UTF-8"?>
<svg version="1.1" viewBox="0 0 385 104" xmlns="http://www.w3.org/2000/svg" xmlns:cc="http://creativecommons.org/ns#" xmlns:dc="http://purl.org/dc/elements/1.1/" xmlns:rdf="http://www.w3.org/1999/02/22-rdf-syntax-ns#">
 <metadata>
  <rdf:RDF>
   <cc:Work rdf:about="">
    <dc:format>image/svg+xml</dc:format>
    <dc:type rdf:resource="http://purl.org/dc/dcmitype/StillImage"/>
    <dc:title>Discourse</dc:title>
   </cc:Work>
  </rdf:RDF>
 </metadata>
 <title>Discourse</title>
 <desc>An open source online discussion forum and mailing list management software licensed under GNU GPL</desc>
 <g id="vlpa">
  <path d="m117.4 22.22c1.649-0.02228 3.233 0.6446 4.37 1.84 1.192 1.178 1.85 2.794 1.82 4.47 0.0298 1.658-0.6207 3.255-1.8 4.42-1.119 1.183-2.681 1.847-4.31 1.83-1.662 0.02306-3.258-0.6516-4.4-1.86-1.195-1.197-1.852-2.829-1.82-4.52-2e-5 -3.4 2.75-6.159 6.15-6.17zm-4.84 21.05h9.68v40.36h-9.68zm42.1 6.39-6 6c-2.44-2.44-4.66-3.66-6.66-3.66-0.9023-0.05243-1.797 0.1897-2.55 0.69-0.5732 0.3851-0.9178 1.03-0.92 1.72 3e-3 0.5363 0.2107 1.051 0.58 1.44 0.8616 0.7549 1.837 1.369 2.89 1.82l3.55 1.77c3.733 1.847 6.3 3.727 7.7 5.64 3.339 4.811 2.623 11.35-1.68 15.32-2.52 2.293-5.897 3.44-10.13 3.44-5.291 0.1461-10.32-2.318-13.44-6.59l6-6.49c1.121 1.311 2.478 2.4 4 3.21 1.216 0.7242 2.587 1.146 4 1.23 1.105 0.05548 2.195-0.2692 3.09-0.92 0.7092-0.4811 1.144-1.273 1.17-2.13 0-1.493-1.407-2.947-4.22-4.36l-3.26-1.63c-6.24-3.147-9.36-7.083-9.36-11.81-0.0234-2.997 1.266-5.855 3.53-7.82 2.468-2.205 5.693-3.37 9-3.25 5.01-0.02741 9.731 2.344 12.7 6.38zm45.1 2.41-8.06 4.43c-1.255-1.396-2.783-2.519-4.49-3.3-1.656-0.6457-3.423-0.9584-5.2-0.92-3.246-0.1418-6.413 1.026-8.79 3.24-2.246 2.165-3.468 5.182-3.36 8.3-0.0975 3.002 1.075 5.907 3.23 8 2.288 2.157 5.348 3.303 8.49 3.18 4.333 0 7.707-1.477 10.12-4.43l7.64 5.23c-4.14 5.38-9.98 8.07-17.52 8.07-6.787 0-12.1-2-15.94-6-4.484-4.507-6.564-10.87-5.608-17.16s4.837-11.74 10.46-14.71c3.467-1.843 7.344-2.782 11.27-2.73 3.572-0.05756 7.108 0.727 10.32 2.29 2.996 1.498 5.557 3.74 7.44 6.51zm23.85-8.8c3.604-0.01042 7.147 0.9313 10.27 2.73 6.327 3.556 10.23 10.26 10.2 17.52 0.0159 3.583-0.9193 7.106-2.71 10.21-1.736 3.103-4.283 5.675-7.37 7.44-3.142 1.791-6.703 2.716-10.32 2.68-5.339 0.08033-10.47-2.06-14.17-5.91-3.846-3.773-5.969-8.963-5.87-14.35-0.0502-11.12 8.882-20.19 20-20.32zm0.16 9.12c-2.835-0.06564-5.565 1.076-7.51 3.14-2.023 2.163-3.102 5.041-3 8-0.1238 3.011 0.9556 5.947 3 8.16 1.942 2.067 4.676 3.202 7.51 3.12 2.859 0.07772 5.615-1.073 7.57-3.16 2.041-2.199 3.121-5.122 3-8.12 0.1163-2.982-0.9638-5.888-3-8.07-1.971-2.054-4.725-3.171-7.57-3.07zm26.23-8.12h9.79v18.58c-0.1253 2.536 0.1241 5.077 0.74 7.54 0.4338 1.319 1.274 2.467 2.4 3.28 1.199 0.8095 2.624 1.219 4.07 1.17 1.456 0.04789 2.891-0.3536 4.11-1.15 1.177-0.8334 2.056-2.021 2.51-3.39 0.4-1.113 0.6-3.49 0.6-7.13v-18.9h9.68v16.35c0 6.74-0.5333 11.35-1.6 13.83-1.155 2.867-3.162 5.31-5.75 7-2.916 1.721-6.267 2.565-9.65 2.43-4.233 0-7.657-0.9467-10.27-2.84-2.657-1.959-4.594-4.739-5.51-7.91-0.7467-2.36-1.12-6.627-1.12-12.8zm40.31 0h8.3v4.86c0.7675-1.756 2.007-3.265 3.58-4.36 1.443-0.978 3.147-1.497 4.89-1.49 1.372 0.0285 2.72 0.3706 3.94 1l-3 8.34c-0.8588-0.4874-1.815-0.7777-2.8-0.85-1.493 0-2.753 0.9233-3.78 2.77s-1.54 5.463-1.54 10.85v17.47h-9.61zm48.12 5.39-6 6c-2.433-2.44-4.643-3.66-6.63-3.66-0.9023-0.05243-1.797 0.1897-2.55 0.69-0.5732 0.3851-0.9178 1.03-0.92 1.72 3e-3 0.5363 0.2107 1.051 0.58 1.44 0.8642 0.7436 1.839 1.348 2.89 1.79l3.55 1.77c3.733 1.847 6.3 3.727 7.7 5.64 3.335 4.812 2.619 11.35-1.68 15.32-2.52 2.293-5.897 3.44-10.13 3.44-5.307 0.1571-10.35-2.312-13.48-6.6l6-6.49c1.121 1.311 2.477 2.4 4 3.21 1.235 0.7296 2.628 1.148 4.06 1.22 1.105 0.05548 2.195-0.2692 3.09-0.92 0.6651-0.4878 1.067-1.256 1.09-2.08 0-1.493-1.407-2.947-4.22-4.36l-3.26-1.63c-6.24-3.147-9.36-7.083-9.36-11.81-0.0234-2.997 1.266-5.855 3.53-7.82 2.468-2.204 5.693-3.369 9-3.25 5.01-0.02741 9.731 2.344 12.7 6.38zm45.99 16.7h-31.1c0.3446 2.552 1.628 4.884 3.6 6.54 2.119 1.677 4.77 2.539 7.47 2.43 3.495 0.05289 6.862-1.315 9.33-3.79l8.16 3.83c-1.85 2.723-4.366 4.926-7.31 6.4-3.168 1.452-6.626 2.16-10.11 2.07-6.053 0-10.98-1.91-14.79-5.73-3.778-3.795-5.829-8.977-5.67-14.33-0.1699-5.459 1.884-10.75 5.69-14.67 3.73-3.862 8.913-5.978 14.28-5.83 6.073 0 11.02 1.943 14.83 5.83s5.717 9.023 5.71 15.41zm-9.68-7.63c-0.6145-2.121-1.934-3.969-3.74-5.24-1.915-1.347-4.209-2.047-6.55-2-2.555-0.04801-5.055 0.7501-7.11 2.27-1.576 1.35-2.795 3.067-3.55 5zm-322.9-58.73c-28.16 0-51.87 22.83-51.87 51v52.81l51.86-0.05c28.16 0 51-23.71 51-51.87s-22.86-51.89-50.99-51.89z"/>
  <path d="m52.37 19.74c-11.14 0.006574-21.45 5.873-27.15 15.44s-5.942 21.43-0.6404 31.23l-5.72 18.4 20.54-4.64c11.76 5.299 25.56 2.919 34.87-6.013 9.308-8.933 12.25-22.63 7.442-34.6-4.811-11.97-16.41-19.82-29.31-19.82z" fill="#fff9ae"/>
  <path d="m77.09 70.91c-8.979 11.33-24.5 15.12-37.69 9.206l-20.54 4.7 20.91-2.47c13.86 8.12 31.61 4.547 41.25-8.304s8.104-30.89-3.571-41.93c8.765 11.49 8.616 27.47-0.3626 38.79z" fill="#00aeef"/>
  <path d="m75.32 64.91c-7.747 12.2-22.78 17.59-36.52 13.09l-19.94 6.82 20.54-4.65c14.63 6.608 31.89 1.199 40.13-12.58 8.24-13.78 4.844-31.54-7.897-41.3 9.917 10.51 11.44 26.42 3.689 38.62z" fill="#00a94f"/>
  <path d="m26.47 67.11c-5.725-13.8-1.007-29.72 11.31-38.18 12.32-8.453 28.87-7.129 39.69 3.176-10.02-13.15-28.47-16.36-42.34-7.363-13.87 8.994-18.47 27.15-10.55 41.66l-5.72 18.4z" fill="#f15d22"/>
  <path d="m24.58 66.41c-7.103-13.12-4.065-29.42 7.288-39.1 11.35-9.681 27.93-10.11 39.76-1.018-11.35-11.95-29.98-13.18-42.8-2.81s-15.52 28.84-6.202 42.44l-3.76 18.9z" fill="#d0232b"/>
 </g>
</svg>
