<?xml version="1.0" encoding="UTF-8" standalone="no"?>
<!DOCTYPE svg PUBLIC "-//W3C//DTD SVG 1.1//EN" "http://www.w3.org/Graphics/SVG/1.1/DTD/svg11.dtd">
<svg width="100%" height="100%" viewBox="0 0 235 100" version="1.1" xmlns="http://www.w3.org/2000/svg" xmlns:xlink="http://www.w3.org/1999/xlink" xml:space="preserve" xmlns:serif="http://www.serif.com/" style="fill-rule:evenodd;clip-rule:evenodd;stroke-linejoin:round;stroke-miterlimit:2;">
    <g transform="matrix(0.475916,0,0,0.25283,-3236.62,-2469.86)">
        <g transform="matrix(3.44362,0,0,6.48211,3479.72,9104.49)">
            <path d="M997.6,139.69L985,139.69C983.87,139.69 982.79,139.58 982.81,138.14C982.83,136.7 983.93,136.62 985.04,136.63L989.8,136.63C990.9,136.63 992.03,136.58 992.06,135.14C992.09,133.7 990.99,133.59 989.88,133.59L981.88,133.59C980.81,133.59 979.78,133.39 979.69,132.13C979.6,130.87 980.45,130.45 981.61,130.42C981.647,130.423 981.685,130.425 981.722,130.425C982.49,130.425 983.122,129.793 983.122,129.025C983.122,128.963 983.118,128.901 983.11,128.84C983.086,128.051 982.43,127.415 981.641,127.415C981.57,127.415 981.5,127.42 981.43,127.43L976.34,127.43C975.34,127.43 974.56,127.06 974.45,126.02C974.436,125.939 974.429,125.857 974.429,125.775C974.429,124.969 975.093,124.305 975.899,124.305C975.94,124.305 975.98,124.307 976.02,124.31C977.4,124.31 976.9,123.31 976.87,122.68C976.59,114.68 979.87,108.68 987.03,105.01C999.48,98.68 1013.84,108.09 1013.45,122.21C1013.45,124.27 1013.45,124.27 1015.45,124.27L1017.26,124.27C1018.26,124.27 1019.16,124.74 1019.14,125.88C1019.12,127.02 1018.32,127.43 1017.24,127.43L1002.79,127.43C1001.79,127.43 1000.85,127.6 1000.79,128.81C1000.73,130.02 1001.43,130.45 1002.55,130.45C1003.67,130.45 1004.23,130.95 1004.22,132.04C1004.21,133.13 1003.48,133.54 1002.49,133.59L1001.18,133.59C1000.18,133.59 999.58,134 999.53,135.01C999.48,136.02 1000.2,136.58 1001.2,136.6L1010.22,136.6C1011.34,136.6 1012.42,136.65 1012.46,138.11C1012.5,139.57 1011.46,139.66 1010.3,139.66L997.6,139.69Z" style="fill:rgb(233,110,75);fill-rule:nonzero;"/>
        </g>
        <g transform="matrix(3.44362,0,0,6.48211,3479.72,9104.49)">
            <path d="M1024.14,155.31C1024.56,153.14 1024.99,150.97 1025.4,148.79C1025.69,147.29 1026.03,145.79 1026.2,144.27C1026.35,143.02 1026.81,142.55 1028.2,142.59C1031.28,142.7 1031.27,142.59 1031.81,145.59C1032.35,148.59 1032.97,151.67 1033.54,154.7C1034.26,154.7 1034.12,154.17 1034.17,153.85C1034.68,150.51 1035.25,147.16 1035.65,143.8C1035.88,141.85 1037.26,142.72 1038.13,142.69C1039.36,142.69 1038.66,143.69 1038.59,144.15C1037.98,148.48 1037.26,152.8 1036.59,157.15C1036.44,158.15 1036.09,158.6 1034.95,158.59C1031.4,158.54 1031.41,158.59 1030.77,155.07C1030.27,151.99 1029.6,148.939 1028.77,145.93L1027.18,154.26C1027.13,154.52 1027.11,154.8 1027.06,155.07C1026.34,158.76 1026.34,158.73 1022.54,158.58C1021.71,158.58 1021.41,158.26 1021.29,157.47C1020.63,152.98 1019.9,148.47 1019.29,144.01C1019.23,143.55 1018.63,142.61 1019.77,142.72C1020.61,142.8 1021.98,141.87 1022.23,143.66C1022.67,146.8 1023.14,149.93 1023.6,153.07C1023.71,153.82 1023.84,154.57 1023.96,155.32L1024.14,155.31Z" style="fill:rgb(204,204,204);fill-rule:nonzero;"/>
        </g>
        <g transform="matrix(3.44362,0,0,6.48211,3479.72,9104.49)">
            <path d="M978.81,150.7L978.81,152.01C978.74,157.13 975.05,159.91 970.1,158.54C968.006,158.086 966.383,156.408 966,154.3C965.53,151.937 965.53,149.503 966,147.14C966.61,144 969,142.27 972.45,142.33C975.9,142.39 978.08,144.17 978.65,147.27C978.794,148.405 978.877,149.546 978.9,150.69L978.81,150.7ZM975.81,150.7C975.87,149.831 975.87,148.959 975.81,148.09C975.657,146.339 974.126,145.003 972.37,145.09C972.295,145.085 972.22,145.082 972.144,145.082C970.461,145.082 969.051,146.41 968.95,148.09C968.8,149.717 968.8,151.353 968.95,152.98C969.13,155.16 970.42,156.18 972.56,156.11C972.61,156.112 972.661,156.114 972.711,156.114C974.467,156.114 975.911,154.669 975.911,152.914C975.911,152.886 975.911,152.858 975.91,152.83C975.85,152.11 975.8,151.39 975.8,150.68L975.81,150.7Z" style="fill:rgb(204,204,204);fill-rule:nonzero;"/>
        </g>
        <g transform="matrix(3.44362,0,0,6.48211,3479.72,9104.49)">
            <path d="M983.62,157C983.62,158.76 983.53,160.3 983.62,161.81C983.71,163.32 982.85,162.93 982.06,162.98C981.27,163.03 980.66,162.98 980.68,161.82C980.76,157.51 980.68,153.19 980.74,148.88C980.74,148.31 980.19,147.26 981.4,147.25C982.34,147.25 983.82,146.5 983.6,148.62C986.6,146.36 989.19,146.43 991.12,148.69C993.128,151.21 993.026,154.846 990.88,157.25C989,159.31 986.33,159.27 983.62,157ZM989.7,152.77C989.686,151.114 988.321,149.76 986.665,149.76C985,149.76 983.63,151.13 983.63,152.795C983.63,152.803 983.63,152.812 983.63,152.82C983.63,154.89 984.9,156.27 986.77,156.21C988.64,156.15 989.72,154.81 989.7,152.81L989.7,152.77Z" style="fill:rgb(204,204,204);fill-rule:nonzero;"/>
        </g>
        <g transform="matrix(3.44362,0,0,6.48211,3479.72,9104.49)">
            <path d="M1076.79,149.2C1078.47,146.97 1080.35,146.7 1082.34,147.46C1084.33,148.22 1084.99,150.04 1084.97,152.11C1084.97,153.86 1084.89,155.62 1084.97,157.36C1085.04,158.55 1084.4,158.54 1083.56,158.53C1082.72,158.52 1081.94,158.64 1082.02,157.31C1082.14,155.62 1082.08,153.92 1082.02,152.23C1081.96,150.54 1081.24,149.7 1079.74,149.6C1079.61,149.578 1079.47,149.567 1079.34,149.567C1078.04,149.567 1076.95,150.593 1076.87,151.89C1076.72,153.686 1076.69,155.49 1076.78,157.29C1076.78,158.37 1076.41,158.62 1075.45,158.53C1074.67,158.45 1073.84,158.77 1073.86,157.37C1073.94,152.83 1073.94,148.29 1073.86,143.75C1073.86,142.37 1074.68,142.69 1075.46,142.62C1076.46,142.52 1076.84,142.79 1076.78,143.85C1076.72,145.48 1076.79,147.12 1076.79,149.2Z" style="fill:rgb(204,204,204);fill-rule:nonzero;"/>
        </g>
        <g transform="matrix(3.44362,0,0,6.48211,3479.72,9104.49)">
            <path d="M1059.43,156.7C1057.71,159.05 1055.79,159.07 1053.8,158.51C1052.41,158.182 1051.43,156.934 1051.43,155.51C1051.33,154.089 1052.25,152.781 1053.62,152.4C1055.09,151.988 1056.6,151.75 1058.13,151.69C1058.56,151.62 1059.21,151.83 1059.33,151.14C1059.4,150.522 1059.07,149.922 1058.52,149.64C1057.18,148.89 1055.47,149.286 1054.59,150.55C1053.59,152.07 1052.88,150.7 1052.25,150.32C1051.19,149.68 1052.33,149.21 1052.65,148.88C1054.32,147.052 1056.94,146.413 1059.26,147.27C1061.05,147.761 1062.29,149.414 1062.26,151.27L1062.26,156.83C1062.26,157.46 1062.76,158.51 1061.38,158.46C1060.41,158.47 1059.11,159 1059.43,156.7ZM1056.37,156.4C1057.25,156.47 1058.12,156.139 1058.73,155.5C1059.21,155.115 1059.43,154.492 1059.31,153.89C1059.04,153.12 1058.38,153.69 1057.9,153.69C1057.3,153.687 1056.71,153.744 1056.12,153.86C1055.33,154.03 1054.34,154.18 1054.47,155.27C1054.6,156.36 1055.51,156.4 1056.37,156.4Z" style="fill:rgb(204,204,204);fill-rule:nonzero;"/>
        </g>
        <g transform="matrix(3.44362,0,0,6.48211,3479.72,9104.49)">
            <path d="M1046.31,153.69L1043.19,153.69C1042.15,153.69 1042.19,154.13 1042.53,154.88C1043.02,155.807 1043.99,156.39 1045.03,156.39C1045.83,156.39 1046.59,156.052 1047.13,155.46C1048.35,154.16 1049.13,155.38 1049.67,155.87C1050.5,156.59 1049.34,157.05 1048.92,157.44C1046.75,159.258 1043.57,159.304 1041.35,157.55C1039.12,155.542 1038.59,152.227 1040.07,149.62C1041.08,147.942 1042.89,146.911 1044.85,146.911C1047.9,146.911 1050.42,149.426 1050.42,152.481C1050.42,152.634 1050.41,152.787 1050.4,152.94C1050.32,153.63 1049.98,153.72 1049.4,153.71C1048.39,153.68 1047.35,153.69 1046.31,153.69ZM1044.86,151.76C1045.08,151.795 1045.3,151.795 1045.51,151.76C1046.09,151.56 1047.13,152.32 1047.24,151.3C1047.35,150.28 1046.52,149.73 1045.59,149.53C1044.63,149.22 1043.57,149.503 1042.89,150.25C1042.57,150.61 1042.18,151.06 1042.38,151.54C1042.58,152.02 1043.15,151.72 1043.55,151.76C1043.99,151.785 1044.42,151.785 1044.86,151.76Z" style="fill:rgb(204,204,204);fill-rule:nonzero;"/>
        </g>
        <g transform="matrix(3.44362,0,0,6.48211,3479.72,9104.49)">
            <path d="M1000.63,153.69L997.85,153.69C996.5,153.63 996.69,154.29 997.15,155.08C997.666,155.899 998.568,156.397 999.536,156.397C1000.36,156.397 1001.13,156.04 1001.67,155.42C1002.84,154.15 1003.48,155.42 1004.1,155.81C1005.1,156.46 1003.94,156.92 1003.6,157.26C1001.48,159.201 998.238,159.353 995.94,157.62C993.64,155.63 993.066,152.258 994.58,149.62C996.077,147.207 999.169,146.276 1001.75,147.46C1003.82,148.46 1005.06,150.651 1004.85,152.94C1004.78,153.63 1004.47,153.74 1003.91,153.73C1002.82,153.68 1001.72,153.69 1000.63,153.69ZM999.3,151.76C999.569,151.795 999.841,151.795 1000.11,151.76C1000.67,151.62 1001.61,152.21 1001.74,151.35C1001.87,150.49 1001.13,149.87 1000.32,149.6C999.494,149.279 998.562,149.376 997.82,149.86C997.27,150.24 996.72,150.77 996.91,151.44C997.1,152.11 997.84,151.67 998.33,151.76C998.653,151.79 998.977,151.79 999.3,151.76Z" style="fill:rgb(204,204,204);fill-rule:nonzero;"/>
        </g>
        <g transform="matrix(3.44362,0,0,6.48211,3479.72,9104.49)">
            <path d="M1093.6,153.69L1090.65,153.69C1089.7,153.69 1089.65,154.23 1089.97,154.92C1090.47,155.826 1091.43,156.391 1092.46,156.391C1093.27,156.391 1094.04,156.049 1094.58,155.45C1095.81,154.12 1096.58,155.45 1097.12,155.89C1097.88,156.48 1096.83,156.98 1096.45,157.35C1094.28,159.254 1091.03,159.339 1088.77,157.55C1086.55,155.542 1086.02,152.235 1087.49,149.63C1088.97,147.209 1092.05,146.257 1094.64,147.42C1096.72,148.399 1097.98,150.587 1097.78,152.88C1097.72,153.54 1097.46,153.72 1096.87,153.71C1095.78,153.67 1094.69,153.69 1093.6,153.69ZM1092.29,151.76C1092.51,151.795 1092.73,151.795 1092.94,151.76C1093.52,151.56 1094.56,152.32 1094.67,151.3C1094.78,150.28 1093.95,149.74 1093.04,149.54C1092.09,149.233 1091.04,149.493 1090.34,150.21C1090.01,150.56 1089.66,151 1089.85,151.5C1090.04,152 1090.6,151.72 1091,151.76C1091.43,151.785 1091.86,151.785 1092.29,151.76Z" style="fill:rgb(204,204,204);fill-rule:nonzero;"/>
        </g>
        <g transform="matrix(3.44362,0,0,6.48211,3479.72,9104.49)">
            <path d="M1009.51,148.91C1010.73,147.193 1013.02,146.57 1014.94,147.43C1017.03,148.19 1017.64,149.97 1017.64,152.03C1017.64,153.83 1017.58,155.63 1017.64,157.43C1017.71,158.69 1016.94,158.52 1016.18,158.52C1015.42,158.52 1014.62,158.71 1014.69,157.44C1014.78,155.75 1014.69,154.06 1014.69,152.36C1014.69,150.66 1013.93,149.7 1012.39,149.6C1012.27,149.583 1012.15,149.574 1012.03,149.574C1010.66,149.574 1009.52,150.687 1009.49,152.06C1009.36,153.801 1009.36,155.549 1009.49,157.29C1009.57,158.59 1008.88,158.51 1008,158.53C1007.12,158.55 1006.5,158.45 1006.54,157.24C1006.63,154.46 1006.54,151.67 1006.54,148.89C1006.54,148.16 1006.18,147.19 1007.61,147.22C1008.76,147.24 1009.76,147.16 1009.51,148.91Z" style="fill:rgb(204,204,204);fill-rule:nonzero;"/>
        </g>
        <g transform="matrix(3.44362,0,0,6.48211,3479.72,9104.49)">
            <path d="M1066.12,153.49C1066.09,152.997 1066.09,152.503 1066.12,152.01C1066.35,150.41 1066.03,149.38 1064.05,149.7C1063.05,149.87 1063.23,149.08 1063.24,148.5C1063.25,147.92 1063.04,147.09 1064.02,147.28C1066.25,147.71 1066.29,146.36 1066.1,144.84C1065.94,143.5 1066.87,143.84 1067.57,143.84C1068.27,143.84 1069.18,143.69 1068.97,144.94L1068.97,145.94C1068.82,147 1069.22,147.42 1070.32,147.32C1071.19,147.24 1072.15,146.98 1072.13,148.57C1072.11,150.16 1071.23,149.83 1070.41,149.75C1069.24,149.64 1068.84,150.08 1068.96,151.22C1069.02,152.092 1069.02,152.968 1068.96,153.84C1068.96,155.16 1068.78,156.42 1070.81,156.16C1071.67,156.04 1071.39,156.9 1071.41,157.38C1071.43,157.86 1071.6,158.57 1070.72,158.56C1069.74,158.58 1068.76,158.54 1067.78,158.44C1066.75,158.306 1066.01,157.361 1066.12,156.33C1066.11,155.35 1066.12,154.42 1066.12,153.49Z" style="fill:rgb(204,204,204);fill-rule:nonzero;"/>
        </g>
        <g transform="matrix(3.44362,0,0,6.48211,3479.72,9104.49)">
            <path d="M1102.4,148.83C1102.89,147.93 1103.81,147.34 1104.83,147.27C1105.51,147.27 1106.54,146.68 1106.58,148.18C1106.58,149.28 1106.48,149.86 1105.12,149.81C1103.12,149.73 1102.41,150.5 1102.38,152.57C1102.38,154.1 1102.3,155.64 1102.38,157.16C1102.45,158.22 1102.16,158.62 1101.05,158.54C1100.05,158.48 1099.39,158.54 1099.44,157.21C1099.55,154.38 1099.44,151.53 1099.44,148.69C1099.44,147.9 1099.33,147.12 1100.56,147.24C1101.54,147.33 1102.83,146.87 1102.4,148.83Z" style="fill:rgb(204,204,204);fill-rule:nonzero;"/>
        </g>
        <g transform="matrix(3.44362,0,0,6.48211,3479.72,9104.49)">
            <path d="M1018.34,133.62L1016.71,133.62C1016.69,133.621 1016.67,133.621 1016.65,133.621C1015.82,133.621 1015.14,132.94 1015.14,132.111C1015.14,132.094 1015.14,132.077 1015.14,132.06C1015.14,132.03 1015.14,131.999 1015.14,131.969C1015.14,131.152 1015.81,130.479 1016.63,130.479C1016.64,130.479 1016.66,130.479 1016.68,130.48C1017.68,130.43 1018.75,130.48 1019.79,130.48C1019.84,130.474 1019.9,130.472 1019.95,130.472C1020.77,130.472 1021.44,131.144 1021.44,131.962C1021.44,132.014 1021.44,132.067 1021.43,132.12C1021.43,132.121 1021.43,132.122 1021.43,132.123C1021.43,132.957 1020.74,133.643 1019.91,133.643C1019.88,133.643 1019.85,133.642 1019.82,133.64C1019.33,133.65 1018.84,133.62 1018.34,133.62Z" style="fill:rgb(233,110,75);fill-rule:nonzero;"/>
        </g>
        <g transform="matrix(3.44362,0,0,6.48211,3479.72,9104.49)">
            <path d="M1009.52,130.47L1011.15,130.47C1011.16,130.47 1011.17,130.47 1011.17,130.47C1011.99,130.47 1012.66,131.142 1012.66,131.96C1012.66,131.993 1012.66,132.027 1012.66,132.06C1012.66,132.093 1012.66,132.127 1012.66,132.16C1012.66,132.933 1012.03,133.571 1011.26,133.58C1010.12,133.67 1008.97,133.67 1007.83,133.58C1007.83,133.58 1007.83,133.58 1007.82,133.58C1007.04,133.58 1006.39,132.934 1006.39,132.15C1006.39,132.076 1006.4,132.003 1006.41,131.93C1006.41,131.93 1006.41,131.93 1006.41,131.93C1006.41,131.129 1007.07,130.47 1007.87,130.47C1007.87,130.47 1007.88,130.47 1007.88,130.47C1008.42,130.43 1009,130.47 1009.52,130.47Z" style="fill:rgb(233,110,75);fill-rule:nonzero;"/>
        </g>
    </g>
</svg>
