<?xml version="1.0" encoding="utf-8"?>
<!-- Generator: Adobe Illustrator 13.0.2, SVG Export Plug-In . SVG Version: 6.00 Build 14948)  -->
<!DOCTYPE svg PUBLIC "-//W3C//DTD SVG 1.1//EN" "http://www.w3.org/Graphics/SVG/1.1/DTD/svg11.dtd">
<svg version="1.1" id="Layer_1" xmlns="http://www.w3.org/2000/svg" xmlns:xlink="http://www.w3.org/1999/xlink" x="0px" y="0px"
	 width="720px" height="192px" viewBox="0 0 718.707 191.331" enable-background="new 0 0 718.707 191.331"
	 xml:space="preserve">
<path fill="#FFFFFF" d="M305.029,162.754c45.779-15.695,81.564-36.734,121.582-63.16c32.711-20.205,67.605-37.984,106.273-42.684
	c-46.408,17.041-80.219,40.744-122.441,66.826C378.143,143.145,342.754,158.498,305.029,162.754"/>
<path fill="#FFFFFF" d="M688.527,73.725l-18.107-4.957l4.74-8.193l0.432-1.508l-0.863-2.586l-0.861-0.646l-1.078-0.432h-0.861
	l-1.293,0.432l-20.695,7.328l-21.986-5.82h-1.08l-0.861,0.432l-1.295,0.432l-0.43,0.861l-0.646,0.646v1.293l0.215,1.293l0.432,0.863
	l6.252,7.545l-16.816,6.684l-0.861,0.432l-0.646,0.645l-0.43,0.863v1.939l0.43,1.293l0.646,0.863l1.293,0.43l1.293,0.432
	l25.654-1.293c13.109,14.547,10.412,15.568,21.125-0.861l25.652-1.51l1.078-0.432l1.295-0.43
	C691.301,76.824,692.217,75.531,688.527,73.725 M320.549,153.055c47.244-20.613,89.766-53.084,136.242-74.588
	c-25.387,13.342-50.238,30.332-74.805,45.27C361.049,135.191,343.049,144.111,320.549,153.055z M620.191,62.299l1.293,0.432
	l1.293-0.432l1.078-0.43l0.861-1.295l0.432-1.076v-1.293l-0.861-1.295l-0.646-0.861c-21.564-13.586-46.117-20.562-70.061-28.455
	l1.725,0.43h1.51l1.293-0.43l0.863-0.646l0.645-0.863l0.432-1.725l-0.432-1.078l-0.645-0.861l-0.863-0.863l-4.959-2.371
	l-5.604-2.154l-7.33-2.371c-20.104-6.041-38.836-11.006-59.928-12.719c-73.504-6.494-112.318,14.717-172.455,55.832
	c-34.781,24.797-64.006,52.76-103.258,70.492l-14.658,6.896l-12.936,5.605l-10.131,3.664l-9.486,3.666
	c-2.498,0.84-2.502,2.02-2.369,4.094l0.43,1.295l0.863,0.646l1.076,0.432l1.295,0.43c20.008-2.258,37.002-5.41,56.479-10.994
	c39.838-11.615,74.482-32.107,109.51-54.107c-56.27,40.018-97.039,62.457-167.283,66.826c-23.268,1.373-46.576-2.004-69.195-7.328
	l-13.367-3.234l-10.131-3.018l-9.27-3.234l-1.293-0.432l-1.293,0.432l-1.078,0.432l-0.861,1.293l-0.432,1.078l0.863,2.586
	l0.861,0.863l2.371,1.941l6.035,4.094l9.701,5.174c16.936,10.332,37.525,16.705,56.693,21.344
	c55.703,10.332,123.205,1.812,175.689-17.895l-0.861,1.078v1.725l0.432,1.078l0.861,0.863l1.078,0.861h1.293l6.467-0.861
	c24.578-4.381,48.816-11.551,71.139-22.852c38.496-18.744,73.516-46.883,111.232-64.885L504,73.293l9.27-4.525l14.658-6.037
	l6.037-2.586l0.861-0.432l0.863-1.078l0.43-1.293v-1.293l-0.43-0.215C560.383,51.691,597.004,52.916,620.191,62.299z"/>
<path fill="#A6C9D7" d="M255.449,101.748c-28.41,21.396-63.719,38.102-97.223,49.582c30.484-3.414,60.979-10.15,89.029-22.852
	c46.65-20.098,84.65-47.822,126.541-75.662c54.32-32.1,121.1-42.777,182.586-28.457C517.857,8.469,475.16,0.707,433.51,5.391
	C366.779,11.166,306.945,63.447,255.449,101.748"/>
<path fill="#A6C9D7" d="M54.107,143.139c42.611,15.445,88.957,21.662,133.867,14.012c57.195-8.033,106.033-40.408,151.977-73.295
	c25.83-17.494,50.051-33.383,78.898-45.699c22.836-8.346,46.977-13.814,71.354-14.227c44.807-0.572,92.82,12.391,131.281,35.137
	c-38.246-14.135-85.986-10.512-124.383,1.078c-67.672,17.799-118.715,65.029-182.371,91.617
	c-44.084,19.332-92.473,28.377-140.551,27.592C131.672,180.213,88.736,167.893,54.107,143.139"/>
<polyline fill="#FFFFFF" points="408.072,27.162 393.412,35.354 403.543,21.988 396.646,14.229 410.443,13.367 421.006,0 
	419.281,12.936 432.43,12.936 417.773,21.557 415.186,34.492 408.072,27.162 "/>
<polyline fill="#FFFFFF" points="330.25,67.904 310.418,79.33 323.785,61.438 314.73,50.875 333.055,49.58 347.281,32.121 
	344.91,49.15 362.803,48.936 343.4,60.574 339.951,78.037 330.25,67.904 "/>
<polyline fill="#A6C9D7" points="642.18,79.33 615.018,80.623 636.143,72 627.305,61.006 650.371,66.828 671.928,59.066 
	665.029,70.707 687.879,77.391 660.07,78.467 652.311,90.324 642.18,79.33 "/>
<polyline fill="#FFFFFF" points="381.986,78.037 372.072,83.426 379.186,74.803 374.66,69.629 383.066,69.197 389.963,60.574 
	389.316,68.768 397.725,68.768 388.023,74.373 386.73,82.994 381.986,78.037 "/>
<polyline fill="#FFFFFF" points="334.348,120.504 320.119,128.266 329.818,115.547 323.354,107.785 336.287,106.922 346.635,94.42 
	344.91,106.707 357.844,106.707 343.617,114.684 341.244,127.402 334.348,120.504 "/>
<polyline fill="#FFFFFF" points="459.16,70.707 449.029,76.527 455.928,67.473 451.186,61.869 460.887,61.438 468.215,52.168 
	466.922,61.006 475.977,61.006 465.629,67.043 464.119,76.098 459.16,70.707 "/>
<polyline fill="#FFFFFF" points="418.635,76.527 392.98,91.186 410.443,67.904 398.586,54.109 422.516,52.816 440.838,30.18 
	437.604,52.168 461.316,52.168 435.664,67.043 431.137,89.461 418.635,76.527 "/>
<polyline fill="#FFFFFF" points="538.49,48.936 528.791,54.541 535.258,45.486 530.729,40.312 540.215,39.449 547.115,30.828 
	545.82,39.449 554.873,39.449 544.959,45.27 543.447,53.678 538.49,48.936 "/>
<polyline fill="#FFFFFF" points="498.18,47.641 484.383,55.402 494.299,42.684 487.615,35.354 500.766,34.492 510.467,21.988 
	508.742,34.275 521.461,34.275 507.664,42.252 505.078,54.541 498.18,47.641 "/>
<polyline fill="#FFFFFF" points="295.76,153.486 276.574,164.049 289.51,146.803 281.102,136.672 298.562,135.379 311.928,118.779 
	309.988,135.162 327.018,135.162 308.262,146.156 305.029,162.754 295.76,153.486 "/>
<polyline fill="#FFFFFF" points="467.785,40.312 460.455,44.408 465.629,37.941 462.396,33.844 469.078,33.412 474.252,27.162 
	473.389,33.412 479.855,33.412 472.742,37.51 471.447,43.977 467.785,40.312 "/>
<polyline fill="#B70005" points="172.023,176.982 164.262,164.049 168.359,164.049 174.18,173.748 179.785,164.049 183.881,164.049 
	176.119,176.982 176.119,185.174 172.023,185.174 172.023,176.982 "/>
<path fill="#B70005" d="M194.012,177.846c1.316-7.582-9.904-7.496-8.623,0C184.48,184.678,194.957,184.852,194.012,177.846
	 M181.725,177.846c0.438-4.412,2.691-8.656,7.762-8.191c6.203-0.182,7.227,2.869,8.189,8.191c-0.787,4.846-2.701,8.166-8.189,7.76
	C184.752,186.033,182.201,182.072,181.725,177.846z"/>
<path fill="#B70005" d="M213.844,185.174h-3.449v-2.156c-1.885,3.486-3.574,2.713-7.113,2.156l-0.646-0.432l-0.861-0.432
	l-0.863-0.861l-0.432-1.078l-0.43-2.586v-9.701h3.664v10.994l0.861,1.293l0.863,0.215l1.293,0.432l1.508-0.432l1.293-0.645
	l0.863-1.295v-10.562h3.449V185.174"/>
<path fill="#B70005" d="M217.293,170.084h3.232v2.803c1.744-3.393,2.102-3.383,5.605-3.232v3.232h-2.801l-1.295,1.293l-1.078,1.51
	v9.484h-3.664V170.084"/>
<polyline fill="#B70005" points="234.322,170.084 237.988,170.084 242.084,181.941 245.748,170.084 249.412,170.084 
	243.592,185.174 239.93,185.174 234.322,170.084 "/>
<path fill="#B70005" d="M262.779,177.846l-0.432-2.156l-0.861-1.941l-1.08-1.293h-0.861l-1.295-0.432l-0.861,0.432h-1.078
	l-1.293,1.293l-0.861,1.941v2.156C253.293,183.543,261.799,186.148,262.779,177.846 M250.49,177.846
	c0.277-4.838,2.508-8.369,7.76-8.191c4.912-0.672,8.117,3.768,7.762,8.191v1.508l-0.432,1.725l-0.861,1.293l-0.646,1.078
	l-0.863,0.861l-1.723,0.863l-1.08,0.432h-3.664l-1.725-0.432l-1.293-0.863l-1.078-0.861l-0.861-1.078l-0.863-1.293v-1.725
	L250.49,177.846z"/>
<path fill="#B70005" d="M268.812,185.174v-15.09h3.666v15.09H268.812z M268.812,167.283v-3.234h3.666v3.234H268.812z"/>
<path fill="#B70005" d="M286.275,175.043c-0.877-4.326-5.838-3.469-7.33,0l-0.215,1.078v1.725l0.215,1.939l0.432,1.725
	c4.07,2.564,1.932,1.316,5.82,0.861l0.646-1.293l0.432-1.725h3.234l-0.648,3.018l-1.293,1.939l-1.939,0.863l-3.018,0.432h-1.51
	l-1.725-0.432c-3.602-2.965-4.4-4.305-4.096-9.053l0.432-1.51l1.723-2.588l0.863-1.076l1.078-0.863l1.725-0.43h1.51l3.018,0.43
	l1.939,0.863l0.863,0.645l0.861,0.863l0.217,1.293v1.295H286.275"/>
<path fill="#B70005" d="M303.09,176.121c-1.002-5.297-6.762-5.459-7.76,0H303.09 M295.33,178.709v1.508l0.861,1.725l1.078,0.645
	l2.154,0.432l1.08-0.432l1.293-0.215l0.861-0.861l0.432-0.863h3.232c-4.102,10.326-17.932,3.684-13.797-6.035
	c2.586-9.363,16.15-4.418,13.797,4.098H295.33z"/>
<path fill="#B70005" d="M317.316,185.174v-15.09h3.664v15.09H317.316z M317.316,167.283v-3.234h3.664v3.234H317.316z"/>
<polyline fill="#B70005" points="324.646,170.084 327.449,170.084 327.449,172.023 327.879,172.023 328.742,171.379 
	329.389,170.516 331.113,169.654 332.406,169.654 334.779,170.084 336.287,170.947 337.58,172.455 338.012,175.043 338.012,185.174 
	334.348,185.174 334.348,174.18 333.484,172.887 332.623,172.455 331.545,172.023 329.818,172.455 328.742,173.318 327.879,174.611 
	327.879,185.174 324.646,185.174 324.646,170.084 "/>
<path fill="#B70005" d="M348.143,170.084h2.373c0.211-5.979,1-6.262,6.682-5.818v2.586c-2.523-0.393-3.672,0.729-3.234,3.232h2.803
	v2.371h-2.803v12.719h-3.447v-12.719h-2.373V170.084"/>
<path fill="#B70005" d="M369.27,176.121v-1.51l-0.863-1.293l-1.076-0.863l-1.727-0.432l-1.508,0.432l-1.293,0.863l-0.861,1.293
	l-0.432,1.51H369.27 M361.51,178.709l0.432,1.508l0.861,1.725l1.293,0.645l1.508,0.432l1.295-0.432l1.293-0.215l0.646-0.861
	l0.432-0.863h3.234c-3.652,10.391-17.693,3.658-13.799-6.035c3.232-4.709,2.688-5.135,8.625-4.957
	c5.02,2.855,4.902,2.264,5.604,9.055H361.51z"/>
<path fill="#B70005" d="M382.418,183.018c2.803,0.361,4.303-2.773,4.312-5.172l-0.215-2.588l-0.863-1.51l-1.725-1.293l-1.51-0.432
	l-1.293,0.432h-0.863l-1.076,1.725l-0.863,1.51v4.096l0.863,1.725l1.076,1.076l0.863,0.432H382.418 M389.963,185.174h-3.232v-2.156
	c-2.701,3.436-2.367,2.412-6.469,2.588l-1.508-0.432l-1.293-0.863l-0.863-0.861l-0.861-1.078l-0.646-1.725l-0.43-3.232
	c1.611-4.393-0.299-5.785,4.525-7.33l0.645-0.43h3.02l1.51,0.43l1.293,0.863l0.863,1.076v-7.975h3.447V185.174z"/>
<path fill="#B70005" d="M403.975,176.121v-1.51l-0.861-1.293l-1.293-0.863l-1.51-0.432l-1.725,0.432l-1.293,0.863l-0.646,1.293
	l-0.43,1.51H403.975 M396.217,178.709l0.43,1.508l0.646,1.725l1.293,0.645l1.725,0.432l1.078-0.432l1.293-0.215l0.861-0.861
	l0.432-0.863h3.234c-2.932,9.02-17.418,5.684-13.797-6.035c3.082-9.201,15.529-4.652,14.229,4.098H396.217z"/>
<polyline fill="#B70005" points="410.012,170.084 413.246,170.084 413.246,172.887 413.676,171.592 414.969,170.516 
	416.047,169.654 418.85,169.654 418.85,172.887 416.047,172.887 414.539,174.18 413.676,175.689 413.246,177.846 413.246,185.174 
	410.012,185.174 410.012,170.084 "/>
<path fill="#B70005" d="M429.844,177.846l-0.646,0.432h-1.293l-1.939,0.432h-1.293l-0.863,0.645l-0.432,0.432l-0.432,1.293
	l0.432,0.863l0.863,0.645l0.861,0.432h1.078l1.293-0.432l1.293-0.215l0.863-0.861l0.215-1.293V177.846 M433.078,181.941l0.432,0.645
	l0.432,0.432h0.861v2.156l-1.941,0.432H432l-1.727-0.863v-0.861l-1.076,0.861l-1.293,0.432l-2.803,0.432h-2.156l-1.51-0.863
	l-1.293-1.725l-0.432-1.939c-0.127-5.582,5.627-3.398,10.133-5.82v-1.939l-0.646-0.863l-1.293-0.432h-0.863l-1.508,0.432
	l-0.861,0.432l-0.863,0.861l-0.432,0.863h-3.234l0.863-2.588l0.861-0.645l0.648-0.863l2.156-0.861h4.957l1.508,0.861l0.863,0.863
	l0.861,0.645l0.217,0.863V181.941z"/>
<rect x="436.742" y="164.049" fill="#B70005" width="3.664" height="21.125"/>
<path fill="#B70005" d="M459.16,183.018c3.109,0.535,3.932-2.869,4.527-5.172l-0.43-2.588l-0.861-1.51l-1.51-1.293l-1.727-0.432
	l-1.076,0.432h-0.863l-1.293,1.725l-0.861,1.51v4.096l0.861,1.725l1.293,1.076l0.863,0.432H459.16 M466.922,185.174h-3.234v-2.156
	l-1.291,1.293l-0.648,0.863l-1.725,0.432h-2.803l-1.723-0.432l-1.08-0.863l-0.861-0.861l-0.863-1.078l-0.861-1.725l-0.432-3.232
	c1.125-3.307,0.504-6.32,4.527-7.33l0.863-0.43h2.801l1.725,0.43l1.08,0.863l0.861,1.076v-7.975h3.664V185.174z"/>
<path fill="#B70005" d="M480.717,176.121v-1.51l-0.861-1.293l-1.078-0.863l-1.723-0.432l-1.51,0.432l-1.293,0.863l-0.863,1.293
	l-0.43,1.51H480.717 M472.959,178.709l0.43,1.508l0.863,1.725l1.293,0.645l1.51,0.432l1.293-0.432l1.293-0.215l0.646-0.861
	l0.43-0.863h3.236c-3.652,10.391-17.693,3.658-13.799-6.035c3.23-4.709,2.688-5.135,8.623-4.957
	c5.023,2.855,4.904,2.277,5.605,9.055H472.959z"/>
<path fill="#B70005" d="M497.102,175.043v-1.295l-0.861-0.861l-1.295-0.432l-1.078-0.432l-1.725,0.432l-1.293,0.863l-0.215,0.861
	l-0.432,0.863l-0.432,1.078v3.664l0.863,1.725c2.588,2.988,3.176,0.938,5.605,0.861l0.432-1.293l0.43-1.725h3.664l-0.861,3.018
	l-1.725,1.939l-1.939,0.863l-2.373,0.432h-2.156l-1.076-0.432c-4.113-2.174-4.803-4.422-4.096-9.053v-1.51l0.646-1.293l0.861-1.295
	l1.295-1.076l1.293-0.863l1.076-0.43c4.117-0.184,8.322,0.768,9.055,5.389H497.102"/>
<path fill="#B70005" d="M503.568,185.174v-15.09h3.234v15.09H503.568z M503.568,167.283v-3.234h3.234v3.234H503.568z"/>
<path fill="#B70005" d="M512.838,180.217c0.811,3.682,4.273,3.053,6.898,2.154c0.395-4.801-2.451-1.832-6.467-4.525
	c-2.648-1.445-3.551-2.117-3.234-4.959l0.432-1.295l0.861-0.645l0.863-0.432l1.939-0.861h4.527l1.939,0.861l1.725,1.508l0.432,0.863
	v1.293h-3.449l-0.215-0.861l-0.861-0.863h-0.863l-1.293-0.432l-1.512,0.432l-0.861,0.432l-0.43,0.861l0.43,1.295
	c5.164,1.383,11.225,0.965,9.055,7.975c-3.459,3.926-4.186,2.254-9.055,2.588l-1.939-1.295l-1.725-1.725l-0.432-1.076v-1.293
	H512.838"/>
<path fill="#B70005" d="M525.986,185.174v-15.09h3.234v15.09H525.986z M525.986,167.283v-3.234h3.234v3.234H525.986z"/>
<path fill="#B70005" d="M544.311,177.846v-2.156l-0.863-1.941l-1.293-1.293h-1.293l-0.646-0.432l-1.293,0.432h-0.863l-1.076,1.293
	l-0.863,1.941l-0.43,2.156C536.652,186.166,545.205,183.482,544.311,177.846 M532.455,177.846c-0.355-4.424,2.85-8.863,7.76-8.191
	h1.51l1.723,0.43l1.08,0.863l1.293,0.645l0.863,1.295l0.861,1.725v1.078l0.432,2.156l-0.432,1.508v1.725l-0.861,1.293l-0.863,1.078
	l-1.293,0.861l-1.08,0.863l-1.723,0.432h-3.666l-1.076-0.432l-1.725-0.863l-0.861-0.861l-0.648-1.078l-0.863-1.293l-0.43-1.725
	V177.846z"/>
<polyline fill="#B70005" points="550.777,170.084 554.012,170.084 554.012,172.023 554.873,171.379 555.953,170.516 
	557.246,169.654 558.539,169.654 560.91,170.084 562.418,170.947 563.711,172.455 564.143,175.043 564.143,185.174 560.479,185.174 
	560.479,174.18 560.047,172.887 558.971,172.455 557.676,172.023 555.953,172.455 554.873,173.318 554.441,174.611 554.012,176.121 
	554.012,185.174 550.777,185.174 550.777,170.084 "/>
<rect x="567.377" y="175.689" fill="#B70005" width="8.621" height="3.232"/>
<path fill="#B70005" d="M579.232,170.084h3.234v1.939l0.861-1.076l0.648-0.863l1.725-0.43h2.801l1.295,0.43l0.861,0.863l0.646,1.076
	l0.861-1.076l1.295-0.863l1.293-0.43h1.51c7.572-1.234,5.727,12.932,5.389,15.52h-3.664v-10.562l-0.432-1.293l-0.861-0.863
	l-1.725-0.432l-1.08,0.432l-1.293,0.863l-0.432,1.293l-0.43,1.51v9.053h-3.234V174.18l-0.43-1.293l-0.648-0.432l-1.723-0.432
	l-1.293,0.432l-0.648,0.863l-0.861,1.293l-0.432,1.51v9.053h-3.234V170.084"/>
<path fill="#B70005" d="M614.154,177.846l-0.861,0.432h-0.646l-2.588,0.432h-0.861l-0.646,0.645l-0.861,0.432v2.156l0.861,0.645
	l1.078,0.432h0.861l1.295-0.432l1.076-0.215l1.293-0.861V177.846 M617.82,181.941v0.645l0.863,0.432h0.861v2.156
	c-2.105,0.449-4.031,1.203-4.959-1.293l-1.293,0.861l-1.078,0.432l-3.018,0.432h-1.939l-1.725-0.863l-1.078-1.725l-0.432-1.939
	l0.432-1.293v-0.863l0.861-0.645l0.648-0.863l1.725-0.432c2.029-0.584,10.027-0.865,5.604-4.527l-0.646-0.432h-1.293l-1.295,0.432
	l-1.076,0.432l-0.863,1.725h-3.234v-1.293l0.432-1.295l1.51-1.508l2.371-0.861h4.525l2.156,0.861l0.648,0.863l0.43,0.645
	l0.432,0.863l0.432,1.293V181.941z"/>
<polyline fill="#B70005" points="621.484,164.049 624.717,164.049 624.717,176.121 630.754,170.084 634.852,170.084 
	629.246,175.689 635.713,185.174 631.615,185.174 626.873,177.846 624.717,179.785 624.717,185.174 621.484,185.174 
	621.484,164.049 "/>
<path fill="#B70005" d="M637.436,185.174v-15.09h3.234v15.09H637.436z M637.436,167.283v-3.234h3.234v3.234H637.436z"/>
<polyline fill="#B70005" points="644.334,170.084 647.568,170.084 647.568,172.023 648.861,171.379 649.51,170.516 651.232,169.654 
	652.311,169.654 654.898,170.084 656.408,170.947 657.701,172.455 658.133,175.043 658.133,185.174 654.467,185.174 654.467,174.18 
	653.604,172.887 652.742,172.455 651.664,172.023 649.939,172.455 648.861,173.318 648,174.611 648,185.174 644.334,185.174 
	644.334,170.084 "/>
<path fill="#B70005" d="M672.359,177.414l-0.432-2.156l-0.861-1.51l-1.078-1.293l-1.725-0.432l-1.293,0.432h-0.648l-1.293,1.293
	l-0.863,1.941v3.664l0.863,1.725l1.293,1.293l0.648,0.215h2.156l0.861-0.215l1.078-1.293l0.861-2.156L672.359,177.414
	 M675.592,184.311c1.324,8.883-14.355,8.951-14.227,2.373h3.232l0.432,0.863l0.861,0.861l1.08,0.432h3.018l1.078-0.863l0.861-1.293
	l0.432-1.51v-2.588c-1.807,3.25-3.424,2.52-6.469,2.588c-3.729-0.855-5.184-4.232-5.389-7.76c0.895-3.141,0.881-5.637,4.096-7.33
	c3.041-0.758,5.91-1.096,7.762,1.939v-1.939h3.232V184.311z"/>
<polyline fill="#FFFFFF" points="370.131,125.678 349.867,136.672 363.664,118.779 354.611,107.785 372.934,106.922 387.592,89.029 
	385.221,106.275 403.543,106.275 383.066,117.916 379.83,135.809 370.131,125.678 "/>
<path fill="#A6C9D7" d="M305.029,162.754c45.779-15.695,81.564-36.734,121.582-63.16c32.711-20.205,67.605-37.984,106.273-42.684
	c-46.408,17.041-80.219,40.744-122.441,66.826C378.143,143.145,342.754,158.498,305.029,162.754"/>
<g>
	<path fill="#FFFFFF" d="M716.766,91.617h-20.908l-0.432,6.898h1.725l3.232,0.863l0.432,0.215v0.43l-0.432,2.156l-7.76,17.031
		l-3.234-11.426l-1.941-7.762v-0.43l0.863-0.215l2.803-0.863l1.078-0.432l0.432-6.467h-29.318l-0.646,6.467l1.508,0.432l2.588,0.863
		l1.51,0.645l1.293,1.725l1.078,2.373l8.191,26.514l3.664,12.504h6.467l19.617-38.154l1.51-2.805l1.725-1.725l1.939-1.076
		l3.018-0.863h1.078l0.863-6.898H716.766 M643.473,118.779l-0.863,5.82l-1.076,3.879l-0.863,3.02l-1.293,1.939l-1.293,1.293
		l-1.078,0.648h-2.154l-1.51-0.217l-1.727-1.295l-0.861-1.293l-1.078-1.939l-0.43-2.156l-0.863-2.369l-0.43-5.605l0.43-6.252
		l0.432-3.666l0.861-3.664l0.863-2.369l1.076-2.373l1.295-1.725l1.293-1.508l1.078-0.432l1.293-0.432h0.432l1.939,0.432l1.725,1.078
		l0.863,1.293l0.646,1.725l0.861,4.311l0.432,5.389V118.779z M638.514,90.324c-34.07,0.635-42.186,52.289-4.742,52.814
		C668.102,143.059,673.721,90.764,638.514,90.324z M568.672,150.035c2.492-7.422,8.859-5.932,15.305-5.604
		c6.469-0.324,9.344,3.309,6.682,9.055c-3.635,5.227-8.043,4.76-13.797,4.742C571.486,156.916,569.551,155.328,568.672,150.035z
		 M612.646,94.42l-1.293-2.371c-25.959,2.568-10.586,0.334-27.594-1.725c-9.342,0.543-15.797,3.205-21.342,10.994
		c-2.639,6.73-3.779,6.543-1.939,13.797c0.545,3.301,3.701,7.314,6.898,8.621l-3.666,2.805l-2.369,1.293l-2.803,1.076l-0.863,0.432
		v0.863l-0.43,1.725l0.43,2.369l0.863,2.805l1.939,2.801l1.725,1.293l1.508,1.295c-8.885,4.371-14.127,10.621-6.896,19.4
		c7.518,9.604,29.955,6.037,37.939-0.863c7.99-4.811,14.402-15.623,9.701-24.789c-7.291-13.15-30.35-1.703-29.748-9.27l0.861-0.43
		l4.527,0.43l3.664-0.43l3.881-0.863l3.664-1.078l3.666-2.156l3.018-2.371l2.801-3.232l0.863-1.725l0.646-1.941l0.43-2.156
		l0.432-2.369v-4.096l-0.861-1.941h4.098l3.232-3.232l1.725-2.588l0.861-1.51L612.646,94.42z M586.994,109.078
		c-0.5,14.768-12.18,13.16-9.916-1.293c0.549-3.33,1.543-8.889,5.389-10.131h0.432l1.078,0.43l1.293,0.863l0.863,1.508l0.861,2.588
		l0.43,2.803L586.994,109.078z M541.725,123.736c-12.516-0.176-14.936,18.941-1.51,19.402
		C552.045,143.537,554.822,123.977,541.725,123.736z M513.699,108.648c-15.229-6.482,2.428-20.244,6.898,0.43l6.469-1.725
		c0.109-2.605-0.701-11.938-1.941-14.658l-0.43-0.43l-1.941-0.648l-2.586-0.432l-2.803-0.432l-3.666-0.43
		c-12.143-0.367-24.695,10.781-19.832,23.498c4.334,10.518,21.727,11.188,17.893,19.184c-6.387,7.961-15.338-5.58-15.088-11.426
		l-6.037,0.432l-0.432,1.293v12.504l0.432,2.588l0.215,0.432l0.432,0.215l2.586,1.725l3.234,1.293l4.096,0.646l3.881,0.432
		l4.094-0.432l3.666-0.646C530.568,136.781,534.068,115.729,513.699,108.648z M481.148,129.342l1.725-20.264l0.432-4.525
		l-0.861-3.666l-1.295-3.664l-1.939-2.803l-2.154-1.725l-2.371-1.078c-7.826-3.236-12.645,0.521-19.186,4.312l0.43-6.469
		l-2.371,0.863l-9.701,2.371l-9.484,1.725h-1.51l-0.432,6.035h1.512l2.586,0.863l0.215,0.43l0.432,0.432l0.43,1.51v3.018
		l-2.369,21.771v3.451l-0.432,1.076l-1.293,1.293l-1.08,0.432l-2.801,0.432h-1.725l-0.432,1.51l-0.432,5.389h29.318l0.432-6.682
		l-1.725-0.217l-1.08-0.432h-1.293l-0.432-0.863v-4.525l2.373-24.789l3.449-1.941l1.508-0.432h1.725l1.941,0.432l1.293,0.648
		l0.861,1.293l0.217,1.293v4.311l-1.51,18.109l-0.432,3.664l-0.43,1.938l-0.861,0.432l-0.432,0.432l-1.941,0.432h-1.725
		l-0.215,6.898h28.023l0.863-6.682l-2.156-0.217l-2.371-0.432l-0.863-0.432l-0.432-0.432v-0.861l-0.432-0.863L481.148,129.342z
		 M408.287,118.779c-1.977,28.246-18.607,17.08-14.875-4.527C395.449,89.498,412.289,94.912,408.287,118.779z M421.436,97.654
		c-23.141-22.029-59.711,9.205-43.113,36.213c9.184,12.807,29.904,11.607,40.527,1.295
		C428.209,126.016,430.986,107.926,421.436,97.654z M360.43,87.092c13.021-1.34,13.299-18.285,1.512-18.324
		C350.172,68.422,347.652,85.797,360.43,87.092z M365.604,128.266l3.666-38.373l-2.371,0.432l-9.701,2.371l-9.916,1.725h-1.078
		l-0.861,6.035l1.508,0.432l2.586,0.432l0.863,0.43l0.217,0.432l0.432,1.51l-0.432,3.232l-1.941,21.344
		c-0.42,5.977-1.021,7.004-7.33,6.896l-0.861,6.898h31.041l0.432-6.898C364.875,135.111,365.475,134.189,365.604,128.266z
		 M339.736,130.205l-2.156,0.861l-2.801,0.863l-2.156,0.213l-1.078-0.213l-1.295-0.432l-0.861-1.725l-0.432-2.803l0.432-2.154
		l2.156-24.793h8.838l0.861-0.43l0.861-0.646l0.863-1.293v-1.295l0.432-1.078l-0.432-1.723l-1.293-1.941h-9.27l1.51-14.227
		l-3.666-2.156l-0.861,0.863l-13.365,8.621l-0.863,6.898h-3.232l-4.527,5.174l0.861,3.232h6.254l-2.588,28.242v4.74l0.432,2.373
		l1.293,2.154l1.078,1.939c7.062,7.047,19.01,2.305,26.084-1.939L339.736,130.205z M281.531,130.635l-1.725,0.863l-1.076,0.432
		l-1.295-0.432l-1.293-0.863l-1.076-1.725l-0.432-2.369l0.432-0.863v-1.941l1.076-1.725l1.293-1.076l1.941-1.295l3.234-1.725
		L281.531,130.635z M302.658,130.635l-1.725,0.432h-1.941c-3.1-13.123,8.438-29.902-6.035-38.801
		c-8.131-3.332-11.186-1.82-19.184,1.293c-4.771,2.732-12.727,4.617-13.799,10.994c-0.359,7.705,12.301,10.34,14.229,2.369
		l1.939-3.879l1.725-3.02l0.863-0.645l1.508-0.432l1.293,0.432l1.512,1.508l0.43,1.293l0.432,3.234v1.939l-0.432,2.588
		c-7.879,4.166-27.033,5.809-26.299,17.893c-0.867,5.004,1.861,9.842,5.605,12.934c9.678,4.404,10.961,2.199,19.832-2.803
		l0.861,1.078l0.863,1.293l1.508,1.293l1.725,0.863l1.941,0.646h3.016l13.367-6.898l-1.293-6.898L302.658,130.635z M129.342,150.035
		c1.811-7.123,9.441-6.178,15.09-5.604l4.094,0.43l1.51,0.863l1.295,1.078l0.861,1.725v1.508l-0.43,1.727l-0.863,1.725
		C147.064,160.865,128.898,160.203,129.342,150.035z M249.412,128.479l6.037-65.1l-2.371,0.43l-10.348,2.588l-9.701,1.508h-1.51
		l-0.432,6.469h1.512l2.586,0.43l0.646,0.432l0.861,0.432c0.303,18.908-3.74,37.434-4.742,56.264l-0.432,1.076l-0.432,0.432
		l-0.861,0.861l-0.861,0.432l-3.234,0.432h-0.432l0.432-2.588l-4.096-0.432h-1.51l-0.861-0.645v-4.096l3.666-36.648h-2.373
		l-9.484,1.295h-0.861L199.4,92.695l-0.432,1.725l-0.432,4.959l4.744,0.645l1.293,0.432l0.432,0.432v3.666l-2.371,24.789
		l-1.725,1.293l-1.51,0.432l-1.293,0.432h-3.232l-0.863-0.432l-1.725-1.725l-0.215-1.508l-0.432-1.725l0.432-1.941l1.076-15.52
		l2.156-17.895h-2.156l-10.131,1.295l-1.941,0.217l-8.621,0.43l-0.863-0.646l-3.232,0.217l-12.936,0.861
		c-7.52-3.525-15.736-3.701-23.279,0c-12.098,5.104-17.045,23.387-4.527,30.609l-3.449,2.805l-2.156,1.293l-2.803,1.076
		l-1.293,0.432c-0.262,5.469,1.465,10.373,6.467,13.15c-9.305,4.652-14.203,9.977-7.328,19.4c8.838,9.539,29.424,6.191,38.369-0.863
		c8.049-4.961,13.783-15.484,9.701-24.789c-8.498-12.676-27.449-2.59-30.18-8.406l0.432-0.863l0.43-0.43l4.529,0.43l4.096-0.43
		l3.662-0.863l4.098-1.078l3.232-2.156l3.234-2.371c4.416-5.715,6.381-10.258,4.527-17.461h3.664l1.078-0.863l1.293-1.293
		l1.941-2.801v1.293l3.664,1.076l1.293,0.432l0.432,0.432l0.43,1.293l-0.43,2.373l-2.156,21.557v4.096l0.432,3.232l1.293,3.234
		c5.584,8.982,18.582,7.744,25.654,1.293l-0.432,3.664l2.371,1.51l10.562-1.941l10.348-1.725l-0.432,2.588h30.826l0.861-6.898
		h-1.723l-3.234-0.432l-0.861-0.432l-0.648-0.432v-0.861l-0.432-0.863L249.412,128.479z M147.664,109.078l-0.432,3.232l-1.293,3.236
		l-0.646,1.725l-0.861,1.076l-1.295,0.863h-2.801l-0.863-0.863l-1.078-1.508l-0.432-2.588l-0.43-2.803v-3.664
		C139.797,93.996,148.467,94.254,147.664,109.078z M115.113,129.773l-3.232-5.174c-5.893,4.52-7.1,5.492-15.092,5.174l-1.939-0.432
		l-1.725-1.076l-1.508-1.295l-1.293-2.154l-1.293-2.373l-0.863-2.803v-3.232l15.09-0.861l9.053-0.863l1.078-0.432l1.293-0.43
		l1.295-1.08l0.861-1.725c0.826-5.27-0.369-11.104-4.096-15.088c-12.453-11.613-28.963-3.508-36.646,9.055
		C57.117,136.342,94.547,158.787,115.113,129.773z M89.893,107.785l1.293-4.096l1.939-3.234l2.156-1.508l0.646-0.432l1.293-0.432
		l0.861,0.432l1.08,0.432l0.43,1.076l0.863,1.725l0.432,1.512v3.662l-0.432,0.863H89.893z M45.916,90.754
		c-1.15,8.734-6.398,15.037-15.736,13.799l1.939-23.498l0.432-2.156l0.432-0.861l0.861-0.215l2.803-0.432l1.941,0.432l1.723,0.215
		C45.086,80.236,46.408,85.975,45.916,90.754z M63.377,132.143l-2.803-3.877l-3.664-7.33l-3.666-7.113l-3.232-6.469
		c9.197-3.355,15.773-12.488,14.658-22.418c-2.791-7.416,0.418-3.932-6.467-10.779L54.539,72l-4.096-1.293l-5.391-0.646
		l-6.896-0.432H6.898l-0.432,6.898c5.73,1.4,9.412-0.48,7.76,8.408l-3.664,40.742l-0.861,4.957L9.27,131.93l-0.648,1.076
		l-0.861,0.861l-1.723,0.432l-4.098,0.432H0.432L0,142.061h35.352l0.863-6.898l-1.939-0.432l-3.664-0.432l-1.725-0.432l-0.432-0.861
		l-0.861-0.863v-1.938l0.43-4.096l1.295-13.799c7.445-0.059,5.855,11.08,14.227,21.988c4.611,8.193,16.965,8.771,25.221,8.408
		l0.432-1.078l1.078-4.957l-1.51-0.432l-2.371-1.51L63.377,132.143z"/>
</g>
<path fill="#0F173F" d="M30.826,106.275c14.625,2.117,20.094-15.854,15.09-25.006l-1.078-2.371l-1.725-1.076l-1.939-1.295
	l-2.586-0.861h-1.941l-3.234,0.432l-1.725,0.43l-0.43,0.863l-0.432,0.646l-0.215,2.586l-2.588,25.652H30.826 M67.043,141.197
	c-7.652-0.373-17.973-0.604-22.205-8.191l-1.293-2.371l-3.664-7.33l-3.666-8.189l-1.295-1.941l-1.076-1.725l-2.156-0.863h-4.094
	l-1.512,15.523v6.896l0.863,1.293l1.078,0.863l1.295,0.646l4.957,0.432l-0.432,4.096H1.939v-4.096
	c8.033,0.072,9.975-2.273,10.348-10.131l4.096-40.744v-5.174l-0.432-1.725l-0.432-1.076l-2.586-1.725l-4.312-0.432v-4.098h29.535
	l6.682,0.432l4.742,0.863l4.096,1.293l3.234,1.51l2.803,2.588l0.861,1.508l0.863,1.725l0.861,1.939l0.432,1.941
	c1.59,9.865-5.529,18.842-14.66,21.771c3.826,7.355,12.006,28.096,20.266,31.258L67.043,141.197z"/>
<path fill="#0F173F" d="M97.221,96.359h-1.725l-1.508,0.863l-2.803,2.801l-1.293,1.725l-0.861,2.373l-1.08,2.586l-0.432,3.234
	l12.504-0.432h1.295l0.43-0.432l0.863-1.725v-4.094l-0.432-1.941l-0.432-1.725l-0.861-1.078l-1.295-1.293l-1.078-0.863H97.221
	 M113.174,129.773c-17.393,22.645-48.613,10.1-37.941-19.617c4.646-11.953,21.885-24.141,33.844-14.875
	c4.812,2.875,6.152,8.623,6.469,13.797l-0.432,1.508l-0.863,1.295l-0.861,0.861l-1.508,0.432l-9.27,0.648l-15.953,0.861
	c-1.441,16.369,12.414,21.908,24.791,12.719L113.174,129.773z"/>
<path fill="#0F173F" d="M143.137,95.93l-1.076,0.43l-1.293,0.432l-1.295,0.863l-0.861,1.293l-1.078,1.508l-0.863,2.156l-0.432,2.373
	l-0.432,2.801v5.389l0.432,1.941l0.432,2.156l0.863,1.508l1.078,1.293l1.725,0.863c5.381,0.984,6.197-2.26,8.189-6.684
	C149.023,108.672,151.621,97.113,143.137,95.93 M139.473,142.492c-13.893-1.801-17.047,14.738-2.371,17.461
	C155.191,163.484,163.023,140.018,139.473,142.492z M171.162,94.42l-1.941,3.664l-1.725,1.51l-1.508,1.293l-6.037-0.432
	c7.424,13.801-7.105,26.725-22.418,24.361l-2.588-0.217l-1.078,1.078l-0.43,1.725v1.508l1.293,1.295l1.939,0.861
	c7.225,1.646,19.539-1.973,25.654,4.312c9.895,16.975-13.164,31.174-28.025,30.611c-19.318,0.059-26.623-15.918-6.25-23.93
	c-5.143-1.793-9.156-5.656-8.41-11.426l4.098-1.725l3.232-1.939l4.096-3.234c-11.1-4.576-11.59-16.523-4.096-24.789
	c4.955-4.531,10.672-7.111,17.463-6.898c15.912,1.066,1.986,4.973,26.299,1.51L171.162,94.42z"/>
<path fill="#0F173F" d="M223.762,137.533l-9.918,1.939l-9.701,2.156l-0.861-0.861l0.432-6.469
	c-7.453,6.158-16.383,11.08-24.791,3.234l-1.51-2.154l-0.861-2.805l-0.432-2.801v-3.232l1.941-21.988l0.432-2.805l-0.432-1.725
	l-0.648-1.076l-2.154-0.432l-1.939-0.861V94.42l9.699-0.432l10.131-1.293l-0.861,7.328l-0.646,8.625l-1.725,15.52v2.373l0.432,1.938
	l0.432,1.295l0.861,1.725c3.719,2.812,9.406,2.127,12.502-1.293l2.588-25.652v-2.805l-0.432-1.725l-0.861-1.076l-1.725-0.432
	l-3.234-0.861l0.432-3.234l10.562-0.432l9.701-1.293l-3.234,34.275v3.664l0.432,1.939l0.43,0.432l0.863,0.432l1.941,0.861h2.586
	L223.762,137.533"/>
<polyline fill="#0F173F" points="226.131,140.336 226.131,136.672 230.227,135.809 231.52,135.379 232.168,135.162 233.029,133.867 
	233.461,132.574 233.893,128.479 238.418,80.191 238.85,76.527 238.418,75.234 237.988,74.373 237.125,73.725 236.262,73.293 
	232.6,72.861 233.029,69.629 243.162,67.904 253.51,65.965 247.688,128.479 247.256,132.574 247.688,134.299 248.119,135.162 
	248.98,135.809 250.061,136.24 253.725,136.672 253.51,140.336 226.131,140.336 "/>
<path fill="#0F173F" d="M284.766,114.684c-6.021,2.848-14.006,6.496-11.424,14.658l0.432,1.293l0.861,1.295l1.078,0.645l0.861,0.432
	l2.156,0.432l1.939-0.432l2.373-1.076L284.766,114.684 M292.094,141.629c-4.92-0.908-6.52-1.498-8.621-6.25
	c-6.818,2.895-10.07,8.729-17.461,4.957c-4.295-2.156-6.701-5.334-7.33-10.131c-0.812-15.037,17.443-12.73,26.516-19.619
	l0.432-3.232v-4.094l-0.432-1.941l-0.861-1.295c-1.707-2.244-3.113-3.844-6.037-2.369l-2.156,1.725l-1.508,2.801l-2.156,4.527
	l-0.861,1.51l-1.08,1.293l-1.293,0.432c-3.883,0.373-6.84-1.748-7.758-5.389l0.43-1.293l0.863-1.08l3.232-2.586l3.664-1.939
	l4.527-2.373l5.174-2.154c8.141-2.217,10.242-0.996,16.383,3.232l1.078,1.725l0.861,1.51l0.432,1.725l0.432,3.666v4.094
	l-1.725,17.463c-0.672,6.414,1.17,7.209,6.682,5.602l0.217,3.236L292.094,141.629z"/>
<path fill="#0F173F" d="M329.818,140.336c-3.596,2.016-8.139,1.229-11.639-0.432l-2.156-1.508l-1.293-1.725l-0.646-2.373
	l-0.432-2.801v-3.232l2.803-29.75h-6.467l-0.432-1.293l3.234-3.664h4.096l0.861-7.762l12.934-8.406l1.293,0.646l-1.293,15.521
	h10.133l0.43,0.861v1.51l-0.43,1.725l-1.078,0.861h-9.918l-2.369,26.084v2.803l0.43,1.939l0.432,1.725l0.646,1.076
	c2.5,2.977,6,1.354,9.055,0.432l0.861,3.666L329.818,140.336"/>
<path fill="#0F173F" d="M361.941,70.492c9.814-0.654,8.064,15.432-1.512,14.443C349.889,85.039,352.73,69.625,361.941,70.492
	 M342.537,140.336l0.432-3.664c6.645-0.072,6.838-2.375,7.547-8.406l1.725-21.344l0.43-3.879l-0.43-1.295l-0.863-1.725l-1.078-0.43
	l-3.018-0.646l0.432-3.018l9.916-1.51l9.701-2.371l-3.234,36.217l-0.432,4.309l0.863,2.588l0.646,0.217l1.293,0.861l3.664,0.432
	l-0.432,3.664H342.537z"/>
<path fill="#0F173F" d="M401.82,96.359c-12.449,0.158-14.717,38.537-2.803,40.744c7.189,1.658,9.318-7.322,10.562-12.504
	l0.863-10.777v-4.312l-0.432-4.096C408.627,100.068,408.043,96.783,401.82,96.359 M403.975,92.049
	c33.67,1.889,25.158,50.047-5.389,49.58C362.305,139.654,373.529,91.42,403.975,92.049z"/>
<path fill="#0F173F" d="M459.592,140.336l0.432-3.664l2.803-0.432l0.861-0.432l0.863-0.646l0.43-0.863
	c0.889-9.854,4.016-20.787,2.373-28.885l-0.432-1.725l-0.863-1.078l-1.078-1.293l-1.293-0.432l-1.291-0.432l-1.08-0.432
	l-2.156,0.432l-1.939,0.863l-2.154,0.861l-1.941,1.51l-2.371,25.652l-0.432,3.664l0.432,1.293l0.432,0.863l0.215,0.646l0.861,0.432
	l2.373,0.432v3.664h-25.438l0.432-3.664c7.385-0.576,6.463-1.18,7.545-8.193l2.156-21.771v-4.959l-0.432-0.861l-0.863-0.863
	l-0.861-0.43l-2.803-0.646V95.93l9.701-1.51l9.914-2.371l-0.43,7.545c8.846-5.975,19.117-13.391,26.299-0.646
	c3.148,9.061,0.018,25.328-0.646,34.059l0.432,1.293l0.215,0.863l0.432,0.646l1.293,0.432l3.234,0.432l-0.432,3.664H459.592"/>
<path fill="#0F173F" d="M521.891,106.922l-1.723-4.311l-1.078-1.725l-1.293-1.508l-1.295-1.295l-1.51-0.861l-1.723-0.863h-1.51
	l-2.156,0.432l-1.508,1.293l-1.725,1.51l-0.432,2.586v1.941l1.295,2.154l2.369,1.941l3.234,1.939l5.82,3.018l1.939,1.51l2.156,1.725
	l1.51,1.939l0.861,2.156c1.188,5.953,0.557,10.512-4.096,14.875c-7.691,7.203-19.918,7.971-28.887,2.586l-0.432-6.035v-4.096
	l0.432-4.098l2.803-0.432c1.998,5.914,6.869,17.111,15.09,13.367l1.725-1.293l1.51-1.512l0.43-1.938v-2.588
	c-3.596-6.762-5.086-4.721-10.994-8.838c-21.416-13.566,2.768-35.803,21.127-26.516l0.432,2.803l0.432,3.232l0.43,6.252
	L521.891,106.922"/>
<path fill="#0F173F" d="M540.215,141.629l-1.725-0.432l-1.508-0.43l-1.293-0.432l-0.863-1.293l-0.861-1.078l-0.648-1.293
	l-0.432-1.51v-1.725c1.721-5.879,3.285-7.105,8.84-8.191c4.344,0.383,7.492,3.729,6.898,8.191l-0.432,1.725l-0.215,1.51
	l-0.861,1.293l-1.295,1.078l-1.293,1.293l-1.08,0.432l-1.723,0.43L540.215,141.629"/>
<path fill="#0F173F" d="M582.467,95.93c-5.76,2.432-4.875,3.818-6.898,9.055c-1.293,4.299-0.834,15.947,5.604,16.166
	c5.77-0.102,7.613-7.541,7.762-12.072v-4.957l-0.432-1.941l-0.861-2.156l-0.646-1.508l-0.861-1.293l-1.725-0.863l-1.51-0.43H582.467
	 M579.232,142.492c-14.619-1.99-16.934,15.184-2.371,17.461C593.846,163.502,602.92,140.164,579.232,142.492z M610.49,94.42
	l-1.939,3.664l-1.725,1.51l-1.293,1.293l-6.037-0.432c7.867,13.6-6.941,26.709-22.418,24.361l-2.371-0.217l-1.293,1.078
	l-0.648,1.725l0.432,1.508l1.078,1.295l2.154,0.861c6.094,1.646,20.172-1.939,25.223,4.312
	c10.357,16.99-12.881,31.166-27.809,30.611c-19.207-0.242-27.277-15.012-6.467-23.93c-5.059-2.43-8.928-5.252-8.191-11.426
	l3.664-1.725l3.234-1.939l4.525-3.234c-10.174-4.824-10.85-12.564-6.467-21.988c4.395-6.346,12.004-9.775,19.617-9.699
	c16.164,0.939,1.811,5.061,26.299,1.51L610.49,94.42z"/>
<path fill="#0F173F" d="M636.574,96.359c-6.635-0.93-9.549,13.109-10.133,17.463c0.049,8.016-1.426,20.658,8.41,23.711l1.723-0.43
	l1.51-0.432l1.725-0.863l1.293-1.51l1.078-2.369l1.293-3.451l0.861-3.879l0.863-5.389
	C645.441,112.873,646.604,96.111,636.574,96.359 M638.514,92.049c33.691,1.135,26.297,49.24-4.742,49.58
	C598.605,140.621,606.863,92.662,638.514,92.049z"/>
<polyline fill="#0F173F" points="716.334,96.791 713.102,97.654 710.514,98.947 709.006,100.887 706.852,104.121 688.311,141.197 
	684.215,141.197 677.965,122.012 672.359,103.689 671.066,100.887 669.557,98.947 667.4,97.654 664.598,96.791 664.598,93.559 
	691.113,93.559 690.684,96.791 687.879,97.654 686.154,98.516 685.725,99.379 685.725,100.023 686.154,102.18 692.191,124.6 
	696.719,114.252 702.107,102.611 702.754,100.455 702.754,99.594 702.539,98.947 701.676,98.084 700.814,97.654 697.58,96.791 
	697.58,93.559 716.766,93.559 716.334,96.791 "/>
<polyline fill="#FFFFFF" points="369.27,37.941 359.568,43.115 366.035,34.492 361.51,29.318 370.562,28.887 377.461,20.264 
	376.168,28.455 385.221,28.455 375.521,34.275 373.797,42.684 369.27,37.941 "/>
</svg>
